<?xml version="1.0" encoding="utf-8"?>
<!-- Generator: Adobe Illustrator 22.0.1, SVG Export Plug-In . SVG Version: 6.00 Build 0)  -->
<svg version="1.1" id="Layer_1" xmlns="http://www.w3.org/2000/svg" xmlns:xlink="http://www.w3.org/1999/xlink" x="0px" y="0px"
	 viewBox="0 0 240 160" style="enable-background:new 0 0 240 160;" xml:space="preserve">
<style type="text/css">
	.st0{fill:#1B171A;}
	.st1{fill:#F8C38B;}
	.st2{fill:#FDCD9A;}
	.st3{fill:#FED49D;}
	.st4{fill:#D69463;}
	.st5{fill:#DBA371;}
	.st6{fill:#AF6D57;}
	.st7{fill:#575154;}
	.st8{fill:#C07558;}
	.st9{fill:#FFDCAD;}
	.st10{fill:#F7C08A;}
	.st11{fill:#544E4D;}
	.st12{fill:#71655E;}
	.st13{fill:#191517;}
	.st14{fill:#5C5656;}
	.st15{fill:#E6B17D;}
	.st16{fill:#FCBB7A;}
	.st17{fill:#6E6562;}
	.st18{fill:#3C393E;}
	.st19{fill:#F8AF6E;}
	.st20{fill:#CC7454;}
	.st21{fill:#FEDCAF;}
	.st22{fill:#FFE8BF;}
	.st23{fill:#655D58;}
	.st24{fill:#2B2A2E;}
	.st25{fill:#2C2B30;}
	.st26{fill:#655E57;}
	.st27{fill:#966758;}
	.st28{fill:#7D7069;}
	.st29{fill:#413F42;}
	.st30{fill:#E18857;}
	.st31{fill:#76675A;}
	.st32{fill:#C58C5F;}
	.st33{fill:#433F41;}
	.st34{fill:#C27F58;}
	.st35{fill:#534F4E;}
	.st36{fill:#EDB781;}
	.st37{fill:#E79C62;}
	.st38{fill:#B66C54;}
	.st39{fill:#736152;}
	.st40{fill:#2F2D31;}
	.st41{fill:#36353B;}
	.st42{fill:#937B6A;}
	.st43{fill:#A16E5E;}
	.st44{fill:#484747;}
	.st45{fill:#655C55;}
	.st46{fill:#434140;}
	.st47{fill:#575656;}
	.st48{fill:#A1846B;}
	.st49{fill:#544E4C;}
	.st50{fill:#857366;}
	.st51{fill:#191618;}
	.st52{fill:#68605B;}
	.st53{fill:#534F50;}
	.st54{fill:#3E3B3F;}
	.st55{fill:#424043;}
	.st56{fill:#313034;}
	.st57{fill:#322F33;}
	.st58{fill:#55504E;}
	.st59{fill:#FBB774;}
	.st60{fill:#FECC8B;}
	.st61{fill:#FEC67B;}
	.st62{fill:#FECB86;}
	.st63{fill:#FFDEA3;}
	.st64{fill:#FED88C;}
	.st65{fill:#FDE79D;}
	.st66{fill:#FFD892;}
	.st67{fill:#CF865D;}
	.st68{fill:#DE895B;}
	.st69{fill:#ED9F66;}
	.st70{fill:#E4A26C;}
	.st71{fill:#ECAB73;}
	.st72{fill:#A67865;}
	.st73{fill:#87685C;}
	.st74{fill:#514246;}
	.st75{fill:#715E5C;}
	.st76{fill:#655F5E;}
	.st77{fill:#CD7759;}
	.st78{fill:#FEEBB7;}
	.st79{fill:#464447;}
	.st80{fill:#2A2528;}
	.st81{fill:#343136;}
	.st82{fill:#655B57;}
	.st83{fill:#B48B69;}
	.st84{fill:#D39C6D;}
	.st85{fill:#8D7968;}
	.st86{fill:#9D836D;}
	.st87{fill:#28262A;}
	.st88{fill:#847469;}
	.st89{fill:#69615F;}
	.st90{fill:#887267;}
	.st91{fill:#7E695E;}
	.st92{fill:#474447;}
	.st93{fill:#9A816D;}
	.st94{fill:#726660;}
	.st95{fill:#FDC76F;}
	.st96{fill:#FCB96B;}
	.st97{fill:#B08C6F;}
	.st98{fill:#827069;}
	.st99{fill:#645353;}
	.st100{fill:#947E6F;}
	.st101{fill:#221C1D;}
	.st102{fill:#B1896C;}
	.st103{fill:#A07D65;}
	.st104{fill:#F8A562;}
	.st105{fill:#F38453;}
	.st106{fill:#E27A53;}
	.st107{fill:#FFF3C8;}
	.st108{fill:#5D5654;}
	.st109{fill:#967D68;}
	.st110{fill:#36353A;}
	.st111{fill:#7A6B5D;}
	.st112{fill:#1F1E22;}
	.st113{fill:#3C3B3F;}
	.st114{fill:#2E2D32;}
	.st115{fill:#887465;}
	.st116{fill:#827062;}
	.st117{fill:#937766;}
	.st118{fill:#937A6D;}
	.st119{fill:#A38671;}
	.st120{fill:#F69558;}
	.st121{fill:#987B62;}
	.st122{fill:#535050;}
	.st123{fill:#7A6D65;}
	.st124{fill:#6E5E56;}
	.st125{fill:#272429;}
	.st126{fill:#B18866;}
	.st127{fill:#504948;}
	.st128{fill:#937560;}
	.st129{fill:#FBB25C;}
	.st130{fill:#F8AC6D;}
	.st131{fill:#FFD685;}
	.st132{fill:#FDE68E;}
	.st133{fill:#FFFFFD;}
	.st134{fill:#F48C58;}
	.st135{fill:#F79A5E;}
	.st136{fill:#F18355;}
	.st137{fill:#DC7C57;}
	.st138{fill:#FAAA60;}
	.st139{fill:#987668;}
	.st140{fill:#383538;}
	.st141{fill:#B58C6B;}
	.st142{fill:#605B5A;}
	.st143{fill:#67615E;}
	.st144{fill:#483F42;}
	.st145{fill:#4B4445;}
	.st146{fill:#423F43;}
	.st147{fill:#5D595A;}
	.st148{fill:#3F3E43;}
	.st149{fill:#2A2527;}
	.st150{fill:#81726A;}
	.st151{fill:#8B7B6F;}
	.st152{fill:#605354;}
	.st153{fill:#BC9272;}
	.st154{fill:#AF8C73;}
	.st155{fill:#75625F;}
	.st156{fill:#9A8172;}
	.st157{fill:#F9A456;}
	.st158{fill:#43383A;}
	.st159{fill:#615453;}
	.st160{fill:#78685F;}
	.st161{fill:#AA8468;}
	.st162{fill:#B18A6B;}
	.st163{fill:#78675C;}
	.st164{fill:#524E4D;}
	.st165{fill:#77675B;}
	.st166{fill:#5C5754;}
	.st167{fill:#2E2C30;}
	.st168{fill:#2F2A2D;}
	.st169{fill:#7C6E64;}
	.st170{fill:#C39670;}
	.st171{fill:#AE8470;}
	.st172{fill:#FED579;}
	.st173{fill:#484244;}
	.st174{fill:#5D5552;}
	.st175{fill:#977C68;}
	.st176{fill:#F79857;}
	.st177{fill:#AA8670;}
	.st178{fill:#C39171;}
	.st179{fill:#937968;}
	.st180{fill:#7B6A5F;}
	.st181{fill:#746761;}
	.st182{fill:#B7906F;}
	.st183{fill:#3F3132;}
	.st184{fill:#342727;}
	.st185{fill:#69605E;}
	.st186{fill:#9F8673;}
	.st187{fill:#6B5F5B;}
	.st188{fill:#BC9B7E;}
	.st189{fill:#8A7064;}
	.st190{fill:#CA9C76;}
	.st191{fill:#C69F7A;}
	.st192{fill:#8F7163;}
	.st193{fill:#534441;}
	.st194{fill:#6F5E59;}
	.st195{fill:#816E62;}
	.st196{fill:#987D68;}
	.st197{fill:#383032;}
	.st198{fill:#AC8569;}
	.st199{fill:#957C69;}
	.st200{fill:#685D58;}
	.st201{fill:#4C4343;}
	.st202{fill:#6F625D;}
	.st203{fill:#373337;}
	.st204{fill:#947B65;}
	.st205{fill:#6A5F58;}
	.st206{fill:#6F645D;}
	.st207{fill:#3D383B;}
	.st208{fill:#292021;}
	.st209{fill:#39373B;}
	.st210{fill:#8A7768;}
	.st211{fill:#71645E;}
	.st212{fill:#2F282B;}
	.st213{fill:#DBA676;}
	.st214{fill:#6A5D56;}
	.st215{fill:#4A3F42;}
	.st216{fill:#B18D71;}
	.st217{fill:#9D816C;}
	.st218{fill:#635957;}
	.st219{fill:#9B8371;}
	.st220{fill:#4C4444;}
	.st221{fill:#2B2227;}
	.st222{fill:#69605C;}
	.st223{fill:#887569;}
	.st224{fill:#393034;}
	.st225{fill:#50494A;}
	.st226{fill:#4A4347;}
</style>
<g>
	<path class="st0" d="M45,161c-13.7,0-27.3-0.1-41,0.1c-2.5,0-3.1-0.6-3.1-3.1C1.1,141.6,1,125.3,1,109c3.3,0,6.6,1.4,9.9-0.1
		c1.2,0.2,2.3,0.7,3.5,0.6c3.4-0.1,6,2.1,8.9,3.2c6.7,2.9,13.7,5.5,19.6,10c1.2,1.2,3,1.4,4.3,2.5c1.6,1.3,3.2,2.8,1.9,5
		c-1.1,2-3.2,2.5-5.2,1.7c-3.1-1.3-6.3-2.2-9.4-3.4c-1.3-0.5-2.7-1.1-3.7,0.1c-3.5,4.1-7.6,2.1-11.5,1c-2.9-0.8-5.6-2.6-8.8-2.4
		c5.7,3.1,11.9,4.8,17.9,6.8c3.3,1.1,6.6,2,9.6,4c3.1,2.1,6.8,2.3,10.5,2.6c6.4,0.4,12.1,3.3,18,5.3c2.5,0.9,5,1.7,7.8,1.5
		c6.8,2,14.1,2.8,20.2,6.9c1.9,3.7-0.4,4.9-3.5,5.1c-13.2,0.8-26.4,1.3-39.3-3.1C44.8,154,44.7,154.4,45,161z"/>
	<path class="st1" d="M30,1c18.7,0,37.3,0,56,0c2.1,1.6,5,1.4,7.1,3.1c2.7,2.1,4.1,4.3,0.6,7c-2.3,0.8-4.9,0.9-6.7,3.2
		c3.8,3,8.4,4,12.6,5.8c1.5,0.6,4,0.4,3.4,3.3c-0.4,0.4-0.8,0.7-1.3,0.9c-7.3,0.7-13.6-2.6-20.2-4.7c-2-0.6-4.1-1.4-6.1-2.1
		c-10.3-2-20.8-3.5-30.8-6.5C40.8,9.7,36.9,8.9,33.4,7C31.2,5.8,28.4,4.5,30,1z"/>
	<path class="st2" d="M197,1c9,0,18,0,27,0c2.1,4.3,0.9,8.8-3.1,11.6c-1.7,1.2-3.5,2-5.5,2.1c-4.5,0.3-6.9,2.7-7.4,7.1
		c-1.2,2.2-3.1,3.5-5.4,4c-5.6,1.4-11.2,2-17,1.7c-0.5-0.2-1-0.4-1.4-0.8c-1.4-3,1.3-3.2,2.9-3.9c5.1-2.3,5.1-2.2,1.8-7
		c-1.4-2.1-2.7-4.1-1.9-6.8C189.3,5.1,192.8,2.6,197,1z"/>
	<path class="st3" d="M93,10c2.7-1.7,1.8-3-0.4-4.2C90.2,4.5,87.3,3.7,86,1c7.3,0,14.7,0,22,0c3.4,1.6,7.4,2,10.5,4.4
		c2.2,1.7,4.3,3.5,2.6,6.6c-1.3,2.5,0.2,2.8,2,3.2c4.2,1,8.4,2,12.4,3.6c2.8,1.1,6.3,1.6,7.1,5.4c-0.1,0.5-0.3,1-0.7,1.3
		c-3.2,1.3-5.8-0.5-8.5-1.5c-2.2-0.9-4.3-1.6-6.7-1.2c-7-1.3-13.8-2.6-21.1-1.4c-4.1,0.7-8-1.4-11.9-3c-2-0.8-4.2-1.5-4.4-4.2
		C89.1,11.7,91.4,11.1,93,10z"/>
	<path class="st4" d="M1,5c0.8-1.3-2-4.3,2-4c4.1,4.4,7.8,9.2,12.1,13.5c3.4,3.4,6.7,6.2,11.4,7.3c6.7,2.8,13.6,5.1,20.2,8.2
		c1.1,1.2,2.8,1.6,3.9,2.7c1.2,1.2,2.8,2.5,0.8,4.3c-4.8,2.5-9.8,0.1-14.7,0.8c-9.5-0.8-19.3-0.5-27-7.8c-2.5-3.1-2.7-6.8-2.3-10.4
		c0.4-2.9,0-5.3-2.3-7.2C2.8,10.4,2.5,7.4,1,5z"/>
	<path class="st5" d="M26,23c-4.7,0-8.4-1.9-10.8-5.8c-2.9-4.7-9-6.3-10.6-12.1C4.2,3.7,3.5,2.4,3,1c4.3,0,8.7,0,13,0
		c5.4,6.8,13.1,9.2,21.3,10.6c3.1,0.5,6.2,1.1,9.1,2.5c1.3,1.1,2.5,2.3,1.6,4.2C41,21.6,33.9,23.8,26,23z"/>
	<path class="st6" d="M1,51c0-2.7,0-5.3,0-8c0.8-0.7,1.7-1,2.8-0.6c14.7,5.7,30.6,6.8,45.5,11.8c5.3,1.8,10.9,2.9,16.1,5.1
		c1.8,0.7,4.5,1.1,3.3,4.3c-3.2,2.7-6.9,0.4-10.3,1c-1.5,0.1-2.9-0.1-4.4-0.1c-10-3-20.4-3.7-30.7-5.5c-5.4-0.9-10.8-1.9-16-3.5
		C4.7,54.6,2.5,53.3,1,51z"/>
	<path class="st7" d="M241,90c0,2.3,0,4.7,0,7c-0.6,0.3,0.2,0.3-0.4,0.3c-7.3-0.5-14.8,3.4-22-0.6c-3.4-1.9-7.1-2.8-11-1.7
		c-2.4,0.7-5.2,1.2-7.4,0.2c-5.8-2.9-12.2-4.1-18.1-6.6c-0.7-3.4-3.8-4.5-6.2-6.4c-2.4-1.9-6.5-3.3-4.4-7.8c5-1.2,7.9,3.2,11.9,4.8
		c6.2,2.5,12.2,4.9,18.9,5c3.4,0.1,6.7,1,10,1.3c6,1.4,12,2.6,17.8,4.4c2.2,0.7,3.8,0.1,5.2-1.5C237.7,87.3,239.4,88.3,241,90z"/>
	<path class="st8" d="M69,63c-11.4-5.1-23.6-7.8-35.6-10.9C22.5,49.3,11.2,48,1,43c0-1,0-2,0-3c1.7-1.3,3.4-0.8,5.2-0.2
		c8.9,3.1,18.2,4,27.6,4.8c13.8,3.7,27.6,7.5,40.6,13.5c3.8,1.8,7.9,2.7,11.8,4.1c1.5,0.6,3.9,0.7,2.5,3.5
		c-5.4,1.8-10.8,0.3-16.2-0.1C70.9,65.5,69.6,64.5,69,63z"/>
	<path class="st9" d="M142,24c-5.7-4.7-12.9-5-19.5-7c-1.3-0.4-2.6-0.6-3.9-1c-2.4-0.9-3.1-2.1-0.4-3.6c4.2-2.3,2.1-3.9-0.5-5.6
		c-3.2-2-7.3-2.6-9.7-5.9c12,0,24,0,36,0c1.4,4.4-3.1,4.7-4.8,6.9c-0.3,0.4-0.8,0.7-0.9,1.2c-0.4,2.6-4,4.3-3.1,6.8
		c0.8,2.1,4.1,2.3,6.1,3.8c1.5,1.1,3.6,2,2.6,4.6C143.2,24.6,142.5,24.6,142,24z"/>
	<path class="st10" d="M207,21c-1.4-5.2,1.5-7.2,5.9-7.9c9.1-1.5,10.3-2.9,11-12.1c3.3,0,6.7,0,10,0c2.1,2,1.9,4.4,0.9,6.8
		c-1.8,4.3-2.6,9.1-5.7,12.8c-3.2,4.9-6.5,9.8-13.6,7.4C214.3,23.7,208.8,24.6,207,21z"/>
	<path class="st11" d="M94,155c-6.7-2-13.3-4-20-6c-2.4-0.9-5-0.9-7.3-2c-1.9-2.1-4.6-2.2-7-3.2c-0.4-0.3-0.8-0.7-1-1.1
		c-2.1-4.7-1-6.3,4-6.1c3,0.1,5.2,2.1,7.9,2.7c7.3,3.4,15.4,4.8,22.9,7.8c4,1.6,8.2,0.4,12.2,0.6c8.8,2.7,17.2,6.4,24.6,12
		c0.2,0.5,0.1,1-0.3,1.4c-1,0-2,0-3,0c-4.8-1.6-9.9-2.3-14-5.3c-1.5,1.2,0.3,3.2-1.4,4c-4.5,0.7-8.6-1-12.9-1.8
		C96.6,157.8,95.6,155.9,94,155z"/>
	<path class="st12" d="M241,112c0,1,0,2,0,3c-2.6,1.9-5.4,0.7-8.1,0.6c-1.6-0.1-3.7-1.6-4.7,1.1c-0.4,0.4,0.8,0.7,0.2,0.4
		c-0.2-0.1-0.2-0.3,0.2-0.5c4.3-2.3,8.4-0.6,12.5,0.4c0,3,0,6,0,9c-0.8,0.7-1.7,1.1-2.8,1c-1.5-0.4-3-1-4.6-1.1c-1.8,0-3.1-1-2.9-3
		c-0.1-0.5,1-1.5,0-1.4c-5.1,0.5-10-1.2-15.1-1.1c-1.2,0-2.5,0-3.7-0.2c-3.1-1.1-6.2-1.9-9.5-2.1c-3.3-1.9-5.9-5.7-10.6-4
		c-2.2-0.5-4.4-0.8-6.5-1.8c-1.8-0.9-3.6-1.7-2.1-4.2c3.9-1.5,7.6-1.6,11.9-0.3c4.4,1.3,9.6,1.6,14.2,0.7c6.1-1.1,12-0.4,17.7,0.8
		C231.7,110.4,236.8,109,241,112z"/>
	<path class="st13" d="M1,88c0-2,0-4,0-6c4-5.7,10-4.4,15.6-4.5c3.5-0.1,6.9-2.2,10.4-0.1c2.2,1.6,4.8,2.8,7.1,4.4
		c3.7,2.7,3.3,5.5-0.9,7.2c-3.3,1.3-6.4,2.6-8.4,5.6C16.4,94,8.2,92.8,1,88z"/>
	<path class="st14" d="M1,71c0-2,0-4,0-6c1-1,2.3-1.5,3.7-1.4c4.1,0.6,8.1,2.2,12.3,2c0.5,0,1,0,1.5,0.1c2.5,1.2,4.8,0.6,7.1-0.6
		c2.1-1.1,4.6-1.7,6.6-0.3c3.3,2.2,6.5,1.8,9.9,0.7c6.4-2.8,12.6-1.9,18.6,1.2c3.4,1.6,7.2,0.3,10.7,1.4c3.6,3.6,3.2,5.7-1.2,7.5
		c-3,1.2-6.1,1.4-9.3,1.1c-7.5-0.6-15.1,1.9-22.6-0.2c-0.8,0-1.6-0.2-2.4-0.7c-2-3.2-4.7-5.1-8.7-3.7c-3.4,0.4-6.7-0.7-10-0.2
		c-1.2,0.2-2.3,0.3-3.5,0.1c-2-0.5-3.9,0.3-5.9,0.7C5.3,73.2,2.9,73,1,71z"/>
	<path class="st15" d="M46,15c-7.6-0.5-14.9-2.5-22.1-4.8c-3.8-1.2-7.4-4.3-8-9.2c4.7,0,9.3,0,14,0c1.2,4,4.7,4.8,8,5.8
		c12.5,3.8,25.1,6.9,38,9.2c0.3,0.6,0.2,1.2-0.3,1.7c-1.1,0.9-2.3,1.2-3.7,1.3c-7,0.5-13.8-0.9-20.7-1.4C49.2,17.5,47.8,15.9,46,15z
		"/>
	<path class="st16" d="M215,27c6.4,1.5,9.5-3.2,13-7c3.8-3.5,8.1-4.6,13-3c0,1,0,2,0,3c-3.6,11.4-12.3,13.8-22.8,13
		c-6.8-0.5-13,2-19.5,3.4c-4.5,0.3-8.3,3.3-12.9,3.3c-1.5-0.5-2.5-1.4-2.5-3c2.6-6,6.9-9.4,13.7-9.6c4.4-0.1,8.8-1.4,13.3-1.1
		C212,26,213.7,25.6,215,27z"/>
	<path class="st17" d="M182,87c6.2,1.1,12,3.2,17.5,6.2c2.1,1.1,4.5,1.1,6.7,0.1c4.9-2.2,9.3-1.1,13.5,1.8c2,1.4,4.2,2.3,6.5,1.7
		c5-1.3,9.8-0.6,14.7,0.1c0,1,0,2,0,3c-1.3,1.3-2.9,1.9-4.5,1.4c-4.4-1.4-8.5,0.3-12.7,0.6c-2.3,0.1-4.5-0.2-6.7-1
		c-8.7-3.3-17.9-4-27.1-4.9c-1.8-0.2-3.6,0-5.4-0.4c-4.4-2.2-9.6-2.1-14-4.5c-2.1-1.1-3.7,0.3-5.5,1c-4,1.6-6.4-0.6-5.6-5
		c3.8-3.4,8.7-0.7,12.8-2.3C175.6,85.3,179.3,83.8,182,87z"/>
	<path class="st18" d="M241,112c-7.7,0.4-15.2-0.6-22.8-1.7c-4.9-0.8-9.7,0.7-14.8,0.2c-6.8-0.7-13.5-3.3-20.5-1.4
		c-0.3,0.4-0.8,0.8-1.3,1c-2.1,0.6-3.8,0.2-5-1.8c-0.2-0.9,0.2-1.6,0.8-2.1c1.1-0.6,2.3-1.1,3.5-1.6c8-1.9,15.7,0.9,22.5,0.7
		c-3-0.5-7.2,0-11.2-1.3c-1.5-0.5-3.4-0.5-3.7-2.7c0.8-1.6,2.3-1.7,3.8-1.8c11.2-0.7,22.1,0.3,32.6,4.6c3.8,2.1,7.8,3.7,12.3,3.4
		c1.4-0.1,2.6,0.5,3.5,1.5C241,110,241,111,241,112z"/>
	<path class="st19" d="M198,35c6.8-3,13.8-4.5,21.3-4c3.8,0.2,7.6,0.1,11.3-1.2c2.8-1,5.1-2.2,5.8-5.4c0.6-2.3,2.5-3.4,4.5-4.3
		c0,4,0,8,0,12c-2.4,2.5-5.8,3.3-8.8,4.7c-11.3,1.4-22.4,3.8-33.4,7.1c-0.5,0.1-1-0.1-1.5-0.2C194.8,40.5,196.2,37.7,198,35z"/>
	<path class="st20" d="M241,58c0,2.3,0,4.7,0,7c-1.2,2.5-3.3,3.5-5.8,4.2c-10.7,3.4-21.7,5.4-32.9,6.2c-8.5-0.6-17-1.3-25.5-1.1
		c-1.6,0-3.3-0.2-4.7-1.1c-0.6-2.4,1.4-2.6,2.8-3c1.7-0.5,3.6-0.3,5.3-0.4c11.2,1.5,22.2,1.2,32.2-4.9c5.3-3.2,11.9-2.9,17.1-6.3
		C233.4,58.2,237,55.3,241,58z"/>
	<path class="st21" d="M197,1c-2.9,2.8-5.2,6.3-9,8c-2.2,2.2-4.8,4-5,7.6c-0.1,1.5-1.2,2.7-3,2.9c-5-2-8.7-5.8-12.6-9.2
		c-1.9-3-3.2-6-0.4-9.2C177,1,187,1,197,1z"/>
	<path class="st22" d="M167,1c-0.3,3.2,0.2,6.2,2,9c2,3.5,1.2,6.2-2.3,8.3c-1.9,0-2.3-1.6-3.2-2.8c-5.3-7.2-11-7.3-16.3-0.2
		c-0.6,0.8-1.2,1.6-2.2,2c-4.6-1.9-5.3-6.5-7.1-10.3c1.3-2.7,5.2-2.8,6-6C151.6,1,159.3,1,167,1z"/>
	<path class="st23" d="M1,103c0-3,0-6,0-9c5.7,0,11.9-0.5,17.1,1.2c5.1,1.7,10.3,4.4,15,7.4c0.2,0.4,0.3,0.8,0.2,1.3
		c-2.2,1.4-0.3,4.1-1.8,5.7c-2.2,1.3-4.3-0.3-6.5-0.2c-1.6-0.4-3.4-1.4-4.7-0.2c-2.3,2-4.6,1-6.9,0.8C9,108.1,5.6,104.5,1,103z"/>
	<path class="st24" d="M229,161c-3.3,0-6.7,0-10,0c-2.4-2.9-6-2.2-9.1-2.9c-1.9-0.4-3.9-0.2-5.8-0.8c-2.5-1.7-6-2.5-6.3-6.4
		c2.4-2.6,5.8-2.1,8.8-2.8c2.9-0.7,6-0.6,8.4-2.8c1.8-0.7,3.5-0.3,5.3,0.2c1.7,1,3.8,1.1,5.5,2.2c1.2,1.2,3.5,2.4,2,4.4
		c-1.6,2.1-4,0.4-6,0c3.9,0.9,7.7,2.6,12,0.8c2.5-1.1,5.2,0.2,7.3,2.1c0,1,0,2,0,3c-1.5,1.8-3.6,1.8-5.5,1.4
		C232.9,158.7,230.9,159.6,229,161z"/>
	<path class="st25" d="M94,155c1.7,0.3,3.3,0.7,5,1c1.6,1.3,3.7,2.4,2,5c-18.7,0-37.3,0-56,0c-0.4-0.5-0.8-1.1-1.1-1.6
		c-1.1-1.7-4.3-2.7-3-5c1.4-2.5,4.6-1.6,6.9-1.1c5,1,10,2.3,14.8,3.9c9.8,3.3,19.6,1.4,29.5,0.8C93.9,157.8,94.8,156.9,94,155z"/>
	<path class="st26" d="M241,132c0,1.7,0,3.3,0,5c-2.5,2.2-5-1-8,0.1c2.5,3,6.3,4.5,8,7.9c0,1.3,0,2.7,0,4c-4.2,1.6-8,0.7-11.2-2.3
		c0.5-2.5,2.4-1.9,3.6-1.9c-3.1-1.2-6.8-2.6-10.5-4c-1.9-0.7-3.9-1.9-4.3-4.4c-0.2-0.9,3-2.6-0.7-2.8c-5-0.3-9.9-1.7-15-1
		c-1.9,0.2-3.6-0.4-5.5-0.5c-2.4-0.2-5.2-0.4-5.4-3.3c-0.2-2.6,3-1.9,4.6-2.9c5.6,0.1,11.1,1.4,16.6,2.2c2.2,0.3,4.2,0.2,6.3-0.3
		c5.7-0.7,11.2,1.1,16.8,1.7C238.2,129.5,239.7,130.6,241,132z"/>
	<path class="st27" d="M1,51c15.1,5.9,31.2,7.2,46.9,10.1c2.1,0.4,4.3,0.6,6.1,1.9c-2.4,2.1-5.5,0.3-8,1.4
		c-3.9-0.2-7.9,0.2-11.8-0.1C28,63.7,22,61.8,15.8,63.1C10.7,62.7,5.4,63.6,1,60C1,57,1,54,1,51z"/>
	<path class="st28" d="M213,87c-3.7-0.4-7.3-0.7-11-1.1c-5.4-1.4-6-2.2-5-6.5c1.6-1.4,3.7-2.1,5.5-1.6c5.5,1.5,11.1,0.6,16.5,1.6
		c3.8,0.5,7.7,1.7,9.4-3.5c4.4-2.2,8.6-1.4,12.6,1.1c0,2.3,0,4.7,0,7c-3.8,2.8-8.1,1-12.1,1.5c-3.9-1.2-7.6-1.3-11.3,1
		C216.3,87.4,214.6,88.1,213,87z"/>
	<path class="st29" d="M33,103.1c-3.6-0.6-7.2-1.2-10.2-3.6c-4.4-3.6-9.4-4.1-14.7-2.5c-1.6,0.5-2.5,0.2-3.3-1.2
		C4,94.2,2.6,93.9,1,94c0-2,0-4,0-6c8.2,1,15.9,4.4,24,6c4.4-2.4,6.2-2.1,10.2,1.7c0.7,1.9-0.2,3.8,0.1,5.8
		C35.5,103,34.8,104,33,103.1z"/>
	<path class="st30" d="M241,58c-3.8,0.1-7.1,2.6-11,2c-4.3,0.9-8.5,3.1-12.8,0.1c-1.7-2.7,0.6-4.1,1.8-5.9
		c4.6-3.2,10.3-3.8,15.1-6.6c2.2-1.2,4.2-2.9,6.9-1.7C241,50,241,54,241,58z"/>
	<path class="st31" d="M195,161c-5,0-10,0-15,0c-2.6-1.2-5.4-1.5-8.2-1.4c-5.2,0.2-10.2-0.5-15.2-1.8c-3.3-1.9-7.7,0.1-10.7-2.8
		c-0.1-2.2,1.6-2.1,3-2.4c3.7-0.7,7.3-0.4,10.8,0.6c1.8,0.5,3.2,0.7,3.6-1.6c1.6-1.5,3.5-1.1,5.3-1c0.6,0,1.1,0,1.7,0
		c6.4,1.7,12.9,2.7,19.3,4.1c2,0.4,3.9,0.9,5.3,2.4C196.2,158.2,197.1,159.6,195,161z"/>
	<path class="st32" d="M1,5c2.7,2.9,5.3,5.7,8,8.6c0.8,0.9,1.2,2.1,0.8,3.2C8.2,20.9,9.4,25,10,29c0.1,2.6-1.8,2.9-3.7,3.2
		C3.5,32.1,2.5,29.8,1,28C1,20.3,1,12.7,1,5z"/>
	<path class="st33" d="M145.9,154.1c3.5,2.1,7.7-0.4,11.2,1.9c-1.3,2.1-5.2,1.5-5.1,5c-7.3,0-14.7,0-22,0c0-0.3,0-0.7,0-1
		c0.3-4.2-3.2-5.2-5.8-7c-2.8-2-7.1-1.8-8.4-6c0.3-0.5,0.6-0.8,1.1-1c1.5-0.6,3-0.6,4.4,0.1c7.4,3.5,15.3,5.3,23.2,6.7
		C145.1,152.9,145.6,153.5,145.9,154.1z"/>
	<path class="st34" d="M1,28c2.2,0.1,3.2,2.2,5,3c6.3,6.3,14.3,9,22.8,10.5c2.1,0.4,4.2,0.9,5.4,3.1c0.2,0.5,0.1,1-0.2,1.4
		c-11.2-1.1-22.5-1.1-33-6C1,36,1,32,1,28z"/>
	<path class="st35" d="M195,161c1.2-3.4-1.8-3.4-3.6-4c-6.1-1.9-12.4-3-18.7-4.1c-0.9-0.2-1.8-0.6-2.7-1c1.2-1.7,3.1-2,4.9-1.7
		c9.8,1.5,20.1,0.5,29.2,5.6c3.8,0,7.6,0.4,11.4,0.9c2.8,0.4,3.8,1.5,3.6,4.1C211,161,203,161,195,161z"/>
	<path class="st36" d="M241,17c-4.1,1.9-8.7,1.7-13,3c2.6-6.1,5.8-12.1,6-19c7,0,7,0,7,7.2C241,11.1,241,14.1,241,17z"/>
	<path class="st37" d="M241,46c-2,1-4,2-6,3c-3-0.2-5.5-1.2-6.8-4.2c-0.5-3.9,1.9-6.8,3.8-9.8c2.7-1.9,5.6-3.2,9-3
		C241,36.7,241,41.3,241,46z"/>
	<path class="st38" d="M203,74.1c13.1-1.3,25.7-4.5,38-9.1c0,3,0,6,0,9c-4.5,3-9.6,0.7-14.4,1.4c-5.9,0.7-11.9-0.4-17.8,1.3
		c-1.9,0.2-3.8,0.2-5.4-0.9C202.8,75.2,202.7,74.7,203,74.1z"/>
	<path class="st39" d="M230,145.8c3.7,1,7.3,2.1,11,3.1c0,1.7,0,3.3,0,5c-4.7-0.6-10,1.4-13.4-3.7c-0.6-0.9-1.8-0.6-2.6-1.2
		c-1.7-0.6-3.4-1.3-5.2-1.9c0.2-3-2.4-2.1-3.9-2.6c-2-0.7-4.9-0.6-3.6-4.2c2.9-1.7,5.6,0.8,8.5,0.2
		C224.1,141.8,228.6,141.3,230,145.8z"/>
	<path class="st40" d="M152,161c-0.5-1.5-3.2-2.7-2.2-3.9c1.7-2.3,4.8-0.6,7.3-1.1c6,1.4,12,2,18.1,2.7c1.8,0.2,3.6,0.9,4.8,2.4
		C170.6,161,161.3,161,152,161z"/>
	<path class="st41" d="M241,132c-7.5-0.2-14.6-3.4-22.2-2.9c-2,0.6-3.8,0.4-5.1-1.4c0.1-1,0.8-1.5,1.6-1.9c5,0,9.8-1.5,14.8-1.1
		c2.4,1.5,5.4-0.4,7.8,1.2c1,0,2,0,3,0.1C241,128,241,130,241,132z"/>
	<path class="st42" d="M1,60c5,0.3,10,0.7,15,1c0.8,0.7,1.8,0.4,2.8,0.5c1.9,0.2,3.8,1,3.5,3.2c-0.3,2.2-2,3.2-4.3,2.3l0,0
		c-4.2-1.5-8.7-1-13-2c-1.3,0-2.7,0-4,0C1,63.3,1,61.7,1,60z"/>
	<path class="st43" d="M208,75c2.4-1.7,5.1-0.9,7.7-0.9c8.4-0.1,16.9,0,25.3,0c0,1,0,2,0,3c-4.3,0.2-8.7-1.6-13,0
		c-1.8,2.3-4.3,2.1-6.8,1.7c-2.7-1.4-5.8-0.4-8.6-1.4C210.9,76.7,209,76.7,208,75z"/>
	<path class="st44" d="M241,145c-3.6-1.3-6.3-4.1-9.4-6.1c-1.3-0.8-2-2.4-1.1-3.9c0.9-1.4,2.3-0.9,3.6-0.5c2.3,0.8,4.6,1.6,6.9,2.5
		C241,139.6,241,142.3,241,145z"/>
	<path class="st45" d="M112,159c-0.5-2-4.4-3.1-2.8-5.1c1.9-2.4,4.5-0.1,6.5,1.3c3.5,2.5,8.3,2.3,11.3,5.8c-3.7,0-7.3,0-11,0
		C114.9,159.9,112.6,161.2,112,159z"/>
	<path class="st46" d="M225,149c5.3,1.7,10.2,5,16,5c0,0.3,0,0.7,0,1c-3.5-0.2-7,0.1-10.5,0.4c-4.8,0.4-9.9-2.3-15.9-4
		c5.1-2.9,8.6,1,12.4,0.4C227.2,150,225.4,150,225,149z"/>
	<path class="st47" d="M17,78.8C11.4,78.2,6.2,80.2,1,82c0-2.7,0-5.3,0-8c3.7-2.7,7,0.5,10.5,0.5c0.5,0,1,0.1,1.5,0.3
		C14.4,76.1,16.9,76.3,17,78.8z"/>
	<path class="st48" d="M224,100.1c5.7-0.6,11.3-1.2,17-0.1c0,2,0,4,0,6c-1.9,1.9-4.1,1.8-6.4,1c-1.7-2.6-3.8-4.4-7.3-4.4
		C225.9,102.7,223.9,102.4,224,100.1z"/>
	<path class="st49" d="M1,103c3.9,0.2,8.6-1.5,10,4.5c0.2,0.7,1.9,1,3,1.5c0.6,0.6,0.6,1.2,0,1.8c-1.1,0.2-2.2,0.2-3-0.7
		c-3.3-0.9-7,0.5-10-2C1,106.3,1,104.7,1,103z"/>
	<path class="st50" d="M12,76c-3.7-0.7-7.3-1.3-11-2c0-1,0-2,0-3c4.4,0.5,8.7-0.7,13-1C14.5,72.4,12.4,73.9,12,76z"/>
	<path class="st40" d="M112,159c1.3,0.7,2.7,1.3,4,2c-5,0-10,0-15,0c-0.7-1.7-1.3-3.3-2-5C103.3,157,107.7,158,112,159z"/>
	<path class="st51" d="M229,161c1.2-3.2,3.1-4.7,6.7-3.4c1.6,0.6,3.5,0.3,5.3,0.4c0,1.7,0.7,3.6-2.5,3.1
		C235.4,160.6,232.1,161,229,161z"/>
	<path class="st52" d="M234,105.9c2.3,0,4.7,0.1,7,0.1c0,1,0,2,0,3c-5.6,0.4-11-0.3-16-2.9C227.9,103.2,230.9,103.2,234,105.9z"/>
	<path class="st53" d="M228,84c4.3,0,8.7,0,13,0c0,0.7,0,1.3,0,2c-0.8,0.9-2,1.5-3.1,1.1c-2.9-1.2-4.9,0.7-7,2
		c-1.3,0.3-2.6,0.2-3.8-0.3c-2-0.7-4.8-1.3-4.3-3.8C223.4,82.3,226,83.6,228,84z"/>
	<path class="st54" d="M232,88c-1.2-2.4,0-3.1,2.1-2.9c2.3,0.2,4.6,0.6,6.9,0.9c0,1.3,0,2.7,0,4c-2-0.3-4-0.7-6-1
		C233.6,89.7,232.6,89.6,232,88z"/>
	<path class="st55" d="M241,117c-5.5,0.1-11.1-1.9-16,1.7c-1.4-2.8,3.7,0,1.4-3.3c-0.6-0.9,0.2-1.7,2.3-1.3c4.1,0.8,8.1,1,12.3,0.9
		C241,115.7,241,116.3,241,117z"/>
	<path class="st56" d="M1,108c3.4,0.3,7.2-1.1,10,2c-3.6,2.4-6.9,1.8-10-1C1,108.7,1,108.3,1,108z"/>
	<path class="st57" d="M67,146c2.1,1.6,5.1,1,7,3c-4.7,0.4-8.9-1.5-12.9-3.3c-5.3-2.4-10.8-3.1-16.4-3.7c-1.1-0.1-2.4-0.2-3.4-0.8
		c-9.4-5.2-20-7-29.9-10.7c-1.9-0.7-5.6-1.1-4.5-4.1c1.1-2.9,4.1-2.5,6.9-1.1c3.3,1.6,6.6,3.3,10.3,3.7c2.1,0.3,5,2.4,4.9-2.5
		c-0.1-2,2.3-1.3,3.7-0.8c3.6,1.4,7.1,2.9,10.6,4.4c1.9,0.8,4.2,1.9,5.2-0.6c0.8-2.1-1.7-2.4-3-3.3c-1.1-0.7-2.2-1.4-3.3-2.2
		c0-1.7,0.7-3.1,1.7-4.5c1.4-1.1,3-1.9,4.4-3c5.2,0.9,9.5,4,14.1,6.2c3.1,1.1,5.3,3.9,8.4,5c2.6,1.2,5.3,2.1,8,3.2
		c6.8,3.1,13.9,5.2,20.8,7.9c3.6,2.1,7.9,2.1,11.6,3.7c2.2,0.9,4.9,1.3,5,4.5l-0.4,0.1c-3.8,2.8-6.9-1.7-10.6-1
		c-0.1,1.1,1.6,1.7,0.8,3c-13.1,2.4-24.2-4.2-36-8.1c-4.2-3.5-8.8-4.9-14.3-4.1c-3.1,0.4-6.3-0.2-9.3-1.2
		c-5.1-1.6-10.2-2.7-14.3-2.2c6.6,1.8,14.4,3.6,22.3,5.4c2.4,0.6,3.8,2.5,5.6,4l0,0.1C62.2,144.3,64.9,144.4,67,146z"/>
	<path class="st55" d="M44,120c1.5,2.4-0.2,3.2-2,4c-6.3-3.3-12.7-6.7-19-10c-0.3-1-0.3-2,0.3-2.9c0.3-0.4,0.8-0.7,1.2-0.8
		C31.7,112.1,39,113.8,44,120z"/>
	<path class="st58" d="M23.9,111c0,1.1,0,2.1-0.9,2.9c-3-1.1-6-2.1-9-3.2c0-0.6,0-1.2,0-1.8c1.3-0.1,2.7,1.3,4-0.4
		c2-2.7,4.5-1.9,7-0.6C24.6,109,23.5,109.7,23.9,111z"/>
	<path class="st59" d="M76,17c0-0.3,0-0.7,0-1c8.8,2,16.9,6.1,26,7c8.3-0.6,13.6,3.3,18.4,13.5c-0.1,2.3,2.3,4.3,0.7,6.7
		c-2.8,1.6-5-0.4-7.4-1.2c-7.9-6.6-16.6-11.9-26.4-15.3c-2-0.7-4.1-1.2-5.9-2.6C79.7,21.7,75.7,21,76,17z"/>
	<path class="st60" d="M93,10c-3.5,4.7-3.2,5.8,2.3,7.9c4.7,1.8,9.2,2.2,14.4,1c5.7-1.4,11.7,0.6,17.4,2.1c5.8,1.5,7,4.2,4.8,10.6
		c-1.4,1.2-3.1,0.8-4.8,0.8c-4-1-7.6-3.2-11.2-5.1c-4.1-2.2-8.4-3.5-12.9-4.3c-5.2-2-10.5-4-15.7-6c-1.7-0.6-3.9-1-3.9-3.2
		c0-2.4,2.5-1.7,3.8-2.3C89.1,10.8,91.1,10.5,93,10z"/>
	<path class="st61" d="M103,23c9.2-0.9,16.6,3.6,24,8c4,3.4,4.8,7.8,4.5,12.7c-4,2.2-6.1-1.4-8.9-2.8c-1.6-0.8-2.6-2.3-3.5-3.9
		c-3.7-7.1-8.9-12.3-17-14C102.3,23,102.7,23,103,23z"/>
	<path class="st62" d="M215,27c-4.3,1.7-8.9,1.2-13.2,1.4c-7.5,0.2-13.4,2.6-17.7,8.6c-1.7,3.4-5,5.2-7.8,7.4
		c-1.1,0.9-2.6,1.7-3.9,0.1c-1.2-3.3-0.3-6.5,0.3-9.7c0.3-1.7,1.3-3.7,2.9-3.7c4.2-0.1,6.6-3,9.5-5.1c7.4-1.3,15.6,0.6,22-5
		c1.6,1,3.5,0.8,5.2,1.1C214.8,22.6,216.5,24,215,27z"/>
	<path class="st63" d="M180,19c1-0.9,2-2.1,1.7-3.4c-1.1-5.4,2.4-6,6.2-6.6c-0.1,3.1,1.7,5.1,3.7,7.2c3.8,4.1,3.1,6.4-2.2,7.9
		c-1.9,0.5-3.9,0.5-5.5,1.9c-1.5,3.2-4,4.7-7.6,4c-2.1-0.4-3.8,0.8-5.8,0.9c-1.4-0.1-2.5-0.6-3.5-1.7c-1.9-4.9-1.1-7,3.7-8.5
		C173.8,19.8,176.8,18.7,180,19z"/>
	<path class="st64" d="M171,30c1.6-1.8,3.2-3.1,5.9-1.7c3,1.6,4.6-1.8,7.1-2.4c0.3,0,0.7,0,1,0c-1.5,3.3-2.8,6.6-7.6,6.1
		c-2.5-0.3-3.1,2-3.3,4.1c-0.4,2.9-0.7,5.8-1,8.7c-0.4,5.1-3.3,7.7-8.2,7.3c-1.2-1.7-0.5-3.4-0.1-5.1c0.6-2.3,0.8-4.5-0.6-6.5
		C163.1,34.5,163.6,33.7,171,30z"/>
	<path class="st65" d="M171,30c-0.1,1.7-1.2,2.7-2.6,3.3c-3.3,1.4-4.1,3.6-2.4,6.7c-0.6,4.1-2,7.5-6.8,7.8c-0.5,0-1,0-1.4-0.2
		c-7.1-2.7-7.1-2.7-10.7,3.7c-0.2,0.4-0.6,0.7-1.1,1c-5-0.9-7.3-4.3-8.3-8.9c0.6-4.1,1.4-8.2,4.8-11c2.5-2.1,2.9-3.7,0.1-5.6
		c-0.5-0.4-0.7-1.1-0.4-1.8c0-0.3,0-0.7,0-1c0.7,0,1.3,0,2,0c1.1-0.4,2.3-0.4,3.4,0c6.7,2.5,13.6,4,20.6,5C169,29.3,170,29.7,171,30
		z"/>
	<path class="st66" d="M142,25c1.3,0.7,2.7,1.2,3.9,2c2.5,1.5,2.8,3.6,0.2,4.8c-4.9,2.3-5.7,6.8-7.1,11.1c-1.7,0.5-2.6-0.7-3-1.9
		c-1.4-3.3-3.5-6.4-3.9-10.1c-0.5-1.2-1.6-2.6-1.3-3.6c1.1-3.6-1.1-5-3.7-6.4C132.4,20.6,137,23.6,142,25z"/>
	<path class="st67" d="M34,45c-5.1-1.3-10.2-3-15.4-3.9C12.4,40,8.7,36.3,6,31c1.6-0.2,3-0.8,4-2c7.9,5.3,17,6,26,7
		c6.2,2.3,11.7,5.9,18,8c1.8,0.6,5.5,1,3.4,4.8c-6.6,1.7-12.5-1.4-18.8-2.4C37.1,46.2,35.3,46.1,34,45z"/>
	<path class="st68" d="M58,48c-5.6-3.7-12.6-4.1-18-8.4c-1.4-1.1-3.1-1.9-4-3.6c5.3,0,10.7,0,16,0c4.4-2.8,8,0.6,12,1.5
		c2,1.6,4.7,1.9,6.8,3.4c1.8,2.2,4.3,3.5,6.9,4.7c2.2,1.1,4.5,2.1,4.9,5c-0.2,0.5-0.5,1-1,1.3c-3.6,1.4-7.2,0.2-10.6-0.7
		c-3.8-1-7.7-1.4-11.6-2C58.7,48.9,58.3,48.5,58,48z"/>
	<path class="st69" d="M64,39c-4-1-8-2-12-3c-1.7-2-4.6-2.6-6-5c0.6-2.5,2.6-3.4,4.8-3.7c4.9-0.8,9.8-1.9,14.8-1.8
		c0.8-0.1,1.7-0.1,2.5,0.2c5.3,2.3,10.9,3.6,16.2,5.9c2,0.8,4.1,1.4,5.5,3.1c0.8,1.2,1.3,2.5,0.2,3.8c-1.4,0.9-2.9,0.8-4.3,0.4
		c-4.8-1.2-9.5-1-14.2,0.2C68.9,39.7,66.5,39.4,64,39z"/>
	<path class="st70" d="M66,27c-6.7,1.1-13.6,1.2-20,4c-7.1-1.6-13.6-4.8-20-8c7.3-1.9,14.4-4.6,22-5C54,17.3,64.2,22.4,66,27z"/>
	<path class="st71" d="M66,27c-5.5-4-11.9-6.1-18-9c-0.7-1-1.3-2-2-3c10,1.3,19.9,2.1,30,2c2.1,1.9,4.6,3.4,6,6c-3.6,5-9,3.8-14,4
		C67.3,27,66.7,27,66,27z"/>
	<path class="st72" d="M69,63c6.6,1.3,13.2,2.2,20,2c5.6-1.5,10.8,0.7,16.2,1.3c0.8,0.1,1.1,1.1,0.8,2c-3.6,2.4-7.8,0.6-11.6,1.5
		c-2.8,0.4-5.6,0.6-8.3-0.8c-1.4-0.7-3-0.7-4.4-0.3c-6.7,2.4-13.1-1.3-19.7-1c-1,0-2.2-0.7-3.1-1.4c-1-0.9-1.5-1.9-0.9-3.2
		C61.7,63,65.3,63,69,63z"/>
	<path class="st73" d="M58,63c0.3,0.7,0.7,1.3,1,2c0.5,0.9,1.7,1.6,1,3c-5.9-3-11.8-3.5-18-0.9c-0.1-0.2-0.2-0.4-0.3-0.6
		c0.2-2,2.3-2.2,3.3-3.4c3,0,6,0,9,0C55.3,63,56.7,63,58,63z"/>
	<path class="st74" d="M182,87c-3.3,0-6.7,0-10,0c-7.1-0.3-10.7-6.1-15.5-10c-1.1-0.9-1.5-2.1-0.5-3.5c0.4-0.4,0.9-0.6,1.4-0.8
		c2.8-0.3,5.6-0.3,8.4-0.1c1.8,0.8,4,0.5,5.2,2.4c2.5,3.6,5.9,6,9.8,7.9C182.1,83.7,185.2,84.6,182,87z"/>
	<path class="st75" d="M171,75.1c-1.7-0.2-3.5,0.2-5-0.8c0.6-1.2,1.7-1.8,2.9-1.5c7.7,1.5,15.4,0.4,23.1,0.9c0.5,0,0.9,0.3,1.3,0.6
		c0.2,0.4,0.6,0.9,0.4,1.4c-0.5,1.5-2,3.3,1.4,3c0.8-0.1,1.5,0.6,1.8,1.5c0.4,3.1,2.5,4.7,5.1,5.9c-10.2-0.5-19.1-4.1-27.3-10
		C173.5,75,172.3,75,171,75.1z"/>
	<path class="st76" d="M232,88c1,0.3,2,0.7,3,1c1.2,2.7,0.6,3.9-2.4,3.1c-6.5-1.7-13.1-3.4-19.6-5c1.1-0.1,2.4,0,3.2-1
		c3.3-4.7,7.6-3.2,11.9-2c-1.4,0.3-3-0.4-4.6,1.2C226.1,86.8,228.9,87.8,232,88z"/>
	<path class="st77" d="M106,68c-5.6-1.7-11.5-1-17-3c-18.7-5.4-36.1-14.2-55-19c0-0.3,0-0.7,0-1c8,1,16,2,24,3c0.3,0,0.7,0,1,0
		c10,1.9,19.4,5.7,28.4,10.4c8.8,4.6,18.1,7.3,28.2,6.9c5.2,0.9,10.6,1.3,15.6,3.4c0.3,0.6,0.2,1.1-0.2,1.7
		c-3.9,1.6-7.8,2.2-11.8,0.8c-1.6-0.5-3.2-0.8-4.8-0.8C111.4,69.9,108.3,70.1,106,68z"/>
	<path class="st78" d="M168,29c-0.7,0.8-1.5,1.5-2.5,1.4c-7.6-0.7-14.9-2.4-21.5-6.4c-2.6-3-6.2-4.2-9.6-5.9c-2.5-1.2-4.2-3-0.7-4.8
		c2.8-1.4,1.6-5.2,4.3-6.3c4.4,1.9,4.6,6.7,7,10c4.5,1.6,14.4,2,19.5,0.9c0.5-0.1,1,0,1.5,0.1c2.1-2.3,2.7-5.1,3-8
		c3.9,2.8,8.2,5,11,9c-1.6,2.5-4.4,2.7-6.9,3C168.8,22.5,166.3,24.2,168,29z"/>
	<path class="st79" d="M60,142.9c-9.4-3.9-19.7-4.6-29.2-7.9c-1.1-0.4-2.3-0.5-3.4-0.9c-0.8-0.3-1.7-0.8-1.6-1.7
		c0.2-1.2,1.3-1.4,2.3-1.3c12.3,0.6,24.3,3.3,36.3,5.9c2.3,0.5,4.3,1.7,5.5,4c-1.8-0.8-3.5-1.8-5.3-2.5c-1.9-0.7-4.2-1.2-5.7,0.1
		C57.5,139.9,60.2,141.3,60,142.9z"/>
	<path class="st80" d="M106,149.1c-1.1-1.9-6.2-0.7-4.3-4.5c1.4-3,4.4-0.3,6.6,0.1c2.6,0.5,5,1.5,7.5,2.4c4.3,2.1,8.7,3.9,12.7,6.4
		c2,1.2,6.1,3.2,1.5,6.5C122,156.3,114,152.7,106,149.1z"/>
	<path class="st81" d="M67,146c-2.6-0.3-5.3-0.5-7-3C62.8,142.9,65.4,143.4,67,146z"/>
	<path class="st82" d="M238,125.9c-2.7,0-5.4,0-8.1-0.1c-3.7-2.3-7.4,0.8-11.2,0c-1.7-0.7-3.3-1.3-5.2-1.4c-1.6,0-3.4-0.1-3.8-2.3
		c0.2-0.5,0.5-1,0.9-1.3c6.3-1.7,16.6-0.5,20.3,2.4c0.8,1.2,1.8,1.8,3.3,1.2C235.9,123.8,237.1,124.5,238,125.9z"/>
	<path class="st83" d="M230.9,123.2c-6.6-1.2-13.2-3.1-20-1.4c-0.8-1.7,0.1-2.2,1.6-2.3c1.1-0.1,2.2,0.2,3.2-0.3
		c5.6-0.4,11.1,1.6,16.7,0c1.9-0.5,2.6,1.4,2.5,2.3C234.6,123.8,232.4,122.7,230.9,123.2z"/>
	<path class="st84" d="M215.8,119.2c-1.3,1.4-4.3-0.2-4.9,2.6c-0.3,0.1-0.6,0.3-1,0.4c-2.7,2.4-5.9,0.9-8.9,1.3
		c-2.1-0.2-4.5,0.4-5.7-2.1c-0.4-2.4,0.9-3.4,3-3.7c1.4-0.2,2.8,0.1,4.2,0.4c3.1,0.8,6.2,0.7,9.4,0.8
		C213.3,118.9,214.5,119.1,215.8,119.2z"/>
	<path class="st85" d="M193,113.1c4.7-2.7,6.9,0.5,9,3.9c-0.2,0.2-0.4,0.4-0.5,0.6c-2.9,0.8-5.7,0.6-8.1-1.5
		C192.7,115.1,192.4,114.1,193,113.1z"/>
	<path class="st86" d="M193,113.1c0.3,0.6,0.7,1.2,1,1.8c-1.3,1.6-2.9,0.7-4.4,0.6c-3.2-0.1-6.3-0.7-8.7-3c-0.8-1.5,0.1-2.5,1.1-3.5
		c0.3-0.1,0.7-0.1,1,0C185.6,112.2,189.7,111.5,193,113.1z"/>
	<path class="st85" d="M214.5,115.1c-3.6-0.6-7.1-1.1-10.7-1.7c0.1-0.5,0.1-0.9,0.2-1.4c3.5,1.3,7.4-0.2,10.7,1.8
		C214.7,114.2,214.6,114.6,214.5,115.1z"/>
	<path class="st85" d="M212,118.8c-3,0.9-6,2.1-9,0.2c-0.3-0.7-1.7-0.8-1-2c0,0,0,0,0,0C205.5,116.8,208.8,117.3,212,118.8z"/>
	<path class="st87" d="M35,96.9c-2.9-2.6-6.3-3.2-10.1-3c-1.8-4.4,2.1-4.2,4.2-5.5c1.9-1.2,5.7-0.4,5.9-2.7c0.3-2.8-3.5-3-5.4-4.5
		c-0.9-0.7-1.9-1.4-2.8-2c1.7-3.2,4.5-2.6,7.2-2c3.4,4.2,8.8,5.7,12.6,9.4c1,1.7,0.5,3-1.4,3.6c-0.7,0.2-1.5,0.1-2.2-0.1
		c-0.4-0.1-0.8-0.4-1.2-0.6c-0.6-0.3-1.3-1.4-1.8-0.4c-0.3,0.7,0.8,1.1,1.6,1.4c1.3,0.4,2.6,0.8,3.9,1.4c1.8,1.8,4.6,1.1,6.5,2.7
		c0.2,0.4,0.3,0.9,0.3,1.4c-2,5.6-2,5.6-8.2,3.8c-0.9-0.3-1.9-0.3-2.9-0.3C39,99.2,36.5,99.4,35,96.9z"/>
	<path class="st88" d="M33.9,78.1c-2.3,0.4-4.6,0.8-6.9,1.2c-3.2-2-6.6,0.1-9.9-0.4c-1.2-1.2-3.3-1-4.1-2.8c1.9-1.7,4.4-2.9,4.1-6
		c3.7,0,7.3,0,11,0c3,1.1,5.7,2.8,8,4.9c0.7,0,1.3,0,2,0c1.4,0.9,3,0.1,4.3,0.6c1.3,0.5,3.2,0.6,3,2.7c-0.2,2-1.9,2.6-3.6,2.7
		C38.7,81.3,36.5,79,33.9,78.1z"/>
	<path class="st89" d="M33.9,78.1c2.3-0.2,4.6,0.1,6.7,1.2c1.3,0.7,2.9,0.5,3.4-0.8c0.7-1.9-1.3-1.9-2.4-2.3
		C40.4,75.8,39,76.1,38,75c10.5,1.4,20.8-0.3,31.2-1c3.7-0.3,5-1.9,1.8-4.9c4.2-0.8,8.4,0.1,12.7-0.5c1.7-0.3,3.5,0.9,3.4,2.8
		c0,1.8-1.9,2-3.4,2.4c-2.7,0.7-5.7-0.7-9,1.9c5.9-1.8,10.9-2.4,15.9-0.6c7,3.5,14.7,3.5,22.2,4.4c1.9,0.2,4.2-0.3,4.3,2.7
		c-3.1,2.8-7.1,3.5-10.6,2.4c-7.6-2.5-14.9,0.5-22.4,0.3c-3.2-0.1-6.5,0.3-9.8,0.8c-8.1,1.1-15-1.6-21.4-6.8
		c0.9,3.1,5.3,3.4,4.2,7.3c-0.7,0.7-1.6,0.9-2.6,0.9c-0.7,1.1-2.2-3.4-2.5,0.4c-2.2,2.3-4.1,0.6-6-0.3
		C41.5,84.7,35.7,84.1,33.9,78.1z"/>
	<path class="st90" d="M89.9,75.9c-5.1,0.6-10.6-1.5-15.1,2.7c-0.9,0.8-2.7,0.3-3.6-0.8c-1.1-1.4,0.6-1.9,1.2-2.8
		c2-2.7,4.7-3.4,7.9-3.1c1.8,0.2,3.6,0,5.4,0c0-0.5,0.1-0.9,0.1-1.4c-5-0.5-9.9-1-14.9-1.5c-3.6-0.5-7.5,0.9-11-1.1
		c-0.3-1-0.7-2-1-3c4.8,2.5,10.2,3.2,15.4,2.8c6.6-0.5,13.1-0.3,19.6,0.2c0.6,0.7,1.9,0.2,2.4,1.2c0.3,3-1.2,5-3.6,6.5
		C91.8,76.3,90.9,76,89.9,75.9z"/>
	<path class="st91" d="M18,67c1.5-0.3,3.3-0.8,3.2-2.4c-0.2-3.1-3.7-2-5.2-3.6c6.4-0.1,12.8-0.2,19,2c1.7,2.5,5.4,1.3,7,4
		c0,0,0,0.1,0,0.1c-4.4,2.3-8.1-0.7-12.2-1.2C26.1,65.4,22.4,70,18,67z"/>
	<path class="st92" d="M46.4,74c-2.3,0.2-4.1-0.6-4.7-2.8c-0.8-2.8,2.1-1.8,3.1-2.7c0.2-0.2,0.5-0.4,0.8-0.5
		c1.8-1.1,3.5-2.7,5.8-0.9c1.1,0.9,1.2,1.9,0.5,3.1C50.6,72.2,49.4,74.5,46.4,74z"/>
	<path class="st93" d="M17,70c0.6,1.6,3.4,2.5,2.3,4.5c-1.3,2.5-4.2,1-6.4,1.5c-0.3,0-0.6,0-0.9-0.1c-6.3-4.3,2.1-3.7,2-6
		C15,70,16,70,17,70z"/>
	<path class="st94" d="M36,75c-4.5,1.3-5.8-2.5-8-4.9C31.4,70.5,36.7,67.8,36,75z"/>
	<path class="st91" d="M5,65c4.4,0.3,9-1,13,2C13.5,67,9.2,66.6,5,65z"/>
	<path class="st95" d="M165,52c3.8-1.1,5.7-4.2,8-7c3.8-2.5,6.2-6.9,11-8c0.7,0.7,1.3,1.3,2,2c1.2,2.2-0.2,3.8-1.3,5.4
		c-3.1,4.4-7.2,7.8-11.9,10.4c-1.9,1-3.8,2-5.3,3.6c-9.9,6-19.6,6.1-29.4-0.4c-4.8-3.2-9.6-6.4-14.2-9.9c-1.7-1.3-3.6-2.5-2.9-5.1
		c-0.9-1.9-2.2-3.7-2-6c4,2.3,8,4.7,12,7c4.1,0.6,6.1,4.4,9.3,6.3c2.8,1.7,5,4.6,8.8,4c2.7,0.5,5.3,0,7.9-0.8
		C159.8,54.2,162,51.1,165,52z"/>
	<path class="st96" d="M167,57c0.8-1.6,2.4-2.2,3.9-2.9c6.9-3.2,11.6-8.6,15.1-15.1c3.7-2.3,7.4-4.3,12-4c1,2.8-0.5,5.3-1,8
		c-0.1,0.5-0.4,0.9-0.7,1.3c-7.8,4.8-16.1,8.5-24.2,12.6C170.4,57.7,168.7,58.5,167,57z"/>
	<path class="st97" d="M234,105.9c-3,0.1-6,0.1-9,0.2c-10.5-3.4-21-6.4-32.2-4.9c-1.3,0.2-2.7-0.2-3.8,0.8c-1.8,2.5-4.6,2.1-7.1,1.9
		c-1.9-0.1-3.8-0.6-5.8-0.1c-3.8-0.6-7.3,0.9-11,1.4c-2.6-0.4-5-1.8-7.7-1.8c-1.6,0-2.8-0.9-3.4-2.5c-0.4-3.9,1.7-5.3,5.2-5.3
		c3.5,0.5,6.4,3.1,10.1,2.8c0.6-0.1,1.1-0.1,1.7,0c6.2-1,12.5-1,18.7-1.2c9.5-0.4,18.8,0.8,28.2,1.9c1.9,1.5,4.1,0.7,6.1,1
		c2.2,1.6,4.8,0.7,7.2,0.9C234.6,101.3,235.6,102.7,234,105.9z"/>
	<path class="st98" d="M170,99.8c-0.3,0-0.6,0-0.9,0c-3.1-1.2-6-2.8-9.3-3.3c-0.7-0.1-1.5,0-2.2-0.4c-4-3.1-8.8-3.4-13.6-3.7
		c-3.2-0.2-6.3-0.4-9-2.3c-0.3-0.4-0.4-0.9-0.2-1.4c1.1-1.7,2.8-2.8,4.3-4c1.5-1.2,3.9-2.2,5-1.1c4.3,3.9,9.8,2.1,14.5,3.7
		c0.1,0.2,0.3,0.4,0.4,0.6c1.9,2.9,3.8,5.4,7,1.2c0.8-1,2.4-1.5,3.7-0.7c4.4,2.9,9.8,3.1,14.3,5.5C179.5,96.4,174.9,98.5,170,99.8z"
		/>
	<path class="st99" d="M156,74.2c5.7,3.7,9.4,10.1,16,12.7c-4.4-0.4-8.7,0.5-13,1c0,0,0,0,0,0c-6.5-0.2-12.4-1.8-17.5-6.1
		c-1.3-1.1-3.1-1.9-2.5-3.8c0.5-2,2.5-2.4,4.4-2.6c2.8-0.3,5.9,1.4,8.3-1.4C153,73.6,154.6,72.9,156,74.2z"/>
	<path class="st100" d="M170,99.8c4.3-2.8,7.9-7.4,14-5.9c11.6-0.6,22.7,2.7,33.9,5.1c-11.7-0.2-23.4,0.1-35.1,0.5
		C178.5,99.7,174.2,100.3,170,99.8z"/>
	<path class="st101" d="M175.3,102.9c4.4-1.7,9.1-0.5,13.6-1c7.4,0.1,14.4,3,21.9,3c-9.8,3.2-19.8,0-29.7,0.9
		C178.6,106.1,175.8,106.8,175.3,102.9z"/>
	<path class="st102" d="M175.3,102.9c1.9,1,3.9,2,5.8,3c-0.7,1.6-2,1.2-3.3,0.9c-0.4-0.1-1-0.2-1.3,0.2c-0.4,0.5,0.3,0.6,0.5,1
		c1.4,1.2,3.2,0.7,4.8,1.1c-0.3,0.9-0.7,1.8-1,2.7c-2,2.2-4.1,0.8-5.8-0.1c-3.5-1.8-8-2.5-9.2-7.2
		C168.9,102.8,171.7,100.1,175.3,102.9z"/>
	<path class="st103" d="M177.1,107.9c-1.6-0.2-3.2-0.5-4.5-2.3c2.2-0.9,3.7,0.4,5.3,1.1C177.7,107.2,177.4,107.5,177.1,107.9z"/>
	<path class="st104" d="M196,43c0.3,0,0.7,0,1,0c10.1-3.5,20.1-7.7,31.2-7.1c1.2,0.1,2.5-0.6,3.8-0.9c0.4,3.8-1.9,6.7-3,10
		c-0.5,0.9-1.4,1.6-2.4,1.6c-8.5,0.4-16.3,4.3-24.7,5.1c-3.4-0.7-6.9,0.3-10.2-0.7c-2-1.6-1.1-3.1,0.3-4.4
		C193.4,45.4,195.1,44.6,196,43z"/>
	<path class="st105" d="M220,55c-1,1.3-2,2.7-3,4c-0.2,1.5-1.3,2.4-2.5,2.8c-10.5,3.8-19.9,11.6-32.1,9.7c-0.5-0.1-1,0.2-1.4,0.5
		c-3,0.4-6.1-0.8-9,1c-0.5,0.4-1,0.4-1.4-0.1c-1.1-3.3,1.1-5,3.4-6.4c12.4-7.4,25.8-11.9,40.2-13.2C216.3,53,218.5,52.9,220,55z"/>
	<path class="st106" d="M181,72c13.4-0.3,23.7-9.6,36-13c4.2,1.9,8.7,0.6,13,1C214.3,66.7,199,75.1,181,72z"/>
	<path class="st43" d="M171,72.8c0.3,0.1,0.6,0.1,1,0.1c10.3,0.3,20.7-0.4,31,1.2c0,0.3,0,0.6,0,0.8c-3,3.1-6.4,2.5-9.9,1.1
		c-0.6-2.2-2.3-2-4-2c-7.7,0.1-15.4,0.2-23.1,0.2c-3-0.2-6-0.3-9.1-0.5C160.1,70.2,166,69.8,171,72.8z"/>
	<path class="st107" d="M166,18c-9.2,7.8-14.2,7.5-21-1c2.3-6.9,5.1-9.3,10.5-9C160.8,8.3,164.9,12.2,166,18z"/>
	<path class="st108" d="M35,96.9c2.3,0.4,4.6,0.8,6.9,1.1c0.7,0.4,1.3,0.8,1.6,1.7c3.5,1.9,7.2,2.8,11.2,2.8c1.8,0,3.7-0.1,4.6,2
		c-0.1,2.2,1.7,2.5,3.1,3.2c1.6,0.8,3.4,1.3,4.5,2.8c0.4,0.7,0.8,1.4,1.4,1.9c1.6,1.1,2.8,2.4,1.9,4.4c-0.9,2.1-2.8,1.8-4.6,1.6
		c-3.2-0.6-6.2-2-9.2-3.3c-1.1-0.6-2.1-1.4-2.7-2.5c-0.8-2.8-2.1-4.1-5.5-4.4c-5.3-0.5-10.9-0.5-15.4-4.3c0-0.3,0-0.6,0-0.9
		c2.1-0.5,1-1.4,0.3-2.3C31.8,98.6,33,97.6,35,96.9z"/>
	<path class="st109" d="M33,104c6.6,1.2,13.2,2.5,19.8,3.5c3.6,0.5,1.5,3.1,2.1,4.6c-1.4,1.3-2.7,0.5-4-0.3
		c-1.6-1.1-3.3-1.2-5.1-0.5c-3,0.2-5.8-2.3-9-0.9c-1.5,0.1-3.1,0.3-4.4-0.7c-0.2-0.2-0.3-0.4-0.5-0.6c-1.1-1.2-2.6-2.4-2-4.2
		C30.4,103.5,31.9,104.2,33,104z"/>
	<path class="st55" d="M23.9,111c-1.3-0.3-3.2-0.8-2.8-2.2c0.5-1.7,2.6-0.6,3.9-0.9c2.3,0.4,4.6,0.7,6.9,1.1c0,0,0,0,0,0
		c0.3,0.4,0.4,0.8,0.1,1.3c-2.5,2.9-5.5-1.2-8,0.6L23.9,111z"/>
	<path class="st110" d="M204,155.9c-3.2,0.2-6.3,0.2-9.1-1.8c-3.4-2.4-7.1,0.2-10.7-0.5c-4.7-0.9-9.5-1.1-14.3-1.7
		c-0.3,0-0.6,0-0.9,0c-2.9-2.4-6.4-3.3-10.1-3.8c-0.8-0.4-1.4-1-1.5-1.9c0.5-2.8,2.7-3.1,4.9-3.2c4.3-0.2,8.6-0.4,12.7,1.4
		c5,2.2,10.5,0.4,15.7,1.5c0.5,4.4,5.8,2.1,7.3,5.2C200,152.6,202,154.3,204,155.9z"/>
	<path class="st111" d="M212,141.1c2.2,2.4,5.2,1.5,7.9,2.2c1.4,0.3,3.3,1.1,3.2,2.6c-0.1,1.8-2.1,0.8-3.3,1.2
		c-1.6-0.3-3.2-0.7-4.8-1c-2,1.3-4.2,0.8-6.4,0.5c-5.2-1.4-10.6-1.4-15.7-3c-3.7-1.5-8.3-0.6-11.2-4.3c0.8-5.1,3-6.9,7.7-5.1
		c5.9,2.2,11.6,4.8,17.8,5.9c1.2,0.2,2.3,0.4,3.4,0.3C211.2,140.4,211.6,140.6,212,141.1z"/>
	<path class="st112" d="M209,144.9c2,0.3,4.1,0,6,1.2c0.7,1.6,0.1,2.6-1.5,2.8c-5.2,0.7-10.2,2.3-15.5,2.1
		c-3.6-0.5-7.3-0.9-11.8-1.5c2.1-2.2,4.6-0.8,5.8-2.5c0.2-0.2,0.3-0.5,0.5-0.7C197.8,143.3,203.4,144.5,209,144.9z"/>
	<path class="st113" d="M196.8,127.2c-1.3,0.4-2.7,0.9-4,1.3c0,0.3,0,0.6,0,0.9c3.8,0.5,7.5,1,11.3,1.5c2.1,0.1,4.1,0.2,5.3,2.3
		c-0.3,3.3-3.1,3.1-5.2,3.9c-1.8,0.3-3.6,0-5.4-0.6c-2.3-1-4.9-1.2-7.2-2.2c-6.1-2.1-11.5-5.9-17.9-7.5c-1.4-0.3-2.6-1.4-3.2-2.9
		c-0.2-0.8,0-1.6,0.6-2.3c0.9-0.6,1.9-0.7,2.9-0.2c5,2.7,10.3,2,15.6,2.1c0.8,0,1.6,0,2.4,0.2C193.7,124.6,196.4,124.3,196.8,127.2z
		"/>
	<path class="st114" d="M203.9,136.1c1.3-1.7,4.2-0.7,5.1-3.1c3.6,0,7.8-1.7,9.9,3c3.3,3.6,8.3,3.7,12.3,5.8c1.7,0.9,3.3,2,5.5,3.4
		c-2.7,1.1-4.8,0.5-6.8,0.6c-3-1.3-6-2.5-9-3.8c-4.6-1.6-9.1-3.9-14.2-2.9C205.2,138.7,203.8,138.1,203.9,136.1z"/>
	<path class="st115" d="M196.8,127.2c-1.7-0.7-3.3-1.4-5-2.1c0.8-0.8-1-2.1,0.5-2.8c2.8-1.4,5.1,1.4,7.8,0.8
		c2.2,0.5,4.8-0.6,6.8,1.2c2.3,1.3,5.3,1.3,7.1,3.8c1.6,0.4,3.2,0.8,4.8,1.2c-5.9,1.8-11.4-1.3-17.2-1.1
		C200,128,198.4,127.4,196.8,127.2z"/>
	<path class="st116" d="M218.9,136.1c-3.1-1.6-6.5-2.4-9.9-3c-1.6-0.7-3.3-1.4-4.9-2.1c5-0.4,9.9,0.1,14.7,1.4c2.1,0.6,5.9-1,6,1
		C224.9,136.2,220.6,134.2,218.9,136.1z"/>
	<path class="st117" d="M42,66.9c-3-0.2-6.7,0.9-7-4c3.3-0.2,6.7-1.4,10,0C45,65.1,43.1,65.7,42,66.9z"/>
	<path class="st118" d="M193,76c3.2-1.8,6.6-0.7,9.9-1.1c1.7,0,3.3,0,5,0c4.4,0.1,8.8,0.7,13,2c0.8,1.6,0,2.8-1,4
		c-7.7,0.9-15.3-1.6-23.1-0.9c-3.7-0.4-7.4-0.9-12.3-1.5C187.9,76.1,191,77.9,193,76z"/>
	<path class="st119" d="M220,81c-1-1.7,0.4-2.7,1-4c2.3,0,4.6,0,7,0c1.9,3.6,0.8,5.2-3.2,5C223,81.9,221.5,81.8,220,81z"/>
	<path class="st120" d="M171,72.8c-4.7,1-9.5-1.1-14.1,0.9c-0.3,0.2-0.6,0.3-0.9,0.5c-1.3,0.3-2.7,0.6-4,0.8
		c-0.7,0.5-1.3,0.6-2.1,0.2c-0.3-0.4-0.3-0.9-0.2-1.4c1.1-1.5,2.8-1.9,4.2-2.8c15.7-7.8,30.2-18.1,48-21c9-1.8,17.5-6,27-5
		c2.2,1,4.2,2.3,6,4c-4.6,3-10,4.1-15,6c-16.6,0-31.7,5.5-46,13.5C172.2,69.5,171.3,70.9,171,72.8z"/>
	<path class="st121" d="M116.1,146.9c-3.7-2.7-8.1-3.7-12.3-4.8c-1.7-0.5-3.6-0.6-5-2c0.6-1.2,0.4-2.7,1.5-3.6
		c2.4-1.1,4.2,1,6.3,1.2c6.6,2.1,13.4,3.8,20.2,5.3c4.4,5.5,11,4.3,16.8,5.5c4.7,0.9,9.5-0.9,14.3,0.5c1.8,0.5,3.6,0.8,4.9,2.3
		c0.1,0.2,0.2,0.5,0.3,0.7c0.4,0.3,0.8,0.7,1.2,0.8c1.3,0.5,3.6,0.3,2.9,2.3c-0.6,1.6-2.6,0.8-4,0.4c-5.7-1.5-11.4-1.9-17.2-1.4
		c-8.5-0.5-16.8-2-24.5-5.9C119.7,147.4,118,146.8,116.1,146.9z"/>
	<path class="st122" d="M159.9,147.1c4.1-0.4,7.8,0,9.1,4.9c-2,0-4,0-6,0c0,0,0,0,0,0C161.4,150.6,158.8,150,159.9,147.1z"/>
	<path class="st113" d="M206.9,138c5.7-2.4,9.8,1.3,14.1,4c-3-0.3-6-0.6-9-0.9c-0.3-0.1-0.7-0.1-1-0.2
		C209.3,140.4,206.9,140.9,206.9,138z"/>
	<path class="st123" d="M218.8,124.9c3.7,0.4,7.7-3.2,11,1c-4.9,0.4-9.8,1.6-14.7,1c-0.5-1.6,0.6-2.1,1.8-2.5
		C217.6,124.3,218.2,124.5,218.8,124.9z"/>
	<path class="st82" d="M217,125c-0.6,0.6-1.3,1.2-1.9,1.8c-0.4,0.4-0.7,0.7-1.1,1.1c-2.7-0.2-5.2-0.9-7.1-2.9
		C210.3,123,213.7,123.6,217,125z"/>
	<path class="st124" d="M69.8,129.2c-2.6-1.7-5.2-3.5-7.9-5.2c-1.4-2.9,1.1-3.5,2.8-4.5c5.5,1.4,10.3,4.6,15.8,6.1
		c1.9,0.8,3.5,0.1,5.2-0.5c2.5-0.8,5.2-1.4,7.4,0.9c-1.3,2.9,2.1,5.7,0.4,8.7c-5.9,0.6-10.7-3.1-16.2-4.2
		C74.9,129.7,72.7,127.3,69.8,129.2z"/>
	<path class="st125" d="M24.1,110.9c2.2-3.8,5.4,0.4,8-1c3.5-0.3,7-1,10.1,1.5c1,0.6,1.9,1.4,2.8,2.2c1,1.2,2.6,1.8,3,3.5
		c0.1,3-1.9,2.9-4,2.9C37.3,117,30.7,114,24.1,110.9z"/>
	<path class="st126" d="M77,128.9c6,0.8,11.3,3.5,17,5.2c2.9-1,5-0.3,6.1,2.8c0.8,1.6,2.1,3.3-1.3,3.3c-7.2-2-14.3-4.4-21-7.8
		C77.2,131.2,75.7,130.4,77,128.9z"/>
	<path class="st127" d="M48,117.1c-1.5-0.4-3-0.8-3.9-2.1c3-3.2,6.3,0.2,9.4-0.4c0.8,0,1.6,0.2,2.4,0.5c3.2,1.4,7.5,0.9,9.2,5
		c0,2.1-3,1.9-3,4C56.9,122.4,52.5,119.7,48,117.1z"/>
	<path class="st128" d="M77,128.9c0.3,1.1,0.6,2.3,0.9,3.4c-2.7-1-5.3-2.1-8-3.1c0-1.2-1.8-2-0.9-3.1c0.9-1.1,2.1,0,3.2,0.4
		C73.8,127.1,75.7,127.4,77,128.9z"/>
	<path class="st129" d="M196,43c-0.4,3.2-3.8,4.3-5,7c-0.4,1.4-1.4,2.2-2.6,2.8c-9,4.6-17.9,9.4-27.2,13.4c-6.7,2.9-13.3,2-19.6-1.2
		c-4.1-2.1-8.3-4.2-11.6-7.6c-3.5-4.3-8.6-6.5-12.7-10c-2.1-1.8-4.8-3.1-4.4-6.5c0.4-0.4,0.8-0.4,1.2,0c2.3,0.7,4.7,1.3,7,2
		c7.8,7.6,16.7,13.7,26.9,17.5c6.6,2.4,13-0.8,19.1-3.5C177,53.1,186.2,47.5,196,43z"/>
	<path class="st130" d="M114,41c-0.3,0-0.7,0-1,0c-0.7,0.5-1.6,0.9-2.3,0.6c-7.2-2.4-15-2.7-21.7-6.6c-7.1-2.4-14.4-4.3-21-8
		c4.2-3,9.5-1.9,14-4c10,2.8,19,7.4,27.4,13.6C111.1,37.9,112.9,39,114,41z"/>
	<path class="st131" d="M148.9,56c-8.2-0.6-12.9-6.7-18-12c-1.3-4.3-2.7-8.7-4-13c1.7,0,3.3,0,5,0c2.9,1.5,3.6,4.5,4.6,7.2
		c0.6,1.7,0.9,3.5,2.4,4.7c0.4,4.4,4.4,6.1,6.8,9.1C148.2,52.3,149.6,53.3,148.9,56z"/>
	<path class="st132" d="M165,52c-2.1,2.4-4.8,3.4-8,3.1c-1-3.1-0.4-5.7,1.9-8c3.4-1.3,5.2-4.3,7.1-7.1C167.6,44.1,167.2,48.1,165,52
		z"/>
	<path class="st133" d="M158.9,47.1c0.5,3-0.1,5.6-1.9,8c-2.5,1.8-5.3,1.8-8.1,0.9c-1.1-1.3-2.1-2.6-3.2-3.9c0-3.4,0.3-6.5,4.1-8.2
		C154,42.1,156.3,44.8,158.9,47.1z"/>
	<path class="st134" d="M131,69.9c0-0.3-0.1-0.5-0.1-0.8c-14.2-3.6-26.1-12.8-40.5-15.8c-2.8-0.6-6.6,0.3-8.4-3.3
		c-3.9-2.8-9-3.8-12-8c2.1-1.9,4.4-0.9,6.6-0.5c3.1,0.6,6.2,1.2,9.2,1.8c4.3,2,8.9,2.7,13.4,3.9c12.4,3.4,22.7,10.8,33.5,17.3
		c2.4,1.5,5.1,2.5,7.9,3.1c2.3,0.5,3.8,1.5,2.2,4.1c-2.3,1.6-4.9,1.5-7.5,0.9C133.5,72.3,131.7,71.9,131,69.9z"/>
	<path class="st135" d="M86,45c-5.5,0-10.7-1.8-16-3c-1.9-1.1-4.5-1.1-6-3c8.6-3.1,17.2-4.5,26-1c2.3-1.8,4.4-0.5,6.4,0.5
		c4.8,2.4,9.7,4.7,14.3,7.5c0.9,1.4,3.6,2.1,1.9,4.6c-2.9,1.5-5.5-0.2-8-1.1C98.6,47.2,92.3,46.2,86,45z"/>
	<path class="st136" d="M82,50c10.2,2.2,20.7,3.6,29.8,9.1c6.2,3.8,13.4,5.4,19.2,10c-5.4-0.2-10.7-0.7-16-2.1
		c-11.8-0.1-20.8-6.9-30.3-12.7c-1.3-0.8-2.5-1.7-2.7-3.3C82,50.7,82,50.3,82,50z"/>
	<path class="st137" d="M82,51c4.8,2.3,9.6,4.5,13.7,7.9c5.6,4.7,12.4,6.5,19.3,8.1c-10.1-0.2-19.8-1.9-28.7-6.9
		C77.5,55.3,68.2,51.9,59,48C66.8,47.8,74.2,50.6,82,51z"/>
	<path class="st138" d="M110,47c-7.1-2-12.8-7.2-20-9c-0.3-1-0.7-2-1-3c8.4,0.5,16.3,2.6,24,6c3.6,4.8,8.7,7.9,13.5,11.3
		c1.6,1.1,3.6,1.8,4.5,3.7c-1.5,1.4-3.2,0.9-4.6-0.1C121.3,52.4,114.9,51.1,110,47z"/>
	<path class="st139" d="M96,69c-0.7-0.3-1.4-0.7-2-1c4,0,8,0,12,0c2.7,0.3,5.5-0.6,8.1,0.9c-0.2,0.2-0.3,0.5-0.5,0.7
		C107.6,71.5,101.7,72.9,96,69z"/>
	<path class="st139" d="M131,69.9c1.3,0.4,2.6,0.7,3.9,1.1c1.1,2.6-0.8,3-2.6,3.5c-2.2,0.2-4.5,0.5-5.3,3.1
		c-0.4,0.4-0.8,0.6-1.3,0.8c-4.9,0.7-9.9,2.6-14.8-0.2c-1-2.7,3.7-2.3,2.7-5c1.1-1.3,0-2.7,0.2-4c0,0,0.2-0.2,0.2-0.2
		C119.7,69.6,125.3,70.4,131,69.9z"/>
	<path class="st140" d="M217,125c-3.4,0-6.7,0-10.1,0c-2-0.3-4-0.6-6.1-1c-0.5-0.7-0.5-1.3,0.2-1.9c3,0,5.9,0,8.9,0.1
		c2.6,2.1,6.7-0.9,8.9,2.7C218.2,124.9,217.6,125,217,125z"/>
	<path class="st141" d="M199.2,118.8c-1.6,0.2-3,0.6-3.4,2.5c-1.4,1-3.1,0.5-4.6,0.8c-2-0.5-4,0.4-5.9,0.3c-2.3-0.1-4.7-0.6-2.5-3.8
		c1.6-1,3.4-1.4,4.9-2.6c0.9-0.5,1.9-0.4,3-0.4C193.5,116.5,196.9,116.2,199.2,118.8z"/>
	<path class="st142" d="M199.2,118.8c-3-1.3-6.1-1.9-9.3-2c-0.7-0.9-0.7-1.8,0-2.7c1.4,0.3,2.7,0.5,4.1,0.8c2.3,2.1,5.2,2,8,2.1
		c-0.4,1,2.6,0.3,1,2C201.7,118.9,200.4,118.9,199.2,118.8z"/>
	<path class="st143" d="M191,121c1.6,0.1,3.2,0.2,4.8,0.3c1.6,1.2,3.6,0.3,5.3,0.9c-0.1,0.6-0.1,1.3-0.2,1.9c-3,0.1-5.9-1.6-9-0.9
		c-1,0.8-2,0.9-3.1,0.2c-0.6-0.7-1.4-1.6-0.4-2.5C189.1,120.2,190.1,120.4,191,121z"/>
	<path class="st144" d="M189.9,114.1c0,0.9,0,1.8,0,2.7c-1,0-1.9,0-2.9,0.1c-0.2,0-0.5,0.1-0.7,0.1c-7.2-1.3-14.1-3.5-20.2-7.7
		c-2-2.3-2-1.9-4.5-1.4c-3.7,0.7-7-0.7-10-3.1c-0.6-2.2-0.1-3.8,2.3-4.3c0.5,0.1,0.8,0.3,0.9,0.9c3.7,1.1,7.7,0.8,11,3
		c4.6,3.3,9.2,6.6,15.1,7.3C183.9,112.6,186.7,114.2,189.9,114.1z"/>
	<path class="st145" d="M43,99.9c-0.4-0.6-0.7-1.2-1.1-1.9c1.5-0.1,2.8,0.1,4.2,0.7c2.6,1.3,2.6,1.2,2.8-1.6c0.2-2.1,2-0.8,3-1.2
		c0.3,0,0.6,0,0.9-0.1c-0.2-0.4-0.6-0.5-0.9-0.9c-2.5,0-5.1,0.1-7-2c-0.2-2.7,2-2.7,3.3-2.2c4.6,1.9,9.5,0.4,14.1,1.7
		c0.5,0,1,0.2,1.4,0.4c2,2.2,6.1,0.3,7.4,3.7c-2.7,1.3-1.1,4.5-2.7,6.4c-0.8,0.7-1.8,1.3-2.7,1.1C58.3,102.6,50.2,103.9,43,99.9z"/>
	<path class="st146" d="M45.9,87.1c2-0.2,4.1,0.7,6.1-0.4c0.7-0.5,1.5-0.4,2.2-0.2c5.2,0.8,10.2,2.3,14.9,4.7
		c1.5,0.8,3.1,1.2,3.1,3.3C69,96.9,66,94.8,63,94l0,0c-4.6-2.2-9.7-1.5-14.5-2.5C47,91.2,45,91.6,45,89
		C46.3,88.9,46.6,88.3,45.9,87.1z"/>
	<path class="st147" d="M45,89c2.8,3,6.6,0.8,9.9,1.8c2.8,0.9,5.8,1.1,8.2,3.2c-5.1-0.8-10.5,0.5-15.4-1.8c-0.9-0.4-1.9,0-2.6,0.9
		c-1.3-0.4-2.6-0.7-4-1.1c-1-2.1-1.3-3.8,2-3.1C43.7,89,44.3,89,45,89z"/>
	<path class="st148" d="M43,88.9c-1.8,0.3-2.1,1.6-2,3.1c-1-1.5-6.2-0.9-2.5-4.7C40.9,84.7,41.7,87.7,43,88.9z"/>
	<path class="st149" d="M52,95c2,0,4.3-0.3,5.2,2.4c-2.2,1-3.7-0.2-5.2-1.5C52,95.7,52,95.3,52,95z"/>
	<path class="st150" d="M73,84c8-0.6,16.2-0.1,24-2.7c1.2-0.4,2.9-0.6,3.9-0.1c5.3,2.6,10.7,1.4,16.1,0.8c2.3-2.9,5.6-2,8.6-2
		c2.4,0,4.9-0.2,7.3,0.3c4.7,2.4,5,3.5,2.1,8.6l0,0.1c-2.1,1.5-4.5,2.4-6.2,4.6c-1.3,1.7-3.4,2.2-5.4,1.6c-2.4-0.8-4.5-0.2-6.8,0.2
		c-1.6,0-3.2,0.1-4.8-0.1c-2.8-1.6-6.6,0.5-9-2.4c0.3-2.8,2.8-2.2,4.4-3c-4.8,0.9-9.8-0.6-14.4,1.9c-2.6,1.3-5-0.1-7.4-0.8
		c-0.4-0.3-0.7-0.6-1-1.1c-0.6-1.2,0.3-2.2,0.3-3.5c-2.6,0.1-5.3,0.8-7.9,0.3C75.2,86.4,73,86.8,73,84z"/>
	<path class="st151" d="M73,84c3.8,1.8,7.7,1,11.6,0.3c1.6-0.3,3.8-1.1,4.5,0.5c0.9,2-1.6,1.9-2.7,2.6C85.5,88.1,85.1,89,85,90
		c-3.4,2.7-7.2,1.4-10.8,1.1c-1.3-0.1-2.5-0.6-3.8-0.5c-4.7-0.6-9.6-0.7-13.3-4.4c-1-2.8-3.7-3-5.9-4.2c-1.2-0.6-2.6-1.3-2.5-2.8
		c0.1-1.7,1.9-1.6,3.1-1.9c1.8-0.6,3.8-0.5,5.1,1.1C61,83.9,66.9,84.2,73,84z"/>
	<path class="st152" d="M134,82c-5.7,0-11.3,0-17,0c-6.4-1.7-13.1-0.8-19.5-3c-2.6-0.9-5.7-0.3-7.6-3c0.7-0.3,1.4-0.6,2-1
		c4.6-2.1,9.1,0.7,13.7,0.3c1.4-0.3,2.8,0.2,4.1,0.6c0.5,0.3,0.9,0.7,1.2,1.2c3.2,1.8,6.4,0.6,9.7,0.1c2.1-0.3,4.3,0,6.4,0.1
		c1.5-0.7,3.2-0.8,4.8-0.6C135.8,77,136.4,78.3,134,82z"/>
	<path class="st153" d="M57,86.2c4,2.1,8.4,2.5,12.9,2.8c1.6,1.9,4.5,1.1,6.1,2.9c0.3,1.6-0.7,2.2-2,2.7c-0.8,0.1-1.5-0.1-2-0.8
		c-6-2.3-12-4.7-18-7c-0.3-0.2-0.4-0.5-0.3-0.7c0.1-0.3,0.1-0.4,0.2-0.4C55,85.9,56,86.1,57,86.2z"/>
	<path class="st151" d="M53.9,85.8c0,0.4,0.1,0.7,0.1,1.1c-0.7,0-1.3-0.1-2-0.1c-1.1-1.3-3.3,0-4.7-2.1C49.9,84.9,52,84.6,53.9,85.8
		z"/>
	<path class="st89" d="M106,77c-4.9,0.7-9.4-0.8-14-2c1.3-2,2.7-4,4-6c6,0,11.9,0.1,17.9,0.1c1.1,1.3,3.3,1.3,4.1,3.2
		c-1.2,1.3-2.8,0.4-4.1,0.8c-0.7,1.1-1.9,1.5-3.2,1.6C108.7,74.3,106.9,74.7,106,77z"/>
	<path class="st154" d="M154.8,101.4c-0.3-0.1-0.6-0.1-0.9-0.1c-3.3,0.5-6.5-0.3-9.6-1.4c-0.8-0.6-1.1-1.5-1.3-2.5
		c-0.7-2.4-2.6-1.9-4.3-1.7c-2.1,0.3-3.6-0.2-3.1-2.8c2.4-3.6,5.9-1.4,8.6-1.2c4.8,0.4,9.8,1,13.8,4.3c0.7,0,1.3,0,2,0
		c0.3,0.2,0.3,0.4,0.2,0.7c-0.1,0.2-0.2,0.3-0.3,0.3C156.7,96.7,154.8,97.9,154.8,101.4z"/>
	<path class="st100" d="M160,97c0-0.3,0-0.7,0-1c3.5,0.2,6.8,0.8,9.1,3.9C165.6,100.2,162.8,98.6,160,97z"/>
	<path class="st155" d="M134,82c0.8-2.4,0.8-4.3-2.6-4c-1.4,0.1-3,0.3-4.3-0.8c0,0-0.1-0.4-0.1-0.4c1-1.3,2.5-1.7,4.1-1.5
		c4.8-0.1,9.5-1.2,14.4-1.4c1.7-0.1,3.3-0.2,4.7,0.9c0.6,0.1,1.3,0.2,1.9,0.3c-1,2.4-2,3.8-5.1,2.3c-2.1-1-4.9-0.8-7.1,1
		c5.6,5.1,11.7,8.7,19.2,9.6c-3.1,0.2-6.2-0.7-9.1,1.3c-1.2,0.9-1.8-0.1-2.5-1.3c-2.2-3.8-4.7-4.1-8.1-0.9c-1.3,1.2-2.6,2-4.3,1.9
		c-0.7-1.2-1-2.3,0-3.5C136.3,83.8,135.4,82.8,134,82z"/>
	<path class="st156" d="M158,96c-3.8-1.1-7.6-2.2-11.4-3.1c-3.6-0.9-7.4-2.3-10.6,1.1c-1.6,1.9-4.2,1.4-6.2,2.3
		c-2.5,0.3-5.1,0.1-7.6,0.2c-1.7-0.1-3.5,0.3-5-0.9c-0.5-0.4-0.6-1-0.3-1.6c1.3-0.3,2.7-1.2,3.8-0.9c4.1,0.9,7.3,1.1,8.9-4.1
		c0.7-2.3,3.5-0.1,5.4,0c5.1,2.7,10.9,1.7,16.3,2.8C154.3,92.4,156.4,93.4,158,96z"/>
	<path class="st157" d="M110,47c7.4,2,13.9,6.2,21,9c6.2,5,12.8,9.5,21,10.3c4.1,0.4,8-1.4,11.8-3.2c9.1-4.3,17.8-9.5,27.3-13.1
		c3.7,0,7.3,0,11,0c-7.1,3.1-14.3,6-21.4,9.2c-7.2,3.3-13.7,8.2-21.5,10.3c-1.9,0.5-2.8,2.3-4.2,3.4c-2.4-2.3-5.3-1.6-8.1-1.1
		c-10.7-5.3-20.6-11.8-30.5-18.3c-1.4-0.9-2.8-1.7-3.3-3.5C112,49,111,48,110,47z"/>
	<path class="st158" d="M66,111c-2.5-1-5.1-2-7.6-3c-0.9-0.4-2-0.7-1.8-1.9c0.3-1.2,1.5-0.9,2.4-1.1c1.3-1.6,2.9-0.9,4.4-0.4
		c4.3,1.4,8.4,3.2,12.9,4c4.9,1.3,9.8,2.7,14.5,4.7c3.3,0.9,6.6,1.6,10.2,1.3c3.6-0.3,7.2,0.6,9.4,4c0.1,1.2-0.4,2.1-1.4,2.8
		c-13,1.1-25.1-2.9-37.1-7C69.9,113.3,67.7,112.6,66,111z"/>
	<path class="st159" d="M66,111c2.2,0.1,4.3,0.6,6,1.9c5.2,4.2,11.9,4.5,17.8,6.7c2.1,0.8,5.3,0.5,5.3,4.1c-0.6,1.1-1.6,1.3-2.7,1.3
		c-3.7-0.5-7.3,0.9-11,0.5c-4.8-0.4-8.8-2.9-13.1-4.7c-1.4-0.6-3-1.6-2.7-3.7c1.2-0.2,2.8,1.1,3.6-0.6c0.7-1.7-1.1-2.2-2-2.9
		C66.5,112.9,66.1,112,66,111z"/>
	<path class="st160" d="M63.1,105.8c-1.4-0.3-2.7-0.6-4.1-0.9c-6.4-1.1-12.8-2.3-19.5-3.5c0.9-1.9,2.4-1.3,3.5-1.5
		c6.6,0.9,13.2,1.8,19.7,2.8c2.2,0.3,4.2-0.9,6.3-0.9c3.2-0.8,5.9,0.9,8.7,1.8c1.8,1.3,3.8,2,6,2.3c2,0.3,3.9,0.9,4.9,3
		c0.2,0.8,0.1,1.6-0.4,2.3c-4.6,1.2-8.3-1.9-12.6-2.2C71.3,108.3,67.4,106.3,63.1,105.8z"/>
	<path class="st161" d="M65.8,117.1c4.2,4.2,10,4.8,15.2,6.9c1,0.6,1.9,1.3,1.3,2.6c-0.5,1-1.4,1-2.3,0.5c-5.4-1.5-10.3-4-14.9-7
		c-2.9-2.1-6.1-3.4-9.8-3.5c-0.1-1.3,1.1-1.8,1.8-2.6C59.9,115,62.9,116,65.8,117.1z"/>
	<path class="st162" d="M57,114c1.1,2.1-1,1.9-1.8,2.6c-0.4-0.2-0.8-0.4-1.2-0.6c-1.5-1.2-3.5-1-5-2c-1.5-0.9-3.5-1.5-3-3.9
		c3.8-2.9,5.9,1.6,9,2C55.6,112.7,56.3,113.3,57,114z"/>
	<path class="st163" d="M45.9,110.1c2.1,2.7,6.3,2.7,8.1,5.9c-3.3-0.3-6.7-0.7-10-1c-0.7-0.7-1.3-1.4-2-2.1c-1-2.2-3.4-2.5-5-3.9
		C40.3,106.7,42.9,109.9,45.9,110.1z"/>
	<path class="st23" d="M37,109c2.7,0,4.5,1.2,5,3.9c-2.9-2.3-6.6-2.2-10-2.9c0-0.3,0-0.6,0-0.9C33.6,109,35.3,109,37,109z"/>
	<path class="st164" d="M192,147c-9.8,1.2-19.3-2.1-29-2c-1.8,0-4.1-0.8-5,1.9c-1.4,1.5-3.1,1.4-4.4,0.3c-2.6-2-5.5-1.7-8.4-1.9
		c-1.4-0.2-2.6-0.7-3.8-1.5c-2.2-2.1-3.9-4.5-2.9-7.8c2.1-2.1,4.4-0.6,6.5,0c2.2,0.6,4.4,1.2,6.6,1.8c2.8,0.8,4.7,0,5.7-2.8
		c1-0.6,2-0.6,3.1-0.6c2.9,0.5,6.4-1.3,8.7,1.8c-0.3,1.9-1.9,1.4-2.1,1.4c7.7,3.1,16.9,3.9,25.9,5.8
		C194.1,145.2,193.3,146.2,192,147L192,147z"/>
	<path class="st165" d="M145,143.9c4.8-1.1,8.7,1.9,13,3c0.6,0,1.3,0.1,1.9,0.1c1,1.6,2.1,3.2,3.1,4.9c-6.7-1.8-13.6-1.3-20.4-1.7
		c-5.8-0.3-12.8,0.2-16.7-6.2c1.2-1.9,3.5-1.5,5.4-2.8c-1.5-1.7-4.3-2.2-4.9-4.7c-0.1-1.2,0.5-2,1.6-2.4c3-0.1,5.9,0.5,8.9,0.5
		c0.9,0.2,1.6,0.6,2,1.4c1.1,2.3,2.1,4.5,3.2,6.8c-0.2,1.1,0.3,1.8,1.3,2.2c0.6,0.2,1.1,1.3,1.9,0.4
		C145.3,145.5,144.7,144.5,145,143.9z"/>
	<path class="st166" d="M206.9,138c1.2,1.3,3.3,1,4.1,2.9c-5.7,1.1-11,0.1-16.1-2.6c-1.5-0.8-2.9-1.6-4.4-2.3c-3.8-1.8-6.7-1-8.6,3
		c-2,2-4,1.9-6,0.1c-0.6-1.5,0.9-1.8,1.5-2.4c-0.8,0.2-1.4,0.8-2.1,1c-2.1,0.3-3.3-0.7-3.9-2.7c-0.1-1.1,0.4-2,1.3-2.6
		c2.5-1.6,5.2-0.1,7.5-0.3c-2.6-0.3-5.5-0.7-8.4-0.6c-2.4,0.3-4.3-1.2-6.5-1.8c-3.2-0.2-6.2-1.4-9.3-2.1c-2.7-0.9-5.4-1.1-8.2-1.1
		c-1.7,0-3.7,0.1-4.1-2.4c1.9-2.4,5-1.1,7.2-2.3c6.6,1.3,13.5-0.4,20,2.2c7.5,1.8,14,6,21.1,8.9c1.7,2.5,4.3,2.1,6.8,2.2
		c1.8-0.3,3.4,0.7,5,1C204.9,136.7,205.9,137.4,206.9,138z"/>
	<path class="st167" d="M175.9,138c1.8,1.4,4,0.9,6,1c3.7,1.1,7.4,2.2,11,3.2c0.6,0.2,1.2,0.6,1,1.4c-0.1,0.5-0.6,0.7-1.1,0.4
		c-10.7,1.4-20.2-2.5-30.9-6.7c3.2-0.2,5.1-0.3,7-0.5C171.7,134.8,173.6,137.6,175.9,138z"/>
	<path class="st110" d="M192.9,144c0.8-0.6,0.4-1.2,0.1-1.8c5.3,0.9,10.7,1.8,16,2.7c-5.8-0.7-11.3,1.5-17,2
		C192.3,146,192.6,145,192.9,144z"/>
	<path class="st168" d="M171,124c-6.7,0.8-13.3,0.2-19.9-1c-0.3,0-0.6,0-0.8,0c-1.6-0.5-5.1,1.4-3.6-2.9c4.3-2.5,8.7,0.2,13.1-0.6
		c2.6,0.1,5.2-0.1,7.8,0.2c1.4,0.4,2.7,1,3.5,2.4C171,122.7,171,123.3,171,124z"/>
	<path class="st166" d="M171,122c-1-0.3-2.1-0.5-3.1-0.8c3.8-3.6,7.8-1.3,11.5-0.1c2.2,0.8,4.3,1.4,6.6,1.4c1.5,0.6,3.6,0,4.1,2.4
		C183.4,125.5,177,125.1,171,122z"/>
	<path class="st169" d="M198.9,135.1c-2.8,2-5.3,0.4-7.6-0.8c-1.1-0.6,0.1-1.2,0.8-1.4C194.3,133.6,196.6,134.3,198.9,135.1z"/>
	<path class="st170" d="M190,125c-1.2-1.1-2.7-0.7-4-1c0.3-2.3,1.8-1.6,3.1-1.2c0.9,0.1,1.9,0.2,2.8,0.4c0.4,0.8,2,0.3,1.8,1.6
		c0,0.2-1.2,0.2-1.8,0.3C191.3,125,190.6,125,190,125z"/>
	<path class="st171" d="M150.1,74.8c-6.4,0.9-12.6,2.5-19.1,2.2c-1-1.3-0.9-2.6,0-4c1.6-0.1,3.6,0.4,4-2c2.7,0,5.3,0,8,0
		c2.2,0.3,4,1.7,6.2,2c0.4,0.3,0.6,0.6,0.8,1.1C150,74.4,150.1,74.6,150.1,74.8z"/>
	<path class="st172" d="M150,74.1c-0.3-0.1-0.6-0.1-0.9-0.2c-1-0.8-3.7-0.3-2.1-2.9c4.3-3.4,6.7-2.8,7.8,1.9
		C153.4,73.9,151.7,74.1,150,74.1z"/>
	<path class="st173" d="M100.1,136.8c-2-0.9-4.1-1.8-6.1-2.8c-0.9-0.9-1.8-1.8-2.6-2.7c-1.8-2.3-1.2-3.8,1.6-4.4
		c2-2.2,4.2-0.7,6.3-0.4c2.4,1,5.5,1.3,5.3,5c-0.4,1.1-2.2,2.6,0.8,2.9c2.3,0.2,4.6,0.8,6.7,1.8c1.4,0.7,3.2,1.6,1,3.5
		c-2.4-0.3-4.8,0-7.1-0.8C104,138.3,102.1,137.5,100.1,136.8z"/>
	<path class="st174" d="M106,139c2.6,0,5.3,0,7.9,0c2.6-1.3,5.4-0.7,8.1-0.8c1.5-0.1,3.3,0.7,4.4-1c0.2-0.1,0.4-0.2,0.6-0.3
		c3,1.3,5.9,2.6,9.8,4.4c-4.2,1.1-7,4-10.9,2.8C118.9,144.1,112.6,140.9,106,139z"/>
	<path class="st175" d="M98.9,128.1c-2-0.4-3.9-0.8-5.9-1.2c-2.5-1.5-5.1-1.3-7.5,0.1c-1.9,1-3.7,1.4-5.6,0.1
		c2.2-0.4,1.8-1.7,1.1-3.1c4,0,7.9,0.1,11.9,0.1c6.3-1.3,12.5,0.6,18.8,0.6c2.4,0.9,5.1,0.7,7.5,1.6c1.6,0.6,3.5,1,4.1,3
		c-0.8,2.3-2.7,2.4-4.5,1.8c-2.3-0.8-4.6-0.6-6.9-0.3C107,132.4,103.4,128.2,98.9,128.1z"/>
	<path class="st176" d="M147.1,71c-0.1,1.5,1.3,2,2.1,2.9c-2.7,0.4-4.7-0.6-6.2-2.9c-0.2-1.7-1.6-1.8-2.9-2.1
		c-6.1-1.6-12-3.7-17-7.8c-9.3-7.7-20.6-11.1-32-14.3c-1.7-0.5-3.7-0.4-5.1-1.8c9.3-0.2,18.1,2.9,27,5c5.4,2.2,10.4,5.2,15,8.7
		c4.4,3.4,8.6,6.7,13.9,8.5C143.8,67.9,145.3,69.7,147.1,71z"/>
	<path class="st177" d="M110,73c1.3,0,2.7,0.1,4,0.1c0.7,1.4,4.1,0.3,3.1,2.6c-1.1,2.4-4,1-6.1,1.4c-0.3,0-0.6-0.1-0.9-0.1
		C107.7,75.6,108,74.3,110,73z"/>
	<path class="st178" d="M131,73c0.9,1.3,0.8,2.6,0,4c-1.3-0.1-2.7-0.1-4-0.2C124.6,71.6,128.8,73.4,131,73z"/>
	<path class="st179" d="M189.1,122.8c-1.1,0.3-2.3,0.1-3.1,1.2c-3.9,0.5-7.4-0.7-10.9-2.1c-2.3-0.9-4.7-1.2-7.2-0.7
		c-2.6-0.2-5.2-0.3-7.8-0.5c-0.3-0.5-0.2-1,0.3-1.4c3.7-2.1,8.3,0.6,11.8-2.2c1.2-0.6,2.4-0.9,3.4-1.7c3.4-0.2,6.9-0.6,8.4,3.5
		c-1.7,1.1-1.9,1.9,0.5,2c2.2,0.1,4.3-1.9,6.5,0C190.1,121.3,188.1,120.5,189.1,122.8z"/>
	<path class="st180" d="M184,118.9c-2.6-1-5-3.3-8.2-1.9c-1.1,0.1-1.3-0.6-1.3-1.5c0.1-0.6,0.5-1,1-1.2c4.2-0.4,7.7,1.9,11.6,2.7
		c0,0-0.1-0.1-0.1-0.1C187.6,120,185.3,118.7,184,118.9z"/>
	<path class="st181" d="M174.9,115.2c0,0.3,0,0.6,0,0.9c-0.8,0.8-1.8,0.9-2.9,1c-5.8-1-11.3-3.1-16.9-5c-0.9-0.5-1.5-1.3-1.9-2.3
		c-0.3-2-2.1-2.4-3.3-3.4c-1.1-1-1.8-2.1,0.2-3c0.8-0.1,1.4,0.1,1.9,0.7c3.2,1.4,6.4,2.4,9.9,3c-0.2-2.2-2.6-1.6-3.1-3.6
		c3.5,0.5,6.2,1.8,8,4.7c-0.6,1.1-1.5,1.7-2.8,1.6C168.8,109.3,172.2,111.5,174.9,115.2z"/>
	<path class="st182" d="M174.9,115.2c-4.2-3.8-9.7-4.2-15.4-5.7c2.5-1.9,5.2-0.4,7.3-1.3c6.2,4.1,13.7,5.2,20.2,8.8
		C182.8,117.6,179.2,114.6,174.9,115.2z"/>
	<path class="st183" d="M152,104c-0.7,0-1.3-0.1-2-0.1c-4.4,0.6-7.9-1.8-11.6-3.4c-1.4-0.6-2.4-1.8-1.7-3.6c0.8-0.9,1.8-1.1,2.9-1
		c1.9,0.4,3.4,1.3,4.5,2.9c3.3,0.7,6.8,0.4,9.8,2.5C153.3,102.2,152.6,103.1,152,104z"/>
	<path class="st184" d="M76.9,105.1c-2.7-1-5.8-0.9-7.9-3.2c-0.7-1.4-2.7-2.4-2-4.1c0.7-1.5,2.6-0.4,4-0.8c1.8-1.5,3.4-1,5,0.5
		c1.7,0.3-1.7,2.3,0.6,2.2c8.2-0.5,16.4-0.8,24.6-1.1c1.4-0.1,2.5-0.8,3.6-1.5c0.7-0.3,1.4-0.4,2.2-0.4c4.3-0.5,8.6,0,12.8-0.4
		c1.3,0.2,2.6,0.4,3.9,0.7c2.8,0.4,5.2,2,7.9,2.8c1.6,0.5,2.7,1.5,2.7,3.2c0,2.3-1.8,2.4-3.5,2.6c-3,0.6-4.8-1.7-7-3.1
		c-0.3-0.5-0.4,0.6,0,0.1c0.1-0.2,0.2,0,0.4,0.3c0.7,0.7,1.4,1.5,0.6,2.5c-0.8,1-2,1.2-3.1,0.9c-2-0.6-3.9-1.7-6.1-1.6
		c-1.5,0-2.9,0-4.4,0c-1,0-2,0-2.9-0.1c-1.6-0.3-3.4-1.6-4.7-0.2c-3.5,3.6-8.4,3.3-12.1,2.8C86.6,106.4,81.6,107,76.9,105.1z"/>
	<path class="st185" d="M75.9,98c-1.6-0.4-3.3-0.7-4.9-1.1c-2.3-1.9-6.1-0.1-8-3c3-0.6,6.1,2.5,9.1-0.1c0.7,0,1.3-0.1,2-0.1
		c1-0.5,1.9-0.3,2.8,0.1c1.3,1,2.9,1.4,4.4,2c1.1,0.5,2,1.4,1.8,2.6c-0.3,1.3-1.6,1.5-2.8,1.3C78.7,99.5,76.9,99.7,75.9,98z"/>
	<path class="st186" d="M106.9,97.9c-0.6,0.1-1.2,0.1-1.8,0.2c-2.9,1.7-5.9,0.5-8.9,0.2c-2.9-1.9-6.5-1.4-9.6-2.7
		c-2.5-3.6-6.4-3-9.9-3.4c-0.2-0.1-0.4-0.1-0.7-0.2c-2.4-0.3-5.4,0.6-6.1-3c5,0.6,10,1.2,15.1,0.9c0,0,0,0,0,0
		c3,0.8,5.9,3.2,9.2,0.8c3,0,6.2-1.5,8.7,1.3c2.8,2,6.4-0.1,9.1,1.8c-1,1.9-3,1.4-4.6,2C102.8,95.2,110.4,98.3,106.9,97.9z"/>
	<path class="st187" d="M102.9,92.1C99.6,92,96.3,92,93,91.9c-0.3-0.2-0.4-0.4-0.3-0.6c0.1-0.2,0.1-0.3,0.2-0.3
		c-0.5-1-2.9-3.3,0.3-2.7c5.4,1,10.5-0.9,15.8-0.3c1.5,0.2,3.4,0,3.3,2.1c-0.1,2-2,1.9-3.4,1.9C106.9,92.1,104.9,92,102.9,92.1z"/>
	<path class="st188" d="M106.9,95.2c1.4-1.8,3.4-0.9,5.2-1.3c1.6,0.1,3.2,0.1,4.9,0.2c0,0.3,0,0.5,0,0.8
		C113.9,97.6,110,97.7,106.9,95.2z"/>
	<path class="st151" d="M92.9,91c0,0.3,0.1,0.6,0.1,0.9c-3.3,1.8-5.6-0.3-8-1.9C87.6,90.3,90.3,90.7,92.9,91z"/>
	<path class="st189" d="M110,73c-0.8,1.3-0.9,2.6,0,3.9c-1.3,0-2.7,0-4,0C103.6,71.9,107.6,73.3,110,73z"/>
	<path class="st190" d="M87,94.1c2.7,2,6.8-0.4,9.1,2.9c-0.9,1.4-2.4,1.4-3.9,1.4c-1.4,0-2.8,0.1-4.2-0.2c-3.9-1.3-8.1-1.6-11.8-3.5
		c-0.7-0.3-1.4-0.7-2-1c0.6-0.6,1.3-1.2,1.9-1.7c0,0,0.2-0.3,0.2-0.3C79.8,92.1,83.6,92,87,94.1z"/>
	<path class="st191" d="M139.9,97.1c-1,0-1.9,0-2.9,0c-0.6,0.4-1.2,0.6-1.9,0.6c-0.9-0.1-1.6-0.8-2.4-1.1c-1.1-0.3-2.2-0.5-2.7-1.7
		c1.8-1.4,3.9-0.7,5.9-0.9c2.1,1.4,4.1-0.6,6.2,0c1.6,0.4,4.1-0.1,2.8,3C143.3,97.1,141.6,97.3,139.9,97.1z"/>
	<path class="st192" d="M139.9,97.1c1.7-1.8,3.3-2.4,5.1-0.1c-0.3,0.6-0.6,1.2-0.9,1.8C142.5,98.8,141.1,98.1,139.9,97.1z"/>
	<path class="st193" d="M106.9,95.2c3.4,1.1,6.7,1.5,10-0.3c1.7,0.2,3.3,0.3,5,0.5c0.9,0.4,2.9-0.2,1.8,2c-1.2,0.2-2.5,0.5-3.6-0.3
		c-4.3,1.5-8.9,0.6-13.3,0.9c-1.5-3.2-4.9-1-7.3-2.7C102.1,92.8,104.5,94.6,106.9,95.2z"/>
	<path class="st194" d="M123.9,96.8c-0.7-0.5-1.3-1-2-1.5c2.7-0.1,5.4-0.3,8.1-0.4c1.3,0,2.6,0.1,3.9,0.1c1,2.7-1,3.2-2.7,3.2
		C128.7,98.4,126.1,98.6,123.9,96.8z"/>
	<path class="st195" d="M94.9,123.1c-7.1-3.4-15.2-4.2-22.1-8.1c-0.8-0.4-3.4-0.4-0.7-2.1c8.5,2.8,17,5.6,25.9,6.5
		c3.7,0.4,7.6-0.7,11.1,1.3c2.7-0.4,5.4-0.5,6.1,3.1c-0.5,0.7-1.2,1.2-2.1,1.1C107,124.1,100.8,124.8,94.9,123.1z"/>
	<path class="st196" d="M110.1,118.9c-3.5-1.8-6.7-3.3-11.1-2.3c-2.7,0.6-6-1.2-9-1.9c-0.4-1.1,0.1-1.8,1-2.3
		c0.4-0.2,0.9-0.3,1.4-0.3c2.1,0.8,3.4-1.1,5.2-1.4c2.3-0.5,4.4,0.6,6.6,1c3,2.5,7,2.8,10.4,4.5c2.1,1.7,2.2,3.2-0.6,4.2
		C112.4,120.6,111,120.3,110.1,118.9z"/>
	<path class="st197" d="M110.1,118.9c1.3,0.1,2.5,0.2,3.8,0.3c4.8-0.1,9.6,0,14.3,1.7c0.8,0.5,1.3,1.2,1.2,2.2
		c-0.3,0.9-0.8,1.6-1.7,2c-4.4,0.4-8.9,1.7-12.7-2.1c-2.3,0.2-4.1-1-5.9-2.2C109.4,120.1,109.7,119.5,110.1,118.9z"/>
	<path class="st198" d="M90.9,113.2c-0.3,0.5-0.6,1.1-0.9,1.6c-4.4-2.3-9.3-3.2-14-4.8c-0.6-0.7-2.1-0.3-2.1-1.7
		c0-0.5,0.6-0.6,1.1-0.5c4.3,1.1,8.6,2.2,12.9,3.3C89.5,110.9,90.7,111.3,90.9,113.2z"/>
	<path class="st199" d="M75,107.9c-0.9,1.2,0.8,1.4,0.9,2.1c-4.5-0.7-8.8-2.2-12.9-4.2c0.1-0.9,0.7-1.9,1.5-1.3
		C67.7,106.8,71.6,106.5,75,107.9z"/>
	<path class="st200" d="M115,123c4.3,0.8,8.6,1.4,13,1c3-0.7,5.6-0.3,7.5,2.3c-0.2,3.6-2.7,2.9-5,2.7c-6.2-0.7-12.2-3.2-18.5-2.9
		c-6.4-0.2-12.8-0.5-19-2c0.7-0.3,1.4-0.7,2-1c5.6,0.1,11.3-0.7,16.8,0.8C112.9,124.2,114.1,123.9,115,123z"/>
	<path class="st201" d="M110.9,103.1c1.7,0,3.4,0,5.1-0.1c1.4,1.4,2.9,2.5,4.9,3.1c1.3,0.4,1.8,1.4,0.6,2.6c-2.9,1.3-6,0.5-9,0.6
		c-5.7-1.2-11.4-0.1-17.1,0.6c-2.7,0.3-5.2,0.9-7.5-1c-3.5-1.7-7.9-1-11.1-3.9c6.4-2.3,12.8,1.2,19.3,0c2.1-0.4,4.6,0.8,5.5-2.8
		c0.2-0.7,4.3-0.8,6.3,0.7c-0.3,0.4-0.8,0.5-1.2,0.5C108.1,102.7,109.7,105.3,110.9,103.1z"/>
	<path class="st202" d="M88,109c6.6-0.6,13.2-1.2,19.8-1.8c1.5-0.1,3-0.3,4.2,0.8c0,0.9-0.4,1.6-1.1,2.1c-2,1.8-4.5,1.3-6.9,1.4
		c-2.2,0.1-4.4-0.9-6.6-0.2c-1.9,0.6-3.7,1.1-5.5,1.9c-0.3,0-0.6,0-1,0c-1-0.7-2-1.3-3-2C87.9,110.4,88,109.7,88,109z"/>
	<path class="st203" d="M138.9,136.1c-0.6,0-1.3-0.1-1.9-0.1c-1.8-1.1-5.8,0.1-5.2-3.1c0.6-3.6,4.2-1.7,6.2-1.1
		c2.9,0.8,5.9,0.6,8.8,0.9c3.2,1.6,7.6-0.4,10,3.5c0.6,1.5,2.3,2.3,2.4,4.4C151.9,140.9,145.6,137.8,138.9,136.1z"/>
	<path class="st204" d="M145,143.9c1.3,1.7,3.5,0.6,5.1,1.6c-2.1,2.6-10.5,2-11.1-0.9c-0.6-2.6,2.1-1.1,3.1-1.7
		C143.1,143.2,144.1,143.6,145,143.9z"/>
	<path class="st205" d="M175.9,138c-2.3-0.4-4.6-0.8-6.9-1.2c-2.9-1.7-6-0.4-9-0.9c-0.8-1.3-3.7-0.6-3-3.2c0.4-0.4,0.8-0.7,1.3-0.9
		c4.7,0.5,9.8-0.6,13.8,3.1c1.3,0.7,2.3,2,4,2c1-0.8,2-0.9,2.9,0.1C178.1,138,177,138,175.9,138z"/>
	<path class="st206" d="M157,133c0.8,1.1,2.9,1,3,2.9c-1,0.1-2.1,0.2-3.1,0.2c-3.3-0.7-6.6-1.4-9.9-2.2c2-4.4,5.6-1.9,8.6-2.1
		C156.2,132.1,156.6,132.5,157,133z"/>
	<path class="st164" d="M156,132.8c-3,0.7-6.2-0.9-9,1.2c-4.8,0.7-9.4-1-14.4-1.8c0.5,2.9,3.4,2.3,4.4,3.8c-3,0-6.1,0.6-9-1
		c-1.8-0.3-3.6,1-5.5,0.2c-2.8-0.8-5.7-1.2-8.3-2.4c-1.6-0.8-3.5-1.4-2.3-3.8c3.7-1.1,7.3,1.9,11,0.1c0.8-1.1,2-1.1,3.2-1
		c9.2,0.7,18.4,1.7,27.6,2.7C154.9,130.8,156,131.3,156,132.8z"/>
	<path class="st174" d="M123,134c1.7,0.1,3.5-0.4,4.9,1c-0.3,0.6-0.6,1.3-0.9,1.9c0,0-0.2,0.2-0.2,0.2c-2.9,1.7-5.3,1.2-7.1-1.6
		C120.2,133.7,121.8,134.2,123,134z"/>
	<path class="st207" d="M156,132.8c-7.6-1.4-15.3-0.9-22.9-2.8c-3.3-0.8-6.7-1.6-10.2-1c-3.7-1-7.3-2-11-3c4.8-1.8,9.4,0.7,14,0.6
		c3-0.1,6.2,3.3,8.9-0.5c1.1-1.7,2.9-1.9,4.4-1.3c5.8,2,11.7,1.1,17.6,1.4c3.1,0.3,5.9,2.1,9.1,1.9c2.8,2.3,0.3,3-1.2,3.6
		c-3.4,1.3-6.4-0.2-9.2-2.1c0,0,1.4,3.3,1.4,3.3s0.1,0.1,0.1,0.1C156.7,132.9,156.3,132.9,156,132.8z"/>
	<path class="st164" d="M156.9,132.9c-0.9-3.9-5-2.1-8.1-4c3.4-1.2,5.6-1.1,7.9,0.2c2.7,1.6,5.6,1.8,8.6,0.9c1.1-0.3,1-1.1,0.6-1.9
		c2.2,0.1,3.7,2.4,6.1,2c0.6,0.9,1,1.9,1,3c-0.3,0.6-0.7,1.3-1,1.9C166.9,134.3,161.9,133.6,156.9,132.9z"/>
	<path class="st208" d="M156.8,126.1c-5.5,1.7-11,1.6-16.5,0.4c-1.8-0.4-3.6-0.6-5.4-0.4c-2.5-0.1-4.6-1.2-6.9-2.1
		c0.4-0.4,0.8-0.8,1.2-1.1c5-0.9,10-1.5,14.7,1.3C148,125.8,152.7,124.1,156.8,126.1z"/>
	<path class="st209" d="M173,133c-0.8-0.2-1.9-0.2-2.2-0.7c-0.7-1.1,0.8-1.5,1.3-2.3c4.9,0,9.9-1,14.1,3.4
		C181.5,134.9,177.3,133.2,173,133z"/>
	<path class="st210" d="M143.8,124.2c-4.9-0.4-9.9,0.1-14.7-1.3c-0.4-0.3-0.8-0.6-1.2-0.9c0.2-2.4,2-2.3,3.7-2.1
		c2.8,0.3,5.6-0.1,8.4,0.2c3.6,1.1,7.1,2.6,11,2.9c0,0,0,0,0,0C148.9,124.9,146.2,123.5,143.8,124.2z"/>
	<path class="st164" d="M178.9,137.1c-1,0-2-0.1-2.9-0.1c-0.7-2.3,0.8-2.1,2.1-1.9c1,0.1,2.4,0,2.5,1.5
		C180.7,136.7,179.5,136.9,178.9,137.1z"/>
	<path class="st211" d="M140.1,121.9c-4,0.8-8.1-1.1-12.1,0.1c-4.8-0.3-9.6-1.1-14.1-2.8c2.6-0.6,0.5-1.4,0.1-2.1
		c0.2-0.2,0.3-0.4,0.5-0.7c4.9-1.9,9.7,0.6,14.6,0.2c3.4-0.2,6.9,0.3,9.5,0.3c-1.1-0.1-3,0.1-5-0.1c-1.8-0.1-3.5-0.5-2.2-3
		c0.9-1,2-1.1,3.6-0.5c-3.3-1.5-6.5-0.6-9.5-1c-1.7-0.2-4.6,0.3-3-3.2c5.3-1.2,10.7-1.1,16.1-0.1c2.4,2.1,5.2,3.2,8.5,3.5
		c2.3,0.2,4.6,0.5,6.2,2.5c0.3,0.4-0.8,1.3,0.8,1.4c2.5,0.2,4.8,1,6,3.6c0,0.2,0.1,0.4,0.1,0.7c-4.6,0.1-9.2,0.2-13.9,0.4
		C144.4,122.9,141.8,119.8,140.1,121.9z"/>
	<path class="st166" d="M140.1,121.9c1.7-3.1,4-1.1,6.1-0.8c1.6,0.6,3.2,1.2,4.8,1.9C147.3,123.3,143.7,122.6,140.1,121.9z"/>
	<path class="st212" d="M119.9,135.1c2.3,0.7,4.7,1.3,7,2c1,1.8,0.1,3.3-1.5,3.1c-3.8-0.6-7.8,0.8-11.5-1.2
		c-4.5-3.1-10.2-2.4-15.1-4.6c1.3-2.2,3.3-2.3,5.2-2.5C109.9,130.3,114.8,132.9,119.9,135.1z"/>
	<path class="st165" d="M119.9,135.1c-5.3-0.7-10.7-1.1-15.8-3.2c-0.3-3.2-3.5-2.5-5.2-3.8c4.4-0.3,8.6,1.5,13,0.8
		c0.9,3,3.9,2.5,6,3.5c1.6,0.8,3.7,0.1,5.1,1.5C122.2,135,121,135,119.9,135.1z"/>
	<path class="st213" d="M160,120.1c-2.5-1.2-5-2.3-7.6-3.5c0.1-0.1,0.1-0.2,0.2-0.3c0.1-0.1,0.3-0.2,0.4-0.2c0.5-0.6,1.2-0.9,2-1
		c2.2,0.3,4.5,0.1,6.7,0.6c2.1,1,4.3-0.1,6.5,0.3c1.8,0.2,3.5,0.5,4.6,2.2c-1.8,2.8-4.6,1.7-7,1.8C163.8,120.1,161.9,120,160,120.1z
		"/>
	<path class="st214" d="M172.8,118.1c-1.6-0.4-3.2-0.8-4.9-1.1c0.6-2.6,2.3-1.4,3.7-1.2c1.1,0.1,2.2,0.1,3.2,0.2
		c0.3,0.3,0.6,0.6,0.9,1C175.1,118.2,173.9,117.9,172.8,118.1z"/>
	<path class="st215" d="M135,96.9c0.7,0.1,1.3,0.1,2,0.2c2.4,3.2,6.7,2.5,9.6,4.9c1,0.8,2.2,1.2,3.4,1.9c0.5,2.4,2.9,2,4.4,3
		c1.6,1.1,1.2,1.7-0.4,2.1c-0.8,0.8-1.7,0.7-2.7,0.4c-4-2-8.7-1.1-12.8-2.9c-1.8-0.2-3.5,0.1-5.2,0c-1.6-0.1-3.3-0.1-3.3-2.4
		c1.1-0.4,2.9,0.7,3-1.3c0.1-1.3-1.4-1.5-2.5-1.8c-2.6-0.8-5.1-1.8-7.6-2.7C126.8,96.3,131.1,98.5,135,96.9z"/>
	<path class="st216" d="M171.7,115.8c-1.4,0-2.8-0.4-3.7,1.2c-2,1-4,1.5-6,0c-1.6-2.9-6.2-1.8-7.2-5.5c0.1-0.2,0.2-0.4,0.3-0.6
		C160.7,111.9,166.1,114.1,171.7,115.8z"/>
	<path class="st217" d="M151.9,108c0.7,0.3,1.3,0.6,2,0.9c0.3,0.6,0.7,1.3,1,1.9c0,0-0.1,0.1-0.1,0.1c-1.4,1.5-2.9,1-4.4,0.3
		c-0.9-0.4-1.9-1-1.5-2.1C149.5,107.7,150.5,107.1,151.9,108z"/>
	<path class="st145" d="M76.1,94.8c4,0.7,8,1.4,12,2.1c1.2,1.7,2.5,1.8,3.9,0.3c1.3-0.1,2.7-0.1,4-0.2c3,0.4,6,0.8,9,1.1
		c-0.3,1.1-1,1.7-2.1,1.8c-8.6,0.3-17.2,0.8-25.7,0.9c-2.1,0-4.5-0.5-6.5-2c1.8-1.5,3.8,1.2,5.2-0.8c2,0.2,4,0.4,6.4,0.6
		C80.8,95.9,77,97.7,76.1,94.8z"/>
	<path class="st218" d="M130,104c2.8,2.4,6.1-0.3,9.1,0.9c-1.7,1.2,2.2,4-1.4,4.6c-3.7-0.4-7.5-0.6-11.2-0.5c-1.6,0-3.3,0.5-4.5-1.1
		c-2.1-1.5-6.4-0.2-5.9-4.8c2.9-1.3,5,2.7,8.2,1.6c-1.1-2.1-3.6-2.3-4.3-4.6C123.9,100,126.4,103.6,130,104z"/>
	<path class="st218" d="M110.9,103.1c1.1,0.6,2.1,1.3,4,2.4c-4.5,0.7-7.3-2.3-11.3-1.4c1.7-1.7,3.2-0.9,4.4-1.1
		C109,103,110,103.1,110.9,103.1z"/>
	<path class="st219" d="M135,96.9c-3.8,2.4-8.1,0.7-12.1,1.3c-0.9-0.5-2.2,0-2.8-1.2c1.2-0.1,2.5-0.1,3.7-0.2
		c3.4-0.6,7.3,2.2,10.1-1.8C134.3,95.7,134.7,96.3,135,96.9z"/>
	<path class="st220" d="M87,94.1c-3.7-0.2-7.5-0.3-10.8-2.3C80.2,90.7,84.1,89.8,87,94.1z"/>
	<path class="st221" d="M92,97.2c0.6,0.4,1.2,0.9,2,1.5c-2.7,0.8-4.9,0.3-7.2-0.6c-0.5-0.2-0.7-0.6-0.1-0.9c0.4-0.2,0.9-0.2,1.4-0.3
		C89.4,97,90.7,97.1,92,97.2z"/>
	<path class="st222" d="M113.9,117.1c-3.8-0.2-7.1-1.5-9.8-4.2c0.3-0.5,0.8-0.9,1.3-1.1c5-1.4,10,0.1,14.9,0.5
		c2,0.3,3.8,1.1,5.8,1.3c1.3,0.2,3,0.5,2.7,2.1c-0.2,1.3-1.8,1.1-2.9,1.3c-3.9,0.6-7.8-1.2-11.8-0.1L113.9,117.1z"/>
	<path class="st201" d="M105,112.8c-0.3,0.1-0.6,0.1-1,0.2c-2.3-0.4-4.6-0.8-6.9-1.1c-0.4-0.1-0.6-0.2-0.5-0.4
		c0.1-0.2,0.2-0.4,0.3-0.4c2.2-1.7,4.7-0.8,7.1-0.9C104.6,110.9,105.3,111.6,105,112.8z"/>
	<path class="st160" d="M96.9,111c0.1,0.3,0.1,0.5,0.2,0.8c-1.2,2.7-3,2.6-5.2,1.3C92.2,109.3,95.2,111.6,96.9,111z"/>
	<path class="st223" d="M121.9,107.9c5.7,0.1,11.3,0.1,16.9,1c3.9-2,7.2-0.5,10.4,1.6c1.2,0.8,0.8,1.5-0.2,2.2
		c-3.6,0.8-6.9,0-10-1.8c-5.7-1.7-11.5-0.7-17.2-0.7c-4.4,2.5-6.8,2.2-10.8-1.3c0.3-0.3,0.6-0.6,1-0.9
		C115.3,108,118.6,107.9,121.9,107.9z"/>
	<path class="st224" d="M111,108.9c3.6,0.4,7.2,0.9,10.8,1.3c2.5,1.2,5.2,0.6,7.8,0.7c2.7,0.1,5.2,0.5,7,3.2c-1.7,0-3.1,0-4.6,0
		c-4,0.1-8,1.1-12,0c-5-0.4-10-0.8-15-1.2c-0.7-0.7-2-1.2-1-2.6C106.4,110.1,108.8,109.7,111,108.9z"/>
	<path class="st225" d="M120,114c4,0.9,8-2.1,12,0c-0.8,2.4,1.1,1.9,2.3,1.9c2.8,0,5.6,0.2,8.2,1.7c-9.5,0.3-18.9,0.8-28.3-0.8
		c4.3-2.1,9,0,13.7-1.3C125.2,114.2,122.2,115.9,120,114z"/>
	<path class="st226" d="M139,110.8c3.3,0.4,6.6,0.9,9.9,1.3c2.8-0.5,5.3,0,7.4,1.9c0.6,0.5,1.3,1.2,0.4,2.1c-0.6,0.5-1.2,0.3-1.8,0
		c-0.6,0-1.2-0.1-1.8-0.1c-2.4-1.8-5.4-1.5-8-2.2C142.9,113.3,139.9,113.9,139,110.8z"/>
	<path class="st181" d="M154.8,116.1c2.2-1,0.4-1.1-0.3-1.4c-1.9-0.9-3.8-1.7-5.6-2.5c-2.5-3.6-6.9-1.4-10-3.3
		c-0.5-1.3-1.8-1.7-3.3-2.3c1.5-0.7,2.5-1.2,3.5-1.7c4.1,1.8,9.1,0.2,12.9,3.1c-0.8,0.1-1.7,0.1-2,1c-0.2,0.9,0.7,0.9,1.3,1.1
		c1.2,0.3,2.4,0.6,3.7,0.9c1.8,1.8,4.4,1.9,6.4,3.2c0.8,0.6,3.3,1.2,0.6,2.8C159.6,116.7,157.1,117.4,154.8,116.1z"/>
</g>
<g>
</g>
<g>
</g>
<g>
</g>
<g>
</g>
<g>
</g>
<g>
</g>
</svg>
