<?xml version="1.0" encoding="utf-8"?>
<!-- Generator: Adobe Illustrator 22.0.1, SVG Export Plug-In . SVG Version: 6.00 Build 0)  -->
<svg version="1.1" id="Layer_1" xmlns="http://www.w3.org/2000/svg" xmlns:xlink="http://www.w3.org/1999/xlink" x="0px" y="0px"
	 viewBox="0 0 150.1 100.1" style="enable-background:new 0 0 150.1 100.1;" xml:space="preserve">
<style type="text/css">
	.st0{fill:#FFFFFF;}
	.st1{fill:#EADDC1;}
	.st2{fill:#281C1B;}
	.st3{fill:#151513;}
	.st4{fill:#EEE3C8;}
	.st5{fill:#3F262F;}
	.st6{fill:#5E2B30;}
	.st7{fill:#0D0D0C;}
	.st8{fill:#442938;}
	.st9{fill:#48262A;}
	.st10{fill:#2E222A;}
	.st11{fill:#EBD8B5;}
	.st12{fill:#E4D0A6;}
	.st13{fill:#532E41;}
	.st14{fill:#87441E;}
	.st15{fill:#4D282C;}
	.st16{fill:#E3D0AB;}
	.st17{fill:#572F49;}
	.st18{fill:#E7D7BB;}
	.st19{fill:#703639;}
	.st20{fill:#DBC291;}
	.st21{fill:#3D2310;}
	.st22{fill:#5E2F11;}
	.st23{fill:#382527;}
	.st24{fill:#F0DEC1;}
	.st25{fill:#DECDB5;}
	.st26{fill:#FCF3E4;}
	.st27{fill:#C09B64;}
	.st28{fill:#4C4725;}
	.st29{fill:#E08829;}
	.st30{fill:#86693B;}
	.st31{fill:#C96A28;}
	.st32{fill:#FFF2DC;}
	.st33{fill:#D3B681;}
	.st34{fill:#87474B;}
	.st35{fill:#87471F;}
	.st36{fill:#23301C;}
	.st37{fill:#C1A886;}
	.st38{fill:#5E313C;}
	.st39{fill:#271A1A;}
	.st40{fill:#CAAB6D;}
	.st41{fill:#BA6628;}
	.st42{fill:#D6BB90;}
	.st43{fill:#DBBF8F;}
	.st44{fill:#EEC07B;}
	.st45{fill:#E8D9B9;}
	.st46{fill:#58323D;}
	.st47{fill:#D7BD9A;}
	.st48{fill:#FEE4B6;}
	.st49{fill:#DDC59B;}
	.st50{fill:#B79973;}
	.st51{fill:#86603B;}
	.st52{fill:#A47D52;}
	.st53{fill:#F9F0DF;}
	.st54{fill:#F3D6A2;}
	.st55{fill:#ECC580;}
	.st56{fill:#C89F69;}
	.st57{fill:#F7D49A;}
	.st58{fill:#F2D9AC;}
	.st59{fill:#F0E2C6;}
	.st60{fill:#622C35;}
	.st61{fill:#5D2F3B;}
	.st62{fill:#A15224;}
	.st63{fill:#D17528;}
	.st64{fill:#B45D27;}
	.st65{fill:#B46127;}
	.st66{fill:#703216;}
	.st67{fill:#8A4243;}
	.st68{fill:#D38139;}
	.st69{fill:#A14F24;}
	.st70{fill:#B55927;}
	.st71{fill:#F7DEB1;}
	.st72{fill:#D7C29C;}
	.st73{fill:#FBD78E;}
	.st74{fill:#653451;}
	.st75{fill:#ECE0CB;}
	.st76{fill:#703241;}
	.st77{fill:#8D4547;}
	.st78{fill:#7D353D;}
	.st79{fill:#A6723E;}
	.st80{fill:#A98974;}
	.st81{fill:#C4A985;}
	.st82{fill:#CAB9A5;}
	.st83{fill:#D5B887;}
	.st84{fill:#D3AE75;}
	.st85{fill:#C29550;}
	.st86{fill:#A2866F;}
	.st87{fill:#D5B78F;}
	.st88{fill:#BA9B76;}
	.st89{fill:#A97D44;}
	.st90{fill:#B09B8B;}
	.st91{fill:#1E302C;}
	.st92{fill:#1E4553;}
	.st93{fill:#AB6328;}
	.st94{fill:#A55125;}
	.st95{fill:#F7D193;}
	.st96{fill:#A8667C;}
	.st97{fill:#9A5668;}
	.st98{fill:#A55D62;}
	.st99{fill:#381C21;}
	.st100{fill:#884657;}
	.st101{fill:#D3AB6E;}
	.st102{fill:#8F4456;}
	.st103{fill:#AE6977;}
	.st104{fill:#EFC68D;}
	.st105{fill:#F5DFB9;}
	.st106{fill:#B0ACA6;}
	.st107{fill:#8E6B4F;}
	.st108{fill:#B9977D;}
	.st109{fill:#A49081;}
	.st110{fill:#B69163;}
	.st111{fill:#B77A4F;}
	.st112{fill:#B08C7D;}
	.st113{fill:#BB9D8A;}
	.st114{fill:#C68E62;}
	.st115{fill:#C6A494;}
	.st116{fill:#D8AD88;}
	.st117{fill:#9C5051;}
	.st118{fill:#DDC69C;}
	.st119{fill:#DA997A;}
	.st120{fill:#712F3D;}
	.st121{fill:#B76348;}
	.st122{fill:#955368;}
	.st123{fill:#804459;}
	.st124{fill:#BE752B;}
	.st125{fill:#E89962;}
	.st126{fill:#E19D5E;}
	.st127{fill:#FFF6E0;}
	.st128{fill:#FFEFC9;}
	.st129{fill:#F6D797;}
	.st130{fill:#F8D599;}
	.st131{fill:#FFF0CC;}
	.st132{fill:#C9AB7A;}
	.st133{fill:#FADEAA;}
	.st134{fill:#F7C65B;}
	.st135{fill:#703A5C;}
	.st136{fill:#7C3546;}
	.st137{fill:#7E3747;}
	.st138{fill:#964653;}
	.st139{fill:#A45659;}
	.st140{fill:#9D4654;}
	.st141{fill:#AC6259;}
	.st142{fill:#C79458;}
	.st143{fill:#94714F;}
	.st144{fill:#6F5640;}
	.st145{fill:#715945;}
	.st146{fill:#8C6C57;}
	.st147{fill:#AE7C2E;}
	.st148{fill:#A27C3E;}
	.st149{fill:#947364;}
	.st150{fill:#5F471B;}
	.st151{fill:#886652;}
	.st152{fill:#715136;}
	.st153{fill:#A78A75;}
	.st154{fill:#B87A79;}
	.st155{fill:#6A2F3C;}
	.st156{fill:#9A755B;}
	.st157{fill:#7A5E4D;}
	.st158{fill:#743038;}
	.st159{fill:#71352E;}
	.st160{fill:#A2785D;}
	.st161{fill:#E0B9A4;}
	.st162{fill:#A39D98;}
	.st163{fill:#9D6F61;}
	.st164{fill:#997F73;}
	.st165{fill:#897266;}
	.st166{fill:#766357;}
	.st167{fill:#968884;}
	.st168{fill:#986541;}
	.st169{fill:#A57254;}
	.st170{fill:#BB907A;}
	.st171{fill:#C57A40;}
	.st172{fill:#C07769;}
	.st173{fill:#B2635E;}
	.st174{fill:#884346;}
	.st175{fill:#D4B37C;}
	.st176{fill:#D3825E;}
	.st177{fill:#C2862B;}
	.st178{fill:#84476C;}
	.st179{fill:#98567A;}
	.st180{fill:#7E4160;}
	.st181{fill:#CD8C33;}
	.st182{fill:#F0AF7B;}
	.st183{fill:#A96989;}
	.st184{fill:#FFFEFB;}
	.st185{fill:#FFF8E7;}
	.st186{fill:#B86B2C;}
	.st187{fill:#F8D9A1;}
	.st188{fill:#8F5022;}
	.st189{fill:#F1C566;}
	.st190{fill:#C98D2B;}
	.st191{fill:#E5A828;}
	.st192{fill:#E6B661;}
	.st193{fill:#87373C;}
	.st194{fill:#AB5C65;}
	.st195{fill:#AA5F3A;}
	.st196{fill:#964D23;}
	.st197{fill:#B66B61;}
	.st198{fill:#B17375;}
	.st199{fill:#AF6170;}
	.st200{fill:#94543B;}
	.st201{fill:#DE832A;}
	.st202{fill:#A0472E;}
	.st203{fill:#986F3B;}
	.st204{fill:#624F38;}
	.st205{fill:#8B6128;}
	.st206{fill:#976127;}
	.st207{fill:#352D14;}
	.st208{fill:#4F3917;}
	.st209{fill:#3B3014;}
	.st210{fill:#5B472E;}
	.st211{fill:#805125;}
	.st212{fill:#C48C6C;}
	.st213{fill:#C48A75;}
	.st214{fill:#D8AB91;}
	.st215{fill:#89371D;}
	.st216{fill:#C8D5E6;}
	.st217{fill:#C66745;}
	.st218{fill:#A0664B;}
	.st219{fill:#867470;}
	.st220{fill:#A3725F;}
	.st221{fill:#9A4E47;}
	.st222{fill:#AB692A;}
	.st223{fill:#C3805A;}
	.st224{fill:#D69F78;}
	.st225{fill:#A45C26;}
	.st226{fill:#E4A925;}
	.st227{fill:#BE9652;}
	.st228{fill:#EF9D61;}
	.st229{fill:#A4712A;}
	.st230{fill:#BD782B;}
	.st231{fill:#BC838C;}
	.st232{fill:#E8A676;}
	.st233{fill:#CF885E;}
	.st234{fill:#BF9B6B;}
	.st235{fill:#6D431F;}
	.st236{fill:#C49078;}
	.st237{fill:#846286;}
	.st238{fill:#907089;}
	.st239{fill:#411C0E;}
	.st240{fill:#A78DAB;}
	.st241{fill:#5A4019;}
	.st242{fill:#DF7C24;}
	.st243{fill:#BC8684;}
	.st244{fill:#7A5A72;}
	.st245{fill:#52406A;}
	.st246{fill:#9B7581;}
	.st247{fill:#A88BA2;}
	.st248{fill:#955F26;}
	.st249{fill:#69461B;}
	.st250{fill:#1B1D12;}
	.st251{fill:#362A13;}
	.st252{fill:#8E5E25;}
	.st253{fill:#7A6B92;}
	.st254{fill:#5F5379;}
	.st255{fill:#382912;}
</style>
<g>
	<path class="st0" d="M0,41.3c0-4.7,0-9.4,0-14.2c1.3-1.3,3.1-1.1,4.7-1.3c2.5-0.4,5.1-0.6,8-1.6c-2.7-0.6-4.9-1.3-7.2-1.5
		c-2-0.1-3.9-0.5-5.4-1.8C0,14.5,0.1,8.1,0,1.7C0,0.3,0.3,0,1.7,0c39.3,0,78.6,0,118,0c0.3,1.5-0.9,2.4-1.6,3.4
		c-0.6,0.7-1.2,1.4-1.2,2.4c0,1.3-0.4,2.5-1.1,3.5c-3,3.8-5.7,7.8-11.1,8.6c-3.1,0.5-5.9,1.9-7.6,4.8c-2.6,2.3-5,4.7-7.2,7.3
		c-0.6,0.7-1.1,1.5-1.4,2.5c-0.7,3-2.3,4.3-5.4,4.3c-0.8,0-1.7-0.2-2.4,0.4c-0.1,0.2-0.3,0.3-0.4,0.5c-1.5,2.5-3.8,3.5-6.7,3.3
		c-0.9,0-1.8-0.1-2.7,0.3C68.6,42.5,66,42,63.7,43c-3.7,1.1-7.2,0.3-10.8-0.4c-0.4-0.1-0.9-0.3-1.3-0.5c-3.1-0.3-6.3-1.1-9.4,0.1
		c-2.3,0.9-4.7,1.1-7.1,1.6c-3.8,0.8-6.4-0.8-7.7-4.5c-0.9-2.6-0.7-5.3-0.1-7.8c0.4-1.8,0.3-3.6,0.1-5.3c-0.3-2.3-0.5-4.5-0.1-6.8
		c0.2-1.3-0.3-2.5-1.2-3.4c-1.2-1.2-3.1-1.1-3.9,0.4c-1.2,2.2-1.9,4.6-3.2,6.8c-0.5,0.8-0.1,1.6,0.5,2.3c1.5,1.7,2,3.8,2,6
		c0,3.2,0.4,6.5-1.2,9.6c-1.6,2.2-3.7,3.1-6.5,2.6c-1.7-0.3-3.5-0.1-5.2-0.1C5.5,43.5,2.8,42.5,0,41.3z"/>
	<path class="st1" d="M68,100.1c-5.8,0-11.7,0-17.5,0c-1.7-0.9-3.9-0.7-5.2-2.4c-0.2-0.3-0.6-0.5-0.8-0.9c-0.1-0.4-0.3-0.6-0.7-0.6
		c-2.4,0-4.3-1.5-6.4-2.2c-2.2-0.8-4.5-2.3-7-0.6c-0.8,0.5-1.7,0.2-2.6-0.3c-1.7-1-3.4-2.1-5.2-3.1c-1-0.6-1.9-0.7-3-0.3
		c-2.3,0.9-2.8,0.7-4.4-1.3c-0.3-0.4-0.6-0.9-1-1c-3.5-0.4-5-3.5-7.5-5.4c-3.6-2.6-2.9-6.3,1.2-8c1.7-0.7,3.2-1.5,4.6-2.7
		c1.7-1.6,3.7-0.6,5.5,0.1c1.5,0.6,2.2,1.8,2.1,3.5c-0.1,1.2,0.1,2.3,0.4,3.5c0.8,3.4,2.5,4.4,6,3.6c1-0.3,1.9-0.7,2.9-1.2
		c2.8-1.4,5.7-1.6,8.7-0.4c1.7,0.7,3.2,0.2,4.6-0.4c1.6-0.7,3.2-0.8,4.9-0.6c0.6,0,1.4,0.1,1.4,0.9c0,0.7-0.7,1.1-1.3,1.1
		c-1.6,0.1-3.2,0.4-4.7,0.7c-1.4,0.3-1.6,1-0.8,2c0.3,0.4,0.6,0.8,0.9,1.1c2.1,2.8,4.9,3.1,7.4,0.6c1.5-1.5,3-2.9,5.3-2.9
		c0.1,0,0.2-0.1,0.2-0.1c2.1-2.3,4.9-1.5,7.4-1.4c1.9,0,3.7-0.2,5.6-0.4c3.4-0.4,6.7,0.9,10.1,0.9c1.5,0,1.7,1.2,1.3,2.4
		c-0.3,0.6-0.8,1.1-1.5,1.2c-0.6-0.1-1.2-0.4-1.7-0.7C72,81.3,66.7,82.2,61.5,84c-1.4,0.5-2.7,1.1-4.2,1.2c-2.2,0.3-3.9,1.5-5.4,2.9
		c-1.5,1.5-1,2.8,0.6,4.1c2.6,2.2,5.6,2.1,8.6,2.3c1.4,0.1,2.4,0.3,2.3,2.1c0,1.5,0.9,1.9,2,1.1c0.7-0.6,1.3-1.2,2.1-0.4
		C68.5,98.1,68.8,99,68,100.1z"/>
	<path class="st2" d="M116.7,100.1c-2.1,0-4.2,0-6.3,0c-0.1-1.4,1-2.2,1.4-3.4c1.5-3.9,1.4-8.2,2.7-12.1c2-6.1,3.2-12.5,7.2-17.8
		c1.3-1.2,2.7-2.4,4.3-3.3c2.2-1.2,4.3-0.7,5.3,1.4c1.3,2.7,0.6,5.3-1.7,6.2c-4.9,2-7.7,5.7-8.9,10.7c-0.2,0.8-0.5,1.7,0.3,2.4
		c0.7,0.6,1.6,0.2,2.4-0.1c3.8-1.6,7.6-3.2,10.6-6.1c1.3-1.2,2.6-1.4,4.2-0.9c1.3,0.4,2.6,0.8,3.9,1.4c2,0.9,3.2,0.5,4.4-1.4
		c0.8-1.3,1.3-2.8,1.7-4.2c0.3-0.9,0.5-2.1,1.9-2c0,4.9,0,9.7,0,14.6c-1.9,2.5-4.7,3.8-7.4,5.2c-1.3,0.7-2.2,0-2.7-1.6
		c-0.7-2.6-1.9-3.2-4.4-2.1c-1.3,0.6-2.5,0.9-3.7,0.1c-0.8-0.5-1.6-0.3-2.4-0.2c-1.1,0.1-2.2,0.4-3.3,0.2c-2.1-0.3-3.3,0.5-3.8,2.5
		c-0.5,2.2-1.4,4.2-1.9,6.4C120,98.2,118.9,99.6,116.7,100.1z"/>
	<path class="st3" d="M116.7,100.1c4-2.3,3.9-6.6,5-10.3c0.7-2.5,2.1-3.7,4.8-3.2c0.5,0.1,0.9,0.1,1.4,0c1.7-0.2,3.4-1.2,5,0.4
		c0.5,0.5,1.4,0.1,2.1-0.3c3.1-1.8,4.9-1,5.5,2.5c0.3,1.7,1.4,1.6,2.4,0.9c1.8-1.1,3.6-2.3,5.4-3.5c0.6-0.4,1.2-0.7,1.7-1.1
		c0,4.4,0,8.9,0,13.3c0,1-0.2,1.3-1.3,1.3C138.1,100.1,127.4,100.1,116.7,100.1z"/>
	<path class="st4" d="M68,100.1c0-0.6,0-1.3-0.2-1.8c-0.1-0.5-0.5-0.9-1-0.9c-0.5-0.1-0.7,0.3-0.8,0.7c-0.2,0.7-0.6,1.5-1.4,1
		c-0.9-0.5-2.3-1.2-1.8-2.4c0.7-1.7-0.2-1.6-1.2-1.5c-2.1,0.2-4.1-0.6-6.2-0.4c-0.9,0.1-1.4-0.4-1.9-1.1c-0.3-0.4-0.5-0.9-1-0.9
		c-1-0.1-2.2-0.2-2.1-1.5c0.1-1.3,0-2.5,1.3-3.7c2-1.8,4.3-2.5,6.8-3.1c2.8-0.7,5.5-1.6,8.3-2.3c4.6-1.1,8.4,0.6,12,3
		c0.3,2-1.1,3.6-1.2,5.6c-0.1,2.8-1.3,5.5-1.2,8.3c0,0.4-0.2,0.8-0.5,1.1C73.3,100.1,70.6,100.1,68,100.1z"/>
	<path class="st5" d="M150.1,43c0,2.8,0,5.6,0,8.3c-1.1,1.8-1.6,3.9-2,5.9c-0.7,3.7-1.6,7.4-1.4,11.3c0.1,1.8-0.1,3.6-0.7,5.4
		c-1.2,4.2-4.2,4.5-8.1,2.7c-2.8-1.4-2.7-1.5-4.6,1.1c-2.6,3.5-6.4,5.3-10.4,6.5c-1.6,0.5-2.6-0.6-2.3-2.2c0.9-4.2,3.3-7.4,7-9.7
		c1-0.7,2.3-0.6,3.4-0.6c2-0.1,2.4-0.5,2.3-2.6c0-0.6-0.2-1.2-0.3-1.9c-0.6-3.9-1.3-4.4-5.2-4.2c-0.3,0-0.7,0-1-0.2
		c-0.7-0.9,0-1.4,0.6-1.8c0.6-0.5,1.3-0.8,2-1.1c1.6-0.6,3-1.5,4.1-2.8c1.1,0.5,1.5,1.7,2.2,2.5c2,2.3,4.8,0.8,6.9,2
		c0.5,0.3,0.9-0.4,1.2-1c0.5-0.9,0.6-2,0.7-3c0.5-4.6,1.5-9.1,3.7-13.3C148.6,43.6,148.8,42.5,150.1,43z"/>
	<path class="st6" d="M88.8,100.1c-0.4,0-0.8,0-1.3,0c-0.2-0.4-0.1-0.7,0.2-1c3.2-3.1,3.6-7.6,5.6-11.2c3.8-6.8,5.9-14.5,10.1-21.1
		c0.7-1,1.2-2.2,2.3-3c0.2-0.1,0.3-0.2,0.5-0.4c0.8-0.6,1.3-1.9,2.5-1.4c1.3,0.6,1.1,2,0.9,3.1c-0.3,3-0.7,6-0.8,9.1
		c0,0.1,0,0.3-0.1,0.4c-1.6,2.9-1.3,6.1-1.6,9.3c-0.1,1.2-1,1.8-1.7,2.6c1.3-0.5,2.3-0.3,3.3,0.6c1.1,0.9,2,0.2,2.6-0.8
		c0.9-1.3,1.3-2.9,1.9-4.4c1.2-3.5,2.4-6.9,3.7-10.4c0.3-0.7,0.4-1.7,1.5-1.7c0.6,0.9,0.2,1.7-0.1,2.5c-1.1,3.3-2.1,6.7-3.3,9.9
		c-1.2,2.9-1.9,5.9-3.6,8.6c-1.1,1.7-5.5,2.8-7.2,1.8c-0.2-0.1-0.4-0.2-0.5-0.4c-0.7-2.3-2.2-4.4-1.3-7c0.2-0.6,0.6-1.1,0.5-1.8
		c-0.2-0.9-0.2-2-1.3-2.4c-1.1-0.4-1.5,0.7-2.1,1.3c-3.2,3.4-5,7.6-6.6,11.9C92.1,96.7,91.2,99,88.8,100.1z"/>
	<path class="st7" d="M138.4,0c3.5,0,6.9,0,10.4,0c1,0,1.3,0.2,1.3,1.3c-0.1,6.9,0,13.9,0,20.8c-3,1.3-5.2,0.6-6.9-2.1
		c-0.7-1.1-1.6-2.1-2.7-2.9c-2.3-1.6-2.5-2.2-1.6-4.9c0.5-1.7,1-3.5,1-5.3c0-2,0.3-4-1.4-5.6C138.2,1,138,0.5,138.4,0z"/>
	<path class="st8" d="M150.1,43c-1.4,0.4-1.5,1.7-1.9,2.7c-1.7,4.1-2.9,8.4-3.1,12.9c0,1.1-0.7,2.1-1.1,3.1c-0.3,0.7-1,1.1-1.9,0.5
		c-0.6-0.4-1.3-0.9-1.9-0.8c-1.9,0.3-3.3,0.1-4.9-1.5c-1-0.9-1.2-2-1.9-2.9c-1.8-1-3.8-0.5-5.7-0.4c-0.4,0-0.8,0.3-1.2-0.1
		c-0.5-1.6,0.2-2.8,1.6-3.6c2.2-1,4.2,0.1,6.2,0.6c1.9,0.5,4.3,0,5.1,2.9c0.7-1.8,0.8-3.5,0.5-5c-0.7-2.9,0.5-5.4,1.5-7.7
		c1.3-3,3.3-5.6,5.9-7.7c0.9-0.7,1.1-2.4,2.7-2.3C150.1,36.9,150.1,39.9,150.1,43z"/>
	<path class="st9" d="M126.8,56.7c1.8-1.6,4-0.3,6-0.7c0.4-0.1,0.7,0.6,0.7,1.1c-0.2,1.4-1.1,2-2.3,2.6c-1.6,0.7-3.7,0.8-4.4,2.9
		c0.2,0.7-0.4,0.9-0.8,1.2c-1.5,0.8-2.7,2-3.8,3.4c-1.8,2.2-2.9,4.7-3.7,7.3c-1.9,5.9-4.1,11.6-4.8,17.9c-0.3,2.7-1,5.6-3.2,7.7
		c-3.3,0-6.7,0-10,0c-1.3-3-2-6.2-2.7-9.7c-1.5,1.1-1.9,2.5-2.6,3.7c-1.2,2.1-2.1,4.5-4.2,6.1c-0.3,0-0.6,0-0.8,0
		c-0.1-0.2-0.3-0.4-0.2-0.6c3-3.5,3.8-8.1,6.1-12c0.1-0.2,0.3-0.5,0.4-0.7c0.7-1,1.6-1.6,2.8-1.3c1.2,0.3,1.7,1.2,1.8,2.3
		c0.2,1.8,0.6,3.6,0.5,5.4c0,0.8,0,1.5,0.3,2.3c0.6,1.6,1.2,1.8,2.5,0.6c1.1-1,2.4-1.6,3.9-1.5c1.8,0.2,2.6-1.1,3.1-2.5
		c1.2-3.2,2.4-6.3,3.3-9.6c1-3.3,2.1-6.6,3.1-9.9c0.3-0.8,0.7-1.6,0.7-2.6c-0.7-0.9-0.1-1.6,0.4-2.3c1.1-1.2,1.8-2.6,2.5-4
		c0.8-1.7,2.1-3.1,3.1-4.6C125.1,58.2,125.3,56.9,126.8,56.7z"/>
	<path class="st10" d="M122.2,67.1c0.7-1.7,2-2.8,3.5-3.7c0.4-0.2,0.8-0.4,1.1-0.9c0.7,0,1.4-0.2,2-0.3c2-0.4,3.8,0.6,4.3,2.6
		c0.5,1.8,0.8,3.6,0.8,5.5c0,1.2-0.5,1.8-1.7,1.8c-2-0.1-4-0.2-5.7,1.4c-2.4,2.2-4.6,4.7-5.4,8c-0.5,2,0.2,2.7,2.1,2
		c4.2-1.4,8.1-3.3,10.4-7.4c1.3-2.3,1.8-2.3,3.8-0.7c1.7,1.4,3.8,2,5.8,1.4c2.3-0.7,2.5-3,2.8-5.1c0.4-2.6,0-5.2,0.4-7.8
		c0.6-4,1.5-7.8,2.6-11.7c0.2-0.6,0.6-0.9,1.2-0.9c0,6.5,0,13.1,0,19.6c-2.1,1.2-1.7,3.7-2.6,5.5c-1.8,3.4-3,4.1-6.3,2.3
		c-1.5-0.8-3.2-0.7-4.7-1.4c-0.6-0.3-1,0.2-1.4,0.6c-3.4,3.3-7.7,5.1-12,6.9c-2.3,1-3.4,0-2.9-2.5c1.1-5.6,4.1-9.7,9.6-11.8
		c1.7-0.7,2.3-3.2,1.2-5.5c-0.8-1.6-2.6-2.1-4.2-1.2C125,64.7,123.6,66,122.2,67.1z"/>
	<path class="st11" d="M44.6,96.7c1.7,1,3.2,2.4,5.3,2.5c0.4,0,0.5,0.4,0.5,0.8c-3.2,0-6.4,0-9.6,0c-3.3-1-6.8-1.1-10.2-1.5
		c-7.6-0.9-15-2.7-21.1-7.8c-1.5-1.3-3.2-2.5-4.8-3.7c-2.1-1.6-3.6-3.8-4.8-6.1c0-1.5,0-3.1,0-4.6c2-2.3,4.2-4.4,7.6-4.3
		c1,0,1.8-0.6,2.7-1.1c0.7-0.4,1.4-1,2.3-0.5c-0.3,2.2-2.2,2.6-3.8,3.4C7.4,74.4,6,74.8,4.9,76c-1.4,1.5-1.4,3.7,0.3,5.1
		c1,0.8,2.1,1.3,3.2,2c1.3,0.8,2.1,1.8,2.3,3.3c0.1,1.5,1.2,2.1,2.3,2.9c3.1,2.2,6.6,2.6,10.1,3.4c1.1,0.2,2,0.9,2.8,1.7
		c1.3,1.5,2.9,2.2,4.9,2.3c3,0.2,5.9,0.8,8.8,1.2c1.5,0.2,2.8,0.6,3.9-0.8C43.7,96.7,44.2,96.5,44.6,96.7z"/>
	<path class="st12" d="M0,80.9C2.3,83.4,4.3,86,7,88.1c5.8,4.6,11.9,8,19.3,9.2c4.3,0.7,8.8,0.6,13.1,1.9c0.6,0.2,1.2,0.2,1.5,0.9
		c-7.4,0-14.7,0-22.1,0c-1.2-0.8-2.5-1.4-3.9-1.8c-2.3-0.5-4.3-1.5-6.2-2.9C5.5,93.3,2.9,90.5,0,88C0,85.6,0,83.3,0,80.9z"/>
	<path class="st13" d="M150.1,33.8c-2.4,3.1-5.8,5.4-7.5,9.1c-1.4,2.9-2.8,5.8-1.9,9.3c0.3,1.3-0.5,2.5,0,3.8c0.2,0.4-0.3,1-0.9,1.2
		c-0.8,0.3-1-0.4-1.1-0.9c-0.4-1.4-1.1-2-2.7-1.8c-1.2,0.1-2.4-0.4-3.6-0.9c-1.3-0.6-2.6-0.6-4-0.3c-0.6-1.1,0-2,0.8-2.2
		c1.8-0.4,1.4-1.7,1.5-2.8c3.6-2.6,6.5-6,9.7-9.1c0.5-0.4,1-0.8,1.6-1c2.9-1,4.9-3.1,6.5-5.6c0.4-0.6,0.6-1.5,1.7-1
		C150.1,32.4,150.1,33.1,150.1,33.8z"/>
	<path class="st14" d="M126.3,0c1.9,0,3.9,0,5.8,0c2.9,2.4,3.1,5.9,3.4,9.2c0.1,1.3,0.3,2.5,0.6,3.7c0.3,1.2,0.4,2.5-0.4,3.6
		c-0.3,0.5-0.9,1.2-0.3,1.6c0.8,0.6,0.8-0.6,1.4-0.8c0.3-0.1,0.5-0.2,0.8-0.2c0.2,0,0.4,0.1,0.6,0.3c1.2,1.6,1.5,3.8,3.3,5
		c0.4,0.3,0.6,1,0.1,1.5c-1.2,0.9-2.5,0.9-3.8,0.4c-1.1-1.2,0.3-2.5-0.1-3.8c-1.7,1.7-3.5,3.4-6.2,2.6c-0.6-0.2-1.2,0.3-1.7,0.6
		c-0.3,0.1-0.6,0.2-1,0c-0.6-0.5-0.7-1.2-0.6-1.9c0.6-3.7-0.7-7.2-1.1-10.8c-0.1-1.1-0.2-2.3,1.3-2.6c1.4,0.5,1.4,1.9,1.9,2.9
		c0.2,0.4,0.3,0.7,0.5,1.1c0.7,1.7,0.7,3.6,1.5,5.3c1.8-1.6,2.1-3.3,1.1-6.1c0.7-2.3-0.9-3.4-2.4-4.5c-0.5-0.6-0.6-1.5-0.9-2.2
		c-0.4-1.5-1.3-2.7-2.7-3.4C126.9,1.4,126.1,1,126.3,0z"/>
	<path class="st15" d="M114.7,82.6c-0.5,3.8-1.8,7.4-3.3,10.9c-0.5,1.3-1.6,2.4-3.5,1.7c-1.5-0.5-2.6,0.6-3.6,1.6
		c-1.7,1.6-1.8,1.6-2.8-0.5c-0.3-0.6-0.7-1.2-0.6-2c0.2-2.2-0.4-4.3-0.4-6.4c0-1-0.4-1.8-1.5-2c-1-0.2-1.8,0.2-2.2,1.1
		c-0.3,0.5-0.5,1-0.8,1.5c-2,3.8-3.4,8-6,11.5c-0.4,0-0.8,0-1.3,0c3.4-3.2,4.3-7.8,6-11.9c0.8-1.9,2.4-3,3.3-4.7
		c0.4-0.7,1-1.3,1.4-2c0.4-0.7,0.9-1.2,1.6-0.9c0.7,0.2,1.5,0.2,1.8,1.3c0.4,1.4,0.6,2.6-0.2,4c-0.8,1.3,0.3,2.5,0.4,3.7
		c0.3,2.8,1.8,3.2,4.3,3c2.7-0.3,3.3-0.6,4.6-3.8C113,86.7,113.4,84.5,114.7,82.6z"/>
	<path class="st16" d="M12.5,70.5c-4,2.3-9.1,2.2-12.5,5.8c0-0.6,0-1.1,0-1.7c1.9-1.9,4.3-3,6.9-3.4c0.8-0.1,1.7-0.2,2.3-0.8
		c0.9-0.7,1.9-1,2.9-1.4c3.2-0.5,6.3-1.8,9.6-1.7c3.1,0.1,3.7,0.8,3,3.9c-0.3,1.3-0.9,2.5-1.1,3.8c-0.1,0.9-0.2,1.8,0.6,2.5
		c0.9,0.7,1.8,0.5,2.7,0.1c0.9-0.4,1.7-0.9,2.6-1.3c1.5-0.7,3.1-1,4.6-0.5c1.8,0.6,3.5,0.5,5.3,0.1c2.3,0,4.5-0.5,6.7-1.1
		c1.8-0.5,3.5,0.4,5.3,0.1c1.2-0.2,2.3-0.2,3.4-0.6c0.5-0.1,0.9-0.1,1.3,0.2c0.3,0.8,0.1,1.4-0.5,2c-1.2,0.8-2.5,1-3.8,0.7
		c-4.2-0.8-8.1,0-11.9,1.5c-1.5,0.4-3,0.4-4.5,0c-2.3-0.6-4.4-0.2-6.4,0.9c-0.5,0.3-1.1,0.6-1.7,0.8c-1.9,0.6-3.8,0.6-5.3-0.9
		c-1.5-1.5-1.7-3.4-1-5.4c0.3-0.9,0.5-1.7,0.6-2.6c0.1-1.2-0.2-1.9-1.6-1.8C17.7,69.9,15.2,70.7,12.5,70.5z"/>
	<path class="st17" d="M150.1,31.7c-1.7,0.9-2,3-3.5,4.2c-1.4,1.1-2.7,2.4-4.5,2.8c-0.5,0.1-1,0.3-1.2,0.7c-1.8,2.9-5.2,4.2-6.9,7.3
		c-0.6,1.1-2,1.1-3,1.7c-2,0.6-3.1-0.8-4.3-1.9c0.5-0.8,1.3-0.5,1.9-0.3c1.6,0.6,2.6-0.1,3.7-1.2c2.5-2.5,4.7-5.2,7.2-7.8
		c1.2-1.2,2.3-2.4,3.8-3.1c1.7-0.9,2.8-2.2,3.4-4c0.1-0.5,0.3-0.9,0.6-1.3c1-1.3,1.4-2.5-0.8-3c-0.4-0.1-0.7-0.5-0.2-0.9
		c1.7-0.6,3.1-0.3,4,1.5C150.1,28.1,150.1,29.9,150.1,31.7z"/>
	<path class="st18" d="M0,61.7c0-3.3,0-6.7,0-10c2.5-2.6,4.3-3.1,7.6-1.7c2,0.8,3.9,1.4,6,0.8c0.8-0.2,1.7-0.1,2.5,0.1
		c2.6,0.8,3.1,2.5,1.2,4.4c-0.9,0.9-1.7,2-2.5,3C12.4,61.3,9,62,5.5,62.2C3.7,62.3,1.8,62.8,0,61.7z"/>
	<path class="st19" d="M105.9,64.2c-3.6,4.8-6.1,10.2-8.2,15.7c-0.9,2.2-1.7,4.5-3.2,6.5c-1,1.4-1.7,3.2-2.1,4.9
		c-0.8,3.4-2.5,6.2-4.9,8.8c-0.3,0-0.6,0-0.8,0c-0.6-0.9,0.1-1.6,0.5-2.3c0.8-1.5,1.7-2.8,2-4.5c2-4.7,4.4-9.3,6.3-14
		c0.8-2.1,1.8-4.4,3.4-6.2c0.4-0.4,0.8-0.8,1-1.3c2.5-4.5,5.2-9,7.1-13.8c0.7-1.7,1.4-3.3,3-4.3c0.2,0,0.4,0,0.6,0.2
		c0.1,0.2,0.2,0.4,0.1,0.6C108.8,57.5,108.3,61.3,105.9,64.2z"/>
	<path class="st20" d="M0,88c1.6,0.4,2.6,1.6,3.6,2.6c3.6,3.5,7.4,6.7,12.7,7.5c1,0.2,2.1,0.8,2.5,2c-2.1,0-4.2,0-6.3,0
		c-3.2,0-5.3-2.5-8.1-3.6c-1.9-0.8-2.9-2.7-4.4-3.9C0,91,0,89.5,0,88z"/>
	<path class="st21" d="M138.4,0c3.5,4.3,2.2,8.9,0.7,13.4c-0.4,1.4,0,2.3,1.1,2.9c1.4,0.7,2.6,1.7,3.2,3.1c0.9,2.2,2.3,2.9,4.5,2.7
		c0.7-0.1,1.4,0,2.1,0c0,0.6,0,1.1,0,1.7c-2.2,0.6-4.3,0.3-6.4-0.4c-1.4-2.4-4-3.7-5.7-5.9l0,0c-1.9-1.5-2-2.2-0.9-4.4
		c1.2-2.3,2.1-4.7,2-7.3c0-0.6-0.1-1.1-0.2-1.6c-0.1-0.4-0.3-0.8-0.8-0.9c-0.5-0.1-0.7,0.4-0.8,0.7c-0.2,0.4-0.3,0.8-0.7,1
		c-0.6,0.4-1.4,0.6-1.6-0.2c-0.3-1.6-1.5-3.1-0.3-4.8C135.9,0,137.2,0,138.4,0z"/>
	<path class="st22" d="M134.7,0c-0.2,1.3,0.4,2.6,0.4,3.9c0,0.5,0,1,0.7,1c0.6,0,0.8-0.4,0.9-1c0.1-0.8,0-1.9,1.2-1.7
		c1.1,0.2,1.5,1.1,1.6,2.2c0.4,3-0.2,5.9-1.7,8.3c-1.2,1.9-1,3.3,0.2,4.8c-0.7,0-1.2,0.1-1.3,1c-0.1,0.7-0.4,1.3-1.2,0.8
		c-0.6-0.4-1.6-1-1-1.8c2.8-3.2,0-6.5,0.3-9.7c0.3-3-1.5-5.3-2.7-7.8C133,0,133.8,0,134.7,0z"/>
	<path class="st23" d="M90.9,100.1c1.9-3.1,3.7-6.3,5.6-9.4c0.3-0.5,0.7-1.2,1.4-1.1c0.8,0.1,0.5,1,0.6,1.6c0.3,3.1,2.1,5.8,2.1,9
		C97.3,100.1,94.1,100.1,90.9,100.1z"/>
	<path class="st24" d="M96.7,22.5c1.7-3.6,5.2-4.5,8.6-5.4c1.9-0.4,3.6-0.9,4.9-2.4c1.9-2.1,4.3-3.7,5.5-6.4
		c0.1-0.3,0.4-0.5,0.4-0.7c-0.3-3.3,2.5-5,3.6-7.6c0.1,0,0.3,0,0.4,0c0.9,1.2,0.4,2.4-0.2,3.5c-0.7,1.2-1,2.4-0.9,3.7
		c0.2,2.1-0.3,3.8-2.4,4.8c-0.5,0.2-0.9,0.8-1.5,1.1c-0.9,0.4-1.5,1-1.9,1.9c-1.3,2.2-3.2,3.5-5.9,3.6c-1.1,0-2.2,0.3-3.2,0.6
		c-2,0.4-3.7,1.3-5.3,2.4C98.1,21.9,97.7,22.9,96.7,22.5z"/>
	<path class="st25" d="M0,61.7c3.4,0,6.8,0.1,10.3-0.9c2-0.5,3.3-1.8,4.4-3.2c0.9-1.1,1.8-2.2,2.8-3.2c0.9-0.8,0.8-1.4-0.1-2.2
		c-1-0.9-2.3-1.3-3.5-0.9c-2.4,0.7-4.5,0.3-6.6-0.9c-2.2-1.3-4.1-0.7-6,0.5C1,51.3,0.7,51.8,0,51.7c0-0.4,0-0.8,0-1.3
		c2.2-2.4,5.6-3.1,8.4-1.7c1.5,0.9,3,0.7,4.6,0.3c2.2-0.5,5.6,1,6.8,2.9c0.8,1.3,0.6,2.8-0.4,3.6c-2.7,2.3-5.3,4.9-8.5,6.5
		c-2.8,0.7-5.6,1.1-8.5,1c-0.8,0-1.6,0-2.3-0.6C0,62.3,0,62,0,61.7z"/>
	<path class="st26" d="M0,20.9c4.4,1.6,9.3,1.1,14,3.4c-4.8,2-9.6,1.7-14,2.8C0,25,0,23,0,20.9z"/>
	<path class="st27" d="M0,72.6c0-0.3,0-0.6,0-0.8c1-1.6,2.6-2.3,4.3-2.6c2.6-0.4,5.1-1.1,7.4-2.4c2.4-1.3,5.2-1.5,7.9-1.8
		c1.4-0.1,2.8-0.3,4.1-0.7c2.8-0.8,3.3-2.1,2-4.6c-0.2-0.3-0.3-0.6-0.4-1c0.8-1.2,1.5-0.2,2.1,0.2c0.7,0.5,1.2,1.2,2,0.3
		c0.4-0.9,0.9-1.8,1.1-2.8c0.5-1.3-1.2-2.2-0.4-3.5c0.2-0.1,0.4,0,0.6,0.1c1.5,1.2,1.6,2.8,1.4,4.6c-0.7,2.1-1.5,4.2-1.7,6.5
		c-2.9,0.5-5.4,2.4-8.3,2.7c-2.8,0.5-5.6,0.7-8.3,1.5c-1,0.3-2,0.7-2.8,1.3c-1.1,0.5-2.3,1-3.5,1.2c-1.9,0.3-3.8,0.7-5.4,1.7
		C1.6,72.8,0.8,73.1,0,72.6z"/>
	<path class="st28" d="M0,66.7c0-0.6,0-1.1,0-1.7c2-1.1,4.3-0.4,6.4-0.9c2.2-0.6,4.5-0.6,6.5-1.7c0.8-0.4,1.4-1.1,2.4-1
		c0.3,0.1,0.6,0.3,0.6,0.6c-0.1,0.5-0.5,0.8-0.6,1.4c2.3-0.1,4.6-0.4,6.8-0.8c2.2-0.4,2.4-0.9,1.2-2.9c-0.3-0.6-1-1-0.9-1.8
		c1.6-0.3,3.2,0.9,3.7,2.9c0.4,1.6-0.3,2.6-1.9,3.1c-2.3,0.7-4.8,0.9-7.2,1.3c-2.3,0.3-4.5,0.9-6.5,2c-1.5,0.8-3,1.4-4.7,1.6
		c-1.6,0.2-3.1,0.6-4.5,1.5c-0.5,0.3-1,0.6-1.5,0.1c0-0.3,0-0.6,0-0.8c1.5-1.6,3.2-2.8,5.6-2.7c1.6,0.1,3-0.9,4.5-1.6
		c-2.5,0.9-5.1,1.2-7.7,1.7C1.6,67.3,0.8,67.4,0,66.7z"/>
	<path class="st29" d="M114.7,12.9c1-0.7,1.5-2,2.9-2.2c0.5-0.1,0.7-0.5,0.7-0.9c0.1-3,0.3-6,1.8-8.8c0.1-0.3,0-0.7,0-1
		c0.3,0,0.6,0,0.8,0c0.8,2.4,0.3,4.8-0.2,7.1c-0.8,3.1-0.1,5.9,0.8,8.7c0.1,0.3,0.4,0.6,0.5,0.9c0.3,0.8,0.4,1.7-0.5,2.2
		c-0.9,0.5-1.7,0-2.3-0.7c-0.5-0.7-0.7-1.5-1-2.3c-0.4-1-1-1.8-2.3-1.7c-0.3-0.1-0.6-0.2-0.9-0.4C114.8,13.6,114.7,13.3,114.7,12.9z
		"/>
	<path class="st30" d="M0,70.5c4.6-2.3,9.8-2.9,14.4-5.2c1.7-0.9,3.8-0.7,5.7-0.9c1.6-0.2,3-0.9,4.6-1c0.3,0,0.7-0.2,0.9-0.5
		c0.5-0.9,0.5-1.9-0.2-2.7c-0.8-0.8-0.9-2.8-2.8-1.8c-0.1,0.1-0.2,0.1-0.3,0.2c-0.3,0-0.6,0-0.7-0.4c0.9-1.6,2.1-1.2,3.4-0.6
		c0.3,0.2,0.4,0.5,0.5,0.8c3.3,3.8,0.8,6.2-2.8,6.7c-2,0.3-4.1,0.5-6.1,0.9c-2.1,0.4-4.2,0.7-6,2c-0.9,0.6-2.1,1.1-3.3,1.2
		c-2.7,0.3-5.1,1-7.3,2.6C0,71.3,0,70.9,0,70.5z"/>
	<path class="st31" d="M115.5,13.8c1.4-0.4,2.5-0.3,2.9,1.4c0.1,0.5,0.5,1,0.6,1.5c0.3,0.9,0.5,1.8,1.6,2c0.4,0.1,0.9,0.1,1-0.4
		c0.4-1-0.5-1.6-0.7-2.4c-0.9-2.9-1.7-5.8-0.7-9c0.7-2.2,0.5-4.6,0.7-6.9c0.3,0,0.6,0,0.8,0c0.4,1,0.1,2.1,0,3.1
		c-0.4,2.6-0.3,5.3,0.1,7.9c0.2,1.4,0.4,2.8,0.7,4.2c0.4,1.9,1.9,3.3,2,5.2c-1.3,2.3-2,2.4-3.8,0.6c-1.3-1.3-2.8-2.4-3.3-4.4
		c-0.1-0.6-0.8-0.9-1.3-1.3C115.7,15.1,114.9,14.7,115.5,13.8z"/>
	<path class="st32" d="M0,41.3c1.1,0.2,2.4,0.1,3.4,0.6c2.5,1.3,5.2,1.1,7.9,1.1c1.1,0,2.2,0.1,3.3,0.3c2.3,0.4,3.9-1,5.4-2.4
		c0.4-0.4,0.5-1.4,1.4-0.7c0.2,2-1.1,3.1-2.6,4c-0.8,0.4-1.6,0.8-2.5,0.9c-4.3-0.3-8.7,0.7-13-0.7C2.3,44,1.1,43.7,0,43
		C0,42.4,0,41.9,0,41.3z"/>
	<path class="st33" d="M0,92.6C1,92.7,1.7,93.1,2.2,94c0.5,1,1.4,1.8,2.3,2c2.8,0.6,4.4,3.7,7.5,3.5c0.2,0,0.3,0.4,0.5,0.6
		c-1.7,0-3.3,0-5,0C4.7,99.4,2.3,98,0,96.3C0,95.1,0,93.8,0,92.6z"/>
	<path class="st34" d="M89.6,93.4c-0.1,1.8-1.2,3.2-2,4.6c-0.3,0.7-0.9,1.2-0.9,2c-1.1,0-2.2,0-3.3,0c-0.3-1.1,0.5-1.6,1-2.3
		c1.6-1.2,1.1-2.7,0.7-4.3c0-0.4,0.1-0.9-0.6-0.7c-0.5,0.2-1,0.5-1.6,0.5c-0.2,0-0.4-0.1-0.5-0.3c-0.1-0.2-0.1-0.4-0.1-0.6
		c0.6-0.9,1.7-1.1,2.7-1.5c1.4-0.2,2.1,0.4,2,1.8c0,0.4,0.2,0.8,0.3,1.2c0.3,0.5,0.5,1,1.1,0.2C88.8,93.8,89,93.2,89.6,93.4z"/>
	<path class="st35" d="M121.3,3c0-1-0.1-2,0.4-2.9c0.7,0,1.4,0,2.1,0c0.6,0.9,0.7,2,1.5,2.8c0.1,0.2,0.2,0.4,0.2,0.6
		c-0.1,2.1-1.8,2.9-3.2,4.1c-0.6,0.5-1.2,0.1-1.2-0.7C121.2,5.5,120.9,4.2,121.3,3z"/>
	<path class="st36" d="M0,66.7c3.2-0.1,6.3-0.9,9.3-1.7c0.9-0.2,1.7-0.5,2.6,0C8.4,67.8,3.5,67,0,69.6C0,68.7,0,67.7,0,66.7z"/>
	<path class="st37" d="M13.4,62.6c-1.8,1.8-4.2,1.4-6.4,1.9c-2.3,0.5-4.7,0.6-7,0.5c0-0.4,0-0.8,0-1.3c1-0.8,2.2-0.6,3.4-0.6
		c3,0.2,5.8-0.8,8.7-1.6c1.1-0.2,1.3-1.9,2.6-1.6C15.5,61.5,14,61.8,13.4,62.6z"/>
	<path class="st38" d="M85.5,93.4c0.6,1.7,1.3,3.4-0.8,4.6c-0.5-1.8-0.8-1.9-2.5-1c-1.4,0.8-2.2,2.1-3.4,3c-0.6,0-1.1,0-1.7,0
		c-0.1-0.1-0.2-0.3-0.3-0.5c-0.2-0.9,0.4-1.3,1.1-1.8c1.1-0.8,2.1-1.5,2.5-2.9c0.4-0.9,0.8-2,2.1-1.9c0.1,0,0.3,0,0.4,0
		c0.2,0.3,0,0.6-0.1,1C83.8,94.2,84.5,93,85.5,93.4z"/>
	<path class="st39" d="M78.8,100.1c0.9-2.4,3-3.5,5.2-4.4c0.7-0.3,1.1,0.1,1,0.8c0,0.5-0.2,1.1-0.4,1.6c-0.4,0.7-0.8,1.4-1.3,2.1
		C81.9,100.1,80.3,100.1,78.8,100.1z"/>
	<path class="st40" d="M0,96.3c0.5,0.1,1.3,0,1.6,0.3c1.5,1.6,3.5,2.2,5.4,2.9c0.2,0.1,0.3,0.4,0.5,0.6c-2.5,0-5,0-7.5,0
		C0,98.8,0,97.6,0,96.3z"/>
	<path class="st41" d="M125.1,2.9c-1.4-0.5-1.3-1.7-1.3-2.9c0.8,0,1.7,0,2.5,0c0.3,0.6,0.8,1,1.5,1.3c1.6,0.7,2.6,1.9,2.7,3.7
		c-1.7,0.4-2.8-0.3-3.5-1.7C126.5,2.3,125.9,2.1,125.1,2.9z"/>
	<path class="st42" d="M12.6,61.7c-4,1.9-8.2,2.4-12.5,2.1c0-0.4,0-0.8,0-1.3c3.8,0.2,7.5-0.2,11.3-0.8
		C11.7,61.5,12.1,61.4,12.6,61.7z"/>
	<path class="st43" d="M0,72.6c3.4-1.8,7.2-2.2,10.8-3.3c0.5-0.2,1-0.8,1.6-0.5c0.4,0.5-0.1,0.7-0.4,0.9c-0.8,0.5-1.9,0.4-2.5,1.3
		c-0.8,0.3-1.5,0.6-2.4,0.6c-1.9,0-3.6,0.7-5.2,1.7c-0.6,0.4-1.2,1.1-2,0.5C0,73.4,0,73,0,72.6z"/>
	<path class="st44" d="M0,45.5c0-0.6,0-1.1,0-1.7c1.5-0.9,2.6,0.4,3.9,0.5c1.9,1.1,4.1,1.2,6.2,0.9c1.2-0.2,2.3-0.1,3.5,0
		c1,0.1,1.2,0.3,1.2,1.4c-3,0.6-5.9,0.2-8.9,0.3c-0.4,0-0.7-0.1-1.1-0.2C4,46.4,3.2,45.9,2.3,46C1.5,46,0.7,46.1,0,45.5z"/>
	<path class="st45" d="M77.1,99.7c0,0.1,0,0.3,0,0.4c-0.4,0-0.8,0-1.3,0c0.2-5.2,0.8-10.2,2.9-15c0.4-0.3,0.8-0.6,1.2-0.9
		c0.1,0.1,0.1,0.1,0.2,0.2c0.1,0.2,0.1,0.4,0,0.6c-0.2,0.6-0.6,1-0.9,1.5c-0.8,2-1.2,4.1-1.4,6.3C77.8,95.1,77,97.3,77.1,99.7z"/>
	<path class="st46" d="M143.4,23c2.2,0.8,4.5,0.1,6.7,0.8c0,0.8,0,1.7,0,2.5c-1.1-1.3-2.6-1.4-4.2-1.2c-0.8,0.7-1.6,0.2-2.4-0.1
		c-0.5-0.3-0.7-0.8-0.7-1.3C142.9,23.2,143.1,23,143.4,23z"/>
	<path class="st47" d="M8.4,49.2c-3.1-1.6-5.7,0-8.3,1.2c0-0.6,0-1.1,0-1.7c2-1.9,4.4-2,6.9-1.7c0.7,0.2,1.4,0.3,2,0.8
		C9.1,48.5,9.3,49.1,8.4,49.2z"/>
	<path class="st48" d="M3.8,44.6c-1.2-0.5-2.5-0.8-3.8-0.8c0-0.3,0-0.6,0-0.8c1.5-0.2,2.8,0.6,4.2,1c2.9,0.8,5.7,0.7,8.6,0.4
		c1.3-0.1,2.6,0.2,3.9,0.3c0,0.8-0.7,1-1.2,0.9c-2.8-0.5-5.6,0.1-8.4-0.1C6,45.4,4.8,45.3,3.8,44.6z"/>
	<path class="st49" d="M0,73.8c1.3-0.1,2.1-1.1,3.3-1.6c2-0.9,4.2-0.8,6.3-1.3c-0.4,0.3-0.8,0.7-1.2,0.7c-2.9,0.1-5.3,1.2-7.6,2.8
		c-0.2,0.1-0.5,0.1-0.8,0.2C0,74.4,0,74.1,0,73.8z"/>
	<path class="st50" d="M7.1,47.6c-2.5-0.4-4.8,0.3-7.1,1.2c0-0.3,0-0.6,0-0.8c1.5-0.8,2.9-1.7,4.6-1.7c0.3,0,0.5,0,0.8,0
		c0.5,0.4,1.1,0.1,1.7,0.3c0.4,0.2,0.6,0.5,0.5,1C7.5,47.7,7.3,47.7,7.1,47.6z"/>
	<path class="st51" d="M0,45.5c0.8,0,1.7,0,2.5,0c0.5,1.4-0.4,2.2-2.5,2.1C0,46.9,0,46.2,0,45.5z"/>
	<path class="st52" d="M0,47.6c1.2-0.2,2.6-0.3,2.5-2.1c0.9-0.1,1.5,0.3,2.1,0.8C3.2,46.9,1.8,48.1,0,48C0,47.8,0,47.7,0,47.6z"/>
	<path class="st53" d="M21.3,40c-0.4,0.3-0.8,0.6-1.2,0.8c1-3,0.9-6.1,0.8-9.2c0-2.3-0.3-4.5-2.3-6.2c-0.9-0.7-1-1.8-0.3-2.6
		c1.5-1.7,2-3.8,2.8-5.7c0.7-1.6,1.3-2.6,3.2-2.5c2,0.1,2.6,1.5,3.1,2.8c0.8,2-0.2,4.2,0.1,6.3c0.1,1,0.2,2.1,0.4,3
		c0.7,2.8-0.5,5.4-0.6,8.2c-0.2,3.4,0.8,6.1,3.4,8.1c0.7,0.6,1.5,0.8,2.5,0.6c3.7-0.9,7.4-1.5,11.1-2.5c2.3-0.6,4.9,0,7.3,0.6
		c-1.7,1.2-3.6,0.2-5.4,0.7c-0.2,0.1-0.4,0.1-0.7,0.2c-4.1,0.5-8.1,1.7-12.1,2.8c-0.5,0.1-1.1,0.2-1.6,0.2c-0.5,0-1.1-0.1-1.5-0.4
		c-0.7-0.9-1.8-1.5-2.6-2.4c-0.1-0.2-0.2-0.3-0.3-0.5c-0.7-1.5-0.7-3.2-1.2-4.9c-0.1-0.3-0.1-0.7-0.1-1c0-1.9-0.1-3.7,0-5.6
		c0-0.2,0.1-0.4,0.1-0.7c0.6-2,0.3-4,0.3-6c0-1.7-0.4-3.4-0.4-5.1c0-1.1-0.6-1.8-1.7-2c-1.2-0.1-1.9,0.7-2,1.7
		c-0.2,1.5-0.7,2.8-1.4,4.1c-0.6,1.2-0.1,2.1,0.6,3c0.3,0.5,0.4,1.1,0.6,1.7c0,4,0.6,8-0.4,12C21.6,39.7,21.5,39.9,21.3,40z"/>
	<path class="st54" d="M96.7,22.5c0.6-0.4,1.1-0.8,1.7-1.2c0.8,1.8-1,2.3-1.7,3.3c-0.1,0.1-0.3,0.2-0.5,0.3
		c-0.8,0.3-1.5,0.7-2.1,1.3c-0.2,0.2-0.4,0.4-0.6,0.6c-0.8,1.7-1.5,3.5-3.6,4.3c-1,0.4-0.6,1.7-0.7,2.6c0,0.2,0,0.4-0.1,0.6
		c-0.5,2-1.5,3.7-3.8,4.1c-0.4,0.1-0.9,0.1-1.3,0c-1.4-0.4-2.8-1-4.1-1.6c0.8-1.1,1.9-0.5,2.9-0.5c2.7,0,4.4-1.3,4.9-4
		c0.1-0.8,0.3-1.5,0.8-2C91.4,27.7,93.6,24.6,96.7,22.5z"/>
	<path class="st55" d="M52.6,42.1c3.7,0.6,7.4,1.3,11.1,0.4c0.3-0.2,0.7-0.2,1,0c0,0.7-0.6,1-1.1,1.2c-2.9,1.2-5.8,0.2-8.7,0.2
		c-0.8,0-1.6-0.2-2.3-0.5c-0.6-0.3-1.3-0.3-1.8-0.8c-0.1-0.2,0-0.4,0.2-0.6C51.5,41.9,52.1,41.9,52.6,42.1z"/>
	<path class="st56" d="M80.1,36.8c1.6-0.4,2.7,0.8,4.1,1.2c-0.4,2.3-2.7,3.1-4.7,1.7c-0.3-1,0.4-1.8,0.5-2.7
		C80.1,37,80.1,36.9,80.1,36.8z"/>
	<path class="st57" d="M80,37.1c0.1,0.9,0.1,1.8-0.4,2.6c0,1.2-0.9,1.6-1.8,2c-0.3,0.1-0.6,0.2-1,0.2c-1.9,0-3.7-0.4-5.6-0.6
		c-0.2-0.1-0.4-0.2-0.5-0.4c0.7-0.6,1.5-0.4,2.2-0.4C76.1,40.8,78.4,39.7,80,37.1z"/>
	<path class="st57" d="M64.7,42.6c-0.3,0-0.6,0-0.9-0.1c2.2-1.2,4.9-0.5,7.1-1.7c0,0,0.1,0.1,0.1,0.1C70.4,43,68.7,43,67,43.1
		C66.2,43.1,65.3,43.2,64.7,42.6z"/>
	<path class="st58" d="M52.6,42.1c-0.6,0-1.1,0-1.7,0.1c-1.7,0.9-3.3,0.9-5,0c1.9-0.9,3.9-0.2,5.9-0.5C52,41.8,52.3,41.9,52.6,42.1z
		"/>
	<path class="st45" d="M12.5,70.5c2.6-0.8,5.3-1,7.9-1.2c1.8,0.5,1.9,1.7,1.5,3.2c-0.5,1.8-1.3,3.4-0.7,5.4c0.8,2.6,2.5,3.8,5.2,3
		c1-0.3,1.9-0.7,2.8-1.2c2-1.3,4.1-1.6,6.4-1c1.5,0.4,3,0.6,4.4-0.2c3.5-1.5,7-2.7,10.9-1.7c1.6,0.4,3.3,0,4.9-0.4
		c1.5-0.1,2,1,2.6,2c1.1,1.8,2.5,2.6,4.6,2.4c2.9-0.2,5.8-0.6,8.7-0.5c1.5,0,2.5-1.1,3.7-1.8c1.2-0.4,2.4-0.7,3.6-0.9
		c0.8-0.1,1.5,0,2,0.7c0.3,0.5,0.3,1.1,0.2,1.7C81,81,81,82,81,83c-0.1,0.6-0.1,1.2-0.9,1.3c0,0-0.1-0.1-0.1-0.1
		c0.2-1.4-0.2-2.3-1.8-2.1c-2.9,0.3-5.6-1.2-8.6-0.9c-3.5,0.4-7,0.9-10.5,0.1c-0.3-0.1-0.8,0.1-0.9,0.3c-1.1,1.6-2.8,1.7-4.5,2
		c-0.7,0.1-1.2,0.5-1.6,1.2c-1.1,1.8-2.8,2.6-4.8,3c-1.7,0.4-3.1-0.1-4.1-1.6c-0.5-0.8-1.2-1.5-1.8-2.3c-1.1-1.6-0.8-2.4,1.1-2.5
		c1.7-0.1,3.3-1.1,5.1-0.6c0.4,0.1,0.9-0.3,1.2-1c-2.1-0.2-3.9-0.5-5.8,0.4c-1.8,0.8-3.6,1.3-5.7,0.3c-2.5-1.1-5.2-0.8-7.6,0.5
		c-1.7,0.9-3.3,1.6-5.3,1.5c-2.4-0.1-3.7-0.9-4.2-3.2c-0.3-1.4-0.9-2.9-0.6-4.4c0.3-1.6-0.4-2.7-1.9-3.2c-1.8-0.5-3.6-1.8-5.3,0.3
		c-0.9,1.2-2.4,1.6-3.7,2.2c-0.9,0.4-1.9,0.6-2.5,1.4c-1.7,1.8-1.4,4.3,0.8,6c1.5,1.1,3.1,2.1,4.1,3.8c0.2,0.3,0.6,0.6,1,0.7
		c2,0.2,3.4,1.1,4.4,2.9c0.4,0.8,1.6,1.1,2.6,0.4c1.5-1.1,2.7-0.7,4.3,0.3c1.7,1.1,3.5,2.1,5.2,3.2c0.9,0.6,1.9,0.3,2.6-0.6
		c0.7-0.9,1.5-0.8,2.3-0.2c0.3,0.2,0.6,0.5,0.9,0.5c2.7-0.4,4.5,1.7,6.8,2.5c1,0.4,2,0.5,3,0.5c1.6-0.1,0.9,0.6,0.5,1.3
		c-1.6,2.2-3.7,1.8-6.1,1.5c-2.7-0.4-5.4-1.1-8.2-1.1c-1.8,0-3.6-0.7-4.6-2.1c-1.3-1.8-3.1-2.1-5-2.5c-1.6-0.4-3.5-0.2-4.8-1
		c-1.7-1-3.6-1.8-5.2-3c-0.4-0.3-0.9-0.8-0.8-1.4c0.4-2.8-1.7-3.6-3.6-4.6c-1.5-0.8-3.1-1.4-3.1-3.7c0-2.2,1.2-4,3.4-4.7
		C9,73.5,11.2,72.6,12.5,70.5z"/>
	<path class="st59" d="M7.1,78c0.2-1,0.4-2.2,1.7-2.9c1.4-0.7,2.8-1.5,4.1-2.4c1.9-1.3,5.3,0.6,5.5,2.9c0.3,2.5,0.6,4.9,1.6,7.2
		c0.3,0.8,0.9,1.5-0.3,2.1c-0.9,0.5-1.9,1.6-3,0.7c-2.6-1.9-5.7-3-8.2-5.2C7.9,79.7,7.1,79.3,7.1,78z"/>
	<path class="st60" d="M105.9,64.2c1.5-3.5,2.7-7.1,4.6-10.4c1.9-4.5,4.8-8.4,8.2-11.9c0.5-0.5,1.3-0.8,1.9-0.3
		c0.9,0.7,2.5,1,2.1,2.7c-2.5,1.7-3.5,4.4-4.5,7.1c-1.8,4.4-3.8,8.6-5.7,12.9c-0.2,0.4-0.3,0.8-0.4,1.2c-0.6,4.9-1.8,9.7-2.2,14.6
		c-0.1,1.3-0.5,3.1,1,3.5c1.4,0.4,1.5-1.6,1.9-2.5c1.8-4.9,3.9-9.8,5.6-14.8c0.1-0.7,0.2-1.3,0.6-1.8c0.8-0.7,0.7-1.7,1.1-2.6
		c0.4-0.8,0.2-2,1.4-2.2c0.6,0.4,0.8,1,0.8,1.7c-0.5,2.4-1.9,4.5-2.9,6.7c-0.7,0.5-0.9,1.3-0.8,2.1c-1.4,1.9-1.7,4.2-2.5,6.3
		c-1.1,2.9-2.1,5.8-3.1,8.8c-1.3,3.6-2.9,4-5.6,1.5c-0.5-0.1-0.6,0.3-0.7,0.6c-0.4,0.6-0.8,1-1.5,0.4c-0.6-0.6-0.6-1.5,0-1.8
		c2.6-1.3,1.8-3.4,1.7-5.5c0-0.6-0.1-1.3,0.1-1.8c2.2-4.2,1.3-8.9,2.3-13.3c0-0.1,0-0.3,0-0.4c-0.1-0.8,0.4-2-0.6-2.4
		c-0.9-0.3-1.3,0.7-1.8,1.4C106.5,64,106.3,64.2,105.9,64.2z"/>
	<path class="st61" d="M121.7,61.3c-0.1-0.6-0.3-1.1-0.4-1.7c-0.2-0.3-0.3-0.6-0.3-0.9c0.8-1.9,1-3.9,1.1-6c0.2-2.7,1.3-5,3.7-6.6
		c0.3-0.1,0.7-0.1,1,0.2c1.4,0.7,2.5,1.9,4.2,2.1c0.2,0.6,0.3,1.2,0.5,1.8c0.3,0.8,0.1,1.2-0.8,1.1c-1.5-0.1-2,0.8-2.2,2.1
		c-1.4,0.7-1.5,2-1.7,3.3c-0.7,0.8-1.4,1.7-2.1,2.5C123.8,60.1,123.3,61.5,121.7,61.3z"/>
	<path class="st6" d="M121.7,61.3c1.2-0.4,1.9-1.5,2.9-2.1c-1.8,2.9-3.6,5.8-5.4,8.7C119.7,65.6,121,63.6,121.7,61.3z"/>
	<path class="st62" d="M124.3,20.5c-0.5-1.7-1.8-3.2-2.1-5c-0.5-1.2-0.1-2,1-2.6c1.5-0.8,2.4,0.3,3.6,1.5c-0.1-1.9-0.1-3.6,0-5.2
		c0.1-1,0.1-2.2,1.6-2.2c0.5,0.1,0.7,0.5,0.8,1c0.1,0.3,0,0.7-0.2,0.9c-1.3,0.1-1.4,1-1.2,2c0.4,2.4,0.8,4.8,1.4,7.1
		c0.4,1.3-0.4,2.3-0.2,3.4c0.2,0.8-0.3,1.8,0.5,2.6c0.1,0.2,0.1,0.4-0.1,0.5C126.7,24.2,125.4,22.4,124.3,20.5z"/>
	<path class="st63" d="M128.8,8c-0.1-0.3-0.3-0.6-0.4-0.8c-0.9-0.5-1.6-1.2-2.3-1.9c-0.8-0.6-0.6-1.5-1-2.2c0,0,0,0,0,0
		c0.1-0.7,0.2-1.5,1-1.5c0.7-0.1,0.9,0.7,1,1.1c0.5,1.7,1.9,2.1,3.4,2.5c0.3,0.7,0.5,1.4,0.8,2.1c0.3,0.5,0.7,0.9,0.9,1.4
		c0.3,0.6,0.5,1.3,0.7,2c0.3,1.9-0.5,2.6-2.5,2.1c-0.3-0.2-0.4-0.5-0.4-0.9C129.7,10.4,129.6,9.1,128.8,8z"/>
	<path class="st64" d="M130.5,12.6c2.3-0.2,2.4-0.5,1.7-2.7c-0.2-0.5-0.3-1-0.4-1.6c2,0.3,1.3,2.3,2.1,3.3c2,2.2,0.4,4.3-0.4,6.4
		c-0.2,0.4-0.6,1-1.2,0.9c-0.7-0.1-0.4-0.8-0.5-1.2C131.3,16.1,130.9,14.3,130.5,12.6z"/>
	<path class="st65" d="M129.7,23.4c0.4-0.6,1.3-0.9,1.8-0.8c2.9,0.8,4.5-0.6,5.8-2.8c0.1-0.2,0.4-0.4,0.6-0.4c0.4,0,0.4,0.4,0.5,0.8
		c0.1,1.4-0.4,2.7-0.8,4c-0.1,0.1-0.2,0.1-0.2,0.2c-1.3,0.3-2.5-0.3-3.8-0.2C132.3,23.9,130.9,24.4,129.7,23.4z"/>
	<path class="st66" d="M143.4,23c-0.1,0.2-0.3,0.3-0.4,0.5c-0.3,0.5-0.7,0.8-1.3,0.4c-0.4-1-0.9-1.8-1.9-2.2c-1.7-0.8-0.7-2.9-1.8-4
		C139.9,19.3,142.8,20,143.4,23z"/>
	<path class="st67" d="M141.7,23.8c0.4-0.1,0.8-0.3,1.3-0.4c0.1,0.4,0.3,0.8,0.4,1.2c0.1,0.2,0.1,0.4-0.1,0.6
		c-1.7,1.2-3.5,0.7-5.2,0.3c-0.2-0.1-0.4-0.2-0.6-0.3c-0.2-0.3-0.2-0.6,0-0.9c0,0,0.1-0.1,0.1-0.1C139,24.2,140.4,24.3,141.7,23.8z"
		/>
	<path class="st68" d="M129.7,23.4c1.4,0.3,2.8-0.2,4.1,0.4c0.3,0.3,0.2,0.6,0,1c-1.5,0.7-3.2,0.5-4.7,1.1c-1.2,0.1-2.4,0.4-3.5-0.2
		c-0.5-0.6,0.1-0.8,0.4-1c1-0.5,2.2,0.3,3.1-0.5c0-0.1,0-0.3,0.1-0.4C129.4,23.7,129.6,23.5,129.7,23.4z"/>
	<path class="st69" d="M133.8,11.7c-1.2-0.8-0.8-2.6-2.1-3.3c-0.1-0.4-0.3-0.8-0.4-1.2c0.2,0.2,0.4,0.4,0.7,0.4
		C134.1,8.3,134.6,9.7,133.8,11.7z"/>
	<path class="st70" d="M128.8,8c1.5,0.9,1.2,2.4,1.3,3.7c-0.6-0.9-1-1.9-1.2-2.9C128.8,8.5,128.8,8.3,128.8,8z"/>
	<path class="st71" d="M75.5,78.8c-1,1.4-2.4,2.3-4.2,2.1c-3-0.3-6,0.5-9.1,0.4c-1.8,0-3.1-0.7-3.9-2.3c-0.6-1.1-1.4-2.1-2.4-2.7
		c-0.1-0.6,0.1-1.1,0.4-1.7c1.4-2.1,0.7-4.3,0.5-6.5c-0.1-0.7-0.3-1.5,0.1-2.2c0.1-0.2,0.3-0.3,0.6-0.2c1.1,0.9,1.1,2.2,1.3,3.4
		c0.2,1.1,0.3,2.2,0.7,3.3c0.3,1,0.8,1.8,1.9,2c1.1,0.2,1.8-0.5,2.3-1.4c0.3-0.5,0.6-1.1,0.9-1.6c0.4-0.7,0.7-1.4,1.6-1.4
		c0.9,0.1,1.2,0.8,1.5,1.5c0.1,0.3,0.2,0.5,0.4,0.7c2,3.2,3.1,3.3,5.1,0.2c0.2-0.1,0.4-0.1,0.6,0c0.6,0.9,0.5,1.9,0,2.7
		c-0.8,1.3-0.5,2.1,0.8,2.8C75,78.2,75.3,78.5,75.5,78.8z"/>
	<path class="st49" d="M12.1,69.6c0.1-0.3,0.3-0.5,0.4-0.8c2.6-1.7,5.7-1.5,8.6-2c1.1-0.2,2.3-0.6,3.5-0.6c2.3,0.1,3.2,1.3,2.4,3.5
		c-0.5,1.3-0.7,2.7-1.1,4c-0.3,1.1,0.2,2.2,1.5,1.6c3.8-1.7,7.5,0.1,11.2,0.1c0.5,0.1,0.9,0.4,1.1,0.8c-1.4,0.7-2.9,0.9-4.3,0.4
		c-2.8-1.1-5.1-0.3-7.4,1.2c-0.7,0.5-1.5,0.8-2.3,0.9c-1.8,0.2-3-1.5-2.6-3.5c0.3-1.7,0.8-3.3,1.3-5c0.7-1.9-0.2-2.2-1.9-2.3
		C18.9,67.7,15.6,69.1,12.1,69.6z"/>
	<path class="st11" d="M40.1,78.4c-1.1,1.2-2.6,1-3.9,0.7c-2.6-0.6-5-0.4-7.3,1.3c-0.5,0.4-1.1,0.6-1.7,0.8
		c-1.7,0.6-3.5,1.1-4.8-0.4c-1.5-1.6-2.2-3.6-1.7-5.9c0.2-0.8,0.5-1.6,0.8-2.4c0.5-1.4,0.3-2.6-1-3.4c2,0.2,2.4,0.7,2,2.8
		c-0.3,1.3-1.1,2.7-1,4c0.2,4.9,4,5.2,6.8,3.6c2.7-1.5,5.4-2.1,8.3-1.2C37.8,78.8,38.9,78.4,40.1,78.4z"/>
	<path class="st72" d="M39.6,76.3c-0.3,0-0.7-0.1-0.8-0.4c0.9-0.9,2.5-0.2,3.4-1.3c1.1-0.6,2.3-0.9,3.6-0.9c3.1,0,6.2,0,9.3-0.4
		c0.4,0.5,0.3,0.9,0,1.4c-1.6,1.6-4,1.2-5.5,0.8c-2.3-0.6-4.1,0.4-6.1,0.6C42.2,76.2,40.9,76.4,39.6,76.3z"/>
	<path class="st73" d="M55.1,74.7c0-0.4,0-0.8,0-1.2c-0.1-0.2-0.2-0.4-0.1-0.6c1-1.6,1.4-3.4,1.3-5.4c-0.1-0.8-0.1-1.5,0.3-2.2
		c0.1-0.2,0.3-0.3,0.6-0.2c0.3,0.3,0.3,0.6,0.1,0.9c0.1,1.8,0,3.6,0.5,5.3c0.5,1.7,0,2.6-1.4,3.4C55.9,74.7,55.5,74.7,55.1,74.7z"/>
	<path class="st74" d="M143.4,25c0-0.1,0-0.3,0-0.4c0.8,0.1,1.7,0.3,2.5,0.4c0.4,0.6,1.2,0.2,1.7,0.5c0.9,0.5,1.7,1.2,0.7,2.2
		c-0.7,0.7-1,1.6-1.3,2.5c-0.6,1.8-1.6,3.2-3.5,4.1c-3.2,1.7-5.2,4.6-7.6,7.2c-1.5,1.7-3.2,3.2-4.7,4.9c-0.5,0.5-1,0.5-1.7,0.3
		c-0.9-0.3-1.9-0.4-2.8-0.6c-0.3,0-0.6,0-0.8,0c-0.1,0-0.2,0-0.2,0c-0.8-2.2-2.4-3.9-3.1-6.1c0-0.2,0.1-0.4,0.2-0.6
		c1.6-0.3,2.8,1,4.2,1.4c0.8,0.2,1.5,0.4,2-0.4c2.9-4.5,8-6,12.2-8.8c2-1.3,3.1-2.9,2.7-5.3C143.9,26,143.6,25.6,143.4,25z"/>
	<path class="st75" d="M5.7,51.3c-0.2,0,0-0.1,0.2,0c2.9,1.9,6.1,0.5,9.2,0.8c0.7,0.1,1.6-0.2,2,0.8c0.3,0.9-0.5,1.4-1.1,1.8
		c-1,0.6-1.6,1.4-2,2.5c-0.5,1.4-1.6,2.2-3.1,2.4c-1.7,0.2-3.4,0.5-5.1,0.7c-0.9,0.1-1.8-0.2-2.4-1c-0.7-1,0.4-1.3,0.7-1.9
		c0.5-1.1,1.2-2.1-0.2-3.1c-0.6-0.5-1.8-0.9-1.3-2C3,51.2,4.2,51.3,5.7,51.3z"/>
	<path class="st76" d="M123,40.1c0.1,0.4,0.1,0.9,0.4,1.1c1.4,1.4,2.1,3.2,2.5,5.1c-2.6,2.5-3.7,5.5-3.3,9.1
		c0.1,1.3-0.8,2.3-1.2,3.4c-1.5,1.7-1.1,4-2.1,5.8c-0.6,0.4-0.4,1.1-0.4,1.7c-0.5,0.3-0.3,1.6-1.5,1.1c-0.4-1,0-1.9,0.3-2.8
		c0.9-2.4,1-4.9,1.7-7.3c0.3-1.2-0.1-2.2-1-3c1.2-3.5,1.1-7.4,4.2-10.1c-0.2-1.4-1.7-1.6-2.6-2.4c-0.4-0.4-0.9,0.4-1.2,0.8
		c-3,2.9-5.3,6.3-7.2,10c-0.3,0.5-0.5,1-1.1,1.2c-0.1,0-0.3,0-0.4,0c-0.2-0.1-0.3-0.3-0.3-0.5c0.1-2.1,1.7-3.6,2.5-5.4
		c1.2-2.9,2.6-5.6,4.9-7.9C119.5,37.5,120.6,37.4,123,40.1z"/>
	<path class="st77" d="M89.6,93.4c-0.3,0.4-0.5,0.8-0.8,1.1c-0.8,1.3-1.4,1.1-1.7-0.3c2.4-2.5,3.1-6,4.7-8.9c1.7-2.8,2.2-6,3.6-8.9
		c0.6-1,1.4-1.9,2.1-2.9c0.5-0.5,0.8-1.3,1.7-1c0.2,0.3,0.1,0.6-0.1,0.8c-1.4,2.7-2.9,5.2-4.1,8C93.5,85.5,91.5,89.4,89.6,93.4z"/>
	<path class="st78" d="M99.2,73.4c0-0.3,0-0.5,0-0.8c-0.3-0.5,0-1,0.2-1.5c0.6-0.8,1-1.6,1.3-2.5c1.7-4.5,4.1-8.6,6.4-12.7
		c0.7-0.7,1-1.7,1.8-2.3c0.3-0.2,0.7-0.4,1.1-0.2c0,0.1,0,0.3,0,0.4c-2.2,2.6-2.9,6.1-4.6,8.9C103.3,66.3,102,70.3,99.2,73.4z"/>
	<path class="st79" d="M114.7,12.9c0.1,0.2,0.2,0.3,0.4,0.5c0.2,1.6,1,2.9,1.4,4.4c0.3,1.1,0.5,2.2,0.4,3.4c-0.1,0.4-0.2,0.8-0.7,1
		c-0.8-1.2-2.4-1.3-3.4-2.2c-0.4-0.8-0.9-1.6-1-2.5c0-1.1,1.1-1.8,1.2-2.8C113.2,13.7,113.7,13.1,114.7,12.9z"/>
	<path class="st80" d="M113,14.7c0.4,1.1-0.7,1.9-0.8,2.9c-0.5,1.1-1.4,1.4-2.5,1.4c-0.9,0-1.8-0.1-2.6,0.2
		c-0.4,0.1-0.8,0.2-1.2,0.2c-0.4,0-0.8,0.2-1,0.4c-0.8,0.9-1.5,1.9-2.5,2.8c-1,0.9-2.1,1.3-3.4,0.6c-0.3-0.5,0-0.8,0.3-1
		c1.7-0.8,2.9-2.5,4.6-3.3c0.9-0.6,2-0.7,3-0.7C109.6,18.2,111.5,16.8,113,14.7z"/>
	<path class="st81" d="M103.8,18.8c-1.4,1.7-3,3.1-5,4.2c0,0.4-0.3,0.6-0.5,0.9c-0.2,0.2-0.4,0.4-0.6,0.6c-0.2,0.2-0.4,0.3-0.7,0.4
		c-0.3,0.1-0.5,0-0.7-0.2c0.5-1.3,2.2-1.7,2.1-3.3C100.1,20.1,101.8,19.1,103.8,18.8z"/>
	<path class="st82" d="M8.4,49.2c0.5-0.3,0.4-0.8,0.4-1.2c3.1-0.4,6.2-1.2,9.2,0.6c1.4,0.8,2.5,2,3.5,3.3c1.3,1.7,0.5,5.1-1.6,5.8
		C18,58.3,16.3,59,14.6,60c-0.7,0.6-1.4,1.1-2.1,1.7c-0.4,0-0.8,0-1.3,0c2.4-1.8,4.6-3.9,7.1-5.7c2.2-1.7,1.9-3.6-0.4-5.2
		c-2-1.4-3.8-1.9-6.1-1C10.8,50.3,9.4,50.2,8.4,49.2z"/>
	<path class="st83" d="M42.1,75.1c-0.8,1.4-2.2,0.6-3.3,0.8c-2-0.1-3.9,0.1-5.9-0.7c-1.8-0.7-3.6,0.4-5.4,0.8
		c-2.1,0.4-3.1-0.4-2.3-2.3c0.7-1.6,0.4-3.4,1.6-4.8c0.6-0.7,0.2-1.3-0.5-1.7c-1-0.6-2.1-0.5-3.2-0.3c-3.5,0.5-7.1,0.9-10.5,1.9
		c-0.6,0.1-1.1,0.3-1.7,0.4c1.3-1.5,3.2-1.7,5-2c2.1-0.4,4.1-0.9,6.3-0.9c1.6-0.4,3.3-0.3,4.8-1.2c0.8-0.5,2-0.3,2.7,0.6
		c0.7,0.8,0.3,1.7-0.2,2.5c-0.6,1-1.3,2-1.5,3.2c-0.3,1.2,0,2.1,1.5,1.9c1-0.1,1.9-0.1,2.9,0.2c2.2,0.8,4.5,1.1,6.9,1
		C40.2,74.5,41.3,74.2,42.1,75.1z"/>
	<path class="st84" d="M32.1,73.8c-1,0-2-0.2-2.9,0c-2.1,0.5-2.2-0.7-2.1-2.2c0.2-1.3,0.9-2.4,1.7-3.5c0.4-0.7,1.2-1.4,0.5-2.2
		c-0.7-0.8-1.8-0.7-2.5-0.3c-1.5,0.7-3.1,0.8-4.7,0.7c2.9-0.4,5.1-3,8.3-2.5c1.5,1.6,1.6,2.8,0.4,4.6c-1.5,2.3-1.2,3.4,1.4,4.4
		c0.6,0.2,1.6,0,1.4,1.2C33.2,74.1,32.6,74.1,32.1,73.8z"/>
	<path class="st85" d="M33.8,73.8c-1.2-0.6-2.6-0.6-3.7-1.6c-1-1-1.5-2.2-0.4-3.2c1.8-1.6,1.6-3.3,0.7-5.2c-1.1-2.4,0.6-4.2,1.3-6.3
		c0.4,0.3,0.5,0.7,0.5,1.2c-0.3,1.9-0.8,3.7,0.3,5.6c0.6,1-0.1,2.3-0.4,3.4c-0.8,2.7-0.3,3.6,2.3,4.5c1.9,1,4,1.2,6,0.9
		c0.6-0.1,1.2-0.3,1.8,0.2c-0.1,1.1-1,1.3-1.8,1.4C38.2,74.9,35.9,74.9,33.8,73.8z"/>
	<path class="st86" d="M25.1,58c-1.2-0.4-2.3-0.9-3.3,0.3c-0.4,0.6-0.9,0.5-1.4,0.4c-0.7-0.6,0-0.9,0.3-1.2c2.6-2.4,2.7-3.6,0.3-6.1
		c-0.3-0.4-0.7-0.7-0.5-1.2c1.1-0.6,1.8,0.3,2.5,0.8c2.3,1.5,2.3,1.5,4.4-0.2c1.4-1.1,2.6-0.5,3.6,1.8c0,0.3-0.1,0.6-0.5,0.5
		c-0.1,0-0.3,0-0.4,0c-0.9,0.4-1.9,0-2.9,0.6C25.5,54.8,24.7,56,25.1,58z"/>
	<path class="st87" d="M30.9,56.3c0.3,1.3-1,2.1-0.9,3.4c-2.1,0.4-4.4-1.6-4.1-3.5c0.2-1.3,0.8-2.5,2.2-2.6
		C29.9,53.4,30.7,54.7,30.9,56.3z"/>
	<path class="st88" d="M30.9,56.3c-0.3-0.5-0.6-1.1-1-1.5c-0.6-0.6-1.4-1.3-2.1-0.7c-0.8,0.6-1.8,1.5-1.3,2.8
		c0.6,1.6,1.4,3.2,3.6,2.9c-1,0.8-2,0.9-2.8-0.3c-0.4-0.6-1-0.9-1.7-1c-0.2-0.1-0.3-0.3-0.5-0.4c-0.1-1.1-1.8-2.2-0.3-3.1
		c1.6-0.9,2.8-3.5,5.3-1.9C30.1,54.1,31.7,54.9,30.9,56.3z"/>
	<path class="st89" d="M30.4,53c0.1-0.1,0.3-0.3,0.4-0.4c0.1,0,0.2-0.1,0.3-0.1c0.7,0.1,1.2,0.7,1.8,1.1c0.2,0.2,0.3,0.3,0.4,0.5
		c0.3,0.9,0.2,1.7,0,2.6c-0.4,0.8-0.3,2-1.6,2.2c0-0.4,0-0.8,0-1.3C31.9,55.9,31.5,54.3,30.4,53z"/>
	<path class="st90" d="M20.5,50.1c0.2,0.3,0.4,0.6,0.6,0.8c3,2.5,2.8,5.1-0.6,7.1c-0.2,0.1-0.3,0.3-0.4,0.4C20,58.7,19.8,59,19.6,59
		c-1.9,0.2-3.1,1.3-4.1,2.7c-0.8-0.1-1.2,1-2,0.9c0.3-0.9,1.5-1.4,1.2-2.6c0.9-1.7,2.6-2.1,4.3-2.6c2.9-0.9,3.6-3.8,1.5-6
		c-2.2-2.4-4.6-4.1-8.2-3.1c-1.1,0.3-2.3-0.6-3.5-0.3c-0.6-0.1-1.2,0.1-1.7-0.4c0.2,0,0.3,0,0.5,0C8,47.1,8.5,47,9.1,47
		c2.9,0.1,5.9-0.4,8.8,0.1C19.2,47.7,20.3,48.5,20.5,50.1z"/>
	<path class="st91" d="M22.6,58.4c1.6,0.3,1.5,2,2.3,3c0.5,0.6-0.4,1.2-1.1,1.4c-1.9,0.8-3.9,0.8-5.9,1.1c-0.5,0.1-1,0.1-1.5,0
		c-0.7,0-1.5,1.2-1.9,0.2c-0.3-0.7,0.6-1.4,1.3-1.9C18.2,61.1,20.1,59.3,22.6,58.4L22.6,58.4z"/>
	<path class="st92" d="M22.6,58.4c-2.1,1.5-3.9,3.5-6.7,3.7c-0.1-0.2-0.3-0.3-0.4-0.5c0.1-3.1,2.7-2.7,4.6-3.3
		c0.6,0,1.1-0.1,1.7-0.1C22,58.3,22.3,58.4,22.6,58.4z"/>
	<path class="st93" d="M116.4,21.3c0.2-2.2-0.9-4.2-1.3-6.2c-0.1-0.6-0.7-1.1,0-1.6c0.2,0.1,0.3,0.3,0.5,0.4c0,0.7,0.4,1.1,1.1,1.3
		c0.6,0.1,1.1,0.5,1.2,1c0.4,2,1.9,3.2,3.2,4.5c1.7,1.7,1.6,1.9,3.2-0.1c1,1.2,2.6,1.9,3.5,3.2c0.4,0.5,0.9,0.5,1.4,0.5
		c-0.6,1.4-1.9,0.7-2.9,0.8c-0.7-0.5-1.6-0.6-2.2-0.4c-2.6,1.2-4.5-0.7-6.6-1.4C116.6,23,116.7,22,116.4,21.3z"/>
	<path class="st70" d="M126.3,5c0.8,0.5,1.6,1.2,2.1,2.1c-0.9,0-1.2,0.6-1.2,1.4c0,1.8,0,3.6,0.1,5.4c0,0.5,0.6,1.1-0.1,1.4
		c-0.8,0.3-1.1-0.4-1.3-1c-0.4-0.9-1.1-1.6-2.1-1.2c-1,0.3-1.8,1.1-1.5,2.4c-0.6-1.3-0.7-2.8-0.8-4.2C122.7,8.9,124.6,7.1,126.3,5z"
		/>
	<path class="st94" d="M126.3,5c-0.4,1.9-1.7,3.2-3.2,4.3c-0.6,0.4-0.5,0.9-0.5,1.4c-0.1,1.1-0.6,0.9-1.3,0.6
		c-0.6-2.8-0.8-5.6,0-8.3c0,1.2,0,2.3,0,3.5c0,0.5,0.3,1.3,0.7,0.8c1-1.4,3.4-1.9,3-4.3C125.5,3.7,125.9,4.4,126.3,5z"/>
	<path class="st95" d="M21.3,40c0-0.1,0.1-0.3,0.1-0.4c0.4-0.5,0.6-1,0.6-1.5c0-3.7,0.3-7.3-0.2-11c-0.5-0.3-0.4-0.8-0.4-1.2
		c-0.2-0.4-0.4-0.8,0-1.3c1.4-0.2,1.3,1,1.7,1.8c0.1,0.2,0.1,0.5,0.1,0.7c0.1,3.9,0,7.9,0,11.8c0,1.1-0.1,2.1-0.7,3
		c-1.8,2-3.7,4-6.5,4.6c-0.3,0-0.6,0-0.9-0.3c-1.4-1-3.1-0.7-4.7-0.6c-2.3,0.2-4.6,0.5-6.6-1.1c4,0.9,8,0.2,12,0.4
		c0.3,0,0.6-0.3,0.9-0.4C18.9,43.7,21,42.8,21.3,40z"/>
	<path class="st96" d="M85.1,91.3c-0.8,0.4-1.7,0.8-2.5,1.3c-0.4,0.3-0.8,0.3-0.8-0.3c0-0.7,0.7-1,1.2-1.3c-0.8,0.5-1.6,1-2.7,0.9
		c-0.7,0-1.7,0.1-2-0.7c-0.3-0.9,0.5-1.3,1.2-1.7c0.8-0.4,1.6-0.6,2.4-0.7c2.2-0.5,4-1.8,6-2.6c0.2,0,0.4,0.1,0.6,0.2
		c-0.3,1.6-1.2,3.1-1.3,4.7C86.5,91.3,85.7,90.9,85.1,91.3z"/>
	<path class="st97" d="M79.7,89.7c-0.2,0.5-1.3,0.5-1,1.3c0.3,0.6,1,0.2,1.5,0.3c1.1,0.2,1.9-0.5,2.8-0.7c0.5,0.9-1.7,0.9-0.4,2
		c0,0.1,0,0.3,0,0.4c-0.8,0.5-1.5,1.1-1.7,2.1c-0.3,0.4-0.5,0.8-0.9,1.1c-0.4,0.4-0.8,1.1-1.5,0.6c-0.6-0.5-0.2-1.1,0.1-1.7
		c0.3-0.7,0.9-1.2,1.1-2c-0.6-0.8-1.6,0.1-2.3-0.5c0.3-2.3,0.6-4.6,1.7-6.7C81.3,86.9,80.1,88.3,79.7,89.7z"/>
	<path class="st98" d="M85.1,91.3c0.6-0.6,1.4-0.3,2.1-0.4c1.7-0.7,2.7-2,3.2-3.8c0.2-0.8,0.6-1.6,1.6-1.7c0.1,0,0.2,0.1,0.3,0.1
		c-1,2.4-1.9,5-3.3,7.3c-0.4,0.7-0.8,1.4-1.8,1.5c-0.3-0.5-1-0.7-0.7-1.6C87.1,91.1,86,91.3,85.1,91.3z"/>
	<path class="st99" d="M85.5,93.4c-1.1,0.5-2.1,1.6-3.5,1.5c-0.2-1,0.8-1.2,1-1.9c0.5-0.3,1-0.6,1.5-0.8c0.4-0.2,0.9-0.7,1.3-0.2
		C86.1,92.5,85.7,93,85.5,93.4z"/>
	<path class="st100" d="M77.4,92.5c0.3-0.1,0.5-0.2,0.8-0.3c0.8-0.1,1.9-0.5,2.4,0.2c0.5,0.7-0.7,1.2-1,1.8c-0.3,0.7-1,1.3-1.1,2.3
		c1.2,0,1.5-1.2,2.4-1.5c-0.5,1.5-1.6,2.5-2.9,3.2c-0.7,0.4-0.8,0.8-0.9,1.4C76.3,97.3,77.1,94.9,77.4,92.5z"/>
	<path class="st101" d="M15.1,46.3c0.3,0,0.6,0,0.8,0c1.9-0.1,3.1-1.4,4.7-2.2c0.1,0,0.2,0,0.3,0c0.1,0.2,0.2,0.3,0.2,0.6
		c-0.1,0.8-0.8,1.3-1.4,1.7c-0.6,0.4-1.2,0.7-1.9,0.7c-2.7-0.2-5.5,0-8.2,0c-0.8,0-1.7,0.1-2.4-0.4c-0.6-0.1-1.2,0.2-1.7-0.4
		C8.7,46.3,11.9,46.3,15.1,46.3z"/>
	<path class="st102" d="M79.7,89.7c-0.3-0.2-0.8-0.6-0.6-0.7c1.5-1,0.7-2,0.1-3.1c0.3-0.4,0.7-0.8,1-1.2c2.2-1.8,5-2.3,7.3-3.9
		c0.8,0.2,1.6,0.4,2.3,0.9c0.1,0.2,0.2,0.4,0.2,0.6c-0.3,1.4,0.2,3.1-1.6,4c-0.1,0-0.3,0-0.4,0c-0.6-0.6,0.4-1.9-0.7-2.1
		c-0.9-0.2-1.6,0.7-2.3,1.2c-1.2,1-2,2.4-2.8,3.8C81.3,89.3,80.5,89.5,79.7,89.7z"/>
	<path class="st103" d="M87.5,80.9c-0.7,1.3-2.1,1.7-3.3,2.3c-1.3,0.6-2.7,1-4,1.5c0-0.1,0-0.3,0-0.4c0.5-0.3,0.3-0.9,0.4-1.3
		c0.6-1.1,1.8-1.2,2.8-1.6c0.8-0.3,1.6-0.8,2.3-1.4c-0.3-0.2-0.5,0-0.8,0c-0.6,0-1.4,0.1-1.5-0.7c-0.2-0.8,0.7-0.9,1.2-1.1
		c0.3-0.1,0.5-0.2,0.8-0.3c2.1-0.6,4.2-0.8,6.3-0.9c0.3,0,0.6,0,0.8,0c0.8,0.1,1.9-0.1,1.9,1.1c0,1.1-0.9,1.7-1.9,1.9
		c-1.1,0.3-2.4-0.2-3.5,0.4C88.6,80.6,88.1,80.9,87.5,80.9z"/>
	<path class="st86" d="M7.1,46.7c3.7,0,7.5,0,11.2,0c0.3,0.3,0.2,0.6,0,0.9c-3.6-0.4-7.2,0.1-10.8,0C7.4,47.3,7.3,47,7.1,46.7z"/>
	<path class="st104" d="M45.9,42.1c1.7,0,3.3,0,5,0c0,0.1,0,0.2,0,0.4c-3.3,1-6.7,1.8-10.1,2.3c-0.9,0.1-1.8,0.1-2.4,0.9
		c-0.5,0.4-1.1,0.8-1.8,1.1c-4.5,1.5-7.7,0.7-10.3-2.6c-0.6-1.2-0.9-2.5-0.9-3.8c-0.1-4.1-0.3-8.1,0.1-12.2c0.4-1.4,0.2-2.8,0.1-4.2
		c-0.1-1-0.8-2.4,0.9-3c0.5,3,0.8,6.1,0.3,9.1c0,0.1,0,0.3,0,0.4c-0.4,2.1-0.3,4.2,0,6.3c0,0.3,0,0.5,0,0.8c0.4,1.7,0.1,3.5,1.2,5
		l0,0c0.5,1.1,1.6,1.4,2.5,2.1c0.3,0.5,0.8,0.4,1.3,0.4c1.6,0.6,3.2,0,4.6-0.5C39.4,43.4,42.7,43.1,45.9,42.1L45.9,42.1z"/>
	<path class="st58" d="M26.7,30.1c0.1-3.1-0.1-6.1-0.4-9.2c-0.2-0.2-0.4-0.4-0.5-0.7c-0.3-0.8-0.6-1.6-1.6-1.6c-1.2,0-1.1,1-1.2,1.8
		c-0.2,0.8-0.5,1.6-0.8,2.3c-0.4,0.6-0.3,1.4-0.8,1.9c0,0.4,0,0.8,0,1.3c-1.4-0.8-1.5-2-0.8-3.4c0.6-1.2,1.2-2.4,1.3-3.9
		c0.1-1.1,0.7-2.3,2.2-2.4c1.4,0,2.6,0.7,2.7,2.1c0.2,3.7,0.8,7.4,0.5,11.1C27,29.7,26.8,29.9,26.7,30.1z"/>
	<path class="st58" d="M45.9,42.1c-1.2,1.1-2.9,0.8-4.3,1.2c-2.7,0.7-5.3,1.9-8.1,2.1c-0.6,0-1.2,0.3-1.7-0.3
		c4.1-0.4,7.9-2.3,11.9-2.7C44.4,42.3,45.1,42.2,45.9,42.1z"/>
	<path class="st105" d="M21.7,27.2c0.8,0.7,0.4,1.6,0.4,2.3c0.1,2.8,0,5.5,0,8.3c0,0.7,0.3,1.6-0.8,1.9
		C22.1,35.5,21.6,31.3,21.7,27.2z"/>
	<path class="st58" d="M26.7,36.7c-0.6-2.1-0.7-4.2,0-6.3C26.7,32.6,26.7,34.6,26.7,36.7z"/>
	<path class="st58" d="M28,42.5c-1.5-1.4-1.3-3.2-1.2-5C27.2,39.2,27.6,40.9,28,42.5z"/>
	<path class="st58" d="M30.5,44.6c-1.2-0.3-2.3-0.7-2.5-2.1C28.8,43.2,30,43.6,30.5,44.6z"/>
	<path class="st106" d="M85.5,38c2.1-0.4,2.7-2,3.4-3.7c0.5-0.1,0.7,0.3,1,0.6c1.1,0.8,2.5,0.9,3.8,1c1.7,0,2.8,0.9,3.3,2.3
		c0.5,1.5,0,2.9-1.3,3.8c-1.7,0.4-3.4,0.3-5.2,0.1c-0.3-0.1-0.6-0.2-0.7-0.4c-1-1.5-2.3-1.5-3.8-0.9C84.4,40.1,84.3,39.8,85.5,38z"
		/>
	<path class="st107" d="M96.4,24.6c0.2,0,0.5-0.1,0.7-0.1c0.1,0.1,0.2,0.3,0.2,0.5c-0.6,1-0.7,1.9,0.2,2.7c0.5,0.5,0.9,1,1,1.8
		c0,1.3-0.2,2.5-1.4,3.3c-1.4,0.5-2.8,0.2-4.3,0.2c-0.4,0-0.7-0.1-1-0.3c-1-1-1.1-2,0-3c1.1-0.9,1-2.4,1.6-3.5
		c0.2-0.1,0.3-0.3,0.5-0.4C94.7,25.6,95.5,25.1,96.4,24.6L96.4,24.6z"/>
	<path class="st108" d="M85.5,38c0.4,0.8-1.6,2.3,0.7,2.5c0.1,0.8-0.6,1.1-1.2,1.2c-2.3,0.2-4.4,1-6.6,1.5c-0.3,0.1-0.5,0-0.8-0.1
		c-0.6-0.7-0.1-1.3,0.3-1.8c0.6-0.5,1.1-1.1,1.7-1.6c2,0.8,3.6,0.2,4.6-1.7C84.7,38,85.1,38,85.5,38z"/>
	<path class="st109" d="M89.3,35.1c-0.1-0.3-0.2-0.5-0.3-0.8c0-0.2,0-0.3,0.1-0.5c0.7-0.7,1.6-0.8,2.5-0.7c1.6,0.5,3.2,0.9,4.8,1.1
		c1.9,0.3,3.5,1.3,4.4,3.1c0.4,0.8,0.4,1.6-0.1,2.4c-0.4,0.3-0.9,0.3-1.3,0c-1.3-3.1-3.6-4.5-7-4.2C91.3,35.6,90.2,35.6,89.3,35.1z"
		/>
	<path class="st110" d="M91.3,33.4c-0.8,0.1-1.6,0.3-2.3,0.4c-0.4-1.8-0.4-3.2,1.9-3.8c1-0.3,1.5-1.2,1.7-2.2
		c0.1-0.6,0.1-1.3,0.9-1.5c0.1,1.3-0.1,2.5-1.1,3.4c-1.1,0.9-1,1.8-0.6,2.9C92,33,92.1,33.4,91.3,33.4z"/>
	<path class="st81" d="M96.3,24.7c-0.5,1-1.4,1.3-2.4,1.2C94.6,25.2,95.2,24.5,96.3,24.7z"/>
	<path class="st111" d="M54.6,43.4c3.1-0.1,6.1,0.8,9.2-0.1c3.2-0.8,4,0,3.5,3.9c-0.9,1.2-2.2,0.8-3.4,0.8c-2.1-0.1-4.1-0.7-6.1-1.2
		c-1-0.3-2-0.6-3-1c-0.8-0.5-0.3-1.3-0.4-1.9C54.5,43.7,54.5,43.6,54.6,43.4z"/>
	<path class="st112" d="M54.6,43.4c0,0.1,0,0.3,0,0.4c-2.5,2.7-5.7,3.3-9,2.2c-1.8-0.6-3.8-0.6-5.6,0.2c-1.1,0.5-2.2,1-3.3,0
		c0.4-0.3,0.8-0.5,1.2-0.8c3.1-1,6.1-2.1,9.5-1.2c1.8,0.4,3.5-0.4,5.1-1.3C53.2,43.1,53.9,43.3,54.6,43.4z"/>
	<path class="st113" d="M52.6,42.9c-1.5,2-4.4,2.6-6.4,1.3c-0.7-0.5-1.3-0.2-1.9,0c-2.1,0.5-4.1,0.9-6.2,1.3
		c0.3-0.6,0.7-1.2,1.4-1.1c4,0.2,7.6-2,11.5-1.8C51.5,42.6,52.1,42.4,52.6,42.9z"/>
	<path class="st114" d="M67.1,47.1c-0.1-0.2-0.2-0.4-0.2-0.6c0-3.1,0-3.1-3.1-3.2c0.3-0.3,0.6-0.5,0.9-0.8c0.8,0,1.7,0,2.5,0.1
		c0.6,0.3,1.3-0.1,1.8,0.4c0.6,1.7-0.4,2.9-1.2,4.1C67.5,47.3,67.3,47.3,67.1,47.1z"/>
	<path class="st115" d="M78,41.3c0.1,0.6-0.1,1.2-0.4,1.7c-0.1,1.1-1.2,0.9-1.8,1.2c-1.1,0.7-2.6,0.9-2.7,2.7c0,0.3-0.1,0.6-0.3,0.9
		c-1.5,0.8-2-0.4-2.6-1.3c-0.4-0.7-0.3-1.4-0.2-2.2c0.9-2.3,2.5-3.3,4.8-2.9c0.8,0.1,1.6,0.3,2.4-0.1C77.4,41.3,77.7,41.3,78,41.3z"
		/>
	<path class="st116" d="M77.2,41.3c-0.7,0.7-1.6,0.4-2.4,0.3c-2-0.1-3.5,0.6-4.3,2.6c-1.1,0.3-1.2-0.7-1.6-1.2
		c-0.6-0.1-1.2,0.1-1.6-0.4c1.5,0,2.8-0.5,3.7-1.7C73,40.6,75.1,41.4,77.2,41.3z"/>
	<path class="st117" d="M85.1,78.4c-0.2,0.7-1.2,0.1-1.5,1c1.1,0.6,2.1-0.6,3.3,0c-1.6,2.2-4.1,2.6-6.3,3.6c-0.1-1-0.4-2,0.3-3
		c0.6-0.4,0.1-1.2,0.6-1.5c1.7-1.9,3.8-3.4,6.1-4.6c0.6,0.1,1.2,0.2,1.7,0.7c0.3,1-0.6,1.5-1.2,2c-1.3,0.8-3,0.7-4.5,1.9
		C84.2,78,84.7,78,85.1,78.4z"/>
	<path class="st118" d="M75.5,78.8c-0.3,0-0.7-0.1-0.8-0.4c-0.1-1,0.3-1.9,0.9-2.6c1.9,0.3,3.7-0.9,5.6-0.1c0.4,1,0.5,1.9-0.2,2.7
		C79,77.3,77.3,79.1,75.5,78.8z"/>
	<path class="st119" d="M80.9,78.4c0-1,0-1.9,0-2.9c-0.8-0.9-0.3-2.1-0.8-3.1c-0.1-1.3-0.4-2.7,0.3-4c0.9-0.2,0.9,0.6,1,1.1
		c0.2,1,0.4,2,0.5,3c-0.1,2.1,0.4,4.2-0.2,6.2c-0.5,0.3-0.2,1.1-0.9,1.2C80.8,79.5,80.9,78.9,80.9,78.4z"/>
	<path class="st120" d="M117.6,67.6c0.4-0.4,0.8-0.8,1.3-1.2c-2.1,5.7-4.2,11.4-6.3,17.1c-0.3,0.8-1,1.1-1.8,1.2
		c-0.8,0-0.9-0.7-1.1-1.3c-0.9-2.4,0.2-4.8,0.2-7.2c0-3.5,1.7-6.7,1.6-10.2c0-1.7,1.2-2.9,1.8-4.4c1.9-4.7,4.1-9.4,6.1-14.1
		c0.7-1.5,1.8-2.6,3.3-3.3c-0.1,0.9-0.6,1.5-1.1,2.2c-1,1.1-1.4,2.5-1.4,4c0,1.6-0.9,2.7-1.7,3.9c-0.1,1.8-1,3.2-2.2,4.4
		c-0.8,0.8-1,1.8-1.2,2.9c-0.6,4.7-2.1,9.2-2.2,14c1.5-1.6,2-3.6,2.8-5.4C116,69.2,116.1,67.8,117.6,67.6z"/>
	<path class="st120" d="M119.2,64.6c0.7-2,0-4.4,2.1-5.8c0,0.3,0,0.6,0,0.8c-0.7,1.1-1.1,2.3-1.2,3.5
		C120,63.8,119.9,64.4,119.2,64.6z"/>
	<path class="st121" d="M133.8,24.6c0-0.3,0-0.5,0-0.8c1.3-0.4,2.5,0.1,3.8,0.4c0,0.3,0,0.5,0,0.8c-0.1,1.1-0.9,0.9-1.6,0.8
		c-0.7-0.1-1.5-0.1-2.2-0.3C133.6,25.2,133.6,24.9,133.8,24.6z"/>
	<path class="st122" d="M133.9,25.5c1.1-1.1,2.6,0.8,3.7-0.4c0.1,0,0.3,0,0.4,0c0.5,0.6,2.3,0.1,1.6,1.8c-1.1,0.6-2.3,0.5-3.4,0.7
		c-1-0.4-2.2-0.3-3.2-0.7C132.8,26,133.2,25.6,133.9,25.5z"/>
	<path class="st123" d="M139.7,26.7c0-1.1-1.2-0.9-1.6-1.6c1.8,0.3,3.6,0.7,5.4,0c0.9,0,0.8,0.6,0.8,1.3c-0.2,0.3-0.5,0.4-0.8,0.5
		c-1.2,0.3-2.3,0.7-3.5,0.1C139.8,26.9,139.7,26.8,139.7,26.7z"/>
	<path class="st124" d="M116.4,21.3c0.5,1.8,2.4,1.5,3.5,2.4c1.2,1,2.4,1.2,3.9,0.3c0.6-0.3,2.1-0.3,2.5,1c-0.3,0-0.7,0.1-0.8,0.5
		c0.1,0.2,0.1,0.4,0,0.6c-0.2,0.3-0.5,0.4-0.8,0.5c-2.2-0.9-4.4-0.3-6.5,0.5c-1-0.1-1.4-0.7-1.5-1.6c-0.1-0.8-0.5-1.5-1-2.1
		c-0.2-0.5-0.2-0.9,0.2-1.2C116.1,21.8,116.2,21.6,116.4,21.3z"/>
	<path class="st125" d="M133.9,25.5c-0.3,0.4-0.6,0.8-0.9,1.2c-0.3,0.6-0.9,0.8-1.5,0.8c-0.2,0-0.4-0.1-0.5-0.2
		c-0.3-0.8-1.3-0.9-1.7-1.6c0-0.1-0.1-0.2-0.1-0.3c1.4-0.8,3-0.8,4.6-0.8C133.9,24.9,133.9,25.2,133.9,25.5z"/>
	<path class="st126" d="M125.5,25.9c0-0.1,0-0.2,0.1-0.4c1.2,0,2.5,0,3.7-0.1c0,0,0.1,0.1,0.1,0.1C128.1,27.1,127.3,27.2,125.5,25.9
		z"/>
	<path class="st127" d="M57.2,65.9c0-0.3,0-0.5-0.1-0.8c-1.6-3-1.4-6.1-0.1-9c1.2-2.6,4.1-2.5,6.6-2.3c1.1,0.1,2.2,0.2,3.2-0.3
		c1.5-0.5,3-1.2,4.5-0.3c0.1,0.2,0.1,0.4,0.1,0.6c-2.1,1.5-4.6,2.1-7.2,1.8c-3.3-0.3-4.7,0.4-6.3,3.5c-0.6,2.1-0.2,4.1,1,5.9
		c0.6,0.9,0.9,2,1.6,2.9c1,1.5,1.6,1.6,2.9,0.3c0.5-0.5,1-1,1.7-1.2c1.4-0.6,2.4,0,3.1,1.2c0.2,0.4,0.2,0.9,0.4,1.4
		c0.5,1.2,1,2.6,2.5,2.2c1.4-0.3,2.1-1.6,2-3c-0.1-1.7,0-3.3,0.3-5c0.1-0.2,0.3-0.4,0.5-0.4c0.2,0.1,0.4,0.2,0.5,0.5
		c0.4,2.2,0.2,4.5,0.2,6.7c0,0.7-0.3,1.3-0.9,1.7c-0.1,0-0.3,0-0.4,0c-1.8,2.5-3.6,2.4-5.4-0.2c-0.8-1-0.5-2.8-1.7-3.1
		c-1.2-0.3-1.6,1.4-2.5,2.1c-2.4,1.8-3.2,1.6-4.4-1.2c-0.6-1.4-0.8-3.1-1.9-4.3C57.4,65.9,57.3,65.9,57.2,65.9z"/>
	<path class="st128" d="M57.5,65.9c1.5,0.8,1.6,2.5,2.2,3.8c1.2,2.9,1.7,3.1,4,1c0.4-0.4,0.8-0.8,1.1-1.2c0.4-0.4,0.3-1.6,1.3-1.3
		c0.8,0.3,1.3,0.9,1.4,1.9c0.1,0.7,0.3,1.3,0.4,2c0.1,0.1,0.2,0.2,0.1,0.3c0,0.1-0.1,0.1-0.1,0.1c-1.8-2.8-1.9-2.8-3.5,0.3
		c-0.7,1.3-1.4,2.5-3.1,2.2c-1.7-0.3-2.3-1.6-2.6-3.1C58.4,69.9,58,67.9,57.5,65.9z"/>
	<path class="st129" d="M73.8,72.6c0.8-2.9,0.2-5.8,0.5-8.7c-0.2-1.5-0.3-2.9,0.1-4.4c0.3-0.5,0.9-0.6,1.3-0.3
		c2,1.4,4.2,2.5,5.5,4.7c-2,1.9-3.4,0-5.1-0.9c-0.6,0.8-0.8,1.7-0.7,2.5c0.1,2.7,0.1,5.3-0.2,8c0,0.5,0.3,0.9,0.4,1.4
		c0.1,0.4,0.2,0.8,0,1.2c0.2,1-0.3,1.7-0.8,2.5c-2.2-1-2.3-1.3-1.2-3.2C74,74.3,73.7,73.4,73.8,72.6z"/>
	<path class="st130" d="M66.8,79.7c-1.2-0.5-2.7-0.6-2.6-2.5c0.1-1.7,0.7-3.2,2.3-4.1c0.5-0.3,2.8,3.7,2.7,4.8
		C69.1,79.4,67.9,79.5,66.8,79.7z"/>
	<path class="st131" d="M68,72.6c0-0.1,0-0.3,0-0.4c2.2,2.3,2.9,2.3,5.4,0.4c0,1.7-1.2,2.7-2.5,2.7C69.4,75.4,68.5,74,68,72.6z"/>
	<path class="st132" d="M33.8,73.8c1.2,0.2,2.4,0.3,3.6,0.6c1.8,0.5,3.3,0.2,4.7-1c2.4-1.3,5-0.9,7.6-1.4c0.7-0.1,1.4,0,2-0.2
		c0.4-0.1,0.9-0.2,1.3-0.1c0.2,0,0.4,0.1,0.6,0.1c0.6,0.3,1.1,0.6,1.4,1.1c0,0.1,0,0.3,0,0.4c-2,1-4.1,0.8-6.2,0.8
		c-2.3,0-4.5-0.2-6.7,0.8c-3.4-0.1-6.8,0.5-10-1.2C32.7,73.8,33.3,73.8,33.8,73.8z"/>
	<path class="st133" d="M67.2,53.8c-1,0.7-2.1,0.9-3.3,0.5c-1.9-0.5-3.8-0.1-5.4,0.8c-1.9,0.9-1.4,3-1.7,4.6
		c-0.4,1.8,0.3,3.5,0.4,5.3c-0.1,0-0.3,0-0.4,0c-1.5-1.3-1.2-3.2-1.8-4.8c-0.7-6.7,2.4-8.3,7.8-7.2c1.3,0.3,2.6,0,3.9,0.3
		C66.8,53.5,67,53.6,67.2,53.8z"/>
	<path class="st134" d="M55.4,60.5c0.4,1.5,0.9,3,1.3,4.6c0,1.8,0.1,3.6-0.1,5.4c-0.1,1-0.6,2-1.6,2.6c-0.6,0-1-0.3-1.2-0.8
		c1.8-3,2-6.1,0.5-9.2c-0.1-0.3-0.1-0.7,0-1C54.5,61.3,54.5,60.6,55.4,60.5z"/>
	<path class="st135" d="M143.4,26.3c0.3,0,0.6,0,0.8,0c0.7,2,0,4.5-1.9,5.5c-3.1,1.6-5.7,3.9-8.9,5.2c-1.6,0.7-2.5,2.2-3.4,3.5
		c-1,1.4-1.8,1.5-3.3,0.9c-1.3-0.5-2.5-1.2-3.7-1.8c-0.6-0.2-1.2-0.5-0.8-1.4c0.2-0.1,0.4-0.2,0.6-0.1c2.5,1.6,4.1,0.7,5.7-1.5
		c1.3-1.7,3.4-2.6,5.2-3.6C137.3,31.2,140.3,28.7,143.4,26.3z"/>
	<path class="st136" d="M122.2,38.4c0.3,0.4,0.6,0.8,0.8,1.3c0,0.1,0,0.3,0,0.4c-0.3-0.1-0.7-0.2-0.9-0.4c-2.3-1.7-2.4-1.6-4.3,0.4
		c-3.7,3.8-5.3,8.8-7.7,13.3c-0.3,0.1-0.6,0.3-0.8,0.4c-0.1-0.2-0.3-0.4-0.2-0.5c1.2-3.3,1.3-7,3.7-9.8c1.4-1.6,2.5-3.3,3.2-5.3
		c0.3-1,1-1.8,2-2.3C119.9,35.7,121.3,36.5,122.2,38.4z"/>
	<path class="st137" d="M115.9,58.4c1.3-1.1,1.5-2.9,2.5-4.2c2.5,0.4,1.7,2.3,1.4,3.7c-0.6,3.2-1.5,6.4-2.3,9.6
		c-1.3,1.4-1.7,3.3-2.4,5c-0.6,1.6-1.5,2.9-2.6,4.3c-0.7-5.4,1.2-10.4,2.1-15.5C115.1,60.4,115.2,59.2,115.9,58.4z"/>
	<path class="st138" d="M98,73.8c-0.7,0.8-1.1,1.9-2.1,2.5c-0.7-0.2-1.2-0.8-1.9-1.1c-1.2-1-2.8,0.1-4-0.9c0.2-2.6,1-5.1,0.6-7.7
		c-0.1-1-0.2-2.1-0.4-3.1c-0.6-2.5-0.4-2.8,2.1-3.3c0.2,0,0.4,0,0.6,0c0.5,0.2,0.9,0.4,1.1,1c0.2,2.2-0.2,4.3-1.1,6.4
		c-0.3,0.7-0.2,1.2,0.5,1.5c0.9,0.3,1.1,1,1,1.8c0.7,0,0.7-1.1,1.5-0.9c0.4,0.4,0.6,1.1,0.3,1.5C95.3,73.5,96.5,73.7,98,73.8z"/>
	<path class="st139" d="M94.2,75.1c1-0.2,1.4,0.5,1.7,1.3c-1.2,3.1-1.7,6.4-3.7,9.2c0,0-0.1,0-0.1,0c0-0.1-0.1-0.1-0.1-0.2
		c0.5-2-0.3-3-2.3-3.2c0-0.1,0-0.3,0-0.4c0.2-1-0.7-1.2-1.2-1.6c0.8-0.6,1.7-0.8,2.6-0.6c0.1,0,0.1,0,0.2,0.1
		c1.3,0.3,2.7-0.3,2.7-1.5c0-1.1-1.4-0.3-2.2-0.6c-0.2-0.3,0-0.5,0.2-0.8C92.5,75.9,92.5,74.3,94.2,75.1z"/>
	<path class="st139" d="M98,73.8c-0.3,0.1-0.7,0.2-0.9,0.3c-0.5,0.4-0.9,0.5-1.4,0c-0.5-0.5-0.8-1-0.3-1.6c0.7-0.8,0.5-1.6,0.5-2.5
		c-0.5-0.9-0.2-1.6,0.7-2.2c0.6,0.2,0.7,0.7,0.6,1.2c-0.1,1.8,0.7,2.5,2.5,2.2c-0.1,0.4-0.3,0.8-0.4,1.2
		C98.7,72.8,98.3,73.3,98,73.8z"/>
	<path class="st140" d="M118,35.9c-3.5,5.7-7.5,11.1-8.8,17.9c-0.8,0.5-0.7,1.7-1.7,2.1c-0.3-0.2-0.4-0.5-0.4-0.9
		c0-0.2,0-0.4,0.1-0.6c0.6-4.3,3-8.1,3.5-12.4c0.2-1.8,1-3.4,2.2-4.8c1.4-1.4,2.6-3,4.8-3.2c0.3,0.1,0.5,0.3,0.7,0.6
		C118.7,35.1,118.4,35.5,118,35.9z"/>
	<path class="st141" d="M107.6,55.1c0,0.3,0,0.6,0,0.9c-2.3,4.7-5.2,9-6.7,14c-0.2,0.6-0.7,1-1.2,1.4c-2,1.2-2.9,0.8-2.9-1.5
		c0-0.6,0-1.2,0-1.8c0.1-0.1,0.3-0.2,0.5-0.3c1.3,0.1,1.3-1.1,1.8-1.9c0.5-0.7,0.7-1.6,1.1-2.4c0.1-0.3,0.3-0.5,0.5-0.7
		c0.2-0.3,0.4-0.6,0.9-0.7c1.9,0.6,2.2-0.9,2.6-2.1c0.5-1.6,1.2-3,2.3-4.3C106.7,55.4,107,54.9,107.6,55.1z"/>
	<path class="st142" d="M115.9,22.1c0,0.4,0,0.8,0,1.3c-0.9,2.7-3,3.5-5.4,1.9c-0.8-1.1-0.6-2.3-0.5-3.5c0-0.2,0.1-0.4,0.2-0.6
		c0.7-0.9,1.5-1.5,2.7-1.2C114,20.7,116.2,19.7,115.9,22.1z"/>
	<path class="st143" d="M113,20c-0.8,0.4-1.7,0.9-2.5,1.3c-0.4-2.1-2.5-1.7-3.8-2.5c0.9-0.6,2-0.3,3-0.3c1,0,1.7-0.3,2.4-0.9
		C112.2,18.5,113.2,19,113,20z"/>
	<path class="st144" d="M106.7,18.8c0.5,0,1,0.1,1.4,0c2.1-0.4,2.7,0.6,2.4,2.5c0,0,0,0,0,0c-0.8,1.4-0.4,3.1-1.1,4.6
		c-2.1,0.5-1.3-1.7-2.2-2.4c-1.5,2.8-1.3,6.1-3,8.7c-1.2-0.2-1.2-1.2-1.2-2.1c0.1-2.8-0.2-3.1-3-3.3c-0.7,0-1.5,0-2.2-0.3
		c-0.6-0.3-1-0.7-0.6-1.5c0-0.2,0-0.3,0-0.5c0.2-0.1,0.3-0.2,0.5-0.4c1.3-0.4,2.5,0.8,3.9,0.3c2.5-0.8,3.6-2,3.7-4.7
		c0-0.3,0-0.7,0.2-1C105.9,18.8,106.3,18.8,106.7,18.8z"/>
	<path class="st145" d="M105.5,18.9c1,3.6-2.2,7.1-5.8,6.5c-0.8-0.1-1.2-1.2-2.1-1.2c0.1-0.1,0.3-0.3,0.4-0.4
		c0.3-0.3,0.7-0.4,1.1-0.4c3.3,0.5,4.7-1.5,5.5-4.2C104.8,18.9,105.1,18.8,105.5,18.9z"/>
	<path class="st146" d="M104.6,19.2c0.1,3.3-1.7,5-4.9,4.6c-0.5-0.1-1.1,0-1.7,0c0.3-0.3,0.5-0.6,0.8-0.8c2.3,0.5,3.5-1.1,4.8-2.5
		C103.9,20,104.1,19.4,104.6,19.2z"/>
	<path class="st147" d="M31.7,58.8c0.8-0.5,0.6-1.6,1.3-2.1c0.8,0.8,0.7,1.8,0.4,2.7c-0.3,1.3-0.1,2.5,0.1,3.8
		c0,2.1,0.1,4.1-0.1,6.2c-0.1,1.2,0.7,1.9,0.9,2.9c0,0.1-0.1,0.2-0.1,0.3c-2.6-0.3-3.6-2-2.8-4.4c0.6-1.8,1.3-3.5-0.2-5.4
		C30.4,61.8,31.5,60.1,31.7,58.8z"/>
	<path class="st148" d="M52.2,72.2c-3.3,0.7-6.7,0.9-10,1.2c-2.7,0.4-5.5,1-8-0.8c0,0,0-0.1,0-0.1c0.7-0.7,1.6-0.5,2.4-0.2
		c1.9,0.5,3.8,0.5,5.7-0.1c2.1-0.6,4.2-0.6,6.4-0.9c1.4,0.8,2.2-0.9,3.4-1C52.7,70.9,52,71.6,52.2,72.2z"/>
	<path class="st149" d="M18.4,47.6c0-0.3,0-0.6,0-0.9c0.4-0.3,0.8-0.5,1.2-0.8c1.3,1.1,2,2.8,3.3,4c0.8,0.7,1.5,1.5,2.7,1.1
		c1.2-0.5,0.9-1.5,0.8-2.5c0-1-0.1-2.1,1.3-2.4c1.6,1,3.4,0.9,5.1,0.9c0.6,0.5,0.4,1.2,0,1.6c-1,1.1-1.3,2.6-2,3.9c0,0,0,0,0,0
		c-0.4-0.5-0.8-1-1.2-1.4c-0.8-0.9-1.5-0.7-2.2,0.1c-1.5,1.8-2.3,1.8-4.3,0.4c-0.8-0.6-1.5-1.4-2.6-1.6
		C19.8,49.2,19.1,48.4,18.4,47.6z"/>
	<path class="st150" d="M33,63.4c-0.8-2.2,0.2-4.4,0-6.7c0-1,0-1.9,0-2.9c-0.2-0.3-0.2-0.6,0-0.9c0.2-0.1,0.4-0.1,0.6,0.1
		c1,1.6,1,3.4,0.9,5.2c0,1.9-0.2,3.8,0.3,5.7c-0.1,1.8,0.7,3.5,0.8,5.3c0,1.5,1.4,1.8,2.6,1.9c1.6,0.2,3.2-0.2,4.7-0.7
		C48,70,48,70,48.2,64.5c0-0.7,0-1.4,0.5-2c1.7,0.6,2.9,2.5,2.9,4.7c0,1.6-1.1,3.7-2.6,3.9c-4.5,0.5-8.9,2.6-13.6,1
		c-1.4-0.5-2-1.2-2.1-2.6C33.2,67.5,33.3,65.4,33,63.4z"/>
	<path class="st151" d="M30.9,52.5c-0.1-1.4,0-2.6,1.2-3.5c0.5-0.4,0.8-1.1,0.9-1.8c2.2-0.4,4.6-0.1,6.7-0.9
		c1.8-0.8,3.5-0.6,5.2-0.4c1.4,0.2,2.7,1.1,4.2,0.8c0.4,0.8-0.3,0.9-0.7,1.2c-0.9,0.3-1.8,0.3-2.6,0c-3.8-1.2-7.4,0.3-10.9,1.4
		c-1.4,0.4-2.5,1.5-2.1,3.3c0.1,0.4,0.1,0.8-0.3,1.2C32,53.4,31.4,52.9,30.9,52.5z"/>
	<path class="st152" d="M32.5,53.8c-0.6-3.8,0.8-5,5.7-6.3c3.5-0.9,6.8-0.3,10.1,0c1.1-0.3,2-1.3,3.2-0.6c0.4,1.1-0.6,1.3-1.2,1.7
		c-1.2,0.3-2.4,0.5-3.6,0.5c-3-1.7-6-0.4-8.9,0.3c-0.2,0.1-0.4,0.1-0.6,0.2c-2.3,0-3.8,1.1-4.4,3.3c0,0.3,0,0.6,0,0.9
		C32.8,53.8,32.7,53.8,32.5,53.8z"/>
	<path class="st153" d="M21.7,22.6c0.3-0.8,0.7-1.7,0.8-2.5c0.1-1.2,0.3-2.1,1.8-2.1c1.5,0,1.8,1,2,2.1c0,0.3,0,0.5,0,0.8
		c-0.7,1.2-0.2,2.5-0.1,3.8c0.1,1.1,0.4,2.3-0.2,3.4c-0.4-0.2-0.5-0.6-0.6-1c-0.1-0.7-0.2-1.4-1.1-1.6c-1-0.2-0.8,0.9-1.3,1.3
		c-0.2,0.1-0.4,0.1-0.5,0c0-0.1,0-0.3,0-0.4C22.6,25,20.9,24,21.7,22.6z"/>
	<path class="st101" d="M22.5,26.7c0.1,0,0.3,0,0.4,0c0.7,0.6,0.7,1.3,0.7,2.1c0,3.9,0.1,7.7,0,11.6c-0.1,1.8-0.4,3.5-2.6,3.9
		l-0.1-0.1c-0.5-1,0.6-1.3,0.9-2c0.7-0.9,0.8-2,0.8-3.1C22.5,34.9,22.5,30.8,22.5,26.7z"/>
	<path class="st44" d="M21.7,42.1c-0.3,0.7-0.6,1.4-0.9,2c-1.5,1-2.9,2.5-5,2.1C18.2,45.4,20,43.9,21.7,42.1z"/>
	<path class="st101" d="M21.7,22.6c-0.4,1.4,1.2,2.4,0.8,3.8c-0.5-0.5-0.3-1.4-1.2-1.7C21.3,23.9,21,23.1,21.7,22.6z"/>
	<path class="st154" d="M89.7,82.1c0.3,0,0.7-0.1,1-0.1c1.8-0.3,2.4,0.4,1.9,2.1c-0.1,0.5-0.3,0.9-0.4,1.4c-1.2,0.6-1.3,1.9-1.7,2.9
		c-0.6,1.5-1.4,2.7-3.3,2.5c-0.9-1.9,0.4-3.2,1.2-4.6C89.5,85.1,89,83.4,89.7,82.1z"/>
	<path class="st155" d="M82.2,89.2c0.1-2,2.8-5.3,4.7-5.7c1-0.2,1.7,0,1.5,1.2c-0.1,0.5-0.3,1.1-0.4,1.6
		C86.3,87.7,84.1,88.2,82.2,89.2z"/>
	<path class="st156" d="M21,44.3c1.5-1,2.1-2.4,2.1-4.3c-0.1-4.4-0.1-8.8-0.1-13.3c0.2-0.8-0.5-2.2,1.2-2.1c1.3,0.1,1.8,0.9,1.8,2.1
		c0,0.4,0.1,0.8,0.1,1.2c0,5.4-0.7,10.9,0.8,16.3c0.2,0.3,0.2,0.6,0,0.8c-1.6-1.2-3.2-1.6-5-0.3c-0.2,0.2-0.5,0.1-0.8-0.1
		C20.9,44.5,20.9,44.4,21,44.3z"/>
	<path class="st157" d="M21,44.7c0.5,0,0.8-0.4,1.2-0.7c1.7-1.2,3.5-0.8,4.5,1.1c0.6,0.1,1.1,0.4,0.8,1.2c-0.5,0.8-0.7,1.5-0.5,2.5
		c0.3,1,0.3,2.2-0.8,2.7C25,52.1,24,51.8,23,50.8c-1.4-1.4-2.9-2.8-3.4-4.8C20.1,45.5,20.5,45.1,21,44.7z"/>
	<path class="st158" d="M88.4,80.1c0.6,0.1,1.5-0.4,1.9,0.3c0.4,0.6-0.2,1-0.7,1.3c-0.8,0-1.7,0.1-2.1-0.9
		C87.8,80.6,88.1,80.3,88.4,80.1z"/>
	<path class="st159" d="M92.2,77.2c-0.1,0.1-0.3,0.3-0.4,0.4c-2.2,0.2-4.5,0.2-6.7,0.8c-0.5,0-0.9-0.1-1.5-0.1c1.2-1.7,3-1.4,4.5-2
		c1.1-0.8,2.2-1.2,3.5-0.5C92,76,92.6,76.3,92.2,77.2z"/>
	<path class="st160" d="M27.5,46.3c-0.3-0.4-0.6-0.8-0.8-1.2c0-0.3,0.1-0.6,0.1-0.8c2.8,3.3,6.4,2.6,10,2c1.3,0.1,2.4-0.2,3.6-0.7
		c1.6-0.7,3.6-0.9,5.1-0.2c3,1.5,5.4,0.6,7.9-1c0.4-0.3,0.8-0.6,1.3-0.6c1.4,0.6-0.5,1.1,0,1.7c0,1-0.9,1.2-1.6,1.3
		c-1.3,0.2-2.5,0.5-3.8,0c-1.2,0.3-2.4,0.2-3.6-0.3c-2.5-0.9-4.9-0.2-7.3,0.3c-1.8,0.4-3.5,0.3-5.3,0.4
		C31.1,47.1,29.2,47.5,27.5,46.3z"/>
	<path class="st161" d="M72.6,46.8c-0.2-1.9,1.4-2.2,2.6-2.8c0.8-0.4,1.6-0.7,2.4-1c2.4-0.7,4.7-1.7,7.3-1.7c0.5,0,1-0.3,1.4-0.7
		c2.1-1.4,2.5-1.2,3.8,1.2c0.2,0.2,0.2,0.5,0.1,0.8c-0.8,1.1-2.2,0.2-3.1,0.9c-0.7,0.5-1.3,0.7-1.8-0.3c-0.2-0.4-0.1-1.2-0.9-0.6
		c-1.8,0.3-3.5,0.9-5.1,1.9c-2.4,0-3.9,2-6.1,2.5C72.9,46.9,72.8,46.9,72.6,46.8z"/>
	<path class="st162" d="M89.3,35.1c1.6,0,3.3-0.1,4.9,0c2.8,0.1,4.8,2,5,4.6c0.2,1.6-0.5,2.4-2.1,2.6c-0.5,0-0.9-0.1-1.2-0.5
		c0.6-1.5,1.7-2.9-0.1-4.4c-0.6-0.5-1.1-0.8-2.1-0.8C92.2,36.5,90.5,36.4,89.3,35.1z"/>
	<path class="st163" d="M95.9,41.7c0.4,0,0.8,0,1.2,0.1c0.2,0.2,0.1,0.4-0.1,0.6c-0.8,0.5-1.7,0.3-2.6,0.6c-1.4,0.2-2.7,0.4-4.1-0.2
		c-0.1-0.1-0.2-0.2-0.3-0.2c0-0.3,0-0.6-0.1-0.8C92,41.7,94,41.7,95.9,41.7z"/>
	<path class="st145" d="M97.2,25.1c0.1,1,0.7,1.3,1.5,1.2c0.8,0,1.6-0.1,2.5,0c2.1,0.2,2.9,1.3,2.4,3.3c-0.2,1-0.5,1.9,0.6,2.5
		c0.7-0.3,1.1,0.3,1.5,0.7c1.1,1.1,2.1,2.3,3.7,2.4c0.3,1.3,0,2.4-1.4,2.9c-1.3-0.1-1.7-1.1-2.2-2c-1.3-2-2.8-3.6-5.3-3.8
		c-2-0.1-2.1-1.9-2.6-3.2c-0.4-0.5-0.8-0.9-1.2-1.4C95.9,26.8,95.6,25.8,97.2,25.1z"/>
	<path class="st164" d="M91.3,33.4c0.3-0.2,0.4-0.5,0.4-0.8c0.3,0,0.6,0,0.8,0c1.6,0.6,3.3,0.8,5,1.2c3.2,0.7,6,2,7.4,5.2
		c0.2,0.7,0.2,1.4-0.3,2c-2.3,0.7-3.3,0.4-4.2-1.4c-0.1-2.8-1.9-4.8-4.9-5C94.1,34.6,92.6,34.2,91.3,33.4z"/>
	<path class="st165" d="M104.7,38.8c-2-2.7-4.7-4.3-8.1-4.7c-1.4-0.1-2.9-0.4-3.9-1.6c1.5,0,3,0,4.6,0c1.7-0.2,3.2,0.3,4.9,0.6
		c1.4,0.2,2.1,1.4,2.8,2.6c0.8,1.3,1.5,2.6,3.3,2.7c0.2,0.3,0.2,0.6,0.2,0.9c-0.3,1,0.1,2.4-1.3,3C106.4,41,105.9,39.6,104.7,38.8z"
		/>
	<path class="st166" d="M108,38.4c-0.7,0.7-1.3,0.7-2-0.2c-0.8-1-1.5-2-2.1-3c-0.6-1.2-1.6-1.8-3-1.8c-1.3,0-2.6-0.3-3.8-0.9
		c0.5-1.1,0.9-2.1,0.8-3.3c0.8,2.4,2.8,2.9,5,3.3c1.8,0.3,2.2,2.1,3.3,3.2c0.6,0.7,0.9,1.7,1.8,2.2c0.1,0.1,0.1,0.2,0.1,0.3
		C108,38.4,108,38.4,108,38.4z"/>
	<path class="st167" d="M100.5,39.6c1.1,1.3,2.6,1.3,4.2,1.2c0.5,1.1,0.2,2.1-0.6,2.9c-1.1,0.4-1.8-1-2.9-0.7
		c-0.5,0-1.1-0.1-1.6-0.2c-0.8-0.3-1.8,0-2.4-0.8c0-0.1,0-0.2-0.1-0.3c1.5,0.1,1.6-1.3,2.1-2.1C99.7,39.6,100.1,39.6,100.5,39.6z"/>
	<path class="st168" d="M49.2,46.7c1.9,0,3.7-0.2,5.4-1.3c1.1,0,2,0.5,2.9,0.8c1.2,2.3,3.2,2.6,5.5,2.2c1-0.2,2.1-0.3,3.1-0.2
		c0.7,0.1,1.6,0.1,1.6,1.2c-0.3,0.7-1,0.9-1.7,1c-2,0.2-3.9,0.9-5.9,1.1c-0.2,0-0.4,0-0.6,0c-1.1-0.3-2.4,0-3-1.3
		c-0.3-0.7-0.6-1.4-1.4-1.8c-0.9-1.1-2.4-0.6-3.5-1.4c-1.1,0.1-2.2,0.3-3.3,0.4C48.7,47.3,48.9,47,49.2,46.7z"/>
	<path class="st169" d="M67.6,49.6c-1-1.6-2.6-0.7-3.9-0.7c-0.9,0.1-1.9,0.2-2.8,0.3c-2.2,0.2-3.2-0.8-3.3-2.9
		c1.9,0.4,3.7,0.8,5.6,1.1c1.3,0.2,2.7,0.5,4-0.2c0.1,0,0.3,0,0.4,0c1.9,0.4,3.6,1.2,5.5,1.6c0.3,0.4,0.3,0.8,0.2,1.3
		c-0.3,0.7-0.8,1.1-1.4,1.3c-1-0.1-2,0.3-3-0.2C69,50.7,68.4,50.1,67.6,49.6z"/>
	<path class="st170" d="M73,48.8c-2,0.1-3.9-0.4-5.4-1.7c0.2-1.4,1.5-2.5,1.3-4.1c0.5,0.4,1.1,0.8,1.6,1.2c-0.1,1.3-0.1,2.6,1.2,3.5
		c0.4,0.2,0.6,0.2,0.9-0.1C73.5,47.7,73.3,48.3,73,48.8z"/>
	<path class="st171" d="M73,48.8c0-0.5,0.1-1-0.4-1.3c0-0.3,0-0.5,0-0.8c0.1,0,0.3,0,0.4-0.1c2-0.7,3.4,0.2,4.7,1.7
		c0.6,0.7,1.5,1.1,2,1.8c0.9,1.6,2,3,3.8,3.7c0.6,0.2,1.2,0.7,0.8,1.6c-0.8,0.5-1.5,0-2.1-0.4c-1.8-1.3-4-1.5-5.8-2.7
		c-0.5-0.3-0.9,0-1.3,0.2c-1.2,0.5-2.5,0.7-3.8,0.5c-0.3-0.4-0.1-0.7,0.2-1c0.4-0.5,1.6-0.1,1.6-1.3C73,50.5,73,50.3,73,50
		C73,49.6,73,49.2,73,48.8z"/>
	<path class="st172" d="M81.7,78.8c-0.6-2-0.3-4.1-0.4-6.2c0.5-0.4,0.9,0,1.3,0.2c1.6,0.8,3.8-0.2,4.3-1.9c0.5-1.8-0.5-3-2.5-3.2
		c-1.2-0.1-2.7,0.6-3.5-1.1c-0.1-0.3,0-0.6,0-0.9c0.2-0.5,0.5-0.8,0.9-1.2c0.3-0.3,0.7-0.7,1.1-0.9c0.2,0,0.4,0,0.6,0
		c0.3,0.1,0.5,0.3,0.8,0.5c2.6,0.7,4.1,2.5,5.4,4.6c1.5,2.3,0.5,5-2.2,5.5C85.6,75.7,83.4,76.9,81.7,78.8z"/>
	<path class="st173" d="M87.6,74.2c0.2-0.2,0.4-0.4,0.6-0.5c1.9-0.9,1.7-3.4,0.8-5.2c-1.2-2.3-3.4-2.9-5.2-4.3
		c0.6-0.6,1.3-0.5,1.9-0.2c1.7,0.8,3.5,1.7,5.1,2.7c0.6,2.6,0.4,5.1-0.8,7.5c0,0.7-0.4,0.7-0.9,0.4C88.6,74.7,88.1,74.5,87.6,74.2z"
		/>
	<path class="st174" d="M89.2,74.7c0.3-0.1,0.6-0.3,0.9-0.4c1,0,2,0,3-0.1c0.9-0.1,1.1,0.3,1.1,0.9c-1.8-0.4-0.9,1.9-2.1,2.1
		c-1.1-1.9-2.7-1.1-4.2-0.9C88.4,75.7,88.8,75.2,89.2,74.7z"/>
	<path class="st175" d="M75.5,75.9c-0.1-0.3-0.3-0.6-0.4-0.9c0.4-0.5,0.9-1,1.6-1.1c1.2-0.2,2.6,0.5,3.4-1c0.1-0.2,0.3-0.3,0.4-0.4
		c0.7,0.9,0.2,2,0.3,3C79.1,76.1,77.4,76.8,75.5,75.9z"/>
	<path class="st176" d="M81.3,66.3c0.3,1.4,1.4,0.8,2.2,0.8c3.1,0.1,3.9,0.6,4,2.6c0.1,2.1-1.7,4.1-3.9,4.3
		c-1.1,0.1-1.3-1.4-2.3-1.4c-0.3-1.4-0.5-2.8-0.8-4.2C79.9,67.4,80.1,66.6,81.3,66.3z"/>
	<path class="st177" d="M81.3,66.3c-0.6,0.6-0.9,1.3-0.8,2.1c0,1.4,0,2.8,0,4.1c0,0.1-0.1,0.3-0.1,0.4c-0.2,0.1-0.3,0.1-0.5,0
		c-0.8-1.4-0.1-3-0.6-4.6c-1.3,0.9-1.8,2-1.4,3.4c0.1,0.5,0.5,1.1-0.2,1.5c-0.8,0.2-1.4-0.1-1.7-0.8c-0.2-1.7,0.2-3.3,0.2-5
		c0-0.8,0.5-1.5,1.3-1.6c1.3-0.1,2.5-0.9,3.9-0.4C81.4,65.7,81.3,66,81.3,66.3z"/>
	<path class="st76" d="M115.9,58.4c-0.3,1-0.4,2.1-1.2,2.9C114.6,60.1,114.8,59.1,115.9,58.4z"/>
	<path class="st178" d="M118.4,34.7c-0.2-0.1-0.3-0.3-0.5-0.4c0.1-0.2,0.3-0.3,0.5-0.4c0.4-0.1,0.8-0.2,1.2-0.1c3,0.8,5.5-0.3,8-1.7
		c0.8-0.4,1.6-0.8,2.5-1c1.7-0.5,3.2-1.3,4.2-2.8c0.4-0.5,0.9-0.9,1.5-1.1c1.2-0.4,2.5-0.5,3.7-0.4c0,0,0,0,0,0
		c1.2,0.8,0.5,1.5-0.1,2.2c-1.6,1.9-3.9,2.9-5.9,4.1c-2.1,1.2-4.5,2-6.7,3.3c-1.1,0.7-2.3,0.8-3.5,0.1c-1-0.6-2.1-0.9-3.4-0.9
		C119.5,35.5,118.8,35.4,118.4,34.7z"/>
	<path class="st179" d="M135.9,27.1c-1.7,3.8-5.8,4-8.8,5.8c-2.8,1.8-5.7,1.6-8.7,1.2c-0.3-0.3-0.3-0.6-0.1-0.9c2.9-1,6-1.5,8.7-3.2
		c1.5-0.9,2.9-1.9,4.3-2.9c0.6-0.2,1.1-0.3,1.7-0.5C134,26.7,135.1,26.1,135.9,27.1z"/>
	<path class="st180" d="M118.4,34.7c2.2,0.6,4.5,0.3,6.4,1.9c0.4,0.3,0.8-0.1,1.1-0.3c3.7-2.1,7.8-3.5,11.3-6c1.1-0.8,3-1.5,2.4-3.6
		c1.3,0,2.5,0,3.7-0.4c-2.4,3.2-5.8,5.1-9.1,7.1c-2.5,1.5-5.1,2.7-6.8,5.2c-0.9,1.4-2.3,1.3-3.7,0.6c-0.6-0.3-0.9-0.9-1.6-0.8
		c-1.3-1.1-2.5-2.1-4.2-2.5C118.1,35.5,118.3,35.1,118.4,34.7z"/>
	<path class="st181" d="M110.9,25c1.9,1.2,3,0.8,5-1.7c1-0.1,1.3,0.5,1.3,1.4c0,0.9,0,1.9,1.3,1.9c-0.3,1.5-1.7,1.7-2.9,2.2
		c-0.7-0.8-1.6-1.2-2.7-1.3c-0.7-0.1-1.4-0.6-2-1.1C110.6,26,110.5,25.5,110.9,25z"/>
	<path class="st182" d="M125.5,25.9c1.3,0.4,2.6,0.8,3.8-0.4c0.7,0.4,1.9,0.3,1.6,1.7c-0.2,0.6-0.7,0.8-1.3,0.9
		c-1.5,0-2.9,0.7-4.3,1c-1,0.3-2.6,1.5-3-0.9c0.1-0.7,0.5-1.2,1-1.6c0.5-0.5,1.3,0.3,1.8-0.3C125.2,26.1,125.3,26,125.5,25.9z"/>
	<path class="st126" d="M125.1,26.2c-0.4,0.7-1.1,0.4-1.6,0.5c-1.2,0.5-2.6,0.4-3.8,0.9c-2,0.8-3.5,2.1-4.1,4.3
		c-0.9,0.5-1.7,0.3-2.4-0.3c-0.2-1.8,0.9-2.4,2.4-2.8c1-0.7,2-1.4,3-2.1C120.5,25.2,122.8,25.1,125.1,26.2z"/>
	<path class="st183" d="M129.7,27.6c0.4-0.1,0.8-0.3,1.2-0.4c0.1,0,0.3,0,0.4,0.1c-0.9,2.3-3.2,2.7-4.9,3.8c-2.4,1.5-5.1,2.4-8,2.4
		c-0.2-0.2-0.2-0.4-0.2-0.6c0.6-1.6,2.2-1.6,3.3-2.3C124.1,29.1,126.9,28.3,129.7,27.6z"/>
	<path class="st184" d="M73.8,63.8c0,0.1,0,0.3,0,0.4c-0.5,1.4-0.6,2.8-0.9,4.2c-0.2,1-0.6,2.1-1.8,2.3c-1.2,0.2-1.8-0.7-2.4-1.7
		c-1.5-2.7-2.5-3.1-5.2-1.8c-1.2,0.5-2.1,0.4-3-0.4c-2.4-2-3.1-4.6-2.8-7.5c0.5-2.6,3.1-4.6,5.6-4.1c2.9,0.5,5.5-0.6,8.2-1.3
		c0.5-0.2,0.8,0,1.2,0.3c1.6,1.2,1.5,3.1,2,4.8c-0.4,0.9-0.3,1.9-0.1,2.8C74.5,62.5,74.3,63.2,73.8,63.8z"/>
	<path class="st185" d="M57.6,59.2c0.5,2.6,0.7,5.4,3.2,7.2c0.9,0.7,1.5,0.9,2.6,0.3c2.4-1.5,4.6-0.8,5.7,1.8c0.4,1,0.8,1.9,1.9,1.8
		c1.2-0.1,1.3-1.4,1.5-2.3c0.3-1.3,0.4-2.7,1.4-3.8c0.1,1.7-0.2,3.4-0.1,5.1c0.1,1.7-1,3.2-2.6,3.5c-1.7,0.3-2.7-1.4-3-2.8
		c-0.3-1.1-0.4-2.3-1.7-2.5c-1.2-0.2-2.1,0.6-2.8,1.7c-0.8,1.2-2.1,1.3-2.8,0.3c-1.9-2.9-4.1-5.7-3.6-9.5
		C57.2,59.7,57.4,59.5,57.6,59.2z"/>
	<path class="st186" d="M72,54.3c-0.2-0.2-0.5-0.3-0.7-0.5c0-0.1,0-0.3-0.1-0.4c-0.1-0.2-0.1-0.3,0.1-0.4c1.3-0.7,3.2,0.1,4.3-1.5
		c0.2-0.3,0.6,0.1,0.9,0.3c2.5,1.2,5.1,2.5,7.6,3.7c0.9,0.1,1.4,0.7,1,1.4c-0.8,1.4-0.2,2.5,0.1,3.7c0.3,0.9,0.2,1.6-0.6,2.2
		c-0.3,0.2-0.7,0.4-1.1,0.2c-0.4-0.5-0.3-1-0.2-1.6c0.1-0.4,0.3-1,0.1-1.2c-1.5-1.3-2.2-3.5-4.2-4.3c-1.5-0.6-3.1-1.3-4.8-0.5
		C73.5,55.5,72.9,54.5,72,54.3z"/>
	<path class="st187" d="M71.4,53c0,0.1-0.1,0.3-0.1,0.4c-1.4-0.4-2.7,0.1-4,0.4c-0.2,0-0.4,0-0.5-0.1c0.2-1.7,1.5-2.1,2.9-2.4
		c0.7-0.2,1.5,0,2.2-0.3c0.4-0.3,0.8-0.7,1.3-1c0.1,0.2,0.3,0.3,0.4,0.5c-0.1,1-1.1,1.2-1.6,1.8C71.7,52.5,71.5,52.7,71.4,53z"/>
	<path class="st185" d="M73.8,63.8c0.7-1.6-0.6-3.4,0.4-5c0.3-0.2,0.4,0,0.5,0.3c-0.2,1.6,0.4,3.2-0.4,4.7
		C74.1,63.8,74,63.8,73.8,63.8z"/>
	<path class="st188" d="M74.7,59.1c-0.2-0.1-0.3-0.2-0.5-0.3c-0.3-0.5-1-0.9-0.9-1.6c0.3-1.4-0.5-2.2-1.4-2.9c1-0.2,1.7,0.8,2.6,0.8
		c0.4,0.1,0.8,0.2,1.1,0.5c1.9,1.8,4,3.4,6.3,4.7c1.2,0.6,1.8,2.1,0.9,3.6c-0.3,0.3-0.6,0.6-0.9,0.9c-0.2,0.1-0.4,0-0.5,0
		c-0.3-0.2-0.5-0.6-0.6-0.9C78.9,62.2,77.1,60.2,74.7,59.1z"/>
	<path class="st189" d="M80.9,63.8c0.4,0.2,0.7,0.4,0.8,0.8c-1.7,1.7-3.6,0.7-5.6,0C76,67.4,76,70,76,72.6c0.2,0.5,0.9,0.9,0.7,1.6
		c-0.6,0.3-0.9,0.9-1.6,0.8c-0.5-1-0.7-2-0.4-3.2c0.7-2.8-0.5-5.8,0.4-8.6c0.3-1,0.4-2.1,1.7-0.6C77.9,63.9,79.3,64.5,80.9,63.8z"/>
	<path class="st190" d="M52.2,72.2c-1.5-0.5,0.5-1.1,0-1.7c-0.4-1.5,0.8-3,0.1-4.5c-1-2.3-0.8-4.8-0.6-7.2c0.1-2.2,0.5-4.4,2.2-6.1
		c1.7-1.5,3.5-2.2,5.8-1.5l0,0c0.1,0.2,0.1,0.4,0,0.5c-0.8,0.6-1.8,0.6-2.6,1.1c-1.7,1-2.5,2.6-2.9,4.5c-0.5,2.3-0.3,4.5,0.5,6.7
		c0.9,2.8,0.4,5.5-1.2,8C53,72.1,52.6,72.2,52.2,72.2z"/>
	<path class="st191" d="M53.4,72.1c0.3-2.9,1.8-5.6,0.3-8.8c-0.8-1.7-1.2-4.1,0-6.1c1,1.4,0.9,3,0.8,4.6c0.3,2.1,1.6,3.9,1.3,6.2
		c-0.2,1.7-0.7,3.2-2.1,4.2C53.7,72.1,53.6,72.1,53.4,72.1z"/>
	<path class="st192" d="M54.6,61.7c-0.7-1.5-0.8-3-0.8-4.6c0.6-3.4,2.1-4.8,5.8-5.4c0.4-0.2,0.8-0.4,1.2-0.3
		c2.8,0.5,5.4,0.3,8.1-0.6c0.9,0.2,1.9-0.4,2.9,0.2c-0.4,0.8-1.2,0.7-1.9,0.8c-1.3,0.2-2.3,1-3.1,2c-2.3,0.4-4.6-0.4-6.9-0.4
		c-2.8,0-4.3,1.4-4.3,4.3c0,1,0,1.9-0.1,2.9C55.2,60.9,54.9,61.3,54.6,61.7z"/>
	<path class="st193" d="M97.1,67.9c-0.1,0-0.3,0-0.4,0.1c-0.6,0.6-0.6,1.4-0.8,2.1c-0.2,0.4-0.4,0.9-0.7,1.2
		c-0.3,0.4-0.6,0.9-1.1,0.7c-0.7-0.2-0.4-0.7-0.2-1.2c0.4-0.8,0.2-1-0.7-1.2c-1.2-0.3-1.6-0.8-0.8-2.2c0.7-1.4,1.8-3,0.9-4.9
		c-0.3-0.5,0.5-0.8,0.6-1.2c0.4-0.2,0.7,0,1.1,0.1c0.6,0.3,1.1,0.8,1.3,1.5c0.2,0.8,0.8,1.5,1.1,2.3c0.1,0.2,0.1,0.4,0.2,0.5
		c0.1,0.4,0.1,0.8,0.1,1.2C97.6,67.3,97.5,67.6,97.1,67.9z"/>
	<path class="st194" d="M83.8,63c0.3-0.2,0.5-0.3,0.8-0.5c0.5-0.2,0.9-0.6,1.3-0.9c1.9-1.1,3.9-1.8,6.2-1.5c0.2,0.1,0.4,0.2,0.5,0.4
		c-1.5,0.4-3.2,0.6-1.8,3c0.4,0.7,0.8,2.1,0.1,3.1c-1.4,0-2.6-0.8-3.8-1.5c-1-0.6-2-1.2-3.3-1c-0.1-0.2-0.3-0.3-0.4-0.5
		C83.2,63.3,83.5,63.1,83.8,63z"/>
	<path class="st195" d="M92.6,60.6c-0.2,0-0.3,0-0.5-0.1c-0.6-1.5,0.2-3.1-0.4-4.6c-0.1-2.3-1.4-4.3-1.4-6.5
		c-0.3-1.5-0.3-3.1-0.9-4.6c-0.2-0.5-0.2-1.1,0.3-1.5c0.9-0.1,1.3,0.6,1.8,1.2c0.4,1,0.5,2.1,1,3.1c0.4,0.7,0.9,1.3,1.2,2
		c0.1,0.3,0.1,0.6,0,0.9c-0.1,0.6-0.2,1.2-0.3,1.9c-0.6,1.9,0.2,3.8,0.3,5.7c0.1,0.9,0.2,1.8-0.7,2.4C92.9,60.5,92.7,60.5,92.6,60.6
		z"/>
	<path class="st196" d="M93,60.5c0.6-1.7,0-3.4-0.2-5c-0.2-1.2-0.4-2.3,0.3-3.4c0.8,0,0.9,0.7,1.1,1.2c0,0.2,0,0.4,0,0.6
		c-0.8,1.8,0.6,2.1,1.7,2.6c0.2,0.2,0.3,0.5,0.1,0.8c-1.1,0.4-1.5,1.1-1.1,2.2c0.2,0.7,0.5,1.5,0,2.2c-0.3-0.1-0.7-0.3-1-0.4
		C93.6,61,93.3,60.8,93,60.5z"/>
	<path class="st197" d="M113.4,37.2c-1.5,2.6-2.5,5.3-2.6,8.3c-0.1,1.5-1.2,2.7-1.7,4.1c-0.6,1.7-0.3,3.6-1.5,5.1
		c-0.4-0.3-0.5-0.7-0.5-1.2c0.6-1.9,0-3.6-0.7-5.3c0.5-2.4,0.9-4.8,1.9-7c1-2.1,2.4-4,2.4-6.4c2-0.3,3.1-2.2,4.9-2.9
		c0.3-0.2,0.7-0.4,1.1-0.3c0.4,0.2,0.6,0.6,0.5,1C116.7,34.7,114.4,35.4,113.4,37.2z"/>
	<path class="st198" d="M107.5,53.4c0,0.4,0,0.8,0,1.3c0,0.1,0,0.3,0,0.4c-1.3,1.6-2.7,3.1-3,5.3c-0.1,0.6-0.6,1.2-1,1.8
		c-0.7,1.2-1.5,1.2-2.3,0c-0.8-0.3-1.2-0.7-1-1.6c-0.3-0.4,1.1,0.2,0.3-0.5c-0.4-0.3-0.5-0.8-0.4-1.2c0.2-0.7,0.6-1.4,1.1-2
		c0.6-1,1.1-2.1,1.9-3c0.2-0.1,0.4-0.1,0.5-0.1C105.3,55.8,106.3,53.7,107.5,53.4z"/>
	<path class="st199" d="M113.4,37.2c0.8-1.9,2.7-2.9,3.7-4.6c0.6-0.3,0.9,0,1.3,0.4c0,0.1,0,0.3,0,0.4c0,0.3,0,0.6,0,0.8
		c-0.2,0-0.3,0-0.5,0C116.1,34.6,114.9,36.1,113.4,37.2z"/>
	<path class="st200" d="M97.1,67.9c0-0.4,0-0.8,0-1.2c0.9-0.4,1.1-1.4,1.4-2.1c0.3-0.7,0.7-1.3,1.4-1.7c0.3,0,0.6,0,0.5,0.4
		c-0.1,1.6-1.2,2.8-1.7,4.3C98.5,68.5,97.8,68.4,97.1,67.9z"/>
	<path class="st201" d="M100.5,63.3c-0.1-0.1-0.3-0.3-0.4-0.4c-1-0.2-1.3-1.3-2.1-1.8c-0.7-1.4-1.9-2.4-2.1-4
		c-0.1-0.1-0.3-0.2-0.4-0.4c-0.2-0.3-0.2-0.5,0-0.8c0.2-0.1,0.4-0.1,0.6-0.1c1.6,1.2,2.4,2.9,3.5,4.5c0.4,0.9,1.4,1.6,1.5,2.7
		C100.8,63,100.6,63.2,100.5,63.3z"/>
	<path class="st202" d="M101,62.9c-0.6-0.8-1.2-1.6-1.8-2.4c0.1-0.5,0-1,0.5-1.4c0.8,0.1,0.8,0.7,0.9,1.3c-0.1,0.7,0.5,1.1,0.8,1.7
		C101.3,62.4,101.3,62.7,101,62.9z"/>
	<path class="st203" d="M110.9,25c0,0.5-0.1,1,0.4,1.3c0.2,0.3,0.2,0.5,0.1,0.8c-0.2,0.1-0.3,0.2-0.5,0.2c-0.9-0.1-1.4-0.6-1.7-1.5
		c-0.1-1.6-0.1-3.3,1.2-4.6C110.7,22.6,110.1,23.9,110.9,25z"/>
	<path class="st204" d="M109.3,25.9c0.6,0.4,1.1,0.8,1.7,1.3c0.6,1.7,0,3.4,0.3,5.1c-0.5,1-0.9,2.2-2,2.8c-0.7,0.6-1.3,1-2.1-0.1
		c-0.8-1.1-1.9-1.9-2.9-2.8c0.4-3.1,1.3-6.1,2.5-9c0.1-0.3,0.3-0.7,0.7-0.7c0.5,0.1,0.5,0.5,0.6,0.9C108.1,24.3,108,25.5,109.3,25.9
		z"/>
	<path class="st205" d="M33,63.4c0.9,1.6,0.1,3.4,0.8,5c0.3,0.9-0.4,2.3,0.7,2.9c1.4,0.8,2.9,1.4,4.5,1.2c2.7-0.3,5.4-0.8,8.1-1.2
		c4.3-0.7,4.8-4.3,2.9-7.3c-0.3-0.5-0.8-1-1.2-1.4c-0.4-0.3-0.4-0.8-0.2-1.2c1-0.9,1.6-2.3,3.3-2c0.1,0.7,0.2,1.4-0.1,2
		c-0.7,1.4-0.4,2.8,0.2,4.2c1.1,2.7-0.1,5.4-2.8,6.2c-3,0.5-6.1,0.7-9.1,1.5c-1.9,0.5-3.9-0.8-5.9-0.7c-1-1.1-1.6-2.1-1.3-3.8
		C33.2,67,33,65.2,33,63.4z"/>
	<path class="st206" d="M49.2,71.7c2.8-2.3,3.1-3.6,1.9-6.8c-0.4-1.2-1.1-2.6,0.3-3.8c0.6-0.5,0.3-1.3,0.3-2
		c-0.5-0.5-0.5-1.2-0.5-1.8c0-0.6,0-1.2,0.1-1.8c0-0.2,0.1-0.4,0.2-0.6c0.4-0.8,0.7-1.6,1.3-2.2c0.4-0.4,0.8-0.9,1.5-0.6
		c0.2,0.3,0.2,0.5,0,0.8c-2.5,3.6-2.6,7.6-1.8,11.6c0.4,2.2,0.6,4-0.3,5.9C51.1,70.7,50.8,72.8,49.2,71.7z"/>
	<path class="st207" d="M34.2,64.2c-0.7-2-0.4-4.2-0.4-6.2c0.3-0.7,1.2-0.9,1.6-1.5c-1.9-1.5-2.1-2.4-0.6-4.2c0.6-0.8,0.9-1.9,2-2.4
		c0.7-0.3,1.5-0.9,2.3-0.3c0.8,0.6,0.7,1.4,0.6,2.3c-0.1,1.2-1,2.3-0.8,3.6c0.3,1.1,0.7,2.1,1.7,2.7c1.3,0.7,2.5,1.4,3.2,2.8
		c1.3,2.1,0.9,4.4,1.1,6.7c0.1,0.8-0.5,1.4-1.1,1.9c-1.7,1.2-3.6,1.7-5.7,1.7c-1.4-0.1-2.3-0.9-2.5-2.3C35.6,67.3,35,65.7,34.2,64.2
		z"/>
	<path class="st208" d="M38.4,55.9c-0.3-1.4,0.5-2.5,0.8-3.8c0.2-0.7,0.7-1.7-0.2-2.3c-0.9-0.5-1.7,0.2-2.2,0.7
		c-0.8,1-1.5,2-2.3,3.1c-0.4,0.5-0.6,1.5,0.6,1.8c0.6,0.2,1.6,0,1.6,0.9c0,0.8-0.9,0.9-1.6,1.2c-0.4,0.2-0.8,0.3-1.1,0.5
		c0.6-1.7-0.3-3.3-0.4-5c1.1-1.6,2-3.3,4.2-3.8l0,0c3-0.5,6-1.7,9.2-0.4c1.3-0.1,2.5-0.3,3.8-0.4c1.2-0.7,2.3-0.4,3.1,0.5
		c0.9,1,0.6,2.1-0.1,3.2c-0.2,0.3-0.3,0.6-0.5,0.9c-0.4,0.7-0.8,1.4-1.2,2.1c-0.8-0.8-0.4-1.7-0.2-2.5c0.4-1.6,0-2.2-1.6-2.3
		c-1.7-0.1-3.3,0-5.5,0.7c2.8,1.5,4.6,3.6,7.3,4.2c0,0.7,0,1.4,0,2.1C51,58.5,50,58.7,49,57.4c-0.7-0.9-1.4-1.4-2.4-1.8
		c-1-0.4-1.7-1-2.3-1.9c-1.2-1.7-2-1.6-3.1,0.1c-0.4,0.7-0.8,1.4-1.2,2.2c-0.1,0.2-0.2,0.3-0.4,0.4C39.1,56.5,38.8,56.1,38.4,55.9z"
		/>
	<path class="st208" d="M43.4,60.9c-0.6-1.3-2.1-1.5-2.9-2.5c-0.7-0.5-1.4-1-0.8-2.1l0,0c1.3,0.1,2.4,0.8,3.6,1.5
		c0.2,0.2,0.5,0.4,0.7,0.7c0.9,1.1,2.1,0.3,3.1,0.3c2,0,2.5,0.6,1.9,2.6c0,0.4,0,0.8,0,1.2c0,1.4,0,2.8,0,4.1
		c-0.1,2.9-0.4,3.2-3.4,3.9c-1,0.2-1.9,0.3-2.9,0.3c0.1-1.2,1.3-1.1,2-1.3c2.2-0.8,2.5-1.6,1.5-3.7c-0.2-0.4-0.7-0.7-0.6-1.1
		C46,62.8,44.5,62,43.4,60.9z"/>
	<path class="st209" d="M43.4,60.9c1.3,0.8,3.7,0.8,2.4,3.4c-0.2,0.4,0.4,0.7,0.6,1c1.7,2.5,1.1,4-1.7,4.7c-0.7,0.2-1.5,0.3-2,0.8
		c-1.8,0.9-3.6,1.1-5.5,0.5c-1.4-0.4-2.6-1-2.1-3c0.3-1.3-0.9-2.7-0.7-4.2c1.7,0.9,1.7,2.7,2.1,4.3c0.1,0.5-0.1,1.2,0.4,1.6
		c2.1,1.7,4.1,0.3,6-0.4c1.4-0.5,2.3-1.5,1.8-3.2C43.9,64.7,44.6,62.6,43.4,60.9z"/>
	<path class="st210" d="M37.6,49.2c-1.8,0.7-2.3,3-4.2,3.8c0,0-0.2,0-0.2,0S33,53,33,53C33,50,33.9,49.3,37.6,49.2z"/>
	<path class="st211" d="M53,53c0-0.3,0-0.6,0.1-0.8c1-3,0.7-3.5-2.6-3.8c0.4-0.4,0.8-0.8,1.2-1.2c1.4,0.1,2.9-0.5,3.8,1.2
		c0.9,0.5,0.7,1.1,0.3,1.9c-0.4,0.6-0.7,1.3-1.3,1.8c-0.1,0-0.2,0.1-0.3,0.1C53.8,52.4,53.4,52.7,53,53z"/>
	<path class="st210" d="M46.7,48.8c-3.1-0.5-6.1,0.4-9.2,0.4c2.3-1,4.7-1.7,7.2-1.4C45.5,47.9,46.2,48.1,46.7,48.8z"/>
	<path class="st212" d="M90.9,49.2c-0.1,2.3,1.5,4.3,1.3,6.7c-0.8,0.2-0.8-0.6-1.3-0.9c0,1-0.5,1.8-1.1,2.6
		c-0.4,0.5-0.8,0.9-0.9,1.6c-0.3,2-0.6,2.2-2.7,1.8c-0.7-1.4,0.2-2.2,1-3.1c1.1-1.1,1.7-2.4,1.4-3.9c-0.1-1.1-0.7-1.6-1.8-1.1
		c-0.8,0.3-1.5,0.7-2.2,1.1c-0.9,0.4-2,0.2-2.1-0.6c-0.2-2.1-1.7-2.4-3.2-2.8c-2-1.4-3.2-4-6.2-3.8c2.1-0.8,3.6-3.1,6.2-2.4
		c1.2,0.5,2.3,1,3.3,1.8c1.5,1.6,3.5,2.4,5.3,3.5C89,50.4,89.8,48.6,90.9,49.2z"/>
	<path class="st213" d="M90.9,49.2c-2.7,1.6-2.6,1.5-5.8-0.9c-0.9-0.7-2.7-0.3-3-2.1c1.1-0.8,2.1-0.1,3.1,0.1
		c1.3,0.4,1.6-0.2,1.5-1.3c-0.1-0.7-0.4-1.4,0.1-2.2c1-0.9,2.3,0,3.4-0.4c0,0,0,0.1,0,0.1c0.2,0.3,0.1,0.6-0.1,0.8
		c-0.3,1.6,0.8,3,0.7,4.6C90.8,48.4,90.8,48.8,90.9,49.2z"/>
	<path class="st214" d="M86.8,43c0.2,0.7,0.4,1.5,0.5,2.2c0.2,1.9-0.2,2.2-2,1.7c-1-0.3-2-0.4-3-0.6c-1-0.7-2.4-0.8-2.9-2
		c1.5-1.7,3.4-2,5.5-2.1c-0.6,1.5-2.1,1.5-3.2,2.2c2.5,1.3,2.5,1.3,4-1.4C85.9,43.7,86.3,43.5,86.8,43z"/>
	<path class="st215" d="M85.5,43c-0.1,1.1,0,2.3-1.2,2.9c-0.8,0.4-2.8-0.6-4.2-1.9c1.9,0.1,3.1-1.2,4.6-1.7
		C85.6,41.7,85.4,42.6,85.5,43z"/>
	<path class="st216" d="M90,43.4c0-0.3,0.1-0.5,0.1-0.8c1.5,0,3-0.1,4.5-0.1c1.7-0.2,3.3-0.3,5,0c0.5,0,1.1,0,1.6,0
		c1.3,0.5,2.3,1.1,2.8,2.5c-0.1,0.4-0.3,0.5-0.7,0.5c-0.4,0-0.7-0.2-1-0.3c-2.8-0.2-5.5,0-8.3,0c-1,0-1.9,0-2.8-0.5
		C90.8,44.3,90.4,43.8,90,43.4z"/>
	<path class="st217" d="M99.6,42.5c-1.7,0-3.3,0-5,0c0.8-0.7,1.7-0.2,2.5-0.4C98,42.3,98.9,41.8,99.6,42.5z"/>
	<path class="st218" d="M109.2,35.1c0.5-0.9,0.6-2,1.6-2.5c0.1-0.1,0.2-0.1,0.3-0.2c0.2,0.1,0.4,0.2,0.5,0.4
		c0.2,0.8,0.1,1.5-0.7,1.9c0.9,2.7-1.3,4.5-2.1,6.6c-1.1-0.1-1.2-0.2-0.8-2.1c0-0.3,0-0.6,0-0.8c0-0.1,0-0.3,0-0.4
		C109.1,37.3,109.3,36.2,109.2,35.1z"/>
	<path class="st219" d="M103.8,43.8c0.3-1,0.6-2,0.8-2.9c0-0.7,0-1.4,0-2.1c1.6,0.5,3,1.2,2.1,3.3c0.5,1.8-0.1,3.2-1.5,4.3
		c-0.8,0-1.1-0.5-1.2-1.2C104.2,44.8,103.6,44.4,103.8,43.8z"/>
	<path class="st220" d="M105.1,46.4c1.2-1.2,1.3-2.8,1.7-4.2c1.4-0.5,0.3-2.1,1.2-2.9c0.2,0.7-0.5,1.8,0.8,2.1
		c-1.1,2.1-0.9,4.6-2.1,6.7c-0.2,0.2-0.5,0.2-0.8,0.2c-0.4-0.2-0.8-0.6-1-1C104.8,46.9,104.8,46.6,105.1,46.4z"/>
	<path class="st221" d="M103.8,43.8c0.2,0.5,0.5,0.9,0.4,1.4c-0.1,0.1-0.3,0-0.4-0.1c-0.6-1.1-1.6-1.9-2.6-2.6
		C102.5,42.3,103,43.4,103.8,43.8z"/>
	<path class="st222" d="M68.9,50.8c-2.1,1.6-4.4,2-7,1.2c-0.7-0.2-1.5-0.2-2.3-0.3c0-0.1,0-0.3,0-0.4c2.6-0.6,5.3-1.1,7.9-1.7
		C68.1,49.9,69.4,49.3,68.9,50.8z"/>
	<path class="st222" d="M54.2,53c0-0.3,0-0.6,0-0.8c0,0,0,0,0,0c0.7-0.9,1.3-1.9,2.5-2.1c0.6,1.2,2.1,0.5,2.9,1.2
		C57.5,50.9,55.9,51.9,54.2,53z"/>
	<path class="st206" d="M56.7,50.1c-0.6,0.9-1.7,1.4-2.5,2.1c0-1.4,2.2-2.1,1.3-3.8C56.6,48.4,56.8,49.2,56.7,50.1z"/>
	<path class="st223" d="M79.2,50.5c1.7,0,3.8-0.7,3.5,2.4c-0.1,0.8,0.8,1.2,1.5,0.6c0.8-0.6,1.8-0.7,2.6-1.3c1.5-1.1,2.1,0,2.3,1.1
		c0.4,1.8,0,3.4-1.4,4.7c-0.9,0.8-1.6,1.5-1.4,2.8c0.3,0.5-0.2,0.8-0.4,1.2c-0.4,0.2-0.8,0.3-1.3,0.5c1.3-1.2-0.1-2.3-0.2-3.5
		c-0.1-0.7-0.8-1.3,0.2-2c1-0.7-0.1-1.1-0.4-1.6c0-0.6-0.4-0.9-0.8-1C81.3,53.8,80.2,52.3,79.2,50.5z"/>
	<path class="st224" d="M71.8,52.2c0.3-0.8,0.9-1.3,1.6-1.8C73.8,51.9,73.8,51.9,71.8,52.2z"/>
	<path class="st225" d="M83.8,63c-0.1,0.2-0.3,0.5-0.4,0.7c-0.1,0-0.3,0-0.4,0.1c-0.2-2.8-1.1-4-3.7-4.6c-0.5-0.1-1.2,0.1-1.3-0.4
		c-0.5-1.9-2.4-2.4-3.3-3.8c1.2-0.9,2.4-1,3.6-0.1c0.6,0.4,1.2,0.6,2,0.5c1.1-0.1,1.8,0.1,1.2,1.5c-0.2,0.5-0.1,1.1,0.5,1.2
		c2.6,0.2,2.5,1.8,2,3.7C83.8,62.2,83.8,62.6,83.8,63z"/>
	<path class="st226" d="M75.9,73c-0.9-2.9-0.3-5.9-0.4-8.8c0-1,0.7-0.6,1.1-0.2c1.5,1.4,3.2,1.3,5,0.7c0.1,0,0.2,0.1,0.4,0.1
		c-0.2,0.2-0.4,0.5-0.6,0.7c-3.6,0.2-5.4,2-5,5.7c0.1,0.5-0.1,1-0.1,1.4C76.3,72.8,76.1,72.9,75.9,73z"/>
	<path class="st227" d="M75.9,73c0.1-0.1,0.3-0.3,0.4-0.4c0.5,0.3,1,0.5,1.7,0.4c0.7-0.6,1.4-0.5,2.1,0c0.1,0,0.2,0,0.4,0
		c-0.6,2.4-2.3,1.4-3.7,1.3C76.5,73.8,75.8,73.6,75.9,73z"/>
	<path class="st228" d="M85.5,69.7c0.1,1.1-0.4,1.7-1.6,1.6c-1.1,0-1.6-0.9-1.7-1.7C82.2,68.5,83,68,84,68
		C85.2,67.9,85.5,68.6,85.5,69.7z"/>
	<path class="st229" d="M80.1,72.9c-0.7,0-1.4,0-2.1,0c-1.2-1.7-1-3.2,0.4-4.7c0.4-0.4,0.6-1.1,1.3-0.8c0.5,0.2,0.4,0.8,0.4,1.3
		C80.1,70.2,80.1,71.6,80.1,72.9z"/>
	<path class="st230" d="M111.4,27.1c0-0.3,0-0.5,0-0.8c0.9,0.4,1.7,1.1,2.9,0.9c0.9-0.2,1.1,0.8,1.2,1.6c-0.9,0.7-1.8,1.5-2.5,2.5
		c-0.3,0.8-0.7,1.3-1.6,1.3l-0.1-0.1C111.7,30.7,111.4,28.9,111.4,27.1z"/>
	<path class="st231" d="M118.4,32.9c-0.4-0.1-0.9-0.3-1.3-0.4c-0.1-0.3-0.2-0.5-0.4-0.8c0.9-2.3,3.5-4,5.8-3.8
		c-0.1,0.9,0.2,1.1,1.2,0.9c2-0.2,3.7-1.8,5.9-1.3c-3.3,1.5-6.7,2.9-10,4.4C119.1,32.2,118.6,32.4,118.4,32.9z"/>
	<path class="st232" d="M122.6,28c-2.4,0.6-4.3,1.9-5.8,3.8c-0.3,0.1-0.6,0.3-0.9,0.4c-0.1-0.1-0.4-0.2-0.4-0.4
		c0.1-2.8,3.5-5.3,6.9-5.1c0.3,0,0.7,0.1,1,0.1C123.1,27.2,122.9,27.6,122.6,28z"/>
	<path class="st233" d="M115.5,31.7c0.1,0.1,0.3,0.3,0.4,0.4c-0.9,0.7-1.9,1.4-2.8,2.2c-0.7,0.7-1.4,0.8-2.2,0.3
		c0.2-0.7,0.3-1.4,0.5-2.1c0.5-0.4,1.1-0.9,1.6-1.3C113.8,31.4,114.6,31.9,115.5,31.7z"/>
	<path class="st234" d="M95.9,57.1c1.1,1.1,1.8,2.5,2.4,3.9c-0.1,1.4-1.2,1.8-2.4,2c-0.4-0.4-0.7-0.9-1.1-1.3
		c-0.2-0.8-0.3-1.6-0.6-2.4C93.6,57.6,94.1,56.9,95.9,57.1z"/>
	<path class="st235" d="M95.9,63c0.8-0.7,1.6-1.4,2.4-2c0.9,0.4,1.2,1.3,1.7,2c-0.6,0.9-1.1,1.9-1.5,2.9c-0.2,0.6-0.4,1.4-1.4,0.9
		c0-0.4,0-0.8,0-1.2c0.3-0.2,0.4-0.5,0.5-0.8c-0.2,0.2-0.3,0.6-0.5,0.7C96.7,64.7,95.9,64.1,95.9,63z"/>
	<path class="st236" d="M85.9,62.1c0.1-0.4,0.3-0.8,0.4-1.2c1.2-0.1,2.7,0.2,1.8-1.9c-0.2-0.5,0.3-0.9,0.7-1.2
		c1.1-1,1.9-2.1,1.5-3.7c1.4,0,1.1,1.4,1.8,1.8c0.8,1.5,0.4,3.1-0.1,4.6C89.9,60.4,87.9,61.2,85.9,62.1z"/>
	<path class="st237" d="M93.3,49.7c-0.4-0.6-0.8-1.1-1.2-1.7c-0.4-0.8,0.1-1.3,0.8-1.3c2.8-0.2,5.6-0.8,8.3,0.5
		c1.3,2.3,0.6,4.4-0.7,6.5c-0.8,0.6-1.3,0-1.9-0.5c-0.9-0.1-1.9-0.1-2.8-0.1c-0.2,0-0.4-0.1-0.5-0.2C94.6,51.9,94.1,50.7,93.3,49.7z
		"/>
	<path class="st238" d="M101.3,47.6c-2.7-0.8-5.5-0.3-8.2-0.4c-0.6,0-0.9,0.3-0.9,0.9c-0.6-1-0.7-2.2-0.9-3.3
		c3.9,0.1,7.8-0.3,11.7,0.3c-1.4,1.4-2.9-0.1-4.2,0.3c0.3,0.1,0.7,0,1.2,0c0.8,0.4,2,0.4,2.1,1.6C101.9,47.3,101.7,47.5,101.3,47.6z
		"/>
	<path class="st239" d="M95.5,52.8c0.1,0.1,0.3,0.2,0.4,0.2c0.6,0.1,0.8,0.5,1,1c0.7,1.8,2.7,3.1,2.7,5.3c0,0.4,0.3,1-0.3,1.2
		c-1.1-1.5-2.2-3.1-3.4-4.6c-1.1-0.5-1.5-1.5-2-2.5c-0.3-0.4-0.5-0.9-0.8-1.3c0-0.6-0.2-1.3,0.5-1.7C94.7,50.8,94.9,52,95.5,52.8z"
		/>
	<path class="st240" d="M95.5,52.8c-0.6-0.8-1.3-1.6-1.9-2.4c-0.1-0.2-0.2-0.5-0.3-0.7C94.6,50.3,95.3,51.4,95.5,52.8z"/>
	<path class="st241" d="M95.4,55.9c0,0.3,0.1,0.5,0.1,0.8c-1.8-0.3-2.9-0.9-1.6-2.9C94.7,54.2,95,55.1,95.4,55.9z"/>
	<path class="st242" d="M95.4,55.9c-0.5-0.7-1-1.4-1.5-2.1c0-0.1,0-0.3,0-0.4c1,0.5,1.4,1.6,2,2.5C95.7,55.9,95.5,55.9,95.4,55.9z"
		/>
	<path class="st243" d="M105.9,47.9c0.2,0,0.5,0.1,0.7,0.1c1.1,1.7,1.7,3.4,0.9,5.4c-0.2,0.3-0.5,0.7-0.7,1c-1.4,1.6-2.1,1.5-3-0.5
		C103.3,51.4,104.8,49.7,105.9,47.9z"/>
	<path class="st244" d="M101.3,47.6c0.1-0.1,0.3-0.3,0.4-0.4c1.4-0.1,1.9,1,2.4,2c0.1,1.6-0.5,3.1-0.7,4.7c-0.1,1.3-1.2,2.2-1.7,3.3
		c-0.6-1-1.9-1.8-1.7-3.3C101.1,51.9,101.4,49.8,101.3,47.6z"/>
	<path class="st245" d="M100.1,53.9c0.3,1.2,1.8,1.8,1.7,3.3c-0.4,0.6-0.8,1.2-1.2,1.8c-1.6-0.6-2.1-2-2.7-3.4
		c0.6-0.3,1.4-0.3,0.7-1.3c-0.3-0.4-1-1.3,0.3-1.6C99.2,53,99.7,53.4,100.1,53.9z"/>
	<path class="st246" d="M103.4,53.8c-0.1-1.7,0-3.3,0.4-4.9c0.3-0.7,0.5-1.5,1.3-1.8c0.3,0.3,0.5,0.6,0.8,0.8
		c-0.2,2.2-1.9,3.8-2.1,5.9C103.7,53.8,103.6,53.8,103.4,53.8z"/>
	<path class="st247" d="M98,55.5c0.7,1.3,1.5,2.5,2.6,3.5c-0.1,0.9,1.1,1.2,1,2.2c-0.4-0.3-0.7-0.5-1-0.7c-0.4-0.4-0.4-1-1-1.2
		c-1.1-1.7-2.1-3.4-3.2-5.1C97.5,53.8,97.8,54.5,98,55.5z"/>
	<path class="st248" d="M111.4,27.1c0.8,1.8,1.4,3.6,0,5.4c-0.1,0-0.3,0-0.4,0c-0.7-1.8-0.3-3.6,0-5.4
		C111.1,27.1,111.2,27.1,111.4,27.1z"/>
	<path class="st249" d="M43,58c-1.2-0.4-2.4-0.7-3.3-1.7c-0.1-1.7,1.1-2.8,1.9-4c0.7-1.1,2-0.6,2.4,0.3c1.2,2.6,4.6,2.5,5.9,5.1
		c0.5,1,1.3-0.3,1.9-0.5c0,0.7,0,1.4,0,2.1c-1,0.7-1.7,1.7-2.9,2.1c-0.1-2.3-0.4-2.5-2.9-1.9c-1.1,0.2-2.2,0.7-2.6-1
		c0.8-0.7,1.4-1.5,1-2.7c-0.2-0.5-0.2-1.2-1-0.9c-0.6,0.2-0.9,0.6-0.7,1.3C42.8,56.7,43.5,57.2,43,58z"/>
	<path class="st250" d="M43.4,64.7c0,3.5-0.7,4.2-4.2,4.8c-1.2,0.2-1.8-0.3-1.9-1.3c-0.3-1.9-0.8-3.5-2.3-4.7
		c-0.7-0.6-0.5-1,0.2-1.4c0.7-0.4,1.4-0.9,1.5-1.6c0.4-2.7,1.4-2.1,3.1-0.8C42.5,61.8,43.4,62.7,43.4,64.7z"/>
	<path class="st209" d="M39.6,56.3c-0.2,0.9,0.5,1.4,0.8,2.1c-1.6-0.1-1.2-1.9-2.1-2.5C38.8,56,39.2,56.2,39.6,56.3z"/>
	<path class="st251" d="M51.7,55.1c-1.3,0.8-2.4,0.7-3-0.9c-0.3-0.7-1-1-1.6-1.1c-1-0.1-1.7-0.6-2.2-1.3c-0.4-0.4-1.2-0.7-0.9-1.5
		c0.3-0.8,1-0.1,1.5-0.2c1.5-0.5,3.1-0.4,4.7-0.4c2,0.1,2.7,1.2,1.9,3C51.7,53.5,51.7,54.2,51.7,55.1C51.7,55.1,51.7,55.1,51.7,55.1
		z"/>
	<path class="st252" d="M43,58c0-0.5-0.3-0.9-0.6-1.3c-0.5-0.5-0.9-1-0.4-1.6c0.6-0.6,1.2-1.3,2.1-1.2c0.8,0.1,0.6,1,0.7,1.5
		c0.3,1.3,0.9,2.9-1.4,3C43.2,58.3,43.1,58.1,43,58z"/>
	<path class="st253" d="M105.2,47.1c-0.5,0.6-0.3,1.6-1.3,1.8c-0.7-0.6-1.4-1.1-2.1-1.7c0-1.1-1.5-0.7-1.7-1.7
		c1.2-0.4,2.3-0.3,3.5-0.1c0.1-0.1,0.2-0.2,0.3-0.3c0.1,0,0.3,0.1,0.4,0.1c0.3,0.4,0.6,0.8,0.8,1.1
		C105.1,46.6,105.1,46.8,105.2,47.1z"/>
	<path class="st254" d="M103.6,45.4c-1.2,0-2.3,0-3.5,0.1c-0.9,0-1.9,0-2.8,0c0-0.2,0-0.3,0-0.5c1.9,0,3.8,0,5.7,0
		C103.1,45.1,103.4,45.3,103.6,45.4z"/>
	<path class="st255" d="M97.2,65.5c0-0.2,0-0.4,0-0.6c0-0.5-0.2-1.2,0.6-1.4c0.4-0.1,0.8,0.3,0.6,0.6C98,64.6,98.6,65.9,97.2,65.5
		C97.2,65.5,97.2,65.5,97.2,65.5z"/>
	<path class="st244" d="M98,55.5c-0.6-0.4-0.7-1.3-1.6-1.3c-0.2-0.4-0.3-0.8-0.5-1.1c0.2-0.2,2.8-0.6,2.9-0.5
		c-0.7,1.5,1,2.2,1.1,3.4C99.1,56.5,98.7,55.2,98,55.5z"/>
</g>
</svg>
