<?xml version="1.0" encoding="utf-8"?>
<!-- Generator: Adobe Illustrator 22.0.1, SVG Export Plug-In . SVG Version: 6.00 Build 0)  -->
<svg version="1.1" id="Layer_1" xmlns="http://www.w3.org/2000/svg" xmlns:xlink="http://www.w3.org/1999/xlink" x="0px" y="0px"
	 viewBox="0 0 360 240" style="enable-background:new 0 0 360 240;" xml:space="preserve">
<style type="text/css">
	.st0{fill:#302F2F;}
	.st1{fill:#E0E3E8;}
	.st2{fill:#E6D9D4;}
	.st3{fill:#FBDAC1;}
	.st4{fill:#E1B69B;}
	.st5{fill:#F8D4B9;}
	.st6{fill:#D2D6E0;}
	.st7{fill:#FAE5D7;}
	.st8{fill:#E0BCA7;}
	.st9{fill:#E3DBD8;}
	.st10{fill:#EEEAE6;}
	.st11{fill:#F3CDB0;}
	.st12{fill:#F5BF8E;}
	.st13{fill:#F4C9A6;}
	.st14{fill:#C8BEBF;}
	.st15{fill:#E1CFCA;}
	.st16{fill:#FEE4CE;}
	.st17{fill:#FCDABF;}
	.st18{fill:#E6CABC;}
	.st19{fill:#D3CCD3;}
	.st20{fill:#DBCDCF;}
	.st21{fill:#F3B477;}
	.st22{fill:#FFF5EE;}
	.st23{fill:#FAE9D8;}
	.st24{fill:#F0AA62;}
	.st25{fill:#745333;}
	.st26{fill:#FCC082;}
	.st27{fill:#FDCD92;}
	.st28{fill:#FFD49A;}
	.st29{fill:#F9CBA4;}
	.st30{fill:#F6BB74;}
	.st31{fill:#534336;}
	.st32{fill:#524034;}
	.st33{fill:#FEEDDC;}
	.st34{fill:#FEE5C8;}
	.st35{fill:#FEDDB1;}
	.st36{fill:#6C4F36;}
	.st37{fill:#806048;}
	.st38{fill:#FDEAD9;}
	.st39{fill:#555054;}
	.st40{fill:#FDDAAF;}
	.st41{fill:#F79F40;}
	.st42{fill:#6B7183;}
	.st43{fill:#DDB090;}
	.st44{fill:#FBF0E9;}
	.st45{fill:#CDD4DB;}
	.st46{fill:#CCD1D8;}
	.st47{fill:#FEEACE;}
	.st48{fill:#BDC8CC;}
	.st49{fill:#A4ACA9;}
	.st50{fill:#A7A9A5;}
	.st51{fill:#949A92;}
	.st52{fill:#F9F7F5;}
	.st53{fill:#B2BEBF;}
	.st54{fill:#ACADAF;}
	.st55{fill:#EFB872;}
	.st56{fill:#D59D73;}
	.st57{fill:#86695F;}
	.st58{fill:#5F5E5E;}
	.st59{fill:#E0A164;}
	.st60{fill:#ABAFAA;}
	.st61{fill:#B2B4B1;}
	.st62{fill:#FBD19E;}
	.st63{fill:#FBD29E;}
	.st64{fill:#274B96;}
	.st65{fill:#8D99A8;}
	.st66{fill:#99A7C5;}
	.st67{fill:#A7AAA4;}
	.st68{fill:#ABB5CC;}
	.st69{fill:#B1B3B5;}
	.st70{fill:#FDE3CA;}
	.st71{fill:#FBDCB1;}
	.st72{fill:#8A9CC4;}
	.st73{fill:#595750;}
	.st74{fill:#757068;}
	.st75{fill:#AEB5BD;}
	.st76{fill:#3E3C3D;}
	.st77{fill:#CBD0D3;}
	.st78{fill:#333333;}
	.st79{fill:#434344;}
	.st80{fill:#565D66;}
	.st81{fill:#DCA373;}
	.st82{fill:#665854;}
	.st83{fill:#B3876B;}
	.st84{fill:#A16F3A;}
	.st85{fill:#FCD5B2;}
	.st86{fill:#E9AC62;}
	.st87{fill:#EEBA91;}
	.st88{fill:#F2C19C;}
	.st89{fill:#DBAA86;}
	.st90{fill:#CFA185;}
	.st91{fill:#383433;}
	.st92{fill:#C9916A;}
	.st93{fill:#F1B789;}
	.st94{fill:#DA9E73;}
	.st95{fill:#E6A97C;}
	.st96{fill:#F6D3B9;}
	.st97{fill:#DAA474;}
	.st98{fill:#D7C5C5;}
	.st99{fill:#A79697;}
	.st100{fill:#FCCEA0;}
	.st101{fill:#323232;}
	.st102{fill:#333233;}
	.st103{fill:#B0A2A7;}
	.st104{fill:#3D393A;}
	.st105{fill:#95878C;}
	.st106{fill:#DAA47A;}
	.st107{fill:#555053;}
	.st108{fill:#353334;}
	.st109{fill:#3E3B3C;}
	.st110{fill:#A49396;}
	.st111{fill:#F8B46C;}
	.st112{fill:#FDD5A4;}
	.st113{fill:#FACBA1;}
	.st114{fill:#FDE5CE;}
	.st115{fill:#F8C594;}
	.st116{fill:#E4AD7F;}
	.st117{fill:#F7D1AE;}
	.st118{fill:#F5E3D3;}
	.st119{fill:#FCDAB4;}
	.st120{fill:#835731;}
	.st121{fill:#E3B08C;}
	.st122{fill:#A56B32;}
	.st123{fill:#F3DFD2;}
	.st124{fill:#735035;}
	.st125{fill:#C47E37;}
	.st126{fill:#9F6632;}
	.st127{fill:#3A3330;}
	.st128{fill:#B19280;}
	.st129{fill:#DBBAA4;}
	.st130{fill:#332C29;}
	.st131{fill:#29314A;}
	.st132{fill:#BABFC1;}
	.st133{fill:#A7ADB3;}
	.st134{fill:#FDD09D;}
	.st135{fill:#AEB8B9;}
	.st136{fill:#A3A6A0;}
	.st137{fill:#BBC4C3;}
	.st138{fill:#353534;}
	.st139{fill:#5C5C59;}
	.st140{fill:#B9BCBB;}
	.st141{fill:#443C34;}
	.st142{fill:#ADB6CE;}
	.st143{fill:#4A403A;}
	.st144{fill:#35312F;}
	.st145{fill:#373333;}
	.st146{fill:#403938;}
	.st147{fill:#BE947C;}
	.st148{fill:#937B76;}
	.st149{fill:#3C3737;}
	.st150{fill:#7C5A3B;}
	.st151{fill:#84847E;}
	.st152{fill:#A0A9AC;}
	.st153{fill:#D5B39C;}
	.st154{fill:#967B70;}
	.st155{fill:#685C58;}
	.st156{fill:#FBD2AC;}
	.st157{fill:#9E7349;}
	.st158{fill:#B28A67;}
	.st159{fill:#543F32;}
	.st160{fill:#E9C6B3;}
	.st161{fill:#F6C79D;}
	.st162{fill:#C38E6D;}
	.st163{fill:#EDB78E;}
	.st164{fill:#DCA27A;}
	.st165{fill:#C1B5B7;}
	.st166{fill:#A97D66;}
	.st167{fill:#373230;}
	.st168{fill:#4C4647;}
	.st169{fill:#4F4847;}
	.st170{fill:#9E8A88;}
	.st171{fill:#A58B8B;}
	.st172{fill:#A18D8B;}
	.st173{fill:#3A3635;}
	.st174{fill:#BFA6A1;}
	.st175{fill:#F9BF82;}
	.st176{fill:#634935;}
	.st177{fill:#835C3D;}
	.st178{fill:#F5E6DD;}
	.st179{fill:#43423E;}
	.st180{fill:#7A7B79;}
	.st181{fill:#3A3937;}
	.st182{fill:#444240;}
	.st183{fill:#949691;}
	.st184{fill:#7D7C79;}
	.st185{fill:#5F5E5C;}
	.st186{fill:#353330;}
	.st187{fill:#3B3632;}
	.st188{fill:#383333;}
	.st189{fill:#2B2B2B;}
	.st190{fill:#332F2E;}
	.st191{fill:#76645F;}
	.st192{fill:#302E2D;}
	.st193{fill:#7C665C;}
	.st194{fill:#5D4738;}
	.st195{fill:#59412D;}
	.st196{fill:#5D4535;}
	.st197{fill:#C89C82;}
	.st198{fill:#EEC6A2;}
	.st199{fill:#3E3939;}
	.st200{fill:#A88475;}
	.st201{fill:#A28985;}
	.st202{fill:#DCC2C0;}
	.st203{fill:#BC988D;}
	.st204{fill:#333131;}
	.st205{fill:#302E2E;}
	.st206{fill:#484242;}
	.st207{fill:#A89392;}
	.st208{fill:#5D504C;}
	.st209{fill:#A47D60;}
	.st210{fill:#262626;}
	.st211{fill:#A58170;}
	.st212{fill:#B1886B;}
	.st213{fill:#A17C5D;}
	.st214{fill:#B68D6E;}
	.st215{fill:#3C3635;}
	.st216{fill:#48403F;}
	.st217{fill:#B29084;}
	.st218{fill:#4B3E39;}
	.st219{fill:#322E2C;}
	.st220{fill:#2A2827;}
</style>
<g>
	<g>
		<path class="st0" d="M1.5,19.5c0-5,0-10,0-15C3.6,2.7,6.2,2.9,8.6,3c17.6,0.8,35.1,1.6,52.7,2.7c2.6,0.9,5.3,1.2,8.1,1.1
			c21.9-0.2,43.6,2.8,65.4,3.4c6.6,0.2,13.3,1.1,20,1.1c2.2,0,4.4,0,6.5,0.5c5.9,1.8,13.5,0.2,16.5,8c0.3,0.7,0.6,1.4,0.8,2.2
			c0.5,2.6,0.3,5.3,1.3,7.8c0.2,0.7,0.4,1.5,0.5,2.2c0.1,2.7,0.6,5.4,1.4,8c2,13.6,3.8,27.3,5.9,40.9c2.1,14.3,3.6,28.6,6.1,42.8
			c0.2,4.9,2.1,9.8,0.9,14.8c-7.3,9.5-17.7,13.9-28.6,17.7c-10.3,3.6-20.4,7.8-30.6,11.8c-23.8,8.9-47.5,18.1-71.3,26.9
			c-1.9,0.7-3.7,1.5-5.7,1.6c-11.9-3.3-21.7,3.8-32.3,6.5c-2.9,0.7-5.4,2.6-8.6,1.8c-4.6-1.9-5.3-6.2-6.1-10.3
			c-3-15.8-7.6-31.2-8.8-47.3c-0.1-1.2-0.3-2.5-1.1-3.4c0-19.5,0-39,0-58.5c4.8,0.4,4.7,4.6,5.3,7.7c2.9,13.6,5.5,27.3,8.3,40.9
			c0.3,2,0.7,4,1.4,5.9c2.2,12.9,5.4,25.7,7.9,38.6c0.5,3,1.3,5.4,5.2,4.1c13.8-4.6,28-8.5,41-15.4c10.8-0.7,20.6-5.2,30.7-8.4
			c5.8-1.7,11.5-4,17.2-5.9c2.6-0.9,4-2.5,5.2-4.6c1-1.1,2.2-1.8,3.5-2.4c5.5-1,10.2-5.8,16.6-2.4c2.5,1.3,4.8-2.8,7.7-3.5
			c4-0.1,7.2-0.8,10.2-4.5c2.6-3.4,7.8-4,11.9-5.7c1.6-0.6,3.3-1.1,5-1.4c4.5-0.8,6.4-3.4,5.3-7.9c-1.1-4.6-1-9.3-2.2-13.8
			c-0.2-0.7-0.3-1.4-0.5-2.1c-0.2-3.4-1-6.7-1.6-10c-0.1-0.8-0.2-1.5-0.2-2.3c-0.5-7.8-3.4-15.3-4.3-23c-0.2-1.6-0.2-3.1-0.2-4.7
			c-0.2-3.1,0.2-6.2-0.9-9.2c-0.7-4.9-1.3-9.8-2.1-14.6c-0.3-2.9-0.1-5.8-1.1-8.6c-0.3-0.7-0.5-1.4-0.7-2.1
			c-1.6-2.4-4.2-2.6-6.5-2.9c-13.2-1.8-26.5-1.5-39.7,0.1c-7.3,2-13.6-3.7-20.9-2.7c-4.8,0.6-9.8-0.1-14.8,0.3
			c-16.4,0.1-32.7-2.3-49-1.6c-10.8,0.6-21.5-2-32.3-1.6C4.8,21.8,3,20.9,1.5,19.5z"/>
		<path class="st1" d="M13.5,134.9c-3.1-14.4-6.1-28.8-9.2-43.2c-0.5-2.2,0.3-5.2-2.8-6.3c0-10,0-20,0-30c2.1-2.8,1.4-6.2,1.5-9.3
			c0.1-3.3,0.4-6.4,3.7-8.4c7.9-1.8,15.8-0.7,23.7-0.8c2.7,0.3,5,1.5,5.4,4.3c1,7.2,6.4,8.1,12,8.8c4.9,0.6,10-0.7,14.8,1.4
			c3.1,2.8,1.4,5.8,0.2,8.8c-1.4,3.4-3.5,6.5-5.2,9.7c-1.5,2.5,0.1,5.5-1.3,8c-1.4,1.3-2.4,2.8-3,4.8c0.9-2.1,1.9-3.9,4.2-4.5
			c6.4,1.3,11.6,4.7,15.9,9.5c2.5,5.4,3.1,11.8,8.5,15.7c1.2,0.9,1.4,2.5-0.3,3.6c-0.7,0.3-1.4,0.4-2.1,0.4
			c-3.7,0.2-6.6-4.8-10.1-2.7c-3,1.9-3.3,6.4-5.4,9.5c-1.1,1.6-2,3.4-3.8,4.4c-4.1-1.4-7.4-0.4-10.8,2.2c-4.1,3.1-8.3,6.1-13.6,7.3
			c-3.6,0.8-5.6,4-7.4,6.9c-2.5,4.1-5.2,3.9-8.3,0.8C17.9,135.1,15.3,137,13.5,134.9z"/>
		<path class="st2" d="M361.5,147c0,22,0,44,0,66c-4,10.8-8.6,21.1-18,28.5c-24,0-48,0-72,0c0.3-6.7,5.8-9.9,10-13
			c14.6-10.5,25-25,37.6-37.3c1-1,2.4-1.7,2.1-3.5c-1-1.9-3.7-2.3-4.2-4.7c0-2.4-0.6-4.8,1.3-6.8c1.6-1,3.4-1.1,5.1-1.2
			c6.5-0.7,10.1-5.9,14.6-9.6c5.3-4.5,9.6-10.1,15.1-14.4C355.6,149.2,357.7,146.1,361.5,147z"/>
		<path class="st3" d="M292.5,1.5c6.5,0,13,0,19.5,0c7,7.9,7.5,11.5,3.2,20.6c-2.2,4.7-4,9.6-5.6,14.6c-2.7,8.4-6.5,16-12.5,22.6
			c-3.2,3.5-5.7,7-3.4,12.6c2.5,6.4-4.2,5.8-7.4,7.8c-4.2,1.8-8.7,2.2-13.1,2.3c-8.8,0.3-13.1-6.5-8.9-14.1
			c2.3-4.1,1.5-8.8,3.1-12.9c4.2-10.8,8-21.8,11.3-32.9c3.1-3.3,8.6,0.4,11.2-3.9C291.1,12.7,288.5,6.6,292.5,1.5z"/>
		<path class="st4" d="M252,241.5c-6.5,0-13,0-19.5,0c-8.7-3.4-11.5-9.5-12.4-18.9c-0.9-9.4-3.3-18.9-4.8-28.4
			c3.3-6.7,10.3-8.5,16-12c8.6,0.1,15.9,4.4,23.8,6.9c6.9,3,14.6,4.2,20.8,8.9c-2.6,5.1-2.8,5.1-10.9,1.6c-2.9-2.1-6.4-2.7-9.9-3.3
			c-7.8-1.3-13.2,3.5-12.3,11.5c0.7,5.9,2,11.8,2.8,17.8c0.7,4.9,3.3,6.4,7.9,4c2.2-1.1,4.6-2.1,7.1-0.6c0.5,0.5,0.8,1.2,0.9,1.9
			C261.2,237.1,257.3,239.9,252,241.5z"/>
		<path class="st5" d="M286.5,78c4.9-1.5,8.4-3.4,3.8-9.1c-2-2.5,0.2-4.6,2-6.4c10.4-10.9,14-25.2,20.2-38.3
			c4.1-8.7,2.9-15.2-0.5-22.6c11.5,0,23,0,34.5,0c2.9,4.8,0.7,9.5-1.5,13.3c-5,8.4-10.2,16.9-18.6,22.6c-7.3,1.8-9.5,9.2-14.5,13.5
			c-5,4.4-8.9,10.1-12.4,15.9c-1.1,1.7-1.7,3.4-1.9,5.5C297.1,79.3,294,80.8,286.5,78z"/>
		<path class="st6" d="M63.4,52.6c-6.9-0.8-13.9,0.8-20.8-1.1c-5.3-1.5-10.3-2.6-8.5-10.1c0.5-1.8-1.5-2.2-3-2.6
			c2.2-4.1,5.6-1.2,10.1-2.2c-11.8,1-21.9,1-32.1,0.9c-2.7,0-5.5,0.9-7.8-1.5c0-5.5,0-11,0-16.5C14,20,26.5,20.6,39,21.1
			c3.1,1.6,5,3.8,7,6.9c2.8,4.4,7.3,8.4,13.2,9.9c10.1,2.6,19.5,7,30.4,9.8c-5.1,5.9-11.3,2.4-16.1,4.7
			C70.1,52.8,66.8,53.8,63.4,52.6z"/>
		<path class="st7" d="M361.5,130.5c0,4.5,0,9,0,13.5c-0.5,0.5-1.2,0.6-1.8,0.3c-2.3-2.2-5.1-3.2-8.2-3.7
			c-7.2-1.9-14.4-3.4-21.5-5.6c-3.9-1.3-8.1-1.5-12-3c-3.8-1.5-8.2-0.6-11.7-3.3c-0.6-0.5-1.1-1-1.5-1.6c-1.3-2.2-3.7-2.7-5.8-3
			c-10.4-1.7-19.9-6.4-29.8-9.7c-4-1.3-8.4-2.4-8.7-7.9c0.7-1,1.7-1.6,2.8-2c2.7-1.1,5.4-1.5,8.3-1.5c4.5-0.3,9,0.5,13.3,1.7
			c12.7,3.6,25.7,6,38.3,9.4C336.6,117.7,350,122.2,361.5,130.5z"/>
		<path class="st8" d="M216,193.6c2.3,3.7,3.5,7.6,3,12c-0.4,3.8,0.3,7.4,2.4,10.7c0.8,1.3,2.1,3,1.7,4c-3.7,10.2,3.4,15.4,9.4,21.1
			c-3.5,0-7,0-10.5,0c-12.9-10.4-27.8-17.3-42.6-24.2c-0.6-0.4-1.1-1-1.4-1.6c0-0.8,0.2-1.4,0.7-2c9.7-7,20.1-12.6,30.4-18.6
			C211.1,193.8,213.3,192.3,216,193.6z"/>
		<path class="st9" d="M54,241.5c-16.3,0-32.5-0.1-48.7,0.1c-3.2,0-4.1-0.6-3.8-3.9c0.4-4.2,0.1-8.5,0.1-12.7
			c3-3.4,7.2-5.1,10.8-7.7c3.4-2.5,6.4-5.3,8.5-9c1.5-0.4,2.5,0.3,3,1.5c4.5,11.4,14.9,16.7,24,23.5C50.6,235.4,54.7,236.7,54,241.5
			z"/>
		<path class="st10" d="M21.1,208.4c0.7,8.3-7.5,8.9-11.5,13.1c-1.9,2-5.3,2.4-8.1,3.5c0-27,0-54,0-81c3.1,1.1,2.3,4.1,2.8,6.3
			c3.2,14.9,6.2,29.8,9.4,44.6c0.7,3.4,1.1,7,4.2,9.3c0.7,0.5,1.4,1,2.3,1.4c0.5,0.3,0.9,0.7,1.3,1.2
			C21.6,207.4,21.5,207.9,21.1,208.4z"/>
		<path class="st11" d="M325.5,36c9.9-9.8,19.8-19.5,21-34.5c5,0,12-2,14.5,0.5c2.5,2.5,0.5,9.5,0.5,14.5c-3.2,3.1-5.7,6.2-6.7,11
			c-1.2,6-7.2,8.8-12.3,10.9c-9.5,3.9-16.9,10-23.1,17.9c-1.2,1.5-2.4,3.4-4.9,1.9C313.2,48.4,317.9,41.5,325.5,36z"/>
		<path class="st12" d="M361.5,48c0,6,0,12,0,18c-1.8,3.3-4.6,3.1-7.8,2.7c-10.6-1.3-20.3,2.9-23.5,12.6c-2.8,8.6-8,14-15.3,18.3
			c-2.4,1-4.5,0.5-6.3-1.4c-2.3-4.4,0.2-7.2,3.6-9.2c4.6-2.7,6.5-6,6.2-11.6c-0.5-8,8.1-18.4,16.1-20c2.6-0.5,4.6-1.6,6.4-3.5
			c5.1-5.4,11.1-8.2,18.7-6.7C360.3,47.3,361,47.5,361.5,48z"/>
		<path class="st13" d="M361.5,48c-0.5,0-1,0-1.5,0c-13.8-1.9-24.9,4.3-34.6,13c-5.3,4.8-12.8,8-14.3,16.3c-0.2,1-1.5,1.2-2.5,0.7
			c-3.8-7.7-2.2-12.6,6.4-19.5c4.2-1.8,4.9-6.5,7.8-9.6c7-7.4,16.4-10.1,24.4-15.5c4-2.7,7.4-4.9,6.4-11.2c-0.7-4,4.8-4.3,7.9-5.8
			C361.5,27,361.5,37.5,361.5,48z"/>
		<path class="st14" d="M21.1,208.4c0-0.5,0-1-0.1-1.5c3.3-2,5.6,0.5,8,2.1c3,1.9,6,4,9.6,3.3c8-1.6,15.1,0.1,21.9,4.4
			c1.6,1,3.7,1.4,5.6,1.7c3.1,0.2,5.9,1,8.1,3.3c2.4,2.5,5.5,3.8,8.4,5.6c1.4,1.2,2.2,3.2,4.1,3.9c4.3,2.7,8,0.9,11.9-1.1
			c2.6-1.4,5-3.2,8-4c2.2,0.1,3.1,1.6,3.6,3.5c0,0.7-0.2,1.4-0.6,2c-4.7,3-9.5,5.6-13.9,9c-8-2.8-16.2-4.9-23.4-9.7
			c-5.4-3.6-12.1-2.3-18.2-3.6c-3.2-0.7-6.3-1-7.8-2c5.7,2.8,10.8,8.8,17.3,13c1,0.7,1.6,1.9,1,3.3c-3.5,0-7,0-10.5,0
			c-4.7-7.1-12.9-10-19.2-15.1C28.5,221.4,24,215.7,21.1,208.4z"/>
		<path class="st15" d="M190.5,241.5c-12.5,0-25,0-37.5,0c-3.5-4.9-2.5-10.3-1.4-15.6c6.4-7.9,19.7-12.8,26.9-9.9l0,0
			C183.8,223.9,190,231.3,190.5,241.5z"/>
		<path class="st16" d="M361.5,130.5c-10.7-3.9-21.5-7.3-31.6-12.6c-3.6-1.9-7.5-2.6-11.4-2.9c-12.5-1-23.9-6.1-36-8.7
			c-3.7-0.8-7.3-1.3-11-1.3c-2.8-3.2-8-4-9.3-8.8c-0.4-1.9-1-3.8-0.1-5.8c1.6-2,3.8-2.2,6-1.8c6.7,1.4,13.6,1.7,20.1,4.2
			c0.7,0.4,1.4,0.8,2,1.4c3,10,11.7,11.4,20,12.7c14.8,2.3,29.1,6.2,43.1,11.3c3,1.1,6.1,2,8.3,4.7
			C361.5,125.5,361.5,128,361.5,130.5z"/>
		<path class="st17" d="M361.5,123c-19.1-6.3-38.2-12.1-58.1-15.3c-10.5-1.7-13.6-5.6-13.9-13.1c7.1-2.8,13.3-0.1,19.5,3
			c1.9,1.1,3.8,1.8,6,1.4c0.4,0.1,0.8,0.1,1.1,0.2c10.2,6.5,21.8,9,33.4,11.3c4.1,0.8,8.4,0.7,11.9,3.6
			C361.5,117,361.5,120,361.5,123z"/>
		<path class="st18" d="M190.5,241.5c-3.3-8.8-9.5-16.3-12-25.5c16,6,32.1,11.6,43.5,25.5C211.5,241.5,201,241.5,190.5,241.5z"/>
		<path class="st19" d="M64.5,241.5c-8.3-6.5-16.6-12.9-25.9-20.1c6.4-1.1,9.9,4,15.2,3.8c15.8-0.5,28.6,8.9,42.5,14.6
			c1.6-0.6,2.9-0.6,2.7,1.7C87.5,241.5,76,241.5,64.5,241.5z"/>
		<path class="st20" d="M153,225c0,5.5,0,11,0,16.5c-12.5,0-25,0-37.5,0c0.8-5.1-6.3-5.5-6.1-10.2c0.1-0.5,0.1-1,0.2-1.5
			c-1.5-3.4-0.2-4.2,3-3.4c2.5,2.4,4.8,5,7.9,6.7c3.2,1.6,6.2,0.7,8-1.8c2.4-3.5-2.2-3.5-3.5-5.1c-0.6-0.7-1.6-1.2-2.3-1.9
			c-0.7-0.9-1-1.9-1.1-3c0-0.7,0.1-1.4,0.3-2.1c0.4-1,1.1-1.8,2.3-1.9c1.9,0.1,3.3,1.1,4.3,2.6c3.3,4.3,7.5,6.6,13.1,6
			C145.3,225.5,149,222.5,153,225z"/>
		<path class="st21" d="M361.5,69c0,4,0,8,0,12c-1.9,2.2-4.7,2.6-7.1,3.8c-4,2-7.5,4.1-9.4,8.8c-1.9,4.7-6.3,7.5-11,9.3
			c-1.2,0.1-2.2-0.2-3-1.2c-0.3-6.7,1.3-13.2,1.4-19.9c0.1-5.7,13.2-14.2,20.4-13.9C355.6,68.1,358.8,67.4,361.5,69z"/>
		<path class="st22" d="M208.5,1.5c9,0,18,0,27,0c2.7,6.6-0.8,12.4-2.7,18.4c-1.8,1.5-4,1.6-6.2,1.8c-4.2,0-8.5,0-12.7-0.5
			c-2.9-1.2-6.5-0.8-8.9-3.3c-0.4-0.7-0.7-1.4-0.8-2.1c-0.1-2.2,0.6-4.4,1-6.5c0.1-0.7,0.3-1.4,0.5-2.1C206.4,5.1,206.9,3,208.5,1.5
			z"/>
		<path class="st23" d="M161.3,13.6c-1.6,0-3.2-0.1-4.8-0.1c-10.9-1-21.7-2-32.6-3C110.3,9.3,96.6,8.9,83,7.2
			c-5.5-0.7-10.9-0.6-16.2,0.9c-3-1.8-5.9-3.3-9.6-3.2c-2.3,0-5.8,0.6-6.2-3.5c12.5,0,25,0,37.5,0c11.3,1.7,22.8,1.5,34.2,2.1
			c13.5,0.7,26.8,2.9,40.3,3.7c6.2,1.6,12.5,2.2,18.9,2.6c4.1,0.3,8.4,0.4,11.7,3.5c0.4,1.7-0.7,2.5-2,3.1
			c-5.9,1.2-11.7,1.6-17.3-1.2C170.1,13.1,165.5,15.2,161.3,13.6z"/>
		<path class="st24" d="M334.6,101.9c7.8-3.7,8.8-13.7,16.6-17.5c3.4-1.7,6.6-3.2,10.4-3.4c0,8.5,0,17,0,25.5
			C351.7,110,342.9,107.4,334.6,101.9z"/>
		<path class="st25" d="M320.9,192.1c-12.8,16.1-28.2,29.5-43.8,42.8c-2.2,1.8-4.9,3.4-5.6,6.7c-2.5,0-5,0-7.5,0
			c-0.8-4,2.4-5.7,4.6-7.8c15.9-15.6,32.6-30.5,48-46.6C319.7,187.3,321.6,188.6,320.9,192.1z"/>
		<path class="st26" d="M361.5,69c-7-0.8-13.2,1.3-19.1,4.8c-5.5,3.3-10.2,6.6-8.1,14.5c1.2,4.5-1.6,9.1-2.8,13.6
			c-6.1,2.6-11.3-0.4-16.5-2.9c0,0,0-0.1,0-0.1c0.1-2.3,1.2-3.6,3.4-4.4c5.3-1.8,7.7-5.8,8.6-11.1c1.9-10.3,15.5-19.3,25.9-16.9
			c3.1,0.7,5.8,1.2,8.6-0.5C361.5,67,361.5,68,361.5,69z"/>
		<path class="st27" d="M163.4,9c-20.5-0.8-40.8-3.4-61.2-5.8c-4.6-0.5-9.5,1.1-13.7-1.8c20,0,40,0,60,0c5.2,1.2,10.6,1,15.9,1.5
			c3,0.3,5.9,0.4,8.1,2.7C171,10.8,166.9,9.1,163.4,9z"/>
		<path class="st28" d="M292.5,1.5c0,6.5,0,13-0.1,19.6c-6.2-0.9-12.7,1.7-18.7-1.7c-2.3-6.1-2.9-12.1,0.7-17.9
			C280.5,1.5,286.5,1.5,292.5,1.5z"/>
		<path class="st29" d="M315,99c5.7-0.1,11,1.9,16.5,2.9c1,0,2,0,3-0.1c8.9,2,17.7,4.7,26.9,4.6c0,2.5,0,5,0,7.5
			c-13.5-0.9-26.5-4-39-9.1C319.4,103.7,316.5,102.2,315,99z"/>
		<path class="st30" d="M51,1.5c2.7,2.5,6.1,1.2,9.2,1.6c2.8,0.4,5.6,0.4,5.9,4.1c-1.6,1.6-3.3,1.1-5,0.4c-19.9-1-39.7-2.1-59.6-3.1
			c-0.9-3.7,1.8-3,3.8-3C20.5,1.5,35.8,1.5,51,1.5z"/>
		<path class="st31" d="M343.5,241.5c6-9.5,12-19,18-28.5c0,8.5-0.1,17,0.1,25.5c0.1,2.6-0.5,3.2-3.1,3.1
			C353.5,241.3,348.5,241.5,343.5,241.5z"/>
		<path class="st32" d="M316.4,187.6c0,3.5-2.9,5.1-4.9,7.1c-14,13.6-28.1,27.1-42.1,40.7c-1.9,1.9-3.6,4-5.4,6.1c-1.5,0-3,0-4.5,0
			c0.1-6.3,5.6-8.8,9.4-12.2c4.6-4.1,9.4-7.9,13.1-12.9c11-9.7,20.2-21.5,32.6-29.7C315.3,186.8,315.9,187.1,316.4,187.6z"/>
		<path class="st33" d="M232.4,19.3c-1.1-6.3,2.7-11.7,3.1-17.8c4.5,0,9,0,13.5,0c1.4,7.6-1,14-6.6,19.2
			C238.9,21.6,235.4,22.4,232.4,19.3z"/>
		<path class="st34" d="M243,19.5c2-6,4-12,6-18c4,0,8,0,12,0c0.2,8.7-3,15.4-11.1,19.4C247.4,21.4,245,21.6,243,19.5z"/>
		<path class="st35" d="M250.5,19.4c6.3-4.3,7.7-11.6,10.5-17.9c2.5,0,5,0,7.5,0c1.5,1.7,1.8,3.8,1.5,6c-1.6,4.5,0.3,10.7-5.9,13.2
			c-3.8,1.1-7.7,1.1-11.5,0.3C251.7,20.7,251,20.2,250.5,19.4z"/>
		<path class="st36" d="M360.1,143.6c0.5,0.1,1,0.3,1.4,0.4c0,1,0,2,0,3c-10.6,7.3-18.9,17.2-28.6,25.5c-2.6,2.2-4.6,5.4-8.8,4.3
			c-0.9-2.6,1.1-3.9,2.4-5.6c8.5-8.6,16.8-17.6,26.5-25C355,144.6,356.8,142.1,360.1,143.6z"/>
		<path class="st37" d="M283.4,217.3c-4.6,7.6-12.5,11.8-18.5,18.1c-1.9,2-3.6,4.1-5.4,6.1c-1,0-2,0-3,0c0-4.1,5.1-6.1,4.3-10.5
			l0.1-0.1c2.2-4.8,6.3-7.8,10-11.2c2.9-1.6,5-4.3,7.9-5.9c1-0.3,2-0.3,2.9,0.1C283.2,214.6,282.8,216.2,283.4,217.3z"/>
		<path class="st38" d="M172.5,6c-8-1.5-16-3-24-4.5c8,0,16,0,24,0c8.4,1.6,17,1.2,25.5,2.3c3.4,0.4,7,0.4,9.1,3.8
			c0,0.5,0,0.9,0,1.4c-1.9,1.8-4.3,2.3-6.8,2.2C190.6,11.1,181.4,9.6,172.5,6z"/>
		<path class="st39" d="M109.4,231.3c2,1.4,3.8,3.1,6,4.1c4.4,2.1,3,4,0.1,6.1c-5.5,0-11,0-16.5,0c-0.4-1.3-1.6-1.5-2.7-1.7
			C98,232.9,104.1,232.7,109.4,231.3z"/>
		<path class="st40" d="M207,7.6c-9.9-1.6-19.9-3.1-29.8-4.6c-1.7-0.3-3.5,0.1-4.7-1.5c12,0,24,0,36,0C208.5,3.6,209,5.9,207,7.6z"
			/>
		<path class="st41" d="M268.3,7.6c0.1-2,0.1-4,0.2-6.1c2,0,4,0,6,0c0.1,6,0.1,11.9,0.2,17.9c-0.8,4-3.4,3.1-6.1,2.2
			c-0.7-0.6-1-1.4-1.2-2.3C268.3,15.4,267.1,11.4,268.3,7.6z"/>
		<path class="st42" d="M1.5,36c15.1,0,30.1,0,46.6,0c-6.2,4.2-12,0.4-16.9,2.8c-8.4,0-16.8,0-25.2,0c-2,1.5-3.2-0.2-4.5-1.3
			C1.5,37,1.5,36.5,1.5,36z"/>
		<path class="st6" d="M1.5,37.5c1.5,0.4,3,0.9,4.5,1.3c-3.3,5.1,1.4,12.3-4.5,16.7C1.5,49.5,1.5,43.5,1.5,37.5z"/>
		<path class="st43" d="M260.8,231c0.7,4.4-1.9,7.4-4.3,10.5c-1.5,0-3,0-4.5,0C255.8,238.7,259.1,235.5,260.8,231z"/>
		<path class="st44" d="M261,106.8c2,3,4.9,4.6,8.3,5.7c11.7,3.6,22.8,8.8,35,10.8c1.3,0.2,3.1,0.9,1.5,2.9c-5.2,3.5-10,0.2-15-0.8
			c-7.1-1.3-14.2-5-21.5-0.7c-4.5,1.3-8.6,4.1-13.5,4.1c-4.9-0.6-9.3,0.4-12.7,4.1c-0.8,1.1-1.6,2.2-2.8,2.9
			c-2.3,1.2-4.9,1.9-7.2,3.1c-1.7,0.7-3.6,1.1-5.1,2.1c-1,0.8-1.4,2-1.9,3.1c-0.5,1.6-0.5,3.5-2.5,4.1c-10.4-0.6-20-4.1-29.6-7.8
			c-0.2-0.3-0.5-0.6-0.7-0.9c-0.4-5-0.8-10-1.3-15c0.4-3.8-0.1-7.4-0.8-11.1c-0.4-1.7-1.1-3.5-0.3-5.2c3-6.5,4.4-13.6,7.4-20.1
			c3.4-1.3,5.3,1.4,7.6,3.1c3.3,2.5,6.7,3.8,10.7,1.5c2.1-1.7,4.3-3,7.2-2.5c3.5,1,7.6,0.2,10.4,3.4c1.5,4.3-4.4,4.3-4.6,7.8
			c2,2.5,5,1.1,7.6,1.6c5.5,1.6,11.2,1.3,16.8,1.3C256.4,104.6,259.2,104.2,261,106.8z"/>
		<path class="st45" d="M20.9,133.6c1.8,2.2,3.5,6.6,5.9,0.4c3.4-8.6,13.5-7.2,19-12.8c1.4-1.4,3.8-1.8,4.9-3.3
			c3.6-5.1,6.3-2.5,9.1,0.6c3.5,5.5,8.6,8.7,14.7,10.7c3.3,1.1,6.5,2.6,8.9,5.3c2.1,10.9,0.6,13.8-9,16.7c-9,2.7-18.1,5.4-27.2,7.9
			c8.8-2.3,17.6-4.9,26.3-7.6c5.9-1.9,11.5-3.9,13.9,4.5c0.3,1.1,1.6,1.8,1.7,3.2c-2.1,4.7-6.8,4.9-10.8,6.2c-2.5,0.8-5.2,1-7.7,2
			c-14.6,4-28.8,9.2-43.2,13.7c-1.6,0.3-3.2,0.3-4.5-0.9c-3.3-13.3-6.3-26.7-8.2-40.4C14.3,135.3,19.7,136.5,20.9,133.6z"/>
		<path class="st46" d="M73.5,50.8c4-2.9,8.8-0.3,14.2-2.1C75.7,47,65.8,42,55.5,38.6c-4.2-1.4-12.6-3.3-11.7-12.1
			c0.1-1.6-3-3.5-4.7-5.3c16.5,0.5,33,1,49.4,1.5c2.7,1.7,5.5,1.2,8.5,0.8c2.6-0.4,5.6-0.4,5.1,3.8c-0.8,0.6-1.6,1.1-1.5,1.1
			c3.6-0.1,8.3-0.9,13,0c5.1,1.7,10.5,0.5,15.7,0.9c2.7,0,5.4-0.1,7.6,1.8c0.7,1.3,0.7,2.6-0.3,3.8c-5.4,2.9-11.2,1.1-16.8,1.6
			c-9.3-0.1-18.6,0-27.8,0c0.1,0,0,0.5,0,0.5s0.5-0.1,0.6-0.1c4-0.1,8-0.2,11.9,0c3.7,0.2,8.3-0.8,9,5.1c0.7,5.2-1.6,7.9-6.6,8.8
			C96.2,49.6,91.3,56.1,88,64.8c-1.2,3.2-2.8,6.3-4.7,9.3c-1.4,2.1-3.1,4.4-5.9,3c-3.1-1.6-1.5-4.2-0.7-6.5c0.3-0.7,0.7-1.3,1.1-1.9
			c3-4.8,4.5-10.3,7.4-15.2C80.9,52.1,76.6,54.4,73.5,50.8z"/>
		<path class="st47" d="M178.6,31.4c-0.3-0.3-0.4-0.7-0.3-1.2c-1.4-3.7-0.3-5.6,3.9-5.4c7.6,0.3,15,1.2,22.5,2.6
			c1.1,0.6,1.6,1.6,1.6,2.9c-4.5,4.5,2.6,3.5,2.7,5.8c0.3,5.9-3.1,11-4.1,16.7c-0.6,3.6,1.5,5.7,1.4,8.8c-0.2,8.2-0.8,9.8-8.3,12.8
			c-1.8,0.7-6.2-0.2-4.2,4.4c-2,3.2-5.1,2.8-8.1,2.6c-2.5-13.8-4.8-27.7-5.9-41.7c-2.5-6.6,2.9-5.6,6.7-6.3
			C183.9,31.2,180.8,33.1,178.6,31.4z"/>
		<path class="st48" d="M88.6,159.2c-1.9-2.1-6.8-1.3-5.1-7c0.8-2.9-3-1.1-4.5-0.7c-11.8,3.1-23.5,6.4-35.2,9.7
			c-0.6,0.2-1.4,0.1-2.8,0.2c1.5-3,4.1-3,6.2-3.7c10-3,20-5.9,30.1-8.6c3.2-0.9,6-1.2,3.9-5.6c-1.4-3,3.5-5.1,1.3-8.3
			c4.4-2.6,7.1,1,10.3,2.7c1.8,1.6,5.6,2.7,4.6,5.2c-1.5,3.8-6.1,2.6-8.9,4c9-2.2,17.7-6.3,27.1-8.4c2.9-0.6,5.6-2.4,8.7-1.3
			c1.7,3.1,2.5,6.5,3.4,9.9c-0.9,0.5-1.8,0.9-2.8,1.4c-7.4,5.4-16.7,5.4-24.8,9c-2.2,1-4.7,1.4-7,2.4
			C91.4,161,89.7,161.4,88.6,159.2z"/>
		<path class="st49" d="M174,132c-3.4,1.2-6.9,2.2-10.3,3.5c-1.5,0.6-1.5,2.2-2,3.2c-1.8,3.8-6,4.3-10,2.5c-1.3-1.3-1.1-2.8,0.2-3.7
			c6.5-4.8,0.8-5-2.2-6.3c-3.6-2.6-8.5-3.3-10.8-7.7c-0.5-2.9,0-5.9,2.1-7.7c5.5-4.7,5.8-10.6,4.5-17c0.1-1.1,0.5-2,1.2-2.9
			c4.1,0.1,4.6-2.3,4.7-5.8c0.1-3.6-0.9-8.2,4.7-9.3c4,6.8,2.7,14.7,4.4,22c1.4,6.8,2.4,13.7,3.3,20.6c0.5,4.3,1.5,7.2,6.9,5.8
			C172.1,129,174.2,129.3,174,132z"/>
		<path class="st50" d="M175.8,55c1.5,3,1.5,6.2,1.1,9.4c-2,2.7-6.2,1.4-8,4.5c-4,3.6-9.5,0.9-13.7,3.4c-0.8,0.3-1.5,0.2-2.2-0.2
			c-0.5-0.5-1.2-1.1-1.3-1.8c-1.3-9.1-3.5-18-7.5-26.3c-0.8-1.8-1.2-3.8-0.8-5.8c1.6-3,4.1-3,6.9-2.1c3.1,1.5,6.2,0.9,9.3,0.1
			c2.3-0.3,4.4-0.2,5.9,1.9c1.8,2.9-2,5.2-0.7,8.5C166.9,51.9,169.8,55.2,175.8,55z"/>
		<path class="st51" d="M174,132c-0.6-0.4-1.4-1.4-1.7-1.3c-9.4,4.2-10.5-1.6-11-8.8c-0.4-6.2-1.5-12.3-2.3-18.4
			c-0.6-1.5,0.3-1.8,1.5-1.9c3,3.3,9.1-0.5,11.3,4.8c1.1,0.6-3.1,3.7,1.2,2.7c3.5-0.8,6.9-2.2,10.4-3c1.7,2.9,1.1,6.2,1.7,9.3
			C187.2,128.6,187.1,128.6,174,132z"/>
		<path class="st52" d="M185.7,81.4c1.7-3.2,5.9-0.6,7.8-3.3c2.1-1.9,4.3-1.8,6.5-0.2c2.1,3.7,2.4,7.2-0.5,10.6
			c-0.2,10.8-10.7,19.5-6.1,31.3c0.6,1.5,0.2,3.5-1.4,4.7C188.6,110.3,187.4,95.8,185.7,81.4z"/>
		<path class="st53" d="M149.6,130.3c3.6-1,6.6-0.1,7.9,3.5c1.5,4.3-3.3,3.1-4.8,4.8c-0.6,0.6-0.7,1.7-1,2.6
			c-3.6,1.7-5.3,9.1-11.7,2.7c-1.5-1.5-8.1,2.1-12.3,3.4c-4.5-1.9-4.9-5.1-3.2-9.2c6.2-5.6,14.7-5.2,21.9-8.4
			C147.5,129.4,148.6,129.7,149.6,130.3z"/>
		<path class="st54" d="M136.4,31.6c-2.5,0-4.9,0-7.4-0.1c-0.3-2.9-2.9-3.2-4.8-4.3c-0.3-0.7-0.2-1.3,0.3-1.9
			c2.4-2.7,5.6-1.4,8.4-1.4c11.2,0.2,22.4,1,33.5,0.9c5.3,0,6.5,2.2,5.8,6.7c-1.7,1.8-3.9,2.2-6.1,2
			C156.2,32.7,146.1,35.9,136.4,31.6z"/>
		<path class="st55" d="M61.1,7.6c1.7-0.1,3.4-0.3,5-0.4c3.5-2.9,7.5-3,11.7-2.6c25,2.6,50.1,5,75.1,7.6c1.2,0.1,2.3,0.8,3.5,1.2
			C124.6,12.3,92.9,10.3,61.1,7.6z"/>
		<path class="st56" d="M58.6,195.1c25.5-9.5,50.9-19.1,76.4-28.6c1.1,0.8,3.1,0.2,3.3,2.3c-2.6,3.9-7.4,3.1-10.8,5.1
			c-14.2,5.5-28.1,11.8-42.7,16.4c-3.4,1-6.4,2.9-9.6,4.5c-4.6,0.9-8.8,2.8-13.2,4.3c-0.7,0.2-1.4,0.3-2.2,0.4
			c-1.9,0-3.8-0.2-4.6-2.3C55.5,195.2,57.6,196.1,58.6,195.1z"/>
		<path class="st57" d="M58.6,195.1c-1,0.5-2,1-3,1.5c-1.6,3.2-5.1,3.4-7.8,4.7c-1,0.5-3.4,0.5-1.4,2.6c2.7,2.4,8.8,2,7,8.3
			c-9.5-1.5-18.6-4.9-28.3-5.4c-1.9-0.1-3.8-1-5.8,0c-1.7-0.1-1.5-1.5-1.5-2.6c6.5-2.3,13.1-4.3,19.4-6.9
			C44.2,194.4,51.1,192.5,58.6,195.1z"/>
		<path class="st58" d="M165.1,38.8c-1.6-2.2-3.9-1.5-6.1-1.4c-3,0.1-6.1-0.1-9.1,0.2c-2-1.5-3.9-0.5-5.9,0.1
			c-2.5,3.2-5.9,3.4-9.5,3c-4.5-0.6-9.1-0.2-13.4-1c-11.3-2-22.8-0.9-34.1-2.2l-0.1-0.1c0.7-4.1,3.9-2,5.9-2.1
			c8.6-0.6,17.3,0.6,25.9-0.7c5.9-0.1,11.8-0.2,17.7-0.3c5.7-2.8,11.8-1.1,17.6-1.4c6.2-0.3,12.5,0,18.7-0.2c2,1.8-0.6,4.4,1.1,6.2
			C170.9,41.5,167.9,41.4,165.1,38.8z"/>
		<path class="st59" d="M137.9,168c-1.2,0-2.2-0.3-2.9-1.5c12.2-4.8,24.1-10.4,36.6-14.1c8.6-2.5,13.8-9.8,21.7-12.9
			c0,0,0.6,0,0.6,0c1.6,2.4,6.3,2.1,5.6,6.5c-1.7,1.5-4,1.6-5.8,2.9c-15.1,5.8-30.2,11.4-45.2,17.4
			C145.2,167.5,141.8,169.8,137.9,168z"/>
		<path class="st60" d="M171.1,106.6c-2.1-2.6-4.7-1.7-7.2-1c-3.7,1.1-3.1-1.6-3.4-3.6c-1.6-5.4,3.4-4.4,5.7-6c5-1,9.9-3.9,15.3-1.5
			c0.5,3.5,1,7.1,1.5,10.6C179.3,107.8,175.5,109.6,171.1,106.6z"/>
		<path class="st61" d="M165.1,38.8c2.9,0.1,5.9,0.2,8.8,0.3c0.6,5.3,1.3,10.6,1.9,15.9c-2,4.3-4.5-0.7-7,0.4
			c-4.5,2-5.2-0.2-3.4-4.1c0.2-0.5-0.1-1.5-0.6-1.9C160.5,45.7,161.7,42.3,165.1,38.8z"/>
		<path class="st62" d="M205.4,28.6c-7.8-0.6-15.6-0.8-23.3-1.8c-3.4-0.4-3.7,1-3.8,3.4c-1.5-2.4-1.2-5.1-1.2-7.7
			c1.5-1.6,3.5-2.3,5.4-1.8c7.5,1.9,15.2,1.1,22.8,2.2c1,0.1,1.7,0.4,0.7,0.3c0.1-0.7-1-0.8-0.9-1.6c0.2-0.8,0.6-1.3,1.2-1.6
			c3.8-1.4,7.3,0.8,10.9,1c1.9,0.1,4.6-0.3,4.6,2.4c0,2.1-2.6,2.7-4.4,3.3c-2.6,0.8-5.4,0.9-7.6,2.6
			C208.2,29.9,206.7,29.7,205.4,28.6z"/>
		<path class="st63" d="M161.3,13.6c10.3-1.2,20.3,2.3,30.6,1.6c4.5,1,9.4-2.7,13.5,1.5c2,2.7,5.7,0.4,7.8,2.6
			c-2.1,2.2-5.2-0.1-7.5,1.6l-0.4,0.3c-4.5,2.2-9.2,1.8-13.8,0.9c-4.9-1-9.8-1.1-14.8-1C174.4,12.8,166.5,15.9,161.3,13.6z"/>
		<path class="st64" d="M22.9,180.2c1.2-0.2,2.3-0.4,3.5-0.5c10.3-0.8,19.4-5.8,29.2-8.3c4.6-1.1,8.9-3.1,13.6-3.6
			c0.4,0.1,0.7,0.2,1.1,0.2c-0.2,4.1-3.8,4.1-6.4,5c-11.4,4.1-23.1,7.6-34.4,11.9C24.2,187,23,184.9,22.9,180.2z"/>
		<path class="st65" d="M91.5,159.2c10.7-4.9,21.8-8.4,33.4-10.5c0.5,2.7-0.2,4.8-3.1,5.7c-6.6,2-13.2,4-19.7,6
			C98.6,158.6,94.4,164.7,91.5,159.2z"/>
		<path class="st66" d="M91.5,159.2c3.1,4.2,7.5-3.3,10.5,1.2c-7.7,2.7-15.5,5.1-23,8.1c-3.2,1.3-5.7-1-8.6-0.4c0,0,0.1,0.1,0.1,0.1
			c-0.5-0.2-0.7-0.5-0.6-0.8c0.1-0.4,0.2-0.5,0.3-0.5c5.2-4.8,13.1-3,18.3-7.5C89.6,159.3,90.5,160.5,91.5,159.2z"/>
		<path class="st67" d="M176.9,69.1c1.9,7.8,4.3,15.4,4.4,23.5c-3.8,2.4-8.1,2.5-12.3,2.8c-2.9-2-1.9-4,0.5-5c3-1.1,2.2-2.6,1.1-4.4
			c0.5-1.2,1.8-2.4,0-3.6c1.2-3.8,4.1-7.2,2.8-11.7C174.2,69.5,175.1,68.4,176.9,69.1z"/>
		<path class="st68" d="M124.5,25.3c0,0.6,0.1,1.1,0.1,1.7c-3.4,3.7-7.5,3.2-11.8,2.1c-3.4-1.6-7.6,0.7-10.8-2.1
			c-1.3-2.6-3.2-3.4-6-2.2c-3,1.3-5.7,1.1-7.5-2.1C100.6,21.6,112.5,23.8,124.5,25.3z"/>
		<path class="st69" d="M172.8,32.9c-1.3,2.8-3.8,1.8-5.9,1.8c-10.2,0-20.3-0.2-30.5-0.3c0-1-0.1-1.9-0.1-2.9c12,0,23.9,0,35.9-0.1
			C172.5,32,172.7,32.4,172.8,32.9z"/>
		<path class="st70" d="M176.8,21.1c3.9-3.2,8.6-1.9,12.6-1.2c5.3,0.9,10.6,1,16,1.3c1.4,0.7,2.9,1.4,4.4,2.2
			c-11,2.5-21.8-0.3-32.6-0.8C176.8,22.1,176.7,21.6,176.8,21.1z"/>
		<path class="st71" d="M178.6,31.4c4.4-2.4,8.5-1.2,13.1,1.2c-2.4,2.8-5.4,3.7-8.5,3.1c-4-0.8-3,2.1-3.4,3.9
			C178.2,37.1,178.5,34.2,178.6,31.4z"/>
		<path class="st72" d="M171.1,106.6c4-0.5,8-1,11.9-1.5c0.3,0.2,0.4,0.5,0.3,0.9c-3.3,5.4-9.7,3.7-14.3,6.1c-0.7,0.4-2-0.2-2.2-1.4
			C166.2,107.4,170,108.4,171.1,106.6z"/>
		<path class="st73" d="M168,94.4c4.4-0.6,8.8-1.1,13.2-1.7c0.1,0.6,0.1,1.3,0.2,1.9c-5,1.1-10,2.2-15,3.3c-2.8,0.7-3.9-0.5-2.8-3.1
			C164.6,92.4,166.3,92.1,168,94.4z"/>
		<path class="st74" d="M176.9,69.1c-0.9,0.4-1.8,0.8-2.7,1.2c-0.3-0.1-0.6-0.1-1-0.2c-1.8-0.7-3.8-1-5.2-2.6c1.3-5.7,6-1.9,8.9-3.2
			C176.9,66,176.9,67.6,176.9,69.1z"/>
		<path class="st75" d="M20.9,133.6c1.3,5.3-4.7,3.6-6.2,6.3c-1.4-1.4-1.3-3.2-1.2-4.9C16,134.5,18.4,134,20.9,133.6z"/>
		<path class="st76" d="M79.7,69.5c-0.6,1-1.3,2-1.8,3.1c-0.5,1.1-2.5,2.4-0.5,3.6c2,1.2,2.9-0.3,3.8-2.1c2.7-5.5,6.7-10.6,8.3-16.4
			c2.1-7.7,7.1-8.4,13.4-8.1c1.2,0.1,2.5-0.2,3.7-0.3c7.1-0.5,8.1,0.7,6,7c-0.7,2.1-1.7,4.2-3,6c-2.1,1.1-0.6,2.8-0.6,4.3
			c-4.1,9.5-8.3,18.9-12.2,28.5c-2.3,3.2-5.3,4.6-9.2,3.8c-5.7-2.6-11.3-5.6-15.6-10.4c-4.6-3.7-9.5-6.9-15-8.9
			c-0.6-0.5-1.5-0.7-1.7-1.6c1.6-2.6-3.1-5-0.2-7.6c5.8-0.8,8.3,5.6,13.8,6.4c0.3-5.3,3.5-8.3,8.4-9.4
			C78.9,66.9,80.4,67.2,79.7,69.5z"/>
		<path class="st77" d="M72,88.5c5.4,2.3,10.4,5.3,15.1,8.8c4.3,2.9,7.3,2,8.6-3.2c3.1-9.8,6.9-19.3,12.3-28
			c4.1-3.2,8.2-2.3,11.3,1.1c4.3,4.5,6.3,10.1,4.4,16.4c-2.9,9.6-7.3,18.4-12.6,26.8c-1.8,2.9-4.2,5.4-4,9.3
			c0.1,2.5-1.9,2.4-3.8,1.6c-5.4-3.6-11.4-6.3-17.1-9.4c-2.2-1.2-5.5-1.7-5.4-5.4C76.6,101.2,72.7,95.6,72,88.5z"/>
		<path class="st78" d="M80.9,106.5c7,5.5,16.5,6.8,22.8,13.5c2.4,7-1.7,12.6-4,18.6c-2.5,2.4-5.2,2.3-8.1,0.7
			c-2.8-2-5.7-3.5-9.1-4.1c-5.1-2.4-10-5.1-15.3-7.1c-4.7-1.8-7.2-4.7-7.4-9.6c1.9-3.9,4.2-7.6,5.5-11.7c1.8-5.2,4.1-6.7,8.9-3.3
			C76.3,104.9,78.7,105.5,80.9,106.5z"/>
		<path class="st79" d="M79.7,69.5c-7-0.2-9.1,2.3-8.4,10.5c-6.6-1.4-10.9-6.4-16.2-9.7c2.6-6,7-11.1,8.2-17.7
			c3.1-2.1,6.8-1.1,10.1-1.8c4.7,0,9.4,0,14.8,0C85.3,57.4,82.5,63.4,79.7,69.5z"/>
		<path class="st80" d="M55.4,77.9c0.6,0.5,1.1,1.1,1.7,1.6c-2.8,1.8-1.9,6.9-6.9,7.5C51,83.2,52.8,80.4,55.4,77.9z"/>
		<path class="st81" d="M318,177.2c1.5,1.9,1.7,3.7,0.1,5.6c-5.5,5-10.8,10.2-16.2,15.3c-1.9,1.8-3.8,4.1-7,3.5
			c-3.1-1.9-2.3-4.8-1.3-7.3c2.9-7.6,6.6-14.9,12.2-21c1.5-0.8,3-0.8,4.7-0.6C313.1,173.7,316.8,173.4,318,177.2z"/>
		<path class="st82" d="M318,177.2c-2.5-1-5-2-7.5-3c-4.7-1.9-9.9-1.7-14.6-3.4c-1.1-0.3-2.1-0.7-3.2-1c-7.8-2.7-15.7-4.6-23.5-7.2
			c-2.7-0.5-5.6-0.8-7.1-3.6c-0.2-0.8,0-1.6,0.6-2.2c3.2-2,6.2-0.5,9.3,0.3c14.3,3.9,28.4,8.7,42.6,12.8c2.6,0.7,5.2,1.7,8,1
			c1.6,0,3.2,0.1,4.3,1.6c-1,1.4-1.9,2.8-2.9,4.2C322.1,176.9,320,177.1,318,177.2z"/>
		<path class="st83" d="M295.6,201.1c6.1-3.6,10.8-8.8,15.8-13.7c1.9-1.9,3.6-4.3,6.6-4.5c1.2,2.5,5.2,1.5,5.8,4.7
			c-2.9,2.9-5.7-2.5-8.6,0c-10.6,9.9-21.2,19.9-31.8,29.8c-1.1-0.5-1.4-1.5-1.4-2.5C283.4,207.1,290.3,204.8,295.6,201.1z"/>
		<path class="st84" d="M315.2,187.5c2.9-3.4,5.8,0,8.6,0c0.8,2.7-0.3,4.1-2.9,4.6c-0.9-2.1-2.3-3.7-4.5-4.5
			C316,187.5,315.6,187.5,315.2,187.5z"/>
		<path class="st85" d="M288,94.5c-7.2-1.4-14.4-2.9-21.6-4.3c-1.5-0.3-3,0-3.9,1.4c-5.5-2.4-11.5-0.9-17.1-2.7
			c-3-3.5-0.8-7.7-1.4-11.5c-0.7-5.8,1.7-11.4,1.5-17.2c0.3-4-0.7-8.2,2.1-11.8c0.2-0.2,0.3-0.5,0.5-0.5
			c15.3-1.6,17.9-13.3,20.1-25.3c0.5-0.6,1.2-0.9,2-0.9c2.9,0.8,6.3-2.2,8.9,1c-0.7,8.2-2.2,16-6.2,23.4c-2.6,4.7-4.5,9.9-4.3,15.5
			c0.1,2.8-0.1,5.4-2.4,7.5c-1.9,1.7-3.8,3.4-1.9,6.3c1.9,2.8,4.3,5.2,7.7,5c4.9-0.4,9.7-1.6,14.5-2.4c4.8-0.6,12.2,2.1,8.7-8.2
			c-0.7-1.9,3.8-5.4,5.6-8.3c5.3-8.7,13.9-14.7,19.4-23.2c0.9-1.3,3.5-1.5,5.4-2.2c-6.1,6.3-9.3,13.9-10.5,22.5
			c-1.7,3.2-2.7,6.8-5.6,9.3c-3.8,3.3,0.2,6.8-0.4,10.2c1.6,6.1-3.9,6.6-7.1,8.4C297.2,88.9,291.8,90.3,288,94.5z"/>
		<path class="st86" d="M279,22.8c-3.5-0.1-7-0.1-10.5-0.2c-0.4-0.5-0.4-1-0.1-1.6c2.2-0.1,4.6,0.6,6.2-1.6
			c5.9,0.7,12.1-1.2,17.8,1.7C288.3,24.1,283.4,21.5,279,22.8z"/>
		<path class="st43" d="M271.7,221c-3.2,3.7-6.6,7.2-10.7,9.9c-3.5-3.1-6,0.4-8.7,1.6c-4.4,1.9-7,1.8-7.9-3.7
			c-1.2-7.6-3.2-15.1-4.1-22.7c-0.8-7.3,7.2-13.8,14.3-11.9c3.7,1,8.2,0,11,3.8c-2.2,3.9-6.5,6.5-4.8,12.4c1.4,5.1,0.5,10.9,9,6.7
			C273.1,215.4,274,218,271.7,221z"/>
		<path class="st87" d="M269.8,161.2c8,2.4,16.1,4.8,24.1,7.2c-1.5,4.3-6.9,2.2-9.3,6c-3.2,5.2-5.2,10.6-6.5,16.4
			c-0.5,2.2-0.2,4.5-1.4,6.5c-0.3,0.2-0.5,0.5-0.8,0.7c-7.5-1-14.2-4.3-20.9-7.5c-1.7-1.8-2.2-4-1.7-6.2
			C255.8,174.5,260,165.8,269.8,161.2z"/>
		<path class="st88" d="M269.8,161.2c-7.6,8.5-16,16.5-14.8,29.3c-8-2.5-16-5-24.1-7.5c-0.7,0.5-1.4,0.5-2-0.2
			c-0.9-1.4-1-2.8-0.8-4.4c1.4-5.1,6.3-5.8,10-8.2c4.4-2.8,9-5.4,13.5-7.9c1.7-2.2,2.5-5.4,6-5.7c2.3-0.7,3.4,1.1,4.8,2.4
			C265,159.7,267.4,160.4,269.8,161.2z"/>
		<path class="st89" d="M271.7,221c0.7-2.6,0.6-3.8-2.7-2.3c-8.4,3.9-7.9,3.7-9.7-5.6c-1.4-7-2.4-12.8,6.2-15.1
			c3.5,0.5,7,5.6,10.5,0c0,0,0.1,0,0.1,0c2.8-1.3,5.4-0.1,7.7,1.2c4,2.3,5.1,5.5,1.5,9c-2.1,2.1-3.6,4.7-6.3,6.3
			C276.9,217.1,274.8,219.6,271.7,221z"/>
		<path class="st90" d="M229.4,182.8c0.5,0.1,1,0.1,1.6,0.2c-3.8,5.3-10.3,6.5-15,10.5c-10.1,5.8-20.2,11.6-30.2,17.6
			c-2.4,1.4-4.5,3.1-7.3,3.5c-4-2.1-0.1-3.1,0.7-4.6c13-7.6,26.1-15.3,39-23.1C221.5,184.9,224.5,181,229.4,182.8z"/>
		<path class="st91" d="M327,172.6c-1.6,0-3.1,0-4.7,0c-2.9,1.1-4.2-0.4-4.8-3c1.5-3.1,0.2-4.3-2.9-5.1
			c-11.1-3.1-21.6-7.6-32.8-10.3c-4.5-1.4-8.8-3.5-13.6-3.8c-6.2-1.7-11.7-5.1-17.9-6.7c-1.5-0.9-2.3-2-1.9-3.8
			c0.1-0.9,3.6-1.8,0-2.7c-0.3-2.6,1.4-3.5,3.5-4c5-0.8,9.5,0.8,14,2.4c7.3,2,14.8,3.5,21.7,6.7c1.6,0.9,3.1,2,4.2,3.5
			c8.8,5.6,18.8,7.5,28.7,9.9c1.6-0.5,3.3-1,5.1-0.6c4,2.5,6.9,0.3,9.9-2.1c5.8-4.6,10.5-10.5,17.5-13.4c3.1,0,6.8-1,7.2,3.9
			c-9.7,5.6-17.4,13.8-25.1,21.6C332.4,167.8,329.9,170.4,327,172.6z"/>
		<path class="st92" d="M352.9,139.6c-6.2,7.5-14.6,12.6-21.7,19.1c-4,3.7-3.4-2.8-5.8-2.6c-3.7-1.5-8.7,0.7-11.4-3.9
			c-1.5-4.9,1.2-7.2,5.3-8.8c4.3-1.7,9.9-2.4,7.8-9.7c-0.3-1.1,1.8-1,2.9-0.3C337.8,135,345.7,136.1,352.9,139.6z"/>
		<path class="st93" d="M291,123.1c4.8,1.6,9.6,3.1,14.8,3c0.1,0.4,0.2,0.9,0.2,1.3c4.6,6.5,4.3,10.1-1.6,15
			c-2.1,1.7-4.1,3.5-6.8,4.3c-2.5,0.6-4.6,0.1-6.4-1.7c-3.6-1.7-4.5-4.3-2.4-7.8c2.1-3.5,1.7-7.1,0.2-10.7
			C288.6,124.7,289.7,123.8,291,123.1z"/>
		<path class="st94" d="M330.1,133.5c-0.8,7.6-0.7,7.7-11.8,12.2c-3,1.2-3.3,3.3-3.3,5.9c-4.3,2.6-7.6,0.6-10.7-2.2
			c-1.5-3.2,0.4-4.6,3-5.6c5.9-2.2,11.1-4.9,9.2-12.8c-0.1-0.6,0.9-0.9,1.7-0.5C322.2,131.1,326.3,131.4,330.1,133.5z"/>
		<path class="st95" d="M318.1,130.4c1.9,8.7,0.2,11.6-9.3,14.8c-1.9,0.6-4,0.4-4.3,3.1c-3.5,1.8-6.2,1.2-7.7-2.7
			c1.7-1.3,3.3-3.1,5.2-4c7.1-3.2,5.9-8.6,4-14.2C309.8,129.5,314.4,128,318.1,130.4z"/>
		<path class="st96" d="M263.9,95.9c0.7,4.5,8,3.6,7.5,9.1c-2.6-0.2-5.1,0.2-7.5,1.5c-2.9-4-6.9-0.4-10.3-1.5
			c-3.2-0.3-6.6,0.8-9.6-1.3c-1.4-2.1-1.4-4.2-0.1-6.3c2.1-2.1,4.9-1.9,7.5-2C255.6,95.7,259.9,93.3,263.9,95.9z"/>
		<path class="st97" d="M255.1,103.6c1.9-0.3,3.9-0.2,5.6-0.9c5.2-2.1,3.7,1.2,3.2,3.8c-1,0.1-2,0.2-3,0.3c-2.4-0.2-4.9-0.3-7.3-0.5
			C252.7,104.6,254.2,104.3,255.1,103.6z"/>
		<path class="st98" d="M180,211.4c-1.1,0.8-3.3,1.1-1.5,3.2c0,0.5,0,0.9,0,1.4c-9.7-0.3-17.2,5.3-25.5,9c-4.2,0.9-8.3,1.8-12.5,2.7
			c4.3-5.9-0.2-7.8-4.4-9.9c-0.9-1.3-1.2-2.7-1-4.2c0.1-0.8,0.4-1.4,0.8-2.1c0.5-0.6,1.1-1,1.9-1.2c1.1-0.3,2.2-0.3,3.3,0
			c1.1,0.4,1.8,1.1,2.4,2.1c5.7,6.5,8.1,6.9,15,2.5c2.3-1.5,4-3.7,6.6-4.8c3.5-1,7-2.5,10.7-2.9C178.2,207.5,180.4,208.1,180,211.4z
			"/>
		<path class="st99" d="M19.4,206.8c10.6-2.9,20.6-1.1,30.3,3.5c1.4,0.6,2.6,1.3,4.1,1.4c1.3-1.3,2.5-0.3,3.8,0.1
			c2.5,1.2,4.8,2.5,6.8,4.4c0.8,0.7,1.4,1.4,1.9,2.3c0.3,0.7,0.2,1.3-0.1,1.9c-2.8-0.8-6-1.1-8.4-2.6c-5.5-3.6-11-5.1-17.5-3.2
			c-8.3,2.4-12.6-5.8-19.4-7.5C20.5,206.9,19.9,206.8,19.4,206.8z"/>
		<path class="st100" d="M288,94.5c0.2-6.8,6.4-6.5,10.3-8.6c4.1-2.1,8.7-3,10.6-7.9c6.3-15.7,19.8-23.4,34.2-29.9
			c5.3-2.4,11.2-5.7,16.8-0.1c-0.5,1.2-1.5,2.7-2.6,2c-7.2-4.4-10.9,1.8-15,5.2c-2.6,2.2-3.9,5.8-8.3,3.9c-1.7-0.7-2.9,0.4-3.9,1.5
			c-5.1,5.7-11.5,10.6-9.5,20.1c0.8,3.9-1.9,7.7-6.1,9.1c-3.8,1.3-5.8,3.6-5.6,7.6c-6.7,0.5-12.9-2.6-19.5-3
			C289,94.5,288.5,94.5,288,94.5z"/>
		<path class="st101" d="M82.5,227.6c-4,1.1-6.5-1.6-9.1-3.8c-0.9-3.7,2.1-4.6,4.3-5.9c3.9-2.2,7.9-4.1,11.9-6.1
			c2.1-1,4.3-1.8,6.7-1.6c9.2,3.4,9.9,4.9,4.2,10.2C94.4,222.5,89.5,227.6,82.5,227.6z"/>
		<path class="st102" d="M107,226.7c-6.7,3.8-12.1,12.2-21.5,5.8c-3.4-2.4-2.6-4.2,0.6-5.9c4.2-2.1,8.6-3.9,12.9-5.8
			C103.1,220.9,106.2,222.3,107,226.7z"/>
		<path class="st103" d="M107,226.7c-2.3-2.2-5-3.7-8-4.9c-1-0.9-0.9-1.7,0-2.6c5.1-3.3,5.1-3.3-3-7.9c-0.5-0.5-0.7-1.2-0.6-1.9
			c2.3-3.4,4.3-0.6,6.4,0.4c4,3.8,9.4,0.4,13.7,2.7c0.4,0.6,0.6,1.2,0.5,2c-1.8,3-5.6,3-7.7,5.6c2.6,2,2.6,2,14.5,0.1
			c0.1,1,0.3,1.9,0.4,2.9c-2.6,3.7-5.9,5.9-10.7,4.8c-2.9-2.4-2.6,0.2-2.9,1.8C108.7,228.7,107.9,227.7,107,226.7z"/>
		<path class="st104" d="M90,213.5c-5.2,4-12.5,4.5-16.7,10.2c-1.2-3.6-4.5-2.8-7.1-3.4c0.1-0.5,0-0.9-0.3-1.3
			c6.8-3.5,14.4-5.4,21-9.4C89.5,209.7,90,211.4,90,213.5z"/>
		<path class="st105" d="M99.1,219.3c0,0.9,0,1.7,0,2.6c-4,1.9-7.9,4-12,5.7c-2.9,1.2-3.1,2.7-1.5,5c-3.4-0.1-2.9-2.7-3.1-4.9
			C87.5,223.8,93.4,221.7,99.1,219.3z"/>
		<path class="st106" d="M263.9,95.9c-4,0.3-7.8,2.4-11.9,1.5c-1.5-1.3-3.3-2-5.3-1.9c-1.8,0.2-3.8,2.4-5.3,0.2
			c-1.8-2.5,0.2-4.5,1.7-6.5c0.8-0.8,1.7-1.3,2.9-0.9c1,0.1,2,0.3,3,0.2c7.2-0.4,9.5,0.1,13.5,3C263.4,92.9,264.4,94.1,263.9,95.9z"
			/>
		<path class="st107" d="M112.4,227.9c3.6-1.6,7.1-3.2,10.7-4.8c1.1,0.5,2.5,0.8,3.3,1.7c2,2.2,8.7,2.2,6.1,5.9
			c-2.3,3.2-7.3,8.6-13.2,3.8C116.9,232.5,112.1,232.8,112.4,227.9z"/>
		<path class="st108" d="M136.6,217.3c0.2,0,0.5,0.1,0.7,0.1c3.8,0.2,8.3,1.3,9.4,4.3c1.3,3.6-4.7,3.3-6.2,6
			c-6.3,0.8-10.5-2.1-13.2-7.6C129.6,216.8,132.5,215,136.6,217.3z"/>
		<path class="st109" d="M122.7,220.2c-6.3,4.1-12.5,7.7-19.2-0.4c3.9-2.1,7.4-4.8,12-5.4c3.3,0.2,6.2,1.3,7.2,4.9
			C122.7,219.6,122.8,219.9,122.7,220.2z"/>
		<path class="st110" d="M122.7,219.3c-2.3-1.8-5.5-2.2-7.2-4.9c-0.1-0.4-0.1-0.8,0-1.3c-1.1-2-0.1-3.4,1.2-4.8c1.2-0.4,2,0.1,2.7,1
			c1,2.9,3.8,4.5,5.4,7c0.1,0.7-0.1,1.3-0.7,1.6C123.6,218.4,123.2,218.8,122.7,219.3z"/>
		<path class="st110" d="M136.6,217.3c-3.6-0.6-5.9,2.9-9.3,2.9c-1.1-0.7-2.1-1.5-3.2-2.2c0,0,0.5-0.6,0.5-0.6
			c3.6-2.5,7.1-5.2,11.9-4.5C136.5,214.4,136.5,215.8,136.6,217.3z"/>
		<path class="st111" d="M205.7,20.8c2.1-2.2,5.1-0.7,7.5-1.6c4.4,0.1,8.8,0.3,13.2,0.4c3.1,1.6,6.7-0.6,9.7,1.5
			c2.2,9.2-0.6,18.1-2.2,27c-1.1,2.2-3.7,3.1-4.6,1.1c-2.4-5.3-5.9-1.9-9-1.8c-2.6-2.7-8.3-4-4.3-9.7c0.8-0.5,1.9-1.1,0.3-1.9
			c-1.7-0.9-2.3-2.5-3.2-4c-0.9-1.2-2.4-2-2.9-3.4c-0.6-1.4-1.2-2.9,1.3-2.9c3.2,0,6.3-0.2,9.5-2.4
			C215.6,22.1,210.8,20.5,205.7,20.8z"/>
		<path class="st112" d="M172.5,6c7.3-0.1,14.4,1.1,21.5,3.1c4,1.1,8.6,0,13-0.2c0.3,2.2-0.4,4.1-1.6,5.8c-4-0.1-8.2,1.3-11.9-1.3
			c-9.9-2.1-20.4-0.8-30-4.5C166.4,7.9,169.8,8.2,172.5,6z"/>
		<path class="st113" d="M235.4,21c-3-0.6-6.3,0.9-9-1.4c2-0.1,4-0.3,6-0.4c3.5,0.1,7,0.1,10.6,0.2c2.5,0,5,0,7.5,0
			c0.5,0,1,0.1,1.6,0.1c0,4.3-3.3,3.7-5.9,3.7C242.5,23.2,238.6,23.8,235.4,21z"/>
		<path class="st114" d="M193.5,13.5c4,0.1,8.1-0.7,11.9,1.3c0,0.6,0,1.2,0,1.8c-4.4-1.8-9.4,2.5-13.5-1.5
			C192.4,14.6,192.9,14.1,193.5,13.5z"/>
		<path class="st115" d="M235.4,21c5.4-1.3,11.4,2.5,16.6-1.5c4-0.1,8-0.1,11.9-0.2c1.3-0.8,2.7-0.9,4,0.1c0.2,0.5,0.3,1,0.5,1.6
			c0,0.5,0.1,1,0.1,1.6c0,0,0,0.1,0,0.1c-4.9,3.6-11.3,1.1-16.4,4c-3.7,1.7-2.4,5.1-2.7,7.9c-0.7,7.1-3,14.1-2.8,21.3
			c-0.1,0.8-0.5,1.3-1.2,1.6c-2.9-2.5-5.8-3.7-9.6-1.5c-1.5,0.9-3.3,0.7-4.4-1.2c-0.8-2-0.4-3.7,0.9-5.3
			C233.4,40,234.4,30.5,235.4,21z"/>
		<path class="st113" d="M268,19.4c-1.3,0-2.7,0-4-0.1c5.1-2.6,1.4-8.4,4.3-11.8C268.2,11.5,268.1,15.5,268,19.4z"/>
		<path class="st116" d="M279,214.5c0.5-0.9,1.1-1.7,1.3-2.6c0.9-3.5,6.9-4.7,5.2-8.9c-1.5-3.6-6.4-3.1-9.5-5
			c-0.8-7.4,1.4-14.1,4.4-20.6c2.6-5.7,6.6-9.6,13.5-9c0.5,0.2,1.1,0.4,1.6,0.6c3,2.8,8.1,1.2,10.5,5.1c-3.1,5.6-6.5,11.1-9.1,17
			c-1.3,3-4.8,6.2-1.3,10.1c-3.2,5.9-10.2,8-13.7,13.7C281,214.7,280,214.6,279,214.5z"/>
		<path class="st117" d="M258,157.8c-3.8,0-0.7,5.9-4.8,5.6c-3-0.7-5.6,0.6-8.3,1.6c-2.9,1.1-5.7,0.9-8.1-1.2
			c1.6-7.5-5.1-4.9-8.2-6.7c-7-2.5-14.1-4.6-21.4-6c-2.4-2.2-6.7-1.9-7.8-5.9c-2.2-1.5-5.2-2.3-5.5-5.6c10.7,1.4,20.5,6.6,31.3,7.5
			c5.6-1.4,10.1,2.4,15.3,3.2C246,153.3,253.6,151.8,258,157.8z"/>
		<path class="st118" d="M199.5,88.5c0-3.5,0-6.9-0.1-10.4c1.9-2.4,4.6-2.9,7.4-3.2c1.2,0,2.3,0.4,3.3,1c2.9,6,5.9,12,7.4,18.6
			C209.1,99.8,204.9,92.3,199.5,88.5z"/>
		<path class="st119" d="M217.5,94.5c-4-5.4-7.4-11-7.5-17.9c2.4-3.4,5.8-3.9,9.2-2.2c4.7,2.4,7.5,6.4,7.2,12c-0.4,2-1,4-2.9,5.2
			C220.6,90.9,219.1,92.9,217.5,94.5z"/>
		<path class="st120" d="M291,123.1c-0.6,0.9-1.2,1.8-1.8,2.7c-6.1,5.8-13.8,8.2-21.7,10.3c-1.1-0.4-2.9-1.4-1.9-2.3
			c3.5-3.1,1.7-7.3,2.9-10.9C276.1,116.7,283.6,122.9,291,123.1z"/>
		<path class="st121" d="M223.4,91.6c0.1-1.7-0.3-3.6,1.5-4.7c1.3-1,2.7-1.7,4.3-1.8c3.1-0.2,6.1-0.2,9.2,0.3c1.4,0.3,2.7,0.9,4,1.7
			c0.9,0.6,1.5,1.5,1.9,2.5c0.1,2-2.6,3-1.8,5.7c3.7-1.7,7.7-3.9,9.6,2.2c-2.5,0.1-5.1,0.2-7.6,0.3c-4.4,2.1-7.8,0.7-10.5-3.2
			C230.9,92,226.4,94.4,223.4,91.6z"/>
		<path class="st122" d="M268.6,123c3.4,4.5,1.9,8.4-1.4,12.2c0.3,1.4-0.5,2.1-1.7,2.5c-4.4-1.2-8.6-3-13.3-2.9
			c-0.2-0.8,0.1-1.4,0.7-1.8c-1.2-1.2,6.2,1.4,0.8-1.8c-1-0.6-1.9-1.5-2.1-2.9c0.8-1.6,2-1.7,3.5-1C260,127.2,263.8,123.5,268.6,123
			z"/>
		<path class="st123" d="M233.9,94.6c3.5,1.1,7,2.1,10.5,3.2c0,1.9,0,3.8,0,5.7c-2.5,3.1-6.2-0.6-8.8,1.5c-3.5-0.1-8.8,1.2-9.5-2.9
			C225.4,98.1,231.2,97.1,233.9,94.6z"/>
		<path class="st124" d="M249.2,139.7c-0.1,1.5,0.5,2.5,1.8,3.3c-1.1,3.6-4.3,4.4-7.3,5.3c-5.2,0.1-9.9-2.1-14.6-3.9
			c-2.1-0.8-4.1-1.9-2.5-4.8c1.8-0.6,3.6-1.1,5.4-1.7C237.8,137.4,243.5,138.4,249.2,139.7z"/>
		<path class="st125" d="M252,128.9c2.3,0.2,4.5,1.2,4.7,3.5c0.1,0.6-3,1.5-4.6,2.3c-1.7,0.4-3.7,0.5-2.7,3.2
			c-4.3,2.2-7.4,0.2-9.9-3.2c0.7-0.7,1.5-1.5,2.2-2.2C244.7,129.9,247.8,127.9,252,128.9z"/>
		<path class="st126" d="M239.6,134.7c3.3,1.1,6.6,2.1,9.9,3.2c0.5,0.3,1,0.7,1.5,1c-0.6,0.2-1.2,0.5-1.8,0.7
			c-6.1,2.9-11.6,0-17.2-1.9C234.2,136,236.8,135.3,239.6,134.7z"/>
		<path class="st127" d="M239.8,151.7c-4.9-1.6-9.7-3.1-14.6-4.7c0.2-1.1-2.9-1.9-0.4-3.3c6-0.9,10.8,3.2,16.4,4.1
			c1.1,0.6,1.9,1.4,2.2,2.6C242.8,152.5,241.4,152.4,239.8,151.7z"/>
		<path class="st128" d="M241.1,148.8c-5.4-1.7-10.9-3.5-16.3-5.2c0.3-1.5-0.7-3.6,1.7-4.2c4.8,5.3,11.6,5.7,17.9,7.3
			c0.5,0.7,0.5,1.4,0,2.1C243.3,149.4,242.2,149.2,241.1,148.8z"/>
		<path class="st129" d="M235.6,104.9c2.6-2.6,5.9-0.9,8.8-1.5c3.6,0.1,7.1,0.1,10.7,0.2c-0.5,0.9-1,1.8-1.4,2.7
			C247.6,107.2,241.6,106.2,235.6,104.9z"/>
		<path class="st130" d="M252,128.9c-3.4,1.2-6.8,2.4-10.1,3.6c1.5-4.1,8.1-6.8,13.2-5.3C254,127.8,253,128.3,252,128.9z"/>
		<path class="st131" d="M70.2,166.7c0.1,0.5,0.2,0.9,0.3,1.4c-13.1,4.1-26.3,8.2-39.4,12.4c-1.7,0.5-3.4,0.9-4.7-0.7
			c12.7-4.2,25.3-8.5,38-12.7C66.2,166.5,68.3,166.8,70.2,166.7z"/>
		<path class="st132" d="M107.7,62.9c1-2.5,1.8-5.1,3.1-7.4c3-5.3,0.7-6.6-4.3-6.2c4.6-0.7,5.2-3.8,4.7-7.7
			c-0.7-5.3-4.6-1.9-6.9-2.4C98.7,38,92.6,40.6,87,37.6c16.4,0.5,32.8-1.4,49.1,1.3c2.5,0.4,5.3-0.7,7.9-1.1
			c5.3,10.9,8.4,22.4,10.5,34.2c2.5,3,2.6,6,0,9c-1.2,4-1.8,8-1.5,12.2c0.1,1.4,1.7,3.1-0.9,4.3c-2.4,1.1-3.6-0.2-4.9-1.6
			c-3.5-2.2-1.9-6.8-4.6-9.4c-0.9-1.4-1.9-2.7-2.5-4.3c-0.2-1-0.2-2,0.2-3c1.7-2.9,0.6-5.6-0.3-8.4c-0.5-2.2,0.1-4.4,0-6.6
			c0.2-2.1,0.4-4.3-0.4-6.4c-0.6-1.5-0.2-3.6-1.7-4.5c-0.9-0.5-0.9,1.2-1.3,1.9c-1.1,2.8,0.5,5.8-0.6,8.6c-0.3,0.6-0.6,1.2-1.1,1.7
			c-2.9,2.1-3.2,5.5-4.4,8.4c-1.1,2.7-1.4,5.9-4.6,7.3c-3.9-1.2-2.1-4.5-2-6.8c0.2-3,0.1-5.8-1.4-8.5c-2.5-4.3-5-7.6-10.2-3.2
			C111,64,109.3,64.6,107.7,62.9z"/>
		<path class="st69" d="M112.5,28.5c4.2,0.8,8-1.4,12.1-1.5c3.3-0.3,6.1-0.2,4.4,4.5c-5.5-0.4-11.2,1.2-16.5-1.5
			c-0.4-0.3-0.5-0.7-0.4-1C112.2,28.6,112.4,28.5,112.5,28.5z"/>
		<path class="st133" d="M112.5,28.5c0,0.5,0,1,0,1.5c-6.5,0-13.1,0-21.1,0c3.9-4.1,7.5-2.5,10.6-3
			C105.5,27.6,109.3,25.6,112.5,28.5z"/>
		<path class="st69" d="M118.7,34.7c-8,2.1-16.2,0.5-24.3,1.3c-2.5,0.2-5.5-1.3-7.5,1.5c0.8-2.9,0.8-3,3.2-3
			C99.6,34.5,109.2,34.6,118.7,34.7z"/>
		<path class="st134" d="M229.5,86.9c-1.5,0-3.1,0-4.6,0c-1.7-10.4-5.4-12.9-14.9-10.3c-1,0-2,0-3-0.1c-3.4-2.1-2.8-4.7-0.2-6.6
			c3.5-2.6,3.8-6,3.9-9.9c0.1-5.2,0.5-10.5,0.6-15.7c0.1-3-0.5-6-2.9-8.2c-3,0-5.6-0.9-8-3.4c1.5-1.7,3.4-1,5.1-1.2
			c1.2-1.1,2.5-1.3,4-0.7c2.2,2.1,4.3,4.2,7.7,4.7c3.3,0.5,2.3,2.1,0.4,3.6c-1.1,0.2-3.1,0.8-1.4,1.9c2.3,1.5,2.5,4.1,4.4,5.6
			c1.5,9.6,4.9,18.2,11.8,25.3C233.1,77.1,232.5,82.2,229.5,86.9z"/>
		<path class="st119" d="M208.4,36.1c5.4,0.3,5.7,4.9,5.3,8.1c-0.8,6.9-1.1,13.7-0.8,20.6c0.1,2.7-0.6,4.9-3.6,5.6
			c-3.7,0.9-4.1,3-2.4,6c-2.5,0.5-5,1.1-7.6,1.6c-2,0-3.9,0-5.9,0c-1.6-0.3-3.5,0.6-5.3-1.4c3.6-1.7,6.6-3.9,10.6-4.7
			c5.6-1.1,9.3-11.8,4.7-14.4c-7.9-4.5,1.4-4.3,1-7c-0.7-2.1-4.2-0.1-5.2-2.6c0-0.1,0-0.4-0.1-0.6C207.9,48.1,204,38.7,208.4,36.1z"
			/>
		<path class="st119" d="M210,31.5c-1.5,0-3.1-0.1-4.6-0.1c0-1,0-1.9,0-2.9c1.6-0.1,3.1-0.1,4.7-0.2c1.4,0.5,2.8,1.1,4.2,1.6
			C214,33.7,212,32.5,210,31.5z"/>
		<path class="st135" d="M91.6,139.3c2.8,1,5.2,0.4,7.2-1.8c7.8,3.8,14.3-1,21.1-3.3c2.1-0.7,1.3-3.5,1.3-5.4
			c0-3.7-0.1-7.5,2.9-10.4c3.2-1.4,5.8,0.4,8.1,2c5,3.4,10.6,5.9,14.9,10.4c-7,4-15,4.9-22.6,7.2c-12.4,3.5-24.7,7-39.2,11.1
			c4.2-4.2,8.2-3.9,11.1-5.9C96.1,140.4,92.2,141.7,91.6,139.3z"/>
		<path class="st136" d="M154.5,81c0-3,0-6,0-9c0,0,0,0,0,0c6.3-3.6,12.9-2.9,19.6-1.5c0,0,0-0.1,0-0.1c4.5,5.5,0.9,9-3.1,12.3
			c-2.7,4.3-7.5,2.2-10.6,3.7c3.3,0.6,6.8-2.7,10.6-0.6c1.1,2.2,5.2,0.1,5.1,3.1c-0.1,3-3.1,2.5-5.3,2.7c-1.8,0.1-2.6,1.2-2.9,2.8
			c-2.1-1-3.5,0.3-4,1.9c-0.6,2,1.4,1.3,2.4,1.7c-1.6,1.9-5.9,0-5.9,4.1c-0.5,0.5-1,1-1.5,1.5c-2.6-5.4-1.4-11.5-2.9-17.1
			C155.6,84.6,156.4,82.4,154.5,81z"/>
		<path class="st137" d="M147,98.9c2,6.8,2.3,13-4.5,17.6c-2.1,1.4-2,4.3-2.8,6.5c-4.8,1.2-7.4-2.3-10.5-4.8
			c-3.6-4.2-3.1-8,0.9-11.6c4-3.6,6.3-9,11.9-10.9C144.7,95,145.7,97.2,147,98.9z"/>
		<path class="st138" d="M130.4,117.6c3.1,1.8,6.2,3.6,9.3,5.4c2.5,3.6,8.2,2.8,10,7.4c-0.9,0.2-1.7,0.3-2.6,0.5
			c-7.5-4-15-8.1-22.5-12.1c-7.5-1.5-8.7-3.1-6.4-8.4C123.8,109.9,126.7,114.4,130.4,117.6z"/>
		<path class="st139" d="M147,98.9c-1.6-0.8-3.1-1.7-4.7-2.5c-0.2-0.3-0.4-0.5-0.7-0.8c0.6-4.2-3.5-6.6-3.7-10.5
			c0.6-0.4,1.2-0.7,1.9-0.9c1.5-0.1,2.9,0.4,4.1,1.2c3,2.9,2,7,3.1,10.5C147.1,96.9,147,97.9,147,98.9z"/>
		<path class="st140" d="M174.1,70.5c-6.5,0.5-13.2-0.8-19.6,1.5c0.5-3.7,3.4-2.8,5.7-3c2.6-0.2,5.5,0.8,7.7-1.4
			C170.3,68,173.7,66.1,174.1,70.5z"/>
		<path class="st141" d="M149.8,37.7c3-2.3,6-2.3,9.1-0.2C156,39.2,152.9,39.2,149.8,37.7z"/>
		<path class="st142" d="M145.6,26c4,0,7.9,0,11.9,0c0,0.2,0,0.5,0,0.7c-4,0-7.9,0-11.9,0C145.6,26.4,145.6,26.2,145.6,26z"/>
		<path class="st143" d="M84,189c14.5-5.5,28.6-12.2,43.6-16.3c6.1,0.1,11-3.7,16.7-5.2c2.3-0.6,4.7-2.7,6.7-0.1
			c2,2.6-1,3.8-2.2,5.4c-0.7,0.9,0,1.9,0.2,2.8c0.1,1.5-0.6,2.6-1.7,3.5c-3.2,1.8-6.6,3.3-9.8,5c-0.8,0.5-1.7,1-2.5,1.5
			c-4,0.8-5.2,3.6-5.2,7.2c-5.8,0.5-11.5,0.8-17.2-0.4c-5.2-1.9-10.7,1.5-15.9-0.6c-2.4-0.5-3,1.2-3.4,3c-1.2,1.8-3.1,3-4.9,2.5
			c-2.6-0.8-9.5,0.2-3.4-5.9C85.7,190.7,84.4,189.8,84,189z"/>
		<path class="st144" d="M148.5,175.5c-9.6-5.2,5-3.8,0.7-7.8c-3.1,0.2-6.9,1.8-10.8,3.4c-3.4,1.4-6.8,4.5-10.9,1.5
			c2.7-3.2,7.1-2.5,10.3-4.7c18.5-7,37-14.1,55.5-21.1c2.3-0.8,4.3-0.8,2.4,2.3c-1.5,2.6-4.7,2.1-8,3.1c3.1-0.6,5-0.1,6.3,2
			c0.4,1,0.4,2,0,3c-5.3,3.6-11,6.2-16.7,8.9c-3.3,1.5-6.8,2.2-10.2,1.2c-2.4-0.7-5.7-1.9-3.6-4
			C160.9,168.2,160.5,179.2,148.5,175.5z"/>
		<path class="st145" d="M61.4,198c4.3-2.2,8.4-5.2,13.7-4.2c5.3,1.3,10.7,2.6,12.7,8.7c-0.2,1.1-0.8,2-1.8,2.6
			c-1.9,0.9-4.1,0.8-5.9,2c-2.9,1.5-5.7,3.2-8.9,0.9C68.3,204.2,62,203.9,61.4,198z"/>
		<path class="st146" d="M87,202.5c-2.5-4.9-8.8-4.6-11.9-8.8c2.2-3.2,5.5-4.1,9-4.8c2,0.4,5.2-1.1,5.5,2.1c0.3,3.7-4,1.4-5.6,3.2
			c3.3,2.2,6.4,2.6,9-0.8c4.1-2.4,6.1-0.3,7.3,3.4c0.1,0.8,0,1.6-0.3,2.3C96.5,203.6,92.2,204.8,87,202.5z"/>
		<path class="st147" d="M45,204c-1.1,0.2-2.4,1.4-3.4,0c-1.1-1.5,0.3-2.4,1.4-2.8c4.2-1.6,8.4-3.1,12.6-4.6
			c1.1,1.6,2.9,1.3,4.5,1.4c0.5,0.7,0.4,1.4-0.2,2C55,201.8,50.5,204.8,45,204z"/>
		<path class="st148" d="M60,199.3c0-0.4,0-0.8,0.1-1.3c0.4-0.1,0.8-0.1,1.3-0.1c2.8,3.8,8.3,4.5,10.5,9c-0.3,0.2-0.5,0.5-0.8,0.7
			c-1,0.4-2.1,0.3-3.1,0C64.8,205.4,59.4,205.3,60,199.3z"/>
		<path class="st149" d="M60,199.3c1.4,4.5,6.5,4.6,9,7.7c-0.7,6.1-3.1,7.2-12.1,6c-1-0.5-2.1-0.9-3.1-1.4c-1.2-4.5-7.6-3-8.8-7.6
			C49.8,201.7,54.5,199.2,60,199.3z"/>
		<path class="st150" d="M193.4,154.6c-2-1.6-4.4-1.4-7.4-0.9c2.1-3.7,5.9-3.1,8.2-4.9c2.3-1.8-0.1-1.4-0.8-1.9
			c1.7-1.5,3.8-1.6,5.9-1.7c1.9,2.9,7.2-0.1,8,4.7c-0.9,1.8-2.5,2.5-4.3,3C199.5,151.4,196.9,155.4,193.4,154.6z"/>
		<path class="st151" d="M171,85.7c-3.5,0.2-6.9,2.6-10.6,0.8c2.8-3.4,7.6-1.2,10.6-3.8c1.7,0.3,3.9-1,5.2,1.3
			C175,86.4,172.7,85.1,171,85.7z"/>
		<path class="st48" d="M118.5,110.8c-0.7,3-0.7,3,6,7.9c-0.7,3.1-2.4,6.3-1.4,9.4c2.3,7.3-1.9,9-7.6,10.2
			c-3.8,0.8-7.7,1.9-11.3,3.3c-4.4,1.8-5.2-0.6-5.4-4c1.6-5.8,3.3-11.7,4.9-17.5c0.7,0.2,1.4,0.3,2.1,0.5c-3-4.7,1.3-7,3.2-10.3
			c5.4-8.9,10.2-18.1,13.3-28.1c2.7-8.6-4-16.1-14.3-16.1c-0.3-1-2.3-1.9-0.3-3.1c1.2-0.3,2.4-0.6,3.5-1c2.6-1.1,3.8-6.6,7.7-3.4
			c4.1,3.4,7.3,7.7,7.4,13.6c0.1,3-3.5,5.9-0.3,9c0.9,1,1.3,2.2,1,3.4C124.3,93.2,122.1,102.2,118.5,110.8z"/>
		<path class="st152" d="M95.7,94.1c0.3,2.5,0.5,5.2-2.5,6c-2.5,0.7-4.7-0.6-6.1-2.8C90.7,98,93.6,97.2,95.7,94.1z"/>
		<path class="st153" d="M306.1,174c-3.2-2.4-8-1.4-10.5-5.1c5.2,1.3,10.5,2.1,15,5.4C309,174.2,307.5,174.1,306.1,174z"/>
		<path class="st154" d="M241.1,148.8c1.2-0.2,2.4-0.4,3.6-0.6c3.6-2.6,7.1-0.6,10.5,0.4c4.5,1.3,8.9,2.9,13.3,4.2
			c10,2.8,19.8,6.7,29.9,9.1c6.2,3,13.8,2.7,19.3,7.4c0.7,2.1,2.7,2.6,4.5,3.2c-5.9,2.2-10.8-1.7-16-3.1
			c-14.7-3.8-28.8-9.6-43.7-12.3c-6.7-1.8-13.9-2.4-19.6-7.2C242.3,149.6,241.7,149.2,241.1,148.8z"/>
		<path class="st155" d="M243,150.1c6.3,3,13.5,3.5,19.6,7.2c0,0.6,0,1.1,0,1.7c-2.1,1.9-2.5-2.5-4.5-1.2c-6.1-2-12.2-4.1-18.3-6.1
			C240.9,151.3,242.4,151.6,243,150.1z"/>
		<path class="st156" d="M229.5,86.9c-1-5.6,2.1-10.9,1.4-16.5c-3.2-5.4-1.5-10.2,1.6-14.9c2.1,0,3.4-1.6,5.2-2.5
			c4.3-2.2,7.5-2.1,6.9,4.1c2.5,4,0.8,8.2,0.7,12.4c-0.1,2.7-0.7,5.5,0.5,8.1c0,3.6,0.1,7.2,0.1,10.8c-0.6,0.4-1.1,0.8-1.7,1.2
			c-0.4-0.6-0.9-1.1-1.3-1.7c-2.3-3.5,0.2-6.9-0.6-9.9c-0.6,2.7,0.9,6.6-2.4,9.1C236.4,87,233,87,229.5,86.9z"/>
		<path class="st113" d="M250.5,24c5.9-1.4,12-1.9,18-1.4c3.7,12.1-8.4,27.7-19.7,25.3C246.2,39.8,248.6,31.9,250.5,24z"/>
		<path class="st157" d="M250.5,24c-0.5,8-1.1,16-1.6,24c-1.8,3.8-1,7.9-1.6,11.9c-2.9,0.1-2-1.7-1.6-3.2c0.6-8.9,1.1-17.8,1.7-26.7
			C247.6,27.5,247.3,24.8,250.5,24z"/>
		<path class="st158" d="M245.7,56.7c0.5,1.1,1,2.1,1.6,3.2c-0.5,5.9-1,11.8-1.4,17.7c-3.2-6.7-0.6-13.7-1.2-20.5
			C245,57,245.4,56.8,245.7,56.7z"/>
		<path class="st159" d="M237.2,163.5c3.1-0.2,6.2,2.1,9.3-1.2c1.9-2,4.9-1.7,6.7,1.1c-8,4.9-16,9.8-24,14.6
			c-5.6,5.8-12.7,9.1-20.1,11.9c-2.2,0.1-4.2,0.8-6.2,1.9c-2.3,1.3-4.6,3.3-7.3,1.3c-2.9-2.1-1.9-5.2-1.3-8
			c3.4-4.7,9.1-5.8,13.7-8.5c2.8-1.6,5.8-2.8,8.2-5.1c2.7-2,5.1-0.6,7.3,0.7c2.6,1.5,4.6,0.9,6.2-1.4c1.4-1.5,1.7-3.4,2.1-5.2
			C233.1,163.5,235.1,163.2,237.2,163.5z"/>
		<path class="st160" d="M208.4,188.8c7.6-2.3,13.1-8.6,20.8-10.7c0,1.6,0.1,3.2,0.1,4.8c-13.6,8-27.2,16-40.9,24
			c-2.8,1.6-5.7,3-8.5,4.6c-0.9-2-2.5-2.9-4.7-3c2.5-6.3,9-7.2,13.9-10.2C195.2,194.4,201.7,191.4,208.4,188.8z"/>
		<path class="st161" d="M265.4,137.6c0.6-0.8,1.1-1.7,1.7-2.5c7.4-3.1,14.8-6.2,22.2-9.3c4.8,3.1,3.9,7.3,1.7,11.3
			c-1.3,2.4-3.2,4.4,0,6.6c-0.9,1.1-1.9,1-3,0.3C280.4,141.9,272.9,139.8,265.4,137.6z"/>
		<path class="st162" d="M317.8,169.5c-6.7-1.2-13.3-2.5-19.3-5.9c-3.5-2.8-7.4-4.9-11.8-6.1c-2.2-0.6-5.2-1.1-4.6-4.7
			c13.7,2.4,26.2,8.6,39.5,11.9C321.3,167.6,319.2,168.3,317.8,169.5z"/>
		<path class="st163" d="M268.5,154.5c-8.2-0.8-15.4-5.7-23.8-6.2c-0.1-0.5-0.2-1-0.3-1.5c2.2-1.3,4.4-2.6,6.6-3.9
			c6.7-0.7,11.5,4.3,17.6,5.6c1.8,1.1,4.6,1.4,3.8,4.5C271.8,155,270.5,155.8,268.5,154.5z"/>
		<path class="st164" d="M268.5,154.5c6.4-2,0.9-4,0-6c4.9,0.3,9.2,2.4,13.5,4.4c1.9,2.9,5,2.9,7.9,3.5c4.1,0.9,7.5,2.8,8.6,7.2
			C288,162.1,278.3,158.1,268.5,154.5z"/>
		<path class="st165" d="M321.3,157.3c-1.4,2.3-3,0.7-4.5,0.2c-7.6-2.4-15.1-4.9-22.7-7.2c-1.8-0.6-4.3-0.4-3-3.5
			C301.8,148.3,312.3,150.8,321.3,157.3z"/>
		<path class="st166" d="M321.3,157.3c-9.5-5.3-20-7.6-30.3-10.5c-1-0.9-2.1-1.8-3.1-2.8c1-0.1,2-0.2,3-0.3c1.7,1.5,3.7,1.9,5.9,1.8
			c2.3,1.7,4.9,2.3,7.7,2.7c3.3,1.7,6.8,2.9,10.5,3.2c2.8,3.1,7.6,1.6,10.5,4.6C323.8,155.7,322.5,156.3,321.3,157.3z"/>
		<path class="st167" d="M208.4,188.8c-11,6.6-22.1,13.1-33.1,19.7c-3.4,1.1-6.3,4-10.3,2.9c-2.9-0.7-5.5-2-8.1-3.3
			c-0.8-0.6-1.4-1.4-1.4-2.5c1.5-3.2,5.1-4,7.3-6.3c0.6-0.3,1.2-0.6,1.8-0.7c4.3-0.9,7.8-3.5,11.7-5.2c5.3-2.4,10.4-5.4,15.6-8
			c1.1-0.2,2.1-0.2,2.9,0.7c0.5,7.9,0.6,7.9,7.6,3.9C204.3,188.9,206,186.5,208.4,188.8z"/>
		<path class="st168" d="M157.1,207.2c3.3,0.1,6.1,1.2,7.9,4.2c-5.7,8.9-14.5,10.8-22.7,5.1c-2.2-1.5-1.9-2.5-0.1-3.8
			c1.7-2.7,4.7-3.6,7.1-5.3C151.9,205.2,154.5,206.6,157.1,207.2z"/>
		<path class="st169" d="M141,211.5c-0.9-0.1-1.8-0.2-2.8-0.3c-8.1-2.1-8.3-2.6-5.4-10.2c2.5-2.3,5.5-2.4,8.7-2
			c3.3,0.4,6.7,0.6,8.7,3.8c-0.6,1.7,1.1,3.9-1.1,5.2C146.7,209.7,143.8,210.6,141,211.5z"/>
		<path class="st0" d="M136.4,212.9c-3.7,2.1-7.1,5-11.9,4.5c-2.3-2.4-7.3-2.6-6.1-7.7c0.5-0.5,1-1,1.6-1.3c2.9-0.9,5.6-2.8,8.9-2.2
			c2,2.3,5.1,3.1,7.2,5.3C136.4,212,136.5,212.4,136.4,212.9z"/>
		<path class="st170" d="M136.1,211.6c-3-0.5-5.7-1.6-7.1-4.6c-2-7.4-8.3-4.1-12.8-5.1c-0.6-0.3-1-0.8-1.2-1.5
			c-0.8-3.3-5.5-2.1-6.2-5.5c-0.2-0.7-0.2-1.4,0-2.1c0.7-1.6,2-1.7,3.5-1.4c4.1,4.9,10.6,3,15.6,5.2c1.9,1.4,4.3,2.1,5.3,4.6
			c-1.6,5,1,7.8,5,9.9C137.5,211.3,136.8,211.4,136.1,211.6z"/>
		<path class="st171" d="M141,211.5c2.6-1.4,5.2-2.7,7.8-4.1c0.6,0.1,0.9,0.4,1.1,1c-2,2.3-4.8,3.4-7.6,4.3
			C141.8,212.2,141.4,211.8,141,211.5z"/>
		<path class="st149" d="M71.9,206.9c2.9,1.9,5.1-0.4,7.4-1.4c3.3,0.3,6.4,0.9,7.6,4.7c-5.7,6-12.9,8.6-21,8.8
			c-0.5-0.3-1.1-0.7-1.6-1c-1.9-2.2-2.5-4.3,0.9-5.7C68,211.2,70.5,209.7,71.9,206.9L71.9,206.9z"/>
		<path class="st104" d="M71.9,206.9c0.7,3.5-1.6,4.5-4.3,5.4c-2.8,0.9-4.7,2.4-3.3,5.8c-2.6-1.4-4.2-4.4-7.4-5
			c4.5-1,9.8-0.4,12.1-6C70,207,70.9,207,71.9,206.9z"/>
		<path class="st172" d="M87,210.2c-2.5-1.6-5.1-3.1-7.6-4.7c1.7-1.9,3.8-1.6,6-1.4c3.3,2.1,7,3.5,10.4,5.4c0.1,0.6,0.2,1.2,0.3,1.9
			c-2,0.7-4,1.4-6,2.2C89,212.4,88,211.3,87,210.2z"/>
		<path class="st173" d="M95.7,209.5c-4.9,1-8.4-0.8-10.4-5.4c0.6-0.5,1.1-1,1.7-1.6c4-0.7,8.2-0.8,11.9-3c0.7,0.2,1.2,0.6,1.8,1
			c2.1,1.8,3.6,4.1,4.7,6.5c-0.2,3.1-2.9,3.1-4.9,4C99.2,209.8,98.5,206.6,95.7,209.5z"/>
		<path class="st0" d="M100.5,211.1c0-3,3.4-2.1,4.5-3.9c0.8-2.9,3.2-3.2,5.7-3.1c2.8,0.6,5.3,1.5,6.5,4.4c-0.6,1.6-1.1,3.1-1.7,4.7
			C110.4,213,104.9,216.2,100.5,211.1z"/>
		<path class="st174" d="M117.2,208.4c-2.1-1.1-4.1-2.1-6.2-3.2c-1.1-0.4-2.1-0.8-2-2.3c1.4-2.6,2.9-5.1,6.4-2.7l-0.1,0.2
			c0.3,3.6,6.8,4.4,4.1,9.3c-0.4,0-0.7,0-1.1-0.1C118,209.3,117.6,208.9,117.2,208.4z"/>
		<path class="st175" d="M232.6,55.6c-0.5,5-1.1,9.9-1.6,14.9c-8.3-4.3-12.3-13.5-10.4-23.9c1.6-0.2,2.5-1,3.1-2.6
			c1.6-4,3.2-3.1,4.4,0.3c0.8,2.3,1.2,4.9,4.4,5.2C232.5,51.5,232.5,53.5,232.6,55.6z"/>
		<path class="st175" d="M210,31.5c1.6-0.1,3.3,0.3,4.3-1.5c1.7,1.6,1.5,4,4.8,5.2c4.3,1.6,1.2,3.3-1.7,3.8c1.5-3.2-1.2-2.4-2.7-3.3
			C213.1,34.6,208.4,36.5,210,31.5z"/>
		<path class="st176" d="M202.5,151.6c1.6-0.6,3.3-1.2,4.9-1.8c7.9,0.4,15.2,2.7,22.4,5.8c0.4,0.6,0.5,1.3,0.2,2
			c-4.9,3.3-10.6,5-15.6,8.3c-1.7,1.1-3.3,2.4-5.3,2.9c-4.4,0.5-7.8,3.1-11.3,5.3c-2.6,3.3-5.7,5.8-10.2,5.8c-1,0-2.1-0.1-3.1-0.5
			c-4-1.6-8.7,0.2-12.4-2.8c-0.6-0.3-1.1-0.8-1.6-1.3c-0.5-1.6-0.2-3.3,1.4-3.7c5.8-1.2,10.7-5.2,16.8-5.3c3.3-1.2,6.8-1.9,9.6-4.2
			c0.2-1.7-1.9-3.1-0.9-5c1.1-2,2.9-2.8,5-3.4c2.4-0.7-0.9-0.4-0.2-0.9C201.9,152.5,202,152,202.5,151.6z"/>
		<path class="st177" d="M229.5,157.4c0.1-0.6,0.2-1.2,0.2-1.8c3.6,0.8,7.2,1.6,10.6,2.3c0.9,3.3-3.4,3-3.1,5.5
			c-1.6,1.1-3.3,2.2-4.9,3.3c-1.1,0.3-2-0.1-2.9-0.5c-2.3-1.3-5.8-0.6-6.6-4.2C223.7,158.5,227.4,159.2,229.5,157.4z"/>
		<path class="st178" d="M239.9,87.1c0.8-3.5,1.5-7,2.3-10.5c0.3,0,0.5,0,0.8,0c0,3.8,0,7.5,0,11.3
			C241.7,88.4,240.7,88.1,239.9,87.1z"/>
		<path class="st77" d="M118.5,110.8c-0.8-10.8,5.6-19.7,7.4-29.9c1.4-3.9,3-7.8,4.3-11.8c0.8-2.6,1.8-4.6,4.8-4.6
			c0.8,0.7,1.2,1.7,1.2,2.8c-0.5,3-0.6,6-0.4,9c-0.3,3.3-2.5,6.4-0.6,9.8c1.6,3.9,5.6,5.9,7.3,9.8c0,0-0.2,0.4-0.2,0.4
			c-3.6,3.7-6.8,7.9-10.8,11.1c-4,3.3-3.8,6.4-1.2,10.1C126.4,115.3,122.5,113.1,118.5,110.8z"/>
		<path class="st179" d="M135,76.5c-1.9-3-2.4-6,0.3-8.9c2.5-0.3,3.9,1.4,5.3,3c1.4,3,6.6,5.7,0.6,9.2
			C138.2,80.6,136.1,79.3,135,76.5z"/>
		<path class="st180" d="M135,76.5c2.1,1.1,4.2,2.2,6.2,3.3c-0.2,0.9-0.3,1.9-0.5,2.8c-0.3,0.5-0.8,0.9-1.3,1.2
			c-1.3,0.4-2.1,1.2-2.7,2.4c-1,0.9-2,1.7-3.3,0.8C130.5,83,132.2,79.6,135,76.5z"/>
		<path class="st181" d="M135.1,55.4c0.2-1.4,0.2-2.9,0.6-4.2c0.4-1.2,0.7-3.1,2.7-2.8c1.5,0.2,1.4,1.8,1.6,2.9
			c0.5,2.4,0.8,4.8,1.2,7.2c0.8,2.7,0.1,4.1-2.7,2.4C136.6,59.7,135.8,57.5,135.1,55.4z"/>
		<path class="st182" d="M140.6,70.6c-2.5,0.3-3.9-1.3-5.3-3c-0.1-1-0.2-2-0.3-3c0,0,0.2,0.2,0.2,0.2c1.6-6.3,3.8-2.9,5.9-0.3
			C142.4,66.6,141.1,68.6,140.6,70.6z"/>
		<path class="st183" d="M141.1,64.4c-2-1.7-4.1-2.9-5.9,0.3c0.4-3.1-1.9-6.2-0.2-9.3c1.4,1.3,2.8,2.6,4.1,4c1.9,2.1,1.4-0.6,2-1
			C143.3,60.5,142,62.4,141.1,64.4z"/>
		<path class="st184" d="M139,82.8c0.6-0.1,1.1-0.1,1.7-0.2c1.8,0.2,3.1,0.9,3.3,2.9c-1.5,0-3,0-4.5,0
			C138.7,84.7,138.5,83.8,139,82.8z"/>
		<path class="st185" d="M133.4,87c1.1-0.5,2.1-1,3.2-1.5c0.5-0.5,1-0.5,1.4,0.1c4.6,2.1,6.3,5.4,4.5,10.3
			C139.1,93.3,134.5,91.9,133.4,87z"/>
		<path class="st186" d="M138,85.6c-0.5-0.1-0.9-0.1-1.4-0.1c-0.1-1.7,0.5-2.8,2.4-2.7c0.2,0.9,0.3,1.8,0.5,2.7
			C139,85.5,138.5,85.6,138,85.6z"/>
		<path class="st187" d="M189,168.1c-6.3,1.7-12.6,3.2-18,7.2c-2.4,4-7.9,3.5-10.6,7.2c-2.4,1.5-5.1,1.7-7.9,1.7
			c-2.7-1-5.8-1.6-5.4-5.6c0.5-1,1-2,1.5-3c6.2-1.5,12.4-2.7,12.8-11.3c0.1-2.5,3.3-4.2,6.6-3.4c0.6,2.5-3.8,1.8-2.8,3.9
			c0.7,1.5,2.8,1.9,4.7,1.6c2.4-0.4,4.8-0.8,7.1-1.2c4.3-0.7,8.8-2.9,12.8,1C189.8,166.8,189.5,167.5,189,168.1z"/>
		<path class="st188" d="M127.4,198.1c-1.2-1.4-2.3-2.2-4.4-1.3c-5,2-8.3-0.4-10.5-4.8c-0.5-0.2-0.7-0.5-0.6-0.8
			c0.2-0.3,0.3-0.4,0.5-0.4c6,0.4,12.1,0.8,18.1,1.2c0.5,0.5,0.9,1.1,1,1.9C131.6,196.7,130,197.8,127.4,198.1z"/>
		<path class="st189" d="M147,178.5c1.1,2.7,3.8,3.2,6,4.5c0.5,2.7-1.3,3.7-3.4,4.5c-5,0.4-10.2,1.4-13.4-4.2
			C139.6,181.3,142.6,178.3,147,178.5z"/>
		<path class="st190" d="M130.5,193.5c0-0.5,0-1,0-1.5c-1.4-1.3-2.8-2.6-4.8-4.4c3.5-1.2,6.4-2.2,9.3-3.1c2.3,1.3,5.9,0.6,6.4,4.5
			c-1,2-2.7,3.4-4.7,4.4C134.7,194.2,132.6,195.3,130.5,193.5z"/>
		<path class="st191" d="M140.2,189c-0.5-2.9-4-2.4-5.2-4.5c0.4-0.4,0.9-0.8,1.3-1.1c4.2,2.8,8.9,2.9,13.7,2.6
			c2.4,1.2,6.5,0.1,6,4.8c-0.6,0.5-1.2,0.9-2,1C149.2,192.1,144.7,190.5,140.2,189z"/>
		<path class="st192" d="M112.4,190.8c0,0.4,0.1,0.8,0.1,1.2c-1.1,0.4-2.2,0.8-3.4,1.1c-6.3,4.8-7.9,4.5-13.1-2.7
			c1.2-0.2,2.4-0.7,3.6-0.7c2.8,0,6.3,5,8.1-1.3C109.3,189.3,110.9,190,112.4,190.8z"/>
		<path class="st193" d="M96.1,190.5c3.6,4.7,8.1,4.8,13.1,2.7c0.1,0.6,0.3,1.2,0.4,1.8c-2.8,3.4-6,5.6-10.6,3
			c-0.2-3.9-2.8-4.7-6-4.6c-1.3-1-2.2-2.3-0.8-3.6C93.5,188.5,94.8,190,96.1,190.5z"/>
		<path class="st194" d="M189,166.6c-3.8-2.6-8.3,0.2-12.2-1.6c5.6-2.4,9.9-7.6,16.7-7.5c0.5-0.5,1.1-0.9,1.7-1.1
			c1.1-0.1,2,0.2,2.7,1.1c-1.3,3,3.8,1.8,2.9,4.5C197.3,164.4,193.5,166.4,189,166.6z"/>
		<path class="st195" d="M195.4,157.4c-0.6,0.1-1.3,0.1-1.9,0.2c0-1-0.1-1.9-0.1-2.9c2-4.1,5.2-4.4,9-3c0,0.4,0,0.8,0,1.3
			C200.7,155.2,198,156.2,195.4,157.4z"/>
		<path class="st91" d="M99,198c4,0.8,6.7-3.3,10.5-3c1.9,1.8,6.4,0.8,5.9,5.3c-2,1.2-4.9,1-6,3.8c-4.8,2.2-7.6-1.1-10.6-3.8
			c0,0,0-0.7,0-0.7C98.9,199,99,198.5,99,198z"/>
		<path class="st196" d="M223.4,161.8c1.6,3.2,5.9,0.2,7.6,3.3c-0.2,0.4-0.3,1-0.7,1.2c-3.8,2.3-3.1,3.8,0.7,4.8
			c-0.9,4.8-3.8,5.2-7.6,3.3c-1.9-0.9-3.3-3.1-5.8-2.2c-8.2,4.4-16,9.8-25.3,11.8c-2.5-1-5.4-1.8-4.7-5.6c4.1-0.2,6.6-2.8,8.7-6
			c4.9,0.7,7.9-4,12.4-4.5c1.3-1,2.6-2,4-3C216.8,165.6,219.1,160.5,223.4,161.8z"/>
		<path class="st197" d="M192.3,183.2c6.8-0.2,11.3-5.5,17.2-7.7c2.7-1,5.4-2.2,8.1-3.3c-3.3,4.9-9.3,5.6-13.7,8.7
			c-2.8,2-5.9,3.4-8.9,5c-0.9,0.2-1.8,0.4-2.6,0.6c-0.6-0.2-1-0.6-1.2-1.2c0-0.6,0.1-1.2,0.3-1.8C191.7,183.5,192,183.3,192.3,183.2
			z"/>
		<path class="st198" d="M231,171.1c-3,2.3-5.6,0-8.4-0.6c1.6-3.9,5.7-3.6,8.4-5.5c0.4,0.5,0.9,1.1,1.3,1.6
			C235.6,169.3,232,169.8,231,171.1z"/>
		<path class="st199" d="M164.4,199.5l-0.3,0c-2.9,0.3-5.5-0.8-8-2.2c-0.5-0.5-0.9-1.1-1-1.9c2.1-6,7.5-6.4,12.6-7.2
			c2.9,0.9,5.9,1.6,6.7,5.2C172.2,197.1,168.3,198.4,164.4,199.5z"/>
		<path class="st200" d="M192.4,186.6c-5.2,2.7-10.3,5.4-15.5,8c-0.4-0.6-0.6-1.2-0.5-1.9c1.3-2.6,3.3-4.5,5.5-6.2
			c3.1-1,6.1-2.7,9.4-0.8C191.7,185.9,192.1,186.2,192.4,186.6z"/>
		<path class="st201" d="M156,196.4c3.2-0.3,5.7,1.3,8.2,3.1c-1,4.2-5.2,4.3-8,6.2c-0.5-0.4-0.9-1-0.9-1.7
			C157.2,201.6,156.9,199.1,156,196.4z"/>
		<path class="st202" d="M156,204c0.1,0.5,0.1,1.1,0.2,1.6c-0.1,0.8,0.1,1.4,0.9,1.5c-2.2,1.9-5.1-0.5-7.3,1.2
			c-0.4-0.3-0.8-0.6-1.1-1c0.4-1.1,0.8-2.2,1.3-3.4C152,202.2,154,202.3,156,204z"/>
		<path class="st203" d="M176.9,192.7c0,0.6,0,1.3,0,1.9c-4.2,1.5-7.2,6-12.5,4.9c3.2-2.2,6.3-4.4,9.5-6.6
			C174.9,192.3,175.9,192.3,176.9,192.7z"/>
		<path class="st204" d="M156,204c-2,0-4,0-6,0c-2.3-3-5.6-3.2-8.9-3.3c-0.3-1.2,0.4-2,1.3-2.7c1.2-0.9,2.6-1.4,4-1.8
			c3.2-0.5,6.6-2.6,9.7,0.4c0,0-0.1-0.1-0.1-0.1c1.4,1.2,2.8,2.5,4.4,3.8C158.9,201.5,157.4,202.8,156,204z"/>
		<path class="st205" d="M142.4,199.5c-0.5,0.4-0.9,0.8-1.4,1.2c-2.7-1.2-5.2,0.5-7.9,0.5c-2.1-0.7-4.2-1.3-5.7-3.1
			c0.9-1.6,3.3-2.3,3.1-4.6c2-0.5,4.1-1,6.1-1.5C139.1,194.1,144.3,194,142.4,199.5z"/>
		<path class="st206" d="M119.5,209.8c0.3-2.3-1.6-3.1-3.1-3.6c-3.8-1.4-2.3-3.5-1.1-5.7c3.9,1.3,7.8-3,12,0.2
			c2.8,2.1,4,3.5,1.5,6.3C125.7,207.6,123.1,210.4,119.5,209.8z"/>
		<path class="st207" d="M98.9,200.2c3.6,1.1,6.5,4.1,10.6,3.8c0.5,0.4,1,0.8,1.5,1.2c-2.3-0.4-4.2,0.6-6,2
			C102.8,205,100.2,203.2,98.9,200.2z"/>
		<path class="st208" d="M187.6,178.5c0.6,2.6,3.6,2.7,4.7,4.7c0,0-0.1-0.1-0.1-0.1c-3.7,2.7-7.8,0.6-11.7,0.9
			c-1.8-0.2-3.5-0.5-5.3-0.7c-1.9-0.2-3.8-0.2-5.7,0.1c-3.3,0.6-4.4-1.1-3.7-4.2c1.2-1.9,3.1-2,5-2.2c4.5-0.2,8.6,3.5,13.3,1.1
			C185.2,178.3,186.4,178.4,187.6,178.5z"/>
		<path class="st209" d="M223.4,161.8c-4-0.3-5.9,6.4-10.8,3.2c5.2-3.4,10.4-6.8,16.8-7.6C227.5,158.9,225.4,160.3,223.4,161.8z"/>
		<path class="st210" d="M184,178.2c-4.2,3-8.6,0.6-12.9,0.3c-0.9-2,0.8-2.4,2-3C176.1,179,181.2,173.9,184,178.2z"/>
		<path class="st211" d="M173.1,175.5c-0.7,1-1.3,2-2,3c-1.5,0.3-3.1,0.5-4.6,0.8c-0.8,1.9-2.2,3.1-4.3,3.5
			c-1.2,0.1-2.3-0.1-3.2-1.1c2.6-4.7,8-4.4,12.1-6.4C171.7,175.3,172.4,175.4,173.1,175.5z"/>
		<path class="st212" d="M208.7,168c-3.9,2.2-6.9,6.8-12.4,4.5C200.7,171.8,203.4,166.2,208.7,168z"/>
		<path class="st213" d="M195.4,157.4c2-2.1,4.1-3.9,7-4.5c1.6-0.3,3.2-0.6,4.8-1c0.2,0.3,0.3,0.6,0.5,0.9c-3.3,1.6-6.5,3.2-9.8,4.7
			C197.1,157.5,196.3,157.4,195.4,157.4z"/>
		<path class="st214" d="M189,166.6c4-1.5,7.9-3,11.9-4.5c-2.8,4.4-7.5,4.9-12,6.1C189,167.6,189,167.1,189,166.6z"/>
		<path class="st215" d="M158.9,181.7c1-0.1,2.1-0.1,3.1-0.2c1.4,0.8,3.6,0.6,3.8,3c-0.9,5.7-4.2,7.6-9.7,5.9
			c-2-1.5-4.1-2.9-6.1-4.4c1.5-0.6,2.5-1.6,3.1-3C155,182.6,156.9,182.1,158.9,181.7z"/>
		<path class="st216" d="M142.4,199.5c0.2-4.2-6.1-3.2-5.8-7.5c1.4-0.7,1.5-3,3.6-3c5-1.5,9.6,1.3,14.5,1.5c1.4,2.8-0.4,3.8-2.6,4.7
			c-2.5,1-4.9,2-7.4,2.8C143.9,198.5,143.2,199,142.4,199.5z"/>
		<path class="st217" d="M144.7,198c2.6-3.5,9-1.9,10-7.5c0.5,0.1,0.9,0.1,1.4-0.1c4.2-0.1,8.4-0.1,8.9-5.8
			c3.3-1.5,7.1-1.5,10.4-3.1c1.6-0.2,3.4-0.9,4.3,1.3c-0.4,1.8-1.4,3.1-2.9,4.1c-2.9,1.1-5.7,2.2-8.9,1.9
			c-3.4,3.5-10.6,1.1-11.8,7.8C152,195,148.7,199,144.7,198z"/>
		<path class="st218" d="M176.8,185.9c0.1-1.8,1.1-2.8,2.9-3c4.2-2.5,8.3,0.8,12.5,0.3c-0.3,0.9-0.6,1.7-0.9,2.6
			c-3.2,0.7-6.1,2.7-9.5,1.9C179.6,188.6,178,187.7,176.8,185.9z"/>
		<path class="st219" d="M176.8,185.9c1.7,0.6,3.3,1.2,5,1.7c0.1,3.3-3.2,3.5-4.8,5.1c-1,0.1-2,0.2-3,0.2c-2-1.4-4-2.8-6.1-4.2
			C170.4,186.5,173.4,185.7,176.8,185.9z"/>
		<path class="st220" d="M175.4,181.5c-2.7,3.7-6.4,3.8-10.4,3.1c-1-1-2-2-3-3c1.5-0.8,3-1.5,4.4-2.3c0.4,1.3,0.2,4.5,2.4,2.5
			C171.5,179.6,173.3,181.7,175.4,181.5z"/>
	</g>
</g>
<g>
</g>
<g>
</g>
<g>
</g>
<g>
</g>
<g>
</g>
<g>
</g>
</svg>
