<?xml version="1.0" encoding="utf-8"?>
<!-- Generator: Adobe Illustrator 21.0.0, SVG Export Plug-In . SVG Version: 6.00 Build 0)  -->
<svg version="1.1" id="Layer_1" xmlns="http://www.w3.org/2000/svg" xmlns:xlink="http://www.w3.org/1999/xlink" x="0px" y="0px"
	 viewBox="0 0 380 82.6" style="enable-background:new 0 0 380 82.6;" xml:space="preserve">
<style type="text/css">
	.st0{fill:#FFDF22;}
	.st1{fill:none;}
</style>
<g>
	<path class="st0" d="M155.3,22.9c-1.3,0.2-2.4,0.3-3.3,0.5c-1.1,0.2-2.1,0.5-3,1.1c0.8,0.6,1.4,1.3,2.1,1.9c1.3,1.4,1.9,3,1.9,4.8
		c0.2,1.7-0.3,3.5-1.4,5.1c-0.8,1.3-1.9,2.2-3.2,3c-1.3,0.8-2.7,1.3-4.1,1.6c0.8,0.6,1.4,1.3,2.1,1.9c1.1,1.4,1.6,3,1.7,4.9
		c0,1.7-0.3,3.5-1,5.1c-0.6,1.6-1.6,3-2.9,4.1c-1.3,1.3-2.5,2.1-4.1,2.7c-0.8,0.3-1.6,0.5-2.5,0.6c-1,0.2-1.7,0.2-2.5,0.2
		s-1.7-0.3-2.5-0.5s-1.6-0.8-2.2-1.3c-0.8-0.6-1.4-1.6-1.9-2.5c-0.3-1-0.5-2.1-0.5-3.2c-0.3,0.3-0.8,0.8-1.1,1.1
		c-0.3,0.3-0.8,0.8-1.1,1.1c-1.4,1.3-3,2.4-4.6,3.2c-1.7,1-3.5,1.3-5.4,1.3c-1.9,0-3.7-0.6-5.1-1.6c-1.4-1.1-2.4-2.5-2.9-4.3
		c-0.5-1.6-0.6-3.3-0.5-5.2s0.6-3.7,1.3-5.4c0.6-1.7,1.6-3.2,2.9-4.6c1.3-1.4,2.5-2.4,4.1-3.2c0.8-0.3,1.4-0.6,2.2-0.8
		c0.8-0.2,1.6-0.3,2.2-0.2c0-1,0.3-1.7,0.8-2.7c0.5-1,1-1.7,1.4-2.4c1.1-1.4,2.4-2.5,3.8-3.7c1.4-1.1,3-1.7,4.8-2.4
		c1.1-0.5,2.4-0.8,3.7-1c1.3-0.3,2.7-0.5,4-0.5c1.4,0,2.7,0,4.1,0.2c1.3,0.2,2.7,0.5,3.8,1c1.6-0.8,3.2-1.1,4.9-1.3
		C152.6,21.5,154.1,21.9,155.3,22.9z M131.8,27.5c0.3,1.7,0.3,3.5,0,5.2c-0.5,1.7-1.1,3.3-2.4,4.6c-0.5,0.6-1.1,1.1-1.9,1.4
		c-0.8,0.5-1.4,0.6-2.2,0.8c0.3,1.3,0.3,2.5,0,4c-0.3,1.3-0.8,2.5-1.4,3.7c-0.5,0.8-1.1,1.4-1.7,2.1c-0.6,0.6-1.4,1.1-2.2,1.4
		s-1.6,0.6-2.5,0.8c-1,0.2-1.7,0.2-2.7,0c-0.2,0-0.3-0.2-0.6-0.2s-0.3-0.2-0.5-0.2c-0.2,0-0.2-0.2,0-0.2s0.2-0.2,0.3-0.3
		c0.2-0.2,0.2-0.2,0.3-0.2s0.2-0.2,0.2-0.2c0.2-0.2,0.3-0.2,0.5-0.3c0.2-0.2,0.3-0.3,0.5-0.3c0.6-0.5,1.3-1,1.9-1.6
		c0.6-0.6,1.1-1.3,1.4-2.1c0.3-0.5,0.5-1.1,0.8-2.1s0.5-1.7,0.5-2.7c0-1,0-1.7-0.3-2.4c-0.3-0.6-1-1.1-1.7-1.1c-1,0-1.7,0.2-2.5,0.5
		c-0.8,0.3-1.6,0.8-2.2,1.4c-0.6,0.6-1.3,1.3-1.7,2.1c-0.5,0.8-1,1.6-1.3,2.4c-0.3,0.8-0.5,1.6-0.8,2.5c-0.3,1-0.3,1.7-0.3,2.7
		c0,1,0,1.7,0.3,2.7c0.2,1,0.5,1.7,1,2.4c0.5,0.8,1.1,1.4,1.9,1.7c0.8,0.3,1.6,0.5,2.4,0.5s1.7-0.3,2.5-0.6s1.6-0.8,2.2-1.3
		c1.4-1.1,2.9-2.5,4-4c1.1-1.6,2.2-3.2,3.2-4.6c1.1-1.7,2.2-3.3,3.3-5.1c1.1-1.6,2.2-3.3,3.3-4.9s2.2-3.2,3.5-4.6
		c1.1-1.4,2.4-2.9,3.8-4.3c0.3-0.3,0.6-0.6,1-1c0.3-0.3,0.6-0.6,1.1-0.8c-0.8-0.3-1.7-0.5-2.7-0.6c-1-0.2-1.7-0.3-2.5-0.3
		c-1.7-0.2-3.7,0-5.6,0.3c-1.9,0.5-3.5,1.1-5.1,2.2c-0.8,0.6-1.6,1.3-2.2,2.1c-0.6,0.8-1.1,1.6-1.6,2.5c-0.5,1.1-0.6,2.1-0.6,2.9
		c0,0.8,0.3,1.4,0.6,1.7c0.5,0.3,1.1,0.3,1.7,0c0.8-0.3,1.7-1,2.7-2.2c0.6-0.6,1.1-1.4,1.6-2.2c0.5-0.8,1-1.6,1.4-2.4
		c0-0.2,0.2-0.5,0.3-0.8C130.7,28.5,131.7,27.5,131.8,27.5z M136.4,41.5c-0.5,0.6-0.8,1.3-1.3,1.9c-0.5,0.6-0.8,1.3-1.3,1.9
		c0.6-0.2,1.1-0.2,1.7,0c0.6,0.2,1.1,0.3,1.7,0.6c0.6,0.5,1,1,1.3,1.3c0.2,0.3,0.2,0.6,0,0.6s-0.3,0.2-0.6,0c-0.3-0.2-0.5,0-0.8,0
		c-0.8,0-1.6,0.3-2.2,0.6c-0.8,0.3-1.4,0.8-1.9,1.4c-0.5,0.6-1,1.3-1.3,2.1s-0.3,1.6-0.2,2.4c0.2,0.5,0.3,0.8,0.6,1
		c0.3,0.2,0.6,0.5,1,0.6c0.3,0.2,0.8,0.2,1.1,0.2c0.5,0,0.8,0,1.1,0c0.8-0.2,1.6-0.5,2.2-1c0.6-0.5,1.3-1,1.7-1.6
		c0.5-0.6,1-1.3,1.3-2.1s0.6-1.6,0.8-2.4c0.2-0.8,0.3-1.7,0.3-2.7c0-1-0.2-1.9-0.5-2.7c-0.3-0.6-0.6-1.1-1.3-1.4
		c-0.5-0.3-1.1-0.6-1.7-1c-0.3,0-0.6,0-0.8,0C137.1,41.5,136.8,41.5,136.4,41.5L136.4,41.5z M138.2,38.6l0.8,0.2
		c0.8,0,1.7-0.3,2.5-0.5c0.8-0.3,1.6-0.6,2.4-1.3c0.6-0.5,1.3-1,1.9-1.7c0.6-0.6,1.1-1.4,1.6-2.4c0.5-0.8,0.6-1.7,0.8-2.5
		c0.2-0.8-0.2-1.7-0.6-2.4c-0.5-0.6-1-1.1-1.4-1.6l-0.2,0.2c-1.3,1.4-2.4,3-3.3,4.6c-1,1.7-1.9,3.3-2.9,5.1L138.2,38.6z"/>
	<path class="st0" d="M159,48.5c-0.3,0-0.8,0-1.1,0s-0.8,0-1.1-0.2c-0.6,1.9-0.8,3.3-0.5,4.6c0.3,1.3,0.8,2.1,1.7,2.5
		c1,0.5,2.1,0.5,3.3,0.3c1.4-0.3,3-1,4.6-2.1c1.4-1,2.7-2.1,3.8-3.5s2.1-2.7,2.9-4.1c0.3-0.2,0.6-0.2,1-0.2c0.3,0,0.5,0.3,0.6,1
		c-0.8,1.4-1.7,3-3,4.4c-1.3,1.6-2.5,2.9-4.1,4.3c-2.4,2.1-4.8,3.3-7,4c-2.4,0.6-4.3,0.5-6-0.6c-1.3-0.8-2.2-1.9-2.9-3.3
		c-0.6-1.4-1-2.9-1-4.3c0-1.4,0.3-2.9,0.8-4.1c0.5-1.4,1.1-2.7,1.9-4c0.8-1.3,1.7-2.5,2.9-3.5s2.2-1.9,3.5-2.5s2.7-1.1,4.3-1.6
		c1.6-0.3,3.2-0.3,4.4,0c0.6,0.2,1.3,0.5,1.7,0.8c0.5,0.5,0.8,1,1,1.4c0.2,0.5,0.3,1.1,0.3,1.7s-0.2,1.3-0.5,1.9
		c-0.6,1.4-1.4,2.7-2.7,3.8c-1.3,1-2.5,1.7-4,2.4C162.2,48,160.6,48.5,159,48.5z M163.1,38.9c-1.3,1.1-2.4,2.2-3.3,3.7
		c-1,1.4-1.9,2.9-2.5,4.3c0.5-0.2,1.1-0.3,1.7-0.5c1-0.3,1.9-0.8,2.9-1.3s1.7-1.1,2.5-1.9c0.6-0.6,1.3-1.3,1.9-2.1
		c0.6-0.8,0.8-1.7,0.8-2.7c0-0.5-0.2-0.8-0.5-1c-0.3,0-0.6,0-1.1,0.2c-0.5,0.2-0.8,0.3-1.3,0.6C163.8,38.6,163.4,38.8,163.1,38.9z"
		/>
	<path class="st0" d="M187.9,24.8c0.6-0.5,1.4-0.8,2.4-1.1c1-0.3,1.7-0.3,2.4-0.3c0.8,0,1.3,0.2,1.7,0.5c0.5,0.3,0.6,1,0.6,1.6
		c0,0.6-0.2,1.3-0.3,1.7c-0.2,0.5-0.5,1.3-0.8,1.9s-0.6,1.3-1,1.7c-0.3,0.6-0.6,1.1-1,1.6c-0.6,1.1-1.4,2.2-2.2,3.3
		c-0.8,1.1-1.6,2.1-2.5,3.2s-2.1,2.2-3.2,3.3c-1.1,1.1-2.2,2.2-3.5,3.2c-0.3,0.3-0.6,0.5-1.1,0.8c-0.5,0.3-0.6,0.5-1,0.8
		c-0.2,0-0.2,0.2-0.3,0.3c-0.2,0.2-0.2,0.2-0.3,0.3c-0.2,0.5-0.3,1-0.5,1.3c-0.2,0.5-0.3,1-0.5,1.3c-0.2,0.6-0.3,1.4-0.3,2.4
		c0,1,0.2,1.6,0.6,2.2c0.3,0.6,1,1,1.6,1.1c0.8,0.2,1.7-0.2,2.9-0.8c0.6-0.3,1.3-0.6,1.7-1c0.6-0.3,1.1-0.8,1.7-1.1
		c0-1.1,0.2-2.2,0.5-3.2c0.3-1.1,0.6-2.1,1-3.2c0.5-1.1,1-2.1,1.4-3c0.5-1,1.1-1.9,1.6-2.9c0.6-1,1.3-2.1,2.1-3.2
		c0.8-1.1,1.4-2.4,2.2-3.5c0.8-1.1,1.6-2.2,2.4-3.3c0.8-1.1,1.6-2.1,2.4-2.9c0.6-0.6,1.3-1.3,2.1-1.9c0.8-0.6,1.4-1.1,2.4-1.6
		c0.6-0.3,1.1-0.6,1.7-1c0.6-0.3,1.3-0.3,1.9-0.3c0.3,0,0.5,0,0.8,0.2c0.3-0.2,0.6-0.3,1-0.2c0.3,0.2,0.6,0.3,0.8,0.5
		c0.2,0.3,0.3,0.5,0.3,0.8c0,0.3,0,0.6,0,1c-0.2,1.3-0.5,2.5-1,3.8c-0.5,1.3-1.1,2.5-1.9,3.8c-0.8,1.3-1.6,2.5-2.5,3.7
		c-1,1.3-1.7,2.2-2.7,3.3c-1.6,1.9-3.3,3.8-5.1,5.7c-1.7,1.9-3.5,3.7-5.4,5.4l-0.2,0.3c-0.2,0.6-0.3,1.4-0.5,2.2
		c-0.2,0.8,0,1.6,0.2,2.1c0.2,0.6,0.6,1,1.3,1.1c0.6,0.2,1.6-0.2,2.7-0.8c0.6-0.3,1.4-1,2.2-1.6c0.8-0.8,1.6-1.6,2.5-2.5
		c1-1,1.6-1.9,2.4-3c0.8-1.1,1.4-2.1,1.9-3c0.5-0.2,0.8-0.2,1.1-0.2c0.3,0.2,0.5,0.5,0.5,1c-0.5,1-1.1,2.1-1.7,3.2
		c-0.6,1.1-1.4,2.2-2.4,3.3c-1,1.1-1.7,2.2-2.9,3.2c-1,1-2.1,1.9-3.2,2.5c-1.1,0.6-2.2,1.1-3.3,1.3c-1.1,0.2-2.1,0.2-3,0
		c-1-0.3-1.7-0.8-2.4-1.4c-0.6-0.8-1.1-1.7-1.4-2.9c-0.5,0.3-1.1,0.8-1.6,1.1c-0.5,0.3-1.1,0.8-1.6,1.1c-1.3,0.8-2.5,1.3-4,1.4
		c-1.4,0.2-2.5,0-3.7-0.5s-2.1-1.3-2.7-2.4c-0.6-1.1-1.1-2.5-1-4.3c0-1.1,0.2-2.2,0.5-3.3c0.3-1.1,0.6-2.2,1-3.2c0.3-1,1-2.1,1.4-3
		c0.5-1,1.1-1.9,1.6-2.9c1.3-2.1,2.4-4,3.8-6c1.3-2.1,2.7-3.8,4.4-5.6c0.6-0.6,1.3-1.3,2.1-1.9C186.3,25.8,187.1,25.3,187.9,24.8z
		 M180.1,43.2c0.8-0.6,1.4-1.4,2.2-2.2s1.4-1.6,2.1-2.4c1-1.1,1.7-2.2,2.5-3.3c0.8-1.1,1.6-2.2,2.4-3.5c1.7-2.7,2.5-4.3,2.4-4.8
		c-0.2-0.5-1.3,0.6-3.3,3c-1.3,1.6-2.4,3.2-3.5,4.9s-2.2,3.3-3.2,5.1L180.1,43.2z M196.2,41.2c-0.5,0.8-1,1.7-1.4,2.5
		c-0.5,0.8-1,1.7-1.3,2.7c1.3-1.3,2.5-2.5,3.7-4c1.3-1.4,2.4-2.9,3.7-4.4c1.3-1.6,2.5-3.3,3.7-5.2c1.1-1.9,2.1-3.8,2.5-6
		c-0.5,0.5-1.1,1-1.6,1.4c-0.5,0.5-1,1-1.4,1.6c-0.6,0.8-1.3,1.7-2.1,2.7c-0.6,1-1.4,1.9-2.1,3c-0.6,1-1.3,2.1-2.1,3
		C197.1,39.4,196.6,40.4,196.2,41.2z"/>
	<path class="st0" d="M228.7,36.1c-0.6,1.3-1.3,2.2-1.7,3.3c-0.5,0.8-1,1.7-1.4,2.5c-0.5,0.8-0.8,1.4-1,1.6c-1.6,3-3,6-4.3,9.2
		c-1.3,3.2-2.5,6.4-3.8,9.7l2.2,0.6c0.6,0.2,1.3,0.3,1.9,0.5c0.6,0.2,1.4,0.3,2.1,0.3c0.6,0,1.3,0,1.9-0.2c0.5-0.2,1-0.5,1.4-0.8
		c-0.3,1.1-0.8,2.1-1.4,2.9c-0.6,0.8-1.4,1.6-2.4,2.1c-1,0.5-2.1,0.8-3,1c-1.1,0-2.1,0-3.2-0.2l-1.7-0.3c-0.6,1.4-1.3,2.7-1.9,4
		c-0.8,1.3-1.6,2.4-2.7,3.5c-1.1,1-2.2,1.7-3.5,2.4c-1.3,0.6-2.7,1-4.1,1c-1.6,0-3-0.5-4.4-1.3c-1.4-0.8-2.4-1.9-3.2-3.2
		s-1.1-2.5-1.1-4.1c0-1.4,0.2-2.9,0.8-4.1c0.5-1.3,1.3-2.5,2.2-3.7c1-1.1,2.2-1.9,3.5-2.4c1.7-0.6,3.5-0.8,5.6-0.6s3.8,0.5,5.6,1
		l0,0c0.5-1.3,1-2.5,1.3-3.8c0.5-1.3,1-2.5,1.4-3.8l-0.6,0.8c-0.5,0.6-1,1.3-1.4,2.1c-0.5,0.8-1.1,1.3-1.7,1.7
		c-0.6,0.5-1.3,0.8-2.1,1s-1.6,0-2.4-0.5c-1.6-0.6-2.5-1.7-2.9-3c-0.3-1.4-0.5-2.9-0.2-4.6c0.3-1.9,1-3.7,1.9-5.4
		c1-1.7,1.9-3.3,3-4.9c0.5-0.6,1.1-1.4,1.7-2.2c0.6-0.8,1.4-1.4,2.2-1.9c0.5-0.3,1.3-0.3,2.1-0.3c1,0,1.9,0.5,2.9,1.1
		c-0.6,0.8-1.3,1.9-2.2,3.3s-1.7,2.9-2.7,4.4c-1,1.6-1.6,3-2.4,4.6c-0.6,1.6-1.1,2.9-1.1,3.8c0,0.5,0,0.8,0.2,1.1
		c0.2,0.3,0.3,0.5,0.6,0.5c0.3,0,0.6,0,1.1-0.3c0.5-0.3,1-0.8,1.7-1.4c1-1.1,1.9-2.2,2.7-3.5c0.8-1.3,1.6-2.5,2.4-3.7
		c0.5-1,1-2.1,1.6-3.2c0.6-1.1,1.3-2.1,1.9-3.2c0.6-1.1,1.4-1.7,2.2-2.5c0.8-0.6,1.6-1.3,2.5-1.4c0.6-0.2,1.1-0.2,1.4-0.2
		s0.8,0.2,1.1,0.2C228.1,35.8,228.4,35.9,228.7,36.1z M204.3,75c1.3-1,2.2-2.2,2.9-3.7c0.6-1.4,1.3-2.9,1.7-4.4v-0.2
		c-1-0.3-1.9-0.6-2.9-0.8s-1.9-0.3-2.9-0.5c-1.1,0-2.1,0-3.2,0.5c-1.1,0.5-1.9,1-2.7,1.7c-0.6,0.8-1.1,1.7-1.3,2.9
		c-0.2,1.1,0,2.1,0.5,3c0.5,0.6,1,1.1,1.6,1.6c0.6,0.5,1.3,0.6,2.1,0.8c0.8,0.2,1.4,0.2,2.2,0C203,75.6,203.8,75.5,204.3,75z"/>
	<path class="st0" d="M266.2,25.1c0.3,0,0.5,0,0.8,0c0.3,0,0.5,0,0.8,0c1.6-0.3,3.2-0.3,4.6,0c1.6,0.2,3,0.8,4.3,1.4
		c1.3,0.8,2.2,1.7,2.9,2.9c0.6,1.3,1.1,2.5,1.3,4c0.2,1.4,0.3,2.9,0,4.3c-0.2,1.4-0.5,2.9-0.8,4c-0.5,1.7-1.3,3.3-2.1,4.9
		c-0.8,1.6-1.7,3-2.9,4.4c-2.1,2.7-4.3,4.9-7,6.7c0.5,0.6,1,1.3,1.4,1.7c0.5,0.6,1,1.3,1.4,1.7c1.3,1.6,2.7,3,4.1,4.3
		s3.2,2.1,5.2,2.5c1.1,0.3,2.1,0.3,3.2,0.3s2.1-0.3,3-0.8c1.1-0.5,2.1-1.1,2.9-1.9c0.8-0.8,1.6-1.6,2.2-2.5c0,0,0,0,0.2,0
		c-0.6,1.9-1.4,3.8-2.5,5.6c-1.1,1.7-2.5,3.3-4.1,4.4c-1.7,1.1-3.5,1.7-5.6,1.7c-2.1,0-4-0.3-5.7-1.1c-1.4-0.6-2.7-1.4-3.8-2.4
		s-2.1-2.1-3-3.2c-1-1.1-1.7-2.4-2.4-3.7c-0.8-1.3-1.4-2.7-2.1-4c-0.2,0-0.5,0.2-0.8,0.3c-1.3,0.5-2.7,0.6-4,0.8
		c-1.4,0.2-2.7,0-4-0.3s-2.5-0.8-3.7-1.6c-1.1-0.8-2.1-1.7-2.7-3c-0.8-1.3-1.3-2.7-1.4-4.1c-0.2-1.4-0.2-2.9,0-4.4
		c0.2-1.4,0.5-3,1.1-4.4c0.5-1.4,1.1-2.7,1.7-4c1.1-2.2,2.5-4.1,4.1-6c1.6-1.9,3.3-3.5,5.2-4.9c1.1-0.8,2.4-1.6,3.7-2.4
		C263.4,25.8,264.8,25.3,266.2,25.1z M270.2,32.1c0.6,1.3,0.8,2.5,0.8,4s-0.3,2.7-1,4c-0.6,1.3-1.3,2.5-2.2,3.5
		c-1,1.1-1.9,1.9-3.2,2.5c-1.1,0.6-2.2,0.8-3.3,0.8c-1.1,0-2.1-0.2-3-0.6c-1-0.5-1.7-1.1-2.2-2.1c-0.6-1-1-1.9-1-3.2
		c0-0.5,0-1,0-1.4c-0.6,1.1-1.1,2.2-1.4,3.5c-0.5,1.1-0.6,2.4-0.8,3.5c-0.2,1.1-0.2,2.4,0,3.5c0.2,1.1,0.5,2.4,1.1,3.3
		c-0.3-1-0.3-2.1,0-3c0.3-1,1-1.7,1.9-2.4c1-0.5,1.7-0.6,2.5-0.6c0.8,0.2,1.6,0.3,2.4,0.8c0.8,0.5,1.4,1,2.1,1.7
		c0.6,0.6,1.3,1.3,1.7,2.1c0.3,0.3,0.5,0.8,0.8,1.1c0.3,0.3,0.5,0.8,0.8,1.1l0.3-0.3c1-0.8,1.9-1.6,2.7-2.5c0.8-1,1.6-1.9,2.2-2.9
		c1.3-1.9,2.2-3.8,3.2-6c0.8-2.1,1.4-4.3,1.9-6.5c0.2-1,0.3-1.9,0.5-2.9c0.2-1,0-1.9-0.2-2.9c-0.3-0.8-0.6-1.4-1.3-1.9
		c-0.6-0.5-1.4-0.6-2.2-0.8c-1.4-0.3-2.9-0.2-4.1,0.5c-1.3,0.6-2.5,1.3-3.7,2.2c-1.1,1-2.2,1.9-3.2,3c-1,1.1-1.9,2.2-2.5,3.7
		c-0.2,0.5-0.3,0.8-0.6,1.3c-0.3,0.5-0.3,1-0.3,1.4c0,0.5,0,1,0.3,1.3c0.3,0.3,0.5,0.8,1.1,1c0.6,0.3,1.3,0.3,1.9,0.3
		s1.3-0.2,1.9-0.5c0.6-0.3,1.1-0.6,1.7-1.1c0.5-0.5,1.1-1,1.4-1.4c0.5-0.6,1-1.1,1.3-1.7c0.3-0.6,0.6-1.3,1-1.9
		c0-0.2,0.2-0.5,0.2-0.6c0.2-0.3,0.2-0.6,0.3-1c0.2-0.3,0.2-0.6,0.2-1.1C270,32.8,270.2,32.4,270.2,32.1z M255.9,55.9
		c0.6,0.5,1.4,0.6,2.2,0.8c0.8,0.2,1.6,0,2.5-0.2c-0.2-0.2-0.2-0.5-0.3-0.6c-0.2-0.2-0.3-0.5-0.3-0.6c-0.6-1-1.3-1.7-1.7-2.2
		c-0.6-0.5-1.1-0.6-1.4-0.6c-0.5,0-0.6,0.3-1,0.8c-0.2,0.5-0.2,1.1-0.2,1.9c0,0.2,0,0.3,0,0.5C255.7,55.6,255.9,55.8,255.9,55.9z"/>
	<path class="st0" d="M304,38.6c-0.5,1-1,2.1-1.6,3.2c-0.6,1.1-1.1,2.2-1.7,3.3s-1.1,2.2-1.7,3.3c-0.6,1.1-1.1,2.2-1.4,3.3
		c-0.6,1.7-0.6,3-0.3,3.7c0.5,0.6,1.1,0.8,1.9,0.3c0.6-0.3,1.4-1,2.2-1.6c0.8-0.8,1.4-1.6,2.2-2.5c0.8-1,1.4-1.9,2.1-2.9
		c0.6-1,1.1-1.9,1.6-2.7c0.5-0.2,0.8-0.3,1.1-0.2c0.3,0.2,0.5,0.5,0.5,1c-1.1,1.9-2.1,3.8-3.2,5.4s-2.2,3.2-3.7,4.6
		c-0.6,0.6-1.3,1.3-2.2,1.7c-1,0.5-1.7,1-2.5,1.1c-0.8,0.2-1.7,0.2-2.5,0c-0.8-0.2-1.6-0.8-2.2-1.7c-0.6-1-1-2.1-1.1-3.2
		c-0.2-1.1,0.2-2.2,0.5-3.3c-0.8,1.1-1.6,2.1-2.4,3.2c-0.8,1.1-1.7,1.9-2.7,2.7c-1,0.8-1.9,1.3-2.7,1.6c-1,0.3-1.7,0.2-2.5-0.3
		c-0.8-0.5-1.3-1-1.6-1.6c-0.3-0.6-0.5-1.4-0.6-2.1c-0.2-0.8,0-1.6,0-2.4c0.2-0.8,0.3-1.6,0.5-2.2c0.5-1.7,1.1-3.3,1.9-4.9
		c0.8-1.6,1.7-3.2,2.7-4.6c0.2-0.3,0.5-0.8,0.8-1.3c0.3-0.5,0.8-1,1.1-1.4c0.5-0.5,0.8-0.8,1.3-1.3c0.5-0.3,0.8-0.6,1.3-0.8
		c0.6-0.2,1.1-0.3,1.6-0.3s1,0.2,1.4,0.3c0.5,0.2,0.8,0.3,1.1,0.6c0.3,0.2,0.5,0.5,0.6,0.6c-0.5,0.6-1,1.3-1.6,2.1
		c-0.6,0.8-1.1,1.6-1.7,2.5c-0.6,1-1.1,1.7-1.7,2.7c-0.6,1-1.1,1.7-1.6,2.5c-1.3,2.1-2.1,3.7-2.2,4.8c-0.2,1.1-0.2,1.7,0.2,2.1
		c0.3,0.3,1,0.2,1.6-0.3c0.8-0.5,1.6-1.1,2.4-2.1c0.6-0.6,1.3-1.3,1.7-2.1c0.5-0.8,1.1-1.4,1.6-2.1c1.3-1.7,2.4-3.5,3.3-5.2
		c1-1.9,2.1-3.7,3.2-5.6c0.3-0.5,0.6-0.8,1-1.1c0.3-0.3,0.8-0.3,1.3-0.2c1.6,0.5,2.5,1,2.9,1.4C304,37.4,304.3,38,304,38.6z"/>
	<path class="st0" d="M314.4,48.5c-0.3,0-0.8,0-1.1,0c-0.3,0-0.8,0-1.1-0.2c-0.6,1.9-0.8,3.3-0.5,4.6c0.3,1.3,0.8,2.1,1.7,2.5
		c1,0.5,2.1,0.5,3.3,0.3c1.4-0.3,3-1,4.6-2.1c1.4-1,2.7-2.1,3.8-3.5s2.1-2.7,2.9-4.1c0.3-0.2,0.6-0.2,1-0.2c0.3,0,0.5,0.3,0.6,1
		c-0.8,1.4-1.7,3-3,4.4c-1.3,1.6-2.5,2.9-4.1,4.3c-2.4,2.1-4.8,3.3-7,4c-2.4,0.6-4.3,0.5-6-0.6c-1.3-0.8-2.2-1.9-2.9-3.3
		c-0.6-1.4-1-2.9-1-4.3c0-1.4,0.3-2.9,0.8-4.1c0.5-1.4,1.1-2.7,1.9-4c0.8-1.3,1.7-2.5,2.9-3.5s2.2-1.9,3.5-2.5
		c1.3-0.6,2.7-1.1,4.3-1.6c1.6-0.3,3.2-0.3,4.4,0c0.6,0.2,1.3,0.5,1.7,0.8c0.5,0.5,0.8,1,1,1.4c0.2,0.5,0.3,1.1,0.3,1.7
		s-0.2,1.3-0.5,1.9c-0.6,1.4-1.4,2.7-2.7,3.8c-1.3,1-2.5,1.7-4,2.4C317.5,48,315.9,48.5,314.4,48.5z M318.6,38.9
		c-1.3,1.1-2.4,2.2-3.3,3.7c-1,1.4-1.9,2.9-2.5,4.3c0.5-0.2,1.1-0.3,1.7-0.5c1-0.3,1.9-0.8,2.9-1.3s1.7-1.1,2.5-1.9
		c0.6-0.6,1.3-1.3,1.9-2.1c0.6-0.8,0.8-1.7,0.8-2.7c0-0.5-0.2-0.8-0.5-1c-0.3,0-0.6,0-1.1,0.2c-0.5,0.2-0.8,0.3-1.3,0.6
		C319.1,38.6,318.8,38.8,318.6,38.9z"/>
	<path class="st0" d="M335.2,48.5c-0.3,0-0.8,0-1.1,0c-0.3,0-0.8,0-1.1-0.2c-0.6,1.9-0.8,3.3-0.5,4.6c0.3,1.3,0.8,2.1,1.7,2.5
		s2.1,0.5,3.3,0.3c1.4-0.3,3-1,4.6-2.1c1.4-1,2.7-2.1,3.8-3.5c1.1-1.4,2.1-2.7,2.9-4.1c0.3-0.2,0.6-0.2,1-0.2s0.5,0.3,0.6,1
		c-0.8,1.4-1.7,3-3,4.4c-1.3,1.6-2.5,2.9-4.1,4.3c-2.4,2.1-4.8,3.3-7,4c-2.4,0.6-4.3,0.5-6-0.6c-1.3-0.8-2.2-1.9-2.9-3.3
		c-0.6-1.4-1-2.9-1-4.3c0-1.4,0.3-2.9,0.8-4.1c0.5-1.4,1.1-2.7,1.9-4c0.8-1.3,1.7-2.5,2.9-3.5c1.1-1,2.2-1.9,3.5-2.5
		c1.3-0.6,2.7-1.1,4.3-1.6c1.6-0.3,3.2-0.3,4.4,0c0.6,0.2,1.3,0.5,1.7,0.8c0.5,0.5,0.8,1,1,1.4c0.2,0.5,0.3,1.1,0.3,1.7
		s-0.2,1.3-0.5,1.9c-0.6,1.4-1.4,2.7-2.7,3.8c-1.3,1-2.5,1.7-4,2.4C338.3,48,336.8,48.5,335.2,48.5z M339.5,38.9
		c-1.3,1.1-2.4,2.2-3.3,3.7c-1,1.4-1.9,2.9-2.5,4.3c0.5-0.2,1.1-0.3,1.7-0.5c1-0.3,1.9-0.8,2.9-1.3s1.7-1.1,2.5-1.9
		c0.6-0.6,1.3-1.3,1.9-2.1c0.6-0.8,0.8-1.7,0.8-2.7c0-0.5-0.2-0.8-0.5-1c-0.3,0-0.6,0-1.1,0.2c-0.5,0.2-0.8,0.3-1.3,0.6
		C339.9,38.6,339.6,38.8,339.5,38.9z"/>
	<path class="st0" d="M373.8,45.9c1-0.5,1.6-0.2,1.6,0.8c-1,1.9-2.1,3.7-3.2,5.4c-1.1,1.7-2.5,3.2-4,4.6c-0.6,0.6-1.4,1.1-2.2,1.6
		c-0.8,0.5-1.7,1-2.5,1.1c-0.8,0.2-1.7,0.2-2.5,0c-0.8-0.2-1.6-0.6-2.4-1.6c-0.6-0.6-1-1.4-1.1-2.2c-0.2-0.8-0.2-1.7,0-2.7
		c0.2-1,0.3-1.9,0.6-2.7c0.3-1,0.6-1.7,1-2.5c0.6-1.4,1.4-2.9,2.4-4.3s1.7-2.9,2.4-4.3c-1,0.8-2.1,1.6-3.2,2.7
		c-1.1,1-2.1,2.1-2.9,2.9c-1,1.3-1.9,2.4-2.9,3.7c-1,1.3-1.7,2.5-2.7,3.8c-0.5,0.6-0.8,1.3-1.3,1.9c-0.5,0.6-0.8,1.3-1.1,1.9
		c-0.2,0.3-0.5,0.6-0.8,1.1c-0.3,0.5-0.6,0.6-1.3,0.6c-0.5,0-0.8-0.2-1.3-0.3c-0.5-0.2-0.8-0.5-1.1-0.8s-0.6-0.6-0.8-1.1
		c-0.2-0.3-0.3-0.8-0.2-1c0.5-2.4,1.4-4.8,2.7-7c1.3-2.2,2.5-4.4,4-6.5c0.6-0.8,1.1-1.7,1.6-2.7c0.5-1,1.1-1.7,1.7-2.7
		c0.3-0.5,0.6-0.8,1.1-1c0.5-0.2,1.1,0,2.1,0.5c0.5,0.2,0.6,0.5,1,0.6c0.2,0.2,0.3,0.5,0.3,0.8c0,0.3-0.2,0.6-0.3,1.1
		c-0.2,0.5-0.6,1.1-1.1,1.7c-0.5,0.6-1,1.4-1.4,2.2c-0.5,1-1,1.7-1.3,2.4c0.5-0.6,1.1-1.3,1.9-2.1c0.8-0.8,1.6-1.6,2.4-2.5
		c0.8-0.8,1.6-1.6,2.5-2.2c0.8-0.6,1.6-1.3,2.4-1.6c1-0.5,1.9-0.6,3.2-0.5c1.3,0.2,2.2,0.6,3.2,1.6c0.3,0.3,0.3,0.5,0.3,0.6
		c0,0.2-0.2,0.5-0.3,0.8c-0.3,0.6-0.6,1.4-1.1,2.1c-0.5,0.8-0.8,1.4-1.3,2.2c-0.5,0.6-0.8,1.4-1.3,2.2c-0.6,1-1.1,2.1-1.7,3.2
		s-1.3,2.2-1.6,3.3c-0.5,1.4-0.6,2.4-0.5,3c0.2,0.6,0.6,1,1.3,1s1.4-0.3,2.4-1c1-0.6,1.9-1.6,2.9-2.7c0.6-0.8,1.4-1.7,2.1-2.7
		S373.1,47.2,373.8,45.9z"/>
</g>
<g>
	<g>
		<path class="st0" d="M96.4,45.2c0,5.6-2,11.2-5.7,15.7c-1.9,2.2-4.2,4.3-6.9,5.7c-2.7,1.5-5.7,2.5-8.9,2.9
			c-3.2,0.4-6.5,0.2-9.8-0.8c-3.2-1-6.3-2.6-9-4.9c-2.6-2.3-4.8-5.1-6.3-8.4c-1.5-3.2-2.2-6.8-2.3-10.4l0.2-2.7
			c0.1-0.9,0.3-1.8,0.4-2.6c0.2-0.9,0.5-1.7,0.7-2.6c0.3-0.8,0.6-1.7,1-2.5c1.5-3.2,3.7-6.1,6.3-8.4s5.7-3.9,9-4.9
			c3.2-0.9,6.6-1.2,9.8-0.8c3.2,0.4,6.2,1.4,8.9,2.9c2.7,1.5,5,3.5,6.9,5.7C94.4,34,96.4,39.6,96.4,45.2z M95.7,45.2
			c0-5.4-2.3-10.8-6.1-14.6c-3.8-3.8-9.2-6-14.6-6s-10.7,2.3-14.5,6.1c-3.8,3.8-6,9.1-5.9,14.5c0,5.4,2.1,10.7,5.9,14.5
			s9.1,6.1,14.5,6.1s10.8-2.1,14.6-6C93.4,56,95.7,50.7,95.7,45.2z"/>
	</g>
	<g>
		<path class="st0" d="M78.4,39.7c0.1,0.3,0.2,0.5,0.2,0.8c0.1,0.6,0.4,1,0.8,1.4c0.6,0.6,1.1,1.2,1.7,1.9c0.2,0.2,0.5,0.4,0.8,0.6
			c0.1,0.1,0.3,0.2,0.4,0.4c0.5,0.6,1,1.2,1.4,1.9c0.3,0.5,0.5,1.1,0.8,1.6c0.1,0.3,0.3,0.5,0.5,0.8c0.2,0.4,0.4,0.9,0.6,1.3
			c0.1,0.2,0.1,0.4,0.2,0.6c0.2,0.4,0.4,0.8,0.5,1.2c-0.1,0-0.1,0.1-0.2,0.1c-0.1-0.2-0.2-0.3-0.4-0.5c-0.1,0.5-0.2,1-0.3,1.4
			c-0.7,0-1.3-0.5-1.4-1.4c-0.1-1.5-0.9-2.7-1.9-3.8c0-0.1-0.1-0.1-0.2-0.1c0.4,0.9,0.9,1.9,1.3,2.8c0.5,1.2,0.8,2.4,1.3,3.5
			c0.4,0.9,1,1.7,1.6,2.5c0.3,0.4,0.6,0.7,0.9,1.1c0.5,0.8,0.4,1.4-0.1,2.1c-0.1,0.2-0.2,0.3-0.4,0.6c-0.2-0.2-0.5-0.4-0.7-0.7
			c-0.9-1.6-1.8-3.3-2.8-5c0,0-0.2,0.2-0.3,0.3c-0.6,0.6-1.1,1.2-1.8,1.7c0.4,0.2,0,0.2-0.2,0.2c-0.4,0-0.8-0.1-1,0.5
			c-0.2,0.8-1,0.7-1.6,0.8c-0.3,0.1-0.7,0-1-0.1c-1.3-0.5-2.5-0.2-3.7,0.5c-0.2,0.1-0.3,0.4-0.4,0.6c-0.3,0.5-0.5,1-0.8,1.4
			c-0.2,0.4-0.6,0.6-1.1,0.3c-0.6-0.5-0.8-1-0.4-1.5c0.4-0.6,0.8-1.2,1.1-1.7c-0.1,0-0.1,0-0.2-0.1c-0.1-0.2-0.2-0.4-0.3-0.5
			c-0.1-0.8-0.2-0.8-0.9-0.4c-0.4,0.2-0.7,0.1-0.8-0.3c-0.2-0.6-0.5-0.8-1-0.4c-0.8,0.5-1.6,0.3-2.4,0.3c-0.4,0-0.7-0.3-0.8-0.6
			c-0.1-0.2-0.1-0.5-0.2-0.7c-0.2-0.4-0.6-0.7-0.9-0.5c-1.1,0.7-1.7,0.1-2.5-0.7c0.4-0.6,0.7-1.3,1.2-2c0.3-0.4,0.3-0.6,0.1-1
			c-0.2-0.5-0.5-1-0.6-1.5c-0.1-0.2,0-0.6,0.1-0.7c1.3-1.2,1.8-2.8,2.5-4.3c0.3-0.7,0.6-1.5,0.8-2.2c-0.1,0-0.1-0.1-0.2-0.1
			c-0.1,0.1-0.2,0.2-0.2,0.3c-0.4,0.6-0.7,1.3-1.2,1.9c-0.5,0.6-0.6,1.4-0.7,2.1c-0.1,0.6-0.2,1.1-0.9,1.3c0.7-0.7,0.6-1.6,0.9-2.4
			c0.3-0.7,0.6-1.3,1-2c0.9-1.4,1.3-2.9,1.4-4.5c0-1.2-0.6-2.2-0.8-3.4c-0.1,0-0.1,0-0.2,0c0.2,0.7,0.3,1.4,0.5,2.3
			c-0.1-0.3-0.2-0.4-0.3-0.6c-0.1,0-0.1,0-0.2,0.1c0.2,0.3,0.3,0.7,0.5,1c0.3,0.4,0.3,0.8-0.1,1.2c0.5-0.9-0.3-1.2-0.7-1.8
			c0,0.3,0,0.4,0,0.6h-0.1c-0.1-0.6-0.3-1.2-0.4-1.8c-0.1,0.2-0.1,0.4-0.2,0.7c-0.2-0.6-0.2-0.6,0.5-2.2c-0.2,0.2-0.4,0.4-0.6,0.6
			c-0.2,0.2-0.5,0.3-0.8,0.5c0.2-0.3,0.3-0.5,0.6-0.8c0-0.2-0.2-0.2-0.3-0.2c0,0,0-0.1-0.1-0.1c0.2-0.1,0.3-0.1,0.5-0.2
			c0.9-0.2,1.5-0.7,1.7-1.6c0.2-1,0.5-2,1.4-2.8C67,30.2,67,30.1,67,30c0.3-0.8,0.7-1.6,1.4-2.1c0.8-0.6,1.2-1.4,1.2-2.4
			c0-0.2-0.1-0.3-0.1-0.5c-0.1,0-0.2,0-0.2,0c0,0.4,0.1,0.8,0.1,1.3c-0.3-0.1-0.5-0.1-0.4-0.6c0.1-0.4,0-0.8-0.2-1.1
			c-0.3-0.7-0.4-1.5-0.1-2.2c0.1-0.2,0-0.4-0.1-0.6c-0.6-1-1.3-2-1.7-3.1c-0.6-1.6-1-3.3-1.4-5c-0.2-0.9-0.3-1.9-0.3-2.8
			c0-0.8,0.3-1.5,0.6-2.3c0.4-1.1,0.9-2.2,1.3-3.3c-0.5-0.5-1-1.1-1.6-1.8c0.6-0.8-0.5-1.2-0.6-1.9c0.7,0.1,1.1,0.6,1.5,1
			c-0.1-0.5-0.3-1-0.4-1.6c0.1,0,0.1-0.1,0.2-0.1c0.1,0.1,0.2,0.2,0.3,0.4c0.5,0.9,1,1.8,1.5,2.6c0.5,0.7,0.6,1.4,0.3,2.3
			c-0.5,1.5-0.8,3.1-1.2,4.7c0,0.1,0,0.2,0,0.3c0.3,1.2,0.6,2.4,0.9,3.6c0,0,0.1,0.1,0.2,0.3c0.1-0.5,0.2-0.9,0.2-1.3
			c0-0.2,0.1-0.4,0.1-0.6c0.1-0.4,0.3-0.7,0.4-1c0.2-1,1-1.6,2-1.7H71c0.3-0.7,0.7-0.2,1.1-0.1c0.1,0,0.2,0.1,0.3,0
			c0.7-0.3,1.1,0.4,1.6,0.7c0.3,0.2,0.5,0.7,0.5,1.1c0,0.5,0.2,0.7,0.5,1c0.1,0.1,0.2,0.3,0.3,0.5c-0.1-0.1-0.2-0.2-0.5-0.3
			c0.3,0.7,0.6,1.3,0.9,1.9c-0.3-0.4-0.6-0.9-0.9-1.3c0.4,0.8,0.3,1.8,0.8,2.6c0.1,0,0.2,0,0.3,0c0-0.4,0-0.8,0-1.2
			c-0.2-1.1-0.3-2.3-0.5-3.4c0-0.2-0.2-0.3-0.3-0.5c-1.3-1.5-2.6-2.9-3.8-4.4c-0.6-0.6-0.6-1.4,0-2.3s1.2-1.9,1.4-3
			c0.1-0.2,0.1-0.5,0.2-0.7H73c0,0.5,0,1,0,1.5h0.1c0.1-0.4,0.1-0.8,0.2-1.2c0.5,0.4,0.4,1.3-0.1,1.9c-0.2,0.2-0.3,0.6-0.5,1
			c0.7-0.1,1.3-0.1,1.8-0.1c0,0.1,0.1,0.2,0.1,0.3c-1,0.2-1.9,0.7-2.4,1.6c0.1,0.1,0.3,0.3,0.4,0.5c1.3,1.3,2.6,2.5,3.9,3.8
			c0.3,0.3,0.6,0.9,0.6,1.4c0.3,1.8,0.6,3.6,0.8,5.4c0.1,0.9,0.1,1.7-0.2,2.5c-0.3,0.9-0.4,1.8-0.5,2.7c0,0.2,0.2,0.5,0.2,0.7
			c-0.1,0.6-0.3,1.3-0.5,1.9c-0.2,0.7-0.5,1.3-0.7,1.9s-0.5,1.2-0.8,1.8c-0.5,1-0.3,1.9,0,2.9c0.2,0.6,0.3,1.2,0.5,1.8
			c0,0.1-0.1,0.2-0.1,0.2c0.1,0.2,0.2,0.5,0.3,0.7c0.1,0.1,0.2,0.3,0.3,0.3c0.7,0.3,0.9,0.8,1,1.5c0,0.6,0.4,1.1,0.6,1.7
			c0.1,0.3,0.2,0.7,0.3,1C78.2,39.1,78.3,39.4,78.4,39.7z M82.3,52.8c-0.1,0-0.1,0.1-0.2,0.1c0.4,0.5,0.8,1,1.1,1.5
			c0.1,0,0.1-0.1,0.2-0.1C83,53.8,82.7,53.3,82.3,52.8z"/>
	</g>
	<line class="st1" x1="1.8" y1="67.6" x2="52.2" y2="67.6"/>
	<g>
		<path class="st0" d="M4.1,76.8c10.5-5.6,22-9.5,34.1-10.9c6-0.7,12.1-0.7,18.2,0c6,0.6,12,2,17.7,3.6c11.5,3.3,22.4,8,33.9,8.2
			c1.4,0,2.9,0.1,4.3-0.1c1.4-0.1,2.9-0.2,4.3-0.4c2.9-0.4,5.7-1,8.5-1.8c5.6-1.6,10.9-4.2,16-7.3c-4.5,3.9-9.7,7.1-15.3,9.4
			c-5.6,2.3-11.7,3.6-17.8,3.7c-6.2,0.2-12.3-0.9-18.1-2.4c-5.8-1.5-11.5-3.4-17.1-5s-11.3-2.9-17-3.7c-5.7-0.9-11.5-1-17.3-0.7
			C26.8,70.1,15.3,72.9,4.1,76.8z"/>
	</g>
	<path class="st0" d="M61.9,20.2C59.4,9.7,60,8.6,59.3,8.7c-1.2,0.2-0.8,9.1-5.3,11.8c-2.4,1.4-9.2-3.2-12.5-5.1
		c1.9,3.2,6.5,10.1,5.1,12.5C43.9,32.4,35,32,34.8,33.2c-0.1,0.6,1.1,0,11.5,2.6c0.8-2.1,2.4-5.9,6-9.5C56,22.6,59.8,20.9,61.9,20.2
		z"/>
</g>
</svg>
