<?xml version="1.0" encoding="utf-8"?>
<!-- Generator: Adobe Illustrator 21.0.0, SVG Export Plug-In . SVG Version: 6.00 Build 0)  -->
<svg version="1.1" id="Layer_1" xmlns="http://www.w3.org/2000/svg" xmlns:xlink="http://www.w3.org/1999/xlink" x="0px" y="0px"
	 viewBox="0 0 648.1 200" style="enable-background:new 0 0 648.1 200;" xml:space="preserve">
<style type="text/css">
	.st0{opacity:0.1;}
</style>
<g class="st0">
	<path d="M447.8,138.4c41-5.8,82-8.3,124-3.5c-13.4,9.4-26,18.3-39.6,27.9c11.6,2.2,21.4,4.3,31.3,5.8c3.8,0.6,5.1,2.3,5.1,5.7
		c0,4,0,7.9,0,12.4c3.8-6.5,7.4-12.6,11.5-19.4c-12-2.3-23.3-4.4-34.6-6.5c-0.2-0.6-0.4-1.1-0.6-1.7c14.9-8.5,29.9-17,45-25.6
		c-0.8-0.8-1.6-2.7-2.7-2.8C540.5,126.5,493.7,124.5,447.8,138.4z"/>
	<path d="M424.2,188.4c8.8-5.5,16.1-10.1,23.9-14.9c-1.5-2.1-3-4-4.4-6c0.4,8.3-6.3,7.8-11.3,10.4c1.7-6.7,3.2-12.6,4.8-18.7
		c10.2-3.9,14.6,3.7,19.4,10.7c-0.8-4.1-1.9-7.6-3.3-11c-0.5-1.2-1.7-2.8-2.8-3c-5.7-0.9-11.4-1.5-16.9-2.1
		C430.5,165.4,427.5,176.2,424.2,188.4z"/>
	<path d="M562.1,37.7c7.4,13.2,14.7,24.9,20.7,37.3c5.9,12.3,10.4,25.3,15.9,39.1c3.2-3.8,6.5-6.9,9-10.7
		c11.8-18.3,23.3-36.8,35.2-55c2.2-3.4,1.7-5.3-0.9-7.9c-5.4-5.4-11.2-10.6-15.5-16.8C621,16,615.7,8,610.6,0h-6.4
		c9.3,12.8,18.5,25.7,28,38.5c3,4.1,3.8,8.3,1.5,12.1c-9.5,16-19.4,31.7-29.4,47.4c-2.6,4.1-3.6,3.7-5.4-1
		C592.3,80.4,585,64.3,574,50.2C570.7,46,566.6,42.4,562.1,37.7z"/>
	<path d="M423.8,146.7c-1.3,3.8-2.8,7.7-3.6,11.6c-2.8,13.9-5.4,27.8-8,41.6h5.5c0.4-3.8,0.8-7,1.1-10.1c1.3-13.9,5.5-27,11.4-39.6
		c0.7-1.4,3-2.6,4.7-2.9c2.5-0.5,5.2-0.1,7.9-0.1c-4.2-1.9-8.6-2.7-12.8-4C426.4,142,424.8,143.7,423.8,146.7z"/>
	<path d="M301.6,5.6c1.6-1.9,3.1-3.7,4.7-5.6h-6.5c0.2,1.7,0.3,3.4,0.5,5.2C300.7,5.2,301.2,5.4,301.6,5.6z"/>
	<path d="M10.8,54.9c0.2,1.2,2.6,3.1,3.7,2.9c10-1.4,19.9-3.2,29.9-4.7c4.3-0.7,8.6-1.2,13.1-1.8c2.1-12.8,4.3-25.6,6.3-38.4
		c1.3-8,1.9-8.8,9.9-8.4c19.6,1.1,39.2,2.4,58.8,3.9c5.1,0.4,7.9-0.8,9.7-6c0.3-0.8,0.6-1.6,0.9-2.3h-5.4c-1.5,4-3.8,4.4-10,3.9
		c-6.5-0.6-13-1.3-19.5-2c-0.1-0.6-0.3-1.2-0.4-1.7c0.1,0,0.1-0.1,0.2-0.2H35.1C31.2,5,27.3,9.8,23.4,14.7c0.3,0.3,0.5,0.6,0.8,0.9
		c3-1.4,5.9-3.1,9-4.2c7.9-3,15.8-5.5,23.8-8c3.7-1.1,6.5,1.5,4.9,5.1c-1.9,4.3-4.6,8.7-7.9,11.9c-4.3,4.1-9.6,7.1-14.5,10.6
		c-2.7,1.9-5.4,3.9-8.6,6.1c7.9,3.1,15.1,6,22.3,8.8c-0.2,0.7-0.4,1.4-0.6,2c-2.3-0.4-4.5-0.8-6.8-1.1c-8.7-1.2-17.4-2.2-26.1-3.6
		c-1.6-0.3-3.1-1.7-4.6-2.6c1-1.7,1.7-3.8,3.1-4.9c7-5.5,14.3-10.8,21.4-16.1c0.8-0.6,1.4-1.3,2.1-1.9c-0.2-0.5-0.3-0.9-0.5-1.4
		c-2.9,0.8-5.8,1.6-8.6,2.6c-3.4,1.1-6.8,2.3-10.1,3.4c-2.3,0.8-4.6,1.5-6.9,2.4c-7.1,2.8-7.7,3.7-7.1,11.2
		C9,42.2,9.7,48.6,10.8,54.9z"/>
	<path d="M434.5,8.1c5.2-2.9,10.5-5.7,15.8-8.2h-15.1c-1,1.3-2.3,2.8-3.9,4.5c-0.5-1.5-0.9-3-1.4-4.5h-4c0.5,1.8,1,3.6,1.5,5.4
		C428.7,9.6,430.6,10.2,434.5,8.1z"/>
	<path d="M571.1,7.4c8.2,3.8,16.4,7.6,24.5,11.6c1.1,0.5,2.2,2.4,2.2,3.6c-0.2,8.6-1.2,17.2-1,25.8c0.4,10.4,1.8,20.7,2.6,30.9
		c0.6-0.1,1.2-0.2,1.7-0.3c0-0.8,0-1.6,0-2.4c-0.5-9.1-1.7-18.1-1.5-27.2c0.2-9,1.8-17.9,2.7-26.9c0-0.2,0-0.4,0-0.5
		c1.6-2.6,0.2-4.2-2-5.4c-7.1-3.8-14.1-7.9-21.5-11.2c-2.9-1.4-4.1-2.5-3.4-5.4h-5.8c-1.2,1.9-2.3,3.7-3.5,5.7
		C568.1,6.4,569.6,6.6,571.1,7.4z"/>
	<path d="M386.9,200h4c0.4-1.5,0.9-3.1,1.3-4.6c-0.3-0.2-0.5-0.4-0.8-0.6C389.9,196.4,388.5,198.2,386.9,200z"/>
	<path d="M341.2,0c-0.1,0.6-0.1,1.1-0.1,1.8c0.9-0.6,1.7-1.2,2.5-1.8H341.2z"/>
	<path d="M169,200h5.8C173.7,198.7,172.5,198.9,169,200z"/>
	<path d="M208,5.1c1.5,1.5,2.9,3.1,4.1,4.9c0.5,0.7,0.3,1.8,0.6,3.9c-6.2-5.2-11.3-9.9-16.6-14h-7.9c0.9,0.7,1.8,1.4,2.7,2.2
		c9.3,7.5,18.5,15.1,28.5,23.3c0.6-6.3,0.8-12.4,1.9-18.3c0.5-2.7,0.6-5,0.3-7.2h-18.9C204.5,1.7,206.3,3.4,208,5.1z"/>
	<path d="M368.6,10.5c-2.5,0.1-4.5,0.2-7.8,0.4c1.6-1.3,2.3-1.9,3.1-2.6C363,7,362.2,5.6,361,3.8c-3.8,3.6-7.3,7-10.9,10.4
		c0.1,0.5,0.3,0.9,0.4,1.4c7.6-1.1,15.2-2.2,22.8-3.3c-0.4-4.1-1.1-8.3-1.9-12.3h-5.8C366.4,3.4,367.5,6.7,368.6,10.5z"/>
	<path d="M404.6,102.7L404.6,102.7L404.6,102.7L404.6,102.7C404.6,102.7,404.6,102.7,404.6,102.7z"/>
	<path d="M343,198.6h-0.1c-0.4,0.5-0.8,0.9-1.3,1.4h8.4c-2.2-0.5-4.4-1-6.6-1.4c-0.1,0.1-0.2,0.1-0.3,0.2L343,198.6z"/>
	<path d="M413.3,134.9l0.1,0.1c0,0.1-0.1,0.1-0.1,0.2c-0.2,1.8-0.1,3.6-0.5,5.3c-4.8,19.8-9.7,39.6-14.6,59.5h4.2
		c1.7-8.4,3.5-16.9,5.6-25.2c2.6-10.6,6.4-20.8,9.7-31.2c1.3-4.3,4.2-6.7,8.5-7.7c11.4-2.6,22.6-5.7,34-7.9
		c14.9-2.8,29.9-5.6,45-7.2c21.1-2.2,42.1-0.2,63.1,2.6c2.7,0.4,5.4,0,8.1,0c-1.3-1.2-2.6-1.3-3.8-1.4c-14.4-2.3-28.8-5.4-43.3-6.7
		c-17.6-1.6-35.3-0.1-52.8,2.4c-13.3,1.9-26.6,4.3-39.6,7.6c-8.2,2.1-17,3-23.5,9.5C413.3,134.8,413.3,134.9,413.3,134.9
		L413.3,134.9z"/>
	<path d="M18.1,0c-1.9,1-3.7,2-5.7,3.1c0-1,0-2,0-3.1H7.2c0,9.1,0,18.3,0,27.7C14.3,18,20.9,9,27.5,0H18.1z"/>
	<path d="M613.6,124.7c3.3-7.3,6-14.8,9-22.2c-0.4-0.2-0.8-0.4-1.2-0.6c-3,5.4-6,10.9-9.1,16.3c-5.5,9.7-9.9,20.3-10.3,31.2
		c-0.4,11.3,1.3,23,3.9,34.1c1.4,6,4,11.5,7.3,16.4h10.4C605.8,179,602,150.4,613.6,124.7z"/>
	<path d="M518.3,188.7c-8,4.5-8,4.5-14.5-2c-0.2-0.2-0.5-0.2-1.6-0.5c1.7,3.4,3.1,6.5,4.7,9.4c1.3,2.3,3,3,5.6,1.6
		c2-1,4.4-1.3,6.8-1.9c0.2,1.6,0.3,3.1,0.5,4.6h5.1c-0.3-4.3-0.8-8.7-1.3-13.5C521.6,187.4,519.8,187.9,518.3,188.7z"/>
	<path d="M496.6,200h5c-6-9-11.6-18.3-16.8-28.1c3.5-0.5,6.6-1.1,9.7-1.2c3.1,0,6.1,0.4,9.2,0.9c2.9,0.5,5.8,1.3,8.6,2
		c0.2-0.6,0.3-1.3,0.5-1.9c-12.7-3.1-25.3-6.3-38-9.5C475,167.6,485.2,184.2,496.6,200z"/>
	<path d="M586.1,25.9c0.6,0.3,0.7,2.2,0.7,3.4c-0.1,6.4-0.4,12.9-0.3,19.3c0.1,9.9,0.8,11.9,4.9,15.2c0.1-0.5,0.2-1,0.1-1.5
		c-2.1-12.3-2-24.5,0.8-36.7c0.2-1-1.4-3.1-2.6-3.7c-4.8-2.4-9.6-4.8-14.6-6.6c-5-1.7-10.2-2.7-15.4-4c-0.1,0.4-0.3,0.8-0.4,1.2
		c5.2,4.9,10.5,9.8,15.7,14.7c0.2-0.2,0.5-0.4,0.7-0.7c-0.9-1.6-1.7-3.3-2.5-5c0.2-0.4,0.3-0.7,0.5-1.1
		C577.9,22.1,582.1,23.9,586.1,25.9z"/>
	<path d="M521.9,152.1c-3.8-0.6-7.8-0.9-11.6-1.3c-0.1,0.3-0.1,0.6-0.2,0.9c6.6,2.7,13.3,5.4,18.5,7.6c7.2-7.2,14-13.9,20.1-20.1
		c-17.8,0-37.3,0-56.8,0c0,0.7-0.1,1.4-0.1,2.1c14.8,0.7,29.5,1.5,44.5,2.3C532.9,150.9,528.7,153.1,521.9,152.1z"/>
	<path d="M488.7,139.6c-5.5,0.7-10.9,1.4-16.4,2.1c0.1,0.5,0.1,1,0.2,1.5c5.5-0.4,11-0.8,16.5-1.3
		C488.9,141.1,488.8,140.4,488.7,139.6z"/>
	<path d="M458.8,151.9c0.1,0.6,0,1.3,0.2,1.9c0.9,2.6,1.9,5.2,2.9,7.8c5.3,13.5,11.4,26.6,19.9,38.4h6.8
		c-8.5-12.1-15.7-25-21.7-38.8c-1.9-4.3-1.2-6,2.8-5.6c10,1,20.2,1.4,29.8,3.8c10.6,2.6,20.8,7.1,31.1,11c4.8,1.8,9.4,4.3,15.2,6.9
		C532,162.5,481.3,148.1,458.8,151.9z"/>
	<path d="M594.8,195.6c-5.1-14.4-7.2-29.6-5.1-45c0.6-4.2,2.3-8.3,3.6-12.5c-0.4-0.2-0.8-0.4-1.2-0.7c-1.9,5.1-4.6,10-5.5,15.3
		c-2.7,16.1-0.3,31.7,4.5,47.3h5.3C595.9,198.6,595.3,197.1,594.8,195.6z"/>
	<path d="M459.3,200h3.2c0.8-0.5,1.6-1,2.5-1.5c0.4,0.5,0.8,1,1.2,1.5h7.6c-3.2-4.8-6.4-9.5-9.6-14.3
		C462.5,190.5,460.9,195.2,459.3,200z"/>
	<path d="M619.9,43.1c-4-4.3-7.5-8-11-11.7c-0.5,0.1-1,0.3-1.5,0.4c-3.7,16-3.2,32.1-0.8,48.7c1.1-0.5,1.6-0.6,1.7-0.8
		c6.8-11.6,13.7-23.1,20.4-34.8c0.4-0.7,0.6-2.1,0.2-2.6c-3.4-4.1-6.9-8-10.3-12c-0.4,0.3-0.8,0.6-1.2,0.9c1.9,3.2,4.1,6.2,5.5,9.6
		c0.9,2.1,1.5,5.2,0.5,7c-3.1,5.7-6.9,11-10.5,16.3c-0.5,0.7-1.7,1.3-2.5,1.3c-0.5,0-1.4-1.4-1.3-2.1c0.2-6.2,0.7-12.5,1-18.2
		C613.8,44.4,616.4,43.8,619.9,43.1z"/>
	<path d="M631.9,6.6c0.6-2.4,0.9-3.8,1.4-6.1c3.2,1.8,7.5,2.8,8.2,4.9c1.9,5.7,2,11.8,2.7,17.6c-0.5,0.2-1,0.5-1.5,0.7
		c-9.4-5.8-15.6-15-23.4-22.6c6.9,14.5,17.5,25.8,28.8,36.9c0-11.6,0.2-22.6-0.2-33.6c-0.1-1.4-1.3-3.2-2.7-4.4h-17.8
		C628.9,2.1,630.3,4.2,631.9,6.6z"/>
	<path d="M592.1,0c4.5,5.2,8.9,10.3,13.3,15.4c0.5-0.4,0.9-0.8,1.4-1.1c-3.3-4.7-6.7-9.4-10.1-14.3C596.7,0,592.1,0,592.1,0z"/>
	<path d="M644.9,124.1c-1.1,25-2.3,50-3.4,75.9h6.8c-0.5-25.5-0.9-50.7-1.4-76C646.2,123.9,645.5,123.9,644.9,124.1z"/>
	<path d="M528.8,200h5.7c-0.8-0.9-1.6-1.8-2.4-2.8c0.3-0.5,0.6-1.1,1-1.6c4.5,1,9,2,13.5,3c0.1-0.4,0.3-0.8,0.4-1.2
		c-5.6-2.4-11.3-4.7-17.6-7.4C529.1,193.7,528.9,196.8,528.8,200z"/>
	<path d="M572.5,190.2c-2.5,3.3-5.1,6.5-7.8,9.8h6.2c2-2.2,3.9-4.4,6-6.7c0.6,2,1.3,3.6,1.6,5.2c0.1,0.5,0.2,1,0.3,1.5h5.5
		c-2.1-6.7-3.8-13.8-5.2-21.1C576.6,183.4,574.8,187.1,572.5,190.2z"/>
	<path d="M645.4,101c0-7.6,0-15.2,0-23.1c-10.6,11.4-18.1,24.2-23.9,38c-3.1,7.4-6.5,15.2-7.3,23c-1,9.2,0.9,18.8,1.2,28.2
		c0.3,7.8,4.2,13.5,9.2,19.6c-1.8-11.9-8.3-22.1-5.2-34.1c1-3.9,0.1-8.3,0.6-12.5c1.1-10.7,3.1-21.2,8.5-30.7
		c2.1-3.6,5.1-6.7,6.8-10.5c1.4-3.2,3-4.1,6.1-3.2c0.7,1.8,1.5,3.5,2.3,5.3C644.3,101,644.9,101,645.4,101z"/>
	<path d="M429.3,200c6.2-4.8,12-10.5,21.3-12.5c-1.1,4.3-2.2,8.4-3.2,12.5h4.5c0.2-0.6,0.4-1.3,0.6-1.9c0.4-1.1,0.9-2.1,1.3-3.2
		c2.6-6,5.1-12,7.9-18.5c-16,3.6-26.8,14.4-39.8,23.6L429.3,200L429.3,200z"/>
	<path d="M637.7,191.5c0-11.9,0-23.5,0-35.1c-0.5,0-0.9-0.1-1.4-0.1c-0.8,3.6-1.6,7.2-2.4,10.8c-0.5-0.1-0.9-0.2-1.4-0.3
		c-5.8-18.4-0.4-36.6,1.8-54.8C620.2,133.4,622.4,180.7,637.7,191.5z"/>
	<path d="M506.8,108.9c-3.5-1.9-7.1-3.8-10.7-5.7c-0.6,4.4-4,5.4-11.8,3.5c1.3-2.9,2.5-5.8,4-9.3c-10.2-0.2-19.4,1.6-28.5,4.4
		c-1.3,0.4-2.6,0.5-3.9,0.8c-0.1-1.4-0.1-2.8-0.2-3.9c-5.4,4.5-11,9.3-16.6,14c0.6,0.6,1.1,1.2,1.7,1.8
		c13.7-5.6,26.9-12.9,42.1-14.3c-2.5,4.2-4.7,7.9-7.3,12.2C487,111.1,496.9,110.1,506.8,108.9z"/>
	<path d="M479.1,76.2c1.1-0.3,2.1-1.1,2.9-2c1.3-1.6,2.2-3.7,3.7-5.1c1.9-2,4.4-3.6,6.7-5.3c-0.3-0.4-0.5-0.8-0.8-1.2
		c-4.6,3.1-9.2,6.2-13.7,9.4c-0.7,0.5-1.2,2-1.1,2.9C476.8,75.4,478.4,76.3,479.1,76.2z"/>
	<path d="M532.7,50.8c-7.2,5-14.4,10.1-21.5,15.1c0.2,0.4,0.4,0.7,0.6,1.1c4.4-2.3,8.8-4.6,13.2-7c0.6,2,0.9,3,1.5,5.1
		c2.8-5.1,5-9.2,7.3-13.4C533.4,51.4,533,51.1,532.7,50.8z"/>
	<path d="M592.6,116.9c-10.4-27.4-18.2-56.2-41.1-78.2c-7.7,11.6-15.2,22.3-22.1,33.4c-5.2,8.4-9.6,17.2-14.6,25.8
		c-0.7,1.2-3.2,2.6-4.2,2.2c-4.6-1.8-9.1-4.1-13.5-6.4c-12.6-6.5-25.1-13.1-37.6-19.6c-11.3,14.8-21.7,28.4-32.2,42.1
		c9.4-7.8,18.1-16,26.6-24.5c5.5-5.5,9.9-8.2,18.8-4.3c14.3,6.2,28.1,13,41.3,21.4c1.2,0.8,2.5,1.5,3.8,2.3
		c1.3-4.3,1.9-8.2,3.7-11.3c8.8-15.1,17.8-30.1,27-45.1c2.3-3.8,4.9-3.9,7.7-0.4c2.7,3.2,5,6.8,7.4,10.2c9.5,13.9,16.2,29,19.6,45.4
		c-11.2,0-22.1,0-33.1,0c0,0.4,0,0.8-0.1,1.2c13.6,2.1,27.3,4.6,40.9,7.1C591.5,117.9,592,117.4,592.6,116.9z"/>
	<path d="M33.7,181.3c2.9,5.8,5.1,12,7.7,18.7h5.4c-3.5-10.3-7.1-20.6-10.6-30.5c-4.8-1.3-10-2.6-15.5-4.1c0,4.4-0.2,8.4,0.1,12.3
		c0.4,5.3,1.1,10.6,1.8,15.9c0.5,3.9,2.2,5.5,6.2,3.6c1.3-0.6,2.7-0.9,5.1-1.6c-2.6-7-5.2-13.6-7.7-20.2c0.2-0.3,0.3-0.6,0.5-0.8
		C29.1,176.7,32.3,178.6,33.7,181.3z"/>
	<path d="M3.4,197.6c0.1-12,0.6-24.1,1-36.1c0-1.4,0.3-2.7,1.1-4c1,11.8,1.9,23.6,3,35.3c0.2,2.4,0.5,4.8,0.9,7.2h6.9
		c-1.8-14.4-4.6-28.8-2.3-44.3c3.2,0.2,6.7-0.2,10,0.6c4.9,1.2,9.6,3,14.3,4.9c1.2,0.5,2.3,1.8,2.8,2.9c4.6,11.8,9.1,23.7,13.7,35.9
		h8c-3-6.2-6-12.4-8.8-18.8c-3.1-6.9-5.7-14.2-8.8-21.1c-0.7-1.6-2.6-2.9-4.3-3.7c-11.1-4.9-22.4-9.6-33.6-14.3
		c-0.9-0.4-1.8-0.8-2.7-1.3c0.3-0.5,0.7-0.9,1-1.4c8.6,1.9,17.3,3.7,25.9,5.6c5.3,1.2,10.8,2.3,15.9,4.2c2.1,0.8,4.1,3.1,5.1,5.3
		c7,15.1,13.7,30.3,20.6,45.4h7.2c-6.8-14.7-13.6-29.4-20.5-44c0.4-0.2,0.8-0.5,1.2-0.7c7.7,12.6,15.5,25.1,23.5,38.2
		c3.2-1.7,6.7-3.5,10.9-5.8c-7.8-8.1-15.1-15.7-22.4-23.3c0.2-0.2,0.4-0.4,0.5-0.7c11.9,8.8,23.8,17.6,35.5,26.4
		c-5.9,3.3-11.6,6.5-17.6,10h9.6c4.8-3.2,9.7-6.3,14.7-9.7c-1.5-1.4-3-3-4.7-4.3c-8.8-6.9-17.6-13.7-26.5-20.4
		c-6.8-5.1-14-9.8-20.8-14.9c-1.5-1.2-6.2-1.5-2.6-5.4c-0.8-0.4-1.6-0.8-2.7-1.3c7.6-9.5,20.7-15.1,20.7-29c-3.7,0-7.1,0.3-10.4-0.2
		c-1-0.2-2.4-2.7-2.3-4.1c0.4-3.3,1.6-6.6,3.6-9.9c0.6,2.8,1.2,5.7,2,9.3c4.3,0,8.9,0,15.2,0c-4.2,9.5-7.8,17.8-11.4,25.9
		c1.9-0.2,4.6-0.5,7.2-0.8c0.1,0.3,0.2,0.6,0.3,0.9c-4.6,2-9.3,4-13.9,6c18.4-2.6,36.1-9.2,54.8-9.6c0.1,0.5,0.3,1.1,0.4,1.6
		c-16,5.3-32,10.5-48.8,16c5.2,4.2,9.9,7.6,14.3,11.4c10.4,9.2,20.7,18.6,31.1,27.9c2.6,2.4,1.9,3.7-0.9,5.5c-2.6,1.7-5.2,3.4-7.8,5
		h10.8c0.6-0.3,1.2-0.6,1.9-0.8c2.5-0.7,5.6-0.1,8.3,0.8h19.2c0-0.1,0-0.1,0-0.1c-1.9-9.7-3.5-19.4-5.3-29.1
		c0.6-0.2,1.2-0.4,1.9-0.6c3.7,8.8,7.3,17.5,11.1,26.7c3.6-1.1,7.3-1.9,10.6-3.5c3.3-1.5,5.1-0.4,6.7,2.3c0.9,1.4,1.7,2.9,2.6,4.3
		h8.8c-6.5-4.7-13.4-9.3-19-14.8c-10.2-10.1-19.8-21-29.2-31.9c-3.5-4.1-5.8-9.2-8.7-13.9c0.3-0.4,0.7-0.8,1-1.2
		c2.9,2.2,6.1,4.1,8.7,6.6c7.9,7.5,15.4,15.4,23.5,22.6c6.7,6,14.1,11.2,22.3,17.6c-0.4-21.8-1.8-42.4,5.2-63.5
		c5.5,1.4,11.3,2.4,16.7,4.3c8.5,3,16.9,6.5,25.3,9.9c1.6,0.7,2.8,2.1,4.4,3c5.9,3.2,11.9,6.3,17.9,9.5c3.2,1.7,4.9-0.1,6.9-2.4
		c9.1-9.9,18.5-19.6,27.7-29.3c0.2-0.2,0.6-0.1,1.7-0.3c-8.8,14.7-17.2,28.8-25.7,43h0.1c3.9-0.1,7.8-0.3,11.7-0.4
		c14.5-0.6,28.5,1.4,41.9,6.9c3,1.3,4.7,0.7,6.3-2.1c5.1-8.6,12.3-15.5,20.3-21.5c2.2-1.7,4.9-2.7,7.3-4c0.2,0.4,0.5,0.7,0.7,1.1
		c-2.8,3-5.9,5.9-8.4,9.1c-5.8,7.4-11.4,14.9-16.7,22.6c-1.9,2.7-3.2,4.1-6.9,3.3c-12.9-2.8-25.8-5.9-38.9-7.3
		c-9.1-1-18.9-1.1-25.9,7.4c-2.5,3.1-5.8,5.6-8.5,8.6c-4.6,5.2-9.9,8.9-17,10.3c-9.8,1.9-19.5,4.5-29.3,6.7
		c-0.2-0.4-0.4-0.8-0.6-1.2c1.1-0.8,2-1.9,3.2-2.3c9.3-3,18.6-5.7,27.8-8.9c2.6-0.9,5.1-2.7,7.1-4.7c3.6-3.5,6.4-7.8,10.1-11.2
		c4.9-4.4,10.3-8.3,15.6-12.4c0,0,0,0,0.1,0l0,0c-5-1.6-10.1-2.8-14.9-4.8c-15.8-6.7-31.5-13.7-47.2-20.5c-1.4-0.6-3.1-0.7-6-1.2
		c-0.9,22.6-1.7,44.7-2.6,67.3h27c0-0.2,0-0.4,0-0.6c3.2-0.7,7-1.6,10.9-2.4c0.4,0.6,0.8,1.2,1.2,1.8c-0.4,0.4-0.8,0.8-1.3,1.3h6
		c1.5-1.6,3-3.3,4.4-5c2.6-3.2,5.2-3.3,8.5-2.5c11.3,2.6,22.6,5.1,33.9,7.5h18.6c-7.1-5.2-14.2-10.1-20.8-15.7
		c-8-6.6-15.8-7.9-24.3-1.2c-1.9,1.5-4.3,2.6-6.9,3.2c5.4-4.9,10.6-9.9,16.2-14.6c1-0.8,3.4-0.6,4.8-0.1
		c10.2,3.8,18.7,10.3,26.6,17.6c1.2,1.5,2.5,2.6,3.9,3.9c6.6-5.1,12.6-9.9,18.6-14.6c0.4,0.4,0.7,0.9,1.1,1.3
		c-6.2,6.7-12.4,13.3-18.7,20.2h4.3c5.5-3.8,11.2-7.4,17.2-10c12.5-5.4,25.1-10.7,38.1-14.8c7.4-2.3,11.7-6.5,15.2-12.8
		c3.9-6.9,8.3-13.5,12.5-20.3c0.7-1.2,1.3-2.5,2.5-4.8c-12.4-2.5-24.1-4.8-37.2-7.5c16.3-1.3,30.9,0.8,46.1,5.3
		c-3.5,6.2-6.5,12.2-10.1,18c-4.1,6.6-9.1,12.6-12.9,19.4c-3.8,7-11.1,7.3-17,10c-13,6.1-26.1,11.7-39.3,17.5h10
		c2.3-0.5,4.5-0.9,6.8-1.4l0.1-0.1v-0.1h0.1l0,0l0,0c0.1,0,0.3,0.1,0.4,0.1c2.7-1.5,5.3-3.2,8.1-4.5c0.8-0.4,2.2,0.2,3.2,0.6
		c4.6,1.8,9.2,3.6,13.9,5.3H381c-3.9-1.9-7.5-3.7-11.2-5.5c0.1-0.5,0.2-0.9,0.2-1.4c5.6-2,11-4.3,16.7-5.8c5.7-1.6,8.4-4.8,9.5-10.7
		c1.7-9,3.5-18,6.7-26.5c2.1-5.4,6.8-9.9,10.4-14.8c0-0.1,0-0.2,0-0.3l-0.1-0.1l0.1-0.1c-0.2-4.3,0.4-8.8-0.7-12.8
		c-1.1-4.3-3.8-8.1-5.6-12.2c-1-2.2-1.6-4.5-2.3-6.8c0,0,0-0.1-0.1-0.1h-0.1l0,0c0,0,0,0,0-0.1c-3.7-1.8-6.7-9.1-5.6-13.5
		c0-0.1-0.1-0.1-0.1-0.2l0.1,0.1v0.1c1.9,4.4,3.7,8.8,5.6,13.2c-0.5-4.9-1-9.7-1.4-14.1c-1.8,0.3-3,0.5-4.2,0.7
		c-0.1,0-0.1,0.1-0.2,0.1l-0.1-0.1c0.1,0,0.2,0,0.3,0c3.9-3.6,7.9-7.1,12.7-11.5c-0.5,1.9-0.6,2.6-0.9,3.6c7.6-0.6,15-1.1,23.7-1.7
		c-5.1-1.8-9-3.2-13.2-4.6c0.8-1.6,1.3-3,2-4.2c2.6-4.7,5-5.6,9.8-3.6c0.5,0.2,0.9,0.4,1.3,0.7c2.8,2,5.5,3.9,8.3,5.9
		c-2.9,3.5-5.2,8.2-8.9,10.2c-5.7,3.1-12.4,4.5-18.8,6.5c-2.7,0.8-3.7,1.7-3.4,5c0.6,6.7,0.2,13.4,0.2,20.2c0.5,0,0.9,0.1,1.4,0.1
		c1.2-4.6,2.4-9.1,3.5-13.7c1-3.8,2.4-7.4,6.7-8c12.7-1.8,21-9.7,28-19.6c1.4-2,2.8-2.7,5.2-1.9c4.6,1.5,7.6-1.5,10.7-4.2
		c10-9.2,28.7-19.2,41.1-21.6c-10.8,4.9-20.4,9.2-30.1,13.6c0.1,0.2,0.2,0.3,0.3,0.5c14.5-4.8,29-9.7,43.5-14.5
		c-13.4,9.8-25.2,20.8-36.1,33c5.4-0.5,10.9-1.1,16.3-1.4c6.5-0.4,6.8-0.1,8.1,6.7c0.1,0.6,0.4,1.2,0.9,2.6c2.4-4.3,4.4-8.1,7.1-13
		c-8,0-15,0-23.3,0c13.7-16.2,31.9-23.7,47.3-35c-0.2-0.6-0.4-1.2-0.6-1.8c-10.6,3-21.2,5.9-31.9,8.9c-0.1-0.4-0.2-0.8-0.3-1.3
		c9.9-2.4,19.8-4.9,29.7-7.3c2-0.5,4.3-0.2,6.3-0.8c6.2-1.8,12-4.2,9.2-13.4c0.6,0,1.2,0,1.8,0c6.9,6.1,13.9,12.2,21.7,19.1
		c-1.6-2.9-2.4-5.5-4.1-7.3c-4.2-4.5-8.9-8.4-13.1-12.9c-2.4-2.5-5.3-5.3-6.2-8.5c-1.5-5.2-4.3-9.4-7.2-13.8h-6
		c0.5,0.8,1,1.7,1.5,2.5c-0.3,0.2-0.7,0.4-1,0.6c-0.7-1-1.3-2.1-2-3.2h-5.4c5.8,8.9,11.5,17.8,17.4,26.7C525,36.2,498,45.7,471.6,55
		c11.6-7.9,24.4-15.1,38.3-20.3c8.1-3,16-6.3,24-9.4c3-1.1,3.9-2.6,2.6-5.9C533.9,13,531.4,6.5,529,0h-6.3c0.4,1.3,0.8,2.6,1.3,4
		c-6.1,3.3-11.6,6-16.6,9.1c-3.6,2.3-5.3,1.2-6.2-2.4c-0.6-2.3-0.9-4.6-1-7.3c5.3,6,9.3,0.2,13.7-0.6c-0.1-1-0.3-2-0.4-2.8h-19.7
		c-2.9,1-5.8,1.9-8.8,2.8c-3.4,0.9-5.1,2.9-6,6.1c-0.7,2.3-2,4.4-3.1,6.6c-0.5-0.2-0.9-0.3-1.4-0.5c0.5-4,0.7-8.2,1.7-12.1
		c0.3-1.2,2.3-2.2,3.9-2.9h-7c-17.5,8.2-34.4,17.7-51.9,26.5c-0.6-3-1.1-5.8-1.7-8.6C418.2,12,417.1,6,415.9,0h-4.4
		c0.8,3.5,1.5,6.4,2.2,9.5c-0.3,0.3-0.6,0.5-0.9,0.7c-0.6-0.7-1.2-1.3-1.8-2c-4.3,4.6-4.2,5.9,0.4,9.5c1.5,1.1,2.5,2.7,3.8,4.1
		c-0.2,0.4-0.4,0.8-0.7,1.1c-3-1.1-6.2-1.9-9-3.4c-1-0.6-1.8-3.1-1.4-4.4c1.5-4.9,3.3-9.7,5.3-15.1h-3.6c-1.8,5.2-3.6,10.3-5.6,15.4
		c-1.4,3.7-0.5,5.3,3,6.4c3.8,1.3,7.5,3.1,11.2,4.6c3.1,1.2,3.4,3.6,2.1,5.9c-6.3,10.6-12.8,21.1-19.3,31.6c-0.4,0.7-1.4,1-3.1,0.9
		c4.5-11.2,9.1-22.3,13.7-33.8c-4-1.6-7.8-4.1-11.8-4.5c-4.3-0.5-3.5-2.1-2.7-4.7c2.2-7.3,4.4-14.5,6.7-21.8h-7.5c0,2.4,0,4.8,0,7.2
		c-0.3-0.1-0.5,0-0.8,0c-0.4-2.4-0.9-4.8-1.3-7.2h-3.5c0.2,1.2,0.4,2.5,0.6,3.8c0.7,4.4,0.5,8.9-0.3,13.3c-1.5-5.7-3-11.4-4.5-17.1
		H378c1,4,1.8,8.1,2.4,12.3c0.6,4.1-0.9,5.9-4.9,6.5c-11.8,1.7-23.5,3.6-36.3,2.6c5.1-8.6,11.1-15.4,18-21.4h-5.7
		c-6.4,6.8-12.8,13.6-19.2,20.5c-2.5-4.3,0.9-8.5,2.3-13.9C322,13.1,312.4,22.1,302,30c8.2-11.6,18-21.6,29.8-30h-5.3
		c-3.1,2.6-6.3,5.2-9.4,7.8c-0.3-0.3-0.6-0.6-0.9-0.9c2.2-2.3,4.3-4.7,6.5-7h-6.3c-8.3,9.6-15.9,19.7-22.6,30.8
		c-0.3-10.3-0.9-20.6-1.9-30.8h-18.3c4.6,3.7,8.8,7,13.4,10.7c-5,0.8-9.2,1.6-13.8,2.3c4.7,3.7,9.1,7.2,13.6,10.7
		c-8.8-0.9-22.4-10.7-30.6-21.1c4.5,1.3,8.9,2.6,13.2,3.8c-2-2.1-4-4.2-6.1-6.4h-12.1c-0.2,0.2-0.4,0.4-0.6,0.6
		c-0.2-0.2-0.4-0.4-0.6-0.6h-7.1c14.1,11.5,27.8,22.7,41.8,34.2c-15.1,9.2-30.3,18.5-45.6,27.7c-0.3-0.4-0.6-0.7-0.9-1.1
		c9.2-10,20.7-17.3,31.9-25.1c-9.7-7.3-19-14.3-28.9-21.8c-3.1,13.1-6.1,25.9-9.1,38.7c-0.6,0-1.2-0.1-1.9-0.2
		c1.6-17.3,3.2-34.6,4.9-52.4H230c-1.1,14.9-2.2,29.8-3.3,44.8c-0.2,0.9-0.2,1.7-0.4,4C213,30,197.9,14.2,181.1,0h-6.9
		c4.5,3.5,9.1,7,13.6,10.5c0.2-0.1,0,0.4,0,1.5c-7.1-4.1-13.9-8.1-20.6-12h-0.4c-3.1,4.6-2.7,5.3,1.8,7.4
		c17.4,7.7,32.9,18.2,46,32.1c0.4,0.4,0.6,1,0.2,2.1c-1.8-1.4-3.7-2.9-5.5-4.2c-14.5-10.4-30.3-18-47-23.9c-0.6-0.2-1.3-0.4-1.9-0.6
		c-7.9-2.7-8.1-3-5.9-10.9c0.2-0.7,0.4-1.3,0.6-2h-6.9c-0.4,1.5-0.8,3-1.2,4.5c-2.9,10.6-3,10.6-14,10.2
		c-11.8-0.4-23.6-0.9-35.3-1.2c-7.2-0.2-14.5,0.1-21.8,0.1c-3.2,0-4.4,1.3-4.8,4.6c-1.6,12.2-3.8,24.3-5.5,36.5
		c-0.4,3-1.8,3.6-4.3,4c-17,2.1-34,4.3-51,6.6c-4.4,0.6-4.7-2.4-4.8-5C4.9,52.2,4.6,44.1,4.7,36C4.7,24,5,12,5.2,0H0v200h3.4
		C3.4,199.2,3.4,198.4,3.4,197.6z M202.3,141.1c0.3-0.1,0.8-0.1,1.2-0.1c0.7,2.9,1.4,5.9,2.6,10.4c2.8-3.3,5-5.9,7.2-8.5
		c-0.3-0.5-0.6-1-0.8-1.5c1.6,0.8,4.5,1.4,4.6,2.4c0.2,1.7-0.9,4-2.1,5.4c-3.8,4.3-7.9,8.2-11.9,12.3c-0.6-0.3-1.2-0.6-1.8-0.9
		C201.6,154.1,202,147.6,202.3,141.1z M208.3,162.1c4.3-4.4,8.8-8.7,13-13.1c1.9-2,3.2-2.5,4.9,0.1c2.6,3.9,5.2,7.8,7.9,11.8
		c3.7-2.2,7.2-5.9,10.8-6c4,0,8.1,3.2,12.5,5.2c-5.4,5.2-10.4,9.9-16.3,15.5c2.3-5.6,4.1-9.9,5.9-14.2c-0.7-0.7-1.2-1.1-1.8-1.5
		c-2.9,1.6-5.9,3.1-8.7,4.8c-2.7,1.6-4.9,2-6.9-1.1c-1.9-2.8-4.2-5.3-5.9-7.4c-4.4,4-8.8,7.9-13.4,12.1c8,3.7,16,7.3,24,10.9
		c-0.2,0.5-0.4,1.1-0.6,1.6c-11.4-0.9-21.7-6.2-33.8-9.6C203.1,167.7,205.6,164.8,208.3,162.1z M201.5,179.8c0.3-0.4,0.7-0.8,1-1.2
		c2.8,6.8,6.9,9,13,4.5c-0.6-1.2-1.1-2.4-2.4-5.1c4.8,2.6,8.5,4.5,12.2,6.5c-0.1,0.3-0.3,0.8-0.5,1.4c-7,2.1-14.1,4.1-21.9,6.5
		C202.4,187.5,201.9,183.6,201.5,179.8z M273.8,181.7c0.3,0.4,0.5,0.7,0.7,1c-1,1.6-2.1,3.1-3.6,5.4c7.8,2.8,15,5.4,22.2,8
		c-0.2,0.5-0.3,1.1-0.5,1.6c-10.2-2.4-20.5-4.7-30.7-7.1c-0.2-0.5-0.4-1-0.6-1.5C265.5,186.6,269.6,184.2,273.8,181.7z M304.8,185.3
		c-0.2,0.6-0.3,1.3-0.4,2c-0.3-0.4-0.5-0.7-0.8-1.1C304,185.9,304.4,185.6,304.8,185.3c0.1-0.2,0.1-0.4,0.2-0.6
		c3-6.2,3.7-6.3-4.6-9.3c-4.3-1.5-8.7-2.5-13-3.8c-0.2-0.1-0.3-0.5-0.4-0.8c0.1-0.6,0.3-1.1,0.4-1.5c9.2,2.1,18.3,4.3,27.5,6.4
		c0.3,0.6,0.6,1.1,0.9,1.7C312.1,180,308.5,182.6,304.8,185.3z M317.8,159.7c-9.3-2.4-18.7-4.7-28-6.9c4.8-3.6,10.2-0.7,15.4-0.1
		c4.7,0.6,9.3,2.4,14,3.5c1.2,0.3,2.5,0,3.7,0C322.2,160.4,321.8,160.7,317.8,159.7z M347.7,135.6c-5.9-0.6-11.7-1.2-17.7-1.8
		c1.4,9.3,2.9,10,15.5,6.6c-4.8,4.1-8.9,7.5-14,11.8c-3-9.9-11.4-15.8-13.6-26.5c11,2.9,20.6,5.4,30.2,7.9
		C348,134.4,347.9,134.9,347.7,135.6z M350.5,129.6c-13.4-2.7-26.8-5.4-40.1-8.2c-0.1,0.5-0.3,1-0.4,1.5
		c6.1,9.9,12.2,19.9,18.3,29.8c-0.4,0.4-0.7,0.7-1.1,1.1c-5.6-2.3-11.3-4.6-16.9-6.8c-4.2-1.6-8.8-2.5-12.8-4.5
		c-5.1-2.6-8.5-0.8-11.5,3.2c-2.2,3-4.4,5.9-6.7,8.8c-0.7-0.6-1.4-1.1-2.1-1.7c0.2-0.9,0.2-2,0.6-2.8c0.7-1.5,1.6-2.8,2.5-4.2
		c9.3-15.8,9.5-10.8,23.4-7.6c3.9,0.9,7.6,2.5,11.4,3.8c0.3-0.1,0.7-0.5,1.1-0.8c-4.4-6.2-8.7-12.4-13.1-18.6
		c-0.7-0.9-1.4-1.8-1.8-2.9c-0.3-0.9-0.5-2.2-0.2-3c0.2-0.5,1.7-0.9,2.4-0.7c15.8,3.9,31.6,7.9,47.4,11.8
		C350.8,128.4,350.6,128.9,350.5,129.6z M359.5,140.6c4.3-6.5,9.7-4.3,15.1-4.1c3.2,0.1,6.3,1.2,9.5,1.8c3.2,0.7,4.6,2.2,2.7,5.5
		c-4,6.8-7.7,13.9-12.2,20.4c-2.1,3-5.6,5.4-9.1,6.8c-7.1,3-14.6,5.1-22.9,6.9c1.8-2.8,3.3-5.8,5.3-8.5c4.9-6.7,10.1-13.1,14.9-19.9
		c3-4.2,6.7-4.9,10.6-4.3c-5.8,7.3-11.6,14.6-17.8,22.4c9.8,0,14-2.8,16.9-9c2.4-4.8,5.3-9.5,8.3-15.1c-5.2-0.9-9.7-1.8-14.3-2.4
		c-0.9-0.1-2.2,1.2-3,2.1c-9.2,11.5-18.3,23.2-27.4,34.7c-1,1.3-2.2,2.5-3.4,3.8c-0.4-0.2-0.7-0.5-1.1-0.7c0.5-1.2,0.9-2.6,1.6-3.6
		C342,165.1,351.2,153.2,359.5,140.6z M488,38.4c-3.6,2.4-7.2,4.8-10.9,7.1c-0.2-0.1-0.4-0.4-0.6-0.6c2.2-3.2,4.6-6.3,6.5-9.8
		c0.5-0.9-0.6-2.7-1.3-5.5c-5.4,7.3-14.2,11-13,21.2c-5.8-3.9-6.2-5.1-1.9-10c6-6.9,12.2-13.5,18.4-20.2c0.5-0.5,1.4-0.6,2.7-1.2
		c0.5,6,1,11.5,1.4,17.1C489.3,37.1,488.6,38.1,488,38.4z M468.5,6.6c0.5,0.3,1,0.6,1.5,0.9c-1.1,5.8-2.3,11.6-3.4,17.5
		c9.5-7.4,18.3-15.1,29.8-20.4c0.9,6.9,1.5,13,2.3,19.9c9.6-6,18.4-11.5,28-17.6c1.9,5.6,3.3,10,4.9,14.9
		c-6.6,2.5-12.7,4.9-18.8,7.2c-0.2-0.4-0.4-0.7-0.6-1.1c2.9-1.9,5.7-4,8.7-5.7c2.8-1.5,3.3-3.2,0.5-6.8
		c-8.7,6.2-17.4,12.5-26.7,19.1c-3.7-7.6-1.3-15.5-2.1-22.9c-0.5-0.3-1-0.6-1.5-1c-10.7,11-21.3,21.9-32.5,33.3
		c-2.2-9.6,1.8-18.3,3.3-28.5c-7.6,4.1-14.5,7.7-21.8,11.6c7.6,9.9,14.6,19,21.7,28.2c-13.1-6-20.5-17.7-30.6-29
		C444.1,19.4,456.3,13.1,468.5,6.6z M452.8,38.1c-0.5,0.2-1,0.4-1.5,0.5c-2.1-3-6.2-6.6-5.6-9c0.8-2.9,5.4-4.9,8.4-7.3
		c0.6,0.6,1.2,1.1,1.8,1.6C448.3,27.4,450.9,32.9,452.8,38.1z M406.6,57.7c4.7-7.2,9.2-14.5,13.6-21.9c2.2-3.8,4.7-3.3,7.4-1
		c3.9,3.3,7.7,6.8,11.6,10.3c4.5,4,9.1,7.8,13.3,11.9c3.1,3.1,5.8,6.6,8.7,10c-0.3,0.4-0.6,0.8-0.9,1.2c-3.2-1.6-6.5-3-9.7-4.7
		c-7.6-4.1-15-8.3-22.6-12.4c-3.9-2.1-6.1-0.8-9.3,3.8c-6.5,9.5-12.4,19.4-20,27.9c-6,6.8-5,12.2-1.2,18.9
		c4.2,7.6,7.9,15.5,11.9,23.2c0.3,0.7,1.1,1.1,1.7,1.8c-16.1-3.2-32.1-6.4-49.1-9.7c0.5,0.5,0.9,0.8,1.3,1.1c0.4,0,0.8,0.1,1.2,0.1
		c0,0.3-0.1,0.5-0.1,0.8c-0.4-0.3-0.7-0.6-1.1-0.9c-21.7-2.6-43.4-5.1-65.2-7.7c0-0.4,0-0.9-0.1-1.3c2-0.3,3.9-0.8,5.9-0.9
		c25-1.4,49.9,0.6,74.5,5c2.6,0.5,5.1,1.5,7.8,1.8c2.7,0.3,5.5,0.1,8.2,0.1c0.3-0.6,0.5-1.1,0.8-1.7c-3-4.2-5.8-8.5-9.1-12.4
		c-3.2-3.8-4.3-6.8-0.9-11.5C392.7,79.2,399.6,68.4,406.6,57.7z M374.2,93.6c-5.9,1.6-11.6,3.1-17.2,4.7c-0.4-0.7-0.9-1.4-1.3-2
		c3.8-4.8,7.7-9.6,11.9-14.9c-8.8,1.8-16.5,6.8-26.7,5.1c8.1-11.5,19.8-18.2,29.5-28.3c-7.1,1.4-13.3,2.9-19.5,3.8
		c-6.3,0.9-12.6,3-19.7,0.7c2-5,3.9-9.4,5.8-13.8c-5.6-1.7-6.2,3.5-9.1,6.7c-1.9-3.1-3.5-5.7-5.6-9.3c7.9-1.9,15.1-3.6,24-5.8
		c-1.6,5.7-2.8,10-4.1,14.7c8.1-0.6,15.9-1.4,23.7-1.8c3.6-0.2,7.2,0.2,10.8,0.6c1.2,0.1,2.3,1.1,3.4,1.7c-0.7,1.4-1.1,3.1-2.2,4
		c-3.3,2.9-6.9,5.4-10.3,8.2c-3.5,3-6.8,6.2-10.2,9.3c0.3,0.5,0.6,1.1,0.9,1.6c7.5-2.3,15.1-4.7,22.6-7c0.3,0.6,0.5,1.1,0.8,1.7
		c-4.8,5.3-9.5,10.6-14.3,15.9c0.3,0.4,0.6,0.8,1,1.2c5.4-2.9,10.8-5.9,17.2-9.3c-0.6,6.4-5.6,9.5-7.6,13.9
		c3.4,4.4,6.6,8.5,9.8,12.7c-0.2,0.5-0.5,1-0.7,1.6c-17.4-2-34.7-4-53.1-6.1c2-3.3,3.5-5.7,4.6-7.5c2.8,1,5.1,2.2,7.5,2.6
		c11.1,2.1,22.2,4,33.5,6C377.8,100.7,371.3,99.6,374.2,93.6z M390.7,30.7c1.6,3.5,3.2,7,4.8,10.6c0.4,0.1,0.7,0.1,1.1,0.2
		c0.4-2.7,0.7-5.4,1.1-8.4c1,0.5,2.4,1.1,4.4,2.1c-2.3,6.2-4.6,12.2-6.9,18.3c-0.6-0.2-1.2-0.3-1.8-0.3c-1.3-7.3-2.7-14.7-4-22
		C389.8,31.1,390.3,30.9,390.7,30.7z M324,17.5c0.3,0.1,0.5,0.2,0.8,0.3c-0.6,1.5-1.1,3.1-1.9,5.1c1.3,0.5,2.4,1,4.6,1.9
		c-6,2.1-11,3.9-16,5.7c-0.2-0.4-0.4-0.7-0.6-1.1C315.3,25.4,319.7,21.5,324,17.5z M385.6,23.2c1.7,17.8,3.3,35.2,5,52.5
		c-0.4,0-0.7,0.1-1.1,0.1c-4.4-14.4-8.9-28.8-13.3-43.2c-20.7,4-40.1,7.6-60.4,11.5c8.4,16.3,16.2,31.5,23.6,46
		c-16.4-14.3-28.4-33-39.9-52.2C304.2,33,347.1,25.7,385.6,23.2z M295.1,71.5c-0.3-0.5-0.7-0.9-1-1.4c3.4-2.5,6.8-5,10.8-8
		c-10.8-4.1-10.8-4.1-8.8-17.5c1.6,3.9,2.1,8,4.4,10.3s6.3,2.9,10.4,4.5c-2.3,3.2-4.3,5.9-6.7,9.1c5.5,1.6,10.8,3,17.7,5
		c-6,5.4-11.1,10-17.1,15.4c9.9,1.7,19.1,3.3,29.7,5.2c-3,3.9-5.6,7.4-9,11.8c-1.1-6-3.7-8.2-8.8-8.4c-6.4-0.3-12.8-1.7-19.2-2.8
		c-1.3-0.2-3.1-1-3.4-2c-0.3-0.9,0.8-2.6,1.6-3.6c4-4.4,8.2-8.7,12.8-13.6C304.1,74.2,299.6,72.9,295.1,71.5z M302.5,127.9
		c1.3,1.4,2.4,2.9,3.6,4.4c-0.3,0.2-0.5,0.5-0.8,0.9c-4.6-2.5-8.4-9.8-14.5-2.4c-0.4-0.9-0.6-1.2-0.5-1.3
		C295.1,119.7,295.1,119.7,302.5,127.9z M14.7,135.2c7.7,0.4,15.5,0.9,24.8,1.4c-3.6-5-6.4-8.9-9.3-12.7c-4.9-6.3-4.9-6.3,1-11.3
		c7.1-6.1,14.3-12.2,21.5-18.3c0.8-0.7,1.9-1.1,2.8-1.7c0.4,0.3,0.8,0.7,1.1,1.1c-7.5,8.2-15.1,16.3-22.8,24.6
		c5.3,7.7,10.7,15.5,16.9,24.3C37.4,142.4,26,139.4,14.7,135.2z M15.6,131.2c2.8-3.5,4.6-5.7,7.4-9.2c-0.2,7.2,5.6,7.1,8.8,10.5
		C26.9,132.2,22,131.9,15.6,131.2z M46,114.9c-0.7,1.1-0.3,3.3,0.3,4.6c0.2,0.5,2.4,0.3,4.7,0.4c-0.1,2.3-0.2,5.5-0.7,8.7
		c-0.1,0.4-2.7,1.1-3.1,0.7c-3-3.2-5.9-6.5-8.3-10.1c-0.5-0.8,0.8-3.5,2-4.7c3.8-3.5,7.9-6.7,11.9-10c0.3,0.2,0.5,0.3,0.7,0.4
		C51,108.2,48.2,111.4,46,114.9z M73.6,117.2c-2.9,3-5,5.2-7,7.4c1.2,1,2.5,2,4.4,3.5c-3,2.4-6,4.9-9.1,7.4
		c-0.4-0.3-0.7-0.5-1.1-0.8c0.9-5.2,1.2-10.6,2.9-15.4C65.5,114.2,69.8,117.7,73.6,117.2z M92.9,133.6c-0.8,0.1-2.8-2.2-2.6-3.1
		c0.6-3.2,1.6-6.3,2.8-9.3c1.3-3.1,1.2-5.5-1.5-7.8c-7.7-6.7-15.2-13.5-22.8-20.3c-0.8,0.1-1.5,0.2-2.3,0.4
		c-3.9,16.6-7.7,33.3-11.6,49.9c-1.7-21.2,0.8-41.5,10.9-61.5c3,1.9,5.2,3.2,7.4,4.7c10.5,7,18,16.8,26,26.2c2,2.4,2.8,4.9,0.9,7.9
		c-1.1,1.7-1.6,3.8-2.7,6.8c4.4-0.8,8.1-1.4,11.8-2c-0.5-2.6-0.8-4.6-1.1-6.6c0.4-0.3,0.8-0.5,1.2-0.8c3.1,3.5,6.1,7,9.8,11.2
		C109.6,130.9,101.3,132.4,92.9,133.6z M140.8,162.3c-0.4,0.3-0.6,0.5-0.7,0.7c-5-3.9-9.8-8-14.9-11.8c-1.3-1-3.4-2-4.7-1.7
		c-6.2,1.6-12.3,3.7-19.8,6.1c7,6.2,12.9,11.8,19.2,16.9c6.2,5.1,9.1,13.7,17.5,17.2c1.5-5.3,2.8-9.9,4.1-14.5
		c0.5,0,0.9,0.1,1.4,0.1c0.5,7.3,1.1,14.5,1.7,22.1c-6.8-1.4-12.3-3.5-17.4-8.8c-10-10.4-21.2-19.6-31.9-29.2
		c-2.4-2.1-4.8-4.2-7.7-6.8c1.8-1,3.1-2,4.5-2.4c9.7-2.6,19.5-5.1,29.3-7.6c3.3-0.8,5.7-0.2,7.7,3
		C132.7,151.4,136.9,156.8,140.8,162.3z M134.1,178.6c-0.4,0.5-0.8,1-1.2,1.5c-1.7-2.6-3.5-5.2-5.3-7.9
		c-5.4-5.3-10.7-10.6-15.8-15.6c5.3-3.6,8-3.6,14.4,1c1.8,1.3,3.8,2.5,5.6,3.8c2,1.5,3.7,3,5.6,4.5c-0.5,3.5-0.9,6.6-1.4,9.7
		c-2.7-7.4-8.2-11.4-16-14.9c2.7,4.2,5.3,7.9,7.6,11.5C129.8,174.4,132,176.5,134.1,178.6z M137.2,126.9
		c6.2-11.9,13.4-23.2,22.3-33.3c0.5,0.2,1.1,0.4,1.6,0.6c-0.8,6.5-1.7,13.1-2.6,20.7c-1.6-2.3-2.6-3.6-3.9-5.4
		c-2.4,3.5-4.7,6.8-7.3,10.6c3.2,0.3,6.1,0.7,9,1c0.1,0.4,0.2,0.7,0.3,1.1c-6.1,2.1-12.1,4.1-18.2,6.2
		C138,127.9,137.6,127.4,137.2,126.9z M187.2,121.9c-1.8,9-3.5,18-5.1,27.1c-0.6,3.3-0.6,6.7-1,11.5c-8.8-5.9-13.8-13.6-20.1-21
		c3.1-2,5.9-3.7,9.5-6c-1.6,6.6-0.2,11.2,6,14.2c0.5-3.7,0.9-7,1.5-10.2c0.7-4,1.7-7.9,2.2-11.9c0.2-2-0.5-4-0.8-6
		c-1.9,0.5-3.9,1.1-6.1,1.7c0.9-5.2,1.9-11,2.9-16.9C180.9,109.9,189,112.9,187.2,121.9z M234.5,129.1c-2.2-1.9-2.7-6-3.6-9.2
		c-0.8-2.9-1.1-6-1.8-9.9c-4.2,2.7-8,5.1-12.1,7.8c4.3,3,8.3,5.8,12.3,8.6c-0.1,0.3-0.2,0.7-0.4,1c-7.2-3-14.5-5.9-23.2-9.5
		c9.8-5.8,18.4-11,28.4-17c0.9,6.2,2,10.5,2.2,14.9c0.3,7.5,4.6,12.4,9.7,17.1c1.7,1.6,3.1,3.4,3.9,6
		C244.7,135.7,239.1,133,234.5,129.1z M282,118.7c-2.9,0.3-5.9,0.6-9.3,1c2.4,8.3-1.9,13.7-8.6,18.2c5.5-7.9,4.2-16.6,3.8-25.9
		c5.1,1.9,9.6,3.5,14.1,5.2C282,117.7,282,118.2,282,118.7z M268.4,107.5c-3.9-1.6-4.5-0.4-4.7,3.5c-0.6,9.4-1.8,18.7-2.9,28
		c-0.3,1.3-1.6,2.4-2.6,3.9c-11.3-14.7-16-31.6-22.4-48.9c-11.2,6.4-21.8,12.5-32.7,18.8c2.6-6.2,26-25.4,35.7-29.3
		c5.6,14.5,11.1,29.1,17,44.3c1.3-8.8,2.6-16.7,3.8-24.6c0.4-2.7,1.4-3.9,4.2-2.4c7.2,4.1,14.3,8.2,21.1,13.1
		C279.4,111.8,273.8,109.8,268.4,107.5z M244.9,87.9c0.3-0.3,0.5-0.6,0.8-0.8c3.8,2.5,7.6,5,12.5,8.2c-2.8,0.4-4.1,0.6-5.6,0.8
		c0,4.4,0,8.6,0,13.9C249.8,102,247.3,95,244.9,87.9z M278.2,40.9c0.4,0.5,0.9,1,1.3,1.4c-4.8,3.9-9.7,7.8-14.5,11.7
		c0.4,0.6,0.8,1.1,1.2,1.7c5.5,0.4,11,0.9,18.1,1.4c-4.7,6.5-8.6,11.7-12.5,17c10.5,3.2,10.7,3.6,8.2,16.2
		c-1.6-10.9-11.1-10-18.9-12.6c4.9-5.7,9.5-10.9,14-16.1c-0.1-0.5-0.2-1-0.3-1.5c-9.8,1.6-19.7,3.3-29.5,4.9
		C254.6,54.4,266.9,48.4,278.2,40.9z M243.7,27.1c-0.5,4.3-1,8.7-1.7,14.4c3.9-2.4,6.8-4.2,10-6.3c-1.3-3.5-2.5-6.6-4.1-11
		c5.2,4,9.3,7.1,14.2,10.8c-8.4,6.3-16.4,12.2-24.4,18.1c-0.4-0.4-0.8-0.7-1.3-1.1C238.5,43.6,238.1,34.6,243.7,27.1z M231,68.6
		c1.7-1,4.9-1.2,6.6-0.2c14.6,8.1,28.9,16.7,41.4,28.1c1.6,1.5,3.6,2.7,6.5,4.8c-0.2-21.3-1.3-41.7,5.8-61.4c0,22.8,0,45.6,0,69.3
		c-1.5-0.4-3.8-0.4-5.4-1.4c-14.8-8.8-29.5-17.6-44-26.8c-4.4-2.7-7.6-3.5-12,0.4c-11,9.8-22.6,19-33.7,28.8c-3.1,2.8-5,2.7-7.5-0.2
		c-5-5.7-10.2-11.4-15.2-17c-0.2,0.5-0.6,1-0.9,1.4c-0.9,10-1.8,19.9-2.6,29.9c-0.2,2.8-1.3,4.1-4.2,5.1c-4.2,1.4-8.1,3.8-12.6,6
		c8,10.7,15.7,20.9,23.4,31.1c-15.6-8.2-24.6-23.2-37.8-35.2c7.1-2.3,13.3-4.5,19.5-6.2c2.9-0.7,3.9-1.8,4.1-4.8
		c0.8-11.3,1.7-22.7,2.8-34c0.4-4.3,1.2-4,5-2c7.6,3.9,14.8,8.2,21.2,14c0.7,0.6,3.8-0.4,5.1-1.5c6.7-5.9,13-12.3,19.8-18
		C220.8,75,225.9,71.6,231,68.6z M190.8,50.6c3.4,9.9,6.3,18.6,9.5,28.1c5.5-3.8,9.9-6.9,15-10.5c-2.3-1.6-4.2-3.1-6.1-4.4
		c-2.5,1.7-4.7,3.1-6.8,4.6c-0.3-0.3-0.6-0.6-1-0.9c1.9-4,3.8-8,6-12.6c6.7,4.1,13.1,8.1,20,12.3c-5.1,3.7-9.7,6.9-14.2,10.3
		c-3.6,2.7-7.4,5.3-10.7,8.4c-2.7,2.5-3.9,1.5-4.9-1.1c-2.8-7.2-5.6-14.5-8.6-22.3c-6.2,5.4-12.6,10.8-18.9,16.3
		c-0.5-0.3-1-0.6-1.4-0.9c-0.7-4.4-1.9-8.8-2-13.3c-0.3-8.1-0.3-16.3,0-24.4c0.3-7.2,4.5-9.1,10.5-5.3c6.9,4.4,13.7,8.7,20.5,13.1
		c1.1,0.7,2.1,1.8,3.1,2.7c-0.3,0.5-0.5,1-0.8,1.5c-8.7-4.1-17.4-7.9-26.8-11.9c0,9.1,0,17.3,0,25.7
		C179.1,60.9,184.6,56.1,190.8,50.6z M185.7,72.4c0.4-0.3,0.8-0.4,1.2-0.5c2.5,5.4,5.1,10.7,7.5,16.1c0.4,1,0.3,2.9-0.3,3.4
		c-1,0.7-2.9,1-3.8,0.4c-5.2-3.2-10.3-6.7-16.1-10.4c2.1-2.8,3.8-5.2,5.7-7.8c0.8,3.5,0.8,6.6,2.3,8.8c1.4,2.1,4.3,3.1,7.7,5.4
		C188.2,81.5,186.9,76.9,185.7,72.4z M121,30.6c3.6-1.7,7.3-3.1,11-4.7c0.2,0.5,0.4,0.8,0.7,1.2c-2.8,2.6-6.7,4.8-8,8
		c-1.3,3.1,0.2,7.2,0.5,11.8c4.3-0.4,8.3-0.8,12.1-1.2c0-7.1,0.2-13.3-0.2-19.6c-0.1-1.2-2-3-3.3-3.5c-4.3-1.4-8.8-2.2-13.1-3.3
		c0-0.4,0.1-0.8,0.1-1.2c7.1,0.4,14.1,0.7,21.5,1.1c0,10.9,0,21.5,0,31.7c-7.5,1.9-14.7,3.7-23.3,5.9c-0.1-8.3-0.3-15.8-0.3-23.4
		C118.7,32.4,120,31.1,121,30.6z M81.4,17.7c0.4,0,0.8-0.1,1.2-0.1c1.2,2.8,2.4,5.6,3.8,8.8c2.1-3.4,7.1-4.6,5.4-10.2
		c3.1-0.4,6.1-0.8,9-1.2c0.2,0.3,0.4,0.7,0.7,1C95.2,22.9,89,29.9,82.7,36.7c-0.4-0.2-0.9-0.3-1.3-0.5
		C81.4,30.1,81.4,23.9,81.4,17.7z M76.3,19.6c0.2,0.1,0.6,0.1,1.1,0.1c0,8.8,0,17.7,0,26.5C88.7,35.2,98.1,23.7,111,16
		c0.6,0.1,1.2,0.3,1.8,0.4c0.6,15.5,1.3,31,2,46.8c9.6-3.3,18.2-6.3,28.2-9.8c1.5,8.3,3,15.8,4.3,23.3c0.1,0.5-0.4,1.2-0.8,1.7
		c-6.6,7.8-13.1,15.6-20.3,24.1c-5.6-4.7-11.4-9.6-17.2-14.5c0.3-0.5,0.6-0.9,0.9-1.4c3.8,1.6,7.5,3.3,11.3,4.6
		c1.5,0.5,3.9,0.3,5.1-0.6c5.1-4.2,9.9-8.8,14.6-13.4c0.6-0.6,1-2,0.8-2.9c-0.9-3.8-2-7.5-3.2-11.7c-8,3-15.7,5.9-23.4,8.9
		c-6,2.3-6.5,2.3-6.9-4.3c-0.7-11.5-0.9-23.1-1.3-34.6c0-1.1-0.1-2.2-0.3-5c-11.3,11-21.9,21.3-32.5,31.7
		C71.1,54.9,72.8,32.3,76.3,19.6z M116.7,74.5c4.2-1.2,8.1-3.3,12.2-4.9c7-2.6,7.3-2.4,9.2,4.8c-4.8,1.1-9.8,1.6-14.4,3.3
		c-4.3,1.6-8.2,4.4-12.6,6.9C111,79.9,111.2,76,116.7,74.5z M90.6,63.9c2,1.6,3.8,3.4,6.4,5.8c1.4-7.3,2.6-14,3.9-20.8
		c0.6,0.1,1.2,0.1,1.8,0.2c-0.1,10.7-0.1,21.4-0.1,33.7c-2.9-1.7-4.9-2.4-6.3-3.7c-5.1-4.5-10.2-9.1-14.8-14c-1.2-1.3-2-5.1-1.1-6.2
		C87,51.2,94.1,44,101.1,36.6c0.4,0.3,0.9,0.6,1.3,0.9c-1.1,2.2-2,4.4-3.4,6.4c-2.9,4.3-5.9,8.5-9.1,12.6
		C87.6,59.4,87.9,61.6,90.6,63.9z M64.2,64.1c3.4-3,6.6-2.5,9.8,0.2c5.9,4.9,11.9,9.6,17.7,14.6c12,10.4,23.8,21,36.1,31.8
		c0.7-1.1,1.7-2.8,3-4.5c6.4-8.4,12.9-16.7,19-25.2c1.4-2,2.4-4.9,2.2-7.3c-1-17.1-2.3-34.1-3.6-51.2c-0.2-2.9-0.9-5.8-1.6-9.7
		c32.4,6.3,57.8,24,81.1,45.5c-0.2,0.4-0.5,0.8-0.7,1.2c-7.4-4.7-14.5-9.8-22.1-13.9c-12.7-6.8-25.6-13-38.6-19.3
		c-3.5-1.7-5.8,0.1-5.6,4.1c0.5,10.5,1,21,1.6,31.5c0.2,2.8,0.5,5.7,1.1,8.5c1.2,5.4,0.4,10-3.1,14.7c-8,10.6-15.6,21.5-23.2,32.4
		c-1.9,2.7-3.2,5.9-4.8,8.9c-2.1,3.9-4.3,4.3-7.4,1c-3.8-4-7.2-8.4-11.3-12.1C102.1,104.7,90.2,94.4,78.5,84c-3-2.7-6-5.4-9.8-8.8
		c-19.9,15.5-38.1,33-56.3,50.8c4.1-5.8,7.9-11.9,12.4-17.5c9.6-11.9,19.4-23.6,29.3-35.2C57,69.9,60.8,67.2,64.2,64.1z M6.2,82.2
		c0.4,2.9,1,5.8,1.2,8.6c0.2,3,0,6.1,0,9.1c0.4,0.1,0.9,0.1,1.3,0.2c2.9-9.4,5.9-18.8,9.1-29.1c3.4,4.8,6.2,8.7,9.5,13.3
		c2.8-6.2,5.3-11.7,7.8-17.3c7.3,5.6,12.8,0.5,18.6-2.5c0.6-0.3,1.2-0.6,1.8-0.8c0.2-0.1,0.6,0.1,1.9,0.2c-5.7,4.9-10.8,9.3-16,13.8
		c0,0.8,0.1,1.6,0.1,2.4c-0.8-1.6-1.6-3.1-2.8-5.6c-3.3,7.9-6.2,14.8-9.6,22.9c-3.2-4.3-5.7-7.8-8.7-11.8
		c-5.6,13-5.5,27.6-14.7,38.8C3.8,110.3,3.6,96.3,6.2,82.2z"/>
	<path d="M562.8,75.1c-2.9-4.8-6.2-9.3-9.4-13.9c-0.7,0-1.5,0.1-2.2,0.1c-8.5,14.6-17.1,29.2-25.6,43.7c13.1-1.2,25.4-2.3,37.6-3.4
		c-4.6-0.9-9.3-1.4-14-2s-9.7,3.2-14.7-0.7c5.8-10.2,11.4-20.1,17-30.2c6.4,4.7,6.7,6.8,2.6,11.6c-1.1,1.2-2.3,2.3-3.3,3.5
		c-2.6,3.5-5.2,7-7.2,9.8c10.6,1.2,20.7,2.3,31.2,3.4c-2.4-4.3-4.7-8.7-7.1-13c-0.4,0.2-0.8,0.3-1.2,0.5c0,2,0,4.1,0,6
		c-4.7-0.8-9.1-1.5-13.4-2.2c-0.7-0.6-1.3-1.1-2-1.7c3.5-2.5,7-4.8,10.3-7.5C562.4,78.3,563.3,75.9,562.8,75.1z"/>
</g>
</svg>
