<?xml version="1.0" encoding="utf-8"?>
<!-- Generator: Adobe Illustrator 22.0.1, SVG Export Plug-In . SVG Version: 6.00 Build 0)  -->
<svg version="1.1" id="Layer_1" xmlns="http://www.w3.org/2000/svg" xmlns:xlink="http://www.w3.org/1999/xlink" x="0px" y="0px"
	 viewBox="0 0 2182 577.8" style="enable-background:new 0 0 2182 577.8;" xml:space="preserve">
<style type="text/css">
	.st0{fill:#22167D;}
	.st1{fill:#999999;}
</style>
<path class="st0" d="M20.1,121.4c0,0,209.6,195.6,430.3,142.4c0,0-8,265.8-308,314c0,0,198.6-72.2,220.7-260.8
	C363.1,317,109.3,320,20.1,121.4z"/>
<g>
	<path class="st0" d="M176.7,459.3c-12.1-8.2-23.5-17.6-34-28.1c-20.4-20.4-36.5-44-47.9-69.6c-19.7-12.9-37.6-27.1-53.3-42.5
		c9.9,52.5,35.3,100.8,73.9,139.4c12.3,12.3,25.5,23.2,39.6,32.7C161.6,482.7,169.3,471.9,176.7,459.3z"/>
	<path class="st0" d="M495.2,78.7C444.5,27.9,377,0,305.3,0S166.1,27.9,115.4,78.7c-14.5,14.5-27.2,30.5-37.9,47.5
		c9,6.8,19.6,14.4,31.5,22.4c9.4-15.3,20.6-29.6,33.6-42.6C186,62.6,243.8,38.6,305.2,38.6S424.4,62.5,467.8,106
		c43.4,43.4,67.4,101.2,67.4,162.6s-23.9,119.2-67.4,162.6c-21.3,21.3-46.1,37.9-73,49.3c-17.3,20.2-36.8,38.3-58.4,54.3
		c-0.3,0.2-0.5,0.4-0.8,0.6c60.2-6.8,116-33.5,159.4-76.9c50.7-50.7,78.7-118.2,78.7-189.9C573.8,196.8,545.9,129.4,495.2,78.7z"/>
</g>
<path class="st0" d="M0,190.6c0,0,100.3,154.5,316,159c0,0-28.1,129.7-158,187.5c0,0,63.9-59.4,80.7-149.1
	C238.7,388,47.1,349.1,0,190.6z"/>
<path class="st0" d="M273.7,229.7c0,0,46.5-69,151.5-65.2c23.1,0.8,47.2,4.1,73.8,20.5c0,0-40.1-4.2-44.6,44.2
	C388.6,254.8,273.7,229.7,273.7,229.7z"/>
<g>
	<path class="st1" d="M695.3,189.8h51.4c16.2,0,28.5,1.3,36.9,3.8c8.4,2.5,15.1,7.6,20.3,15.3c5.1,7.7,7.7,20.1,7.7,37.2
		c0,11.6-1.8,19.6-5.4,24.2c-3.6,4.6-10.8,8.1-21.5,10.5c11.9,2.7,20,7.2,24.2,13.4c4.2,6.2,6.4,15.8,6.4,28.7v18.4
		c0,13.4-1.5,23.3-4.6,29.8c-3.1,6.4-7.9,10.9-14.6,13.2c-6.7,2.4-20.4,3.6-41.1,3.6h-59.6V189.8z M746.8,223.7v44.1
		c2.2-0.1,3.9-0.1,5.1-0.1c5.1,0,8.3-1.2,9.7-3.7c1.4-2.5,2.1-9.6,2.1-21.4c0-6.2-0.6-10.5-1.7-13c-1.1-2.5-2.6-4.1-4.5-4.7
		C755.7,224.2,752.1,223.8,746.8,223.7z M746.8,298.6v55.4c7.3-0.2,11.9-1.4,13.9-3.4c2-2,3-7.1,3-15.1v-18.5
		c0-8.5-0.9-13.6-2.7-15.4C759.2,299.9,754.5,298.9,746.8,298.6z"/>
	<path class="st1" d="M897.8,189.8v158.5h31.3V388h-82.8V189.8H897.8z"/>
	<path class="st1" d="M1071.2,189.8v132.4c0,15-0.5,25.6-1.5,31.6s-3.9,12.3-8.7,18.7c-4.8,6.4-11.2,11.3-19,14.6
		c-7.9,3.3-17.2,5-27.8,5c-11.8,0-22.3-2-31.3-5.9c-9.1-3.9-15.8-9-20.3-15.3c-4.5-6.3-7.1-12.9-8-19.9c-0.8-7-1.2-21.6-1.2-44
		V189.8h51.5v148.6c0,8.6,0.5,14.2,1.4,16.6c0.9,2.4,2.8,3.6,5.7,3.6c3.3,0,5.4-1.3,6.3-4c0.9-2.6,1.4-8.9,1.4-18.8v-146H1071.2z"/>
	<path class="st1" d="M1103.7,189.8h85.9v39.6h-34.4v37.6h32.2v37.7h-32.2v43.6h37.8V388h-89.3V189.8z"/>
	<path class="st1" d="M1395.3,262.8h-51.5v-18c0-11.3-0.5-18.4-1.5-21.3c-1-2.9-3.3-4.3-7-4.3c-3.2,0-5.3,1.2-6.5,3.7
		c-1.1,2.4-1.7,8.7-1.7,18.8v95.1c0,8.9,0.6,14.7,1.7,17.6c1.1,2.8,3.4,4.2,6.9,4.2c3.8,0,6.3-1.6,7.6-4.8s2-9.4,2-18.6v-23.5h-10.4
		v-30.1h60.3V388h-32.4l-4.8-14.2c-3.5,6.1-7.9,10.7-13.3,13.8c-5.3,3.1-11.7,4.6-18.9,4.6c-8.7,0-16.8-2.1-24.3-6.3
		c-7.6-4.2-13.3-9.4-17.2-15.6c-3.9-6.2-6.4-12.7-7.3-19.5c-1-6.8-1.5-17-1.5-30.7v-58.9c0-18.9,1-32.7,3.1-41.2
		c2-8.6,7.9-16.4,17.6-23.6c9.7-7.1,22.2-10.7,37.5-10.7c15.1,0,27.6,3.1,37.6,9.3c10,6.2,16.4,13.6,19.5,22.1
		c3,8.5,4.5,20.9,4.5,37.1V262.8z"/>
	<path class="st1" d="M1427.7,189.8h36.5c24.3,0,40.8,0.9,49.4,2.8c8.6,1.9,15.6,6.7,21,14.4c5.4,7.7,8.1,20,8.1,36.9
		c0,15.4-1.9,25.8-5.8,31.1c-3.8,5.3-11.4,8.5-22.6,9.5c10.2,2.5,17,5.9,20.6,10.2c3.5,4.2,5.7,8.1,6.5,11.7
		c0.9,3.5,1.3,13.3,1.3,29.3V388h-47.8v-65.8c0-10.6-0.8-17.2-2.5-19.7c-1.7-2.5-6.1-3.8-13.2-3.8V388h-51.5V189.8z M1479.2,223.7
		v44.1c5.8,0,9.9-0.8,12.2-2.4s3.5-6.7,3.5-15.5V239c0-6.3-1.1-10.4-3.4-12.4C1489.3,224.7,1485.2,223.7,1479.2,223.7z"/>
	<path class="st1" d="M1664.3,189.8l29.5,198.1h-52.6l-2.8-35.6h-18.4l-3.1,35.6h-53.3l26.3-198.1H1664.3z M1637,317.2
		c-2.6-22.4-5.2-50.2-7.8-83.2c-5.2,37.9-8.5,65.7-9.9,83.2H1637z"/>
	<path class="st1" d="M1832,189.8L1805.8,388h-78.3l-29.8-198.1h54.3c6.3,54.6,10.8,100.7,13.5,138.5c2.7-38.2,5.5-72.1,8.5-101.7
		l3.6-36.8H1832z"/>
	<path class="st1" d="M1904.7,189.8V388h-51.5V189.8H1904.7z"/>
	<path class="st1" d="M2041.7,189.8v39.6h-30.6V388h-51.5V229.5h-30.5v-39.6H2041.7z"/>
	<path class="st1" d="M2182,189.8l-37.6,126.4V388h-47.7v-71.7l-36.2-126.4h47.3c7.4,38.7,11.6,64.7,12.5,78.1
		c2.9-21.1,7.6-47.2,14.3-78.1H2182z"/>
</g>
</svg>
