<?xml version="1.0" encoding="utf-8"?>
<!-- Generator: Adobe Illustrator 22.0.1, SVG Export Plug-In . SVG Version: 6.00 Build 0)  -->
<svg version="1.1" id="Layer_1" xmlns="http://www.w3.org/2000/svg" xmlns:xlink="http://www.w3.org/1999/xlink" x="0px" y="0px"
	 viewBox="0 0 24 24" style="enable-background:new 0 0 24 24;" xml:space="preserve">
<style type="text/css">
	.st0{fill:#111111;}
</style>
<path class="st0" d="M18.5,12.3L12,18.8l-0.1,0.1h-0.1c-0.1-0.1-0.1-0.2-0.1-0.3v-3.9l-4.2,4.1l-0.1,0.1H7.3C7.1,18.7,7,18.6,7,18.5
	v-13c0-0.1,0-0.2,0.1-0.3c0.1-0.1,0.2,0,0.2,0l4.2,4.1V5.5c0-0.1,0-0.2,0.1-0.3c0.1-0.1,0.2,0,0.2,0l6.5,6.5
	c0.1,0.1,0.1,0.2,0.1,0.3S18.5,12.2,18.5,12.3z"/>
</svg>
