<?xml version="1.0" encoding="utf-8"?>
<!-- Generator: Adobe Illustrator 22.0.1, SVG Export Plug-In . SVG Version: 6.00 Build 0)  -->
<svg version="1.1" id="Layer_1" xmlns="http://www.w3.org/2000/svg" xmlns:xlink="http://www.w3.org/1999/xlink" x="0px" y="0px"
	 viewBox="0 0 24 24" style="enable-background:new 0 0 24 24;" xml:space="preserve">
<style type="text/css">
	.st0{fill:#FFFFFF;}
</style>
<path class="st0" d="M8.8,11.6V18H6v-5.9V10h2.8V11.6z M7.4,8.8C6.6,8.8,6,8.2,6,7.4S6.6,6,7.4,6s1.4,0.6,1.4,1.4S8.2,8.8,7.4,8.8z
	 M18,18h-2.4v-3.9c0-0.9-0.1-2.1-1.4-2.1s-1.5,1-1.5,2.1v4h-2.3v-6.5V10h2.2v1.1l0,0C13,10.4,13.8,10,15,10c2,0,2.7,0.9,2.9,2.5
	c0,0.4,0.1,0.7,0.1,1.1V18z"/>
</svg>
