<?xml version="1.0" encoding="utf-8"?>
<!-- Generator: Adobe Illustrator 22.0.1, SVG Export Plug-In . SVG Version: 6.00 Build 0)  -->
<svg version="1.1" id="Layer_1" xmlns="http://www.w3.org/2000/svg" xmlns:xlink="http://www.w3.org/1999/xlink" x="0px" y="0px"
	 viewBox="0 0 239.4 129" style="enable-background:new 0 0 239.4 129;" xml:space="preserve">
<style type="text/css">
	.st0{fill:#C9C8C1;}
	.st1{fill:#CECBC5;}
	.st2{fill:#CCCDC2;}
	.st3{fill:#D7D6CB;}
	.st4{fill:#9E7C68;}
	.st5{fill:#CBBA9E;}
	.st6{fill:#D1C6B4;}
	.st7{fill:#31343C;}
	.st8{fill:#C6BCA9;}
	.st9{fill:#CBCAC5;}
	.st10{fill:#AE977D;}
	.st11{fill:#B8A791;}
	.st12{fill:#B4B4B0;}
	.st13{fill:#918073;}
	.st14{fill:#6A5047;}
	.st15{fill:#B7AB9A;}
	.st16{fill:#B4A48E;}
	.st17{fill:#866350;}
	.st18{fill:#9B9188;}
	.st19{fill:#9C8A7A;}
	.st20{fill:#A78E73;}
	.st21{fill:#CAB697;}
	.st22{fill:#272320;}
	.st23{fill:#5A5B63;}
	.st24{fill:#AF977B;}
	.st25{fill:#AF8367;}
	.st26{fill:#927E6C;}
	.st27{fill:#454552;}
	.st28{fill:#B18E77;}
	.st29{fill:#435463;}
	.st30{fill:#867567;}
	.st31{fill:#A5907B;}
	.st32{fill:#70849B;}
	.st33{fill:#43494C;}
	.st34{fill:#735E4D;}
	.st35{fill:#36383D;}
	.st36{fill:#64697D;}
	.st37{fill:#C0AB8D;}
	.st38{fill:#4E6879;}
	.st39{fill:#60686C;}
	.st40{fill:#8995A3;}
	.st41{fill:#B6B4AE;}
	.st42{fill:#57483D;}
	.st43{fill:#5A565A;}
	.st44{fill:#817C85;}
	.st45{fill:#53595E;}
	.st46{fill:#A68F79;}
	.st47{fill:#9C866E;}
	.st48{fill:#B4A28B;}
	.st49{fill:#C9CFCB;}
	.st50{fill:#A5907A;}
	.st51{fill:#B69F87;}
	.st52{fill:#A59E9C;}
	.st53{fill:#BFB4A6;}
	.st54{fill:#98999B;}
	.st55{fill:#C2B8AC;}
	.st56{fill:#6C6B71;}
	.st57{fill:#BDAE9C;}
	.st58{fill:#B8A68F;}
	.st59{fill:#E3E9E7;}
	.st60{fill:#1D1C17;}
	.st61{fill:#D2DADA;}
	.st62{fill:#B0AAA4;}
	.st63{fill:#C1CACE;}
	.st64{fill:#9DA8B0;}
	.st65{fill:#4C5255;}
	.st66{fill:#323235;}
	.st67{fill:#B7B0A8;}
	.st68{fill:#B0AAA5;}
	.st69{fill:#9E9590;}
	.st70{fill:#4C5461;}
	.st71{fill:#B8ADA0;}
	.st72{fill:#A79C8F;}
	.st73{fill:#78584C;}
	.st74{fill:#A98873;}
	.st75{fill:#94705B;}
	.st76{fill:#A78875;}
	.st77{fill:#96725C;}
	.st78{fill:#A18B74;}
	.st79{fill:#383B40;}
	.st80{fill:#393634;}
	.st81{fill:#938987;}
	.st82{fill:#534F4F;}
	.st83{fill:#AF997F;}
	.st84{fill:#C0B3A2;}
	.st85{fill:#827E7F;}
	.st86{fill:#B0B8AD;}
	.st87{fill:#4A474C;}
	.st88{fill:#BC932F;}
	.st89{fill:#826A2E;}
	.st90{fill:#B4A797;}
	.st91{fill:#AFA191;}
	.st92{fill:#313334;}
	.st93{fill:#454649;}
	.st94{fill:#7C6E65;}
	.st95{fill:#857D77;}
	.st96{fill:#1E1B16;}
	.st97{fill:#453627;}
	.st98{fill:#AEA69F;}
	.st99{fill:#C4C1BD;}
	.st100{fill:#A58F78;}
	.st101{fill:#BCA98F;}
	.st102{fill:#C7B8A1;}
	.st103{fill:#1A1D1F;}
	.st104{fill:#BAA78E;}
	.st105{fill:#433A33;}
	.st106{fill:#55524F;}
	.st107{fill:#A39281;}
	.st108{fill:#AF9E8B;}
	.st109{fill:#2A2B35;}
	.st110{fill:#5B4F5B;}
	.st111{fill:#423945;}
	.st112{fill:#58595A;}
	.st113{fill:#65595F;}
	.st114{fill:#71626E;}
	.st115{fill:#463C3D;}
	.st116{fill:#60473E;}
	.st117{fill:#C0B6A5;}
	.st118{fill:#9D9186;}
	.st119{fill:#D1C0A2;}
	.st120{fill:#C4B7A2;}
	.st121{fill:#9E7B66;}
	.st122{fill:#CCBCA4;}
	.st123{fill:#BEA98E;}
	.st124{fill:#C3B199;}
	.st125{fill:#A48E77;}
	.st126{fill:#B8A48D;}
	.st127{fill:#32343D;}
	.st128{fill:#484B62;}
	.st129{fill:#5F5C68;}
	.st130{fill:#666669;}
	.st131{fill:#343840;}
	.st132{fill:#1E2121;}
	.st133{fill:#7A6855;}
	.st134{fill:#3C6282;}
	.st135{fill:#485165;}
	.st136{fill:#9C836B;}
	.st137{fill:#BEC2B5;}
	.st138{fill:#383C50;}
	.st139{fill:#574E5D;}
	.st140{fill:#676C7A;}
	.st141{fill:#827D86;}
	.st142{fill:#555868;}
	.st143{fill:#CFD4D5;}
	.st144{fill:#B1B9BC;}
	.st145{fill:#A4ACB2;}
	.st146{fill:#DEE3E2;}
	.st147{fill:#7D868D;}
	.st148{fill:#4BC0DB;}
	.st149{fill:#58595F;}
	.st150{fill:#DAD9D0;}
	.st151{fill:#D2CFC6;}
	.st152{fill:#212221;}
	.st153{fill:#373D51;}
	.st154{fill:#4F4754;}
	.st155{fill:#C8C6C1;}
	.st156{fill:#39414B;}
	.st157{fill:#333738;}
	.st158{fill:#766F6C;}
	.st159{fill:#402515;}
	.st160{fill:#9B9490;}
	.st161{fill:#5B505D;}
	.st162{fill:#D08835;}
	.st163{fill:#9A9287;}
	.st164{fill:#807D7A;}
	.st165{fill:#221B17;}
	.st166{fill:#6B7580;}
	.st167{fill:#BBB6B1;}
	.st168{fill:#92969E;}
	.st169{fill:#535153;}
	.st170{fill:#5A4542;}
	.st171{fill:#6F544F;}
	.st172{fill:#5A595C;}
	.st173{fill:#90857D;}
	.st174{fill:#B19582;}
	.st175{fill:#5F4B33;}
	.st176{fill:#928278;}
	.st177{fill:#AF987D;}
	.st178{fill:#C8B9A2;}
	.st179{fill:#AA9888;}
	.st180{fill:#B0997E;}
	.st181{fill:#A2948B;}
	.st182{fill:#B5B3B2;}
	.st183{fill:#53555C;}
	.st184{fill:#D3D2C9;}
	.st185{fill:#62543A;}
	.st186{fill:#74777C;}
	.st187{fill:#85868A;}
	.st188{fill:#6D6158;}
	.st189{fill:#AFA18F;}
	.st190{fill:#C1C3C1;}
	.st191{fill:#67686D;}
	.st192{fill:#5C5048;}
	.st193{fill:#45484B;}
	.st194{fill:#575B5F;}
	.st195{fill:#A2A09D;}
	.st196{fill:#3F3D3C;}
	.st197{fill:#8D827E;}
	.st198{fill:#4D4236;}
	.st199{fill:#898281;}
	.st200{fill:#827061;}
	.st201{fill:#D1C6B1;}
	.st202{fill:#AEADA9;}
	.st203{fill:#ADADAB;}
	.st204{fill:#927D6B;}
	.st205{fill:#524D5C;}
	.st206{fill:#695C69;}
	.st207{fill:#32292B;}
	.st208{fill:#6EB4D2;}
	.st209{fill:#806957;}
	.st210{fill:#BCA78A;}
	.st211{fill:#614B38;}
	.st212{fill:#6C616E;}
	.st213{fill:#383949;}
	.st214{fill:#606479;}
	.st215{fill:#8A8987;}
	.st216{fill:#BA9B42;}
	.st217{fill:#60667D;}
	.st218{fill:#C0BCB4;}
	.st219{fill:#888788;}
	.st220{fill:#53708B;}
	.st221{fill:#37445C;}
	.st222{fill:#2F303D;}
	.st223{fill:#8B8189;}
	.st224{fill:#A8A3A4;}
	.st225{fill:#717284;}
	.st226{fill:#8F8D97;}
	.st227{fill:#7B838B;}
	.st228{fill:#939CA3;}
	.st229{fill:#B2B7BA;}
	.st230{fill:#8F9499;}
	.st231{fill:#C0C5C7;}
	.st232{fill:#9DA1A6;}
	.st233{fill:#88919A;}
	.st234{fill:#9FA4AA;}
	.st235{fill:#ADB2B4;}
	.st236{fill:#858F94;}
	.st237{fill:#191915;}
	.st238{fill:#1F1E19;}
	.st239{fill:#343B43;}
	.st240{fill:#785B32;}
	.st241{fill:#C0BEB5;}
	.st242{fill:#837B73;}
	.st243{fill:#2C2E2E;}
	.st244{fill:#A29B99;}
	.st245{fill:#5C4127;}
	.st246{fill:#292D30;}
	.st247{fill:#6D6D6F;}
	.st248{fill:#7D7E7B;}
	.st249{fill:#C2C0B8;}
	.st250{fill:#545A68;}
	.st251{fill:#251F18;}
	.st252{fill:#9E9A93;}
	.st253{fill:#2F396B;}
	.st254{fill:#24487E;}
	.st255{fill:#A8A4A0;}
	.st256{fill:#606770;}
	.st257{fill:#77613C;}
	.st258{fill:#36393C;}
	.st259{fill:#1B1A15;}
	.st260{fill:#493317;}
	.st261{fill:#ADAEB0;}
	.st262{fill:#80471D;}
	.st263{fill:#AB4E24;}
	.st264{fill:#A46326;}
	.st265{fill:#268EB8;}
	.st266{fill:#C3C5C0;}
	.st267{fill:#AD6A28;}
	.st268{fill:#3C2510;}
	.st269{fill:#DCE0E7;}
	.st270{fill:#F2F1E7;}
	.st271{fill:#4D5257;}
	.st272{fill:#313537;}
	.st273{fill:#9F846D;}
	.st274{fill:#87786B;}
	.st275{fill:#AEB3B6;}
	.st276{fill:#494F51;}
	.st277{fill:#605E6D;}
	.st278{fill:#8D858B;}
	.st279{fill:#43393F;}
	.st280{fill:#7A7A7B;}
	.st281{fill:#8A7F83;}
	.st282{fill:#868796;}
	.st283{fill:#4D617D;}
	.st284{fill:#6B6C79;}
	.st285{fill:#385172;}
	.st286{fill:#3B3128;}
	.st287{fill:#C0AC92;}
	.st288{fill:#9B8B83;}
	.st289{fill:#685E59;}
	.st290{fill:#A4A19D;}
	.st291{fill:#595C61;}
	.st292{fill:#D39A29;}
	.st293{fill:#DDB226;}
	.st294{fill:#763C19;}
	.st295{fill:#DCAF25;}
	.st296{fill:#ACA9A0;}
	.st297{fill:#383229;}
	.st298{fill:#A48465;}
	.st299{fill:#20252B;}
	.st300{fill:#A75525;}
	.st301{fill:#72331D;}
	.st302{fill:#AE5A2A;}
	.st303{fill:#D09959;}
	.st304{fill:#CD9851;}
	.st305{fill:#80888F;}
	.st306{fill:#786E5B;}
	.st307{fill:#CB932C;}
	.st308{fill:#4F2712;}
	.st309{fill:#D6D4CB;}
	.st310{fill:#722F15;}
	.st311{fill:#AF6B27;}
	.st312{fill:#B4903D;}
	.st313{fill:#BC7B28;}
	.st314{fill:#725722;}
	.st315{fill:#E1B222;}
	.st316{fill:#D08B2A;}
	.st317{fill:#757673;}
	.st318{fill:#96772C;}
	.st319{fill:#77BFD5;}
	.st320{fill:#46AEC9;}
	.st321{fill:#BFC8C7;}
	.st322{fill:#463016;}
	.st323{fill:#8C5622;}
	.st324{fill:#E0B125;}
	.st325{fill:#B7712F;}
	.st326{fill:#291E11;}
</style>
<g>
	<path class="st0" d="M240,50.5c0,13.3,0,26.6,0,39.9c-2.9,2.3-6.3,1.2-9.6,1.3c-6.7-1.9-12.8-5.1-19.2-7.9
		c-1.1-0.5-2.9-1.2-1.5-3.2c7.9-0.8,15.8-0.7,22.4-1.3c-6,0.4-13.4,0.7-20.7,1c-1.4,0.1-2.9,0.2-4.2,0.6c-1.9,0.4-3.5-0.5-5.1-1.1
		c-2.5-1-4.9-1.3-7.4-0.3c-0.3,0.1-0.6,0.1-1,0.2c-2-0.1-3.7-1.1-5.1-2.4c-0.6-1.5,0.8-3.3-0.9-4.6c-1.5-6.1-3.3-12.2-3.1-18.5
		c0.3-0.8,0.8-1.4,1.8-1.1c4,1.4,8.1,0.5,12.2,0.4c12-0.2,24.1-1.1,36.1-0.9C237,52.7,238.1,50.8,240,50.5z"/>
	<path class="st1" d="M186.2,129.6c-0.7,0-1.3,0-2,0c-1.4-0.7-2.2-2.6-4.2-2.2c-0.2,0-0.4,0-0.7,0c-1.3-0.3-3.3,0.1-3.3-1.8
		c0-2,2-2,3.5-1.9c3.8,0.3,3.5-2.8,4.2-5c0.5-1,1.4-1.1,2.4-1c-2.7-0.4-5.4-0.9-8.1,0.2c-1.5,0.4-3.1,1.3-4.1-0.9
		c0.5-2,2.3-2.3,3.9-2.9c6-1.1,12-1.2,18-2c1.8-0.3,3.7-0.4,5.6-0.7c3.2-0.2,6.4,0.3,9.5-0.6c8.4-0.5,16.7-0.9,25.1-1.9
		c1.4-0.2,2.9-0.3,4.1,0.9c0,6-0.1,12,0,18c0,1.7-0.4,2.1-2,2c-10.4-0.1-20.8,0-31.2,0c-0.7,0.1,0-1.9-1.3-0.9
		c-0.8,0.7-1.9,0.3-2.7,0.9c-1.8,0-3.5,0-5.3,0C193.7,128.5,189.9,129,186.2,129.6z"/>
	<path class="st2" d="M0.7,27.3c0-0.2,0-0.4,0-0.7c1.2-1.2,2.7-1.3,4.3-1.3c7.4-0.2,14.8-0.4,22.1-0.1c6.9,0.3,13.8,0.2,20.8,0.5
		c1,0,2,0,2.8,0.7c1.7,2.6,1.2,5.6,1.3,8.3c0.3,5.5,1.2,11,0.9,16.5c-0.2,3.5-1,4.5-4.6,4.6c-4.1,0.1-8.2,0.1-12.2,0
		c-4.8-0.2-9.6,1.1-14.5,0.4c-2.8-0.1-5.6,0.2-8.3-0.3c-1.2-0.5-1.7-1.6-1.4-2.7c0.9-2.5,2.9-4.3,4.7-6.2c0.8-0.8,1.9,0,2.6,0.8
		c1.1,1.2,1.6,2.6,2.2,4.3c1-1.9,2-3.7,3.5-5c2.2-1.9,1.3-3.5-0.3-5c-2.1-2-4.8-3.1-7.2-4.7c-1.3-0.9-4.2-1.4-3-3.4
		c1.1-1.9,3.3-0.3,5.1,0.4c2.9,1.2,5.6,3,9.5,4.3c-2.6-3.1-2.9-5.6-0.6-8.2c0.7-0.8,0.1-1.7-1-1.8c-0.9-0.1-1.8-0.1-2.7-0.1
		c-6.5,0-13.1,0-19.6,0C3.5,28.4,1.9,28.6,0.7,27.3z"/>
	<path class="st3" d="M0.7,27.3c8.7,0,17.5,0,26.2,0c1.2,0,2.7-0.5,3.3,0.9c0.5,1.4-0.2,2.9-1.4,3.8c-2.2,1.7-1.6,3.1,0.3,4.4
		c1,0.7,2,1.3,1.1,2.6c-0.7,1.1-1.9,1-3,0.4c-3.1-1.5-6.1-3-9.1-4.6c-1.1-0.6-2.1-1.1-3.8-0.7c3.2,1.9,6,3.7,9,5.3
		c1.7,0.9,2.9,2.3,3.9,3.9c1,1.6,0.8,2.5-0.8,3.9c-1.7,1.5-4.4,3-3.5,6.2c0.2,0.8-0.4,0.9-1,1c-0.8,0.1-1.5,0.1-1.4-1.2
		c0.1-1.9-1.1-3.3-2-4.8c-0.7-1.3-2-1.5-2.3,0.1c-0.3,1.9-1.2,2.9-2.8,3.6c-1.2,0.5-0.6,2-0.7,3c-3.9,1.9-7.9,2.5-12,0.7
		C0.7,46.3,0.7,36.8,0.7,27.3z"/>
	<path class="st4" d="M50.5,26.9c-1.1-0.6-2.4-0.4-3.6-0.4c-15.4,0.1-30.9,0.1-46.3,0.2c0-6.9,0-13.7,0-20.6
		c0.4-0.7,0.8-1.4,1.6-1.5C7.9,3.2,13-0.2,19.1,1.1c1.7,1.9,3.8,1.7,6.1,1.3c4.3-0.9,7.4,1.5,7,5.1C31.6,8,31,8.2,30.1,8.1
		c1.7,0.4,3.4,0.1,5.1,0.2c1.2,0.1,2.5-0.1,2.9,1.5c-0.6,1.1-2.3,1.4-1.4,3.5c1.1,2.6-0.1,3.9-3.1,4.3c-1.8,0.2-3.8-0.7-5.3,0.9
		c-0.5,0.8-0.4,1.4,0.6,1.6c0.9,0.2,1.9,0.3,2.5,1.1c0.5,3.5,0.5,3.5,6.5,3.5c4.2,0,8.4-1.2,12.5,0.9C50.7,26.1,50.7,26.5,50.5,26.9
		z"/>
	<path class="st5" d="M119.7,129.6c-17.5,0-35,0-52.5,0c-1.2-1-1.7-2.1-1-3.5c0.8-0.9,1.7-1.3,2.8-1.4c3.9-0.3,7.6-1.5,11.3-2.6
		c1-0.4,2.1-0.8,3.2-0.7c5.2,0.4,10.3-0.6,15.3-1.7c1,0.1,2,0.5,3.1,0.4c4.3,0,8.5-0.6,12.7-1.3c7.6-0.1,15.1-1.4,22.6-1.4
		c1.2,0,2.4-0.1,3.6,0.1c1.3,0.4,2.1,1.4,2.8,2.5c0.1,2.3-1.4,2.8-3.2,2.7c-4.2-0.2-7.9,2-12,2.2c-0.7,0-1.6,0.5-2,1
		C124.7,128.1,122.4,129.1,119.7,129.6z"/>
	<path class="st6" d="M119.7,129.6c0.1-0.3,0.1-0.9,0.2-0.9c4.6-0.8,6.7-6.6,12.4-5.6c2.1,0.4,4.3-1.9,6.9-1.9
		c1.5,0,3.3,1.3,4.5-0.8c0.2-0.3,0.4-0.5,0.7-0.6c3.3,0.9,6.7,0.8,10.1,0.1c2.1-0.2,4.2-0.1,6.3,0.3c0.8,0.4,1.5,1,2.4,0.3
		c0.6-0.4,1.3-0.1,1.9-0.2c1.3-0.4,0.6,3.5,3,1.1c1.1-1.1,3.5,1.5,5.1,0.9c-1.5-0.5-2-1.7-0.6-3.4c2-1.3,4.6-0.3,6.5-1.9
		c1.3-0.4,2.6-0.6,3.6,0.5c0.2,0.2,1.3,1.3,1.4,1.3c1.9,7.3-4.3,5.2-8.1,6.3c1.6,1.5,3,0.8,4.2,1.1c1.3,0.8,2.7,1.4,2.6,3.3
		c-0.7,0-1.3,0-2,0c-2-0.8-4-0.6-6,0c-14.2,0-28.4,0-42.6,0c-0.4-1-0.9-0.8-1.3,0C127.2,129.6,123.4,129.6,119.7,129.6z"/>
	<path class="st7" d="M131.6,0.7c0.9,0,1.8,0,2.7,0c3.3,0.9,6.3,2.7,9.9,2.2c0.4-0.2,0.8-0.5,1.2-0.7c2.5-1.8,4.9-1.7,7,0.7
		c3.4,1.4,7,0.6,10.5,0.5c5.5-0.2,9.2,4,8.4,9.6c-0.2,0.3-0.4,0.6-0.7,0.7c-4,0.2-7,2.8-10.5,4.3c-1.5,0.2-3.1,0.2-4.6,0
		c-4.1-1.2-8.3,0-12.4-0.7c-1.1-0.6-1.3-1.5-0.1-1.9c2.2-0.6,3.2-2.6,5.8-3.9c-3.7-0.3-6.6-0.2-9.6-0.3c-4-0.1-5.1-0.8-6.5-4.5
		c-0.4-1.2-1.2-1.8-2.4-1.9c-0.3,0-0.7-0.1-1-0.2c-1.4-0.8-3.9-0.8-2.9-3.6C128,0.6,129.9,1.5,131.6,0.7z"/>
	<path class="st8" d="M0.7,72.5c0-0.9,0-1.8,0-2.7c5.7-2.2,11.1-5.1,17.7-2.6c2.4,0.9,5.2,0.6,7.8,0c1.3-0.3,2.6-0.3,3.9-0.4
		c5.5-1.7,11-0.5,16.5-0.1c4.4,0.6,8.7-0.7,13.1-0.6c2,0.5,4.1,0.4,5.9,0.4c-1.3-0.4-4,0.8-4.1-0.9c-0.2-2,2.7-2,4.3-2.1
		c6.5-0.4,13-0.8,19.5,0.2c0.4,0.2,0.7,0.4,1,0.7c1,1.9,1.1,3.7-0.2,5.5c-1.1,0.9-2.4,1.1-3.7,1c-1.2-0.2-2.4-0.4-3.6-0.2
		c-8.3,1.4-16.8,0.5-25.1,1.5c-1.1,0.1-2.2,0.2-3.3,0.1c-8.3-0.5-16.5,0.7-24.8,0.7c-6.7,0-13.4,0.6-20.1,0.7
		C3.6,73.8,1.9,73.8,0.7,72.5z"/>
	<path class="st9" d="M240,91.1c0,5.8,0,11.5,0,17.3c-1.8,1.2-4.1,1-6,1.1c-7.2,0.4-14.4,1.4-21.6,1.5c-3.8,1-7.7,0.4-11.5,0.9
		c-1.1,0.3-2.1,0.6-3.2,0.1c-1.4-2.2,0.5-2.6,1.8-2.7c3.2-0.4,5.9-2.4,9.1-2.7c1.3-0.1,1.9-1.4,2.8-2.1c5.1-0.7,10.1-1.6,15.2-1.8
		c2.8,0,2.8,0,2.8-1.4c-0.3-0.1-0.5-0.3-0.7-0.4c-2.4-1.6-4.1-4.6-7.7-3.2c-0.9-0.1-1.6-0.5-1.8-1.5c1.7-2.8,4.8-1.8,7.2-2.6
		c1.4-0.4,2.8-0.7,4-1.5C233.5,90.8,236.8,91.3,240,91.1z"/>
	<path class="st10" d="M0.7,113c0-2.2,0-4.4,0-6.6c2.9-1.6,6.1-1.1,9.2-1.6c1.8-0.3,3.7-0.1,5.6-0.1c2.1,0.1,4.4-0.4,6.2,1.1
		c1.2,0.9,2.2,0.2,3.3-0.3c7.4-1.2,14.8-2.7,22.3-3.4c2.1,0.7,4.4,0.6,6.6,0.6c4.7,1.1,9.4,0.6,14.1,0.6c1.3,0,2.8-0.9,3.5,0.8
		c0.7,1.7-0.7,2.5-2,3.2c-0.3,0.1-0.5,0.4-0.7,0.7c-2.1,1.3-4.4,2.3-6.8,3.2c-1.3,0.2-2.5-0.1-3.6-0.7c-0.6-0.3-1.2-0.8-1.8-0.6
		c-6.2,1.6-12.6-0.3-18.7,1.5c-1.9,0.6-3.7,0.3-5.3-1c-0.6-0.5-1.2-0.7-2-0.7c-4.4,0.1-8.7,0.8-13.1,0.5c-1.3-0.1-2.5,0.6-3.7,1.2
		c-3.4,0.1-6.9-0.5-9.8,2.1C2.8,114.2,1.5,113.9,0.7,113z"/>
	<path class="st11" d="M0.7,80.4c0-1.3,0-2.7,0-4c2.2-3.1,5.6-2,8.5-2.3c5-0.4,10.1-0.9,15.1-0.7c10,0.5,20-1.4,30-0.5
		c1.7,1.3,3.5,1.1,5.3,0.2c0.6,0,1.1,0.1,1.6,0.3c0.2,0.1,0.4,0.2,0.6,0.3c1,0.5,2.7,0.6,2.3,2.3c-0.4,1.5-1.9,1.3-3.1,1.3
		c-3.3,0.1-6.6,0.1-9.9,0c-1.6,0-3,0.4-4.2,1.5c-4.1,1.3-8.4,1.1-12.6,1.3c-5.8-0.7-11.5,1.1-17.3,0.5c-0.4,0-0.8,0-1.2,0
		c-3.9,0.2-7.8-0.4-11.7,0.5C2.8,81.6,1.6,81.4,0.7,80.4z"/>
	<path class="st12" d="M240,50.5c-0.5,3-2.4,3.4-5.1,3.4c-11.6,0.2-23.1,0.7-34.7,1.1c-3.7,0.1-7.5-0.1-11.2,0.3
		c-1.4,0.2-2.3-1.8-3.6-0.6c-1.2-0.3-1.4-1.2-1.4-2.2c0-0.6,0.2-1.1,0.6-1.5c1.7-1,3.7-1.1,5.3-2.4c0.6-0.5,1.8-0.6,2.5-0.1
		c2.1,1.4,4.3,1,6.6,1c0.6,0,1.1,0,1.7,0c5.7-0.3,11.5,0.1,17.2,0c1.4,0,2.9-0.1,4.2-0.6c0.4-0.1,0.7-0.2,1.1-0.3
		c0.4-0.1,0.7-0.1,1.1-0.1c1.8,0.1,3.6,0.4,5.4,0.2c2.8-0.3,5.6-0.4,8.4,0.1c0.4,0.1,0.7,0.2,1.1,0.3c0.3,0.2,0.6,0.4,0.9,0.7
		C240,50.1,240,50.3,240,50.5z"/>
	<path class="st13" d="M60.5,73.9c-0.4,0-0.9,0-1.3-0.1c-1.5,0.7-3.1,0.6-4.7,0c-8.2,0.3-16.4,0.4-24.6,1.1c-3.1,0.3-6.3,0-9.5-0.1
		c-5.2-0.1-10.3,0.8-15.5,0.9c-1.6,0-2.9,0.6-4.3,0.7c0-1.3,0-2.7,0-4c12.6,0.2,25.2-0.2,37.7-1.2c5.8-0.4,11.7-0.2,17.5-0.6
		c8.8-0.6,17.7-0.6,26.5-0.8c-0.1,1.6-1.4,1.6-2.4,1.5c-1.7-0.1-2.9,0.5-4,1.7c-0.6,0.4-1.3,0.7-2.1,0.9
		C69.5,74.7,65,74.7,60.5,73.9z"/>
	<path class="st14" d="M40.6,0.7c4.9,0,9.8,0,14.6,0c1.8,0.8,3.6,0,5.4,0.4c1,0.3,2,0.2,2.9,0.2c4.1,0.1,4.9,1.1,4.1,5.3
		c-1.3,1.5-1.5,3.6-1.3,5.2c0.5,3.3-1.1,5.4-3,7.6c-1.9,0.3-2.7-1-2.9-2.4c-0.6-4.1-2.1-7.4-6.5-8.5c-0.4-0.1-0.8-0.4-1.1-0.8
		c-1.7-1.9-3.3-3.7-6.2-1.9c-0.6,0.4-1.6-0.1-2.2-0.5c-2.1-1.4-4.7-1.9-6.7-3.4C38,0.1,39.9,1.6,40.6,0.7z"/>
	<path class="st15" d="M29.9,67.8c-3.4,0.2-6.7,0.7-10.1,0.8c-2,0-3.3-1.5-5.3-1.3c-3.2,0.3-6.3,0.7-9.3,2.2c-1.2,0.6-3,0.2-4.5,0.3
		c0-3.3,0-6.6,0-10c2.7-2.2,6.2-1.4,9.2-1.8c2.4-0.3,5.1-0.1,7.5,0.5c0.7,2.2,0.1,3.2-2.4,3.5c-3,0.3-5.9,0.2-7.8,0.2
		c5.3-0.2,11.7,0.2,18.1-0.5c1-0.1,2,0,2.8,0.7c0.4,0.6,0.5,1.2,0.2,1.9c-1.7,2.2-4.2,0.6-5.9,1.3c1.9-0.1,4-0.4,6.2,0.3
		C29.4,66.3,30.1,66.7,29.9,67.8z"/>
	<path class="st16" d="M0.7,91.1c0-1.1,0-2.2,0-3.3c1.1-1.3,2.8-1.5,4.2-1.5c5,0,9.9-1.1,14.9-0.4c5-0.7,10.1-1.3,15.1-2.1
		c2.3-0.4,4.6-0.6,6.9-0.5c3.9,0.2,7.7,0.2,11.5-0.5c2.4-0.4,5.1-1,6.7,1.9c-0.5,1.3-1.7,1.2-2.7,1.4c-5.4,1.5-11.1,0.9-16.5,1.9
		c-0.8,0.1-1.5,0.3-2.2,0.5c-7.5,1-15.1,1.9-22.7,1.5c-1.2-0.1-2.4,0.2-3.4,1C8.5,92.2,4.6,93.9,0.7,91.1z"/>
	<path class="st17" d="M40.6,0.7c-0.9,0.4-1.8,0.9-2.7,1.3c3.3,1.7,6.4,3.6,10.3,4.1c5.6,0.7,9.4,7.5,7.5,12.7
		c-0.5,1.4-1.2,2.6-2.9,2.7c-2.9-1.7-4.9-4-5-7.6c-0.1-2.9-2.5-1.3-3.8-1.9c-0.8-0.2-1.5-0.5-2.2-0.9c-1-2.5-3.2-3.4-5.5-4.2
		c-1.6-2.2-2.1-4.3,0.3-6.2C37.9,0.7,39.2,0.7,40.6,0.7z"/>
	<path class="st18" d="M18,59.2c-5.8-0.6-11.5,0.9-17.3,0.6c0-1.3,0-2.7,0-4c4-0.2,8-0.5,12-0.7c2.9,0,5.8,0.1,8.6,0.1
		c0.7,1.2,0,1.6-1,1.9c-1,0.2-2.1,0.1-3.2,0.2c6.5-0.8,13-1.4,19.6-1.3c1.1,0,2.2-0.1,3.3,0.2c1.2,0.3,2.5,0.6,2.1,2.3
		c-2.9,2-6.3,1.3-9.5,1.7c-4.2,0.3-8.5-0.3-12.7-0.1C19.1,60.1,18.4,59.9,18,59.2z"/>
	<path class="st19" d="M19.3,87.1c-2.8-1.9-5.4,0.6-8.2,0.3c-3.4-0.3-6.9,0.2-10.4,0.4c0-1.8,0-3.5,0-5.3c0.6-0.5,1.3-1,2.1-0.9
		c4.1,0.3,8.1-0.8,12.2-0.7c3.2,0,6.4,0,9.6-0.3c0.8-0.1,1.9-0.1,2.2,1c0.4,1.3-0.7,1.8-1.6,2.1C22.8,84.2,20.8,85.3,19.3,87.1z"/>
	<path class="st20" d="M0.7,113c2.5,1.2,3.4-1.6,5.1-2.3c2.8-1.1,5.1-0.5,7.5,0.3c0.1,0.1,0.1,0.2,0.2,0.3c1,1.1,2.4-0.3,3.5,0.6
		c1.1,0.9,3.2,1.6,0.6,3.1c-0.3,0.1-0.6,0.1-0.9,0.1c-1.7-0.3-3.4,0.4-5.2-0.2c-0.7-0.2-1.6-0.4-2.2,0.2c-0.6,0.8,0.4,1.3,0.6,2
		c0.2,0.6,0.5,1.2,1.1,1.6c0.3,0.1,0.6,0.3,0.8,0.4c0.8,0.6,1.6,1.1,1.7,2.2c-0.4,1.9-2.1,1.9-3.5,2.3c-0.5,0.1-1,0-1.5-0.2
		c-1.6-0.9-3.4-1.5-5.3-1.4c-1,0-2-0.2-2.7-1C0.7,118.3,0.7,115.7,0.7,113z"/>
	<path class="st21" d="M34.6,129.6c-9.5,0-19.1,0-28.6,0c0-1.2,0.8-1.5,1.7-1.6c4.4-0.4,8.7-1,13.1-1.4c13.4-1.1,26.8-1.9,40.1-3.3
		c1.6,0,3.2,0,4.8,0c1.3,0.1,2.7-0.3,3.6,1.5c-3.7,1.6-7.7,1.6-11.5,2.5c-6.5,1.4-13.1,1.5-19.7,1.7C36.9,129,35.7,129,34.6,129.6z"
		/>
	<path class="st22" d="M61.2,124.3c-9.8,0.9-19.6,1.7-29.4,2.6c-8.1,0.7-16.3,1.4-24.4,2.1c-0.5,0-1.1,0-1.4,0.7
		c-0.9,0-1.8-0.1-2.7,0c-2.3,0.4-3.2-0.4-2.7-2.7c1.5-1.5,3.4-1.3,5.3-1.2c4.4,0.3,8.8,0.6,13.2-0.3c6.4-0.6,12.9-1,19.3-1.5
		c4.3-0.5,8.6-0.5,12.8-1.2c2.6-0.2,5.2-0.1,7.8-0.1C60,122.9,61.2,122.9,61.2,124.3z"/>
	<path class="st23" d="M170.9,13.3c-0.1-1.8-0.8-3.4-1.5-5c-1.1-2.6-2.8-3.7-5.9-3.7c-4.2,0.1-8.5,0.7-12.7-0.6c1-1.5,2.6-0.9,4-1
		c2.4-0.2,5.2,0.5,6.7-2.3c1.8,0,3.5,0,5.3,0c3.1,0.8,6.3,0.1,9.5,0.3c1.3,0.3,1.9,1.1,1.6,2.3c-0.3,1.1-1.2,1.4-2.2,1.6
		c-1.4,0.2-3.3-0.1-3,2.3c0.3,1.3,1.2,2.4,1.4,3.7c0.3,2.1-0.3,3.5-2.9,2.8C171.1,13.5,171,13.4,170.9,13.3z"/>
	<path class="st24" d="M34.6,129.6c1.9-2,4.7-1.9,6.8-1.8c7.8,0.4,15.2-1.9,22.8-2.7c1.3-0.1,2.6-0.2,4-0.6
		c-0.8-0.1-1.6-0.2-2.5-0.4c0.1-0.6,0.4-1.2,1-1.2c4.2-0.3,8.3-1.5,12.5-0.9c0.6,0.1,1,0.4,1.3,0.9c-4.5,1.9-9.3,2.2-14,3.3
		c-2.3,2.1-5.2,1.8-8,2.3c-1.8,0.3-3.7,0-5.3,1C47,129.6,40.8,129.6,34.6,129.6z"/>
	<path class="st25" d="M36.6,0.7c-0.7,2-0.7,4,0,6c-1.2,2.5-2.4,2.7-4.7,0.7c-0.8-3.3-3.7-4.8-7.1-3.8c-2.3,0.7-4.8,1.6-5.6-2.1
		c2.6-0.8,5.2-0.3,7.8-0.2c1,0,2,0.3,2.8-0.5C32.1,0.7,34.4,0.7,36.6,0.7z"/>
	<path class="st26" d="M0.7,102.4c0-0.7,0-1.3,0-2c3.5-2,3.9-1.8,6.4,0.9c0.9,0.9,2.9,0.1,3.2-0.5c1.2-2.2,3.5-2.3,5.3-3.4
		c2.7,0.4,2.6,3.1,3.8,4.7c0.2,2-0.7,2.9-2.6,2.9c-2.3,0-4.6,0.5-6.9,0.3c-2.1-0.5-4.1-1.5-6.5-1.3C2.1,104.2,1.2,103.5,0.7,102.4z"
		/>
	<path class="st27" d="M171.5,7.3c-1.6-3.2,0.6-3.2,2.7-3.4c1.6-0.1,4.1,0.6,2.6-2.6c0.3-0.5,1-0.2,1.3-0.7c8.4,0,16.8,0,25.3,0
		c0.5,0.7,2.1-0.2,1.9,1.2c-0.1,1-1.3,1-2.1,1.1C202,3,200.8,3,199.6,3c-1.1,0-2.3,0-3.4,0c-2.7,0.1-5.5-0.1-8.2,0.2
		c-2,0.2-3.6,0.8-4.9,2.2c-1.7,0.9-3.6,0.5-5.4,0.4C175.5,5.8,173.4,6.1,171.5,7.3z"/>
	<path class="st28" d="M29.9,0.7c-0.2,1.1-1,1.5-1.9,1.2c-2.9-0.9-5.8-0.4-8.7-0.5c-3.5-0.1-6.8-0.3-9.9,2.1C7,5.3,3.6,5.1,0.7,6
		c0-5.3,0-5.3,5.3-5.3C14,0.7,21.9,0.7,29.9,0.7z"/>
	<path class="st29" d="M85.1,0.7c1.1,0,2.2,0,3.3,0c2.3,0.2,3.5,1,2.7,3.6c-0.3,1,0.4,2.1,0.9,3.1c1,2,1.1,4-0.2,5.9
		c-2.4,1.5-4.8,1.6-7.3,0.2c2.2-3.9,1.7-7.9,0.3-11.9C84.8,1.2,84.9,0.9,85.1,0.7z"/>
	<path class="st30" d="M0.7,91.1c3.8,0.6,7.6-0.2,11.3-0.7c3.1-1.2,6.2-0.5,9.3-0.5c1.5,1.3,0.1,1.7-0.8,2.1
		c-1.8,0.8-3.8,0.7-5.6,1.4c-0.2,0.2-0.5,0.4-0.8,0.6c-0.3,0.2-0.6,0.2-1,0.3c-3.2,0.5-6.4,0.3-9.7,0.6c-1.2,0.1-2.1-0.4-2.8-1.3
		C0.7,92.9,0.7,92,0.7,91.1z"/>
	<path class="st31" d="M15.3,97.8c0,0.9-0.1,2-1.3,1.7c-3.7-0.9-1.5,1.1-1,2.5c-1.4-0.1-2.7-0.1-4,0.5c-1.8,0.8-2.3,0.2-2.3-1.7
		c0-1-1-1.1-1.7-0.9c-1.4,0.3-2.8,0.6-4.2,0.5c0-0.7,0-1.3,0-2c0.7-0.8,1.7-1.2,2.7-1.5c0.7-0.1,1.4-0.1,2.1-0.2
		c2.9-0.1,5.7-0.9,8.6,0C14.6,97,15.1,97.3,15.3,97.8z"/>
	<path class="st32" d="M213.4,0.7c2.9,0,5.8,0,8.6,0C227,1.4,232,0.8,236.9,1c1,0.1,2.7-0.7,2.7,1.4c-0.2,0.4-0.5,0.7-0.8,0.9
		c-6.1,0.8-12.1,1.7-18.3,1.1c-1.6-0.4-3.2-0.6-4.7-1.1C214.7,2.9,213.3,2.3,213.4,0.7z"/>
	<path class="st33" d="M126.3,1.3c0,2.3,2.4,1.6,3.3,2.7c-1.1,1.2-2.5,1.3-3.9,1.2c-6.1-0.5-12.2-1-18.3-1.7c-1-0.1-1.9-0.6-2.4-1.5
		c0.3-1.8,1.7-1,2.6-1c4-0.3,8.1,0.4,12.1-0.4c0.4,0,0.9,0,1.3,0C122.7,1.6,124.6,0.4,126.3,1.3z"/>
	<path class="st34" d="M19.3,126.5c-6.2,1-12.5,0.2-18.7,0.5c0-1.6,0-3.1,0-4.7c2.8-1,5.4-0.1,8,0.7c0.4,0,0.9,0,1.3,0
		c0.1,0.1,0.1,0.3,0.2,0.4c0,0.6-0.6,0.8-0.8,1.2c0.3-0.3,0.8-0.3,1.2-0.4c0.4,0,0.8,0.1,1.2,0.4c0.3,0.3-0.3,1.8,1.1,0.9
		c0.7-0.5,1.7-0.2,2.5-0.2C16.7,125.5,18.3,124.9,19.3,126.5z"/>
	<path class="st35" d="M212.1,110.5c9.3-0.7,18.6-1.4,28-2.2c0,0.4,0,0.9,0,1.3c-9.7,0.5-19.4,2.1-29.2,2
		C210.3,110.4,211.6,110.9,212.1,110.5z"/>
	<path class="st36" d="M213.4,0.7c1.7,2,4.4,1.7,6.6,2.6c-1.7,2-3.9,1.1-6,1.1c-4.1,0.6-8.1-0.3-12.2-0.2c-1.2,0-2.5-0.4-2.3-2.2
		c1.7,0,3.4,0,5.5,0c-0.9-0.7-1.2-1.1-1.6-1.4C206.8,0.7,210.1,0.7,213.4,0.7z"/>
	<path class="st26" d="M3.3,97.7c-0.7,0.9-1.7,0.6-2.7,0.7c0-1.1,0-2.2,0-3.3c2.5-1,5.1-0.5,7.7-0.6c1.6-0.1,3.2-0.3,4.8-0.7
		l0.3,0.1c1.2,1.1,1.3,2.4,0.7,3.8c-2.9,0-5.9,0.1-8.8,0.1C4.7,97.3,4,96.2,3.3,97.7z"/>
	<path class="st37" d="M53.2,129.6c1-2.1,3.2-1.5,4.9-1.9c2.8-0.7,5.6-0.9,8.4-1.4c0.2,1.1,0.4,2.2,0.6,3.3
		C62.5,129.6,57.8,129.6,53.2,129.6z"/>
	<path class="st38" d="M91.7,12.6c0.1-2.3,0-4.6-1.5-6.5c-0.5-0.6-1.1-1.6-0.4-2.4c1.8-2.1-0.3-2.3-1.4-3c3.3,0,6.6,0,10,0
		c0.6,0.4,1.2,0.9,0.5,1.7c-0.9,0.7-2.1,0.5-3,0.8c-1.9,0.1-2.1,1.5-2.2,3c-0.1,2.1,0.5,4.4-1,6.3C92.4,12.8,92,12.8,91.7,12.6z"/>
	<path class="st39" d="M155.8,3.9c-1.6,0.1-3.3,0.1-4.9,0.2c-1.5-3.6-1.5-3.6-5.3-0.7c-0.9-1.2-0.3-2,0.7-2.6c3.8,0,7.5,0,11.3,0
		C158.1,2.4,155.9,2.5,155.8,3.9z"/>
	<path class="st40" d="M239.4,2.7c-0.4-1.8-1.8-1.3-2.9-1.3c-3.7-0.1-7.5,0-11.2-0.1c-1.1,0-2.2,0.2-3.1-0.7c5.4,0,10.9,0.1,16.3,0
		c1.4,0,1.7,0.3,1.7,1.7c-0.1,5,0,10,0,15c-0.4,0.2-0.8,0.1-1.1-0.3C238.3,12.2,237.5,7.4,239.4,2.7z"/>
	<path class="st41" d="M155.8,3.9c-0.5-0.5-1.5-0.3-1.8-1.2c0.9-1.2,3.1-0.2,3.6-2c1.3,0,2.7,0,4,0c0.8,2.4,0.2,3.6-2.6,3.3
		C157.9,3.8,156.8,3.9,155.8,3.9z"/>
	<path class="st42" d="M9.2,104.9c2.5,0.4,5-0.4,7.5-0.5c2,0,2-1.2,1.7-2.7c2.4,0,2.8,1.3,2.3,3.3c-1.6,0.7-3.3-0.2-4.9,0.6
		c-5.1,0.2-10.2,0.5-15.2,0.7c0-0.2,0-0.4,0-0.7C3.3,103.3,6.3,104,9.2,104.9z"/>
	<path class="st43" d="M85.1,0.7c0,0.2,0,0.4,0,0.6C83.5,3.5,81,1.8,79,2.6C72.8,3.2,66.7,2,60.6,1.3c-1.8-0.3-3.7,0.6-5.4-0.7
		C65.2,0.7,75.1,0.7,85.1,0.7z"/>
	<path class="st44" d="M240,49.9c-0.2,0-0.5,0-0.7-0.1c-1.5-2.5-1-5.1-0.9-7.8c0.2-1.4-0.3-2.9-0.2-4.3c0.3-2.5,0.2-5,0-7.5
		c-0.2-2.5-0.6-5,0.8-7.4c0.3-0.4,0.7-0.5,1.1-0.3C240,31.7,240,40.8,240,49.9z"/>
	<path class="st45" d="M99,1.9c-0.2-0.4-0.4-0.8-0.6-1.2c7.1,0,14.2,0,21.3,0c-3,1.3-6.2,0.4-9.3,0.7c-1.8,0.2-3.7-0.6-5.4,0.7
		C103,3.4,101,3.5,99,1.9z"/>
	<path class="st46" d="M9.2,104.9c-2.9,0.3-5.7,0.5-8.6,0.8c0-1.1,0-2.2,0-3.3c1.7,1.1,3.7,0.2,5.5,0.8
		C7.3,103.6,8.6,103.6,9.2,104.9z"/>
	<path class="st47" d="M0.7,80.4c5.1-0.6,10.2-0.8,15.3-0.7c0.2,1-0.3,1.5-1.3,1.6c-3.5,0-7,0.6-10.5,0.3C3,81.7,1.7,82,0.7,81.1
		C0.7,80.9,0.7,80.7,0.7,80.4z"/>
	<path class="st48" d="M0.7,81.1c4.9,0,9.8,0,14.6,0c0.2,0.2,0.2,0.3,0.2,0.5c-0.1,0.1-0.1,0.2-0.2,0.2c-4.9,0.2-9.7,1-14.6,0.7
		C0.7,82,0.7,81.6,0.7,81.1z"/>
	<path class="st49" d="M146.3,0.7c-0.2,0.9-0.5,1.8-0.7,2.6c-0.2,0.2-0.4,0.5-0.6,0.7c-3.2,0.2-4.9-0.8-5.3-3.3
		C141.8,0.7,144.1,0.7,146.3,0.7z"/>
	<path class="st50" d="M13.1,93.7c-2,2-4.5,1.2-6.9,1.3c-1.9,0.1-3.7,0-5.6,0c0-0.4,0-0.9,0-1.3c3.7,0.6,7.4,0,11-0.3
		C12.2,93.4,12.8,93.1,13.1,93.7z"/>
	<path class="st45" d="M139.6,0.7c1.2,1.9,2.9,3.2,5.3,3.3c-4.1,0.6-7.5-0.8-10.6-3.3C136.1,0.7,137.8,0.7,139.6,0.7z"/>
	<path class="st51" d="M8.6,123c-2.7,0.6-5.3-0.2-8-0.7c0-0.4,0-0.9,0-1.3c2.4-0.2,4.8,0.2,7.2,0.7C8.8,121.8,8.9,122.2,8.6,123z"/>
	<path class="st52" d="M240,22.6c-0.2,0-0.4,0-0.6,0c-0.4-0.1-0.8-0.4-1.1-0.7c-1.6-0.7-3.8-0.8-3.5-3.4c0.2-0.5,0.5-0.8,0.9-1.1
		c0.7-0.4,1.5-0.4,2.3-0.4c0.5,0,0.9,0.2,1.4,0.2c0.2,0,0.3,0,0.5,0C240,19.1,240,20.8,240,22.6z"/>
	<path class="st53" d="M186.2,129.6c3.8-1.3,7.5-2.5,11.3,0C193.7,129.6,189.9,129.6,186.2,129.6z"/>
	<path class="st54" d="M240,91.1c-3,1-6.6-0.5-9.2,2c-0.5,0-0.8-0.3-1-0.7c-0.1-0.7,0.2-1.1,0.8-1.3c3.1-0.2,6.2-0.5,9.4-0.7
		C240,90.6,240,90.9,240,91.1z"/>
	<path class="st55" d="M202.8,129.6c0.7-0.5,1.9-0.8,2-1.4c0.3-1.4,0.7-2.5,2.3-1.6c1.9,1.1-0.6,1.9-0.3,3
		C205.4,129.6,204.1,129.6,202.8,129.6z"/>
	<path class="st56" d="M178.2,0.7c-0.4,0.2-0.9,0.5-1.3,0.7c-3.3-0.4-6.7,0.8-10-0.7C170.6,0.7,174.4,0.7,178.2,0.7z"/>
	<path class="st45" d="M126.3,1.3c-1.8-0.2-3.7,0.6-5.3-0.7c3.5,0,7.1,0,10.6,0C130,1.9,128.1,1.1,126.3,1.3z"/>
	<path class="st57" d="M182.8,129.6c-0.9-1.1-1.7-2.2-2.6-3.3c2.4-0.2,3.4,1.3,3.9,3.3C183.7,129.6,183.3,129.6,182.8,129.6z"/>
	<path class="st58" d="M131,129.6c-0.4-0.8-0.8-1.7,0.6-1.9c0.7-0.1,1.7-0.5,2,0.3c0.4,0.9-1,0.9-1.3,1.6
		C131.9,129.6,131.4,129.6,131,129.6z"/>
	<path class="st57" d="M174.9,129.6c2-1.1,4-1.7,6,0C178.8,129.6,176.9,129.6,174.9,129.6z"/>
	<path class="st59" d="M230.6,91.1c-0.2,0.4-0.4,0.8-0.6,1.2c-1.1,1.1-2.5,1.3-3.9,1.5c-8,1-16,1.7-24.1,2c-7.5,0.3-15,1.5-22.5,1.3
		c-1.8-0.4-3.8-0.1-5.3-1.7c-1.7-1.8-4.5-2.4-5.5-4.9c2.4-2.1,5.6-3.2,7.9-5.4c2.1-0.8,4.5,0,6.6-1.1c4.4-0.4,8.8,0.3,13.2-0.1
		c0.6-0.2,1.3-0.3,2-0.3c0.9,0,1.7,0,2.5-0.4c0.4-0.2,0.4-0.6,0.5-1c0.7-1.1,1.7-0.7,2.7-0.6c1.4,0.2,2.6-0.1,3.8-0.9
		c0.7-0.1,1.3,0,1.7,0.7c4,3.2,9.1,4.2,13.5,6.4C225.4,89,228,90,230.6,91.1z"/>
	<path class="st60" d="M184.7,52.5c0.2,0.7,0.5,1.5,0.7,2.2c1.1,6.1,2.1,12.2,3.2,18.3c-1.1,1.7-2.9,1.8-4.6,1.8
		c-2.1-0.1-4.1,0-6.2,0c-1.9,0.1-3.7,0-4.7-2.1c-0.5-1.1-1.7-1-2.6-1.1c-6.2-0.7-12.5-0.8-18.7,0.1c-1.6,0.2-3.2,0.7-4.9,0.5
		c-0.8-0.1-1.6-0.2-2.1-0.9c-0.4-0.8-0.4-1.6,0.1-2.3c1.8-1.5,4-1,6-1.1c1.2-0.1,2.4,0.1,3.6-0.4c2.7-5,7.4-2.9,11.4-3.3
		c2,0.1,4.1-0.3,6.1,0.3c2.5,3,5.9,2.4,9.1,2.3c1.6,0,2-1,1.6-2.5c-1.1-5.6-2.2-11.2-3.3-16.8c-0.7-2.7-1.2-5.4-1.8-8.1
		c0-1-0.2-2.1-0.6-3c-0.1-0.8-0.1-1.5,0-2.3c-0.2-2.2-1.3-4.3-1.2-6.6c-0.5-1.5-0.5-3.2-1.1-4.7c-0.3-1.2-0.4-2.5-1.6-3.3
		c-2.6-2-5.7-0.9-8.5-1.2c-1.5-0.2-3.3,0.6-4.4-1.2c0.6-0.2,1.5-0.3,1.8-0.8c2.1-3.8,5.7-2.9,8.9-3c0,0,0,0,0,0
		c0.7,0.6,1.5,0.4,2.2,0.3c3.7-0.5,5.3,0.4,6.1,4c1,4,1.7,8.1,2.5,12.1c0.2,1.4,0.2,2.9,0.8,4.2c0.7,3.3,1.1,6.6,1.9,9.8
		c0.2,1.2,0.2,2.5,0.7,3.6C185.9,49.1,184.2,50.7,184.7,52.5z"/>
	<path class="st61" d="M207.5,81.2c-1.5,3-4,0.6-6,1.1c-3.2,0.6-5.5-1-7.3-3.4c3.2-1.8,6.2-1.1,9.3,0.3c1.1,0.5,2.2,0.8,3.3,1.3
		C207.2,80.5,207.4,80.8,207.5,81.2z"/>
	<path class="st62" d="M207.5,81.2c-0.2-0.3-0.5-0.5-0.7-0.8c0.5-0.5,1.1-0.6,1.8-0.6c9.1,0,18.3-0.5,27.4-1.3
		c0.9-0.1,2-0.3,3.5,0.9c-10.5,0.6-20.3,1.2-30.1,1.8C208.7,81.2,208.1,81.2,207.5,81.2z"/>
	<path class="st63" d="M201.5,83.8c-0.8,0.5-1.7,0.8-2.7,0.7c-3.8-1.5-7.6-3.2-11.2-5.2c-0.7-0.4-1.7-0.9-1.3-2
		c0.3-0.9,1.2-0.8,2-0.7c0.3,0.2,0.6,0.4,0.8,0.6c1.7,0,2.6,1.9,4.4,1.6c2,1.4,4.3,2.2,6.3,3.4C200.4,82.5,201.6,82.5,201.5,83.8z"
		/>
	<path class="st64" d="M189,77.1c-0.3,0-0.6,0-0.8,0c-1-0.8-2-0.2-3,0.2c-1.2,0.2-2.4,0.2-3.6,0.1c-0.9-0.1-1.9-0.1-2.1-1.1
		c-0.2-1.1,0.9-1.3,1.7-1.6c0.5-0.2,1.1-0.2,1.6-0.3c0.5-0.2,1-0.3,1.5-0.5c1.4-0.3,2.8-0.6,4.2-0.8C192.9,74,188.2,75.8,189,77.1z"
		/>
	<path class="st65" d="M201.5,83.8c-2-1.8-4.8-2.1-6.9-3.7c-0.5-0.4-1.3-0.4-1.1-1.3c0.2,0,0.5,0.1,0.7,0.1c2.4,1.1,4.9,2.3,7.3,3.4
		c0.3,0.8,2.2,0.3,1.7,1.6C202.9,84.6,202.1,83.8,201.5,83.8z"/>
	<path class="st66" d="M197.5,111.6c1.1,0,2.2,0,3.3,0.1c0.7-0.2,0.8,0.1,0.6,0.7c-6.1,0.7-12.2,1.5-18.3,2.2
		c-1.9,0.2-3.7,0.4-5.6,0.5c-2.8,0.4-5.4,2-8.4,1.6c-0.6,0-1.2,0-1.7-0.1c-1-0.2-2-0.3-1.9-1.7c2.1-2.3,5.2-1,7.6-2.3
		c3.7-0.3,7.5-0.6,11.2-0.7c1.1,0,2.2-0.2,3.2-0.6C190.8,111.3,194.2,110.2,197.5,111.6z"/>
	<path class="st67" d="M184.2,119c-1.3,0.2-2.5,0.4-3.9,0.7c0.2-1.3,1.4-1,1.9-1.6c-0.8-0.8-1.7-0.8-2.7-0.4c-0.6,0-1.1-0.1-1.4-0.7
		c2.4-0.7,4.8-1.4,7.2-0.2c1.2,0.6,2.3-0.5,3.8-0.2C187.8,118.5,185.5,117.8,184.2,119z"/>
	<path class="st68" d="M168.9,115.8c2.9,0.1,5.7-1.1,8.7-0.7c-1.2,0.6-2.3,1.3-3.5,1.9c-1.1,2.6-2.9,2.6-5,1.2
		C168.3,117.5,168.2,116.7,168.9,115.8z"/>
	<path class="st69" d="M169.6,117.7c1.7,1.1,3.1,0.1,4.5-0.7c1.4,1.4,2.7,0.2,4.1-0.1c0.5,0.2,0.9,0.5,1.4,0.7
		c-1.9,1.6-4.6,0.9-6.6,2c-1,0.6-2,1.1-3.1,0.4c-0.5-0.3-0.7-0.8-0.7-1.4C169.1,118.3,169.3,118,169.6,117.7z"/>
	<path class="st70" d="M201.4,112.4c-0.2-0.2-0.4-0.5-0.6-0.7c3.7-1.3,7.6-0.2,11.2-1.1c-0.4,0.4-0.8,0.8-1.2,1.2
		C207.7,112.7,204.5,112.4,201.4,112.4z"/>
	<path class="st71" d="M208.6,122.1c-1.3-0.1-2.6-0.1-4-0.2C206,121,207.3,120.6,208.6,122.1z"/>
	<path class="st72" d="M41.9,58.5c-0.2-1.1-1-1.4-2-1.3c-4,0.2-7.9,0.2-11.9,0.3c-4.9,0.2-10,0.8-15.4-0.1c1.9-1.4,3.7-0.6,5.3-0.9
		c1.2-0.2,2.8,0.6,3.3-1.3c9.1-0.5,18.3-1,27.5-0.7c2.4,0.1,3.4-0.7,3.2-3.2c-0.6-8.1-1-16.3-1.4-24.4c0-0.2-0.1-0.4-0.1-0.6
		c0.7,0,1.1,0.4,1.4,0.9c1.8,6.6,1.3,13.5,1.7,20.2c0.1,1.6-0.1,3.3,1.2,4.6c3.9,1.4,8.1,0.3,12.1,0.8c2.8,0.3,5.7,0.1,8.6,0.1
		c2.2,0,4.4,0,6.6,0c2.4,0.1,3.8,1,3.2,3.7c-0.1,0.3-0.4,0.6-0.7,0.8c-3.4-1.7-7-0.4-9.9-0.8c1.9,0,4.3,0,6.7,0c1,0,2.3-0.4,2.6,1.2
		c-1,1.3-2.5,1.4-3.9,1.4c-11.6,0.1-23.2,1-34.7,0.7C43.9,59.8,42.4,60.4,41.9,58.5z"/>
	<path class="st73" d="M51.4,27.3c-0.3-0.3-0.7-0.7-1-1c-4.3-1-8.7-0.1-13.1-0.5c-2-2.7-1.6-3.8,1.5-4.2c1-0.1,1.9-0.2,2.8-0.5
		c0.6-0.1,1.2-0.2,1.7-0.2c2-0.1,4.1,0.1,6.1-0.5c1.1-0.3,2.1,0,3,0.8c2.2-1.5,2.4-3.5,2.3-6.2C54.3,6.4,47,7.4,41.9,5.4
		c-1.9-0.7-3.3-1.5-4-3.4c2-0.1,3.8,0.1,5.5,1.6c1.8,1.6,4,2.5,5.9-0.3c0.9-1.3,1.7-1.5,2,0.4c0.5,3,3,3.9,5.2,4.8
		c2.3,0.9,5.1,4.2,4.8,6.6c-0.2,1.9,0.2,3.2,1.9,4.1c1.5,0.7,1.2,1.8,0.6,2.9c-0.6,1-1.4,1.9-2.1,2.8c-1.1,1.1-2.4,2-3.5,3
		C55.4,30.9,53.7,30.6,51.4,27.3z"/>
	<path class="st74" d="M41.9,10.6c0.7,0,1.5,0,2,0.6c4.1,1.2,4.2,5.3,5.7,8.3c0.6,1.1-0.8,2.1-2.3,2c-2.9-5.1-7.4-3.8-11.8-2.7
		c-2.8-0.3-5.8,1.5-8.3-0.8c1.3-2.1,3.3-1.1,5.1-1.3c1.4-0.1,3.1,0.2,3.9-1.3c0.7-1.4-0.8-2.1-1.5-3c-0.3-0.5-0.7-1-0.4-1.5
		c0.9-1.4,2.4-0.8,3.6-1C39.5,8.7,40.6,10,41.9,10.6z"/>
	<path class="st75" d="M17.1,6.6c1.8,0.6,3.7,0.8,5.5,0.8c0.4,0,1.1,0.2,1.2,0.4c0.2,2.2,1.8,3.7,2.6,5.6c0.4,0.9,0.2,2-0.8,2.2
		c-1.4,0.4-1.2-0.7-1.1-1.6c0.1-1.5-0.9-2.2-2.1-2.7c-1.6-0.7-2.1,0.8-2.9,1.6c-0.8,0.9-1.2,2.8-2.9,1.9c-1.5-0.8-1.6-2.2-0.9-3.7
		c0.4-0.8,0.6-1.5-0.1-2.4C14.1,6.6,16,6.9,17.1,6.6z"/>
	<path class="st75" d="M41.9,10.6c-1.4,0.3-2.7-0.4-4-0.6c-3.8-1.3-8-0.3-12.7-2c2.6-1,4.7-0.5,6.7-0.7c1.7,0.8,3.4,1.4,4.7-0.7
		C39.3,6.7,42.2,6.5,41.9,10.6z"/>
	<path class="st76" d="M27.3,18c2.9,0,5.8,0,8.6,0c-0.8,1.4-0.9,2.3,1.2,2.2c2,0,4.2-0.5,6.1,0.9c0.2,0.3,0.2,0.6,0,0.9
		c-0.4,0-0.9,0.1-1.3,0.1c-2.3,0.7-4.8,0-7.1,1c-1.3,0.5-2.8-0.1-3.5-1.6c-0.9,0-1.7,0-2.6,0C25.9,21.1,25.3,20.1,27.3,18z"/>
	<path class="st77" d="M31.3,21.3c3.5,1.3,7.1,0.2,10.6,0.7c-0.6,0.6-1.3,0.7-2.1,0.6c-2.8-0.4-3.4,0.8-2.5,3.2c-1,0-2,0.1-2.9,0.1
		C29.6,25.9,29.6,25.9,31.3,21.3z"/>
	<path class="st78" d="M101.1,121.2c-1.1,0.7-1.3-0.1-1.5-0.9c-1.4-0.4-2.8,0.4-4.3,0.1c-2.1-0.7-4.1,0.5-6.2,0.3
		c-1.6-0.2-3.3,0.4-4.8-0.7c-1-2.9,1.7-2.3,2.9-3.1c0.5-0.2,1.1-0.2,1.6-0.2c0.5,0,1-0.1,1.5-0.1c4.5,0.6,9-0.6,13.5-0.6
		c0.2,0,0.6,0.1,0.6,0c1.5-4.7,5.7-2.2,8.6-3.1c1.1-0.3,2.4-0.4,4.2-0.5c-3.9,0.3-7.1,0.7-10.4,0.8c-1.7,0.1-4.1,0.5-4.6-2.3
		c3.3-2.2,7-1.1,10.5-1.5c3.7-0.4,7.4-0.1,11.2-0.1c2.5,0,5-0.1,7.5,0.1c1.4,0.1,2.9,0.3,1.8,2.6c-0.6,1.2,0.8,2.3,1.1,3.4
		c-0.1,2-1.7,1.6-2.9,1.7c-3.5,0.5-7.1-0.3-10.7,0.7c-1.1,0.3-2.3,0.8-3.4,1.1c-1.7,0-3.2,0.7-4.9,0.7c-3.3-0.3-6.6,0.9-9.9,0.7
		C102.1,120.3,101.4,120.4,101.1,121.2z"/>
	<path class="st79" d="M112.4,119.1c1.8-0.3,3.5-0.5,5.3-0.8c1.8-1.1,3.9-0.8,5.8-0.9c7.1-0.3,14-1.7,21-2.1
		c1.9,0.2,3.8-0.3,5.7-0.7c2.1-0.2,4.2,0.4,6.2-0.7c2.5-0.3,5.1-0.7,7.5,0.5c1.3,2.1-0.9,1.8-1.7,2.5c-2,1.1-4.2,0.7-6.4,0.9
		c-1-0.2-2-0.1-3,0c-2.7,0-5.3,0.9-8.1,0.8c-1.1-0.1-2.2,0-3.1-0.6c-9,0.5-18,1.1-27,1.6C113.8,119.8,112.7,120.7,112.4,119.1z"/>
	<path class="st80" d="M95.9,119.8c1.3,0.1,2.6-0.3,3.8,0.4c-5,1.8-10.3,2-15.6,2.4c-1.2,0.1-2.4,0.3-3.6,0.4c-5,0-9.9,0.3-14.8,1.2
		c-1.5,0-3,0.1-4.5,0.1c-0.6-0.7-1.4-0.6-2.2-0.8c0.2-1.3,1.2-1.5,2.3-1.5c8.5-0.2,16.9-1.9,25.4-1.7
		C89.7,120.4,92.8,119.2,95.9,119.8z"/>
	<path class="st81" d="M141.6,118.2c4-0.4,7.9-0.8,11.9-1.2c1.5-0.1,1.2,0.8,0.8,1.6c-0.4,0.8-1.3,1-2.1,1.2
		c-2.6,1.3-5.3,0.9-7.9,0.5c-0.2,0-0.4,0.1-0.5,0.2C142.3,120.3,141.7,119.5,141.6,118.2z"/>
	<path class="st82" d="M112.4,119.1c0.6,0.7,1.4,0.5,2.2,0.7c-4.4,0.9-9,1-13.4,1.4c-1.4-2.5,1.3-1.7,1.7-1.7
		C106.1,119.8,109.2,118.8,112.4,119.1z"/>
	<path class="st83" d="M92.5,128.5c1.5-1.2,3.1-0.9,5.4-0.7C95.7,129.6,94.1,128.7,92.5,128.5z"/>
	<path class="st84" d="M169.5,119.6c1.1,0,2.3,0.1,3.4,0.1c-1.6,3.5,2.9,1.7,3.2,4.1c-2.4-1.7-5.4,1.1-7.7-1.7
		c-0.4-0.6-1.4,1.1-2.2,1.6c-0.8,0.5-1.7,1.7-2.4,0.3c-0.9-1.7,0.9-0.8,1.4-1.1c0.4-0.2,0.8-0.5,0.6-1c-0.4-0.9-1.1-1-1.9-0.7
		c-1.1,0.4-2.2,2.1-3-0.3c0-0.5,0.1-1,0.6-1.1C164.1,119.3,166.8,118.7,169.5,119.6z"/>
	<path class="st85" d="M169.5,119.6c-2.8,1.1-5.8,0.2-8.6,1.4c-2.2-0.1-4.4-0.2-6.6-0.2c-1.8,0.3-3.6,0.5-2.8-2.3
		c2.2,0.4,2.4,0.2,2-1.4c0.8-0.7,1.5-0.1,2.2,0.2c0.9,1,2.2,0.6,3.3,1c2.6,0.5,5.1,0.8,7.6-0.4c1.1-0.5,2.1,0,3.1,0.6
		C169.5,118.7,169.5,119.2,169.5,119.6z"/>
	<path class="st5" d="M151.5,118.4c-0.2,2.1,1.7,1.8,2.8,2.3c-3.4,1.1-6.8,1.8-10.1-0.5c1-0.9,2.2-0.8,3.4-0.5
		C149.2,120.2,150.5,119.6,151.5,118.4z"/>
	<path class="st86" d="M99,1.9c2,0,4,0.1,6,0.1c8.2,1.1,16.4,1.7,24.6,2c0.2,0.1,0.3,0.1,0.5,0.1c2.2,0.1,3.5,1,3.2,3.5
		c-0.1,0.5,0,1.1,0.1,1.6c0.7,3.7,0.1,4.6-3.8,5.1c-0.4,0.1-0.9,0.2-1.3,0.2c-3.3,0.1-6.5,0.3-9.8-0.2c-2.4-0.9-5-0.6-7.4-1
		c-2.5-1.4-3.5-3.5-3.1-6.3c0.3-1.8-0.5-2.5-2.2-2.8c-2.3-0.4-4.6-0.2-6.9-0.4C97.7,3.7,96,4,95.7,2C96.8,1.9,97.9,1.9,99,1.9z"/>
	<path class="st87" d="M128.3,13.3c1.5-0.7,4.4,1.2,4.3-1.8c0-2.6,1.8-6.2-2.6-7.4c1.8-0.3,3.5-0.1,3.5,2.3c-0.1,3.9,2.8,4,5.1,3.9
		c2.9-0.1,5.8,0.7,8.8-0.1c1.4-0.4,2.6,0.7,2.8,1.8c0.3,1.7-1.4,1.1-2.3,1.4c-0.3,0.1-0.9,0.2-0.9,0.2c0.5,4.3-3.7,1.3-4.8,3.1
		c-1.6,1.8-4,0.4-5.9,1.5c-2.3,0.2-4.6-0.1-6.9-0.8C128.4,16.2,129.4,14.5,128.3,13.3z"/>
	<path class="st88" d="M160.2,17.1c4.8,0.6,9.9-0.7,14.5,1.5c-0.9,1.2-2.2,1.3-3.6,1.4c-10.3,0-20.5,0.1-30.8-0.1
		c-0.8-0.3-1.7-0.4-2.2-1.2c-0.2-1.2,0.4-1.6,1.5-1.6c5.4,0.1,10.7-0.3,16.1,0.2C157.2,17.2,158.7,17.1,160.2,17.1z"/>
	<path class="st89" d="M155.7,17.2c-4.7,0-9.5,0.1-14.2,0.2c-1.1,0-2.5-0.6-3.2,1c-1.5,0.8-1.9-0.2-2-1.4c2-0.1,4-0.2,6-0.3
		C146.7,17,151.2,16.2,155.7,17.2z"/>
	<path class="st90" d="M85.1,64.5c-7.7,0.4-15.4-0.7-23.1,1.2c2.5,0,4.9,0,7.4,0c-3.1,1.7-6.4,1.5-9.6,1.4c-2.2-1.3-4.5-0.5-6.8-0.4
		c-1.9-0.1-3.9,0.3-4.7-2.2c0.4-1.2,1.4-1.7,2.5-1.9c7.2-1.6,14.4-2.9,21.8-3c3,0,5.9-0.1,8.9,0.3c1.7,0.2,3.2,0.7,4.1,2.3
		C85.8,63.1,85.7,63.8,85.1,64.5z"/>
	<path class="st91" d="M48.5,64.5c1.3,1.5,3,1.3,4.7,1.4c-0.2,1.7-1.5,1.2-2.5,1.3c-1.4,0.2-2.8-0.4-4.1,0.6
		c-5.6,0-11.2-1.3-16.7,0.1c-0.4-0.4-0.9-0.9-1.3-1.3c0.1-0.8-0.3-1.4-0.7-2c0-0.6,0-1.3,0-1.9c2.1-1.6,4.4-1.5,6.5-0.3
		c2.4,1.4,4.7,1.6,7.3,1C44.1,62.7,46.6,62.4,48.5,64.5z"/>
	<path class="st92" d="M85.7,69.7c0-1.7,0-3.4,0-5c0.1-2.4,0.9-4.7,1.3-7.1c0.1-0.7,0.6-1.4,1.6-1.1c1.7,4.6,2,9.3,2.2,14.1
		c-0.1,0.7-0.1,1.4-0.1,2.1c-0.4,2.9-2.1,3.4-4.6,2.6c-0.3-0.1-0.6-0.2-0.8-0.5c-0.6-1-0.4-2.1-0.4-3.1
		C84.8,70.9,85.2,70.3,85.7,69.7z"/>
	<path class="st93" d="M88.4,56.5c-1.2,2.7-0.2,6-2.8,8.2c-0.2-0.1-0.3-0.1-0.5-0.2c0-0.7-0.1-1.3-0.1-2c-0.7-1.4-1.5-2.7-0.8-4.3
		c0.3-2,1.5-3.8,1.9-5.8c0.2-0.8,0.3-1.7,1.2-1.8c0.9-0.1,1.2,0.8,1.4,1.5c0.2,0.6,0.5,1.2,0.6,1.9C89.3,54.9,89.3,55.9,88.4,56.5z"
		/>
	<path class="st94" d="M85.7,69.7c0,0.7,0,1.4,0,2.1c-0.7,0.9-1.5,1.5-2.7,1.6c-2.4-0.3-5,0.8-7.2-1c0.5-1.6,1.6-2.1,3.2-2
		c1.1,0.1,2.4,0.3,3.4-0.5C83.5,69.8,84.6,69.8,85.7,69.7z"/>
	<path class="st95" d="M46.6,67.7c0.3-1.6,1.5-1.1,2.5-1.3c1.4-0.1,2.8,0.3,4.1-0.6c2.2,0.5,4.8-1.2,6.6,1.3
		C55.4,67.1,51.1,68.3,46.6,67.7z"/>
	<path class="st96" d="M179.2,95.8c7.7,0.2,15.4-0.8,23.1-1.3c9.2-0.6,18.5-0.9,27.7-2.1c0.3,0.3,0.5,0.5,0.8,0.8
		c-3.4,2.2-7.7,1.4-11.3,3.1c1.3,3.9,0.3,5.5-3.9,5.8c-19.6,1.7-39.3,2.9-59,4.1c-10.7,0.7-21.4,1.1-32,2.1
		c-4.2,0.4-8.4-0.1-12.5,1.1c-3.8,0.6-7.7,0.4-11.5,0.8c-4.6,0.4-7.6-2.3-9.3-6.5c-1-2.2-2.4-4.1-2.7-6.7c-0.2-2.1-1.4-4.1-2.4-6
		c-0.2-0.8,0.4-1.5,0.5-2.2c0.1-0.7,0.3-1.4,0.5-2.1c0.4-1,0.2-1.9,0-2.9c-0.1-0.5,0-0.9,0.2-1.4c2.1-1.3,2.2,1,3,1.8
		c0.5,0.9,0.9,2,1.5,2.9c0.9,1.8,1.6,3.6,2.6,5.2c1.4,2.2,1.6,5.1,3.9,6.8c0.9,0.6,2,0.9,3.1,1.1c3.7,0,7.5,0.5,11.2-0.5
		c9.2-0.4,18.3-1.1,27.4-1.6c4.3-0.2,8.6,0.2,12.8-1c6.7-0.4,13.4-0.6,20.1-1.3C175.1,95.3,177.1,96.7,179.2,95.8z"/>
	<path class="st97" d="M111.7,108.3c0.8-0.8,1.8-0.6,2.8-0.6c13.1-0.6,26.1-1.7,39.2-2.6c8.2-0.5,16.4-1.1,24.7-1.5
		c12.4-0.5,24.7-1.8,37.1-2.6c3.4-0.2,4.3-2,4.1-4.9c0.6,0.3,1.3,0.6,1.9,0.8c1.2,0.1,2.3,0.2,2.9,1.4c0.2,1.9-0.6,3.3-2.2,4.3
		c-0.3,0.1-0.7,0.2-1,0.2c-2.8,0.1-5.5,0.4-8.2,1.1c-4.2,1-8.6,0.8-12.8,1.2c-10,0.9-20,1.6-30,2.2c-1.8,0.1-3.4,1.2-5.2,0.9
		c-3.5-0.4-6.9-0.6-10.4,0.4c-2,0.6-4.1,0.4-6.2,0.2c-6.6-0.5-13.2,0.7-19.8,0.7c-5,0-9.9-0.1-14.9-0.3
		C112.8,109.3,112.1,109,111.7,108.3z"/>
	<path class="st98" d="M164.9,107.1c15.1-1.2,30.2-2.4,45.3-3.6c1.1-0.1,2.2-0.3,3.3-0.4c2.6-0.4,5.3-0.7,8-0.7c0.2,0,0.4,0,0.7,0
		c1.7-1.5,4.2-0.9,5.9-2.3c0.5-0.1,1-0.1,1.4,0.2c0.2,0,0.4,0,0.6,0.1c0.9,2.5-1.2,2.6-2.6,3.3c-5.4,0-10.6,1.6-16,1.4
		c-2.7,1.8-5.9,1.4-8.9,1.7c-4.1,0.5-8.3,0.4-12.5,0.8c-4.3-0.8-8.5,0.9-12.8,0.7c-2-0.1-3.9,0.5-6,0.1c1.5,1.5-1.1,4.4,1.8,5.4
		c-2.5,0.4-5,0.9-7.5,1.3c-0.5,0.3-0.9,0.3-1.4-0.1c-2.6,0.1-5.1,0.1-7.7,0.2c-1.4,0.3-2.8,0.4-4.4-0.1c0.8-2.2,2.5-3.1,4.3-3.9
		c-0.8-0.3-1.8-0.3-1.8-1.5c0-1.1,0.9-1.4,1.8-1.6C159.2,107.6,162.1,107.7,164.9,107.1z"/>
	<path class="st99" d="M189.5,106.4c7.3-0.3,14.6-1.5,21.9-1.3c-0.7,2-2,2.6-4.2,3.2c-3.2,0.9-6.8,1.3-9.8,3.3
		c-3.2,0.3-6.5,0.6-9.7,0.9c-2.7,0.3-5.3-1-8-0.8c-0.9,0.1-1.8-0.6-1.7-1.6c0.1-1.4,1.2-1.8,2.4-1.8
		C183.6,108.1,186.5,107.4,189.5,106.4z"/>
	<path class="st99" d="M229.4,100.3c-0.4,0-0.9,0-1.3,0c-2,0.7-3.1-0.5-4-2c-0.9-0.5-1.8-0.9-2.6-1.4c1.9-1.2,3.5-0.7,5,0.7
		C227.4,98.7,228.4,99.5,229.4,100.3z"/>
	<path class="st99" d="M227.4,103.7c1.1-0.9,2.2-1.8,2.6-3.3c2.1,0.7,1.6,1.8,0.3,2.8C229.4,103.8,228.4,103.7,227.4,103.7z"/>
	<path class="st100" d="M68.5,107.7c-0.4-0.3-0.8-0.7-1.5-1.2c0.9-0.1,1.5-0.1,2.1-0.1c1-0.1,1.8-0.8,1.7-1.6
		c-0.2-1.5-1.3-0.6-2-0.5c-5,0.2-10,0.8-15-0.5c0.5-1.9,2-1.4,3.3-1.6c8.1-0.7,16.2-1.1,24.4-1.4c3.6-0.1,5.9,1.1,7.3,4.4
		c0.8,2,2.2,3.5,4.3,4.3c1.3,0.3,2.5,0.6,3,2.1c-0.2,0.8-0.8,1.2-1.5,1.5c-2.9,1-4.7-2-7.3-1.9c-5.2-1-10.1-4-15.7-2.4
		C70.4,108.9,69.2,108.8,68.5,107.7z"/>
	<path class="st101" d="M11.5,119.6c-0.3,0-0.5,0-0.8,0c-1.2-3.3-0.9-4.2,2.3-4.5c1.2-0.1,2.2-1.6,3.6-0.7c0.2,0,0.4,0,0.6,0
		c3.8-0.7,7.6-1.7,11.5-1.8c1.4,0,2-1.2,2.5-2.4c0.3-0.4,0.7-0.7,1.3-0.5c3,2.1,5.9-0.1,8.8-0.3c2-0.1,3.9-0.5,5.8,0.1
		c2.9,0.9,5.4-1,8.3-1c1.3,0,2.4-0.2,3.1,1.2c0.2,2.5-1.4,3.2-3.4,3.2c-3.3,0.1-6.5,0.4-9.6,1.5c-7.5,0.4-14.8,3.4-22.4,2.7
		c-2.7-0.3-5.3,0.5-7.8,1.4C14,119.1,12.9,119.8,11.5,119.6z"/>
	<path class="st102" d="M45.2,113.7c3.1-1.3,6.3-2.3,9.8-1.7c2,0.3,2.6-1.1,3.5-2.3c1.1,0.2,2.2,0.5,3.3,0.7c2.9,0.5,5.6-1,8.5-0.4
		c1.9,0.7,3.9,0,5.9,0.2c0.7,0.1,1.3,0.4,1.9,0.8c1,0.8,1,1.7,0.3,2.7c-0.2,0.2-0.5,0.4-0.8,0.6c-2.8,0.9-5.6,0.8-8.6,0.3
		c-4.7-0.8-9.5,0.7-14.3,1.2C51.4,116.1,48,116.1,45.2,113.7z"/>
	<path class="st103" d="M47.2,103c-7.7,1.2-15.4,2.3-23.1,3.5c-2-0.5-0.5-1.3-0.1-2c5.6-2.2,11.7-2.4,17.6-3.4
		c10-1.7,20.1-3.3,30.2-4.5c0.7-0.1,1.3-0.4,1.9-0.6c3.2-0.5,6.4-1.2,9.6-0.8c1.9,1.8,0.1,2.3-1.1,2.9c-1.6,0.8-3.4,0.3-5,1
		c-6,0.6-11.8,2.4-17.8,2.8C55.2,101.7,51.3,103.5,47.2,103z"/>
	<path class="st104" d="M77.8,111.7c-0.4-0.2-0.9-0.4-1.3-0.7c-2-0.5-4-0.5-6,0c-1.7,0.1-3.5-0.1-5.2,0.5c-1.3,0.4-2.6,0.3-3.4-1.1
		c2-1.4,4-2.9,6.7-2.7c1.9,0,3.7,0,5.5-0.5c3.6-1.1,6.6,0.8,9.7,2c1.1,0.4,2.8-0.6,3.4,1.2c-0.1,0.1-0.2,0.3-0.3,0.4
		C83.9,112.1,80.7,110.3,77.8,111.7z"/>
	<path class="st20" d="M32.6,109.7c-0.2,0.2-0.5,0.4-0.7,0.6c-0.3,0.2-0.5,0.5-0.8,0.6c-5.9,0.7-11.9,1.7-17.8,0.1c0,0,0,0,0,0
		c0.1-0.9,0.7-1.4,1.5-1.5c3.2-0.3,6.5-0.8,9.7-0.8c1.8,0,3.7,0.4,5.5-0.1C31.2,108.3,32.2,108.1,32.6,109.7z"/>
	<path class="st105" d="M23.9,105.2c-0.3,0.5-0.5,1,0.2,1.3c-0.3,2.1-1.3,0.7-2.1,0.5c-0.8-0.4-1.1-1.1-1.4-1.9
		c-0.2-1.4-1-2.5-2.2-3.3c-2-0.5-0.9-3.6-3.2-4c-0.4-0.1-0.8-0.1-1.2-0.2c-0.2-1.3-0.4-2.5-0.7-3.8c0.2-0.3,0.4-0.5,0.7-0.8
		c1.3-0.3,2.1,0.3,2.8,1.3C18.1,98.8,21.5,101.6,23.9,105.2z"/>
	<path class="st106" d="M47.2,103c4-0.9,8-2,12.1-1.9c0.4,0.3,1.2,0.2,1.2,0.8c0.1,0.8-0.6,0.7-1.2,0.7c-0.7,0.1-1.5-0.2-2.2,0.3
		c-1.1,0.2-2.4,0-3.4,0.6C51.6,103.3,49.2,104.4,47.2,103z"/>
	<path class="st26" d="M20.6,105.1c0.5,0.6,0.9,1.3,1.4,1.9c-1.8-1.3-4-1.3-6.1-1.3C17.4,104.7,19,105.3,20.6,105.1z"/>
	<path class="st107" d="M85.9,74.9c0.2,0.1,0.3,0.2,0.5,0.3c1.2,1.1,1.5,2.5,1.7,4c0.1,1.1-0.3,2.2-0.7,3.2
		c-1.8,1.8-4.2,1.7-6.4,1.7c-4.2,0-8.4,0.9-12.6,0.2c-0.7-0.1-1.3,0.3-1.9,0.6c-2.3,0.7-4.5,1.2-6.6-0.4c-2.6-0.8-5.2-1-7.8-0.2
		c-2.2,0.6-4.5,0.7-6.8,0.3c-5.7-0.8-11.3,0.9-17,1.3c-3,0.2-5.9,1.3-8.9,1.2c0.5-2.6,0.5-2.6,6.8-5.6c-3.6-0.4-7.2,0.7-10.8,0.3
		c0-0.2,0-0.5,0-0.7c0.2-0.4,0.4-0.9,0.7-1.3c0.2,0,0.5,0,0.7,0c6,0.9,11.9-0.1,17.9-0.7c4-0.2,8-0.5,12-0.7c0.9-0.7,2-1,3.1-1
		c3.7,0.1,7.3-0.3,10.9-0.3c2.8,0.2,5.5,0.8,8.3,0.9c0.5-0.2-0.1-0.6,0.1-0.2c0.1,0.2,0,0.3-0.2,0.2c-0.8-0.1-1.7,0.4-2.3-0.5
		c1.3-3.2,4.3-2.9,6.8-2.8c3,0.1,6-0.2,8.9,0.7C83.3,75.7,84.6,75.2,85.9,74.9z"/>
	<path class="st108" d="M61.2,77.8c-4.9,0.5-9.8,0.8-14.7,0.6c0.6-2.1,2.4-2,4-2c4.2,0,8.5,0,13.1,0c-0.8-1.9-3.1-0.8-3.2-2.6
		c4.6-1.2,9.3-0.6,14-0.7c2.2,1.1,4.5,0.8,6.8,0.9c1.1,0,1.6-0.6,1.9-1.5c0.9-0.2,1.7-0.5,2.6-0.7c0.1,1,0.1,2,0.2,3
		c-1.1,2.7-3.4,1.6-5.1,1.3c-4.3-0.7-8.6-0.4-12.8,0.4c-0.6,0.1-1,0.7-1.5,1.1C64.7,78.4,63,78.3,61.2,77.8z"/>
	<path class="st47" d="M34.5,79.1c-5.9,1.5-11.9,2-17.9,0.7C22.6,79.6,28.6,79.4,34.5,79.1z"/>
	<path class="st108" d="M54.5,73.8c1.5-0.6,3.1-0.6,4.7,0C57.6,75.7,56.1,75.7,54.5,73.8z"/>
	<path class="st109" d="M184.7,52.5c-1.1-1.7-0.3-3.5-0.6-5.2c0.2-6,1.4-7.3,7.4-7.3c3.7,0,7.4,0.4,11.1,0.3
		c6.8,0.1,13.6-0.1,20.3,1.6c3.5,2.3,1,5,0.5,7.6c0,0.2,0,0.3-0.1,0.5c-4.8,0.9-9.8,0.9-14.3,0c-3.4-0.7-6,0.1-9,0.6
		c-0.4,0-0.9,0-1.3,0c-2.4-1.7-5.5-0.3-7.9-2.1c-0.3-0.2-1,0.1-1.2,0.4c-1,2.2-3.1,1.9-4.9,2.4C184.8,51.7,184.8,52.1,184.7,52.5z"
		/>
	<path class="st110" d="M238.7,49.8c-3.1,0-6.2,0.1-9.3,0.1c-1.3-1.1-2.6-1.8-4.4-1.3c-0.7,0.2-1.2,0-1.4-0.8
		c0.9-3.9,3.2-5.4,6.9-4.4c1.3,0.3,2.6,0.5,3.9,0.6C238.4,44.3,239.3,45.5,238.7,49.8z"/>
	<path class="st111" d="M238.7,49.8c0.3-3.2-1-4.9-4.4-4.6c-1.3,0.1-2.6-0.2-3.9-0.7c-3.2-1.2-6.1,0.7-6.4,4.1
		c0.2,0.3,0.2,0.5,0,0.8c-0.2,0-0.4,0-0.6,0c-0.8-1.1-0.5-2.3,0-3.4c0.5-1.2,0.7-2.3-0.1-3.4c2.7-2,5.8-0.6,8.7-1
		c2-0.2,4.1-0.2,6.1-0.1c0.4,0,0.7,0.2,1,0.4c0.6,2.6,0.1,5.3,0,7.9c0,0-0.3,0.1-0.3,0.1L238.7,49.8z"/>
	<path class="st112" d="M200.1,50.5c0.2-0.5,0.6-1.4,0.7-1.4c2.7,1.1,4-2.8,6.7-1.7c0.5,0.2,1.1,0.5,1.1,1.1c0,1.5,1,1.6,2,1.4
		c4.3-1.1,8.6,0.6,12.8,0c-3.6,1.4-7.3,0.5-11,0.6C208.3,50.7,204.2,50.5,200.1,50.5z"/>
	<path class="st113" d="M184.9,51.2c1.7-0.8,3.7-1.1,4.7-3.1c0-0.1,0.2-0.2,0.2-0.2c1.1-0.7,8.3,1.3,9,2.6c-2.2,0-4.5,1.2-6.5-1
		c-0.5-0.6-1.9-0.6-2.4,0.1C188.6,51.7,186.7,51.1,184.9,51.2z"/>
	<path class="st114" d="M224.1,49.3c0-0.3,0-0.5,0-0.8c1.8-2.6,3.5-2.2,5.3,1.3C227.6,49.9,225.8,50.3,224.1,49.3z"/>
	<path class="st107" d="M83.2,72.5c0.4,0.7,1.9,0.5,1.7,1.7c-0.2,1.2-1.4,0.9-2.2,0.9c-2,0-3.9,0-5.9,0c-1.4,0-2.4-0.4-2.3-2
		c0.4-0.2,0.9-0.4,1.3-0.7C78.2,72.4,80.7,72,83.2,72.5z"/>
	<path class="st115" d="M60.6,1.3c6.2,0,12.4,0,18.6,0.1c3.5,1.6,4,2.6,3.1,6.3c-0.6,2.1-1.1,4.2-0.2,6.4c0.1,1.8,0.1,3.5,0,5.3
		c-0.2,2.8-1.9,4.7-4.5,4c-3.8-1-7.1-0.7-10.3,1.4c-2.6-1.9-1.8-4.9-1.2-7c0.9-3.2,0.2-6.2,0-9.3c0-0.7,0.1-1.3,0.4-1.9
		C67.7,3.3,67,2.2,63.7,2C62.6,1.9,61.5,2.3,60.6,1.3z"/>
	<path class="st116" d="M66.5,6.7c0,0.4-0.1,0.9,0.1,1.3c1.7,4.4,0.7,8.9,0.4,13.4c-0.1,1.1,0.1,2.1,0.2,3.2
		c1.9,2.3,1.3,4.9,1.1,7.4c-0.2,0.7-0.3,1.5-1,2c-2.5,0.9-4.7,0-6.1-2c-1.7-2.3-1.2-5-0.1-7.5c-0.2-2.1,3.6-2.7,2-5.3
		c0-0.3-0.1-0.8,0.1-1c2.5-3.1,2.4-6.8,2.2-10.5C65.5,7.4,66.1,7,66.5,6.7z"/>
	<path class="st117" d="M85.1,57.9c0,1.5,0,3.1,0,4.6c-3-2.2-6.6-1.6-9.8-1.7c-4.6-0.1-9.3,0.5-14,1.1c-4.3,0.6-8.5,1.7-12.7,2.6
		c-4.2-1.7-8.8,1.9-12.8-0.4c-2.6-1.5-5.1-1.6-7.8-1.5c-8,1.2-16,0.4-24,0.6c-0.8,0-2.1,0.4-2.1-0.8c0-1.1,1.2-1.1,2-1.1
		c3.5-0.1,7-0.1,10.5-0.3c1.7-0.1,2.7-0.4,3.5-1.7c0.7,0,1.3,0,2,0c4.2,1,8.4,1.2,12.6,0c3.1-0.5,6.2-0.8,9.3-0.7
		c8-0.2,16,0.3,24-0.5c4.8-0.5,9.6-0.2,14.5-0.3c1.2,0,2.5,0.4,3.5-0.6l0,0c0.2,0,0.4,0,0.6,0C84.8,57.2,84.9,57.6,85.1,57.9z"/>
	<path class="st118" d="M27.9,64.5c0.9,0.2,2-0.3,3,0.5c-0.3,1.1-1.6,0.9-2.3,1.5c-3.4,0-6.8-0.2-10.1,0.2
		C21.2,64.3,24.6,64.5,27.9,64.5z"/>
	<path class="st119" d="M22,90.5c-3.3,0-6.7-0.1-10-0.1c0.5-1,1.4-1.3,2.5-1.3c8.1,0.4,16-0.7,24.1-1.4c0,0.2,0.1,0.4,0.1,0.5
		c-0.3,1-1.1,1.5-2,1.9c-3.8,1.3-7.8,0.9-11.7,1.4C23.9,91.7,22.8,91.5,22,90.5z"/>
	<path class="st120" d="M59.8,84.5c2.2-0.3,4.5,0.4,6.6-0.7c0.8-0.1,1.5,0,1.9,0.7c0.4,0.7-0.3,1.1-0.8,1.4
		c-7.8,1.8-15.7,2.8-23.8,3.1c-1.7-0.6-3.7,0.3-5.2-1.2c0,0-0.1-0.1-0.1-0.1c4.8-2,10-0.8,15-1.9C55.6,85.3,57.8,85.4,59.8,84.5z"/>
	<path class="st121" d="M43.2,21.9c0-0.2,0-0.4,0.1-0.6c1.3-1.3,2.6-1.2,3.9-0.1c2-0.3,2.5-1.3,1.4-2.9c-1.5-2.3-2.3-5.2-4.6-7
		c1.1-0.1,2.1-0.3,3.2-0.4c1.2-0.1,2.1,0.5,1.9,1.6c-0.7,3.3,0.2,5.7,3.1,7.3c0.3,0.2,0.2,1,0.3,1.5C49.4,21.3,46.3,22.3,43.2,21.9z
		"/>
	<path class="st15" d="M32.6,59.2c-0.4,0.6-0.8,1.1-1.5,1.2c-2.9,0.2-5.9,0.4-8.8,0.4c-1,0-1.8-0.7-2.3-1.6
		C24.2,59.2,28.4,59.2,32.6,59.2z"/>
	<path class="st10" d="M13.3,111c6.2-0.3,12.4-1,18.6-0.7c0.5,2.6-0.9,3.2-3.3,3.6c-2.8,0.4-5.8-0.4-8.6,1c-0.8,0.4-2,0.2-2.8-0.6
		c0.6-2.1-1.1-1.9-2.1-1.8c-1.4,0.2-2.6,0.8-4.1-0.3C11.9,111.8,12.6,111.4,13.3,111z"/>
	<path class="st122" d="M11.5,119.6c3.3-2.6,7-3.7,11.2-3.3c0,2,1.5,1.4,2.6,1.6c1.1,0.2,2.7,0.2,1.7,2.1c-3.4,1-6.9,1.7-10.5,2
		c-1.2,0.1-2.4,0.1-3.2-1C12.7,120.5,12.1,120.1,11.5,119.6z"/>
	<path class="st123" d="M13.3,121c4.8,0.3,9.3-0.9,13.9-2c2.1-1.7,4.2-1.8,6.1,0.3c-1.2,1.8-3.1,2.6-5,2.6c-4.2,0.1-8.1,1-11.8,2.6
		c-1.9,0.8-3.6,0.9-5.4,0.1c-1-0.1-0.9-1-1.2-1.6c0,0,0,0,0,0C10.8,121.9,12.8,122.6,13.3,121z"/>
	<path class="st10" d="M16.6,114.4c-1.5,0.2-2.6,1.3-4.2,1.5c-2.3,0.2-1.7,2.3-1.7,3.8c-2.2-0.7-1.3-3.7-3.9-4.2
		C10.1,112,13.5,114.7,16.6,114.4z"/>
	<path class="st124" d="M95.9,119.8c-5.4,1.1-10.8,1.3-16.2,1.8c-6.9,0.7-13.7,1.3-20.6,1.9c-2.6,0.1-5.2,0.1-7.7,0.2
		c-0.7,0.3-1.7,0.6-2-0.2c-0.3-0.9,0.7-1.2,1.4-1.5c4.1-1.3,8.2-1,12.4-1c-2,0-4,0.2-5.9-0.1c-1.4-0.2-3.3-0.3-2.8-2.7
		c1.2-1.2,2.8-1.6,4.3-1.2c4.8,1.1,9.6,0,14.4,0.1c1.7,0.1,3.5-0.3,4.9,1.1c-0.2,1.8-1.7,1.5-2.8,1.7c-1.2,0.2-2.4,0-3.4,0.1
		c3.5,0.2,7.1-0.8,10.8-0.9c0.7,0,1.3,0,1.8,0.5c2.8-0.1,5.6,0.3,8.4-0.5C93.9,118.9,95.1,118.8,95.9,119.8z"/>
	<path class="st125" d="M54.5,118.4c1.8,2,4.2,1.8,6.6,1.9c1.2,0,2.4,0,3.6-0.2c0.9-0.1,2-0.6,2.1,0.7c0.1,1-1.2,0.8-1.9,0.7
		c-4.8-0.3-9.4,0.9-14,1.4c-0.2,0-0.5,0.2-0.7,0.3c0.4,0.1,0.8,0.3,1.2,0.4c-4.2,0.4-8.5,0.8-12.7,1.1c-0.4-0.4-0.4-0.8-0.2-1.3
		c0.9-1.3,2.4-1.5,3.8-1.6c1.8-0.1,3.5-0.5,5.2-1.1c1.2-0.4,0-0.7,0-1.1c-0.3-0.6-0.5-1.3,0.1-1.8C49.8,117.1,52.2,115.9,54.5,118.4
		z"/>
	<path class="st126" d="M38.5,123.7c0,0.4,0,0.8,0,1.1c-6.4,0.5-12.8,1.1-19.2,1.6c-1.6-0.1-3.1-0.1-4.7-0.2c0.2-1.8,1.7-1.7,3-2
		c4.5-1,9.2-1,13.8-1c0.4,0,0.8,0,1.2,0C34.6,123.4,36.7,121.7,38.5,123.7z"/>
	<path class="st127" d="M180.8,29.9c-0.8-3.5-1.9-7-2.4-10.5c-0.5-3.8-1.9-6-6.1-5.5c-0.5,0.1-1-0.4-1.5-0.6
		c2.8,0.1,3.2-1.1,1.8-3.3c-0.5-0.8-0.8-1.8-1.1-2.6c0-1.3,0.3-2.6,1.9-2.6c3.1,0,6.3-0.7,9.4,0.6c0.1,0.1,0.3,0.2,0.4,0.3
		c0.1,4.7,0.5,9.4,0.2,14c-0.1,1.7-0.5,3.4-0.3,5.2C183.3,26.8,183.6,29.1,180.8,29.9z"/>
	<path class="st128" d="M199.6,2c0.7,1.6,2.1,1.3,3.4,1.3c3.7,0,7.4,0,11.1,0c1.3,0.7,1.4,1.6,0.5,2.7c-0.6,0.7-1.4,1.4-2.1,2
		c-2.6,1.7-5.7,1.7-8.4,2.9c-2.6,0.4-5.1,1.2-7.7,1.2c-1.2,0-2.4-0.2-3.3-1c-0.8-1.7,0.7-1.8,1.6-2.1c3.3-1.1,6.3-2.6,9.7-3.7
		c-3-0.4-6,0.7-8.8-0.9c-0.6-1,0-1.6,0.6-2.2C197.2,2,198.4,2,199.6,2z"/>
	<path class="st129" d="M196.1,2c-0.2,0.6-0.4,1.3-0.6,1.9c-1.9,2.1-4.6,0.9-6.7,1.8c-2,0-4.1,2.4-5.9-0.4c0,0,0,0,0,0
		c0-2.5,1.5-3.4,3.8-3.4C189.8,2,192.9,2,196.1,2z"/>
	<path class="st130" d="M111,12.6c2.5,0.4,5-0.2,7.5,0.6c-2.4,2.7-5.2,0.6-7.9,0.5c-0.4,0.1,0,0.9-0.1,0.4c0-0.2,0-0.2,0.1-0.2
		c0.8-0.4,1.6-0.3,1.8,0.5c0.3,1.2-0.4,1.8-1.7,1.7c-1.9-1-3.9-0.4-5.9-0.4c-5.8-0.1-11.6,0-17.3,0c7.5,0,15-0.1,22.5,0.1
		c0.4,0.2,0.5,0.6,0.3,1c-1,1.1-2.4,0.9-3.7,0.9c-5.1,0-10.2,0-15.3,0c-1.3,0-2.7-0.3-3.8,0.7c-0.3,0.4-0.5,0.8-0.7,1.2
		c-0.6,0.9-0.1,3.4-2.6,1.7c-0.6-0.4-0.3,0.4-0.3,0.6C83.8,22.8,84,24,82.6,24c-1.7-3.1-1-9.8,1.3-11.5c0.2,0,0.4,0.1,0.6,0.1
		c2.4,0.9,4.9,0.9,7.3-0.1c0.3,0,0.5,0,0.8,0c0.3-0.3,0.6-0.7,1-0.8C99.4,11.3,105.3,10.2,111,12.6z"/>
	<path class="st131" d="M81.1,14c-1.2-1.8-1.1-4.1-0.3-5.7c1.5-3,0.6-5-1.7-6.9c2-0.1,4-0.1,5.9-0.2c0.7,0.2,1.5-0.1,1.5,1.2
		c0.1,2.5,0.1,5,0.5,7.4c0.4,2.4-0.6,3.1-2.7,2.9c0,0,0-0.1,0-0.1C82.7,11.7,82.2,13.5,81.1,14z"/>
	<path class="st132" d="M44.2,87.8c7.9-0.1,15.6-2.1,23.5-2.6c1.2,0.2,2.5,0,3.1,1.5c-0.1,2.2-1.9,2.1-3.3,2.4
		c-5.6,0.9-11.3,1.7-16.2,1.9c1.1-0.2,2.9-0.6,4.1,1.6c0.3,0.9,0.5,1.7,0.3,2.7c-0.1,0.4-0.3,0.7-0.6,1c-0.3,0.2-0.7,0.4-1.1,0.4
		c-5.5-0.4-10.9-1-16.4-1.2c-1.3,0-2.3-0.7-3.4-1.3c-4.3-0.5-8.4,1-12.6,1.2c-1.7,0.1-3.5,0.7-4.9-0.8c-1.1-0.1-1.8-0.8-2.6-1.4
		c1.4-2.2,3.9-1,5.8-2c0.6-0.3,1.5,0,2.1-0.6c5-0.4,10.1-0.4,15.1-1.7C39.4,87.9,41.9,88.3,44.2,87.8z"/>
	<path class="st133" d="M3.3,97.7c-0.5-1-0.8-1.7,0.8-2c2.2-0.3,0.5,1.5,1.2,2C4.6,97.7,4,97.7,3.3,97.7z"/>
	<path class="st134" d="M212.1,7.3c0.2-1.6,3.4-1.6,2-4c2,0,4,0,6-0.1c6.2-0.2,12.5-0.4,18.7-0.6c0.5,1.5,0.2,3,0.2,4.5
		c-0.9,1.5-2.4,1.5-3.9,1.7c-3.9,0.3-7.7,0.1-11.5-0.6C223,8,222.4,8,221.9,8.3c-2.9,1.8-5.7,1-8.6,0C212.8,8.1,212.4,7.8,212.1,7.3
		z"/>
	<path class="st135" d="M238.6,7.4c0-1.6,0.1-3.1,0.1-4.7c0.2-0.1,0.4-0.1,0.6,0c0.1,4.9,0.1,9.7,0.2,14.6c-0.3,0.2-0.5,0.4-0.8,0.6
		C237,14.4,236.5,10.9,238.6,7.4z"/>
	<path class="st136" d="M32,124.2c-5.8,0.6-11.6,0.3-17.3,2.1c-1.8,0.4-3.3-0.2-4.7-1.3c-0.2-0.6,0-0.9,0.7-0.7
		c3.5,0.2,6.6-0.8,9.5-2.7c0.4-0.3,1-0.6,1.5-0.5c4,0.4,7.8-0.5,11.6-1.5c0.8-0.8,1.6-0.7,2.6-0.3c1.4,1.2,0.9,2-0.5,2.6
		c-1,0.4-2.2,0.4-3.1,1c-1.3,0.2-2.6,0.1-3.8,0.4C29.6,123.6,31.3,121.9,32,124.2z"/>
	<path class="st20" d="M10.7,124.3c-0.2,0.2-0.5,0.5-0.7,0.7c-0.9,0.3-1.8,0.7-2.8,1.1c0.4-1.7,2.4-1.7,2.8-3.1
		C10.5,123.3,10.6,123.8,10.7,124.3z"/>
	<path class="st137" d="M111,12.6c-6.2,0-12.3,0-18.5,0c-0.1-2.5-0.1-5-0.2-7.5c-0.2-2.6,0.8-3.7,3.4-3.1c1,1,2.3,0.7,3.4,0.7
		c1.8,0.1,3.5,0,5.3,0.1c1.6,0.1,3.5,0,4.8,0.8c1.9,1.2-0.4,2.8-0.4,4.4C109,9.9,110,11.2,111,12.6z"/>
	<path class="st138" d="M239.3,21.4c0,0.4,0.1,0.8,0.1,1.2c-0.1,5.1-0.1,10.1-0.2,15.2c-1.4,0-1.5-1.2-1.5-2.1
		c0-2.5-1.3-2.9-3.4-2.6c-2.5,0.3-5-0.5-7.5-0.3c-2.1,0.1-3.2,0.9-3.6,2.9c-0.1,0.1-0.2,0.2-0.2,0.2c-3-1.2-5.2,0.1-7.7,1.7
		c-1.3,0.8-3.1,1.1-4.6-0.1c0.6-1.4-0.3-2.2-1.1-3.1c-0.9-2.5,0.6-3.6,2.6-4.5c1.3-0.5,2.8-0.3,4.2-1.2c-0.5-1.7-2.1-1.3-3.2-1.7
		c-1.3-0.5-2.5-1.1-2.4-2.7c0.2-1.7,1.6-1.9,3-1.9c6.3-0.1,12.5,0,18.8,0c1.6,0,3.1,0,4.5-0.6C238,21.6,238.6,21,239.3,21.4z"/>
	<path class="st139" d="M222.7,35.9c0.2-3.6,2.4-5.3,6.5-4.5c2.3,0.4,4.6,0.6,6.9,0.4c2-0.2,2.8,0.3,2.6,2.4
		c-0.1,1.2-0.4,2.5,0.5,3.5c0,1.4,0,2.8,0,4.2c0,0-0.3,0-0.3,0l-0.3,0c-1.8-0.9-3.5-1.1-5.7-1c-2.3,0.1-5.6,1.5-7.8-1.3
		c-0.4-1.2,0-2.5-0.1-3.7c0-0.4-0.3-0.7-0.2-0.2c0,0-0.2,0-0.3,0.1c-0.6,0.5-0.6,1.5-1.6,1.6C222.4,37.1,222.2,36.6,222.7,35.9z"/>
	<path class="st140" d="M238.6,7.4c0,3.5,0.1,7,0.1,10.5c-0.9,0-1.8,0-2.7-0.1c-0.5-0.7-0.3-1.7-0.7-2.6c-0.6,1.3-0.1,3.1-1.7,3.9
		c-1.5,0.3-2.3-0.5-2.6-1.9c-0.2-1-0.1-2-0.7-2.9c-1.2-1.5-3.3,0-4.5-1.6c-0.1-0.2-0.2-0.5-0.1-0.6c2.6-2,5.5-3.5,8.7-4.2
		C236,7.8,237.2,7.1,238.6,7.4z"/>
	<path class="st141" d="M231.5,13.3c0.9,1,0.6,2.3,0.6,3.4c0,1.4,0.7,2,2,2c0.4-0.1,0.9-0.5,1.4-0.1c0.2,1.4,1,2.1,2.4,2
		c0.7-0.1,1.6-0.5,1.5,0.8c-0.2,0.4-0.4,0.8-0.6,1.2c-6.1,0.6-12.3,0.1-18.4,0.3c-1.3-0.2-2.7-0.3-3-2c1.8-2.3,3.9-1.3,6.1-0.7
		c0.9,0,1.8,0,2.6,0c3.6,0,4.2-0.6,4.5-4.1C230.5,15.1,230.3,13.9,231.5,13.3z"/>
	<path class="st142" d="M235.3,18.6c-0.4,0.1-0.9,0.7-1.4,0.1c0.3-2.1-0.6-4.4,1.5-6.7c0.2,2.2,2.9,3.6,0.6,5.8
		C235.8,18.1,235.6,18.3,235.3,18.6z"/>
	<path class="st143" d="M176.2,85.9c-1.7,2.8-4,4.4-7.3,4.4c0.2,1.3,1.4,1.6,2.2,2.3c0.7,0.6,1.9,1.1,0.8,2.3c-4.3,1-8.6,1.3-13,1.2
		c-1.2,0-2.4,0-3.6,0c-0.9,0-1.9-0.1-2.3-1c-0.4-1.1,0.8-1.4,1.5-1.9c1.7-1.1,3.3-2.2,5.1-3.4c-1.9-0.5-3.6,0.4-5.3,0.3
		c-4,0.2-7.9,0.2-11.8,0.5c-3.3,0.5-6.6,0.4-9.8,0.7c-0.8,0.1-1.6-0.1-2.2-0.7c-0.4-0.9,0.1-1.5,0.7-2.1c3.6-1.8,7.5-1.4,11.2-1.6
		c3.3-0.2,6.5-0.3,9.8-0.8c0.8-0.1,1.6,0.1,2.4,0.1c6.5-0.7,13.1-1.2,19.7-1.3C175,84.9,175.8,85,176.2,85.9z"/>
	<path class="st144" d="M196.8,84.3c-4.6,1.4-9.2,1.2-13.9,0.2c-3.4-0.3-6-2.3-8.5-4.4c-0.4-0.7-0.7-1.5,0.2-2
		c1.5-0.9,2.4,0.4,3.7,1.1c-0.8-0.6-1.8-0.9-1.3-2c0.3-0.7,1.1-0.8,1.7-0.6c1.5,0.3,2.8,1.9,4.6,0.4c0.3-0.2,1.5,0.1,2.2,0.4
		c2.8,2.2,6.3,3.1,9.3,5C195.6,82.9,196.9,82.9,196.8,84.3z"/>
	<path class="st145" d="M174.8,79.8c2.7,1.7,5.7,2.6,8.1,4.8c-1.8,2.3-4.5,0.7-6.7,1.3c-0.7-0.1-1.4-0.1-2.1-0.2c0-1.7-1-1-2-1
		c-1.7,0.1-3.5,0.8-5-0.6c-2.2-2-1.8-4.3,1.1-6.6c0.3-0.2,0.6-0.3,0.9-0.4C171.7,76.5,173,78.6,174.8,79.8z"/>
	<path class="st146" d="M179.2,95.8c-8.6,1.5-17.4,1.6-26.1,2c-3,0.1-6.1,1.1-9-0.6c3.2-2.1,6.9-1.6,10.4-1.5
		c1.7-0.1,3.5,0.2,5.2-0.3c4.7,0.1,9.4-0.8,14.1-1.1c0.2,0,0.4,0,0.6,0C175.7,95.8,177.5,95.8,179.2,95.8z"/>
	<path class="st147" d="M196.8,84.3c-3.4-2.9-7.9-3.7-11.3-6.5c-0.4-0.4-0.4-0.8-0.1-1.2c1,0,2-0.3,2.8,0.5c-0.4,0-1.1-0.1-1.2,0.1
		c-0.4,0.7,0.5,0.8,0.8,1c3.1,1.6,6.2,3.1,9.4,4.7c0.7,0.3,1.4,0.6,1.6,1.5C198.1,84.4,197.4,84.3,196.8,84.3z"/>
	<path class="st148" d="M195.3,87c2.5-1,4.2-1.1,6,0.8C199.1,87.8,197.5,88.1,195.3,87z"/>
	<path class="st149" d="M172.2,93.7c-1.2-0.9-2.4-1.7-3.6-2.6c-0.8-0.6-0.2-0.8,0.3-0.9c1.8,1.4,3.6,2.8,5.5,4.2
		c0,0-0.1,0.1-0.1,0.1C173.3,95,172.7,94.5,172.2,93.7z"/>
	<path class="st150" d="M88.4,56.5c0-0.9-0.1-1.8-0.1-2.7c-0.1-3.1-2.3-5.9-1.6-9.2c0.5-1.9-1.1-4.1,0.6-5.9c4-1.2,8.1-0.3,12.1-0.5
		c1.6-0.1,3.3,0,5,0c10.8,0,21.6,0,32.4,0c7.4,0,14.8,0,22.3,0c1.6,0,3.1,0,4.6-0.6c5-0.2,10-0.6,15,0.6c0.5,2.9,1.1,5.7,1.6,8.6
		c0.1,0.8,0.8,1.9-0.4,2.2c-0.8,0.2-1.2-0.8-1.5-1.5c-0.2-0.4-0.4-0.8-0.4-1.2c-1.2-5.5-0.6-5.2-7.1-5.2c-10.7,0-21.5,0-32.2,0
		c-2.6,0-4,0.7-4.1,3.4c-0.7,0.8-1.5,0.9-2.5,0.9c-3.7,0-7.4,0-10.4,0c2.9,0.4,6.6-0.7,10.1,0.6c0.3,0.2,0.5,0.5,0.7,0.8
		c0.6,2.3,2.1,3.1,4.4,3c3.7-0.1,7.5,0,11.2,0c0.7,0,1.3,0,2,0.1c1.1,0.2,2.8,0.2,2.7,1.7c-0.1,1.3-1.7,1.1-2.7,1.2
		c-2.5,0.1-5.1-0.1-7.5,0.7c-1.8,0.3-3.6,0.4-5.4,0.1c-0.6,0-1.2,0-1.8,0c-5.7,0.8-11.5,1.3-17.3,0.7c-0.6-0.1-1.2-0.1-1.7-0.1
		c-1.7,0-3.4,0-5,0c-2.7,0.7-5.7-0.9-8.3,0.8c-0.7,0.6-0.8,1.5-0.9,2.4c0,0.5,0,0.9,0.1,1.4c0.3,2.2,0.7,4.5,0.8,6.7
		c0,1.2-0.4,2.5,0,3.7c0,0.3,0,0.6,0,1c-0.4,1.7-1.4,2.9-3.4,2.8c-1.8,0.8-3.6,0.7-5.2-0.6c-1.6-0.3-3.4,0.4-4.7-1.1
		C89.6,66.2,88,61.5,88.4,56.5z"/>
	<path class="st151" d="M142.3,52.4c3.1-1.4,6.5,0,9.7-1.2c-5.2,0-10.5,0-15.7,0c-4.7,0-4.7,0-4.6-4.7c0.9-1.3,2.4-0.9,3.6-1
		c4.6-0.1,9.2,0.4,12.8-0.3c-3,0.6-7.1,0.2-11.2,0.3c-1,0-2,0-2.6-1c-0.4-0.8-2.3-0.5-1.5-2.1c0.7-1.3,1.2-2.7,3.3-2.6
		c4.9,0.2,9.7,0.1,14.6,0.1c7.9,0,15.7,0.1,23.6-0.1c2.8-0.1,4,0.8,4.3,3.5c0.2,1.7,0.7,3.4,1.4,5.1c0.1-0.5,0.2-1,0.3-1.6
		c1.3,6.3,2.6,12.7,3.9,19c0.3,1.4-0.1,2-1.6,2c-2.2,0-4.4-0.1-6.6,0.2c-2.6,0.4-3.6-0.6-3.9-2.9c-0.2-0.3-0.4-0.5-0.6-0.8
		c-0.2-0.3-0.3-0.6-0.4-0.9c-1-2.5-1.2-5.1-1.7-7.7c-0.3-1.8-1.2-2.3-3.1-2.7c-3.7-0.7-7.2,1.1-10.8,0.5c-1.2-0.4-2.4-0.1-3.6,0.2
		C148.7,53.5,145.2,55,142.3,52.4z"/>
	<path class="st152" d="M95.8,71.2c0.7,0.1,1.2,4.1,2.3,0.1c0.2-0.7,1,0.3,1.6,0.5c0.9,1.5,2.3,2.3,3.8,1.5c2.3-1.1,4.8-1,7.1-2
		c0.3,0,0.7,0.1,1,0.3c4.1,1.4,8.2,2.6,12.5,2.2c7.1-0.8,14.3-0.1,21.3-2.1c0.5-0.2,1.1-0.3,1.5-0.6c8.8-2,17.7-1.6,26.5-0.7
		c0.7,0.1,2.1,0,1.6,1c-2.4,4.3,1.8,1.5,2.5,2.4c0,1.4-1.1,1.5-2.1,1.6c-3.9,0.3-7.7,1.9-11.6,1.9c-5.4,0-10.8,0.4-16,1.1
		c-5.1,0.7-10.3-0.5-15.2,1.1c-2,3.6-5.7,2.1-8.7,2.5c-1,0.1-1.9,0-2.7,0.7c-0.8,0.4-1.5,0.2-2.2-0.1c-1.6-0.8-3.1-2.4-4.6,0.1
		c-0.1,0.2-0.8-0.1-1.2-0.4c-0.9-0.7-1.8-1.5-2.6,0.2c-0.4,0.5-0.8,0.9-1.5,0.8c-1.5-1.3-3.4-1.7-5.1-2.3c-1.5-1.4-3.4-1-5.2-1.3
		c-2.7-0.4-5.3-0.5-7.9,0.6c-1.6,0.7-3,0.6-3.7-1.3c-0.9-1.2-0.8-2.6-0.7-3.9c0.1-0.6,0.1-1.3,0.2-2c0.9,0.5,0.3,2.2,1.6,2
		c1.1-0.2,1.1-1.4,1.6-2.3c0.6-1.2,1.7-0.9,2.7-1C93.6,71.9,94.9,72.2,95.8,71.2z"/>
	<path class="st153" d="M202.8,41.2c-3.1,0-6.1,0-9.2,0c-6.8,0-6.8,0-9.4,6c-0.9-1-0.5-2.2-0.6-3.4c0.6-2.7-0.2-5.6,1-8.2
		c1.8-2.8,0.4-5.8,0.3-8.7c-0.1-5.1,0.6-5.9,5.7-5.5c1.3,0.1,2.6,0,3.9,0.2c2.7,1.8,2.9,2.8,1.1,5.2c-0.9,1.2-2.2,2.1-3.2,3.3
		c-1.3,1.6-1.4,3,0.9,3.7c1.7,0.5,3.3,1.2,3.6,3.3c-0.4,2.1,0.9,2.3,2.6,2.4C200.7,39.7,202.5,39,202.8,41.2z"/>
	<path class="st154" d="M194.8,22.6c-2-0.1-3.9,0.2-5.9-0.3c-2.5-0.6-3.4,0.5-3.1,3.1c0.3,2.5,0.7,5,0.6,7.5c0,1.3,0,3-1.6,3.7
		c-0.6-0.5-0.6-1.1-0.7-1.8c-0.2-2.8-1.4-2-2.7-0.8c-1-1.2-0.5-2.7-0.6-4c0.4-0.8,1.3-1.6,1.2-2.3c-1.2-5.3,1.7-10.6-0.2-16
		c-0.7-2.1,1.6-4.1,1-6.4c2,1.4,3.5-0.5,5.3-0.7c1,1.6,0.3,3.2-0.2,4.7c-1,2.8-0.7,5.1,2.1,6.8c0.4,0.6,0.4,1.2,0.4,1.9
		c0,1.8,0.6,2.9,2.7,2.8c1.2-0.1,2.7,0,3.1,1.8C195.8,23,195.3,23,194.8,22.6z"/>
	<path class="st155" d="M140.3,18.6c11.5,0,23,0,34.5,0c1.1,1.2,0.6,2.7,0.8,4c-0.3,0.4-0.6,0.6-1,0.8c-2.1,0.9-4.4,0.5-6.6,0.5
		c-5.2,0-10.4,0-15.6,0c-1.5,0-3.1,0.1-4.5-0.8c-0.3-0.2-0.5-0.6-0.5-1c2-1.1,4.1-0.2,5.7-0.5c-3.1-0.6-6.6,0.8-10.2,0.6
		c-0.8,0-1.5,0-2.3,0c-1.3-0.1-3,0.2-3.2-1.6C137.2,18.7,139.3,19.3,140.3,18.6z"/>
	<path class="st156" d="M131.6,79.1c1.8-1.9,4.2-1.4,6.3-1.2c5.2,0.5,10.2-1,15.3-0.9c4.7,0,9.4-0.6,14.1-1.2
		c3.4-0.4,6.8-1.3,10.2-1.9c2.3,0,4.5,0,6.8,0.1c-0.3,0.2-0.6,0.4-0.8,0.6c-4.8,1.5-9.6,2.9-14.7,3.2c-0.2,0-0.4,0.1-0.6,0.2
		c-1.8,1.8-4.3,1.8-6.4,1.7c-3.9-0.1-7.7,0.6-11.5,1c-2,0.2-4,0-6,0.4c-2.8-1.1-5.5-0.8-8.3-0.1C134.4,81.2,132.2,81.9,131.6,79.1z"
		/>
	<path class="st157" d="M146.9,71.1c-2.7,2.5-6,3.1-9.4,3.3c-3.6,0.2-7.3-0.1-10.9,0.6c-5,1-9.7-1.1-14.6-1.6
		c-0.7-0.1-0.9-0.9-1.1-1.5c-0.1-0.7,0.3-1.1,0.9-0.9c2.2,0.7,4.5,0.1,6.7,0.4c2.7-0.4,5.4-0.9,8.1-0.7c4.3-0.2,8.7,0.3,13-0.6
		c1.7-0.3,3.7-0.7,5.3,0.9C145.6,71.1,146.3,71.1,146.9,71.1z"/>
	<path class="st158" d="M155.6,69c-3.6,0.1-7.1,0.2-10.7,0.2c-1.6,1.2-3.2,1.2-4.9,0.2c-1.8-3.2-1.2-4.4,2.2-4.6c0.7,0,1.3,0,2,0
		c2.5,0.1,5-0.3,7.5-0.6C155.7,63.9,156.6,65.1,155.6,69z"/>
	<path class="st159" d="M178.7,38.3c-5.1,0.1-10.1,0.3-15.2,0.4c-0.1-0.1-0.2-0.2-0.4-0.3c-0.3-0.4-0.5-0.8-0.6-1.2
		c-0.3-0.9-1-1.7-1-2.7c0.9-4.2,2-5,6.3-4.6c1.7,0.8,3.3,2.1,3,3.9c-0.5,2.8,1,2.5,2.7,2.5c0.6,0,1.1-0.1,1.6-0.2
		c1-0.3,1.7,0.6,2.6,0.5C178.4,37,179,37.4,178.7,38.3z"/>
	<path class="st160" d="M155.6,69c-0.1-4-0.3-4.3-4.3-3.7c-2.4,0.4-4.7,0.5-7.1,0.4c-0.8-0.7-2.2,0.5-2.7-1c1.4-2,3.6-1.4,5.5-1.5
		c6-0.2,6.8,1.3,5.6-6.3c-0.2-1.5-0.5-3.1,0.4-4.5c0.9-0.7,1.8-0.6,2.7,0.1c0.7,2.3,0.9,4.6,0.8,7c-0.1,2.2,0.5,3.3,2.9,3.2
		c1.6-0.1,3.3-0.1,4.9,0.4c0.6,0.3,1.2,0.6,1.5,1.3c0.1,0.4-0.1,0.6-0.5,0.6c-1.4,0-2.9,0-4.3,0c-2.2,0.1-5.1-0.8-4.3,3.2
		C156.7,68.5,156,68.8,155.6,69z"/>
	<path class="st152" d="M140.3,69.1c1.6,0.1,3.1,0.1,4.7,0.2c0,0.6,0,1.2,0,1.9c-6.2,0.2-12.4,1.1-18.6,0.7
		c-0.7-0.9-0.3-1.6,0.3-2.3c0.3-0.2,0.6-0.4,0.9-0.5c1.7-0.7,3.4,0.2,5.1-0.3c2.1,0.1,4.1-0.6,6.2-0.3
		C139.4,68.5,139.8,68.8,140.3,69.1z"/>
	<path class="st161" d="M181.5,34c0.2-1.3,0.2-3.1,1.9-2.8c1.4,0.3,2,1.9,1.9,3.5c0,0.6-0.3,1.3-0.5,1.9c0.2,2.6,0.7,5.2-1.3,7.3
		C182.3,40.7,181.8,37.4,181.5,34z"/>
	<path class="st162" d="M177.8,36.6c-0.7,1.3-1.5,0.4-2.3,0.2c-0.7-0.4-1.4-0.8-1.7-1.6c-0.2-1.5,0.8-2,2-2.4c0.3,0,0.7,0,1,0.1
		c0.8,0.4,1,1.2,1.3,2C178.4,35.5,178,36,177.8,36.6z"/>
	<path class="st163" d="M178.1,34.8c-0.8-0.3-0.9-1.1-1.3-1.7c-0.4-0.3-0.7-0.7-0.9-1.2c-0.5-1.3-0.9-2.6-0.4-3.9
		c0.3-0.5,0.6-0.8,1.2-0.6C177.2,29.8,177.7,32.3,178.1,34.8z"/>
	<path class="st164" d="M176.8,27.3c-0.2,0.3-0.4,0.5-0.7,0.8c-0.4,0.1-0.7,0-1-0.3c-0.9-1.6-1.6-3.3-0.4-5.1c0.3,0,0.5-0.1,0.8-0.1
		C176.7,24,176.4,25.7,176.8,27.3z"/>
	<path class="st165" d="M165.3,65.1c0.2-0.2,0.3-0.3,0.4-0.5c2.2-1.6,4.3-1.5,6.5,0c0.1,0.2,0.1,0.4,0,0.6
		C169.8,65.1,167.5,65.1,165.3,65.1z"/>
	<path class="st166" d="M168.8,77.7c0.5-0.4,1-1,1.6-1.1c4.4-0.6,8.7-1.9,13.2-2.1c-1.1,0.5-2.1,1-3.4,1.6c1.8,0.8,3.7,0,5.4,0.5
		c0,0.4,0,0.8,0.1,1.2c-1.1-0.2-2.1-0.5-3.3-0.7c-0.5,1,0.8,1.1,0.8,1.9c-2,0.1-3.3-2.4-5.5-1.6c0.6,1.5,2.4,1.4,3.5,2.9
		c-2-0.3-3.2-1.2-4.7-1.8c-0.7-0.3-2.3-0.9-1.5,1.1C172.4,80.1,171.1,77.5,168.8,77.7z"/>
	<path class="st167" d="M189.5,106.4c0,0.7-1.8,0.2-1,1.4c0.6,0.8,0.6,1.2-0.5,0.8c-2.9-1.1-5.4,1.6-8.3,0.5c-0.4-0.2-1.1,0.3-1,1
		c0.1,0.3,0.6,0.8,0.9,0.7c2.9-0.6,5.7-0.1,8.1,1.6c-4.9,0.9-9.8,1.3-14.7,1.4c-1.9,0.1-3-0.3-2.6-2.6c0.4-2.3,0.2-2.3-1.7-2.9
		C175.6,107.2,182.5,106.7,189.5,106.4z"/>
	<path class="st168" d="M169.6,118.3c-3.8,0.8-7.5,2.2-11.4,0.8c1.3-2.1,3.9-1.7,5.7-2.9c1.2-1,2.6,0.5,3.8-0.4c0.4,0,0.8,0,1.2,0
		c0,0.7,0,1.5,0.7,2C169.6,117.9,169.6,118.1,169.6,118.3z"/>
	<path class="st169" d="M167.7,115.8c-0.9,1.8-2.4,0.1-3.5,0.6c-0.9,0.6-1.8,0.9-2.6-0.1c0.7-0.9,2.1-0.3,2.7-1.3
		c0.5,0,0.9,0.1,1.4,0.1C166.3,115.3,167,115.6,167.7,115.8z"/>
	<path class="st170" d="M67.1,33.9c0-0.7,0-1.3,0-2c1.7-0.1,2.1,1.3,2.1,2.4c0.1,4,1.1,8.2-1.7,11.8c-1.4,1.8-0.5,4.4-2.2,6
		c3.1,0.1,6.4-0.8,9.5,0.7c0.3,0.3,0.4,0.6,0.2,1c-7.3,0-14.6,0.6-21.9,0.1c-1.2-5.3,0-10.2,2.8-14.7c1.2-1.9,2.9-2.6,4.7-1.1
		c2,1.7,2.8,0.8,3.6-1C65,35.7,65.7,34.5,67.1,33.9z"/>
	<path class="st171" d="M67.1,33.9c-0.9,2-1.8,4-2.8,5.9c-1,2-2.2,1.4-3.3,0.1c-0.8-0.9-1.1-2.4-2.7-1.9c-1.4,0.5-1.8,1.8-1.9,3.2
		c0,0.4-0.2,1-0.4,1.2c-3.8,3.1-2.7,7.3-2.8,11.3c-1.4-3.7-0.5-7.6-1-11.4c-0.6-5-0.6-10.1-0.8-15.2c2.7,2.1,5.1,2.7,7-1.1
		c0.4-0.8,1.8-1.1,2.8-1.6c0,1.6,0.8,3.1,0.2,4.8c-0.6,1.8,0.9,2.8,2.4,3.4C64.8,33.3,66,33.6,67.1,33.9z"/>
	<path class="st172" d="M75.1,53.7c0-0.2,0-0.3,0.1-0.5c0.9-1.3,2.3-1.4,3.5-1.2c2.8,0.3,4.5-0.9,5.5-3.4c1.9-0.1,1,1.4,1.2,2.1
		c0.5-2-2.2-5.4,2.2-6.1c0.2,3.1,0.5,6.2,0.7,9.3c-0.8-0.6-0.4-1.6-1.1-2.5c1,2.8-2,4.1-2.2,6.5c-0.2-0.2-0.4-0.5-0.7-0.7
		c0.6-2.6-0.3-3.7-3-3.5C79.3,53.9,77.2,53.7,75.1,53.7z"/>
	<path class="st173" d="M83.8,57.2c-4.8,0-9.7,0-14.5,0c-0.2-1.1,0.4-1.3,0.9-1.3c4,0,8,0,11.9,0C83,55.9,83.6,56.3,83.8,57.2
		C83.8,57.2,83.8,57.2,83.8,57.2z"/>
	<path class="st174" d="M47.2,21.2c-1.3,0-2.6,0.1-3.9,0.1c-2.5,0-5.1,0-7.6-0.1c-1,0-2.5,0.6-2.8-0.9c-0.3-1.5,1.2-1.6,2.2-2
		c0.3-0.1,0.6-0.3,0.9-0.4c2.2-1,4.4-1.3,7-1.2C46.1,16.9,47.2,18.3,47.2,21.2z"/>
	<path class="st175" d="M95.9,111.6c-0.9-0.4-1.9-0.8-2.8-1.3c-1.3-2-4.2-3.1-3.5-6.2c0.6-0.7,1.2-1.5,2.2-1.7
		c0.8,0.7,1,1.7,1.4,2.5c1.6,3.1,4.3,4.5,7.6,4c3.6-0.6,7.2-0.4,10.8-0.6c8.6,0.8,17.3,0.2,25.9-0.1c3.6-0.1,7.2-0.8,10.8-0.5
		c-0.1,1.4-1.1,1.7-2.2,2c-5.9,0.6-11.8,0.9-17.7,0.3c-1.2-0.1-2.4-0.3-3.6,0.2c-7.6,0-15.1,0.1-22.6,1.3
		C100.1,113.4,98,113.1,95.9,111.6z"/>
	<path class="st176" d="M124.9,110.3c7.1-0.4,14.2-1.7,21.4-1.3c1,0.7,3.4,0,2.7,2.5c-0.4,0.9,0.1,1.4,0.7,1.9
		c0.6,0.6,1.4,1.2,0.6,2.2c-1.7,0.5-3.5,0.8-5.3,0.6c-0.1-0.5,0.2-0.8,0.7-0.8c-0.3-0.1-0.5,0.1-0.8,0.1c-3.5,0.4-7,1.6-10.5,0.2
		c-2-1.3-2.5-2.5-1.5-4.2c0.9-1.4-0.5-1.1-1-1.1C129.5,110.3,127.2,110.3,124.9,110.3z"/>
	<path class="st177" d="M95.9,111.6c2.1,0,4.3,0,6.4,0c6,1.3,12-1,19,0.6c-5.6,2.2-10.9,1.2-15.7,2.5c0.1,1.5,2,0.5,2.2,2.1
		c-5.8,0.3-11.5,1.2-17.3,0.9c-0.1-1.7,1.3-1.5,2.2-1.7c1.3-0.3,2.5-0.6,3.4-1.6c-0.8-0.5-2.7-0.1-1.6-2
		C94.9,112.1,95.4,111.9,95.9,111.6z"/>
	<path class="st178" d="M89.1,117.6c-0.4,0-0.9,0.1-1.3,0.1c-2.7-0.3-5,2.3-7.8,1.4c-0.8-0.2-1-1-1.7-1.3c-3.4-1.4-3.5-1.8-0.5-4.1
		l0,0c2.6-2.7,5.6-3.9,9.2-1.8c0.7-0.2,1.5-0.2,2.2-0.1c2.6,0.5,3,1.4,1.5,3.5C90.1,116,89.8,117,89.1,117.6z"/>
	<path class="st104" d="M89.1,117.6c-0.5-1.9-0.5-3.6,3.2-3.8c-2.4-1-3.7-1.6-5.1-0.8c-0.7-0.9-0.7-1.8,0-2.6c0,0,0,0,0,0
		c2.9-0.9,4.6,2.5,7.3,2c0.2,1.1,0.8,1.6,1.8,0.8c0.7-0.6,1.4-1,2.3-0.4c-1.4,3.9-4.9,4.2-8.1,4.9C90,117.7,89.5,117.6,89.1,117.6z"
		/>
	<path class="st179" d="M134.3,115.7c4.4-0.2,8.7-0.4,13.8-0.6c-1.5,0.5-2.3,0.9-3.2,1.2c-9.1,0.7-18.2,1.4-27.2,2
		c1.8-2,4.9-0.9,6.6-2.9C127.6,117.6,131,116,134.3,115.7z"/>
	<path class="st180" d="M79.1,118.3c2.9,0.4,5.7-1.1,8.7-0.6c-0.8,1.2-3-0.1-3.3,1.9c-5,0.9-9.9,1.5-15,1.3c0.9-1.9,2.5-2,4.3-2
		c1.4,0,2.9,0.4,4.1-0.6C78.2,118,78.7,117.9,79.1,118.3z"/>
	<path class="st181" d="M150.3,115.7c-0.1-1.3-1.6-1.1-2.1-1.9c-0.5-0.8-2.2-1.8,0-2.7c3.4-1.3,6.7-0.8,10.1,0
		c-2.2,0.6-3.2,2.8-5.4,3.7c1.4,0.1,2.5,0.2,3.6,0.3C154.5,115.8,152.4,115.7,150.3,115.7z"/>
	<path class="st182" d="M161.6,116.3c0.9,0,1.8,0,2.6,0.1c-1.5,2.1-4.2,1.4-6,2.7c-0.6-0.9-3.3,0.8-2.5-1.9
		C157.6,116.6,159.7,117.5,161.6,116.3z"/>
	<path class="st183" d="M111,15.9c2.9-2.2-0.5-1.6-1.4-2.8c3.2,0,6.1,0,8.9,0c3.3,0.1,6.5,0.1,9.8,0.2c0.9,1.4,2.5,0.7,3.7,1.1
		c-0.3,2-2.4,1.1-3.1,2.3c-0.4,0.5-1,0.8-1.7,0.9c-4.5,0.1-8.9,0.1-13.4,0c-1.3,0-2.7,0.2-3.6-1.1c0-0.2,0-0.4,0-0.6
		C110.6,15.7,110.8,15.7,111,15.9z"/>
	<path class="st184" d="M127.7,17c0.4-0.1,0.8-0.2,1.3-0.3c2.5,0.1,4.9,0.2,7.4,0.3c0.7,0.4,1,1.5,2,1.4c0.6,0.1,1.3,0.2,1.9,0.3
		c-0.5,0.9-2.6,0.5-2.1,2c0.4,1.2,2,0.6,3,0.6c5.2,0.1,10.3,0,15.5,0c0,0.3,0,0.5,0,0.8c-3.1,0-6.1,0-9.2,0c-1,1-2.2,0.8-3.4,0.8
		c-15.2,0-30.5,0.1-45.7-0.1c-2.5-0.8-5-0.6-7.6-0.6c-1.4,0-2.9,0.3-4.1-0.9c-0.5-0.6-0.5-1.5-0.8-2.1c0-0.4,0-0.8,0.1-1.3
		c0.9-1,2-0.7,3.1-0.7c11.8,0,23.6,0,35.4,0C125.5,17.3,126.6,17.2,127.7,17z"/>
	<path class="st185" d="M95.8,71.2c-0.1,1,0.1,2-1.6,1.7c-1.4-0.3-2.9,0-4.4,0.1c0-0.6,0-1.2,0-1.9C91.8,71.2,93.8,71.2,95.8,71.2z"
		/>
	<path class="st186" d="M109.1,82.9c0.4-0.2,0.8-0.4,1.1-0.6c1.1-0.4,2.1-1.6,3.5-0.5c0.3,0.2,0.5,0.3,0.8,0.5
		c1.3-2.7,2.2-2.9,4.5-0.8c0.6,0.5,1.1,1.1,1.9,0.9c3.1,0.5,3.2,4.2,5.8,5.4c0.9,0.4-0.2,1.3-0.9,1.5c-1,0.3-2.1,0.3-3.2,0.6
		c-0.5,0-0.9,0-1.3-0.2c-1-0.7-2.1,0.6-3.1-0.1c-1-0.5-2-1.5-2.8,0.2c-1.6,2.2-3.9,3.2-6.4,3.9c-4.3,1.2-8.2,3-11.4,6.2
		c-2.3-1.9-2.9-4.8-3.9-7.4c-1-3.6-0.3-4.8,3.2-5.7c1.2-0.3,2.4-0.3,3.6-0.7c1.3-0.3,2.3,0.5,3.2,1.3c1.3,1.1,2.6,1.5,4.2,1
		c0.6-1.1-0.7-1.3-1-1.9C106.3,84.5,107.5,83.5,109.1,82.9z"/>
	<path class="st187" d="M97.7,99.9c0.9-3.8,4.1-5.1,7.3-6.1c3.6-1.1,7.2-2,10-4.7c1-1,2.1-0.8,3.2-0.1c0.9,0.8,1.9-1.5,2.8,0.1
		c1,2.2-0.9,2.9-2,3.8c-2.4,1.9-4.9,3.6-5.6,6.8c-2,1-4.1,0.6-6.2,0.7c-2.3,0-4.6-0.1-6.8,0.6C99.3,101.1,98.4,100.5,97.7,99.9z"/>
	<path class="st188" d="M77,98.3c1.8-0.4,3.6-0.8,5.5-1.1c0.9-0.2,1.6-0.5,0.6-1.4c-2.5-0.4-4.7-1.3-5.6-4c0.5-1.7,2-1,2.9-1.4
		c-1.8,0-3.7,0.6-5.7,0.3c-1.3-0.4-2.3-1-2.5-2.5c0.6-1.4,1.8-1.3,3-1.3c1.6-0.1,3.2,0.2,4.8-0.4c0.7-0.2,1.4-0.2,2.1-0.3
		c0.8,0,1.7,0,2.5,0.2c0.3,0.1,0.6,0.3,0.8,0.5c0.6,0.9,1.6,1.4,2.2,2.3c-0.4,0.4-0.8,0.8-1.3,1.2c-0.5,2.3,0.7,4.4,0.3,6.7
		c-0.7,1.8-2.5,1.8-4,2.2c-1.7-0.2-3.2,1-4.9,0.3C77.4,99.3,77.1,98.9,77,98.3z"/>
	<path class="st189" d="M84.9,87c-0.9,0-1.7,0-2.6,0c-3-0.2-6.1,0.2-9.1,0.1c-1.1,0-2.2,0-3.1-0.6c-0.8-0.5-1.6-0.9-2.4-1.4
		c0.4-1.2-0.9-0.9-1.3-1.4c4.5-0.3,9-0.8,13.5-0.7c2.4,0,4.7-0.7,7.1-0.6c0.3-0.3,0.4-0.3,0.5,0.1c0.1,0.4,0.1,0.8,0.2,1.2
		c-0.3,0.8-0.9,1.3-1.7,1.3C84.5,85,85.2,86.3,84.9,87z"/>
	<path class="st190" d="M107.2,99.8c2.2-0.2,4.4,0.2,6.5-0.7c1.4-1.6,3.3-1.3,5.1-1.1c2.7-0.2,5.3-1.2,8-0.7
		c3.3,0.1,6.5-0.9,9.8-0.8c0.4-0.1,0.7-0.1,1.1-0.1c2.2,0.5,4.6-1.2,6.6,0.8c2.8,1.4,5.9,0,8.8,0.7c-8.9,1.2-17.8,1.1-26.7,1.9
		c-4.6,0.4-9.3,0.5-13.9,0.8C110.7,100.4,108.7,101.8,107.2,99.8z"/>
	<path class="st191" d="M101.1,86.5c-0.4,1.7-1.9,1.3-3,1.3c-3.2,0-4.7,1.4-4.3,4.7c-1.4-1.5-2-3.5-2.7-5.3c0.4-3.9,1.9-4.9,7.2-5.2
		c2,0.4,2.8,1.9,3.3,3.7C101.5,85.9,101.3,86.2,101.1,86.5z"/>
	<path class="st192" d="M86.5,97c-0.8-2.2-2.3-4.4,0-6.6c3,1.4,2.7,4.6,3.4,7c0.5,1.8,1.3,3.3,2,5c0,0.9-0.5,1.6-1.3,2
		C86.4,103.1,85.3,101,86.5,97z"/>
	<path class="st193" d="M87.6,82.6c-0.2,0-0.3,0-0.5-0.1c0-1.1,0-2.2,0-3.3c1.1,1,2.2,0.9,3.5,0.3c2.7-1.2,5.6-1.4,8.4-0.3
		c1.5,1.1,0.6,1.7-0.5,2.2c-3.4-0.2-6.1,1.6-8.9,3.2C88.7,84.2,89.3,82.2,87.6,82.6z"/>
	<path class="st194" d="M89.7,84.5c1.7-4,5.1-4.3,8.7-4.1c0.5,0.6,0.6,1.2,0,1.9c-0.6,0.8-1.5,0.8-2.4,0.8c-2.7,0-3.9,2-5,4
		C90.2,86.4,89.9,85.5,89.7,84.5z"/>
	<path class="st188" d="M84.9,87c-0.4-1.2-1.7-1.1-3.1-1.6c2-1.4,4.2-0.8,5.9-1.6c0.4,0.9,2.1,1.8,0.1,2.7c-0.7,0.8-1.4,1.6-2.6,0.7
		C85.1,87.2,85,87.1,84.9,87z"/>
	<path class="st195" d="M107.2,99.8c1.7,1.1,3.6,0.1,5.3,0.7c-4,0.9-8.1,1-12.1,0.5C102.4,99.5,104.8,99.7,107.2,99.8z"/>
	<path class="st196" d="M85.3,87.2c0.9-0.2,1.7-0.5,2.6-0.7c0,0.9-0.1,1.8-0.1,2.7C86.5,89,84.9,89.4,85.3,87.2z"/>
	<path class="st197" d="M158.3,111.1c-3.4-0.5-6.7,1.1-10.1,0c0.6-0.7,0.1-1-0.5-1c-0.9,0.1-1.4-0.1-1.5-1.1
		c0.7-0.4,1.4-0.8,2.1-1.2c5.5,0.1,11-1.1,16.5-0.7c-3,1.4-6.4,1.3-9.8,2.4c1.7,2,3.6-0.3,5.2,0.5
		C160.1,111.3,159,110.9,158.3,111.1z"/>
	<path class="st198" d="M224,98.4c1.3,0.7,2.7,1.3,4,2c-1.1,3.3-3.9,1.7-6,2C222.7,101.1,223.4,99.8,224,98.4z"/>
	<path class="st198" d="M221.4,102.4c-2.6,0.6-5.3,0.8-8,0.7C216,102.3,218.6,101.4,221.4,102.4z"/>
	<path class="st199" d="M165.9,109.9c-1.4,1.2-2.4,1.2-3.9,1C163.2,109.6,164.3,109.5,165.9,109.9z"/>
	<path class="st200" d="M86.5,97c0.1,3.1,1.6,5.5,4,7.4c-1,1-0.2,1.5,0.5,1.9c1.5,0.9,2,2.3,2.1,4c-2.8-0.1-4.2-2-5.2-4.3
		c-1.1-2.6-2.4-4.3-6-4.3c-6.6,0.1-13.2,0.9-19.8,1.1c-1.7,0.1-3.3,0.1-5,0.1c0.5-0.6,1.3-0.6,2-0.7c1.5-0.2,0.1-0.8,0.1-1.2
		c5.9-0.9,11.8-1.9,17.7-2.8c0.3,0.2,0.5,0.5,0.8,0.7c-1.5,1-3.1,1.4-4.5,1.7c2.8-1.5,6.6-0.4,9.7-2.4C84.1,97.7,85.6,98.2,86.5,97z
		"/>
	<path class="st201" d="M79.1,118.3c-0.4,0-0.9,0.1-1.3,0.1c-7.8-0.3-15.6,0.7-23.4,0c-2.4-0.9-4.9,0.3-7.3-0.1
		c-1.3,1-2.8,1.2-4.4,1c-1.6-0.1-3.1,0.2-4.4,1c-0.9,0.3-1.6-0.2-2.4-0.6c-0.9-0.1-1.8-0.1-2.7-0.2c-1.9-1.1-4-0.3-6-0.6
		c-1.3-0.7-2.6,0.2-3.9,0c-0.8-0.2-1.9-0.1-2.2-1.1c-0.2-0.8,0.8-1.2,1.4-1.6c3.9,0.2,7.9,0,11.4-1.2c3.8-1.3,7.5-0.7,11.2-1.4
		c2.7,0.5,5.7,1.9,7.9,1.2c4-1.3,8.2,0.1,12-1.8c1.2-0.6,2.2-0.4,3.4,0.2c3,1.5,6.1,0.5,9.2,0.4c0.1,0.2,0.2,0.4,0.3,0.6
		c0.8,1.8-2.5,0.2-1.7,2.1c0.6,1.3,2.4-0.1,2.9,1.3C79.3,117.9,79.2,118.1,79.1,118.3z"/>
	<path class="st101" d="M87.1,110.4c0,0.9,0,1.8,0,2.6c-2.1,1.1-2.4-2.9-4.6-1.6c-1.5,0.9-2.7,2.4-4.7,2.2c0.2-0.7,0.9-1.3,0-2
		c0.9-2,2.8-1.9,4.4-1.7C83.9,110.3,85.5,110.3,87.1,110.4z"/>
	<path class="st101" d="M70.5,111c2-2.4,4-0.3,6,0C74.5,110.9,72.5,112.1,70.5,111z"/>
	<path class="st202" d="M16.7,94.5c4.8-0.6,9.6-1.2,14.4-1.7c1.2-0.1,2.4-0.8,3.4,0.3c0.2,0.9,0.8,1.7,1.7,1.8
		c5.9,0.4,11.7,1.3,17.6,1.2c0.2,0,0.4-0.2,0.6-0.3c0.2-0.1,0.4-0.1,0.5-0.1c3.8-0.8,7.6-0.2,11.3,0c1.5,0.1,3,0.3,4.5,0.1
		C72,96,73.3,96,74,97.2c-7.6,1.3-15.2,2.6-22.9,3.8c-9.1,1.4-18.1,2.8-27.2,4.2c-1.1,0.2-1.9-0.2-2.5-1.1c-1.7-2.6-3.4-5.2-5.3-7.6
		C15.3,95.3,15.9,94.9,16.7,94.5z"/>
	<path class="st203" d="M74,97.2c-1-0.2-2,0.1-2.9-0.7c-0.7-1-1.9,0.8-2.6-0.4c-0.4-0.5-0.7-1-1.2-1.4c-3-0.9-6.2-0.7-9.3-1
		c-1.2-0.1-2.4,0.1-3.5-0.6c-0.1-1.6-1.3-1.1-2.2-1.2c-2.2-0.2-4.3-0.3-6.5-1.1c5.7-0.8,11.4-1.5,17-2.3c2.1-0.3,4.2-0.5,6.3-0.7
		c0.8-0.1,1.3-0.2,0.9-1.1c4.1,0.1,8.2-0.7,12.3,0.4c-0.6,0-1.2,0.1-1.8,0.1c-2.2,0.6-4.4,0.1-6.6,0.3c-0.7,0.1-1.7-0.3-1.6,1
		c0.9,0.5,1.7,1,2.6,1.5c1,0.5,2.4,0.5,2.8,1.9c1.8,1.3,3.5,2.6,5.3,3.9C80.1,96.6,77.1,97,74,97.2z"/>
	<path class="st204" d="M61.2,77.8c1.8,0,3.5-0.1,5.3-0.1c1,0.1,2.1,0.1,3.2,0.2C66.8,78.1,63.9,79.1,61.2,77.8z"/>
	<path class="st205" d="M202.8,41.2c-1.4-1.1-3-0.6-4.4-0.6c-2.7,0.1-3.5-0.9-2.2-3.3c0.2-0.2,0.5-0.3,0.8-0.2c1.5,1.1,3.1,2,5,1
		c0.4-0.8,0.5-1.7,0.7-2.5c0.1-0.3,0.3-0.6,0.5-0.9c2.5-2.4,5-1.5,7.6,0c0.7,0.4,1.4,0.9,2.3,1.5c-0.9,0.4-1.6,0.8-2.4,1.2
		c0.1,1.8,1.5,1,2.2,1c2.4-0.1,4.8,0.1,7.3,0.2c1.2,0,2.4,0.3,3.3,1.3c1.1,2,2.9,1.3,4.6,1.2c1.7-0.1,3.7-0.8,4.6,1.6
		c-3.1,0-6.2,0.1-9.3,0.1C216.5,42.1,209.6,41.7,202.8,41.2z"/>
	<path class="st206" d="M232.7,42.5c-2.5-1.3-5.1-0.4-7.7-0.6c-1.2-0.1-2.5,0-3.8,0c0.1-1.8,1.8-1.1,2.1-2.1c-0.7-0.9-0.8-1.7,0-2.5
		c0.1-0.9-0.2-2,0.6-2.7c2,1,0.1,3.6,2,4.6c0.5,0.4,7.5,1.1,7.9,0.8c2.1-1.7,3.3-1.2,4.8,2C236.8,43.2,234.7,42.3,232.7,42.5z"/>
	<path class="st207" d="M84.5,48.5c-0.1,4.6-0.1,4.6-4.8,4.6c-1.5,0-3,0.1-4.5,0.1c-2.6,0-5.3-0.1-7.9,0c-1.5,0-2.4-0.2-2.2-2.2
		c0.2-2.3,0.6-4.3,1.9-6.4c2.4-4,1.8-8.4,0.2-12.7c0-2.4,0-4.9,0-7.3c3.1-3.9,4.2-4.1,9.1-2.4c3.1,1.1,4.7,0,4.8-3.2
		c0.1-1.7,0-3.3,0-5c0-1.2,0.2-2.3,1.4-2.8c1.1-0.4,1.4,0.7,2,1.4C81,16,82.5,20.1,83,24c2.5,2.8,1,6.3,1.8,9.4
		c0.2,0.7-0.1,1.5,0.1,2.3c0.2,2.9,0.5,5.9,0.5,8.8C85.4,45.9,85.3,47.3,84.5,48.5z"/>
	<path class="st208" d="M44.2,87.8c-2.3,0.9-4.7,1-7.2,1.1c0.5-0.3,1.1-0.7,1.6-1C40.5,87.8,42.4,87.8,44.2,87.8z"/>
	<path class="st209" d="M36,119.8c0.8,0,1.7,0,2.5,0c3.1-0.5,6.2-1.5,9.4-0.1c0.7,0.3,1.4,0.6,2,0.9c-3.3,3.1-7.7,1.7-11.3,3.2
		c-2,0.2-4,0.3-6,0.5c-0.5-0.6-0.1-1.4-0.7-2c0.7-1.2,1.8-1.3,3-1.2C35.8,121.1,36.4,120.9,36,119.8z"/>
	<path class="st210" d="M47.8,119.6c-3.1-0.6-6.2,1.1-9.4,0.1c0.5-0.5,0.5-1.4,1.6-1.4c2.4,0.1,4.7,0,7.1-0.1
		C47.4,118.7,47.6,119.2,47.8,119.6z"/>
	<path class="st211" d="M31.9,122.2c1.4,0.2,0.8,1.2,0.7,2c0,0-0.3,0-0.3,0s-0.3,0-0.3,0c-1.4-1.1-3.2,0-4.8-0.8
		C28.8,122.8,30.2,122.2,31.9,122.2z"/>
	<path class="st212" d="M196.2,22.6c-0.5-0.2-1-0.5-1.5-0.6c-5.2-0.6-5.2-0.5-5.2-6c-1.1-4.3,0-6,3.3-5.4c3.8,1,7.5-0.6,11.3-0.6
		c0.3,0.2,0.4,0.5,0.6,0.9c0.4,4.6,0,8.9-3.6,12.3C199.2,24.6,197.6,24.1,196.2,22.6z"/>
	<path class="st213" d="M192.8,10.6c-1.9,0-2.8,1-2.7,2.9c0,0.9,0.1,1.8-0.6,2.5c-2.5,1-3-0.6-3.3-2.5c-0.4-3.2,1.4-5.9,1.9-8.9
		c2.3-1.1,4.9-0.4,7.3-0.7c4,0,8.1,0,12.1,0c0.1,0.3,0.1,0.7,0.2,1C202.8,6.9,198,9.3,192.8,10.6z"/>
	<path class="st214" d="M204.1,10.6c0-0.2,0-0.4,0-0.7c2.4-1.6,5.5-1.3,8-2.6c0.4,0,0.9,0,1.3,0c0.4,2.5-2,2.4-3.2,3.5
		c-0.4,0.3-0.8,0.6-1.2,0.8C207.1,13,205.4,12.6,204.1,10.6z"/>
	<path class="st215" d="M83.9,35.9C83.6,31.9,83.3,28,83,24c0-2,0-4,0-6.3c2,0.8,1.7,2.5,2.5,3.6c0.1-0.8,0.2-1.4,0.3-2
		c0.2,0.4,0.4,0.9,0.6,1.3c0.7,1.3,2,1,3.2,1c2.7,0.1,5.4-0.2,8.1,0.2c16.6,0.1,33.2,0.2,49.8,0.3c0.1,0.1,0.2,0.3,0.2,0.4
		c-1.3,1.7-3.1,1.4-4.9,1.4c-11.6,0.1-23.2-0.6-34.8-0.3c-5,0.1-9.9,0.3-14.9,0.3c-5.3,0-5.3,0-5.4,5.4c-0.2,1.3-0.2,2.6-0.6,3.8
		C86.8,34.8,85.9,36.1,83.9,35.9z"/>
	<path class="st216" d="M127.7,17c-0.9,1.5-2.5,1.2-3.9,1.1c-12.2-0.1-24.4-0.3-36.6-0.4c-0.4,0-0.9,0.1-1.3,0.2
		c-0.1-2.2,1.6-1.4,2.6-1.4c7.3-0.1,14.6,0,21.9,0C116.1,17,121.9,16.2,127.7,17z"/>
	<path class="st217" d="M111,15.9c-0.2,0-0.4,0-0.7,0c-7.8,0-15.7,0-23.5,0c0-0.2,0-0.4,0-0.7c5.1,0,10.3-0.1,15.4,0
		C105.1,15.4,108.2,14.6,111,15.9z"/>
	<path class="st218" d="M54.6,93.1c4.5-1.7,8.9,0.2,13.4,0.4c0.1,0,0.3,0.6,0.4,0.8c-1.6,1.6-3.6,1.2-5.6,1.4
		c-2.6,0-5.2,0.1-7.8-0.6C54.2,94.6,54.5,93.8,54.6,93.1z"/>
	<path class="st219" d="M54.5,95.8c-0.6,1.1-1.6,1.4-2.8,1.3c-5-0.5-10-0.9-15-1.4c-1.2-0.1-3.2-0.2-2.1-2.5
		c3.3,2.3,7.2,1.2,10.8,1.9C48.4,95.4,51.5,95.5,54.5,95.8z"/>
	<path class="st219" d="M55.1,95.2c2.7,0,5.4,0,8.1-0.1c1.9,0.9,4.1-1,5.9,0.6c1.2,0.9,1.2-2,2.4-0.9c0.6,0.6,0.1,1.2-0.3,1.6
		c-5.4,0.6-10.7,0.1-16.1-0.8C55.1,95.5,55.1,95.3,55.1,95.2z"/>
	<path class="st220" d="M209.5,10c1.3-0.9,3.3-0.8,4-2.6c1.1,0,2.2,0,3.1,0.7c0.9,0.7,2.1,0.9,2.8,0.2c2-2.1,4.2-1.6,6.4-0.9
		c3,1,6,0.1,9,0.6c-2.7,1.9-5.2,4.1-8.6,4.5c-0.7,1.6-2.4,0.8-3.5,1.5c-0.6,0.3-1.2,0.5-1.9,0.5c-3.3-0.8-6.6-0.8-10-0.4
		C209.5,13,210.7,11.1,209.5,10z"/>
	<path class="st221" d="M196.2,22.6c1.6-0.6,3.1,1.4,4.6,0.1c0.2-0.2,0.4-0.6,0.8-0.6c5.9,0.4,12-1.9,17.8,0.6c6.4,0,12.9,0,19.3,0
		c-1,0.9-2.3,0.6-3.5,0.6c-6.8,0-13.7,0-20.5,0.1c-1.1,0-2.8-0.7-3,1.1c-0.1,1.7,1.5,1.5,2.7,1.6c0.3,0,0.7,0,1,0
		c1.6,0.5,3.7,1.1,3.6,2.8c0,1.9-2.3,1.6-3.7,1.8c-4.8,0.5-5.4,1-4.6,4c-2.4,0.6-5.1-1.6-7.3,0.7c-1.4,1.1-1.7-0.8-2.6-1
		c-1.3,1.1-1.6,3.5-4.1,3c-0.2,0-0.4,0-0.7,0c-0.3-1.7-1.9-2.1-3.2-2.4c-1.1-0.2-2.5,0.4-2.7-1.4c-0.2-1.6-0.4-3.2,1.3-4.4
		c1.3-0.8,2.2-2.1,3.4-3.1c1.5-1.3,1.2-2.4-0.2-3.5C195.2,22.6,195.7,22.6,196.2,22.6z"/>
	<path class="st222" d="M223.4,37.3c0,0.8,0,1.7,0,2.5c-4.2-0.5-8.4-0.6-12.6-0.6c-0.9,0-2.3,0.4-2.3-1c0-1.4,1.5-0.9,2.3-1
		c2.8,0.1,5.3-0.3,7.2-2.8c2.8-3.6,3.1,1.1,4.7,1.5C222.9,36.4,223.1,36.8,223.4,37.3z"/>
	<path class="st223" d="M226,39.2c-1,0.6-1.8,0.7-1.9-0.8c-0.1-1.3-0.1-2.5-0.1-3.8c0.6-0.7,1.2-1.5,2.2-0.7
		c0.8,0.6,0.4,1.3,0.2,2.1C226.1,37,226.1,38.1,226,39.2z"/>
	<path class="st224" d="M222,13.3c1.2-1.1,2.7-0.4,4-0.8c1.8,0.4,3.7-0.3,5.4,0.8c0,1.1,0,2.2-0.1,3.3c-0.2,3.7-1.2,4.7-5,4.8
		c-1.2,0-2.4-0.1-3.5,0.5c-1.2-1.9-0.1-2.8,1.5-3.3c0.9-0.3,1.9-0.2,2.8-0.7c0.4-0.3,0.9-0.7,0.8-1.3c-1.1-1.4-2.6-0.6-3.9-0.9
		C222.8,15.3,221.3,15.3,222,13.3z"/>
	<path class="st225" d="M219.4,22.6c-6.2-0.5-12.4,1.4-18.6,0c-0.6-0.6-0.9-1.5,0.1-1.9c2.8-0.9,2.6-3.1,2.6-5.4
		c0-1.6-0.3-3.3,0.7-4.8c1.6-0.1,3.1,2.1,4.7,0.1c1.2,1.4,0.4,2.9,0.4,4.4c0,1.3-0.9,2.9,1,3.7c1.9,1.1,3.4-0.2,5-0.9
		c1.3-0.3,2.6-0.4,3.8,0.2c1.8,2.3-1.6,1.4-1.6,2.6C218.1,21.3,218.7,22,219.4,22.6z"/>
	<path class="st226" d="M217.4,20.6c-0.5-0.2-1.3-0.4-1.3-0.7c-0.1-0.8,0.7-0.6,1.2-0.6c0.8-0.1,1.6,0,2.1-0.7
		c-0.2-0.8-0.2-1.5,0-2.3c0.4-0.8,0.4-1.8,1.4-2.3c0.4-0.3,0.8-0.5,1.2-0.8c1.3,2.6,3.7,0.9,5.6,1.3c1.2,0.3,3.1-0.3,1.8,2
		c-1.5,0.2-3-0.5-4.7,0.3c1.4,0.9,3.2,0.4,4.1,1.8c-1,0.9-2.3,0.6-3.4,0.6c-1.7,0.1-2.7,0.7-2.5,2.5
		C221.4,19.7,219.3,20.8,217.4,20.6z"/>
	<path class="st227" d="M122.3,89.1c1.1-1.1,2.5-0.3,4.1-0.9c-3.7-0.4-3.4-4.2-5.5-5.8c-0.1-0.9,0.5-2.4,0.8-2.1
		c2.5,3,6.3-2.4,8.8,1.3c-0.4-0.6-0.7-1.2-1.3-2.2c0.9-0.1,1.7-0.2,2.4-0.3c2,2.5,4.7,0.9,6.6,0.4c2.4-0.7,4.1-0.1,6.1,0.6
		c1.2,1.7,0.1,3.9,1.3,5.6c-0.2,0.1-0.2,0.8-0.6,0.4c4-1.3,5.7-1.1,7.2,1c-7.1,0.7-14.2,1.4-21.3,2c-1.8,0-3.3,1-5.1,1.1
		C124.6,90.3,123.3,90.3,122.3,89.1z"/>
	<path class="st228" d="M150.2,79.6c3.6-1.1,7.4-0.9,11-1.4c2.4-0.3,4.8,0.7,7-0.5c0.3,0.6,1.8,1.4-0.1,1.7
		c-0.8,0.1-2.3-0.4-1.6,0.9c0.6,1.2,0.1,3.6,2.7,3.5c2-0.1,4.1,0,6.2,0c-0.3,0.7-2,0.4-1.3,1.7c-6.6,0.5-13.2,1.4-19.9,1.4
		c-0.9-0.9-1.7-1.9-2.9-2.6C149.6,83.5,149.2,81.6,150.2,79.6z"/>
	<path class="st229" d="M144.3,97.1c-2.2-0.7-4.5,1.7-6.7,0c-1-1.1-2.7-1.6-2.3-3.6c2.1-1.6,4.7-2.4,6.9-3.8
		c4.2-1.4,8.4-0.3,12.6-0.6c0.2,1.7-1.3,1.8-2.3,2.4c-1.7,1-3.5,1.6-5.5,3c3,0.4,5.7-0.3,7.7,1.9C151.3,96.6,147.8,96.9,144.3,97.1z
		"/>
	<path class="st230" d="M122.3,89.1c2.9,0.8,5.8-1.5,8.7,0.1c-0.2,0.4-0.4,0.9-0.6,1.3c-3.8,2.8-8,5.1-11.4,8.5
		c-1.8,0-3.5,0.1-5.3,0.1c-1.1-0.9-1.4-1.8-0.1-2.9c1.9-1.6,3.8-3.3,5.7-4.8c0.8-0.6,1.6-1.1,1.7-2.2
		C121.4,89.1,121.9,89.1,122.3,89.1z"/>
	<path class="st231" d="M154.9,96.4c-3.2-1.5-6.7,0.1-10.3-1c2.9-3.4,7.1-4.1,10.4-6.2c2.4-1.1,4.9-0.7,8.4-0.4
		c-3.7,2.3-6.6,4.2-9.9,6.4c1.9,0,3.4,0,4.9,0c0.3,0.5,1,0.1,1.3,0.7C158.1,96.9,156.5,96.3,154.9,96.4z"/>
	<path class="st232" d="M119,99c2.2-4.9,6.5-7.1,11.4-8.5c0.6,0,1.3-0.1,1.9-0.1c0.8,0.4,1.3,1,1.2,2c-1.1,3.2-4.1,4.3-6.6,6
		C124.3,98.5,121.6,98.8,119,99z"/>
	<path class="st233" d="M150.2,79.6c0.7,2.7,0.6,6,5.1,4.8c-0.3,1.3-2.3,1.3-1.1,2.7c-0.7,0-1.3,0-2,0c-2.1-1.4-4.5-0.2-6.7-0.7
		c-1.3-0.3-3.2-0.8-1.8-3.1c0.5-0.9,0.4-2.1,0.6-3.2C146.2,78.5,148.2,79.9,150.2,79.6z"/>
	<path class="st234" d="M133,92.5c-0.2-0.7-0.5-1.4-0.7-2.2c3.3-1.1,6.7-0.3,10-0.6c0.2,0,0.4,0,0.7,0.1c0.2,0.1,0.7,0.3,0.5,0.4
		c-2.2,0.7-4.1,1.9-5.7,3.6c-0.6,0.7-1.3-0.9-2-0.1c-0.9,0.6-1.5-0.1-2.2-0.5C133.2,93,133.1,92.7,133,92.5z"/>
	<path class="st235" d="M159.6,95.8c-0.4-0.2-0.9-0.4-1.3-0.7c4.7-0.1,9.3-0.2,13.9-1.4c0.7,0.2,1.2,1,2,0.8
		C169.4,95.6,164.5,95.7,159.6,95.8z"/>
	<path class="st236" d="M170.3,80.6c2.3,0.1,3.4,1.7,5.1,1.5C173.6,82.7,172.1,82.5,170.3,80.6z"/>
	<path class="st237" d="M153,52.5c0.6,3.5,1.2,6.9,1.8,10.4c0.3,1.9-1.1,1.5-2.1,1.5c-3.7,0.3-7.5-0.3-11.2,0.6
		c-1.3,0.5-2.6,1.1-3.8-0.3c-1.2-2.8-1.2-5.9-1.7-8.9c-0.2-1.2,0-2.4,1-3.3c1.7-0.1,3.5-0.1,5.2-0.2C145.8,52.4,149.4,52.5,153,52.5
		z"/>
	<path class="st238" d="M117.7,53.2c5.9-0.2,11.9-0.3,17.8-0.5c1.5,4.1,2.2,8.3,1.6,12.7c-2,1.3-4.3,0.5-6.5,0.7
		c-1.5,0-3.1-0.1-3.8-1.8c-0.5-1.6-0.2-2.9,1.3-3.9c1.6-1.1,0.8-1.7-0.6-1.8c-0.5-0.1-1-0.4-1.6-0.5c-3.3-0.9-3.4-0.8-4.1,2.5
		c-0.1,0.7-0.3,1.3-0.8,1.8c-0.9,0.8-1.9,1-3,0.4c-0.5-0.4-0.7-0.9-0.9-1.5C116.6,58.5,115.9,55.8,117.7,53.2z"/>
	<path class="st239" d="M101.1,53.9c3.2-1,6.6-0.5,9.9-0.6c0.5,0.2,1,0.6,1.3,1c1,1.6,4.5,1.1,3.6,4.3c-2.1,2.9-5.2,3.5-8.4,3.8
		c-2.1-0.2-2-1.9-2.3-3.3c0-0.2,0-0.3-0.1-0.5c0-0.3,0-0.6,0.1-0.9c0.4-1.6,0-2.7-1.9-2.8C102.5,54.8,101.7,54.6,101.1,53.9z"/>
	<path class="st240" d="M136.6,39.1c-10.8,0-21.5,0-32.3,0c-0.4-0.6-0.4-1.1,0.1-1.6c0.8-0.7,1.8-0.6,2.8-0.6
		c4.3,0,8.6-0.4,12.9-0.3c1.8-0.6,3.8,1.2,5.6-0.3c1.6,0.4,3.2,0.6,4.9,0.3c1.9,1.4,4.6,0,6.4,1.7C137.3,38.9,137.1,39.1,136.6,39.1
		z"/>
	<path class="st241" d="M134.3,44.5c6.5,0.1,13,0.1,19.5-0.1c-7.2,2.8-14.7,2.1-22.1,2.2c0,0,0,0,0,0c-0.5-0.7-0.6-1.3,0-2
		C132.5,44.5,133.4,44.5,134.3,44.5z"/>
	<path class="st242" d="M105.7,58.5c1.6,0.5-0.3,3.1,1.9,3.2c3.1-0.2,1.5,1.8,1.4,3c-0.5,0.8-1.1,1.2-2.2,0.9c1,0.5,2.2,0.8,2.4,2.1
		c0,0.5-0.2,0.9-0.6,1.2c-1.6,0.9-3.2,2.1-5.1,0.8c-0.2-0.7,0-1.2,0.6-1.7c-0.9,0-1,1.1-1.9,1.1c-0.9-1.1-0.5-2.2,0-3.3
		c1-1.6,2.1-3.2,1.9-5.3C104.1,59.7,104.5,58.8,105.7,58.5z"/>
	<path class="st157" d="M110.4,72.1c-2.7,1-5.3,2.3-8,2.9c-1.8,0.4-2.6-1.3-2.6-3.1c2.1,0.9,1.9-1.3,2.8-2.1
		c0.2-0.2,0.5-0.2,0.8-0.1c1,0.9,2.5,0.1,3.5,0.9c1.1,0.2,2.2-1,3.3-0.2C110.6,70.9,110.8,71.4,110.4,72.1z"/>
	<path class="st151" d="M131.7,44.6c0,0.7,0,1.3,0,2c-5.2-0.2-10.4,0.8-15.4-1.1c0-0.3,0-0.6,0-0.9
		C121.4,44.6,126.5,44.6,131.7,44.6z"/>
	<path class="st243" d="M105.7,58.5c-0.8,1-0.8,2.3-0.6,3.4c0.7,2.6-0.4,3.8-2.9,4c-1.1-2.3-0.5-5-1.1-7.4
		C102.6,56.2,104.2,57.5,105.7,58.5L105.7,58.5z"/>
	<path class="st244" d="M115.5,58.4c0.1-2.5-2.3-1.8-3.5-2.6c-0.6-0.4-2-0.4-0.4-1.3c1.2-1.5,3.3,0,4.6-1.3c0.5,0,0.9-0.1,1.4-0.1
		c0.1,2.7-0.2,5.4,0.5,8c-0.2,0.3-0.5,0.5-0.8,0.6c-0.9,0.3-1.8,0.2-2.5-0.5C114.4,60.2,114.6,59.2,115.5,58.4z"/>
	<path class="st245" d="M104.4,38c0,0.4,0,0.7,0,1.1c-5.7,0.1-11.5,0.2-17.2,0.3c-0.1-0.1-0.3-0.2-0.4-0.3c-0.6-1-0.6-2,0.1-3
		c1.9-0.8,3.3,1.5,5.2,0.7c2,0,3.9,0.7,5.8,0.4C100.1,37,102.5,35.8,104.4,38z"/>
	<path class="st246" d="M101.1,53.9c1,0,1.9,0,2.9,0c3.2,0.1,3.5,0.8,1.7,4c-1.6,0.1-3.1,0-4.6-0.8C101,56,100.7,54.9,101.1,53.9z"
		/>
	<path class="st151" d="M136.6,39.1c0.1-0.1,0.2-0.3,0.2-0.4c0.6-1,1.6-1.1,2.6-1.1c7.1,0.1,14.2-0.4,21.3,0c1,0,2,0.2,2.8,0.9
		c0,0-0.1,0.2-0.1,0.2c-1.3,0.9-2.8,0.5-4.2,0.5C151.8,39.2,144.2,39.2,136.6,39.1z"/>
	<path class="st247" d="M84.5,48.5c0-1.3,0-2.7,0-4c0.6-0.9,1-1.9,1-3.1c0-1.1,0.1-2.3,1.7-2.3c0,0,0,0.3,0,0.3
		c0.6,1.7,0.6,3.4,0.5,5.2c-2.8,2-1.5,5-2.1,8C84.7,51.1,85.5,49.6,84.5,48.5z"/>
	<path class="st248" d="M136.9,65.1c0.3-4.2-0.7-8.3-1.3-12.4c0.5,0,1,0,1.5-0.1c-0.3,4,0.9,7.9,1.2,11.9
		C137.9,65.1,137.6,65.6,136.9,65.1z"/>
	<path class="st249" d="M131.2,42.8c-2.7,1.2-5,1-7.4,0C126.1,42.8,128.4,42.8,131.2,42.8z"/>
	<path class="st250" d="M116.3,53.3c-0.8,3-3.1,0.6-4.6,1.3c-0.2-0.4-0.5-0.8-0.7-1.2C112.8,53.3,114.5,53.3,116.3,53.3z"/>
	<path class="st251" d="M102.9,69.8c-0.1,0-0.3,0-0.4,0c-0.2-0.2-0.2-0.3-0.2-0.6c-0.1-2.9,2-2,4-2.1c-1.2,1.1-2.1,1.8-2.9,2.6
		C103.3,70,103.1,70.1,102.9,69.8z"/>
	<path class="st252" d="M101.1,57.1c1.5,0.4,3.2-0.4,4.6,0.8c0,0.2,0,0.5,0,0.7c-1.5,0.1-3.1-1.2-4.6,0.1
		C101.1,58.1,101.1,57.6,101.1,57.1z"/>
	<path class="st165" d="M164.3,63.9c-1.7,0-3.5,0-5.2,0.1c-3.4,0.2-4.9-2.2-3.3-5.5c0.1-0.2,0.3-0.3,0.4-0.4
		c-2.9-1.6-0.5-3.7-0.5-5.5c3.9-0.2,7.8-0.4,11.7-0.7c1.7-0.1,2.8,0,3,2.3c0.2,3.2,1.1,6.3,1.7,9.4
		C169.5,64.7,166.9,64.1,164.3,63.9z"/>
	<path class="st253" d="M177.5,67.1c-1.9,0.3-1.9-1.1-1.9-2.2c-0.1-1.7,1.4-1.1,2.1-1.1c2,0.1,5.3-1.6,5,2.7
		c-1.1,0.5-2.3,0.7-3.2-0.1C178.2,65.4,178.1,66.9,177.5,67.1z"/>
	<path class="st254" d="M177.5,67.1c-0.1-1-0.8-2.4,1-2.4c0.7,0,3-1.3,1.9,1.5c-0.1,0.4,1.5,0.1,2.2,0.3
		C181,67.7,179.2,67,177.5,67.1z"/>
	<path class="st255" d="M164.3,63.9c2.6-0.1,5.2-0.2,7.8-0.4c0,0.3,0.1,0.7,0.1,1c-2.2,0-4.3,0-6.5,0
		C165.2,64.4,164.7,64.2,164.3,63.9z"/>
	<path class="st256" d="M101.1,86.5c0-0.2,0-0.4,0-0.6c0.7-0.4,0.6-0.9,0.1-1.5c-0.1-1.3-1.1-2.6,0.6-3.6c0.9-0.2,1.8,0.1,2.6-0.3
		c2,0.1,4-0.1,4.7,2.4c0,1.4-2.2,1.8-1.5,3.5c0.7,0.8,1.7,1.4,1.4,2.7C105.3,91.5,103.4,88.3,101.1,86.5z"/>
	<path class="st257" d="M110.4,72.1c-0.2-0.6-0.4-1.1-0.6-1.7c-1.1-1.2-0.2-2,0.5-2.7c0.6-0.6,1.4-0.3,2.1,0.2c0.6,0.4,1,1.2,1.9,1
		c1.1-0.1,2.1-0.3,3.1,0.3c0.5,0.4,1.1,0.7,1.3,1.4c0.2,0.7,0.1,1.3-0.5,1.8c-2.5,0.1-4.9,0.2-7.4-0.4c0,0-0.3,0-0.3,0L110.4,72.1z"
		/>
	<path class="st258" d="M101.7,84.5c0.5,0.8,0.6,1.4-0.6,1.4c-0.7-1.3-1.5-2.6-2.6-3.5c0-0.6,0-1.2,0-1.9c1.1,0,1-0.6,0.7-1.3
		c2-0.3,3.9-0.5,5.3,1.4c-0.1,0.8,0.2,1.7-0.4,2.4c-1.2,0.1-0.9-2-2.3-1.7C99.6,82.3,102.2,83.4,101.7,84.5z"/>
	<path class="st256" d="M113.7,81.8c-1.2-0.5-2.1,2.2-3.5,0.5c-0.3-0.6-1.4-1.7-0.7-1.8C110.9,80.4,113,79.4,113.7,81.8z"/>
	<path class="st259" d="M163.6,38.4c-8.9,0.1-17.8,0.2-26.7,0.3c-2.1-0.8-4.8,0.8-6.5-1.5c-1.2,0.4-1.9-0.2-2.3-1.2
		c0-0.3,0-0.6,0.2-0.9c1.9-1,3.7,0.4,5.6,0.1c1.1,0,2.1,0.5,3.1,1.1c1.8,1.4,3.8,0.1,5.6,0.2c1.3,0.2,2.6,0,3.9-0.2
		c0.6-0.1,1.2-0.3,1.8-0.1c0.5,0.1,0.9,0.2,1.3,0.4c1.9,0.7,4.2,0.9,4.6-1.5c0.4-2.1-0.8-4.3-3.4-4.8c-2.9-0.6-5.9-0.2-8.8-1.2
		c-1.9-0.6-3.6,0.4-5.1,1.7c-2.5,0.5-5.1,0.3-7.7,0.2c-2.6-0.7-3.4-3.1-4.3-5.2c-2.4-1.9-5.2-1.1-7.8-1.2c-1.6-0.1-3.2-0.1-4.7,0.4
		c0.7,0.6,1.5,1.1,1.6,2.1c-0.1,0.3-0.2,0.6-0.5,0.7c-1,0.4-1.8,0-2.7-0.4c-0.8-0.4-1.6-0.7-2.3-1.2c-1.9-1.3-2.3-0.1-2.6,1.3
		c-2,0.3-4.1-0.1-5.8,1.5c-0.8,0.8-2.1,0.2-3.2,0c-3-0.6-5.4,0.1-6.9,3.1c-0.6,1.1-1.2,2.8-3.1,1.7c-0.1-1.3,0.2-2.7-0.3-4
		c0-0.1,0-0.2,0-0.3c0.1-7,0.1-6.9,7-6.9c16.9,0.1,33.8,0.1,50.8,0.2c1.1,0,2.2-0.1,3.3-0.2c9,0.1,18.1,0.1,27.1,0.2
		c0.3,1.7,0.6,3.4,0.9,5.1c-0.7,2.9-2.6,1.5-4.1,1.2c-3.4-0.6-6.8-2.2-10.1,0.3c-1.2,2.2-3.1,4.4-0.4,6.9c0.9,0.2,1.7,0.4,2.4,1
		C163.5,37.5,163.6,38,163.6,38.4z"/>
	<path class="st260" d="M118.3,72.4c0.1-0.6,0.1-1.2,0.2-1.8c1.8-2,4.6-0.4,6.5-1.9c1-0.1,1.9,0.2,2.1,1.3c-0.3,0.6-0.5,1.2-0.8,1.8
		C123.6,71.4,121,72.4,118.3,72.4z"/>
	<path class="st261" d="M136.9,65.1c0.4-0.2,0.9-0.3,1.3-0.5c1,1,2.2,0.1,3.3,0.5c0.9,0.2,1.8,0.4,2.7,0.7c-0.4,0-0.9,0.1-1.3,0
		c-2.9-0.4-3.7,0.7-2.6,3.4c-0.3,0-0.7,0.1-1,0.1c-1.9-2.7-4.8-2-7.5-2.4c-0.5-0.1-1-0.3-1.4-0.7c-0.3-0.3-0.3-0.6-0.1-1
		C132.5,64.6,134.7,65.3,136.9,65.1z"/>
	<path class="st262" d="M160.3,37.2c-0.7-1.8-3.5-3.3-0.9-5.5c1.1-0.9-0.7-2.4,0.7-3.2c1.4,0.8,2.8,1,4.4,0.6
		c1.4-0.3,2.9-0.5,3.8,1.1c0,0.1-0.1,0.3-0.1,0.4c-3.7-0.7-5.6,1-6,4.6C162,36.3,160.9,36.5,160.3,37.2z"/>
	<path class="st262" d="M174.2,35.1c0.8,0.3,1.3,0.8,1.3,1.7c-1.2,0.9-2.6,0.4-3.8,0.5c-1.4,0-4.7,1.3-1.8-2.4
		c1.3-1.6-0.8-2.9-1.7-4.2c0,0,0.1-0.2,0.1-0.2c1.9-1.2,2.9-0.2,3.4,1.6C172.2,33.4,172.4,34.8,174.2,35.1z"/>
	<path class="st263" d="M168.1,33.8c-0.1,1.2-0.7,1.5-1.5,1.5c-0.9,0-1.8-0.2-2-1.3c-0.1-1.1,0.7-1.5,1.7-1.5
		C167.2,32.5,167.8,33.1,168.1,33.8z"/>
	<path class="st264" d="M160.3,37.2c0-1.3,0.8-1.8,2-1.9c0.7,0.4,1.2,1,1.3,1.8C162.4,37.1,161.3,37.1,160.3,37.2z"/>
	<path class="st265" d="M131.7,65.9c1.2,0,2.4,0.1,3.6-0.1c2.9-0.5,4,0.7,3.9,3.5c-2.3,0.3-4.6,0.7-7,0.4c-1.6-0.3-3.1-2.3-4.6,0.1
		c-0.2,0.1-0.4,0.2-0.6,0.3c-0.7-0.1-1.1-1-1.9-0.7c-0.3,0.2-0.6,0.3-1,0.3c-1.5-0.8-3.3-1-4.1-2.8c0.1-0.4,0.3-0.7,0.7-0.9
		C124.4,64.8,128.1,66.2,131.7,65.9z"/>
	<path class="st266" d="M127.7,69.7c0-0.9-0.4-2.3,0.9-2.4c1.6-0.1,2.8,1,3.7,2.2C130.8,70,129.2,69.1,127.7,69.7z"/>
	<path class="st267" d="M174.2,35.1c-2.4,1.9-3.2,0-3.3-1.8c-0.1-2-0.9-2.7-2.6-2.9c-1.5-0.8-3.2-0.9-4.6,0c-2.4,1.4-3.1,0-3.6-1.9
		c4-2.7,8.1-2.2,12.2-0.2c1.2,0.6,2.3,0.3,3.4-0.5c0.2,0.1,0.3,0.2,0.4,0.3c0.2,1.3,0.4,2.7,0.6,4c-0.4,0.3-1.3,0.5-0.4,1.2
		C175.7,34.1,174.3,33.8,174.2,35.1z"/>
	<path class="st268" d="M176.2,33.3c-1-0.2-2.5,0.6-3-1.1c1.1-0.6,2.3-0.1,3.4-0.1c0,0.3,0.1,0.7,0.1,1
		C176.6,33.2,176.4,33.2,176.2,33.3z"/>
	<ellipse class="st269" cx="111.3" cy="18.9" rx="20.8" ry="0.2"/>
	<path class="st270" d="M97.6,21.8c-3.1,0-6.1,0-9.2,0c-0.9,0-2.1,0.4-2.1-1.2c2.4,1.2,5,0.5,7.4,0.7C95.1,21.4,96.5,20.9,97.6,21.8
		z"/>
	<path class="st271" d="M118.2,89c-1.1,0-2.1,0.1-3.2,0.1c-0.2-0.6-1-1.5-0.2-1.7C116.2,87.1,117.6,87.3,118.2,89z"/>
	<path class="st272" d="M109,89.1c-0.5-0.9-0.9-1.8-1.4-2.7C109.8,87.3,110.2,88,109,89.1z"/>
	<path class="st273" d="M83.1,98.4c-0.3,1.6-1.8,1.7-2.9,1.9c-3,0.4-6,0.6-9.1,0.5c2.5,0.1,4.4-1.6,6.8-1.8
		C79.6,99,81.3,98,83.1,98.4z"/>
	<path class="st274" d="M77.8,91.8c-0.9-0.6-1.8-1.3-2.8-1.9c2.9,0.1,5.7-1.3,9-0.5C82.2,91.3,80,91.5,77.8,91.8z"/>
	<path class="st189" d="M72.4,88.4c-0.7-1.6,0.6-1.3,1.3-1.3c2.3,0,4.6,0,6.9,0C78,88.5,74.9,86.9,72.4,88.4z"/>
	<path class="st275" d="M133,92.5l0.3-0.1c1.3,1.4,3,2.5,3.8,4.3c-3.2,1.5-6.7,1.4-10.1,1.6C127.9,95.2,131.4,94.8,133,92.5z"/>
	<path class="st276" d="M137.1,96.7c-1.3-1.4-2.5-2.9-3.8-4.3c1.2-0.2,1.5,1,2.4,1.3c0.4,1.3,2.6,1.5,2,3.3
		C137.4,96.9,137.3,96.8,137.1,96.7z"/>
	<path class="st202" d="M69,95.7c-2-0.2-4,0.5-5.9-0.6c1.8-0.3,3.5-0.5,5.3-0.8C68.9,94.7,69.1,95.1,69,95.7z"/>
	<path class="st277" d="M196.8,37.2c1.6-0.9,2.6-2.3,3.1-4.1c0.2-0.7,0.5-1.6,1.5-1.5c0.9,0.1,0.7,1,0.7,1.6c0,1,0.2,1.8,1.4,1.9
		c0,0.2,0,0.5-0.1,0.7c-2.3,1.1-1.3,2.2,0,3.2C200.5,40.2,197.7,39.4,196.8,37.2z"/>
	<path class="st278" d="M203.4,39.2c-1.8,0.1-3.8-0.4-3.6-2.3c0.1-1.8,2.3-0.8,3.6-1C203.4,37.1,203.4,38.1,203.4,39.2z"/>
	<path class="st277" d="M205.1,35.7c2.1,0.4,2.4,1.6,2.2,3.2c-0.1,0.5-0.5,0.9-0.9,0.8C204.5,38.8,206,37,205.1,35.7z"/>
	<path class="st279" d="M81.1,37.4c0,1.4,0,2.4,0,3.4c0,1.3-0.6,2.3-1.8,2.8c-1.1,0.4-1.8-0.2-2.5-1c-0.4-0.5-1-0.8-1.6-1.1
		c-2.4-1.1-3.6-3-3.2-5.5c0.4-2.6,2.5-4.1,4.6-5.2c1.7-0.9,3.1,0.2,4,1.9C81.4,34.4,81,36.1,81.1,37.4z"/>
	<path class="st280" d="M86.5,29.7c0.9,1.2,0.3,2.6,0.6,3.9c0.6,0.7,0.6,1.5,0.1,2.2c0,1.1-0.1,2.2-0.1,3.3
		c-1.6,1.4,0.4,4.7-2.7,5.4c-0.2-2.9-0.9-5.7-0.6-8.7C86.5,34.6,86.5,32.1,86.5,29.7z"/>
	<path class="st281" d="M190.2,18.3c0.1-0.8,0-1.8,1-1.8c0.9,0,1,1,1,1.8c0,0.9-0.1,2-1.3,1.8C189.8,20.1,190.3,19,190.2,18.3z"/>
	<path class="st282" d="M210.1,19.2c-0.8,0.8-1.8,1.9-1.9-0.4c-0.1-2.7-0.1-5.5,0.7-8.2c0.2-0.2,0.4-0.5,0.6-0.7
		c3.4,0.3,1.3,2.5,1.4,4C211.9,15.9,211.6,17.7,210.1,19.2z"/>
	<path class="st283" d="M210.1,19.2c0-1.8,0.1-3.6,0.8-5.3c3.3-2.5,6.7-1.5,10,0.1c0,0.9,0,1.9-0.6,2.7c-2.4-1.3-3.7,1-5.4,1.8
		C213.4,20.5,212,21.7,210.1,19.2z"/>
	<path class="st284" d="M228.7,18.7c-1.5,0-3.1,0-4.6-0.1c-0.7,0-1.3-0.4-1.3-1.2c-0.1-0.7-0.1-1.7,0.5-1.7c2.1-0.2,4.5-1.6,6.1,0.9
		C229.2,17.3,229,18,228.7,18.7z"/>
	<path class="st285" d="M214.8,18.6c0.3-2.3,2.4-3.1,3.9-3.9c2-1,1,1.3,1.5,2.1c0,0.7-0.1,1.4-0.8,1.9
		C217.8,18.6,216.3,18.6,214.8,18.6z"/>
	<path class="st233" d="M139.8,84.4c-0.2-1.5,0.6-2.3,1.6-2.8c0.1,0,0.6,0.3,0.6,0.6C142.3,83.8,140.4,83.5,139.8,84.4z"/>
	<path class="st286" d="M128,57.8c0.9,0.1,2.5-0.5,2.3,0.7c-0.1,0.7,0.8,3.1-1.7,2.9c-1.4-0.1-1.3,0.8-0.9,1.7c-0.8,3.2-3,3-5.4,2.4
		c-0.9-0.8-1.6-1.6-1.5-2.9c0.3-0.6,0.9-1,0.9-1.7c0-2.2,0.5-3.2,2.9-1.9C125.9,59.8,126.5,57.2,128,57.8z"/>
	<path class="st287" d="M128,57.8c-0.6,0.5-1.3,0.7-1.7,1.4c-0.4,0.7,1.5,1.6-0.1,2c-1.4,0.4-2.2-0.6-2.7-1.8
		c-0.1-0.3-0.4-0.5-0.9-1.1c-0.1,1.8,0.6,3.6-1.5,4.1c-0.2-0.1-0.3-0.2-0.3-0.4c0-0.2,0.1-0.3,0.1-0.3C121,56,121.8,55.5,128,57.8z"
		/>
	<path class="st288" d="M122.4,65.1c1.3,0,2.6,0,4,0c-0.4-0.6-1.1-1.3-1-1.6c0.5-0.9,1.5-0.3,2.3-0.4c-0.4,2.3,1.3,1.9,2.7,2
		c0,0.2-0.1,0.3-0.1,0.5c-3,1.1-6.1,0.2-9.2,0.5c-0.7,0-1.5,0.3-2.1-0.4c-0.1-0.4,0-0.7,0.3-1C120.4,64.1,121.4,64.3,122.4,65.1z"/>
	<path class="st289" d="M122.4,65.1c-1.1,0-2.2,0-3.3,0.1c-0.9-0.8-1.5-1.6-0.5-2.8c0.9,0.2,1.6-0.1,2.3-0.6
		c0.1,0.2,0.1,0.4,0.2,0.7C121.5,63.3,121.9,64.2,122.4,65.1z"/>
	<path class="st290" d="M118.6,62.4c0.2,0.9,0.3,1.8,0.5,2.8c0,0-0.2,0.1-0.2,0.1c-0.5,0.8-1,0.9-1.7,0.2c-0.7-1.5-0.6-2.9,0.3-4.2
		c0.2,0,0.5-0.1,0.7-0.1C118.3,61.6,118.4,62,118.6,62.4z"/>
	<path class="st291" d="M115.5,58.4c0.3,1,0.1,1.9-0.5,2.7c1.9,1.2,2.1,2.5,0,3.5c-1.1,0.5-1.9,1.4-3,1.9c-1.5,0.1-3.1,0.8-3.8-1.3
		c-0.3-1.2,1.2-2.6-0.6-3.5C110.4,60.9,113.1,60,115.5,58.4z"/>
	<path class="st292" d="M87.2,35.9c0-0.7,0-1.5-0.1-2.2c0.9-0.1,1.4-0.6,1.8-1.3c2.1-4.6,4-5.6,8.5-4.5c1.1,0.3,2.2,1.7,2.8-1
		c0.2-1.2,3.6-0.6,5.4,0.3c1.6-2.2,3.6-0.5,5.4-0.6c0.9,0.2,1.8,0.5,2.6,0.7c0.1,0.1,0.1,0.3,0.2,0.4c-0.1,0.3-0.2,0.6-0.4,0.8
		c-2.1,1.3-4.5,0.8-6.7,1.2c-0.4,0.1-1.2-0.2-0.8,0.7c-0.3,0.8,0,1.4,0.6,1.9c0.4,0.7,0.2,1.6,0.7,2.2c0.4,0.6,1.4,0.9,1.3,1.9
		c-0.3,0.6-1.2,0.6-1.5,1.3c-0.9,0.1-1.8,0.2-2.7,0.2c-2.3-0.2-4.6-0.6-6.8,0.5c-0.4-0.6-0.3-1.3,0-1.9c0.8-1.4,1.4-2.8-0.6-3.5
		c-1.9-0.7-3.5-0.1-4.3,1.9c-0.4,0.9-0.4,2-1.1,2.7C89.7,38.2,88,38.2,87.2,35.9z"/>
	<path class="st293" d="M106.5,35.3c-2.6-0.8-0.4-1.7-0.1-2.6c0.9-1.4,2.4-0.4,3.2-0.8c-1.2-0.2-3,0.6-3.9-1.4
		c-0.5-0.7-1.8-0.4-2.1-1.4c3.3-0.4,6.5-0.8,9.8-1.2c0.6,0.1,1,0.5,1.2,1c1.1,2.7,2.8,4.9,5.2,6.5c0.6,0.4,1.1,1.1,1.1,1.9
		c-4.6,1.3-9.3,0.3-13.9,0.5c-0.8-1.1-0.8-1.1,1.5-1.4c0.2-0.2,0.5-0.4,0.8-0.5c-0.1-0.2-0.2-0.1-0.4-0.1
		C108.2,35.5,107.3,35.8,106.5,35.3z"/>
	<path class="st294" d="M121,37.3c-4.1-1.8-6.7-4.9-7.6-9.4c0.1,0,0.3,0,0.4,0.1c2.1-0.3,4.3-2.4,6,0.6c-1.1,1.3-1.2,2.4,0.2,3.6
		c1.7,1.5,2.9,0.5,4.1-0.6c0.4-0.2,0.9-0.2,1.4-0.1c1,0.3,1.5,1,2,1.8c0.4,0.6,1.1,1.1,0.8,1.9c0,0.2,0,0.5,0,0.7
		c-0.6,1-2,0.6-2.7,1.5C124.1,38.4,122.5,37.5,121,37.3z"/>
	<path class="st295" d="M125.6,37.3c0.3-1.6,1-2.5,2.7-1.5c0.7,0.5,1.4,0.9,2,1.4C128.8,38.6,127.2,37.9,125.6,37.3z"/>
	<path class="st296" d="M108.3,65.3c1.3,0.9,2.8,0.5,4.2,0.4c0.5-0.3,1-0.5,1.5-0.4c1.3,0.3,2.6,0.4,3.8,0.7c2.6,0.7,2.9,1.2,1.9,4
		c-0.9,0.2-1.8,0.3-2.7-0.1c-0.8-0.6-1.7-0.1-2.6-0.1c-0.6,0-1.1-0.3-1.3-0.8c-0.9-2.1-2.5-1.7-4.1-1.2c-0.9-0.6-1.9-1.1-3.1-1.9
		C106.8,65.6,107.5,65.4,108.3,65.3z"/>
	<path class="st297" d="M108.9,67.7c3.3-3.5,3.9,0.6,5.5,2c-0.4,2-1,1.2-1.7,0.1c-0.4-0.7-0.8-1.9-1.8-1.6c-1,0.2-1,1.3-1.1,2.2
		c-1,0.7-2,1.5-3.3,1.4c-0.9-2,1.1-2.3,2-3.3C108.6,68.3,108.7,68,108.9,67.7z"/>
	<path class="st298" d="M108.4,68.5c-0.4,1.2-1.9,1.9-2,3.3c-0.8-1.4-2.7-0.8-3.5-2c0.2,0,0.3-0.1,0.5-0.1
		C105.2,70,106.7,68.9,108.4,68.5z"/>
	<path class="st299" d="M113.7,65.9c-0.4-0.1-0.9-0.2-1.3-0.2c0-1.1,0.9-1.6,1.7-1.7c2.4-0.4,1.8-1.6,0.9-2.9c0.8,0,1.6,0.1,2.4,0.1
		c0,1.5,0.1,3,0.1,4.5C116.3,66.4,115,66.4,113.7,65.9z"/>
	<path class="st300" d="M91.6,37.8c-0.8-1.7-0.4-3.2,0.8-4.5c1.6-1.7,4.8-2,6.3-0.4c2.3,2.4-0.3,3.9-1.2,5.7
		C95.6,38.4,93.7,37.4,91.6,37.8z"/>
	<path class="st301" d="M160.3,61.1c-1.5-2.5-0.9-4.8,0.8-6.9c0.7-1,1.6-1.6,2.7-0.3c-0.8,1.1-0.1,2.3-0.4,3.5
		c0.1,0.6,0.3,1.2-0.1,1.8C162.3,60,161.1,60.2,160.3,61.1z"/>
	<path class="st302" d="M160.3,61.1c-0.4-2.2,0.4-2.9,2.5-2c0.4,0.7,1,1.3,1.1,2.1C162.6,63.1,161.4,62.8,160.3,61.1z"/>
	<path class="st303" d="M163,57.2c-0.6-1.2-3.1-2.9,0.7-3.2c0.6,1.1,2.3,2.1,0.2,3.4C163.5,57.6,163.3,57.6,163,57.2z"/>
	<path class="st304" d="M163,57.2c0.3,0,0.6,0.1,0.8,0.1c1.1,1.3,1.7,2.7-0.1,4c-0.4-0.7-1.6-1-1.1-2.1
		C162.8,58.5,162.9,57.8,163,57.2z"/>
	<path class="st305" d="M101.7,84.5c-0.4-0.6-0.9-1.2-1.3-1.9c-1.2-1.9,0.1-1.7,1.3-1.5C100.4,82.3,103.2,83.4,101.7,84.5z"/>
	<path class="st306" d="M117,69.9c0.9,0,1.8-0.1,2.7-0.1c0.4-0.3,0.8-0.6,1.3-0.8c1.2-0.6,2.3,0.7,3.4,0.2c0.2,0,0.5,0.1,0.7,0.1
		c-1.9,2.3-4.5,0.8-6.7,1.3C118,70.3,117.5,70.1,117,69.9z"/>
	<path class="st307" d="M136.8,29.9c0.9-1.6,2-2.3,4-1.9c3.6,0.7,7.3,0,10.9,1.2c2.3,1.4,1.7,4.2,3,6.1c0.6,0.9-0.6,1.7-1.6,2
		c-1.3,0.4-2.7,0.6-4-0.1c-0.2-0.2-0.4-0.3-0.7-0.5c-2.9-3.3-3.7-3.5-7.7-2.2c-1.6-0.2-2.9-0.7-3.2-2.6c0.7-1,1.8-1,2.8-1
		C139.1,30.8,137.7,31.3,136.8,29.9z"/>
	<path class="st308" d="M119.7,28.5c-1.2-0.9-2.5-0.7-3.7,0c-0.9,0.5-1.6,0.4-2.2-0.4c-0.1-0.2-0.1-0.5-0.2-0.7c0,0,0,0,0,0
		c0.4-2.1-1.1-2-2.5-2.1c-0.8-0.2-1.5-0.5-1.5-1.4c0-0.6,0.7-0.5,1-0.4c4.2,0.5,8.5-0.4,12.7,0.2c1.5,0.2,1.8,0.9,2.2,1.9
		c-2,1-1.5,2.3-0.5,3.8c0.3,0.4,0,0.8-0.4,1.1c-0.9,0.6-2,0.6-3,0.3C120.8,30.2,119.8,29.7,119.7,28.5z"/>
	<path class="st309" d="M121.8,29.9c1,0,2,0,3,0c1.3-1.1,2.5-0.6,3.8,0c2.7,0,5.4,0,8.1,0c2,0,4,0.1,5.9,0.2c0.6,0,1.4,0.3,1.3,1.1
		c-0.1,0.5-0.7,0.9-1.3,0.9c-1.6,0.1-3.3,0.1-4.9,0.2c-0.9,1-2.2,0.6-3.3,0.8c-0.9,0.3-1.9,0.1-2.8-0.1c-1.8-0.2-3.7,0.3-5.4-0.6
		c-0.8,0-1.6,0-2.4,0c-1.1,0.4-2.1,0.4-2.8-0.7C120.6,30.8,120.9,30.2,121.8,29.9z"/>
	<path class="st310" d="M140.8,33.8c3.2-2.3,6.7-1,7.5,2.8c-0.5,0.2-1.1,0.3-1.6,0.5c-1.4-1.5-2.6-1-3.8,0.2
		c-2.2-0.3-4.5,1.8-6.6-0.3c0.7-1.2,2.6-0.7,3.2-2.1C139.8,34.5,140.5,34.3,140.8,33.8z"/>
	<path class="st311" d="M149,37.2c0.8,0,1.6,0.1,2.3,0c1.2-0.1,2.7-0.1,2.8-1.7c0.1-1.5-1.5-1.3-2.7-1.8c1.1-1.4,1.7-3,0.2-4.5
		c2.5,0.7,2.7,3.2,3.8,5c0.5,0.9,0,2.3-0.9,2.9C152.8,38,150.9,38.3,149,37.2z"/>
	<path class="st312" d="M128.6,29.9c-1.3,0-2.5,0-3.8,0c-0.2-1.4-1.9-1.4-2.4-2.5c-0.3-0.7-1.2-1.3-0.6-2.1c0.6-0.9,1.3-0.3,2,0.1
		c0.6,0.3,1.2,0.5,1.8,0C127.1,26.6,126.9,28.9,128.6,29.9z"/>
	<path class="st313" d="M140.3,35.2c0,3.6-2.5,1.5-4,1.9c-0.9-0.4-1.8-0.8-2.7-1.2c-0.2-0.3-0.3-0.6-0.3-1c0.2-0.5,0.5-0.9,1-1.2
		C136.7,32.9,138.8,32.9,140.3,35.2z"/>
	<path class="st314" d="M111,26.6c-1.7,1.5-3.7-0.4-5.4,0.6c-0.2-0.9-1.1-1.8-0.2-2.8c1-1,1.8,0,2.6,0.4
		C109.1,25.3,110.3,25.6,111,26.6z"/>
	<path class="st315" d="M133.6,35.4c-0.1,0.2-0.1,0.4,0,0.6c-2,0.9-3.6-0.4-5.3-0.8c-0.4-0.4-0.9-0.8-1.3-1.2
		c-0.4-0.6-0.5-1.4,0.4-1.4c1.5,0,3.3-0.4,4.6,0.9C132.8,33.9,133.2,34.6,133.6,35.4z"/>
	<path class="st316" d="M142.9,37.4c-0.3-1-1-2.3,0.7-2.5c1.6-0.2,3,0.3,3.1,2.3C145.4,36.8,144.3,38.7,142.9,37.4z"/>
	<path class="st317" d="M136.1,26.2c2.2-1.5,4.6-1,7.5-0.7C141,27.8,138.4,25.3,136.1,26.2z"/>
	<path class="st318" d="M111.2,25.2c1-1,2-0.6,2.8,0.2c0.7,0.7,0.3,1.3-0.3,1.9C113.2,26.2,112.1,25.8,111.2,25.2z"/>
	<path class="st317" d="M134.7,26.4c-1.5,0-2.7,0.6-3.6-0.8c-0.1-0.2,0.2-0.8,0.3-0.8C132.6,24.9,133.6,25.4,134.7,26.4z"/>
	<path class="st319" d="M120.4,65.9c3.3-0.1,6.5-0.1,9.8-0.2c0.5,0.1,1,0.1,1.5,0.2c-3.7,1.5-7.6,0-11.4,0.7
		c-0.2-0.2-0.3-0.3-0.2-0.5C120.3,66,120.3,65.9,120.4,65.9z"/>
	<path class="st320" d="M124.4,69.1c-0.9,1.2-2.2,0.6-3.3,0.7c-1.1-0.7-1.5-1.6-0.8-2.8C122.2,66.8,123.4,67.9,124.4,69.1z"/>
	<path class="st321" d="M120.3,67.1c-0.2,1,0.2,1.9,0.8,2.8c-0.5,0-1-0.1-1.4-0.1c0.4-2.6-0.7-3.7-3.4-3.3c-0.9,0.2-2,0.7-2.6-0.6
		c1.3-0.1,2.6-0.1,3.9-0.2c0.4-0.2,0.8-0.3,1.2-0.5c0.5,0.2,1.1,0.4,1.6,0.6c0,0.2-0.1,0.4-0.1,0.7
		C120.3,66.7,120.3,66.9,120.3,67.1z"/>
	<path class="st322" d="M105.8,30.5c1.9,0.8,3.9,0.8,6.2,1.2c-1.8,1.5-3.8,0.5-5.5,1.1c-0.8-0.3-1.8-0.2-2.1-1.1
		C104.2,31.4,105.2,30.9,105.8,30.5z"/>
	<path class="st323" d="M106.5,35.3c2,0,3.9,0,6.3-0.6c-1.3,1.8-2.7,1.9-4.2,1.8C108,35.8,106.9,36.2,106.5,35.3z"/>
	<path class="st324" d="M121.8,29.9c-1.5,2.8,1.1,1.9,2.1,2.4c0.1,2.5-1.1,2.8-3.1,1.8c-1.1-0.5-2-1.4-2.7-2.3
		c-0.6-0.7-1.4-1.6-0.9-2.6c0.5-1.3,1.7-0.5,2.6-0.8C120.4,28.9,121.1,29.4,121.8,29.9z"/>
	<path class="st324" d="M131.9,34.5c-1.6-0.7-3-2.6-4.9-0.5c-0.2-0.5-0.5-1.1-0.7-1.6c1.7,0,3.3,0,5-0.1
		C132.6,32.7,132.3,33.6,131.9,34.5z"/>
	<path class="st292" d="M97,35c-0.1,1.1-0.8,1.7-1.7,1.9c-0.9,0.2-1.5-0.4-1.5-1.3c0-1,0.8-1.5,1.8-1.6C96.4,34,96.9,34.3,97,35z"/>
	<path class="st325" d="M140.3,35.2c-1.9-1.6-4-1-6.1-0.7c-0.2-0.9-0.7-1.8,0.5-2.4c1,0,2,0,3,0c1,0.6,1.8,1.6,3.1,1.7
		C140.7,34.3,140.5,34.8,140.3,35.2z"/>
	<path class="st326" d="M134.8,32.2c1.8,1.2,0.4,1.7-0.5,2.4c-0.2,0.3-0.4,0.6-0.6,0.8c-0.6-0.3-1.1-0.6-1.7-0.9
		c-0.2-0.8-0.4-1.5-0.6-2.3C132.4,32.2,133.6,32.2,134.8,32.2z"/>
</g>
<g>
</g>
<g>
</g>
<g>
</g>
<g>
</g>
<g>
</g>
<g>
</g>
</svg>
