<?xml version="1.0" encoding="utf-8"?>
<!-- Generator: Adobe Illustrator 22.0.1, SVG Export Plug-In . SVG Version: 6.00 Build 0)  -->
<svg version="1.1" id="Layer_1" xmlns="http://www.w3.org/2000/svg" xmlns:xlink="http://www.w3.org/1999/xlink" x="0px" y="0px"
	 viewBox="0 0 240 160" style="enable-background:new 0 0 240 160;" xml:space="preserve">
<style type="text/css">
	.st0{fill:#2C2A2B;}
	.st1{fill:#252223;}
	.st2{fill:#1F1D1F;}
	.st3{fill:#929399;}
	.st4{fill:#931E21;}
	.st5{fill:#201E1E;}
	.st6{fill:#100C0D;}
	.st7{fill:#8555A2;}
	.st8{fill:#110C0E;}
	.st9{fill:#A6A597;}
	.st10{fill:#A58B90;}
	.st11{fill:#1A1517;}
	.st12{fill:#958F72;}
	.st13{fill:#BFA9D1;}
	.st14{fill:#97969A;}
	.st15{fill:#68121F;}
	.st16{fill:#B78CBE;}
	.st17{fill:#8A8A8A;}
	.st18{fill:#7392A6;}
	.st19{fill:#8D8D92;}
	.st20{fill:#ABB2A1;}
	.st21{fill:#C1232A;}
	.st22{fill:#9C9881;}
	.st23{fill:#9F8B89;}
	.st24{fill:#BEC0C3;}
	.st25{fill:#BEBDBF;}
	.st26{fill:#914C9E;}
	.st27{fill:#423A33;}
	.st28{fill:#B8B9BB;}
	.st29{fill:#A9AAAE;}
	.st30{fill:#7A7A7E;}
	.st31{fill:#A8A5A8;}
	.st32{fill:#97999C;}
	.st33{fill:#9B9B9F;}
	.st34{fill:#9DAE63;}
	.st35{fill:#B0B1B6;}
	.st36{fill:#363636;}
	.st37{fill:#864495;}
	.st38{fill:#A257A2;}
	.st39{fill:#1B181B;}
	.st40{fill:#5C5D5B;}
	.st41{fill:#6280A7;}
	.st42{fill:#A4B0BB;}
	.st43{fill:#91A974;}
	.st44{fill:#A3A3A4;}
	.st45{fill:#BA282A;}
	.st46{fill:#74706F;}
	.st47{fill:#946765;}
	.st48{fill:#557C99;}
	.st49{fill:#888786;}
	.st50{fill:#9A9A95;}
	.st51{fill:#A5B0C1;}
	.st52{fill:#494C4D;}
	.st53{fill:#5B7CA1;}
	.st54{fill:#A8B5BF;}
	.st55{fill:#A6A3A3;}
	.st56{fill:#6D7E3F;}
	.st57{fill:#87837B;}
	.st58{fill:#BA2226;}
	.st59{fill:#6A94C9;}
	.st60{fill:#A8A89C;}
	.st61{fill:#6B7FBE;}
	.st62{fill:#C42528;}
	.st63{fill:#768AC1;}
	.st64{fill:#CA3A2B;}
	.st65{fill:#5C71B6;}
	.st66{fill:#B1ABA3;}
	.st67{fill:#CFD1D3;}
	.st68{fill:#4F64AE;}
	.st69{fill:#9B8A7C;}
	.st70{fill:#4054A0;}
	.st71{fill:#B4AEAF;}
	.st72{fill:#949398;}
	.st73{fill:#939398;}
	.st74{fill:#7F7D7D;}
	.st75{fill:#8D6251;}
	.st76{fill:#BE908F;}
	.st77{fill:#97989D;}
	.st78{fill:#9C9DA4;}
	.st79{fill:#9CA1AA;}
	.st80{fill:#8F8F92;}
	.st81{fill:#929395;}
	.st82{fill:#BF2C2A;}
	.st83{fill:#98735D;}
	.st84{fill:#98979B;}
	.st85{fill:#A0A0A3;}
	.st86{fill:#9D9CA1;}
	.st87{fill:#808083;}
	.st88{fill:#676868;}
	.st89{fill:#98979A;}
	.st90{fill:#C1C15B;}
	.st91{fill:#7385B9;}
	.st92{fill:#919196;}
	.st93{fill:#A2A5AC;}
	.st94{fill:#A3A5AD;}
	.st95{fill:#B7454D;}
	.st96{fill:#ACACB0;}
	.st97{fill:#8DB88B;}
	.st98{fill:#6E6B6D;}
	.st99{fill:#A1A0A4;}
	.st100{fill:#A5A9B0;}
	.st101{fill:#585557;}
	.st102{fill:#A8AAAE;}
	.st103{fill:#57575A;}
	.st104{fill:#CEB44F;}
	.st105{fill:#565A65;}
	.st106{fill:#8A888D;}
	.st107{fill:#757578;}
	.st108{fill:#72717B;}
	.st109{fill:#A8A9AF;}
	.st110{fill:#7E7E81;}
	.st111{fill:#A9A6A4;}
	.st112{fill:#7D8292;}
	.st113{fill:#B5B3B4;}
	.st114{fill:#43454A;}
	.st115{fill:#998C7F;}
	.st116{fill:#A7A9AC;}
	.st117{fill:#3D4152;}
	.st118{fill:#ABACB1;}
	.st119{fill:#838B9B;}
	.st120{fill:#AFB1B3;}
	.st121{fill:#595D67;}
	.st122{fill:#A2988F;}
	.st123{fill:#5F8AC1;}
	.st124{fill:#5580B8;}
	.st125{fill:#5C88BF;}
	.st126{fill:#5A6FB3;}
	.st127{fill:#4156A0;}
	.st128{fill:#5166AC;}
	.st129{fill:#83807A;}
	.st130{fill:#C5272E;}
	.st131{fill:#BB2127;}
	.st132{fill:#48403B;}
	.st133{fill:#706E6E;}
	.st134{fill:#8D8C8F;}
	.st135{fill:#A1A5AA;}
	.st136{fill:#3D302D;}
	.st137{fill:#7E8289;}
	.st138{fill:#464340;}
	.st139{fill:#ADAEB2;}
	.st140{fill:#929193;}
	.st141{fill:#929194;}
	.st142{fill:#C97A76;}
	.st143{fill:#98999E;}
	.st144{fill:#726F74;}
	.st145{fill:#3D3231;}
	.st146{fill:#3D3E40;}
	.st147{fill:#515454;}
	.st148{fill:#989FA9;}
	.st149{fill:#63676A;}
	.st150{fill:#4E4F4D;}
	.st151{fill:#AEAFB4;}
	.st152{fill:#48553E;}
	.st153{fill:#575953;}
	.st154{fill:#8C9F7B;}
	.st155{fill:#696869;}
	.st156{fill:#AA2727;}
	.st157{fill:#3A3C3B;}
	.st158{fill:#5CA6AD;}
	.st159{fill:#437578;}
	.st160{fill:#5BA7AC;}
	.st161{fill:#C1BCBE;}
	.st162{fill:#8952A1;}
	.st163{fill:#B99BC5;}
	.st164{fill:#D2CED5;}
	.st165{fill:#3E4D63;}
	.st166{fill:#C3C4C6;}
	.st167{fill:#AFB2B8;}
	.st168{fill:#9DB74D;}
	.st169{fill:#5B564C;}
	.st170{fill:#524C45;}
	.st171{fill:#A02C2D;}
	.st172{fill:#BFBEC1;}
	.st173{fill:#C3C4C8;}
	.st174{fill:#B0B2B4;}
	.st175{fill:#474449;}
	.st176{fill:#96979A;}
	.st177{fill:#98999C;}
	.st178{fill:#757987;}
	.st179{fill:#3E4558;}
	.st180{fill:#82A53F;}
	.st181{fill:#86AB42;}
	.st182{fill:#6E8A3A;}
	.st183{fill:#84A740;}
	.st184{fill:#77933C;}
	.st185{fill:#486E9B;}
	.st186{fill:#B1B1B8;}
	.st187{fill:#B1BAC5;}
	.st188{fill:#ACB898;}
	.st189{fill:#C3B8BA;}
	.st190{fill:#BB9999;}
	.st191{fill:#B4A3A4;}
	.st192{fill:#C4C8CD;}
	.st193{fill:#D1D5D8;}
	.st194{fill:#C6C5C7;}
	.st195{fill:#C6C4C2;}
	.st196{fill:#99918E;}
	.st197{fill:#B3AFA8;}
	.st198{fill:#A8A198;}
	.st199{fill:#ABA7A6;}
	.st200{fill:#2E2C31;}
	.st201{fill:#697F96;}
	.st202{fill:#2A3538;}
	.st203{fill:#6A4543;}
	.st204{fill:#AA8B72;}
	.st205{fill:#71757C;}
	.st206{fill:#84858A;}
	.st207{fill:#B0B0B6;}
	.st208{fill:#909399;}
	.st209{fill:#B3B5BA;}
	.st210{fill:#99999C;}
	.st211{fill:#201C1D;}
	.st212{fill:#858B91;}
	.st213{fill:#ACA8A8;}
	.st214{fill:#547CB2;}
	.st215{fill:#AEADAC;}
	.st216{fill:#262323;}
	.st217{fill:#76726D;}
	.st218{fill:#918C84;}
	.st219{fill:#56595F;}
	.st220{fill:#525248;}
	.st221{fill:#5F6163;}
	.st222{fill:#7C9647;}
	.st223{fill:#549DA3;}
	.st224{fill:#D8D6DC;}
	.st225{fill:#D5D2DA;}
	.st226{fill:#919297;}
	.st227{fill:#666A70;}
	.st228{fill:#4F4442;}
	.st229{fill:#363C3D;}
	.st230{fill:#5A676B;}
	.st231{fill:#536E83;}
	.st232{fill:#4C5462;}
	.st233{fill:#BAB9B2;}
	.st234{fill:#AAA24A;}
	.st235{fill:#9E9B84;}
	.st236{fill:#B59430;}
</style>
<g>
	<g>
		<path class="st0" d="M196,1c5.3,0,10.7,0,16,0c9.3,5,16.8,12.3,25.1,18.5c1.6,1.2,2.6,3,3.9,4.5c0,4.3,0,8.7,0,13
			c-3.1,1.1-4.6-1.7-6.3-3.1c-7.1-5.9-14.2-6.9-22.3-1.9c-6.2,3.8-13.3,6.1-19.3,10.3c-4,2.7-4.4,5.8-1.3,9.6
			c3,3.6,6.9,6.2,10.6,8.9c1,0.7,1.8,1.7,2.6,2.6c0.6,0.8,0.9,1.7,0.8,2.8c-0.1,0.5-0.5,0.9-0.5,1.4c-0.1,4.8-2.9,6.8-7.3,7.2
			c-6.3-2.5-11.3-7.1-15.4-12c-5.7-6.6-13.8-6.7-19.8-4c-7.9,3.5-15.4,7.7-22.9,12c-2.8,1.6-4.1,3.8-2.6,7c0.5,1.1,0.8,2.2,0.7,3.4
			c-2,4.5-6.8,4.7-10.5,6.7c-1.9,0.4-3.5-0.1-5.1-1C118,83.6,113.5,84,109,86c-8.5,3.7-16.3,8.8-24.4,13.1c-4.4,2.3-4.7,5.7-1.5,9.4
			c1.2,1.4,2,3.1,3.6,4.1c2.6,1.2,4.4,3.2,6.2,5.3c2.1,1.5,3.8,3.6,5.9,5.1c2.3,1.7,4.4,3.6,7,4.7c5.1,1.4,9.8,0,14.4-2.2
			c3.4-1.7,6.7-3.7,10.2-5.1c1.8-1.1,3.7-1.9,5.8-0.7c1.6,1.6,1.6,3.8,2.2,5.7c0.3,1,0.4,2-0.2,3c-1.8,1.9-4.3,2.2-6.6,3.2
			c-3.2,1.7-6,4.2-9.8,4.5c-0.9,1-2.1,1.4-3.5,2c1.6-0.3,2.6-1.2,3.6-2.1c1.9-0.7,3,0.7,4.2,1.6c1,0.8,2.1,1.3,3.2,0.4
			c3-2.5,7.1-2.9,10.3-5c2.2-1.4,3.4,0,4.3,1.8c0.7,1.4,0.6,2.9,0.7,4.4c-0.4,1.8-1.6,2.8-3.3,3.3c-1.9,0.5-3.7,1.4-5.4,2.4
			c-5.5,3.2-6,5.9-2.1,11.1c0.8,1.8,3.8,2.4,3,5.1c-6,0-12,0-18,0c-4.7-1.4-9.3-1.4-14,0c-6.7,0-13.3,0-20,0
			c-0.4-4.3,3.2-4.9,5.8-6.2c4.1-1.9,8.2-3.8,11.5-7.1C91.7,150.3,83.6,158.4,73,161c-4.3,0-8.7,0-13,0c-0.8-3.4,2-4.2,4.1-5.4
			c6.2-3.6,12.8-6.4,19-9.9c5.8-3.2,6.4-7.7,1.4-12.2c-1.6-1.4-3.5-2.6-4.2-4.7c-0.8-2.4-2.9-3.7-4.4-5.5c-1.9-1.6-3.5-3.4-5.8-4.4
			c-1.6-2-4.4-2.8-5.4-5.5c-2.2-4.1-5.9-3.5-9.4-2.7c-2.4,0.5-4.3,0.5-5.5-1.9c-1.5-2.9-0.3-4.7,3.6-5.3c-3.1-0.2-6,0.7-8.9,1.8
			c-0.5,0.3-1.3-0.2-1.4,0.7c0,0.1,0.5,0.3,0.8,0.5c1.1,0.7,2.4,1.2,3.6,1.6c2.4,0.8,4,2.3,3.9,5c-0.1,2.6-1.9,4-4.3,4.8
			c-1,0.3-3.3-0.4-1.8,2.1c-0.7,1.6-2.4,1.8-3.7,2.7c-0.7,0.4-1.5,0.8-2.1,1.3c-1.3,0.8-1.8,2.3-2.8,3.4c-1.8,1.8-4.1,2.8-6.4,3.9
			c-2.2,1.1-3.8,2.6-4.5,5c-0.4,0.6-0.8,1-1.4,1.3c-1.2,1.9,1.2,1.8,1.6,2.7c2,3.5,4.9,5.7,8.8,6.6c4.7,3.3,8,8.2,12.7,11.5
			c0.8,0.6,1.1,1.6,0.5,2.6c-7.3,0-14.7,0-22,0c-10-5.9-18-13.9-25-23c0-8,0-16,0-24c9.9-4.9,19.7-10.1,29.9-14.5
			c2.2-1,4.4-2.1,6.1-4c0.4-1,0.7-2.1,1-3.2c0-4.5-3.4-6-6.6-7.6c-5.3-4.8-9.6-10.6-15.6-14.6c-2.8-2.7-6.1-1.3-9.2-0.9
			C4.7,69.4,2.8,70.3,1,69c0-10.3,0-20.7,0-31c0.9-0.6,2-0.8,2.9-0.3c7.1,3.6,13.6,0.8,20.1-1.7c5.9-2.2,11.3-5.5,16.9-8.5
			c7.2-3.8,7.6-7.5,1.6-12.9c-0.9-0.8-1.8-1.5-2.6-2.3c-1.5-2.9-4.4-4.4-6.7-6.5C31.7,4.6,29.9,3.4,31,1c5.3,0,10.7,0,16,0
			c2.5,2.2,6.3,2.5,8.1,5.8c1.6,6,7.8,8.9,15,7.2c3.3-0.8,6.3-2.9,9.9-3c1.7,0.2,2.3,1.7,3.2,2.9c2.3,2.9,4.7,4.1,8.3,1.6
			c1.5-1.1,3.4-1.8,5-2.8c1-0.6,2.1-1.1,3.3-1c4.7-0.4,8.9-1.9,12-5.6c1.1-1.5,0.1-3.5,1.3-4.9c8.7,0,17.3,0,26,0
			c0.5,3.5-1,7.8,3.8,9.6c0.4,0.2,0.8,0.5,1.2,0.8c6.6,6.4,12.8,13.3,22.1,15.9c4.1,1.1,7.6-0.3,11-1.9c6.2-3,12.7-5.8,18.6-9.5
			c5.6-3.6,5.8-4.7,1.8-9.9C196.3,4.4,195,3.1,196,1z"/>
		<path class="st1" d="M126.9,87.1c2.2-3.9,7.4-2.8,10-6.1c0.9-0.4,1.3,0.1,1.6,0.8c0.6,1.9-1.7,3-1.7,4.9c2.2-0.2,1.1-3.2,3.1-3.4
			c3.7-0.3,5.3,3.2,8.1,4.6c2.7,2.2,5.4,4.4,8.1,6.6c5.9,5,11.8,5.8,17.8,2.5c3.1-1.4,6.2-3,9.2-4.5c5.2-2.7,10.5-5.4,15.3-8.8
			c2.4-1.6,2.6-3.5,1.2-5.9c-0.7-1.2-2-2.3-1.6-4c0.8-1.3,0.3-4.6,3.4-1.9c1.2,1,1.5-0.7,1.5-1.5c0.1-1.9,0.5-3.6,2.2-4.6
			c0.2,0.1,0.4,0.3,0.6,0.4c0.7,1.3,1,3.2,3.2,2.1c0.5,0,0.9,0.1,1.3,0.3c1,1.6,2.1,2.9,4.3,2c7.4,1.7,13.4-2,19.6-5.1
			c2.1-1.1,4.1-3,6.9-1.4c0,2.7,0,5.3,0,8c-0.8,0.7-0.9,2.3-1.7,2.3c-5.3,0.4-7.6,5.3-11.8,7.4c-0.9,0.4-2,0.3-3.3,0.4
			c1.3,1.1,2.2,0.6,3.1,0.4c1.9-1.5,4-2.4,5.3-4.8c1.8-3.4,5.3-3,8.4,0.3c0,11.3,0,22.7,0,34c-0.8,0.6-1.7,0.5-2.6,0.2
			c-1.4-1.1-3-1.8-4.8-1.8c-1.8-1.1-3.6-1.5-5.4,0c-3.8,1.4-6.1,5.1-9.8,6.6c-5,1.4-10-1.5-15.1,0.5c-3.2,1.2-6.5,2.3-9.3,4.4
			c-1.6,1.2-2.2,2.6,0.4,3.5c1.3,0.9,2.8,1.6,3.7,3c1.2,2,1.1,4.9,4,5.6c2.4,1.2,6,0.5,6.8,4.3c-0.9,2.9,2.2,2.9,3.2,4.3
			c3.3,3.8,6.4,4.6,10.9,3.2c3.7-1.1,7.2-2.4,10.4-4.5c2.3-1.5,5-3.1,7.7-0.4c0,2,0,4,0,6c-1.6,1.3-0.9,2.7,0,4c0,3.3,1.3,8-0.4,9.6
			c-1.7,1.7-6.3,0.4-9.6,0.4c-10,0-20,0-30,0c-1.1-1.4-2.4-2.8-2.5-4.9c-0.3-4.8-3.5-7.6-7.2-10.1c-2.5-2.8-5-5.5-8.5-7.1
			c-1.7-1.3-3.6-2.2-5.2-3.7c-6.4-6-12.7-6.4-19.9-1.1c-2.7,2-5.7,3.3-8.6,4.7c-1.6,0.8-3.4,1.5-5.1,0.1c-1.9-1.3-1.2-3.7-2.4-5.6
			c-2.7,1.4-0.9,3.9-1.8,6.2c-2.6-6.1-5.9-2.5-8.5-0.5c-1.7,1.4-3.7,1.4-5.5,1.9c-1.7,0.5-1.6-1-0.6-2.1c1.1-4.3,5.6-4.6,8.3-7.1
			c1.8-0.9,3.8-1.4,5.3-2.8c3.7-2.1,7.3-4.3,10.8-6.6c0.8-0.7,1.8-1,2.9-1c0.9-0.2,1.8-0.4,2.5-0.9c-0.1-1-0.6,0-0.9-0.1
			c-1.2,0.2-2.4,0.5-3.4,1.3c-0.4,0.2-0.7,0.5-1.1,0.7c-1.8,1.3-3.9,1.9-6,2.2c-1.4,0.4-2.8,0.6-4.1,1.5c-0.8,0.4-1.7,0.5-2.5,0.1
			c-0.3-2-0.7-3.9-1-5.9c0-1.6,0.9-2.7,2.1-3.6c1.2-1.3,2.9-2.2,4.3-3.2c2.7-1.8,3.6-4.1,2.4-7.1c-0.6-2.1-2.9-2.5-4-4
			c-2.2-2.2-5-3.7-7-6.1c-1.4-1.6-3.1-2.8-4.7-4.1C127.4,90.8,126.1,89.4,126.9,87.1z"/>
		<path class="st2" d="M81,128c2,3.3,5.9,4.7,7.6,8.4c2.4,5.1,1.6,8.1-3.6,10.8c-7.1,3.6-14.1,7.3-21.1,10.9
			c-1.5,0.8-3.1,1.3-3.9,2.9c-4,0-8,0-12,0c-5.1-3.9-8.9-9.3-14.3-12.9c-3.4-1.8-5.6-4.9-8.2-7.5c-0.8-1-2.3-1.7-1.7-3.4
			c0.3-0.4,0.6-0.7,0.8-1.1c1.2-0.2,2.4-0.1,3.3,0.9c1.9,2.7,5.3,3.6,7.3,6.2c3.9,4.4,8.8,7.5,13.1,11.4c1.3,1.2,3.1,1.3,4.7,0.4
			c5.2-2.6,10.7-4.4,16-6.8c1.8-0.9,3.5-1.9,4.1-4.1c1.7-3.7,4-6.3,8.6-4.7c0.8,0.3,1.5-0.2,2.2-0.7c0.6-3-1.8-4.1-3.6-5.1
			c-3.3-1.9-6-4.4-8.3-7.4c-1.9-2.9-5.5-4-7.3-6.9c-3.1-2-6.1-2-9.5-0.5c-2.7,1.2-5.4,2.6-8.5,2.6c-0.7-0.2-1.3-0.6-1.7-1.3
			c-0.9-0.4-1.7-0.8-3-1.5c2.3-1.1,4.3-2.1,6.3-3.1c1.4-0.7,1.8-1.9,1.6-3.3c-0.2-1.5-1.2-1.8-2.6-1.6c-2.5,0.3-3.5-1.4-4.3-3.3
			c-0.3-1.1-0.1-2,0.8-2.7c1.3-2.4,4-3.2,5.9-2.3c2.4,1.1,4,0.1,6.1-0.5c-2,0.1,2.2,5.7-2.9,3c-1-0.6-1.9,0.4-2.2,1.4
			c-0.3,1.2-0.1,2.4,0.7,3.3c0.8,1,1.6,0.3,2.5-0.2c5.1-2.8,11.7-0.3,11.9,4.3c-0.2,3,3.4,2.3,4.2,4.4c2.5,1.8,4.9,3.8,7.2,5.9
			C78.3,125.2,80.2,126.1,81,128z"/>
		<path class="st3" d="M143.9,139c5.5-2.7,11-5.3,16.4-8.2c6.3-3.3,11.9-2.9,17.2,2.1c2,1.9,4.5,3.3,6.8,4.9
			c1.5,3.6,4.4,5.5,7.8,6.9c3.3,1.5,5,4.7,7.6,6.9c1.4,1.2,1.4,2.9,0.3,4.5c-1.2,4.2-5.2,3.6-8.1,4.9c-2.3,0-4.7,0-7,0
			c-0.4-0.6-0.7-1.2-0.5-1.9c2.8-7.1,0.3-12.6-5.3-17.2c-0.3-0.4-0.5-0.8-0.7-1.2c-3.4-4.1-6.5-8.5-14.1-7.8
			c1.9,1.1,3.1,1.8,2.8,3.2c-2.5,2.4-6.3,2.2-9.1,4.2c-5.5,0.4-8.7,4.5-12.7,7.4c-1.5,0.3-2.4-0.8-3.7-1.3c-3.4,0.1-4.8,3.4-7.4,4.8
			c-2.9,1.8,1.3,4.1-0.4,6c-0.5,0.2-0.8,0.1-1.2-0.2c-4.9-4.6-4.3-9.8,1.3-13.4C137.2,141.6,141.1,141.4,143.9,139z"/>
		<path class="st4" d="M196,1c1.7,1.8,3.3,3.7,5,5.5c2.9,3.1,2.8,6.2-0.5,8.5c-9,6.2-18.7,11.4-29.2,14.5c-3.6,1.1-7.5,0.1-10.5-2
			c-5.7-4-11-8.5-16.5-12.9c-0.7-0.6-1-1.7-1.4-2.5c0.8-0.9,1.8-0.6,2.7-0.3c2.8,2.3,5.6,4.5,8.4,6.6c4.2,3.2,8.1,4.4,12.2,0.1
			c0.8-0.1,1.8-0.3,2.5,0.1c6.2,3.5,11.5-0.4,16.9-2.2c2.7-0.9,2.8-3.3,2.4-5.8c-0.6-3.2-2.4-6.3-1-9.7C190,1,193,1,196,1z"/>
		<path class="st5" d="M241,41c0,4,0,8,0,12c-2.5,2.2-5.8,1.7-8.7,2.8c-4,0.5-7,2.1-7.6,6.5c-0.2,1.2-0.9,2.2-1.3,3.3
			c-1.7,4.8-4.5,6.2-9.2,4.6c-3.8-1.3-7.3-3.1-9.7-6.6c-1-1-1.8-2.1-2-3.5c0.6-5.2,3.9-7.6,8.7-8.4c5,2.2,9.7,1.9,14.2-1.3
			c1.1-1.5,2.8-2.2,3.7-3.8c-0.1-0.4-0.3-0.7-0.5-1c-0.5-0.8-0.8-1.7-0.7-2.6c0.9-4,3.7-4.7,7.1-4c1.3,0.2,2.5,0.6,3.9,0.8
			C239.8,39.8,240.4,40.4,241,41z"/>
		<path class="st6" d="M241,24c-4.7-0.9-7.4-4.8-10.9-7.4c-5.3-3.9-10.3-8.2-15.5-12.2c-1.2-0.9-2.4-1.7-2.6-3.4
			c8.7,0,17.5,0.1,26.2-0.1c2.3,0,2.9,0.3,2.8,2.8C240.8,10.5,241,17.2,241,24z"/>
		<path class="st7" d="M41.1,10.9c11.6,8.9,11.1,13.7-2,19.9c-6.4,3-12.9,6.1-19.4,9C13.2,42.6,6.8,42.9,1,38c0-1.7,0-3.3,0-5
			c1.9-2.1,4-0.6,6-0.3c8.8,1.7,17.2,1.2,24.7-4.3c4.4-3.3,6.6-7.4,4.6-13c-0.6-1.8-0.8-3.6,0.8-5C38.6,9.6,39.8,10.3,41.1,10.9z"/>
		<path class="st8" d="M1,138c6.4,3.1,10.4,9.1,15.6,13.5c3.4,2.8,6.9,5.7,9.4,9.5c-7.5,0-15-0.1-22.5,0.1c-2.2,0-2.6-0.4-2.6-2.6
			C1.1,151.7,1,144.8,1,138z"/>
		<path class="st9" d="M241,41c-0.7,0-1.4,0-2,0c-9.3-2.9-17.9-1.4-25.9,3.9c-0.6,0.4,0.2,0.1-0.4,0.3c-8.1,1.8-9.8,7.7-9.4,14.9
			c-4.1-0.7-4.8-4.1-5.2-7.3c-0.5-4.3,0.9-8.2,5.1-9.9c3.2-1.3,5.7-3,7.7-5.8c1.7-2.2,4.3-3.1,7.1-3.2c2.3-0.1,4.7-0.1,7-0.1
			c2,0,4-0.1,5.3,0.2c-7.7-4.9-14.9-0.4-22.1,3.2c-4.2,2.1-8.3,4.1-12.4,6.5c-4.6,2.6-4.7,4.9-0.7,8.3c3.2,2.8,5.8,6,6.8,10.2
			c-3.7-3-7.6-5.8-11.2-9c-4.5-4.1-4.3-8.8,0.8-11.9c8.1-4.9,16.5-9.3,25.2-13c5.6-2.3,11.1-1.3,16.1,2.2c2.8,2,5.5,4.3,8.2,6.4
			C241,38.3,241,39.7,241,41z"/>
		<path class="st10" d="M187,1c0.9,3.4,1.9,6.7,2.7,10.1c0.8,3.1,0,5.9-3.2,6.9c-5.8,1.8-11.4,5.8-18,2.5c-0.7-0.4-1.6-0.3-2.4-0.5
			c-7.5,1.3-13.7-0.9-18.4-6.9c-2-5.7-1.4-7,3.6-8.6c8,1,15.6,3.6,23.2,6.1c2.9-0.6,1.9-2.7,1.6-4.4c-0.3-1.8-1.2-3.5-0.1-5.3
			c0.7,0,1.3,0,2,0c4.2,3.1,3.4,8.7,6.2,13.1c1.6-2.6,0.5-4.6,0.1-6.6c-0.5-2.2-1.5-4.5,0.7-6.5C185.6,1,186.3,1,187,1z"/>
		<path class="st11" d="M241,141c-3.4-0.2-5.7,2-8.5,3.4c-4.9,2.5-9.7,5.3-15.7,4.1c-3.3-0.7-5.4-2.2-5.9-5.6
			c0.2-0.2,0.3-0.4,0.5-0.6c3.4-1.7,7.2,0,10.6-1.5c1.7-0.5,3.5-1.1,5.2-1.6c4.7-1.4,7-4.6,7.2-9.7c1.8-2,3.1-5,6.6-3.5
			C241,131,241,136,241,141z"/>
		<path class="st12" d="M205.3,62.9c2.2,1.7,4,3.8,6.7,4.9c6.6,2.7,9,1.2,10.9-7c3.3,1.7,5.8-0.3,8.6-1.6c3.1-1.5,5.4-4.8,9.5-4.2
			c0,3,0,6,0,9c-3.8,2.1-7.7,4-11.4,6.2c-4.9,2.9-10,3.5-15.3,1.7c-1.8-0.3-3.4-0.8-4.3-2.6c-0.2-0.2-0.5-0.4-0.8-0.4
			c-1.9-0.3-3.6-0.9-4-3.1c0,0,0,0,0,0c-0.4-0.6-0.8-1.2-1.2-1.8C204.1,63.3,204.6,62.9,205.3,62.9z"/>
		<path class="st13" d="M36.7,11.1c4.7,9.7,1.9,16.9-8,21.3C19.6,36.5,10.3,35.5,1,33c0-1.3,0-2.7,0-4c0.6-0.5,1.2-0.9,2-1
			c6.6,2.8,13.3,3.5,20.1,0.5c2.3-1,4.5-2.1,6.4-3.7c3-2.6,4-5.5,1.8-9.2c-0.9-1.5-2.1-3-1.9-5c0.6-2.3,2.2-3,4.4-2.9
			C35.6,8.1,36.8,9,36.7,11.1z"/>
		<path class="st14" d="M73,161c-0.1-1.1,0.2-1.8,1.3-2.3c6.9-3.6,14.3-6.2,20.3-11.4c2-1.7,5.3-1.6,8-2.9c1.9-1,3.5,1.3,4.2,2.6
			c1.1,2.1-1.2,2.4-2.6,3.3C98,154.2,90.7,156.1,85,161C81,161,77,161,73,161z"/>
		<path class="st15" d="M175,13c-7.6-2.8-15.8-4-23.2-7.3c-0.8-5.4,4.2-3,6.2-4.7c5.3,0,10.7,0,16,0c3.2,2.8,3,6.8,3.6,10.5
			C177.8,13.1,176.7,13.9,175,13z"/>
		<path class="st16" d="M34,9c-1.6,0-3.1,0.3-4,1.9c-2.1,1.7-4,0.2-6-0.3c-2-0.5-4-2-6,0c-0.6,0.4-1.2,0.7-1.9,0.7
			c-2.2-0.7-4.2-0.4-6,1c-1.5,1.1-3.1,1.9-5,1.6c-0.5-0.1-0.9-0.4-1.2-0.7C4.4,10.8,2.7,10.5,1,10c0-1.7,0-3.3,0-5
			c1.5-2.5,4-2.8,6.5-3c6.1-0.3,12.2-0.4,18.3,0.5C29.7,3.2,33.7,3.8,34,9z"/>
		<path class="st17" d="M79.9,11.9c-6.5,3.1-13.1,6-20.4,2.6c-3-1.4-6.9-2.5-5.5-7.4c0.4-3.3,3-3.8,5.5-4.4C62.4,2.4,65.2,1.8,68,1
			c1,0,2,0,3,0c-0.1,4.4-4.3,4-6.7,5.7c-1.7,1.2-5.5,2-1.4,4.9c2.9,1.3,5.8,1,8.6-0.2C79.5,6.9,87.8,2.9,97,1c1.3,0,2.7,0,4,0
			c0.6,2.3-1.2,2.9-2.6,3.5c-3.9,1.8-7.6,4.1-11.6,5.8C84.5,10.8,82.4,12.3,79.9,11.9z"/>
		<path class="st18" d="M1,100c0-2,0-4,0-6c2.1-2.6,5.3-3.7,7.8-5.7c0.4-0.3,0.8-0.5,1.2-0.7c2.1-0.3,3.9-1.8,6.1-1.4
			c2.4,0.8,3.3,3.6,5.8,4.4c0.8,0.7,1.1,1.6,1.1,2.7c-1.8,3.4-4,6.3-8.5,6c-4.2-2.8-7.2,1.8-11,1.9C2.5,101.3,1.7,100.7,1,100z"/>
		<path class="st19" d="M38.8,95.9c-2,3.2-5.4,4-8.5,5.6c-6.6,3.4-13.2,6.7-19.8,10.1c-3,1.6-6.2,2.3-9.5,2.4c0-0.7,0-1.3,0-2
			c1.8-3.5,5.3-4.7,8.4-6.5c2.1-1.3,4.4-2.1,6.3-3.8c2-2.2,4.8-1.6,7.2-2.2c4.4,0,7.6-3,11.4-4.6C36.2,94.1,37.7,93.5,38.8,95.9z"/>
		<path class="st20" d="M181,161c-6.7,0-13.3,0-20,0c-0.6-2.2,1-2.7,2.5-3.6c4.1-2.5,8.8-3.9,12.7-6.7c1.6-0.7,3.2-1.8,5.1-1.5
			c1.8,0.4,2.4,2.1,3.5,3.3C186.6,156.6,185,159.3,181,161z"/>
		<path class="st21" d="M158,1c-2,1.7-5.4,1.4-6.2,4.7c-5.5,0.7-3,4.5-2.7,7.3c-1.4,1.4-2.8,0.8-4.1,0.1c-0.7-0.3-1.4-0.6-2.1-0.9
			c-0.3,0-0.6-0.1-0.8-0.2c-5.2-5.8-5.3-7-1-10.9C146.6,1,152.3,1,158,1z"/>
		<path class="st22" d="M241,55c-4.1,3.4-8.8,5.8-13.3,8.6c-4.6,2.8-4.8,0.8-4.8-2.8c0.8-4.4,3.9-6,7.8-6.9
			c3.4-0.5,6.9-0.7,10.3,0.1C241,54.3,241,54.7,241,55z"/>
		<path class="st23" d="M241,117c0,1.3,0,2.7,0,4c-1.5,2.2-3.6,2.5-6,2.2c-1.7-0.5-2.9,0.2-4,1.5c-0.5,0.5-1.1,0.9-1.8,1.1
			c-0.5,0.1-0.9,0.1-1.4,0.1c-1.2-0.3-2.2-0.9-3-1.8c-1-1.8-2.9-3-3.5-5.1c0-0.5,0.1-0.9,0.2-1.3c1.3-1.7,3.9-2.3,4.5-4.8
			c0.3-0.4,0.6-0.8,1-1c2.1-1.2,4-3.1,6.8-1.7c1.8,0.7,1.5,3.3,3.6,3.8C238.9,114.5,239.8,115.9,241,117z"/>
		<path class="st24" d="M97,1c-7.9,4.8-16.7,8-25,12c-1.3,0.8-2.6,0.5-4,0.2c-1.4-1.7-0.3-3,0.8-4.3C74.1,4.6,80.3,2.3,87,1
			C90.3,1,93.7,1,97,1z"/>
		<path class="st25" d="M185,1c0.8,3.2,1.5,6.4,2.4,9.5c0.8,3,0.4,5.4-2.9,6.2c-3.6,0.9-3.3-2.1-3.8-4.2c-0.9-3.8-1.8-7.7-2.8-11.5
			C180.3,1,182.6,1,185,1z"/>
		<path class="st26" d="M1,10c2.5-1.1,4.9-2.6,8.4-2.6c-1.2,2.8-4.2,3.5-5.6,5.5c0.3,3,1.7,5.1,4.2,6.9c3.9,2.8,3.9,4.3,0.3,8.3
			c-1.7,1-3.8,0.3-5.5,1.2C2.2,29.2,1.6,29.1,1,29C1,22.7,1,16.3,1,10z"/>
		<path class="st27" d="M228.2,124.7c0.2,0,0.5,0,0.7,0c1.4-0.2,2.9-0.1,4.3,0c1.9-0.2,3.4-1.7,5.4-1.7c1-0.2,1.7,0.3,2.4,1
			c0,0.7,0,1.3,0,2c-2.5,0.8-3.7,3.6-6.4,4.1c-0.4,6-1.9,8-7.8,9.9c-3.5,1.1-6.9,2.3-10.7,1.9c-1.6-0.2-3.5,0.2-3.6-2.3
			c2.6-4,7-1.5,10.3-2.9c5.9-1.8,6.6-3.2,4.3-9.1C226.7,126.5,225.3,124.8,228.2,124.7z"/>
		<path class="st28" d="M70,10c-0.8,0.9-1.9,1.6-2,3c-2,0.7-4,0.8-6,0c-0.7-0.3-1.5-0.7-2.2-1c-3.2-1.6-3.6-3.1-0.1-4.9
			c3.8-2,7.9-3.3,11.3-6c2.7,0,5.3,0,8,0c0.7,2.4-1.4,2.6-2.7,3.3C74,5.4,72,6.8,69.9,8.1C68.6,8.9,69.9,9.4,70,10z"/>
		<path class="st29" d="M132.9,150c3.1-2.5,5.6-6,10.3-5.9c0.1,1.1-0.3,2.1-0.2,3.2c-0.2,0.6-0.5,1.2-0.8,1.8
			c-0.7,1.9-1.3,3.8,1.5,4.5c0.5,0.1,0.9,0.3,1.3,0.6c2.9,2.8,2.3,5-1.1,6.7c-1,0-2,0-3,0c-3.7-1.6-5-5.6-8.1-7.8
			C131.9,152.4,132.2,151,132.9,150z"/>
		<path class="st30" d="M99.8,12.9c-0.9,0.4-1.9,0.8-2.8,1.1c-0.4-0.3-0.6-0.8-0.6-1.3c0-1.8,1.8-2.1,2.8-3c2.5-1.1,4.9-2.6,7-3.5
			c-2,0.8-4.3,2.3-6.9,3.4c-1.9,0.8-3.6,2.4-5.9,1.9c-0.5-0.2-0.8-0.5-1.1-1c-0.3-0.7-0.3-1.5-0.1-2.2C96.6,4.1,102.4,2.7,108,1
			c1.7,0,3.3,0,5,0c0.8,1.8,1,3.6,0.9,5.6C109.6,9.6,105.1,12.2,99.8,12.9z"/>
		<path class="st31" d="M17,103.1c-5.4,2.8-10.1,6.9-16,8.9c0-4,0-8,0-12c1,0,2,0,3,0c0.2,0.1,0.4,0.1,0.7,0.2
			c1.1,0.4,2.3,0.6,2.7,1.9c0.4,0.3-0.7,1.3,0.3,1c1.5-0.4,3-1.1,4.6-1.5c0.5,0,1,0,1.5,0C15.1,101.5,16.2,101.9,17,103.1z"/>
		<path class="st32" d="M70,10c-2.1-0.6-5.1,2.6-6.1-0.2c-0.8-2.3,3.1-2.2,4.7-3.2C72,4.5,75.5,2.9,79,1c2.7,0,5.3,0,8,0
			C81.3,4,75.7,7,70,10z"/>
		<path class="st33" d="M226.8,80.8c0.7-4.1,5-3.5,7.4-5.5c1.8-1.6,4.5-2.2,6.8-3.3c0,2,0,4,0,6c-1.7,0.3-2.5-1.5-3.9-1.8
			c-0.8,1.2,1.4,1.8,0.7,2.5c-1.6,1.5-2.2-1.5-4-1.1c1.9,1.9,1.7,3.3-0.8,4.2c-1.7,0.6-3.2,1.5-4.8,2.3
			C225.5,83.9,226.3,82.3,226.8,80.8z"/>
		<path class="st34" d="M177,152c-4.9,3.8-11.3,5-16.1,9c-2.3,0-4.7,0-7,0c-0.3-0.4-0.4-0.8-0.3-1.3c0.8-1.7,2.7-1.9,3.9-3.1
			c2-1.8,4.6-1.9,6.9-2.7c1-0.9,1.6-2,2.8-2.7c1.7-1,3.7-1.5,5.6-2.1c0.5,0,0.9,0,1.4,0.1C175.5,149.8,176.7,150.5,177,152z"/>
		<path class="st35" d="M1,69c5.3-2.7,10.7-3.4,16.1-0.1c0,1.3-0.6,2.2-1.8,2.9c-1.1,0.4-2.3,0.3-3.4,0.7c-2.4,0.6-4.9,0.5-7,2.1
			C3.7,75.4,2.4,75.9,1,75C1,73,1,71,1,69z"/>
		<path class="st36" d="M108,1c-4.6,3.5-10.4,4.8-15.1,7.9c-0.8,2-2.1,3.4-4.4,3.2c-1.6-0.2-2.7-1.1-2.3-3C90.8,5.9,96.7,4.9,101,1
			C103.3,1,105.7,1,108,1z"/>
		<path class="st37" d="M34,9c-1.9-2.8-5.1-3.7-8-5.1C24.7,3.3,23.9,2.5,25,1c2,0,4,0,6,0c2.6,4.1,7.2,6.1,10.1,9.9
			c-1.5,0.1-3,0.2-4.4,0.3C35.8,10.4,34.9,9.7,34,9z"/>
		<path class="st38" d="M25,1c0.4,1,0.7,1.9,1.1,2.9C17.6,2.3,9.2,1.9,1,5C0.2,1.6,1.6,0.7,5,0.9C11.7,1.2,18.3,1,25,1z"/>
		<path class="st39" d="M60.1,4.1c-2,1-4,2-6,3C51,5.8,47.9,4.7,47,1c4,0,8,0,12,0C59.8,1.9,60.8,2.7,60.1,4.1z"/>
		<path class="st40" d="M181,161c1.8-2.5,4.7-4.6,2.1-8.2c-0.2-2.8-0.9-5.5-2.8-7.8c-0.9-1.2-1.7-2.5-0.3-3.9
			c7.9,5.3,9.4,11.2,5,19.9C183.6,161,182.3,161,181,161z"/>
		<path class="st41" d="M1,75c1.1-0.6,2.1-1.2,3.2-1.7c3.2-0.5,5.3,0.5,5.5,4.1C7.7,80.8,4.9,82.1,1,81C1,79,1,77,1,75z"/>
		<path class="st42" d="M1,91c0-1.3,0-2.7,0-4c1.3-2.8,1.7-6.9,6.6-4.8C8,82.6,8.3,83,8.5,83.5c0.7,0.9,0.9,2,0.8,3.1
			C7.8,90.4,5.1,92,1,91z"/>
		<path class="st43" d="M144,161c2-2.1,2.4-4.3-0.1-6.4c-0.3-0.3-0.5-0.7-0.5-1.2c0.1-0.7,0.5-1.2,1.1-1.6c0.8-0.5,1.7-0.8,2.7-0.6
			c0.9,0.3,1.8,0.6,2.4,1.4c0.9,1.2,1.3,2.5,1.6,3.9c0,1.6-0.3,3.1-1.2,4.5C148,161,146,161,144,161z"/>
		<path class="st44" d="M132.9,150c1.9,4.3,6.4,6.6,8,11c-0.7,0-1.3,0-2,0c-1.7-1.4-3.8-2.2-5-4.2C132.7,154.7,129,152.9,132.9,150z
			"/>
		<path class="st45" d="M241,117c-1.7-0.3-3.4-0.7-5.2-1c-1.2-5.1-0.8-5.6,3.7-5c0.5,0.3,1,0.7,1.4,1C241,113.7,241,115.3,241,117z"
			/>
		<path class="st46" d="M233,126.9c-1.4-0.7-2.8-1.5-4.1-2.2c0.4-0.2,0.7-0.5,1.1-0.7c1.5-1,2.7-2.7,4.9-2.2c2-0.8,4.2,0.7,6.1-0.8
			c0,1,0,2,0,3c-0.9,0-1.9,0.1-2.8,0.1C235.8,123.9,234.7,125.8,233,126.9z"/>
		<path class="st47" d="M175,13c2.1-0.4,2-1.8,1.5-3.4c-0.9-2.9-1.7-5.7-2.6-8.6c0.7,0,1.3,0,2,0c1.5,3.1,1.9,6.6,2.5,9.9
			C179.1,14.5,177.6,14.7,175,13z"/>
		<path class="st48" d="M1,91c2.1-2,6.2-1,7.1-4.9c2-2.3,4.3-3.2,7.1-1.3c0,3.5-3.4,2.9-5.2,4.2l0.1,0c-3,1.5-5.4,4-9,4
			C1,92.3,1,91.7,1,91z"/>
		<path class="st49" d="M192,161c2.7-1.6,5.4-3.3,8.1-4.9c0.5,1.6,2.2,3,0.9,4.9C198,161,195,161,192,161z"/>
		<path class="st4" d="M141,1c-3.9,4-0.8,7.4,1,10.9c-5.3-2.9-6-5.6-3-10.9C139.6,1,140.3,1,141,1z"/>
		<path class="st50" d="M105,161c4.7-2.5,9.3-2.7,14,0C114.3,161,109.7,161,105,161z"/>
		<path class="st51" d="M1,81c2.7-1.3,5.7-1.9,8.1-3.9c0.2-1,0.8-1.8,1.8-2.2c1.2-0.5,2.6-0.9,3.4,0.6c0.6,1.2-0.1,2.2-1.1,3
			c-1.6,1.2-3.4,1.9-5.2,2.7C5.4,80.8,3.7,84,1,83C1,82.3,1,81.7,1,81z"/>
		<path class="st52" d="M60.1,4.1C59.7,3.1,59.3,2,59,1c3,0,6,0,9,0C65.6,2.6,63,3.8,60.1,4.1z"/>
		<path class="st53" d="M1,83c2-0.9,4-1.9,6.1-2.8c0.9,1,0.8,2-0.1,3c-3.2-0.5-4.3,2-5.9,3.9C1,85.7,1,84.3,1,83z"/>
		<path class="st54" d="M1,93c3-1.3,6-2.7,9-4c-2.5,2.5-5.3,4.7-9,5C1,93.7,1,93.3,1,93z"/>
		<path class="st55" d="M241,151c-0.7-0.5-1.4-0.9-1.9-1.5c-0.8-0.7-2.3-1.3-1.2-2.7c1-1.3,2.1-0.2,3.1,0.3
			C241,148.3,241,149.6,241,151z"/>
		<path class="st56" d="M150,161c-1.1-1.4-0.9-2.7,0.2-3.9c2.5-0.6,3.7,0.6,3.9,3c0,0.3-0.1,0.6-0.1,0.9
			C152.6,161,151.3,161,150,161z"/>
		<path class="st57" d="M134,156.8c2.2,0.8,3.8,2.2,5,4.2c-0.7,0-1.3,0-2,0c-1.4-1.3-2.7-2.7-4.1-4
			C133.3,156.9,133.6,156.8,134,156.8z"/>
		<path class="st12" d="M241,54c-3.4,0-6.9-0.1-10.3-0.1c3.3-1.8,6.9-0.5,10.3-0.9C241,53.3,241,53.7,241,54z"/>
		<path class="st58" d="M137.1,23.6c5.4,2.2,9,6.6,12.6,10.9c2.1,2.5,1.4,5.6-1.4,7.3c-9.6,6-19.5,11.3-30.2,14.8
			c-4.2,1.4-8.6,0.1-12.2-2.7c-3.1-2.4-6-5.2-8.9-7.8c0.3-1.4,1.4-2,2.6-2.4c2.3-0.5,4.1,0.3,5.6,2.1c2.1,2.6,3.5,1.4,4.7-0.9
			c2-2.6,5.6-2.8,7.8-5.2c2.3-1.9,5.9,1.6,7.8-1.8c1.8-2.5,3.9-4.5,7.2-5.3c1.8-0.4,3.4-1.9,4.2-3.8
			C137.4,27.1,136.6,25.3,137.1,23.6z"/>
		<path class="st59" d="M198,73.8c5.4,4.9,5.6,6.1,2.1,11.3c-2.5,0.4-2.3-1.8-3-3.1c-4.7-9-12.5-14.7-20.9-19.8
			c-3.6-2.1-7.4-0.9-10.5,0.5c-6.9,3.1-12.1,8.5-16.6,14.4c-0.3,0.9-1,1.5-1.5,2.2c-1.1,2.2,0.8,4,0.8,6.1c0,1.4,1.2,3.2-1.3,3.7
			c-2.3-1.7-4.5-3.4-6.8-5.2c-1-0.3-1.9-0.7-2.2-1.8c-0.4-0.4-0.7-0.7-1.1-1.1c-4.4-6-3.9-9.2,2.5-12.7c7.6-4.2,15.2-8.2,23-12
			c7.5-3.6,14.3-1.5,20.2,4.4C187.3,65.5,192.8,69.4,198,73.8z"/>
		<path class="st60" d="M205.3,62.9c-0.5,0.4-0.9,0.7-1.4,1.1c-0.7-0.6-1.4-1.1-2-1.7c-2-3.6-5.1-6.1-8.2-8.5c-6-4.6-5.9-8.4,0.8-12
			c7-3.8,14.2-7.3,21.4-10.7c7.3-3.4,15.2-0.9,22,7.4c-6.9-3.1-13-2.5-19-2.5c-3.6,0-6.6,1-8,4.7c-0.7,1.9-2.1,2.8-4,3.2
			c-7.7,1.9-9.5,9.7-3.7,15.9c0.4-0.4,0.7-0.4,0.8,0.2C203.7,61.4,204.7,62,205.3,62.9z"/>
		<path class="st61" d="M126.9,87.1c2.7,2.7,5.3,5.4,8,8c-1.2,3.3-3.7,1.9-5.6,1.4c-3.1-0.8-6-2.5-9.4-2.8c-5-3.5-7-3.2-12.4,2.3
			c-1.9,5.1-5,9.6-7,14.7c-1.5,3.8-3.3,8-8.6,8.3c-1.9-1.7-3.9-3.4-5.8-5.1c-0.6-2.1-1.2-4.3,0.3-6.2c4.9-6.2,9.5-12.8,15.3-18.1
			c6.1-5.6,13.3-6.9,21.2-4.6C124.2,85.7,125.5,86.4,126.9,87.1z"/>
		<path class="st62" d="M100.1,44.9c-1,0.4-2.1,0.7-3.1,1.1c-3.4-2.3-6.7-4.7-9.3-7.9c5.8-7.1,13-12.4,20.6-17.4
			c5.2-3.5,11.2-4.7,16.9-6.5c2,0.1,3.2,1.7,4.7,2.6c2.9,1.8,3,3.7-0.2,5.4c-0.8,0.2-1.6,0.6-2.4,0.5c-4.1-0.3-8.6-1.5-6.9,5.7
			c0.5,1.9-2.5,2.7-4.2,3.7c-0.7,0.2-1.4,0.3-2.1,0.3c-3.9-0.6-4.7,3.5-7.3,4.9C104.4,39.7,100,40.3,100.1,44.9z"/>
		<path class="st63" d="M122.8,85c-0.4,0.2-0.9,0.7-1.3,0.7c-10.8-3-17.6,2.4-23.4,10.6c-2.9,4-6.1,7.8-9.5,11.4
			c-1.8,1.9-1.1,4.5-2.7,6.3c-8.9-6.4-11.9-12.8,1.3-18.9c6.5-3,12.6-6.7,19-9.8C111.7,82.6,117.3,81.5,122.8,85z"/>
		<path class="st64" d="M125,15c-0.7,0.6-1.4,1.6-2.2,1.8c-10,2.3-17.6,8.9-25.8,14.5c-1.7,1.2-3.3,2.5-3.8,4.4
			c-0.8,3.4-2.8,3.4-5.4,2.3c-5.3-4.7-5.1-8.8,0.9-12.4c2-1.2,4.2-1.9,6.2-2.8c5.1-1.9,9.8-4.7,14.7-6.9
			C114.5,13.7,119.6,11.7,125,15z"/>
		<path class="st65" d="M91.9,119c6.5-6.4,9.7-14.7,12.7-23.1c0.2-0.6,0.5-1.2,1.4-1c1.3,0.7,1.7,2.1,2.7,3.1c2,2.2,4.7,4.1,4.2,7.7
			c-0.4,1.4-1.8,2.3-1.9,3.9c1.5,4.7-0.4,7.9-4.5,10.1c-2.9,1.5-5.2,4.1-8.7,4.5C95.4,123,93.6,121.1,91.9,119z"/>
		<path class="st66" d="M35.8,68.1c-1.3-0.8-0.4-1.4,0.2-2c1.6-1.6,3.2-0.5,4.9-0.1c4.3,2.3,9,4,13,7c2.3,1.7,3.6,0.2,4.8-1.4
			c0.4-0.2,0.9-0.3,1.4-0.4c2.9,0.2,5.7,1.3,8.7,1.4c6.5,0.2,8.5-1.2,10.3-7.3c4.9-1,3.9-5.2,4.7-8.4c0.4-0.2,0.9-0.4,1.4-0.3
			c1.5,0.4,2.5,1.6,3.4,2.7c3.2,3.9,3.1,5.3-0.4,9.2c-1.4,1.6-2.9,3.1-4.5,4.6c-6.1,3.2-11.9,7-18.8,8.6c-8,1.5-13.8-3.5-20-7
			C41.6,72.8,39,70,35.8,68.1z"/>
		<path class="st67" d="M107.9,109c-0.2-2.8,2.2-2.4,3.7-3.1c1.3-3.5,3.5-5.1,7.4-3.6c2.1,0.8,4.6-0.8,6.6,0.9c2,2.3,3.5,5,6.5,6.2
			c0.4,0.3,0.7,0.6,1.1,0.9c1.9,2.4,6.3,3.2,5.2,7.6c-0.6,1-0.8,2.5-2.5,2.3c-1.9-0.3-3,2-5,1.6c-4.2-0.1-6.1-3.9-9.2-5.6
			c-2.2-2-4.3-3.7-7.8-2.9C111.1,113.8,109.5,111.1,107.9,109z"/>
		<path class="st68" d="M107.9,109c2.7,2.3,4.9,3.7,8.8,1.3c2.7-1.6,4.3,2.4,6.3,4.1c0.9,1.9,0.8,3.7-0.9,4.9
			c-5.5,3.8-11,7.5-17.4,9.7c-3.1-0.4-5.1-2.5-7-4.8c1.4-2.6,3.8-4,6.2-5.4C110.6,115.1,110.5,115,107.9,109z"/>
		<path class="st69" d="M35.8,68.1c3.7,0.3,5.6,4.1,9,5.1c5.9,4.8,11.8,9.4,20.2,6.9c6.7-1,12.3-4.7,18-8c2.5-1.8,4.9-3.9,7.1-6
			c2-2.1,1.4-3.9-0.5-5.6c-1.8-3.5-6.6-4.8-7.3-9.2c0.1-0.5,0.4-0.9,0.8-1.2c4.2,2.8,7.7,6.3,11.1,9.9c2.9,3,2.6,6.6-1.1,8.9
			c-9.3,5.9-19,10.9-29.2,14.8c-4.5,1.7-9.4,0.8-13.3-2.3C45.5,77.2,40.7,72.5,35.8,68.1z"/>
		<path class="st70" d="M104.8,129.1c3.5-5.4,9.8-6.9,14.8-10.3c1.7-1.1,3.4-2,3.5-4.3c2.6,2.5,5.8,4.2,8,7.2
			c-4.8,3.2-9.9,5.9-15.3,7.9C112,131,108.3,131.1,104.8,129.1z"/>
		<path class="st71" d="M67.8,50c0.7-0.4,1.4-0.8,2.1-1.1c2.1-0.5,3.9-1.8,6.1-1.8c4,0.6,4.8,4.1,6.3,7c-0.1,2.9,3.1,6.9-2.5,8.1
			c-0.8-0.1-1.5-0.3-2.1-0.9c-3.2-3.6-6.6-6.7-12-4.9c-1.6,0.1-3.3,0-4.9,0.1c-1.8,0.7-4-0.2-5.6,1.4c-1.3,0.9-2,2.1-2.4,3.6
			c-0.9,1.5-1.1,3.5-2.6,4.7c-1.5,0.3-2.4-0.5-3.2-1.6c-0.5-1.2-1.1-2.4-1-3.7c0.2-1.6,1.5-2.7,2.2-4.1c3.5-4.9,8.5-6.6,14.4-6.5
			C64.2,50.4,66,50.9,67.8,50z"/>
		<path class="st72" d="M44.5,39.2c-2.6-0.1-4.8-1.6-5.4-3.7c-0.7-2.6,1.8-3,3.8-3.4c5.2-0.9,10-3.2,14.6-5.8
			c2.1-1.2,4.1-1.4,5.8,0.6c0.8,1,1.1,2.6,0.1,3.1C57.3,33.2,50.9,36.1,44.5,39.2z"/>
		<path class="st73" d="M13.9,45.9c7.7-0.2,13.5-5,20-8.2c2.4-1.2,4.6-0.3,5.6,1.7c1.3,2.5-1.1,2.7-2.8,3.4c-6,2.6-11.9,5.3-17.8,8
			C17.1,49.4,14.3,48.9,13.9,45.9z"/>
		<path class="st74" d="M181,37c-1.9-0.4-4.5-0.5-4.6-2.9c-0.1-2.3,2.9-3,4.3-3.4c9.1-2.7,17.2-7.4,25.5-11.8
			c1.7-0.9,3.5-1.4,5.2-0.5c1.8,0.9,3.5,2.2,3,4.6c-0.5,2.1-2.4,2.2-4,1.9c-2.6-0.4-4.4,1.2-6.5,2.1c-1.8-3.3,1.2-3.7,2.5-4.8
			c-2.9,1.6-5.8,4.1-9,5.9c-4,2.8-8.5,4.7-13.2,6.1C182.7,34.6,182,35.9,181,37z"/>
		<path class="st75" d="M67.8,50c-1.9,1.6-4,2.1-6.4,2c-5.2-0.1-9.3,1.9-12.3,6.1c-2.2,1.6-4.5,1.2-6.8,0.4
			c-1.8-1.8-5.1-2.6-4.5-6.2c4.6-4.2,10.2-6.7,16.1-8.6c2.4-0.8,4.7-1,5.3,2.4c-1.7,1-3.9,0.8-5.7,1.8c-2.5,0.5-4.5,2.1-6.7,3.1
			c-0.7,0.4-1.8,0.4-1.9,1.4c-0.1,0.8,0.8,0.9,1.5,1c0.7,0.1,1.5,0.2,2-0.1c3.6-2.7,8.4-3,11.7-6.3C62.6,47.9,64.7,50.2,67.8,50z"/>
		<path class="st76" d="M115.8,30.9c1.3-0.9,2.6-1.7,4.2-2.8c-1.3-1.8-4.5-3-2.4-5.6c1.9-2.3,4.6-3.3,7.4-1.6c1.6,1,2.7,0.6,4-0.1
			c2.6-0.7,5.2-1.1,7,1.7c0.4,0.4,0.7,0.7,1.1,1.1c1.8,1.8,4.3,3.4,1.8,6.4c-1.9-0.5-2.6-2.4-4.2-3.3c-6.6-2.5-10.2,1.3-13.5,6.1
			c-0.7,0.7-1.4,1.5-2.4,1.7C116.7,34.3,115.8,32.9,115.8,30.9z"/>
		<path class="st77" d="M131,56.5c5-2.2,9.8-4.3,14.5-6.5c1.8-0.8,3.5-1.1,5.1,0.4c0.9,0.8,1.5,1.8,0.7,3.1c-1,1.5-1.7,3.2-4.1,2.4
			c-1.1-0.4-2.1,0.8-3.1,1.3C139.8,59.5,135.5,60.7,131,56.5z"/>
		<path class="st78" d="M14.9,71c0.7-0.7,1.4-1.4,2.1-2.1c5.7,4.3,11.7,8.4,15.1,15c0,0.2-0.1,0.5-0.1,0.7c-0.4,0.9-1.1,1.5-2,1.8
			c-1.4,0-2.7,0.8-4.1,0.6c-0.4-0.1-0.9-0.3-1.2-0.6c-1.3-1.1-0.7-3.6-2.8-4.2c-0.9-0.6-1.7-1.4-2.2-2.5c-0.7-2.2-2-4-3.7-5.5
			C15,73.4,14.1,72.5,14.9,71z"/>
		<path class="st79" d="M27.1,137.8c-0.8-0.6-1.6-1.2-2.3-1.8c-1.5-2.6-0.8-4.2,1.9-5.5c3.2-1.4,6.2-3.2,9.3-4.7
			c1.8-0.8,3.1-0.2,3.9,1.6c0.4,2.1-0.6,3.4-2.1,4.6c-1.8,1.3-2.8,3.1-3.9,5C31.8,139,29.5,139,27.1,137.8z"/>
		<path class="st80" d="M181,37c-0.9-2.7-2.4-4.7,2.8-5.2c4.1-0.4,9.3-1.2,12.2-5.6c1.2,1.3,1.2,2.7-0.1,4
			C192,34.8,186.6,36.1,181,37z"/>
		<path class="st81" d="M195.9,30.1c0-1.3,0-2.6,0.1-4c3.8-1.9,7.4-4.3,11.6-5.6c1.5-0.4,2.9-0.9,4.2,0.1c0.7,0.5,1.1,1.3,0.7,2.1
			c-0.4,0.8-1.1,0.6-1.7,0.3c-3.6-1.2-5.6,0.6-6.9,3.7c-1.4,1-3.5,0.6-4.3,2.9C199.1,31.5,197.3,31.2,195.9,30.1z"/>
		<path class="st82" d="M136,22.5c-2.1-1.5-4.6-1.6-7-1.7c1.2-0.9,3.4-1.7,0.7-3.3c-1.5-0.9-2.8-2.3-4.8-2.5
			c-5.9-2.1-11.2-0.4-16.5,2.3c-4.3,2.2-8.4,5.1-13.5,5.6c5.9-3.7,12.1-6.8,18.6-9.2C122.1,10.5,130.9,14.2,136,22.5z"/>
		<path class="st83" d="M53,46c2-1.6,4.1-0.9,6.1,0.1c0.3,0.3,0.6,0.6,0.9,0.9c0.3,1,0.7,2.1-0.4,2.6c-4,1.9-7.9,3.9-12.1,5.3
			c-1.8,0.6-5,1-5.6-1.4c-0.7-2.6,1.9-3.8,4.2-4.4C50.2,50.7,51.8,50,53,46z"/>
		<path class="st84" d="M137,126c0.6-0.4,1.3-0.9,1.9-1.3c0.9-1.5,3.3,0.5,3.8-1.7c2.1-2.6,4.9-0.5,7.3-1.2l0.1,0.1
			c-1.6,5.4-5.9,7.3-10.9,8.2c-1.9,0.1-1.9-0.9-1.3-2.3C137.6,127.2,137.3,126.6,137,126z"/>
		<path class="st85" d="M38.8,95.9c-4.3-1.2-6.6,3-10.2,3.8c-1.9,0.4-3.4,3-5.8,1.2c0-0.2,0-0.5,0-0.7c2.6-2.7,1.8-7.5,6-9.1
			c0.7,0,1.4,0.2,2,0.4c1.5,0.2,2.9,0.4,4.3-0.3c2.2-1,3.7,0,4.9,1.8C39.7,94,39.2,94.9,38.8,95.9z"/>
		<path class="st86" d="M79.9,17.2c0.6,1.3,3,2.8,1,4c-2.5,1.6-5.3,4.2-8.8,1.7c-2.9-1.8-2.5-3.7,0.1-5.2
			C74.6,16.4,77.1,15.1,79.9,17.2z"/>
		<path class="st87" d="M96.9,12.8c0,0.4,0.1,0.8,0.1,1.2c-2.4,1.4-4.6,3.1-7.2,4.2C86.3,19.8,84,17.6,82,15c-1-2.9,0.9-4.5,3.1-4
			c2.7,0.6,5.1-0.3,7.7-0.3l0.2,0.4C94,12.4,95.8,11.7,96.9,12.8z"/>
		<path class="st88" d="M39,128c-0.7-1.2-1.8-1.8-3.1-2.2c0.8-1.1,0.4-3,2.2-3.5c1.7,0.4,2.8,2.5,5,1.8c-0.3-1.7-2.6-1.6-2.6-3.4
			c1.3-1.2,3-0.6,4.5-0.9c0.7,0.1,1.4,0.2,2.2,0.4c2,0.2,3.4,1.3,4.3,3.1c0.7,1,1.2,2.1,1,3.4c-2.1,3.5-5.5,4.7-9.3,5.1
			C41.1,131.3,39.5,130.2,39,128z"/>
		<path class="st89" d="M134.1,133c-2.2,3.1-5.9,4.1-8.9,5.8c-1.1-1-2.2-2-3.2-3l0.1,0.1c0-0.5,0-1.4,0.1-1.4c3.5-0.5,4.9-5,8.8-4.4
			C132.2,131,133.9,131.1,134.1,133z"/>
		<path class="st90" d="M40.5,120.7c0.2,0,0.3,0,0.5,0c2.7,0,5.8-0.4,6.1,3.3c0.2,2.2-1.8,3-3.8,3.1c-3.2,0.1-5.6-0.9-5.2-4.8
			C38.9,121.8,39.7,121.2,40.5,120.7z"/>
		<path class="st91" d="M37.7,52.2c1.4,1.9,3.1,3.6,5.1,4.8c1.5,1,3.6,1.6,2.5,4.2c-0.8,0.8-1.8,1.1-2.9,0.9
			c-3.1-2.7-7.8-3.9-8.7-8.9C34.5,51.2,36.2,52,37.7,52.2z"/>
		<path class="st19" d="M40.1,93c-2.1-1.3-4-0.6-6.1,0.3c-1.2,0.5-2.8,2.6-4-0.2c0.2-2,3.5-1.7,3.1-4.2c-0.2-1-1-1.7-1.5-2.5
			c-0.4-0.8-0.2-1.6,0.1-2.4c0.1-0.1,0.3-0.2,0.4-0.3C36.9,85.1,39.9,87.9,40.1,93z"/>
		<path class="st92" d="M134.1,133c-1.9,0-3.2-0.7-3.2-2.8c1.9-2,4.1-3.1,7-2.4c0.4,0.8,0.9,1.5,1.3,2.3
			C138.6,133,136.5,133.2,134.1,133z"/>
		<path class="st93" d="M102.7,74.6c-0.1,4-2.3,5.3-5.9,4.3c-1.5-0.4-3-0.6-5.8-0.4c3-1.6,4.3-3.6,6.8-3.6
			C99.6,75.8,100.9,72.1,102.7,74.6z"/>
		<path class="st94" d="M86,82c0.8-2.7,2.7-3.6,5.1-2.4c1.5,0.8,2.8,3,2.3,4.3c-1.2,2.9-3.5,0.5-5.4,0.4C86.7,84.1,86.7,82.7,86,82z
			"/>
		<path class="st95" d="M36.6,65.2c-1.9-1.6-3.8-3.1-5.6-4.7c-1.7-1.5-2.2-3.2-0.4-5c3.9,1.7,6.8,4.3,8.2,8.4
			C38.4,65,37.8,65.6,36.6,65.2z"/>
		<path class="st96" d="M18.2,116.1c-0.1,2.1-3.1,3-2.1,5.8c-1.9-1.8-5.1-2.7-4.7-5.2c0.3-1.8,3.3-2.2,5.5-2
			C17.6,114.9,18.1,115.4,18.2,116.1z"/>
		<path class="st97" d="M33.6,53.3c2.8,2.6,5.6,5.1,8.4,7.7c0.5,0.7,0.6,1.4,0.2,2.1c-0.6,0.6-1.3,0.7-2.1,0.6c-3-2.8-6.7-4.8-8-9
			C32.6,54.2,33.1,53.7,33.6,53.3z"/>
		<path class="st98" d="M42,63c0-0.7,0-1.4,0-2.1c1.1,0,2.1,0,3.2,0c0.5-0.6,1.1-0.6,1.6-0.1c0.2,1,1.2,1.7,0.8,2.9
			c-1.1,3.4-3.3,4.6-6.7,3.5c-1.7-0.4-3.3-0.9-5-1.3c0.1-0.3,0.3-0.6,0.5-0.8c0.5-0.4,1.1-0.8,1.6-1.2c0.4-0.6,1-0.7,1.7-0.5
			C40.7,63.7,41.6,64.5,42,63z"/>
		<path class="st99" d="M30.5,112.9c-0.1,3.8-4.1,2-5.5,4c-0.5-0.9-1.7-1.5-1-2.9c-0.1-3.7,2.6-3.1,4.9-3.3
			C30,111,30.5,111.7,30.5,112.9z"/>
		<path class="st100" d="M102.7,74.6c-1.7-0.4-3.1,2.9-4.9,0.3c7.1-4.7,7.1-4.7,10.8-0.6c-1.9,1.9-2.5-1.5-4-1
			c-0.7,1.2,2,1.6,0.8,2.6C104.2,77,103.6,75.2,102.7,74.6z"/>
		<path class="st101" d="M79.9,17.2c-1.8,0.1-3.7-0.2-5.4,0.3c-2.7,0.8-4.4,2.4-2.4,5.5c-1.9,0-3.3-0.9-3.5-2.8
			c-0.2-1.9,1.7-2.4,2.9-2.8C74.2,16.6,77,12.6,79.9,17.2z"/>
		<path class="st102" d="M121.9,135.9c0.4,1.2-0.8,1.7-1.1,2.5c-0.3,0.9,1.7,3.1-1,2.5c-1.9-0.5-3.9-2.3-4.4-4.3
			c-0.4-1.7,1.8-2,3.1-2.6c0.6-0.3,1.5,0,1.3,0.8c-1.2,3.9,2.2-0.4,2.2,1.3C122,136,121.9,135.9,121.9,135.9z"/>
		<path class="st103" d="M92.8,10.7c-2.1,1-4.3,1.5-6.6,1.3c-2.3-0.3-3.7,0.7-4.2,3c-0.7-1-1.4-2.1-2.1-3.1c1.8-1.5,3.7-2.7,6.2-2.8
			c2.3,3.4,4.5,0.7,6.8-0.2C92.8,9.5,92.8,10.1,92.8,10.7z"/>
		<path class="st104" d="M39.9,63.9c-0.6,0-1.1,0.1-1.7,0.1c-2-3.3-5.9-4.9-7.6-8.5c0.5-0.3,1.1-0.6,1.6-0.8c2.5,3,6.1,4.9,8.1,8.5
			C40.4,63.5,40.3,63.7,39.9,63.9z"/>
		<path class="st105" d="M26,139.9c3.2,2.1,5.1,5.5,7.7,8.2c-4.3-0.5-6.5-3.7-8.9-6.7C24.9,140.6,25.3,140.1,26,139.9z"/>
		<path class="st106" d="M30.5,112.9c-0.5-0.7-1.1-1.5-1.6-2.2c0.3-2.5,2.2-2.5,4-2.7c1.8-0.4,2.4,0.3,2.1,2.1
			C34.6,112.8,33,113.4,30.5,112.9z"/>
		<path class="st107" d="M86,82c0.9,0.6,1.7,1.2,2,2.3c-0.9,3-4.2,2.1-6,3.7c-0.6-0.3-0.6-0.7-0.1-1.2C79.3,81.9,85.4,84.2,86,82z"
			/>
		<path class="st108" d="M43.8,104.3c0.2,1-0.1,2-0.8,2.7c-1,1.1-1.8,2.5-3.5,1c-0.8-0.7-1.3-1.5-1.1-2.5c0.3-1.9,1.8-1.5,3.1-1.4
			C42.2,104.1,43,104.2,43.8,104.3z"/>
		<path class="st109" d="M24,114c0.3,1,0.7,1.9,1,2.9c-1.6,0.4-2-2.3-3.8-1.5c-0.9,1.4,1.8,1.7,0.4,3.3c-1.6,0.1-2.1-2-3.5-2.5
			c-0.4-0.5-0.9-0.9-1.3-1.4C19.1,113.2,21.5,113.1,24,114z"/>
		<path class="st110" d="M72.8,88.8c1-1.7,2.7-1.9,4.4-1.9c1.1-0.5,2-0.6,1.7,1.1c-0.5,3.5-2.5,3.4-5.1,2.2
			C73.7,89.7,73,89.5,72.8,88.8z"/>
		<path class="st111" d="M14.6,49.3c-0.2,1.3,1.9,2.9,0.5,3.4c-2.1,0.9-3.4-1.4-4.6-2.8c-1.2-1.4-0.2-2,1.3-1.9
			C13.2,47.4,14.2,47.8,14.6,49.3z"/>
		<path class="st36" d="M99.8,12.9c4.7-2.1,9.4-4.2,14-6.4C110,10.5,105.6,13.2,99.8,12.9z"/>
		<path class="st112" d="M26,139.9c-0.4,0.5-0.8,1-1.2,1.4c-2.3-1.7-4.3-3.5-4.4-6.7c2.2-0.3,2,2.1,3.4,2.5
			C24.6,138.1,25.3,139,26,139.9z"/>
		<path class="st113" d="M14.6,49.3c-0.9-0.4-1.9-0.9-2.8-1.3c0.7-0.7,1.4-1.3,2.1-2c2.6,0.8,3.4,3.2,5,4.9
			C17,51.7,16.1,49.7,14.6,49.3z"/>
		<path class="st114" d="M81,128c-1.5-1.1-3-2.3-4-4c-0.6-0.7-0.6-1.4,0-2.1c2.6,1,2.7,5,6.1,5.1C82.6,127.9,81.8,127.9,81,128z"/>
		<path class="st115" d="M83,50c0,0.4-0.1,0.7-0.1,1.1c-0.3,0.3-0.7,0.5-1.2,0.6c-2.2-0.5-2.8-2.7-4.3-4c-0.4-0.6-0.5-1.2-0.5-1.9
			C80.4,45.2,81.3,48.2,83,50z"/>
		<path class="st116" d="M72.8,88.8c0.4,0.5,0.7,1,1.1,1.5c0.1,1.7-5.5-3.5-2.3,1.9c0.4,0.7-0.4,0.8-0.8,0.8
			c-0.8,0.1-1.5,0.1-2.1-0.7c-0.5-0.7-0.9-1.5-0.4-2.2C69.4,88.5,70.9,87.8,72.8,88.8z"/>
		<path class="st117" d="M67.7,42.2c1.3,0.2,2,1,2.1,2.2c0.1,0.9-0.1,1.8-1.2,1.4c-1-0.3-2.1-0.9-2.3-2.2
			C66.1,42.7,66.8,42.3,67.7,42.2z"/>
		<path class="st118" d="M35,110c-0.7-0.7-1.4-1.4-2.1-2.1c0.1-1.7,0.9-2.7,2.4-1.4c1.1,1,1.8,2.5,2.8,3.9
			C37.5,111.2,36.2,109.4,35,110z"/>
		<path class="st119" d="M70,118.1c-2.5-1.6-5-3.2-7.5-4.8c1.1-0.6,2.3-0.3,3.4-0.1c1.4,1.8,4.1,2.4,5,4.8
			C70.7,118.4,70.3,118.5,70,118.1z"/>
		<path class="st120" d="M79,88.1c-0.3-0.9-0.9-1.1-1.7-1.1c0.3-1-1-2.5,0.5-3c2.2-0.6,2.3,2.5,4.1,2.8c0,0.4,0.1,0.8,0.1,1.2
			C81,88,80,88.1,79,88.1z"/>
		<path class="st121" d="M70,118.1c0.3,0,0.7-0.1,1-0.1c2.8,0.1,3.6,3.3,6,4c0,0.7,0,1.4,0,2.1C74.4,122.4,72,120.4,70,118.1z"/>
		<path class="st122" d="M77,45.9c0.3,0.4,0.6,0.8,1,1.1c-0.4,0.8-1.4,0.4-2,0.9c-2,0.3-4.1,0.6-6.1,1C72,47.4,74.3,46.2,77,45.9z"
			/>
		<path class="st123" d="M148,76.7c-0.2-0.8-0.7-2-0.4-2.3c6.7-5.2,11.3-13,20.5-14.9c4.7-0.9,8.5-0.1,12.1,2.6
			c4.3,3.3,8.5,6.9,12.7,10.3c4,3.3,6.5,7.4,7.1,12.6c-4.5,4.5-10.7,5.9-16,9c-1.7,0.6-1.5-0.7-1.5-1.5c0.2-2.1,1.6-3.6,2.8-5.2
			c4-5.2,4.1-5.6,0.3-11.3c-2.6-3.9-4.6-8.6-10.3-9.1c-3-1.3-5.9,0.1-8.8,0.7c-2.3,0.5-3.1,2.2-2.3,4.6c0.9,3-0.8,5-3.4,5.7
			C156.5,79.1,152,80.9,148,76.7z"/>
		<path class="st124" d="M176.1,66c1-1.3,1.9-1.1,3.3-0.2c5.4,3.5,8.3,8.9,11,14.4c1.1,2.3,0.3,4.4-1.5,6.3
			c-2.1,2.2-4.7,4.1-4.9,7.5c-2.8,2-5.9,3.5-9.1,4.8c-2.3-0.9-4.5,0.1-6.7,0.1c-5.2,0-7.6-2-7.4-6.3c3.2-2.7,7.6-2.8,11.2-5
			c7.5-4.6,8.8-8.6,4.7-16.3C175.7,69.6,174.2,67.9,176.1,66z"/>
		<path class="st125" d="M162.2,92.9c-1.7,3,1,2.6,2.5,3.3c3.3,1.5,7.4-0.2,10.3,2.7c-8.1,4.3-15.1,2.3-21.5-3.8c-2.1-2-4.3-4-6.5-6
			c0.1-3.7-3-7.2-1.1-11.1c4.3,0.3,7.6,2.1,10,5.8c1.1,3.5,4.9,4.7,6.5,7.7C162.5,92,162.4,92.4,162.2,92.9z"/>
		<path class="st126" d="M120,93c1.6-2.1,3.3-1.4,5.2-0.4c3,1.6,6,3.4,9.7,2.6c3,1.2,4.6,4.1,7,6.1c-2.5,4.1-6.3,2.6-9.8,2.2
			c-1.4-0.2-2.5-1.5-4-1.7c-1.6-0.7-3.1-0.5-4.8-0.1c-4.9,1.3-7,0-9-5.1C115,93.6,116.6,91.8,120,93z"/>
		<path class="st127" d="M138.5,117.9c-2.3-2.2-4.5-4.4-6.8-6.5c2-5.7,7.5-8,14.3-6.2c2.7,4.6,2.3,6.9-1.9,9.8
			C142.3,116.1,140.3,116.9,138.5,117.9z"/>
		<path class="st128" d="M146,105.1c-5,1.6-10.3,2.5-14.3,6.2c0,0,0.2-0.2,0.2-0.2c-1.7-1.9-4.3-3-4.9-5.8c-0.3-2.1,0.5-3.7,1.9-5.1
			c4.2,2.4,8.6,1.7,13,1C143.6,102.1,144.9,103.5,146,105.1z"/>
		<path class="st129" d="M196.8,129.8c-0.6-1.5-2.7-1.9-2.6-3.9c-1.9-2.6-1.2-4.4,1.5-6.1c5.4-3.4,11.2-4.6,17.5-3.5
			c2.7,1.1,1.3,3.3,1.4,5.1c-1.2,2-3.1,2-4.7,1.1c-2.7-1.5-5.3-1.3-8.1-0.9c4.3,0.1,8.5,0.1,10.3,5.1c0.1,0.7-0.1,1.4-0.5,2
			c-2.1,1.5-3.9-0.2-5.9-0.5C202.3,126.4,200,130.7,196.8,129.8z"/>
		<path class="st130" d="M213.8,117.4c-4.5-0.4-8.9-0.6-13.2,1c-3.5,1.4-6.6,3-6.4,7.5c-1.5,0.2-0.7,3.1-2.4,2.4
			c-1-0.4-1.6-2-2.2-3.1c-0.8-1.4,0.6-1.8,1.4-2.7c7.5-8.3,17.2-7.9,27-6.7c0.8,0.2,1.4,0.7,1.7,1.5c0.1,0.8-0.1,1.6-0.7,2.2
			C216.3,120.9,214.9,119.6,213.8,117.4z"/>
		<path class="st131" d="M213,140c5.7,1.6,11.1,0.5,16.3-2.1c2.1-1,4.6-2.2,3.2-5.6c-0.6-1.4,1.1-1.8,2.1-2.2
			c2.5,1.6,2.4,3.2,0.5,5.5c-3.2,4-7.7,5.3-12.3,6.6c-4,1-8.1-0.4-12,0.8c0,0,0,0,0,0c-2.7,0.1-4.6-1.3-6.6-3.5
			c1.4-0.3,2.6-0.5,3.7-0.8C210.1,137.3,211.8,137.5,213,140z"/>
		<path class="st132" d="M213,140c-1.7-0.5-3.3-0.9-5-1.4c-1.6-2.9-5-1.9-7.2-3.4c0.1-0.5,0.4-0.9,0.8-1.2c3.2-1.4,6.2,0.2,9.2,1
			c2.4,0.7,4.5,0.8,6.5-1c1.7-1.5,3.6-1.5,5.5-0.4c1,0.7,1.6,1.7,1.8,3c0,0.5-0.2,0.9-0.5,1.2C220.6,140.4,216.3,137.6,213,140z"/>
		<path class="st0" d="M137.9,82.1c0.7,0.6,1.5,1.2,2.2,1.8c-0.1,0.1-0.2,0.3-0.2,0.4c0,2,2.5,3.8,1,5.5c-1.8,2.2-3.7-2.4-6.1-0.5
			c-0.6,0.5-1.5-1-1.7-2c-0.2-1.2-0.2-2.4,1.1-3C135.6,83.7,137.2,83.6,137.9,82.1z"/>
		<path class="st133" d="M219,116.9c-0.3-0.3-0.7-0.6-1-1c3.1-2.5,4.8-7,9.8-6.9c2.1,0.9,2,1.7-0.8,4c0,0.4,0,0.7,0,1.1
			c-1,2.1-3.6,2.2-5,3.9c0,0.3,0,0.6,0.1,0.9C219.9,119.9,219.8,117.8,219,116.9z"/>
		<path class="st132" d="M196.8,129.8c2.9-1.5,4.9-5.9,9.2-2.8c0.6,3.2-2.4,4.1-3.8,6.1c-0.4,0.6-0.7,1.1-1.1,1.7
			c-0.1,0.1-0.2,0.3-0.3,0.4C197.5,134.8,197.6,132,196.8,129.8z"/>
		<path class="st134" d="M226.8,80.8c0.1,1.2,0.1,2.5,1.3,3.3c-1.5,1.2-3.4,3-4.9,1c-1-1.3-4.1-2.5-2.4-4.9
			C222.9,77.3,224.8,80.6,226.8,80.8z"/>
		<path class="st135" d="M192.1,144.7c0.6,1.1,1.3,2.2,1.9,3.3c-0.2,0.2-0.3,0.4-0.5,0.6c-3.4-3-6.9-5.8-10.2-8.9
			c-1.1-1.1,0-1.6,1-1.9C187.1,139.9,189.9,141.9,192.1,144.7z"/>
		<path class="st136" d="M200,98c-1.2,4.5-4.1,2.2-6.2,1.3c-1.4-0.6-0.7-2.4-0.1-3.6c0.8-1.5,1.6-1.2,2.7-0.2c0.7,0.6,1.7,1,2.5,1.5
			C199.9,96.7,200.2,97.1,200,98z"/>
		<path class="st137" d="M200,98c-0.4-0.4-0.7-0.7-1.1-1.1c0.1-1.6-0.3-3.5,1.9-3.9c1.2-0.2,2.6-0.7,3.7,0.4
			c0.6,0.6,0.7,1.5,0.4,2.3C204,97.9,202,98.1,200,98z"/>
		<path class="st138" d="M220.2,102.6c-1,1.7-2.9,2.5-4.8,2.9c-1.3,0.3-1.5-1.1-1.2-2.1c0.5-1.9,1.4-3.4,3.8-3
			C219.1,100.6,220.3,100.9,220.2,102.6z"/>
		<path class="st139" d="M227,113c0.3-1.3,0.5-2.7,0.8-4c2.2-3.9,4.3-1.2,6.4,0.1c0.4,0.7,0.2,1.2-0.3,1.7
			C231.3,110.5,229.6,113.2,227,113z"/>
		<path class="st140" d="M183,102.1c1.4,0,3,0.8,3.7-1.3c1.4,1.2,2.2-2.3,3.6-0.4c0.5,0.8,0.8,1.7,1.3,2.5c-2.1-0.7-2.3,2.9-4.6,1.9
			c-1-0.5-2.2-0.6-3.3-0.9C182.1,103.7,182.5,102.9,183,102.1z"/>
		<path class="st141" d="M183,102.1c0.2,0.6,0.4,1.2,0.7,1.8c0.5,0.9,1,1.8,2.1,3.6c-3.3-1.1-4.7-4.4-9.1-3.3
			C179.4,102.3,180.5,99.9,183,102.1z"/>
		<path class="st142" d="M233.9,110.7c0.1-0.6,0.2-1.1,0.3-1.7c2.2-0.7,4.1-0.3,5.3,1.9c-3.9-0.4-3.7,2.4-3.7,5
			C233.1,115,234.5,112.5,233.9,110.7z"/>
		<path class="st0" d="M205.1,65.8c1.3,1,2.7,2,4,3.1c-1.6,1-1.4,2.8-2.1,4.8C204.9,71.1,204.8,68.5,205.1,65.8z"/>
		<path class="st143" d="M153.8,118.6c2.7-3.9,4,0.9,6.3,1.4c-1.4,0.6-2.8,1.2-4.2,1.8C154.4,121.3,153,120.7,153.8,118.6z"/>
		<path class="st144" d="M153.8,118.6c0,1.5,1.5,2.1,2.1,3.2c-1.2,0.5-2.5,0.9-3.7,1.4c-0.3-1.2-1.3-1.6-2.4-1.7
			C149.1,117.6,151.9,118.7,153.8,118.6z"/>
		<path class="st0" d="M210,69.3c1.4,0.9,2.9,1.7,4.3,2.6c-2-0.1-1.1,2.7-3.2,2.9C210.7,73,210.3,71.1,210,69.3z"/>
		<path class="st0" d="M142.8,123c-0.1,3.2-2.5,1.3-3.8,1.7C138,119.4,142,124.7,142.8,123z"/>
		<path class="st145" d="M149.9,121.4c1.6-0.5,3-0.8,2.4,1.7c-0.7-0.4-1.4-0.8-2.1-1.2c0,0-0.1-0.1-0.1-0.1
			C150,121.8,149.9,121.4,149.9,121.4z"/>
		<path class="st0" d="M75,145c-1.1,1.9-2.7,3.4-4.6,4.3c-5.6,2.7-11.3,5.3-17,8c-2.2,1.1-4.4,0.8-6-0.8c-4.4-4.2-9.8-7.4-13.4-12.4
			c1.1-2.4,3.8-2.4,5.6-3.9c7.5-1.8,8.2-1.5,11.9,4c2.4,4.8,5.7,6.4,10.8,4.8c2.8-0.9,5.7-1.8,7.9-3.8C71.7,143.8,73.3,143.3,75,145
			z"/>
		<path class="st146" d="M75,145c-2.2-0.2-3.6,1.4-5.2,2.5c-7.3,4.8-14.6,4.6-19.5-0.4c-0.7-0.7-1-1.3-0.3-2.1
			c3.7-1.9,7.4-1.5,11.2-0.3c1,1,1.6,2.4,3.7,1.1c3.1-2,5-4.6,5.8-8c0.4-0.8,1-1.6,1.8-2.1c1.3-0.5,2.6-1.1,3.8-1.8
			c5.6-1.7,7.4,2.4,9.5,6.1c-1.1,1.2-2.9,2.1-3.9,1.5C77.4,138.6,76.4,142,75,145z"/>
		<path class="st147" d="M85.9,139.9c-1.2,0-2.3-0.1-2.8-1.4c-1.3-3.5-4.1-3.7-7.2-3.5c-4-3.2-9.5-4.4-12-9.5
			c2.9-3.4,6.1-1.9,9.3-0.8c3.7,3.4,7.4,6.6,11.1,10.1C85.6,136.2,87.6,137.5,85.9,139.9z"/>
		<path class="st148" d="M49.9,124.1c-0.9-1.3-1.8-2.6-2.8-3.9c3.4-1.6,6.7-3.3,10.1-4.9c3.7-1.7,6.2,0.6,8.8,2.6c1,3-1,4-3.3,4.7
			C58.3,120.7,54.3,124.3,49.9,124.1z"/>
		<path class="st149" d="M62,121c1.7-0.6,3.9-0.5,4.1-3.1c2.4,2.3,4.7,4.6,7.1,6.9c-3.1,0.4-6.2,0.8-9.3,1.2
			c-3.2,3.2-6.7,2.4-10.3,1c-1.5-1.5-0.8-2.5,0.6-3.5C56.6,121.9,59.2,121.2,62,121z"/>
		<path class="st150" d="M40.1,141c-0.8,3.5-3.7,2.9-6.1,3.1c-2.2-2.2-5.7-2.9-6.9-6.2c1.9-0.9,4.2-0.5,5.9-2
			c0.4-0.3,0.8-0.5,1.2-0.7c2.9-0.3,4.8,1.4,6.6,3.3C41,139.4,41,140.3,40.1,141z"/>
		<path class="st151" d="M167,135.8c-2.1-1.4-4.6-0.4-6.9-1c7.6-6.7,15.8-4.4,19.6,5.3c-0.4,0.3-0.8,0.4-1.3,0.4
			c-2.1-0.8-4-2.3-6.5-2C170.1,138,167.8,138.2,167,135.8z"/>
		<path class="st152" d="M146.9,151.9c-0.6,0.3-1.3,0.6-1.9,0.8c-1.9-1.9-1.8-3.8,0.1-5.7c3.1-4.5,7-7.7,12.6-8.3
			c1.8-0.1,3.6-1.3,5.3,0.2c0.4,2.6-1.8,2.2-3.2,2.6c-5.5,1.6-10.4,3.9-12.2,9.9C147.4,151.7,147.1,151.8,146.9,151.9z"/>
		<path class="st153" d="M163,139.6c-1.8-0.3-3.5-0.5-5.3-0.8c2.6-2.7,5.8-3.3,9.3-3c2,0.4,3.9,0.8,5.9,1.2c0.7,0.8,0.7,1.7,0.1,2.6
			C169.7,141.9,166.4,142.8,163,139.6z"/>
		<path class="st154" d="M179.1,139.9c0.2,0,0.4,0.1,0.6,0.1c0.1,0.4,0.1,0.7,0.2,1.1c0.3,1.7,1.5,2.9,2.6,4.2
			c2.1,2.4,2.8,4.8,0.6,7.5c-0.7-0.9-1.5-1.8-2.2-2.8c-1-0.4-2.1-0.7-2.6-1.9c-0.2-0.4-0.2-0.8-0.3-1.3c0.6-1.8-1.1-3.3-0.7-5.1
			C177.6,140.8,178.2,140.2,179.1,139.9z"/>
		<path class="st155" d="M145.1,147.1c0,1.9-0.1,3.8-0.1,5.7c-0.5,0.5-0.9,0.9-1.4,1.4c-3.8-1.7-1.2-5-1.8-7.5
			c0.5-0.9,1-1.7,1.4-2.6C143.8,145.1,144.5,146.1,145.1,147.1z"/>
		<path class="st156" d="M145,13.1c1.4,0,2.8,0,4.1-0.1c4.6,5,11.5,4.2,17,6.9c-3.8,5.9-5.2,6.2-10.9,1.7
			C151.7,18.9,147.9,16.5,145,13.1z"/>
		<path class="st157" d="M203.9,60.1c-0.3-0.1-0.5-0.1-0.8-0.2c-0.8-2.7-2-5.2-1.7-8.2c0.3-3.6,1.8-5.9,5.6-6.5
			c4.2-0.6,7.5-3.2,10.7-5.8c1.2-1,2.5-1.6,4-1.7c6-0.3,11.9,0.2,17.3,3.1c-2.1-0.3-4.2-0.7-6.3-0.7c-2.1,0-3.1,1.6-3.6,3.5
			c-0.5,1.3-1.9,1.1-2.9,1.5c-1.3,0.9-2.5,2-4.2,1.8c-5.7-1.1-8.2,0.2-9.2,4.7c-0.1,0.4-0.4,0.8-0.7,1.1
			C208.4,54.4,205.1,56,203.9,60.1z"/>
		<path class="st158" d="M212,53c-0.1-0.3-0.1-0.5-0.1-0.8c-1-2-0.1-3,1.8-3.7c2.5-0.9,4.7-3.1,7.8-2.3c1.7,0.7,3.9,0.2,5.2,2
			c0.4,1.2,1.4,2.4,0.3,3.7c-1.3,0.7-2.7,1.3-3.8,2.1C219,56.9,215.4,56.7,212,53z"/>
		<path class="st159" d="M226,49c-1.3-0.7-2.6-1.4-3.8-2.1c-0.3-0.2-0.4-0.4-0.4-0.6c0.1-0.2,0.2-0.4,0.3-0.4c1.9,0,1.6-2.4,3.1-2.8
			c1.5,1.8,3.2,3.1,5.8,2.1c0.3-0.1,0.6-0.2,1-0.2c1.2,1.8,1,3.2-1.4,3.4C228.9,48.5,227.5,49,226,49z"/>
		<path class="st160" d="M230.8,45.2c-0.4,2.5-2.1,1.9-3.7,1.6c-2-0.4-2.1-2.1-2.1-3.7c1.3,0.2,2.6,0.5,3.9,0.7
			C229.6,44.3,230.2,44.7,230.8,45.2z"/>
		<path class="st157" d="M226,49c1-1.1,2.2-0.9,3.5-0.9c2.1,0,2.8-1.1,2.3-3c1.7,1.8,1.5,3.4-0.9,3.8c-2.2,0.3-2.7,2-4,3.1
			C227.2,50.8,226.5,49.9,226,49z"/>
		<path class="st161" d="M173.6,19.7c-6.5-1.9-13.7-3.8-20.7-6.1c-1.7-0.5-3.4-2-2.4-4.2c0.9-1.9,2.5-1,3.9-0.5
			c6.7,2.4,13.5,4.4,20.5,6c1.6,0.4,3.5,0.9,3.1,3C177.6,19.7,175.9,19.9,173.6,19.7z"/>
		<path class="st1" d="M210.9,142.9c3.9-1.4,8-0.2,12-0.8C219,143.8,214.9,142.7,210.9,142.9z"/>
		<path class="st162" d="M2.8,29.3c1-2.3,3-2.4,5.1-2.3c1,0.1,1.7,0.9,2.7,1.1c0.4,0,0.8,0.1,1.2,0.1c4.4-2.4,1-4.1-0.5-5.8
			c-3.4-3.8-3-7,1.4-9c3.8-1.8,7.4,0.3,7.8,4.6c0,0.5-0.2,1-0.2,1.5c-0.1,1.3,0.8,1.7,1.7,2c0.7,0.2,1.3,0.2,1.8-0.5
			c0.6-0.9,0.4-1.9,0-2.8c-0.7-1.4-2.4-1.7-3.4-2.8c-1.4-1.5-3.6-2.7-2.7-5.4c-0.9-1.8-1.8-3.5,1.6-2.9c3.8,0.6,7.2,2.2,10.6,3.8
			c7,7.2,6.2,13.7-2.8,18.1C19.3,33,11,33.5,2.8,29.3z"/>
		<path class="st163" d="M17.8,10.1c2.1,2.9,5.1,4.6,7.7,6.9c1.5,1.3,2.8,2.7,1.3,4.6c-1.8,2.4-4.4,3-7.1,1.7c-2.2-1-2.2-2.7-1-4.5
			c1.7-2.5-0.6-3.4-1.9-4.2c-2.5-1.5-4.4,0.6-6,2.1c-1.7,1.6,0,2.6,1,3.7c0.9,1,1.9,1.8,2.9,2.8c1.5,1.5,3.5,3.2,1.7,5.5
			C14.8,30.6,12.7,32,10,30c0.7-0.7,1.4-1.4,2.1-2.1c-0.7,0.7-1.4,1.4-2.1,2.1c-1.6-0.3-1.9-1.7-2-3c2-1.8,2.3-3.4-0.1-5.2
			c-1.6-1.2-3-2.6-4.4-4c-1.8-1.8-1.7-3.4,0.4-4.9c0.4,0,0.8,0.1,1.3,0.1c1.2,2,2.6,1.5,4.2,0.4c2-1.5,4.1-2.8,6.6-3.3
			C16.5,10.1,17.1,10.1,17.8,10.1z"/>
		<path class="st164" d="M15.8,10.1c-1.7,3.7-5.7,4.6-8.3,7.4c-0.7,0.8-1.9,0.4-2.7-0.4c-1.4-1.4-0.6-2.7,0.2-4
			C8.6,11.7,11,6.7,15.8,10.1z"/>
		<path class="st32" d="M62,13c2,0,4,0,6,0c1.3,0,2.7,0,4,0C68.7,14.6,65.3,14.6,62,13z"/>
		<path class="st165" d="M17,103.1c-1.3-0.1-2.6-0.1-3.9-0.2c-1.2-1.3-0.7-2.8-0.6-4.3c0.4-0.6,0.8-1.1,1.6-0.8
			c4.1,0.7,5.3-3.1,7.9-4.9c1.8-0.8,2.6,0.6,3.4,1.7c0.2,2.5-2.2,3.9-2.6,6.2c0,0,0,0,0,0C21.1,102.3,18.4,100.9,17,103.1z"/>
		<path class="st48" d="M22.8,81.2c2.9,0.7,3.4,2.4,2.3,4.9c0.9,3.6-2.5,3.6-4.2,5c-1.2,0.4-2.8,3.7-3.2-0.6
			c-0.1-1.2-1.1-2.2-1.7-3.3c-0.1-2.7,3-3,3.8-5C20.6,81.3,21.7,81.3,22.8,81.2z"/>
		<path class="st166" d="M21,91.2c-0.5-3.2,3.4-2.9,4.2-5.1c0.2,0,0.4,0,0.6-0.1c2.5,3.1,0.7,5.8-0.8,8.5c-2,1.4-1.8-1.3-3-1.6
			C21.6,92.4,21.3,91.8,21,91.2z"/>
		<path class="st54" d="M21,82.7c0.2,3.5-3.5,2.8-4.9,4.5c-2.1,0.5-3.8,2.1-6.1,1.8c1.3-1.9,4.1-1.8,5.2-4.1c0-1.5,0.8-2.5,2.2-3.1
			C18.7,81.4,20,81.5,21,82.7z"/>
		<path class="st167" d="M14.1,97.8c-0.4,0.4-0.8,0.7-1.2,1.1c-2.7,2.6-5.7,2.7-8.9,1.1c0,0,0,0,0,0c2-1,4-2.2,6-3.1
			C11.5,96.3,13.2,95.5,14.1,97.8z"/>
		<path class="st168" d="M179.2,148c0.5,0.7,1.1,1.3,1.6,2c-1.3,0.7-2.5,1.4-3.8,2c-1.3-0.2-2.4-0.8-3.1-1.9
			C174.8,147.2,176.6,146.5,179.2,148z"/>
		<path class="st169" d="M224,137.9c0-0.3,0-0.6,0-0.9c0-1.2,0.7-2.3-0.1-3.5c-0.8-1.4-0.6-2.9-0.3-4.4c1.1-2.1-1.4-4.5,0.5-6.5
			c0.7-0.3,1.4-0.2,1.9,0.4c0.7,0.6,1.5,1.2,2.2,1.7c-1,1.4,0.4,2,0.9,3C231.6,132.7,229.6,136.6,224,137.9z"/>
		<path class="st170" d="M226,123c-0.7,0-1.3,0-2,0c-2.8,1.3-4.1-0.7-5.4-2.6c-0.1-0.5-0.1-1,0.3-1.4c0-0.7,0-1.4,0.1-2.2
			c1,0.7,2.1,1.3,3.1,2C223.4,120.2,225.3,121.1,226,123z"/>
		<path class="st171" d="M226.3,120.3c1.6-2,3.7-3.2,6.3-3.6C231,118.9,228.8,119.8,226.3,120.3z"/>
		<path class="st172" d="M222,118c0.4-2.9,3.1-2.9,5-3.9C227.1,117.6,224.1,117.2,222,118z"/>
		<path class="st173" d="M234.9,121.8c-1.6,0.8-3,2-4.9,2.2C231.8,120.6,232.7,120.2,234.9,121.8z"/>
		<path class="st174" d="M233,126.9c0.8-2.6,2.2-4.1,5.1-2.8C236.7,125.5,235.1,126.6,233,126.9z"/>
		<path class="st175" d="M141.7,146.7c2.4,2,0.5,5.2,1.8,7.5c0.1,0.2,0.2,0.3,0.3,0.5c-0.3,0-0.6,0.1-0.9,0.3
			c-1.3,0.8-2.3,0.5-2.4-1c-0.2-1.9-0.4-3.9,0.2-5.9C141.1,147.6,141.4,147.1,141.7,146.7z"/>
		<path class="st44" d="M140.8,148c0.8,2.3-1.5,5.6,2.2,6.9c-1.2,1.9-2.4,1.7-2.8-0.4C139.8,152.4,139.5,150.1,140.8,148z"/>
		<path class="st176" d="M99,10c1.8-4.7,6.5-5.1,10.2-6.9c0.8-0.4,2-0.1,2.4,1.1c0.3,0.9-0.4,1.6-1.1,2C106.8,7.9,103.5,10.7,99,10
			L99,10z"/>
		<path class="st177" d="M96.9,12.8c-1.2,0.7-2.5,1.6-3.9,0.7c-1.1-0.7-0.3-1.6,0-2.4c1.9-1.1,3.6-2.7,6-1.1c0,0,0,0,0,0
			C98.9,11.4,97.6,11.9,96.9,12.8z"/>
		<path class="st178" d="M4,100c3-0.4,5.9-0.7,8.9-1.1c2.1,1.2,0.1,2.7,0.2,4c-0.4,0-0.7,0.1-1.1,0.1c-1.8,0.3-3.4-0.4-5-1
			C5.7,101.7,4.1,102,4,100z"/>
		<path class="st179" d="M7,102c2-1.3,3.4,0.1,5,1c-2.9,0.9-5.7,2.5-9.1,2.6C3.7,103.5,6.6,104.2,7,102z"/>
		<path class="st180" d="M179.2,148c-1.8,0.7-3.5,1.4-5.3,2.1c0,0-0.4,0-0.4,0l-0.4,0c-3.7,0-6.3-1.7-7.7-5c0.2-3.4,3.4-3.2,5.4-4.6
			c2.8-1.1,3.9,1.6,5.9,2.6c1,1.3,3.3,1.8,2.3,4.2C179.1,147.5,179.1,147.7,179.2,148z"/>
		<path class="st181" d="M168,151.9c-1.6,0.8,0.8,3.8-2.1,4c-1.4-1-3.2-1.3-4.6-1.1c-3.8,0.6-6.1-1.2-7.8-4.2
			c1.3-3.9,4.2-4.8,7.9-4.5C163.2,148.5,168.2,147.3,168,151.9z"/>
		<path class="st182" d="M168,151.9c-1.1-2-3.2-1.9-5-2.3c-2.1-0.4-1.6-1.4-0.8-2.7c0.3-2,1.3-3.1,3.5-2.3c3.2,0.8,5,3.7,7.5,5.4
			C171.6,151.1,170.3,152.9,168,151.9z"/>
		<path class="st183" d="M154.1,160c-1.3-1-2.6-2-3.9-3c-0.6-1.2-2.3-2.2-1.1-3.9c0.5-2.1,1.9-2.4,3.7-2c2.2,1.9,5.8,2.8,5.3,6.9
			C157.2,159.5,155.8,160.1,154.1,160z"/>
		<path class="st184" d="M158,157.9c-1.7-2.1-3.5-4.3-5.2-6.4c0.2-0.5,0.6-0.7,1.1-0.6c3.4,3,8.9,1.2,12,5
			C163,155.3,160.7,157.3,158,157.9z"/>
		<path class="st185" d="M21,82.7c-1.3,0.1-2.6,0.1-4,0.2c-3.4-0.4-6.7,0.5-10,1.4c0-0.4-0.1-0.8-0.1-1.2c0-1,0.1-2,0.1-3
			c2-1.6,4.9-1.9,6.8-4.1c-2-0.8-3.2,1-4.7,1.1c-1.3-1.7-2.9-3-4.9-3.9c2.4-1.2,4.6-2.9,7.4-3.1c3.9,2.2,6.9,5.2,9.3,8.9
			c0.6,0.7,1.3,1.5,1.9,2.2C22.2,81.7,21.6,82.2,21,82.7z"/>
		<path class="st186" d="M20.9,79c-3.1-3-6.2-5.9-9.3-8.9c1.1,0.3,2.2,0.6,3.3,0.9C16.6,73.9,21.3,74.6,20.9,79z"/>
		<path class="st187" d="M7,84.3c3.6-5.2,5.2-5.4,10-1.4c-0.6,0.7-1.3,1.3-1.9,2c-2.5-0.4-4.4,2.5-7.1,1.2C7.7,85.5,7.4,84.9,7,84.3
			z"/>
		<path class="st188" d="M154,150.9c-0.4,0.2-0.8,0.4-1.1,0.6c-1.3,0.5-2.5,1.1-3.8,1.6c-0.7-0.4-1.4-0.8-2.1-1.2c0,0,0,0,0,0
			c4.3-10,11.1-13.1,24.1-10.9c-1.3,2-3.8,2.2-5.4,3.7c-1.2,0.8-2.3,1.5-3.5,2.3C159,147.3,156.5,149.3,154,150.9z"/>
		<path class="st189" d="M115.8,30.9c1.3,0.6,2.2,1.7,2.7,3c1.5,0.2,1.2-0.9,1.2-1.7c4.1-8.8,9.2-10,15.9-7c1.9,6.1,1.9,6.2-4.3,7.9
			c-3.2,0.9-3.3,3.7-4.4,6c-2.3,3.4-6,0.6-8.7,2.1c-1.6,0.7-3.2,1.2-4.7-0.2c-3.3-1.5-0.8,1.4-1.4,1.9c-0.4,1.1-0.5,2.3-1,3.4
			c-2.2,3.4-4.7,3.7-7.3,0.6c-1-1.2-2.1-1.9-3.7-1.8c-4.2-3.2-4.2-3.6,0.4-5.9c1.9-0.9,3.7-2,5.6-3c1.2-0.9,3-1,3.6-2.8
			c0.7-1.9,2.5-2.3,4.4-2.3C114.6,30.9,115.2,30.9,115.8,30.9z"/>
		<path class="st190" d="M127,39c-0.2-2.1,0.3-4,1.5-5.7c1.6-2.3,2.8-5.8,6.6-0.9c0.2-3.2-1.9-5.6,0.6-7.3c2.4,0.7,3.4,2.5,3.4,4.9
			c-2.2,2.3-4.3,4.6-7.9,4.6C128.2,34.6,128.5,37.7,127,39z"/>
		<path class="st191" d="M111.1,46.2c0-1.4-0.1-2.8-0.1-4.2c0-1.9,1.6-2.3,2.9-2.9c1.2,1.2,2.5,2.1,4.3,2
			C116.8,44.1,112.4,43,111.1,46.2z"/>
		<path class="st192" d="M162.2,92.9c-0.1-0.3-0.2-0.6-0.3-0.9c-0.1-1.5,1.1-3.4-1.9-3.9c-1.7-0.3-3.6-1.6-4.9-3.1
			c-3.1-2.3-6.1-4.6-9.2-6.9c0.7-0.4,1.4-0.9,2.1-1.3c4.3,0.6,8.6,0.5,12.8-0.8c1.8-0.5,3.3-1.1,1.3-3.3c-1-1-1.2-2.3-0.8-3.7
			c1.4-4.1,11.7-6.2,14.8-3c-0.4,1.8,1.1,2.6,2,3.7c5.4,6.8,4.3,13.8-3,18.6C171.2,90.9,166.7,92,162.2,92.9z"/>
		<path class="st193" d="M120,93c-2.1,0.7-4.2,1.5-4.9,3.9c-2.6,1.5-5.2,2.5-8.3,2.1c-1.4-1.1-0.7-2.7-0.9-4.1
			c1.7-2.2,4-3.7,6.4-5.1C116.5,87.6,118.6,89.1,120,93z"/>
		<path class="st76" d="M114.1,30.9c-3.4,0.6-3.9,5.6-8,5.2c0.9-1.5,2.8-2,3.5-3.9C110.2,30.3,112.1,29.7,114.1,30.9z"/>
		<path class="st194" d="M106.8,99c2.1-3.1,4.9-3.7,8.3-2.1c2.7,3.3,5.5,5.5,9.7,1.9c1.9-1.7,2.8,0.7,4.1,1.4c1.9,1.9,0.9,3.3-1,4.3
			c-0.4,1.3-1.2,0.9-1.9,0.4c-4.9-1-9.8-3.1-14.3,1C112.1,102.2,107.8,101.8,106.8,99z"/>
		<path class="st195" d="M41,67.3c2.2-1.2,4.5-2.3,6.7-3.5c0.7,0.7,1.5,1.5,2.2,2.2c3.4,1.5,6.6,3.2,8.8,6.3
			c0.1,2.5-1.3,4.4-3.5,3.4C50.3,73.4,45.3,70.9,41,67.3z"/>
		<path class="st196" d="M58.8,72.3c-4-0.7-6.5-3.3-8.8-6.3c0.2-2-0.8-4.2,0.8-6c0.7,0.2,1.3,0.5,1.6,1.1c3.2,6.9,9,7.2,15.4,6.2
			c0.6-0.2,1.2-0.5,1.9-0.8c2.5-1.4,4.4-3.1,2.7-6.3c-0.7-1.1-1.9-1.8-2.9-2.8c-1-1.1-3.2-0.7-3.6-2.7c5.6-2,9,1.5,12.2,5.2
			c0,0.3,0,0.5,0,0.8c0.2,6.6-5.9,12.2-12.9,11.7c-1.5-0.1-2.9-0.4-4.4-0.2c-0.3,0-0.5,0.1-0.8,0.1C59.6,72.2,59.2,72.3,58.8,72.3z"
			/>
		<path class="st122" d="M78.1,59.9c0.3,0.4,0.6,0.7,0.9,1.1c1.2,1.1,1.6,2.5,1,4c-0.2,6.8-1.4,8.2-7.9,8.9
			c-4.2,0.5-8.3,0.1-12.1-1.7c0,0,0.2-0.4,0.2-0.4c1.6-0.6,3.2-0.2,4.9-0.2c8,0,11.8-3.5,12.7-11.3C77.9,60.1,78,60,78.1,59.9z"/>
		<path class="st122" d="M81.9,51.1c0.3,0,0.6,0,1,0c2.7,2.6,5.3,5.3,8,7.9c1.8,2.6,1.2,5.3,0.1,7.9c-2.6,1.7-4.7,4.2-7.9,5
			c0.5-0.7,1-1.4,1.5-2c5.8-6.2,5.8-6.2,0.5-13C83.2,55.4,80.6,54.3,81.9,51.1z"/>
		<path class="st197" d="M80,65c-1-1.2-0.9-2.6-1-4c5.6-0.9,1.2-4.7,2-7c2.3-0.3,2.7,1.3,3,3c0.4,1.3,0.7,2.5,1.1,3.8
			c0.5,1.6,1.2,3.1-0.2,4.6C83.1,67.3,81.6,65.5,80,65z"/>
		<path class="st198" d="M65,80c-8.4,2.9-13.8,1-20.2-6.9c2.2,1.1,4.5,2.1,6.6,3.5C55.6,79.4,60.1,80.6,65,80z"/>
		<path class="st199" d="M84,57c-1-1-2-2-3-3c-1.9-1.9-2.4-4.9-5-6.1c0.7-0.3,1.3-0.6,2-0.9c1.3,1.4,2.7,2.7,4,4.1
			c0.3,2.3,2.9,3.4,3.1,5.9C84.6,57,84.3,57,84,57z"/>
		<path class="st127" d="M126,104.9c0.6-0.1,1.3-0.3,1.9-0.4c0.1,3,3.2,4.1,4,6.6C129.5,109.5,126.5,108.4,126,104.9z"/>
		<path class="st115" d="M90.9,67c0-2.6,0-5.3-0.1-7.9C94.4,61.7,93.1,64.3,90.9,67z"/>
		<path class="st200" d="M68.6,68.9c-3.7,1.1-7.5,1.5-11.1,0.1c-4.1-1.5-7.4-3.8-6.7-9c0.8-1.3,1.6-2.4,3-3.1
			c1.3,0.3,2.7,0.1,3.9,0.9c3.1,3.2,5.4-0.8,8.2-0.9c0.5,0,1,0.1,1.4,0.2c1.4,1.1,3.2,1.6,4.1,3.3c0.5,1.2,1.1,2.3,0.8,3.7
			c-0.3,1.4-1.2,2.5-2.6,2.6C67.5,66.7,70,68.6,68.6,68.9z"/>
		<path class="st201" d="M57.1,59.1c-1.5-0.1-3.1-0.2-3.3-2.3c1.8-1.6,3.7-3.1,6.4-1.9c0.6,0.5,1.4,0.9,1.8,1.7
			C61.7,61,61.3,61.2,57.1,59.1z"/>
		<path class="st202" d="M60.9,56.1c-0.3-0.4-0.5-0.8-0.8-1.2c1.9-0.1,3.9-0.2,5.8-0.2c1.8,0,3.4,0.4,4.9,1.4
			c-0.4,3-2.6,1.7-4.3,1.9l-0.4,0C64.6,57,62.2,58,60.9,56.1z"/>
		<path class="st203" d="M46.9,60.9c-0.5,0-1.1,0.1-1.6,0.1c-0.2-1.7-1.6-2.6-2.5-3.9c2.1,0.3,4.2,0.7,6.3,1
			C49,59.5,47.8,60.1,46.9,60.9z"/>
		<path class="st204" d="M53,46c1.1,0.2,2.5-0.1,3,1.1c0.6,1.6-1,2.3-1.9,3.1c-1.7,1.5-3.8,1.7-5.9,2.2c-1.1,0.3-2.4,1-3.2,0
			c-1.2-1.4,0.6-2.2,1-3.4C48.4,48.2,50.2,45.9,53,46z"/>
		<path class="st205" d="M119.7,32.2c1.5,1.4,3,2.7,5.2,4.7c-4,0.8-4.9-1.7-6.4-3C118.9,33.3,119.3,32.7,119.7,32.2z"/>
		<path class="st206" d="M24.9,94.5c-0.2-2.9,0-5.7,0.8-8.5c1.4-0.3,2.8-0.7,4.2-1c0.8,0.8,1.5,2,3,1c0.7,0.7,1.4,1.3,2.1,2
			c-1,2.9-3.4,3.6-6,4c-1.8,3.1-2.2,7.2-6.2,8.9C20.8,97.8,23.9,96.5,24.9,94.5z"/>
		<path class="st207" d="M32.9,86c-0.2,2-1.6,3.3-3.3,2.5c-2.4-1,0.1-2.3,0.4-3.5c0.6-0.3,1.2-0.6,1.8-0.9
			C32.1,84.7,32.5,85.4,32.9,86z"/>
		<path class="st208" d="M34.1,136c-0.4-0.1-0.7-0.1-1.1-0.2c0.4-3.9,4.6-4.8,6.1-7.9c1.4,0.9,3.5,0.8,3.9,3
			c0.9,1.8-0.2,2.8-1.5,3.8C39.1,135.8,36.5,135.4,34.1,136z"/>
		<path class="st209" d="M29,92c1.2-2.5,3.8-2.9,6-4c1.6,4.9-2.3,4.3-4.9,5.1C29.7,92.8,29.4,92.4,29,92z"/>
		<path class="st210" d="M88.3,15.3c0.1,1.2-0.6,1.5-1.4,1.5c-1.2,0-2.2-0.5-2.5-1.7c-0.3-0.9,0.2-1.7,1.1-1.8
			C86.9,13.2,87.7,14.2,88.3,15.3z"/>
		<path class="st211" d="M40.8,133.8c0.7-1,1.4-1.9,2.1-2.9c3-1.6,6.1-3.2,9.1-4.9c0.2-0.4,0.5-0.4,0.9-0.2
			c3.6,0.1,7.3,0.1,10.9,0.2c4.8,1.9,9.3,4.3,12,9c-0.1,0.9,0,2.5-0.4,2.7c-1.4,0.6-1.5-1.4-2.4-1.8c-1.3-0.5-1.7-1.9-2.9-2.7
			c1.8,1.5,2.2,3.2,1.2,5.1c-2.1,5.9-4.8,8.1-9.3,7.7c-4-0.5-8.2,0.8-12-1.1c-2.1-1.9-3-6.6-7.4-2.9c-0.3,0.3-1.7-0.7-2.5-1.1
			c-0.1-1-0.1-2-0.2-3C38.5,136.2,39.5,135,40.8,133.8z"/>
		<path class="st212" d="M53,125.9c-0.3,0.1-0.6,0.2-0.9,0.2c-1.1-0.3-2.1-0.6-2.2-2c3.6-2.6,7.4-4.7,12-3.1
			C59,122.6,56,124.3,53,125.9z"/>
		<path class="st213" d="M39.9,63.9c0.1-0.3,0.2-0.5,0.3-0.8c0.6,0,1.2-0.1,1.8-0.1c1.1-0.3,2.1-0.6,3.1-0.9
			c0.2,0.3,0.3,0.5,0.5,0.8c-1.7,0.9-3.3,2.1-5.1,2.6C38.5,66.1,40,64.5,39.9,63.9z"/>
		<path class="st214" d="M155,84.9c4.2-0.4,7.8,3.8,12.6,1.3c-0.9,3.7-3.6,4.4-5.7,5.7C158.6,90.6,155.9,88.6,155,84.9z"/>
		<path class="st215" d="M219,120c2.1,0.2,3.3,2,5.1,2.9c0.8,1.2,1.6,2.4,2.4,3.6c1.1,1.8,0.8,3-1.4,3.5c-6.9,6.3-16.2,7.5-24.9,2.9
			c-0.2-0.1-0.1-0.6-0.1-0.9c1.7-2,3.3-4.2,5.9-5.1c2.6-1.8,3.6,0.6,5,1.9c0.8-0.7,0.7-1.3,0-2c-4.1-4.4-9-3.6-14.3-1.9
			c3.3-5.7,9.1-7.2,13.9-4c1.2,0.8,2.2,1.4,3.4,0C215.4,119.2,217.3,120.2,219,120z"/>
		<path class="st216" d="M219,120c-1.4,1.5-3.3,0.9-5,1c-2.8-1.1-0.8-2.4-0.2-3.7c1.7,0.7,3.2,1.8,5.2,1.7
			C219,119.4,219,119.7,219,120z"/>
		<path class="st217" d="M211,126.9c1.4,0.4,2.8,0.8,3.5,2.3c0.1,0.3-0.5,1.2-0.9,1.4c-1.5,0.6-1.8-0.9-2.5-1.6
			C211,128.3,211,127.6,211,126.9z"/>
		<path class="st218" d="M200.1,132.1c8.7,3.6,17,3.4,25-2c-1.1,1.4,0.3,2,0.9,2.9c-0.4,1.5-1.1,2.7-3,2.1c-2-0.2-3.8-1.5-5.6,1.2
			c-1.2,1.9-3.9,1.4-6,0.7c-3.3-1.1-6.7-2-10.2-2.2C200.6,133.9,198.5,133.7,200.1,132.1z"/>
		<path class="st27" d="M223,135.1c1-0.7,2-1.4,3-2.1c1.6,2.4-0.8,2.9-1.9,4C222.7,136.9,222.4,136.2,223,135.1z"/>
		<path class="st219" d="M62,146.1c4.5-1.1,7.1-4.1,8.8-8.2c0.4-0.3,0.8-0.3,1.1,0.1c-1.3,7.3-6.7,11.1-14.2,10.1
			C58.8,146.4,61,147.4,62,146.1z"/>
		<path class="st220" d="M72,138c-0.4,0-0.7-0.1-1.1-0.1c0.2-4.2-3.6-5.6-5.6-8.4c3.8,0.6,6.5,2.6,7.8,6.4
			C72.7,136.6,72.3,137.3,72,138z"/>
		<path class="st221" d="M40.8,133.8c-0.3,1.4-0.7,2.8-1,4.1c-2.6,1.5-3.7-1.8-5.8-1.9C36.2,135.1,37.8,132.2,40.8,133.8z"/>
		<path class="st3" d="M179.1,139.9c-0.5,0.8-0.9,1.5-1.4,2.3c-0.4,0.2-0.9,0.3-1.4,0.3c-1.4-0.9-3.7-1-3.5-3.5c0-0.6,0-1.3,0-1.9
			C175.5,137,177.5,137.9,179.1,139.9z"/>
		<path class="st154" d="M172.9,138.9c1,1.5,3.8,0.7,4.2,3.1c-0.1,0.9-0.2,1.8-1.2,2.3c-2.2-0.2-2.6-3.1-4.9-3.3
			c-10.2-1-18.9,1.1-24.1,10.9c0.3-6.9,5.1-9.5,10.8-11.2c1.7-0.5,3.6-0.7,5.3-1.1C166.4,140.1,169.7,140.1,172.9,138.9z"/>
		<path class="st222" d="M176,144.2c0.4-0.8,0.8-1.5,1.2-2.3c0.2,0.1,0.4,0.1,0.6,0.2c0.3,1.7,5.5,2.2,1.3,5.1
			C178,146.3,177,145.2,176,144.2z"/>
		<path class="st223" d="M222,45.9c0,0.3,0,0.7,0.1,1c-3.9,0.7-7.5,2.2-10.3,5.3c-1.2-0.9-2.5-1.7-1.2-3.5
			C212.4,46.2,218.7,44.6,222,45.9z"/>
		<path class="st224" d="M10,30c-0.1-2.5,0.8-4.6,3.3-5.3c1.1-0.3,2.3,1,2.1,2.2C14.9,29.9,12.1,29.4,10,30C10,30,10,30,10,30z"/>
		<path class="st225" d="M22.9,22.5c-1.4,0.1-2.5-0.2-2.4-1.4c0.1-1.6,1-2.9,2.6-3.3c1.3-0.3,2.3,0.8,2.4,2
			C25.7,21.6,24,21.9,22.9,22.5z"/>
		<path class="st226" d="M113.9,39.1c-0.2,1.7-1.7,2.2-2.9,2.9c-1.2-1-3.7-1.8-1.8-3.9C110.8,36.3,112.7,37.2,113.9,39.1z"/>
		<path class="st227" d="M107.7,45.7c-1.6-1.1-3.1-1.6-3-3.5c0-0.3,0.9-0.7,1.1-0.6C107.3,42.3,108.1,43.4,107.7,45.7z"/>
		<path class="st228" d="M77.7,60.3c1,7-2,11.2-9.1,11.9c-2.8,0.3-5.6-0.2-8.4-0.3c1.1-0.9,2.5-0.6,3.8-0.7
			C71.2,70.8,76,67.5,77.7,60.3z"/>
		<path class="st229" d="M71.1,64.4c-0.4-1.1-0.7-2.2-1.1-3.4c1-1.3,1.8-2.8,3.9-1.9c2.6,4.6,0,7-3.7,8.9
			C68.5,66.3,71.4,65.8,71.1,64.4z"/>
		<path class="st230" d="M73.9,59.1c-1.1,1.1-2.1,2.2-3.9,1.9c-1.1-1-2.3-2-3.4-3c1.4-0.6,2.8-1.2,4.3-1.9
			C72.4,56.6,73.3,57.7,73.9,59.1z"/>
		<path class="st231" d="M71.1,64.4c1.3,1.6-0.9,2.4-1,3.7c-0.5,0.3-1,0.5-1.6,0.8c-0.3-0.8-3.3-0.8-0.8-2.4
			C68.9,65.7,70,65,71.1,64.4z"/>
		<path class="st232" d="M60.9,56.1c2-0.1,4.2-0.7,5.3,1.9c-2.9,1.5-5.4,6.3-9.1,1.1C59.8,60.1,61.5,59.6,60.9,56.1z"/>
		<path class="st233" d="M52.9,133.9c2.4-1.3,4.9-2.8,7.7-0.9c0.4,2-0.6,2.6-2.3,2.6c-1.1,0.5-2.2,0.9-3.3,1.4
			c-0.8,1.8-2.2,2.1-3.5,0.8C49.7,135.8,51.9,135,52.9,133.9z"/>
		<path class="st234" d="M58.2,135.6c0.8-0.9,1.6-1.7,2.3-2.6c1.9,0.5,3.6,1.2,4.7,2.9c-0.6,4.2-1.1,4.4-5.3,2.2
			C58.7,137.8,58.7,136.5,58.2,135.6z"/>
		<path class="st235" d="M52.9,133.9c0,1.1-1.8,1.8-1,3c0.8,1.3,2,0.1,3.1,0.1c0.4,1.4,4.1,0.3,2.5,3c-1,1.6-2.6,1.2-4.3,0.2
			C48.2,137.4,48.2,136.9,52.9,133.9z"/>
		<path class="st236" d="M59.9,138.2c2.2,0.3,4.7,1.1,5.3-2.2c1.8,2.9,0,5.1-2.2,6C60,143.1,61.3,139.2,59.9,138.2z"/>
	</g>
</g>
<g>
</g>
<g>
</g>
<g>
</g>
<g>
</g>
<g>
</g>
<g>
</g>
</svg>
