<?xml version="1.0" encoding="utf-8"?>
<!-- Generator: Adobe Illustrator 22.0.1, SVG Export Plug-In . SVG Version: 6.00 Build 0)  -->
<svg version="1.1" id="Layer_1" xmlns="http://www.w3.org/2000/svg" xmlns:xlink="http://www.w3.org/1999/xlink" x="0px" y="0px"
	 viewBox="0 0 92.4 100.1" style="enable-background:new 0 0 92.4 100.1;" xml:space="preserve">
<style type="text/css">
	.st0{fill:#6CA0C5;}
	.st1{fill:#74A8C9;}
	.st2{fill:#6CA1C5;}
	.st3{fill:#76A9C9;}
	.st4{fill:#6296C0;}
	.st5{fill:#85B4CE;}
	.st6{fill:#BFDAE1;}
	.st7{fill:#C9E0E4;}
	.st8{fill:#5C8FBD;}
	.st9{fill:#87B5CE;}
	.st10{fill:#AECEDA;}
	.st11{fill:#95BDD1;}
	.st12{fill:#A2C7D7;}
	.st13{fill:#598DBB;}
	.st14{fill:#E4C2B5;}
	.st15{fill:#D9E5E5;}
	.st16{fill:#D2B6AF;}
	.st17{fill:#D2ACA3;}
	.st18{fill:#94BFD2;}
	.st19{fill:#312F3E;}
	.st20{fill:#221E1F;}
	.st21{fill:#E1BCAD;}
	.st22{fill:#B18881;}
	.st23{fill:#CAAAA5;}
	.st24{fill:#C09083;}
	.st25{fill:#2C2327;}
	.st26{fill:#976E66;}
	.st27{fill:#896663;}
	.st28{fill:#735856;}
	.st29{fill:#C59F96;}
	.st30{fill:#8C675E;}
	.st31{fill:#8C6962;}
	.st32{fill:#715452;}
	.st33{fill:#BE978D;}
	.st34{fill:#644947;}
	.st35{fill:#8E675E;}
	.st36{fill:#896A68;}
	.st37{fill:#A98077;}
	.st38{fill:#705351;}
	.st39{fill:#977069;}
	.st40{fill:#76554E;}
	.st41{fill:#926B64;}
	.st42{fill:#392B31;}
	.st43{fill:#624845;}
	.st44{fill:#8C9BA9;}
	.st45{fill:#906A65;}
	.st46{fill:#6E6567;}
	.st47{fill:#735450;}
	.st48{fill:#9D7470;}
	.st49{fill:#5A4441;}
	.st50{fill:#896763;}
	.st51{fill:#DDDEDE;}
	.st52{fill:#464947;}
	.st53{fill:#95716C;}
	.st54{fill:#2E333C;}
	.st55{fill:#7D5851;}
	.st56{fill:#4C3945;}
	.st57{fill:#F8EAE0;}
	.st58{fill:#F1E5E1;}
	.st59{fill:#F0DAD5;}
	.st60{fill:#635F40;}
	.st61{fill:#A6B6BD;}
	.st62{fill:#392423;}
	.st63{fill:#CFC9D1;}
	.st64{fill:#2B2723;}
	.st65{fill:#8AB7CF;}
	.st66{fill:#4F2F2C;}
	.st67{fill:#B0B4B0;}
	.st68{fill:#AB9788;}
	.st69{fill:#BEB394;}
	.st70{fill:#B9AA95;}
	.st71{fill:#97C0D3;}
	.st72{fill:#1D1916;}
	.st73{fill:#D9E6E7;}
	.st74{fill:#28272B;}
	.st75{fill:#EFD7D1;}
	.st76{fill:#894F49;}
	.st77{fill:#312D20;}
	.st78{fill:#9A9A57;}
	.st79{fill:#BEC0BD;}
	.st80{fill:#DEC6C1;}
	.st81{fill:#765B59;}
	.st82{fill:#59342F;}
	.st83{fill:#3C2524;}
	.st84{fill:#DFCED3;}
	.st85{fill:#EDD0C3;}
	.st86{fill:#333332;}
	.st87{fill:#352724;}
	.st88{fill:#C89C92;}
	.st89{fill:#201917;}
	.st90{fill:#B49497;}
	.st91{fill:#A27E7F;}
	.st92{fill:#B88F8D;}
	.st93{fill:#F6F0ED;}
	.st94{fill:#21202B;}
	.st95{fill:#A6796F;}
	.st96{fill:#A8CAD9;}
	.st97{fill:#BCD8DF;}
	.st98{fill:#7B5F5F;}
	.st99{fill:#3D242D;}
	.st100{fill:#DFD6D8;}
	.st101{fill:#E66197;}
	.st102{fill:#F5DED2;}
	.st103{fill:#E9DFE0;}
	.st104{fill:#CFA091;}
	.st105{fill:#977A73;}
	.st106{fill:#E6DEE0;}
	.st107{fill:#A57B73;}
	.st108{fill:#866663;}
	.st109{fill:#826260;}
	.st110{fill:#9D7973;}
	.st111{fill:#AD827A;}
	.st112{fill:#AE867E;}
	.st113{fill:#BF988C;}
	.st114{fill:#AC8378;}
	.st115{fill:#A97D6E;}
	.st116{fill:#6D524F;}
	.st117{fill:#BB9285;}
	.st118{fill:#AA8281;}
	.st119{fill:#A98076;}
	.st120{fill:#9C7267;}
	.st121{fill:#BF998E;}
	.st122{fill:#554142;}
	.st123{fill:#E4E6E6;}
	.st124{fill:#A2B1BB;}
	.st125{fill:#E5E4E5;}
	.st126{fill:#373941;}
	.st127{fill:#46464E;}
	.st128{fill:#3A2622;}
	.st129{fill:#AD6256;}
	.st130{fill:#683B33;}
	.st131{fill:#7B4945;}
	.st132{fill:#96C0D3;}
	.st133{fill:#AEA39F;}
	.st134{fill:#3A372C;}
	.st135{fill:#B9A76A;}
	.st136{fill:#2A2220;}
	.st137{fill:#C5DDE3;}
	.st138{fill:#D6E3E4;}
	.st139{fill:#B0D0DB;}
	.st140{fill:#D9E5E6;}
	.st141{fill:#DBE7E7;}
	.st142{fill:#272629;}
	.st143{fill:#2F3035;}
	.st144{fill:#A8CCDB;}
	.st145{fill:#35363C;}
	.st146{fill:#F8F5F3;}
	.st147{fill:#2F3137;}
	.st148{fill:#B4AFB2;}
	.st149{fill:#33353C;}
	.st150{fill:#61626F;}
	.st151{fill:#DED7D7;}
	.st152{fill:#3C4048;}
	.st153{fill:#3C353C;}
	.st154{fill:#2F2E2B;}
	.st155{fill:#31312D;}
	.st156{fill:#443029;}
	.st157{fill:#F8F4F2;}
	.st158{fill:#DCDEDF;}
	.st159{fill:#464745;}
	.st160{fill:#7D7B6F;}
	.st161{fill:#8F999D;}
	.st162{fill:#3B3D44;}
	.st163{fill:#875355;}
	.st164{fill:#E5DFDD;}
	.st165{fill:#F1D9CD;}
	.st166{fill:#757D87;}
	.st167{fill:#48464C;}
	.st168{fill:#EEEAEA;}
	.st169{fill:#392F3A;}
	.st170{fill:#A1766A;}
	.st171{fill:#D2C7C6;}
	.st172{fill:#A7A4B4;}
	.st173{fill:#8A92A5;}
	.st174{fill:#C2B8BD;}
	.st175{fill:#484C5D;}
	.st176{fill:#EBE8EA;}
	.st177{fill:#4B4B55;}
	.st178{fill:#28201B;}
	.st179{fill:#AEA4A4;}
	.st180{fill:#DCDEE1;}
	.st181{fill:#606149;}
	.st182{fill:#36363C;}
	.st183{fill:#6A737D;}
	.st184{fill:#F5F5F3;}
	.st185{fill:#636E7D;}
	.st186{fill:#778C9C;}
	.st187{fill:#EEEFEF;}
	.st188{fill:#EBECEA;}
	.st189{fill:#F9F9F6;}
	.st190{fill:#D8B6B2;}
	.st191{fill:#6C717C;}
	.st192{fill:#96A7B5;}
	.st193{fill:#BFC6C9;}
	.st194{fill:#C3CDD3;}
	.st195{fill:#9E9699;}
	.st196{fill:#838267;}
	.st197{fill:#C7CFD2;}
	.st198{fill:#919299;}
	.st199{fill:#605C66;}
	.st200{fill:#2C262B;}
	.st201{fill:#313238;}
	.st202{fill:#5D6370;}
	.st203{fill:#5E5C66;}
	.st204{fill:#676366;}
	.st205{fill:#8B8D5B;}
	.st206{fill:#767156;}
	.st207{fill:#323238;}
	.st208{fill:#424753;}
	.st209{fill:#586270;}
	.st210{fill:#BCCED6;}
	.st211{fill:#48492D;}
	.st212{fill:#848E97;}
	.st213{fill:#B4C0C6;}
	.st214{fill:#C2CACF;}
	.st215{fill:#5B3F36;}
	.st216{fill:#58544C;}
	.st217{fill:#785447;}
	.st218{fill:#69615E;}
	.st219{fill:#D5D2CF;}
	.st220{fill:#3A3A38;}
	.st221{fill:#9F9B8A;}
	.st222{fill:#33302B;}
	.st223{fill:#777655;}
	.st224{fill:#525149;}
	.st225{fill:#EBE6E7;}
	.st226{fill:#4F5862;}
	.st227{fill:#9B9F65;}
	.st228{fill:#E5C4B8;}
	.st229{fill:#A6A2AB;}
	.st230{fill:#1C1E23;}
	.st231{fill:#77A196;}
	.st232{fill:#CBCDCC;}
	.st233{fill:#B2959B;}
	.st234{fill:#8C8A7A;}
	.st235{fill:#969C97;}
	.st236{fill:#B9BFC1;}
	.st237{fill:#64683E;}
	.st238{fill:#524F4A;}
	.st239{fill:#39332B;}
	.st240{fill:#ECECEA;}
	.st241{fill:#3E3839;}
	.st242{fill:#4E4B47;}
	.st243{fill:#F5F2F0;}
	.st244{fill:#3A3F3E;}
	.st245{fill:#F2EEEC;}
	.st246{fill:#737778;}
	.st247{fill:#A6A6A6;}
	.st248{fill:#2C2D2E;}
	.st249{fill:#232419;}
	.st250{fill:#7A745A;}
	.st251{fill:#3B3731;}
	.st252{fill:#4C473E;}
	.st253{fill:#55523E;}
	.st254{fill:#77777A;}
	.st255{fill:#332D2F;}
	.st256{fill:#B1B1AD;}
	.st257{fill:#808353;}
	.st258{fill:#5A5645;}
	.st259{fill:#AA9E8B;}
	.st260{fill:#DDB4A5;}
	.st261{fill:#659389;}
	.st262{fill:#6F898A;}
	.st263{fill:#B1BCB2;}
</style>
<g>
	<path class="st0" d="M25.8,0C35,0,44.3,0,53.5,0c12.4,2.2,23.1,8.1,33.3,15.1c1.8,1.2,3.9,1.9,5.6,3.4c0,1.5,0,3.1,0,4.6
		c-0.7,0.6-1.5,0.2-2.1-0.1c-3.4-1.7-6.7-3.6-9.7-5.8c-1.6-1.2-3.3-2.1-5.2-3c-6-2.7-12.1-4.9-18.6-5.9c-3.8-0.6-7.7-1-11.7-0.9
		c-2.2,0.1-4.5-0.3-6.7,0.2c-2.7,0.6-5.4,0.8-8.2,1c-4.4,0.3-7.9,2.8-11.7,4.5c-4.1,1.8-7.7,4.3-11.5,6.6c-1.6,1-2.9,2.3-4.6,3.2
		c-0.8,0.4-1.6,1-2.5,0.2c0-2.8,0-5.6,0-8.5c0.5-0.6,1.1-1,1.8-1.4c3.7-1.9,7.2-4.1,10.7-6.4C16.7,4.1,21.1,1.7,25.8,0z"/>
	<path class="st1" d="M92.4,25.8c0,2.2,0,4.4,0,6.5c-1.2,0.7-2.1-0.2-3-0.7c-4.1-2.3-8-4.7-12.3-6.6c-3.6-1.6-7.4-2.5-11.3-3
		c-1.1-0.2-2,0.5-3,0.6c-0.3,0-0.5-0.1-0.8-0.3c-0.8-1.1-1.4-0.8-1.9,0.3c-0.1,0.2-0.3,0.2-0.5,0.3c-2.1-0.7-4.5-0.5-6.4-2
		c-2.4-2.5-5.3-4.4-7.8-6.7c-0.3-0.3-0.5-0.6-0.6-1c-0.7-2.1-0.3-2.8,1.9-3c6.6-0.4,13.1,0.4,19.6,2.2C74,14.5,80.8,18,87.2,22.5
		C88.9,23.7,90.9,24.4,92.4,25.8z"/>
	<path class="st2" d="M92.4,25.8c-2-0.1-3.4-1.4-4.9-2.4c-5-3.3-10.1-6.6-15.8-8.6c-2.9-1-5.8-1.8-8.8-2.6
		c-5.1-1.3-10.2-1.4-15.4-1.4c-2.7,0-2.7,0-2.1,2.3c-0.7,0.6-1.5,0.3-2.2,0.2c-2.6-0.5-5.3-0.7-8-0.4c-2.5,0.3-4.9-0.3-7.4-0.9
		c-0.9-0.2-1.8-0.7-2.8-0.4c-0.5,0.2-0.4,0.6-0.6,1c-0.3,0.7-1.1,1-1.3,1.8c-0.1,0.2-0.3,0.5-0.5,0.6c-5.1,1.6-9.6,4.3-14.1,7.1
		c-2.2,1.3-3.9,3.2-6.2,4.5C1.7,26.9,1,27.6,0,27c0-1.3,0-2.6,0-3.8c1.5,0,2.7-1,3.7-1.8c3.3-2.6,6.9-4.8,10.6-6.9
		c2.5-1.5,5.4-2.3,7.8-4c2.7-1.9,5.7-2.4,8.7-2.6c3.4-0.3,6.8-1.2,10.2-1.2c3.8,0,7.7,0.2,11.6,0.5c4,0.3,7.9,1.5,11.8,2.2
		c3.4,0.6,6.3,2.5,9.6,3.6c5.1,1.7,9,5.6,13.7,7.9c1.6,0.8,3,2,4.8,2.3C92.4,24,92.4,24.9,92.4,25.8z"/>
	<path class="st3" d="M0,27c2.1-0.6,3.7-2,5.3-3.3c4.3-3.5,9.2-5.9,14.1-8.2c1-0.4,2.1-0.5,3.1-0.8c1,0.6,1.9,0.6,3,0.4
		c1.6-0.3,2.1,0.2,1.8,2c3.2-2.8,6.7-3,10.4-2c1.7,0.7,3.7,0.3,5.3,1.5c0.2,0.2,0.3,0.4,0.5,0.6c0.9,0.8,2.2,1.8,1.4,3.1
		c-0.7,1.3-2.1,2-3.7,1.6c-0.7-0.2-1.4-0.3-1.9-0.9c-0.1-0.1-0.2-0.3-0.3-0.4c-0.6-1.1-1.8-0.5-2.7-0.8c-0.3-0.1-0.6-0.2-0.9-0.3
		c-1.3-0.3-2.2,0.6-3.3,1c-1.4,1.2-3.1,1.6-4.8,1.8c-9.3,1.2-17.4,5-24.6,10.9c-0.8,0.6-1.6,1.7-2.8,0.9C0,31.6,0,29.3,0,27z"/>
	<path class="st4" d="M92.4,18.5c-1.8-0.2-3.2-1.2-4.7-2.1c-6.8-4.5-13.7-9-21.4-12c-3.7-1.5-7.6-2.5-11.5-3.7
		C54.4,0.5,54,0.2,53.5,0c7.1,0,14.1,0,21.2,0c4.6,2.4,8.9,5.4,13.7,7.5c1.4,0.6,2.9,0.9,4,2.1C92.4,12.6,92.4,15.5,92.4,18.5z"/>
	<path class="st5" d="M0,33.9c1.6-0.2,2.5-1.5,3.6-2.4c6.4-5.1,13.7-8.2,21.7-9.8c1.4-0.3,2.7-0.4,4.1-0.8c1-0.2,1.7-0.7,2.5-1.3
		c0.6,0.5,0.7,1.2,0.7,1.9c0,0.9,1.3,1.6,0.3,2.6c-1.2,0.8,0.2,1.8-0.1,2.6c-0.4,0.6-0.9,0.5-1.4,0.3c-0.5-0.2-0.7-0.7-1.1-1
		c0.1,1,0.6,2-0.3,2.9c-1.2,1.1-2.8,1.2-4.3,1.3c-8.4,0.5-15.6,3.9-22.4,8.7c-1,0.7-1.9,1.9-3.4,1.2C0,38,0,35.9,0,33.9z"/>
	<path class="st6" d="M92.4,56.2c0,2.8,0,5.6,0,8.5c-1.4,0.6-2.5-0.3-3.5-0.9c-2.5-1.4-4.9-3.2-7.8-3.9c-3.3-0.7-6.6-1.3-10-1.4
		c-1.1,0-2.3,0-3.4-0.3c-2.1-0.6-2.5-1.2-2.5-3.4c0.5-2.2,1.7-4,2.8-6c0.2-0.5,0.6-0.8,1.2-0.8c2.8,1.2,5.8,1.4,8.8,1.9
		C83.1,50.8,87.9,53,92.4,56.2z"/>
	<path class="st7" d="M65.4,54.6c0.4,2.4,1.2,3.1,4.1,3.1c4.4,0,8.8,0.7,13,1.9c2.2,0.6,4,2,5.9,3.1c1.3,0.7,2.6,1.4,4,1.9
		c0,2.2,0,4.4,0,6.5c-0.8,0.6-1.6,0.1-2.3-0.2c-2.2-0.9-4.3-1.9-6.5-2.8c-4-1.6-8.2-1.9-12.4-2.4c-1.5-0.2-2.9-0.2-4.3-0.7
		c-0.8-0.4-1.5-0.9-1.6-1.9c0-0.4-0.4,0.2-0.6-0.1c-1.5-2.2-1.8-4.6-0.8-7C64.1,55.4,64.4,54.7,65.4,54.6z"/>
	<path class="st8" d="M25.8,0c0,0.5-0.4,0.8-0.8,1C17.9,3.6,12,8.3,5.5,12C3.8,13,2,14,0,14.6c0-4.5,0-9,0-13.5C0,0.2,0.2,0,1.2,0
		C9.4,0,17.6,0,25.8,0z"/>
	<path class="st9" d="M62.7,22.4c1.8-2.2,4.1-0.9,6.1-0.6c6,0.9,11.2,3.7,16.4,6.6c2.4,1.3,4.5,3.1,7.2,3.9c0,2.1,0,4.1,0,6.2
		c-1,0.7-1.7,0-2.5-0.4c-2.1-1.1-4.1-2.3-6.2-3.4c-1.1-0.5-2.1-0.8-3.3-0.5c-0.1,0-0.3,0-0.4-0.1c-2.4-2.3-5.5-2.9-8.5-3.9
		c-0.6-0.2-1-0.6-1.4-0.9c-1.5-1.2-3.4-1.7-4.9-2.8c-0.3-0.3-0.5-0.6-0.5-1c0-0.6,0.3-1,0.7-1.4c0.1-0.1,0.2-0.2,0.2-0.2
		c-0.3-0.4-0.6,0.1-0.9,0c-0.3,0.1-0.5,0-0.8,0c-0.3-0.1-0.5-0.2-0.7-0.3C62.9,23.2,62.6,22.9,62.7,22.4z"/>
	<path class="st10" d="M92.4,56.2c-1.2,0-2-0.7-3-1.2c-4.6-2.7-9.4-4.4-14.7-5c-2-0.2-4.3,0-5.8-1.9c-0.5-0.5-0.3-1.1,0-1.6
		c1.3-1.9,2.8-3.7,4.3-5.5c2.3,1.7,5,2.1,7.6,2.8c3.8,0.9,7,3,10.4,4.8c0.5,0.2,0.8,0.7,1.1,1C92.4,51.8,92.4,54,92.4,56.2z"/>
	<path class="st11" d="M0,40c1.2-0.2,2.1-1,3-1.6c5.3-3.9,11.1-6.8,17.5-8.2c2.3-0.5,4.6-0.7,7-0.9c0.9-0.1,1.7-0.4,2.5-0.8
		c0.3-0.1,0.7-0.3,1-0.1c1.4,0.5,2.4,1.5,3.5,2.3c0.6,0.4,0.9,0.9,0.4,1.6c-2.9,1.2-5.9,1.6-9,1.9c-5.5,0.5-10.9,1.6-15.9,4.1
		C8.7,39,7,39.1,5.9,40.5c-0.4,0.8-1.2,1.3-1.2,2.2c-0.5,2.4-2.4,2.2-4.2,2.2c-0.2,0-0.4-0.1-0.6-0.2C0,43.1,0,41.6,0,40z"/>
	<path class="st12" d="M92.4,49.7c-3-0.9-5.5-2.9-8.4-4c-2.4-0.9-4.8-1.6-7.3-2.1c-1.4-0.3-2.8-0.7-3.5-2.3
		c-0.5-1.8-1.3-3.6-0.7-5.6c0.6-1.9,1.9-2.6,3.5-1.5c2.1,1.4,4.4,2.8,5.9,5.1c0.9,1.4,1.5,3.1,3.7,2.9c0.5-0.1,0.8-0.3,1-0.7
		c0.1-0.2,0.3-0.3,0.4-0.4c2.3-0.1,3.6,1.8,5.3,2.9C92.4,45.8,92.4,47.7,92.4,49.7z"/>
	<path class="st13" d="M92.4,9.6c-2.7-0.5-5-2-7.5-3.2C81.8,5,78.9,3.1,76,1.3C75.5,1,75,0.6,74.7,0c5.5,0,11,0,16.4,0
		c1,0,1.3,0.1,1.3,1.2C92.3,4,92.4,6.8,92.4,9.6z"/>
	<path class="st14" d="M66.2,100.1c-6.4,0-12.8,0-19.2,0c-0.3-0.3-0.8-0.3-1.2-0.6c-0.5-0.4-0.8-1.1,0.1-1.2c0.9-0.1,0.6-1,1.1-1.2
		c0.6-0.4,1.2-0.5,1.8-0.4c3.3,0.6,6.6,0,10,0c2.3,0,4.5-0.6,6.8-0.3c1.6,0.2,2.7-1.2,4-1.9c0.8,0.1,1.1,0.8,1.2,1.5
		c0.3,1.5,1.1,1.4,2,0.7c1.9-1.2,3-2.9,3.3-5.1c0.1-0.8-0.1-1.7,0.9-2.2c0.4,0,0.8,0.2,0.9,0.5c0.8,2.8,1.3,5.6-0.4,8.3
		c-0.7,1-1.6,1.4-2.8,1.4C72,99.8,69.1,99.3,66.2,100.1z"/>
	<path class="st15" d="M66.6,64.7c4.7,0.6,9.5,0.7,14.1,1.9c3.5,0.9,6.7,2.7,10.1,4c0.5,0.2,1.1,0.4,1.6,0.6c0,3.6,0,7.2,0,10.8
		c-0.8,0.6-1.7,0.4-2.6,0.2c-0.8-0.9,0.3-1.4,0.4-2.2c0.1-0.5,0-0.9-0.3-1.2c-0.3-0.3-0.8-0.6-0.9-1c-0.4-2.5-2.8-4-3.2-6.4
		c-0.2-1-1.2-1.3-2.1-1.5c-4.6-1-9.1-2.5-13.9-2.6C67.7,67.1,66.9,66.4,66.6,64.7z"/>
	<path class="st16" d="M47,97.4c0.2,1-0.2,1.5-1.7,1.2c0.8,0.7,1.2,1.1,1.6,1.5c-2.6,0-5.1,0-7.7,0C37,98.5,36,96,34.4,93.9
		c0-0.8,0.5-1.6-0.2-2.4C33.9,91,33.4,90.5,34,90c0.5-0.5,1.2-0.5,1.8-0.3c1.2,0.4,2.2,1.2,3.3,2c0.4,0.3,0.8,0.6,1.1,1
		c0.5,1,1.1,1.8,1.9,2.6c0.9,0.9,1.7,1.6,3.1,0.9c0.6-0.3,1.4-0.2,1.9,0.4C47.2,96.9,47.2,97.1,47,97.4z"/>
	<path class="st17" d="M92.4,89.7c0,3.1,0,6.3,0,9.4c0,0.8-0.2,1-1,1c-3.7-0.1-7.3,0-11,0c-0.1-1,0.8-1.2,1.3-1.7
		c0.4-0.6,1-1,1.2-1.7c0.1-0.3,0.3-0.6,0.5-0.8c1-0.9,2.3-1.3,3.5-0.7c1.2,0.6-0.1,1.7,0.2,2.6c1.1-0.3,1.8-1.2,2.5-2
		c-0.5-0.6-1.5-0.2-1.7-1c-0.2-0.8,0.4-1.4,0.8-2.1c0.2-0.3,0.4-0.7,0.4-1.1c0.3-0.8,0.5-1.7,0.9-2.5c0.2-0.5,0.4-1,0.9-1.1
		c0.7-0.1,0.9,0.5,1.1,1.1C92.1,89.4,92.2,89.5,92.4,89.7z"/>
	<path class="st18" d="M92.4,43.9c-1.4,0.1-2.1-1-3.1-1.6c-0.7-0.4-1.3-1-2.2-1.1c-1-2.1-3.5-2.2-5-3.6c-0.5-0.4-0.8-0.9-1-1.6
		c0-0.8-1.1-1.3-0.6-2.2c0.7-0.9,1.4-0.8,2.3-0.4c2.5,1.3,5,2.6,7.5,4.1c0.6,0.4,1.4,0.6,2.1,0.9C92.4,40.3,92.4,42.1,92.4,43.9z"/>
	<path class="st19" d="M35.4,100.1c-0.9,0-1.8,0-2.7,0c-0.9-0.3-1.9-0.6-2.4-1.6c-1.2-1.7-3.2-2.8-4.1-4.7c-0.1-1-0.9-1.8-1.1-2.8
		c-2.6-4.1-5.5-8-8.7-11.6c-0.8-1.3-1.7-2.5-2.7-3.6c-0.4-0.6-0.7-1.1-0.4-1.9c1-0.5,1.5,0.2,2,0.8c0.7,0.8,1.2,1.8,1.8,2.6
		c0.7,1,1.4,2,2.2,2.8c0.3,0.3,0.6,0.6,1,0.8c2.7,2,4.7,4.6,6.4,7.4c0.3,0.8,0.8,1.4,1.4,2c0.1,0.1,0.2,0.3,0.3,0.4
		c1.9,2.6,4.1,5,6.1,7.5C35.1,98.8,35.7,99.2,35.4,100.1z"/>
	<path class="st20" d="M0,44.7c0.1,0,0.3,0.1,0.4,0.1c0.7-0.1,1.4-0.1,2.1,0c1.6,0.4,2.2,1.5,1.7,3c-0.2,0.3-0.4,0.6-0.9,0.3
		c0.9,0.5,1.5,1.3,2.2,2c0.6,0.6,1.1,1.4,1.7,2c2.3,2.7,4.6,5.4,6.9,8.2c0.6,0.7,1.4,1.4,1.3,2.5c-0.2,0.4-0.5,0.6-0.9,0.6
		c-2-0.6-3.1-2.4-4.6-3.6c-1.8-1.4-3.3-3.2-5-4.8C3.2,53,1,51.2,0,48.5C0,47.2,0,45.9,0,44.7z"/>
	<path class="st21" d="M83.1,97c-0.2,1.7-1.7,2.1-2.7,3.1c-4.7,0-9.5,0-14.2,0c2.2-1,4.5-1.1,6.7-0.7c4.1,0.8,5.9-3.2,5.1-6.1
		c-0.3-1.2,0.5-2.8-1-3.5c-0.7,0.7-1.5,0.5-2.4,0.6c-1.9,0.1-3.8,0.5-5.6-0.5c-0.2-1.1,0.7-1,1.3-1.1c0.8-0.1,1.7,0,2.4-0.4
		c1.3-0.3,2.5-0.2,3.8,0c1.6,0.6,3.3,0,4.9,0.6c0.5,0.3,0.4,0.7,0.1,1c-1,0.6-0.8,1.5-0.3,2.1c0.7,0.8,0.7,1.7,0.8,2.7
		c0,0.2,0,0.4-0.1,0.5c-0.5,1.4-1.7,2.2-2.9,3.3c1.1-0.3,1.9-0.7,2.7-1.2C82.1,97.1,82.5,96.7,83.1,97z"/>
	<path class="st22" d="M21.6,100.1c-0.8,0-1.5,0-2.3,0c-2.2-2.9-4.9-5.3-6.4-8.7c-0.3-2-0.3-2,1.2-1.6c1.4,1.3,2.5,2.9,3.6,4.2
		c-0.3-0.8-1.2-1.3-1.8-2.1c-0.8-1.4-1.9-2.5-3-3.7c-0.6-0.7-1.5-1.3-1-2.5c0.3-0.2,0.7-0.3,1-0.2c1.7,0.4,2.2,2,3.3,3
		c0.1,0.1,0.2,0.3,0.3,0.4c1.1,1.8,2.4,3.5,3.9,5c0.1,0.1,0.2,0.3,0.3,0.4c0.8,1.7,2.4,2.8,3.1,4.6c0.2,0.4,0.6,0.7,0.3,1.2
		c-0.5,0-1,0-1.5,0c-0.8-0.7-1.8-1.2-2.2-2.4C20.7,98.6,22,99,21.6,100.1z"/>
	<path class="st23" d="M35.4,100.1c-2.2-2.6-4.4-5.3-6.5-7.9c-0.3-0.4-0.9-0.7-0.8-1.4c1-0.9,2.1-0.7,3.2,0c1.4,0.8,2.5,2,3.4,3.3
		c2.2,1.6,3.1,4.1,4.6,6.1C38,100.1,36.7,100.1,35.4,100.1z"/>
	<path class="st24" d="M92.4,89.7c-0.8,0-0.7-1-1.3-1.3c-0.5,1.3-0.9,2.4-1.4,3.6c-0.9,0.8-1.6,1.8-2.4,2.7
		c-0.5,0.6-1.2,0.7-1.9,0.6C84.6,95,85,94.4,85,93.9c-0.9,0.1-1.2,2.1-2.5,0.7c-0.1-1.1,0.5-2,0.9-2.9c0.4-1,0.4-2.1,1.1-3
		c0.3-0.3,0.6-0.5,1-0.7c1.7-0.5,3.4-0.7,5-1c0.7-0.1,1.3-0.1,1.8,0.4C92.4,88.1,92.4,88.9,92.4,89.7z"/>
	<path class="st25" d="M0,64.3c0-1.3,0-2.6,0-3.8c0.1-0.1,0.3-0.2,0.5-0.1c1.2,1.1,1.7,2.5,2.6,3.8c1.5,2.1,2.3,4.5,3.5,6.8
		c1.1,1.4,1.9,2.9,3.1,4.3c1.4,1.8,2.7,3.7,4.2,5.4c1,1.5,2.3,2.8,3.3,4.2c0.4,0.6,1,1.2,0.7,2.1c-0.1,0.1-0.3,0.2-0.5,0.3
		c-0.9-0.2-1.4-0.8-1.9-1.4c-0.2-0.5-0.5-0.9-0.9-1.3c-2.7-2.9-4.7-6.3-7.3-9.3C7.1,75,7,74.9,6.9,74.8c-0.5-0.9-1.1-1.7-1.7-2.6
		c-1.4-1.9-2.6-3.9-4.3-5.6C0.4,65.9,0.6,64.9,0,64.3z"/>
	<path class="st26" d="M0,84.7c0-0.4,0-0.8,0-1.2c1-0.5,1.5,1.1,2.5,0.6c0.2,0,0.3,0,0.5,0c1.2,0.7,2.3,1.4,2.6,2.9
		c0,0.3-0.1,0.6,0,0.7c2.7,2,3.7,5.4,6,7.7c0.6,0.5,1.4,1,1,2.1c-0.2,0.2-0.5,0.3-0.8,0.3c-0.8-0.1-1.3-0.6-1.7-1.1
		c-1.7-1.8-3.6-3.3-5.5-4.9C2.4,89.8,1.6,87,0,84.7z"/>
	<path class="st27" d="M13.1,91.2c1.9,2.2,3,5,5.4,6.8c0.7,0.5,0.3,1.4,0.8,2.1c-0.4,0-0.8,0-1.2,0c-1.5-0.7-2.7-1.8-3.9-2.9
		c-0.5-0.5-1.1-1.1-1.8-1.3c-0.7-0.6-1.7-1.2-0.2-2.1c1.1,0,1.4,1.2,2.2,1.6c-0.9-0.5-1.3-2-2.7-1.6c-2.1-0.5-2.5-2.5-3.8-3.8
		c-0.3-0.3,0-0.8,0.4-1.1c1.6,0.1,1.9,1.8,3,2.4c-0.9-0.9-2-1.9-2.5-3.3c-0.1-0.4-0.4-0.9,0-1.2c0.5-0.4,1-0.1,1.3,0.2
		C11.6,88,12.4,89.5,13.1,91.2z"/>
	<path class="st28" d="M0,48.5c1.8,2,3.6,4.1,5.4,6.1C5.5,55.8,5,56.9,5,58c-0.1,0.3-0.2,0.5-0.4,0.7c-0.7,0.4-1.3,0.2-1.9-0.2
		C2,57.9,1.9,57,1.5,56.2C0.9,56.5,1,57.6,0,57.4C0,54.4,0,51.5,0,48.5z"/>
	<path class="st29" d="M26.7,93.5c1.4,1.6,2.8,3.1,4.2,4.7c-0.4,0.9,1.1,1,0.7,1.9c-0.3,0-0.5,0-0.8,0c-2.1-0.7-3.3-2.5-4.7-4.1
		c-2.2-2.4-4.7-4.7-7-7.1c-0.6-0.6-1.3-1.1-1.2-2.1c1.3-1.2,2.2,0.2,3.3,0.4C23.6,88.8,25.2,91.1,26.7,93.5z"/>
	<path class="st30" d="M0,72.4c0-1,0-2.1,0-3.1c0.8-0.3,1.3,0.3,1.4,0.9C1.7,71.3,2.5,72,3,73c0,0.1,0,0.4,0.2,0.2
		c0.1-0.1,0.1-0.3,0.2-0.5c0.7-0.3,1.2,0.2,1.4,0.7c1.2,2.9,3.8,5,4.8,8c0.2,0.7,0.7,1.3,0.6,2c-0.1,0.3-0.3,0.5-0.5,0.6
		c-1.4,0-1.8-1.2-2.3-2.2c-0.5-1-1-1.9-1.7-2.7c-0.4-0.5-0.8-0.8-1.4-0.4c-2.3-1-2.8-3.3-3.8-5.2C0.2,73.1,0.3,72.7,0,72.4z"/>
	<path class="st31" d="M0,64.3c1.9,2.6,4.1,4.9,5.7,7.7c0.2,1.1,1,1.8,1.6,2.6l0,0c1.3,2.1,3,4,4.3,6.2c0.4,0.6,0.9,1.1,0.9,1.8
		c0,0.4-0.2,0.7-0.5,1c-0.8,0.2-1.2-0.3-1.5-0.9c-1.6-2.8-3.6-5.5-5.1-8.3c-0.6-1.1-1.1-2.2-2.6-2.2c-1.7-1.3-2-3.4-2.8-5.2
		C0,66.1,0,65.2,0,64.3z"/>
	<path class="st32" d="M8.5,88.9c-0.2,0.4-0.5,0.8,0,1.2c1.2,1.1,1.9,2.6,3.4,3.4c0.3,0,0.4,0.1,0.4,0.4c-1,0.8-0.1,1.1,0.4,1.5
		c0.8,0.9,1.8,1.6,2.5,2.6c0.3,0.6,0.6,1.3,0.3,2c-0.4,0-0.8,0-1.2,0c-1.1-0.6-2.1-1.2-1.5-2.7c-3.2-2.7-4.5-6.9-7.8-9.5
		c-1.2-0.9,0.4-0.5,0.5-0.8c0.5-0.3,0.9,0,1.3,0.1c0.3,0.1,0.6,0.2,0.8,0.4C8,87.9,8.5,88.3,8.5,88.9z"/>
	<path class="st33" d="M15.8,85.5c0.5,0.5,1.1,1,1.6,1.5c0.4,0.3,0.7,0.7,1,1.1c0.1,0.2,0.1,0.3,0.1,0.5c0.9,2.1,2.4,3.6,4,5.2
		c0.1,0.1,0.2,0.3,0.3,0.4c0.8,1.3,1.9,2.3,2.7,3.6c0.4,0.7,1.1,1.3,0.7,2.2c-0.3,0-0.5,0-0.8,0c-2.2-1.4-3.4-3.8-5-5.8l0,0
		c-1.5-1.7-2.8-3.6-4.2-5.4l0,0c-1-1-1.4-2.4-2.6-3.2c-0.2-0.2-0.3-0.4-0.3-0.7c0-0.2,0.1-0.3,0.3-0.5
		C14.6,84.2,15.2,84.8,15.8,85.5z"/>
	<path class="st34" d="M6.6,100.1c-1.9,0-3.8,0-5.8,0c-0.7,0-0.8-0.1-0.8-0.8c0.1-1.5,0-3.1,0-4.6c0.2-0.1,0.5-0.2,0.7-0.1
		c2.1,1.3,4.2,2.6,5.7,4.6C6.7,99.4,6.7,99.7,6.6,100.1z"/>
	<path class="st35" d="M0,78.9c0-1.3,0-2.6,0-3.8c2.1,0.2,2.6,2.2,3.5,3.5c0.7,1.1,1.4,2.2,2.3,3.2c0.4,0.6,1.2,1,0.6,1.8
		c-0.5,0.6-1.2,0.1-1.8-0.1c-0.2-0.1-0.5-0.1-0.7-0.2C2.3,82.1,0.8,80.8,0,78.9z"/>
	<path class="st36" d="M0,57.4c1-0.5,0.4-1.9,1.7-2.4c0.3,1.1,0.7,2.1,1,3.2c0.6,0.8,1.9,1.2,1.4,2.6C4,61,3.7,61.3,3.5,61.6
		c-0.9,1.2-1.6,1.3-2.2-0.2c-0.2-0.4-0.5-0.7-0.9-0.9l-0.2,0l-0.2,0C0,59.4,0,58.4,0,57.4z"/>
	<path class="st37" d="M26.2,100.1c-1-2.1-2.9-3.6-3.9-5.8c1-0.2,1.4,0.4,1.7,1.2c0-0.4,0.2-0.8,0.7-0.9c1.9,1.6,3.7,3.3,5,5.5
		C28.5,100.1,27.3,100.1,26.2,100.1z"/>
	<path class="st32" d="M5,91.2c2.5,1.8,4.6,4.1,6.9,6.2c-0.6,1.2-1.1,0.3-1.6-0.1c-1.2-0.9-1.9-2.4-3.5-2.7c-1-0.3-1.7-1.6-3-1.2
		C1.8,93,0.9,91.6,0,90.1c0-0.4,0-0.8,0-1.2c0.7-0.3,1.1,0.2,1.5,0.6c0.5,0.4,0.9,0.9,1.7,0.8C4,90.1,4.1,91.5,5,91.2z"/>
	<path class="st38" d="M12.7,100.1c-1.3,0-2.6,0-3.8,0c-1.8-0.8-3.6-1.8-4.5-3.8c0.3-0.9,0.9-0.7,1.5-0.4c0.4,0.2,0.8,0.6,1.4,0.5
		c0.7,0,1.3,0.3,2,0.4C10.4,97.8,12.6,97.9,12.7,100.1z"/>
	<path class="st39" d="M4.6,96.2c1.4,1.3,2.8,2.6,4.2,3.8c-0.8,0-1.5,0-2.3,0c-1.8-2.3-4.2-3.8-6.5-5.4c0-0.5,0-1,0-1.5
		c1.7,0,2.7,1.4,4,2.2C4.4,95.5,4.5,95.9,4.6,96.2z"/>
	<path class="st40" d="M5.4,82c-1.1-1-2-2-2.4-3.6c-0.3-1.3-1.6-2.6-3-3.4c0-0.9,0-1.8,0-2.7c1.8,1.8,2.2,4.5,4.2,6.2
		c1.5,0.5,2.2,1.6,2.3,3.1C6.3,82.3,5.8,82.1,5.4,82z"/>
	<path class="st41" d="M4.6,96.2c-0.3-0.1-0.5-0.3-0.8-0.4c-0.2-0.7-0.8-1.1-1.4-1.5c-1.1-0.7-1.9-1.6-2.5-2.7c0-0.5,0-1,0-1.5
		c1.4,0.8,2.2,2.5,3.9,3.1c1.9,0.5,3,1.6,3.4,3.5c-0.1,0.8-0.5,0.7-1,0.3C5.8,96.6,5.5,95.6,4.6,96.2z"/>
	<path class="st42" d="M29.7,100.1c-1.5-2-3.3-3.6-5-5.3c-2.6-1.8-4.8-4-6.5-6.6c-0.2-0.4-0.5-0.8-0.7-1.2c0.1,0,0.3,0,0.4,0
		c0.1-0.2,0.2-0.2,0.3,0c4.2,4.4,8.4,8.7,12.7,13.1C30.4,100.1,30,100.1,29.7,100.1z"/>
	<path class="st43" d="M5,91.2c-0.1,0.6-0.3,0.5-0.7,0.2c-0.4-0.3-0.8-0.7-1.3-1c-1.6-0.3-2.2-1.6-3-2.7c0-1,0-2.1,0-3.1
		c2.4,1.2,2.3,4.2,4.2,5.7C4.5,90.6,4.8,91,5,91.2z"/>
	<path class="st44" d="M92.4,83.5c0,0.3,0,0.5,0,0.8c-0.7,0.8-1.6,1.1-2.5,1.3c-0.8,0.1-1.2,0.6-1.5,1.3c-0.3,0.4-0.7,0.5-1.2,0.4
		c-0.7-0.4-0.5-1.1-0.5-1.8c0.1-0.7,0.4-1.4,0.6-2c0.4-0.5,1-0.7,1.5-1.1c0.3-0.2,0.7-0.2,1-0.1C90.6,82.7,91.7,82.8,92.4,83.5z"/>
	<path class="st45" d="M12.7,100.1c-0.9-1.4-2.4-2.2-3.8-3.1c-1-0.6-2.3-1-2-2.6c1.3-0.4,1.6,0.9,2.4,1.4c0.9,0.5,1.1,2,2.6,1.7
		c0.3,0,0.6,0,0.9,0c0.2,1,0.8,1.9,1.5,2.7C13.7,100.1,13.2,100.1,12.7,100.1z"/>
	<path class="st46" d="M86.9,86.9c0.5,0.1,1,0.1,1.2-0.4c0.5-1.3,1.5-0.6,2.3-0.7c0.6,0.5,1.4,0.7,1.9,1.3c0,0.1,0,0.3,0,0.4
		c-2.3,0.4-4.6,0.8-6.9,1.2c-0.4,0.1-0.7,0.2-0.9-0.3c0.2-0.8,0.9-1.2,1.6-1.5C86.4,86.7,86.7,86.7,86.9,86.9z"/>
	<path class="st47" d="M0,67c1.5,1.4,1.6,3.6,3,5c0.3,0.1,0.6,0.3,0.4,0.7c-0.1,0.7,0.3,1.3,0.5,2c-1.1-1.3-2.5-2.4-2.9-4
		C0.9,70,0.6,69.6,0,69.3C0,68.5,0,67.7,0,67z"/>
	<path class="st48" d="M15.4,100.1c-0.4-1.9-1.9-3-2.7-4.6c2.1,1.2,3.9,2.7,5.4,4.6C17.2,100.1,16.3,100.1,15.4,100.1z"/>
	<path class="st49" d="M0,78.9c1.3,1.3,2.6,2.6,3.8,3.8c-0.5,1.5-1.5,0.4-2.3,0.5C0.9,83.1,0.4,82.6,0,82C0,81,0,79.9,0,78.9z"/>
	<path class="st50" d="M20.4,94.3c1.7,1.9,3.3,3.9,5,5.8c-0.4,0-0.8,0-1.2,0C23,98.1,21.3,96.5,20.4,94.3z"/>
	<path class="st38" d="M0,91.6c1.2,1,2.4,2.1,3.6,3.1C4,95,4.1,95.4,3.9,95.8C2.6,94.9,1.3,94,0,93.1C0,92.6,0,92.1,0,91.6z"/>
	<path class="st51" d="M90.5,85.9c-0.7,0.4-1.7-0.1-2.3,0.6c-0.3-0.5-0.4-0.9,0.3-1.1c1.3-0.3,2.6-0.7,3.9-1.1c0,0.4,0,0.8,0,1.2
		C91.8,86.1,91.3,86.4,90.5,85.9z"/>
	<path class="st52" d="M92.4,83.5c-1,0-2.1,0.1-2.7-1c-0.1-0.2-0.1-0.5,0.1-0.6c0.9-0.1,1.8-0.4,2.6,0.1
		C92.4,82.5,92.4,83,92.4,83.5z"/>
	<path class="st53" d="M21.6,100.1c-0.9-1-1.5-2.1-1.9-4c1.1,1.7,2.6,2.4,3.1,4C22.3,100.1,22,100.1,21.6,100.1z"/>
	<path class="st41" d="M0,87.7c1.2,0.7,1.9,2,3,2.7c-0.1,0.7-0.4,0.7-0.9,0.3c-0.7-0.6-1.4-1.3-2.1-1.9C0,88.5,0,88.1,0,87.7z"/>
	<path class="st54" d="M90.5,85.9c0.6-0.2,1.3-0.3,1.9-0.5c0,0.5,0,1,0,1.5C91.6,86.9,90.6,87.2,90.5,85.9z"/>
	<path class="st26" d="M0,82c0.5,0.3,1,0.5,1.5,0.8c0.5,0.3,1.1,0.4,1.3,1.1c0,0.2,0,0.3-0.2,0.5l0,0c-1.6,0.8-1.9-0.8-2.7-1.5
		C0,82.5,0,82.2,0,82z"/>
	<path class="st55" d="M0,82.7c0.9,0.5,1.4,1.8,2.7,1.5c-0.3,0.7-0.8,0.9-1.4,0.3c-0.4-0.4-0.8-0.7-1.3-1.1C0,83.3,0,83,0,82.7z"/>
	<path class="st56" d="M31.6,100.1c-0.4-0.5-1-0.9-1.3-1.5c-0.4-0.8,0.4-0.2,0.6-0.4c0.6,0.6,1.3,1.3,1.9,1.9
		C32.3,100.1,32,100.1,31.6,100.1z"/>
	<path class="st57" d="M64.9,25.5c0.2,0.2,0.4,0.3,0.5,0.5c-0.1,0.7-0.7,0.9-1.3,1.1c-3.3-0.3-6.4,0.3-8.9,2.7
		c-0.1,0.1-0.4,0.1-0.5,0.1c-1.5-0.1-2.3-0.8-2.1-2.4c0.4-1.5,1-2.9,0.3-4.5c-0.1-0.4-0.2-0.8-0.2-1.3c0.1-0.5,0-1,0.3-1.5
		c0.2-0.1,0.3-0.1,0.4,0.1c1.9,1.4,4.5,0.8,6.5,2.2c1.2,0,2,1,2.9,1.5c0.6,0.4,1.2,0.5,1.8,0.9C64.8,25.2,64.9,25.4,64.9,25.5z"/>
	<path class="st58" d="M24,11.2c0.8-0.7,1.7-0.5,2.5-0.2c3.6,1,7.3,1.5,11,1.1c2.6-0.3,5.3,0.4,7.9,1.1c0.1,0.2,0.3,0.5,0.4,0.7
		c0,0.1-0.1,0.2-0.1,0.3c-0.9,1-2,1.1-3.2,1.1c-2.5-0.1-4.8-1.5-7.4-1.1c-2.1,0.2-4.1-0.1-5.9-0.9C27.5,12.5,25.7,12,24,11.2z"/>
	<path class="st59" d="M53.5,20.4c-0.2,0-0.3,0-0.5,0c-1.3,0.1-1.8-1.2-2.8-1.6c-1.6-1-3.3-1.9-4.1-3.7c-0.2-0.4-0.5-0.7-0.3-1.2
		c0,0,0,0,0,0C48.6,15.8,51.3,17.8,53.5,20.4z"/>
	<path class="st60" d="M62.7,24.6c-0.8-0.9-2.1-1-2.7-2c0.1-0.1,0.1-0.1,0.1-0.2c0.6-1.4,1.4-1,2.3-0.3c0.1,0.1,0.2,0.2,0.3,0.2
		c0.3,0.2,0.6,0.5,0.9,0.7C63.5,23.7,63.4,24.3,62.7,24.6z"/>
	<path class="st61" d="M62.3,22.1c-0.7,0.4-1.6-0.7-2.3,0.3c-0.4-1,0.1-1.4,1-1.5C62,20.9,62.5,21.1,62.3,22.1z"/>
	<path class="st62" d="M24,11.2c1.7-0.1,3.3,0.4,4.8,1.1c2,1,4.1,1.2,6.2,1.1c1.1,0.2,2.3,0.1,3.1,1c0.2,0.2,0.5,0.5,0.3,0.8
		c-0.2,0.3-0.6,0.2-0.9,0.1c-1.1-0.1-2.1-0.1-3.2-0.3c-1.5-0.3-3-0.2-4.3,1c-1.1,1-2.7,1.2-4.1,2.4c-0.3-1.6,1-1.8,1.6-2.6
		c-1-0.8-2-0.4-2.9-0.1c-1.3,0.5-2,0.2-2.2-1.1c0-0.2,0.1-0.4,0.1-0.7c0.5-0.6,1.2-0.8,1.9-1.2c0.3-0.2-0.2-0.2-0.2-0.4
		C24.2,12,24.1,11.6,24,11.2z"/>
	<path class="st63" d="M24.3,12.3c0.7,0,1.5-1,2.1,0.2c-1.3,0.5-2.5,1-3.8,1.5C22.9,13.1,23.8,12.9,24.3,12.3z"/>
	<path class="st64" d="M35,32c-0.2-0.3,0.1-1.3-0.8-0.6c-0.2,0.2-0.6,0.2-0.6,0c-0.2-1.7-2.2-1.6-2.8-2.9c-0.3-1.4-0.3-1.6,0.8-1.9
		c0.4,0.3,0.9,0.6,1.2-0.1c0.3-0.7,1.1-0.7,1.7-1.2c-1,0-1.8-0.1-1.8-1.3c0.1-0.4,1-1-0.2-1.2c-1-0.2-0.9-0.7-0.1-1.2
		c0.1,0,0.2,0,0.3,0c0.5,0,0.8,0.3,1.2,0.4c0.5-0.5,0-1.1,0.3-1.6c0.4-0.7,0.8-1.5,1.8-1.5c0.2,0.2,0.4,0.4,0.6,0.5
		c1,0.5,2.6-0.5,3.1,1.2l-0.1,0c0.2,0.8,1.1,1.4,1.1,2.3c-0.1,0.5-0.4,0.8-0.7,1.1c-0.1,0.1-0.5,0.3-0.1,0.5
		c0.6,0.5,0.8-0.3,1.2-0.3c1.4,0,1.9,0.9,1.6,2.2c-0.1,0.8-0.2,1.5-0.2,2.2c0,0.7-0.1,1.4-1.1,1.4c-0.5-0.1-0.7,0.2-0.8,0.6
		c-0.3,0.9-0.9,1.5-1.9,1.5c-0.5,0-0.9,0.4-1.3,0.8c-0.8,0.8-1.5,0.9-2.3,0.1C34.8,32.5,34.8,32.2,35,32z"/>
	<path class="st65" d="M41.2,29.2c1.5,0.5,0.6-0.8,0.6-1c0.1-0.7-0.6-1.3,0.3-2.2c0.5-0.4,0-1.7-1.3-1.7c-0.8,0.3-1-0.2-1.1-0.8
		c0-0.3,0.6-0.3,0.5-0.7c0.1-0.6,0.3-1.2,0.9-1.5c1.4,0.7,2.4-0.4,3.4-1c0.6-0.3,0.2-0.8,0-1.3c-0.3-0.8-1.3-1.1-1.3-2
		c1.2-0.4,1.6,0.7,2.3,1.3c0.5,0.4,0.9,1.1,1.4,1.6c2.1,1.8,3.3,4.3,4.7,6.6c0.2,0.6,0.2,1.1-0.1,1.7c-0.3,0.4-0.6,0.8-1,1.1
		c-1.7,1.8-6.5,2.7-8.8,1.7C40.9,30.5,40.6,30,41.2,29.2z"/>
	<path class="st66" d="M46.4,20.1c-1.2-0.9-1.6-2.7-3.1-3.2c-1.8-0.8-3.9-0.4-5.7-1.4c0.1-0.9-0.7-1.2-1.2-1.5c-0.4-0.2-1,0-1.4-0.4
		c2.6-0.1,5.2,0.6,7.7,1.1c2.8,0.2,4.7,1.6,5.5,4.3C47.9,19.7,47.4,20.3,46.4,20.1z"/>
	<path class="st67" d="M35.9,18.8c-0.5,0.6-1,1.2-1.6,1.7c-0.3,0.9-0.9,1.5-2,1.2c0-0.1,0-0.1,0-0.2c-0.1-0.6-0.2-1.2-0.4-1.9
		c1.2-0.1,1.9-1.1,3.1-1.2C35.6,18.3,35.7,18.4,35.9,18.8z"/>
	<path class="st68" d="M41.1,21.2c-0.1,0.6-0.3,1.2-0.9,1.5C40,22,39,21.5,39.5,20.5C40.1,20.7,40.6,21,41.1,21.2z"/>
	<path class="st69" d="M39.6,20.5c-0.6-0.5-1.2-1.2-2.1-0.7c-0.6,0.3-0.7-0.2-1-0.5C37.6,19.5,39.3,18.2,39.6,20.5z"/>
	<path class="st70" d="M32.7,24c0.6,0.4,1,1.8,1.9,0.3c0.3-0.4,0.5-0.4,0.9-0.1c0.4,0.4,0.3,0.6-0.1,1.1c-0.7,0.9-1.7,1-2.6,1.3
		c-0.2-0.3-0.5-0.6-0.7-0.8C30.8,24.6,31.4,24.2,32.7,24z"/>
	<path class="st71" d="M31.6,26.6c-0.8,0.4-0.4,1.3-0.8,1.9c-0.3,0.1-0.5,0.4-0.8,0c0.4-1-0.1-1.8-0.7-2.6
		C30.5,25.1,31,25.9,31.6,26.6z"/>
	<path class="st72" d="M73,35.7c-0.3,0.8-0.4,1.6,0.1,2.4c0.6,0.9,0.4,2,0.1,3.1c-0.6,2-2,3.4-3.4,4.9c-0.5,0.5-0.6,1.3-0.9,2
		c-1.2,2.2-2.3,4.3-3.5,6.5c-2.2,2.8-1.6,5.7-0.4,8.6c1.2,2.9,1.2,6,1,9.1c-0.3,1.1-1,1.6-2.1,1.4c-0.4-0.1-0.9-0.1-1.3,0.1
		c-1.6,0.5-2.7,0.1-3.4-1.5c-0.4-0.8-0.6-1.7-0.5-2.6c0.3-2-0.3-3.9-0.7-5.9c-0.2-0.6-0.2-1.2-0.3-1.8c-1.4-4.1-0.4-8,1.2-11.8
		c0.3-0.7,0.5-1.4,0.7-2.2c0.2-1.9,1.6-3.8,0.1-5.7c-0.5-0.4-1.1-0.3-1.6,0c-3.3,2-7.1,2.8-10.3,5.1c-3.9,2.3-7.5,5-10.1,8.8
		c-0.5,0.7-1.1,1.2-1.7,1.8c-0.5,0.5-1.1,0.8-1.5,1.3c-0.3,0.4-0.6,0.8-0.9,1.3c-1.4,1.7-2.9,3.3-4.7,4.4c-0.9,0.6-1.5,1.3-2.1,2.2
		c-0.6,1-1.2,2-2.4,2.3c-0.8-0.1-1.2-0.6-1.4-1.3c-0.1-0.6,0.1-1.1,0.4-1.6c0-0.3,0.9,0.1,0.5-0.6c0.4-0.9,1.2-1.7,1-2.8
		c-0.1-0.7,0.4-1.2,1.1-1.4c1.6-0.6,2.5-1.8,3.3-3.1c0.8-1.5,2.5-2.4,2.6-4.4c1.9-2.5,4.2-4.6,6.5-6.7c2-1.8,2.1-1.8,1-4.1
		c0.1-0.4,0.4-0.6,0.8-0.7c2-0.3,3.9-0.1,5.9-0.3c3.2-1.7,6.4-3.2,9.5-5c0.3-0.2,0.6-0.5,0.8-0.8c2-3.5,5.2-4.7,8.9-4.9
		c0.3,0,0.6,0,0.9-0.1c2.5-0.8,2.5-0.8,3.8,1.7c0.5,1,1.1,2,2.4,0.8c0.2-0.1,0.4-0.1,0.5-0.1C73.2,34.6,72.8,35.3,73,35.7z"/>
	<path class="st73" d="M65.3,72.7c0.4-1.7,0.3-3.3-0.2-5c-0.4-1.5,0-3-0.1-4.5c0.1-0.1,0.1-0.7,0.3-0.4c0.5,0.5,0.8,1.2,1.2,1.8
		c0.9,1.5,2.1,2,3.8,2c3.1-0.2,6,0.7,8.9,1.5c2.1,0.5,4.3,0.5,6.2,1.7c0.7,0.5,1.6,0.7,0.8,1.8c-0.2,0.3-0.1,0.9,0.2,1
		c1.6,0.8,2,2.4,2.4,3.9c0.2,0.7,0.6,1.3,1.3,1.6c1.4,0.6,1,1.4,0.2,2.2c-1.4,0.9-1.7,0.8-2.7-1.2c-0.2-0.3-0.4-0.4-0.7-0.5
		c-1.7-0.7-1.7-0.8-0.8-2.6c0.2-0.2,0.3-0.5,0.2-0.8c-0.7-0.5-1.6-0.5-2.1-1.3c-1.1-2.6-1.1-2.6-4.1-1.9c-1.1,0.3-2.3,0.7-3.3,0.7
		c-2.4,0-2.9,2.3-4.7,3.1c0.8,0.5,1.3,1.2,2.3,1c0.5,0.4,0.7,0.9,0.5,1.6c-0.3,0.7-0.8,0.7-1.5,0.5c-1.2-0.7-2.4-0.8-3.4,0.3
		c-1.4,0.8-2.6,0-3.9-0.5c-0.4-0.2-0.8-0.5-0.9-1.1c0.9-0.5-0.4-0.8-0.1-1.3C65.5,75.3,64.9,74,65.3,72.7z"/>
	<path class="st74" d="M72.4,34.3c-0.4,1.6-1.2,1.9-2.3,0.9c-0.7-0.7-1.1-1.5-1.3-2.5c-0.2-1.1-0.9-1.8-2-0.7
		c-0.6,0.6-1.1,0.6-1.9,0.5c-2.5-0.4-6.9,1.9-8,4.2c-0.4,0.9-1.1,1.4-1.9,1.8c-2.5,1.5-5.6,2.2-7.8,4.4c-0.3,0.3-1,0.2-1.5,0.2
		c0,0-0.1-0.1-0.1-0.1c-0.8-0.6-2,0.2-2.7-0.6c-0.8-0.8,0.5-1.8-0.1-2.7c0.3-1.5,1.6-2.2,2.6-3.2c1.1-0.8,2-1.9,3.4-2.2
		c1,0.2,1.8,0.1,2.7-0.6c1.2-0.9,2.8-1.1,4.1-1.8c0.7-0.1,1.4-0.2,2.1-0.2c2.8-1.1,5.6-2.2,7.6-4.6c1.3-0.5,2.1,0.6,3.1,1
		c0.6,0.3,1.1,0.9,1.9,0.3c0.4,0.4,0.8,0.8,1.1,1.1c0.3,0.1,0.3,0.3,0.3,0.6c-0.1,0.5-0.3,0.9-0.4,1.4C71,32.8,72.7,33.2,72.4,34.3z
		"/>
	<path class="st75" d="M71.6,30.4c0-0.2-0.1-0.5-0.1-0.7c3.3,0.8,6.6,1.4,9,4.2c0.3,0.8,1.2,1.2,1.1,2.2c-2-0.5-3.5-2-5.4-2.6
		c-1.2-0.4-2.5-0.7-3.5-1.4C72.2,31.5,71.4,31.3,71.6,30.4z"/>
	<path class="st76" d="M70.4,28.6c0,1.1-0.1,1.8-1.3,0.8c-1.1-0.9-2.2-1.8-3.6-2.1c-0.7,0.1-1.4,0.3-1.5-0.7
		c0.5-0.2,1.1-0.4,1.6-0.6C67.1,26.9,68.7,27.7,70.4,28.6z"/>
	<path class="st77" d="M62.7,24.6c0.1-0.6,0.3-1.2,0.8-1.5c0.1,0.1,0.3,0.3,0.4,0.4c0.4,0.6,1.3,1,0.7,1.9
		C64,25.3,63.2,25.2,62.7,24.6z"/>
	<path class="st78" d="M64.7,25.4c-0.2-0.6-0.5-1.3-0.7-1.9c0.2,0,0.4,0,0.7,0c0.7-0.2,1.4-0.4,1.2,0.8c-0.5,0.3-0.7,0.8-0.9,1.3
		C64.8,25.5,64.7,25.5,64.7,25.4z"/>
	<path class="st79" d="M65.9,24.2c0-0.9-0.7-0.7-1.2-0.8c0.7-0.6,1.5-1,2.1-0.1C67.1,24,66.4,24.1,65.9,24.2z"/>
	<path class="st71" d="M35,32c0,0.2,0,0.5,0.1,0.7c0.3,0.3,0.9,0.2,1,0.8c0,0.4-0.1,0.8-0.2,1.1c-0.3,1.2-0.1,2.4-0.2,3.6
		c-0.1,0.7,0.1,1.5-0.4,2.1c-0.2,0.1-0.3,0.2-0.5,0.2c-7.1-1.9-13.8-0.2-20.6,1.6c-0.2,0.1-0.4,0.1-0.5,0.2c-2,0.8-3.8,0.9-5.3-1
		c-0.8-0.3-1.6-0.3-2.5-0.6c-0.2-0.1-0.3-0.2-0.4-0.4c0-0.8,0.5-1.2,1.2-1.5c5.5-2.5,11.2-4.8,17.3-5.3C27.7,33.3,31.3,32.7,35,32z"
		/>
	<path class="st80" d="M2.3,45.1c-0.6-0.2-1.3,0.4-1.9-0.3c0.3-0.4,0.7-0.5,1.2-0.5c1.6,0.3,2.4-0.5,2.6-2c0.5-0.5,1.2-0.8,1.9-1
		c1.4,0.1,1.7,0.8,0.8,1.8c-0.8,0.9-1.2,2.3-2.6,2.6C3.7,45.5,3,45.1,2.3,45.1z"/>
	<path class="st81" d="M6.2,41.6c-0.5,0.6-1.2,1-2,0.7c0-0.9,0.6-1.4,1.2-1.8c0.1,0,0.3,0,0.4,0C6.4,40.7,6.4,41.2,6.2,41.6z"/>
	<path class="st82" d="M72.8,31.6c2.3,1,4.9,1.4,6.9,2.9c0.7,0.5,1.3,1,1.9,1.6c0.2,0.4,0.5,0.8,0.7,1.2c0.7,0.5,1.3,1,1.4,1.9
		c-0.4,1.3-1.3,1.1-2.1,0.5c-1.4-2.2-3.8-3.4-5.7-5c-1.3-1.1-2.7-0.5-2.8,1.1c-0.4-0.4-0.3-0.9-0.3-1.4c-0.2-0.2-0.3-0.4-0.3-0.7
		C72.7,33,71.5,32.1,72.8,31.6z"/>
	<path class="st83" d="M81.6,39.7c0.6-0.2,1.4,0.4,1.9-0.4c2.5-0.4,3.1-0.1,3.4,2.3c0,1.3-0.6,2-1.5,0.9c-0.9-1.1-0.7,1.1-1.6,0.2
		C82.8,41.8,82.2,40.8,81.6,39.7z"/>
	<path class="st84" d="M86.9,41.6c-0.2-2.1-1.9-2.1-3.4-2.3c-0.1-0.8-0.9-1.3-1.2-2.1c1.3,0.6,2.4,1.5,3.8,1.9c0.9,0.3,1,1.2,1,2.1
		C87,41.3,86.9,41.5,86.9,41.6z"/>
	<path class="st85" d="M47,97.4c0-0.2,0-0.5,0-0.7c-0.6-0.7-1.3-1.3-1.7-2.1c0.9-1.7,3.9-2.2,5.6-0.9c0.3,0.2,0.6,0.5,0.9,0.8
		c0.9,0.7,1.5,0.7,2.1-0.4c1.3-2.5,3.8-2.9,6.1-1.1c0.5,0.8,1.3,1.1,2.3,1.1c2.2,0,4.5,0.6,6.6-1.1c0.9-0.8,1.7,0,1.5,1.7
		c-0.1,0.1-0.1,0.1-0.2,0.2c-0.9,1.2-1.9,2.1-3.5,2.4c-0.7,0.1-1.3,0.3-2,0.1c-1.3-0.3-2.7-0.8-4,0.3c-0.2,0.2-0.6,0.1-0.9,0.1
		c-1.8-0.3-3.5-0.2-5.3,0.1C51.9,98.1,49.5,97.1,47,97.4z"/>
	<path class="st85" d="M74.7,89.7c0.8,0,1.5,0,2.3,0c0.3,3.6-1,6.3-4.4,8c-1.4,0.7-2.1,0.6-2.1-1.1c0-0.6-0.3-1.2-0.4-1.9
		c0,0,0,0,0,0c0.4-0.4,0.8-0.3,1.3-0.3c2.3-0.1,3.2-1.1,3.1-3.4C74.4,90.5,74.3,90.1,74.7,89.7z"/>
	<path class="st86" d="M88.1,78.9c0.5,0.9,0.6,2.4,2.3,1.6c0.3,0.7-1.2,0.6-0.7,1.4c0,0.2-0.1,0.4-0.1,0.6c-0.3,0.1-0.5,0.1-0.8,0.2
		c-0.7,0.2-1.2-0.2-1.5-0.7c-0.1-0.2-0.2-0.5-0.2-0.7c0-0.3,0-0.6,0.1-0.9c0.1-0.5-0.2-0.9,0.1-1.4C87.5,78.7,87.8,78.6,88.1,78.9z"
		/>
	<path class="st87" d="M34.7,93.9c-0.8,0.3-0.7,0-1.2-0.7c-1-1.4-2.5-3.3-5-2.5c-0.1,0-0.2-0.1-0.4-0.1c0,0,0-0.2,0-0.2
		c0.4-1.2,1.5-1.9,2.3-2.7c0.3-0.1,0.5-0.2,0.8-0.2c1.4-0.4,2.5-0.1,3.8,0.6c2,1.2,4.2,2,6.3,3c0.9,0.6,1.9,0.9,2.7,1.6
		c0.6,0.5,1.3,1,1,2c-2,0.6-3.5-0.5-4.8-1.7c-1.3-0.9-2.6-1.7-3.9-2.6c-0.8-0.6-1.5-0.7-2.5-0.1c0.5,0.8,1.8,0.4,1.8,1.6
		C35.5,92.8,35.2,93.4,34.7,93.9z"/>
	<path class="st14" d="M40.2,93.1c1.7,0.3,3,1.5,4.7,1.6c0.2-0.2,0.4-0.2,0.5,0c1.4-0.1,1.6,0.8,1.5,1.9c-0.9,0.1-2-0.3-2.7,0.6
		c-0.2,0.2-0.4,0.2-0.7,0.1C42.6,97.2,40.3,94.2,40.2,93.1z"/>
	<path class="st88" d="M82.7,94.7c1.1,0.1,1.2-0.9,1.7-1.4c0.3-0.4,0.8-0.8,1.3-0.6c0.5,0.3,0,0.8-0.1,1.2c-0.1,0.4-0.7,0.8-0.1,1.1
		c0.5,0.2,0.8-0.2,1.1-0.5c0.9-1,1.4-2.4,2.9-2.5c-0.1,1.1-1.1,1.7-1.4,2.8c0.9,0.2,1.9-0.1,2.7,0.6c-1.1,1.2-2,2.4-3.6,3.1
		c-0.4,0.2-0.8,0.5-1.2,0.1c-0.3-0.4,0-0.7,0.1-1.1c0.2-0.6,0.5-1.2,0.8-1.9c-1.7-0.4-3-0.1-4,1.4c-0.4,0.3-0.8,0.5-1.2,0.8
		c-1-0.8-0.5-1.8-0.4-2.7l0,0C81.9,94.7,82.2,94.4,82.7,94.7z"/>
	<path class="st89" d="M13.6,73.8c0.2,0.5,0.3,1.1,0.5,1.6c1.1,1.1,1.8,2.5,2.7,3.7c1.1,1.7,2.4,3.3,3.6,4.8
		c0.4,0.5,0.7,0.9,0.6,1.5c-0.1,0.4-0.5,0.6-0.9,0.6c-1.4-0.4-1.9-1.8-2.7-2.7c-1-1.2-1.8-2.6-2.8-3.8c-2.1-2.7-3.8-5.7-5.7-8.6
		c-0.2-0.4-0.4-0.8-0.4-1.3c0.1-0.3,0.2-0.6,0.5-0.8c4.8,0.1,9.6-0.6,14.3,0.6c0.4,0.2,0.8,0.5,0.8,1C24.2,72,25.1,73,26,73.9
		c0.8,1.2,1.8,2.2,2.7,3.2c0.5,0.8,1.3,1.5,1.7,2.4c0.1,0.4,0.2,0.7-0.1,1c-0.9,0.4-1.5-0.2-1.9-0.9c-0.8-1-1.7-1.9-2.6-2.8
		c-0.8-1.4-2.2-2.4-2.8-3.5c0.8,1.1,2,2.3,3.1,3.7c0.6,0.6,1.2,1.2,1.2,2.2c0,0.3-0.1,0.6-0.3,0.8c-1.2,0.4-1.7-0.6-2.3-1.3
		c-1.3-1.5-2.5-3-3.8-4.8c1,2.3,0.1,3.4-2.2,3.1c-0.5-0.4-0.7-0.9-1-1.4C16.9,74.1,15.5,73.4,13.6,73.8z"/>
	<path class="st90" d="M18.9,76.9c1.2,0.3,2-0.3,2.3-1.5c0.2-1.3-0.9-1.4-2-1.7c1.1-0.6,1.8-0.4,2.5,0.4c1.8,1.9,3.2,4.2,5.3,5.9
		c2.5,0.8,3.2,3.3,4.7,5c1.1,1.2,1,2.2-0.4,3.1c-0.2,0-0.5,0-0.7,0.1c-1.4-0.9-2.7-0.6-3.9,0.4c-1.9-2.7-3.9-5.3-6.5-7.5
		C19.8,79.7,18.7,78.5,18.9,76.9z"/>
	<path class="st91" d="M18.9,76.9c0.7,1.3,1.8,2.5,1.2,4.2c-0.4,0-0.7-0.1-0.8-0.5c-0.6-1.1-1.2-2.2-2.3-2.9
		c-1.4-1.1-1.6-3.2-3.4-3.9c1.7-1.3,4.3-0.4,5,1.8C18.7,76,18.8,76.5,18.9,76.9z"/>
	<path class="st92" d="M20.8,85.4c-1.6-1.9-3.1-3.9-4.3-6.1c-0.2-0.4,0-0.4,0.3-0.4c3.2,3.4,5.7,7.3,8.5,11c0.2,0.3,0.5,0.6,0.4,1
		c-0.3,0.1-0.7,0-0.9-0.2C23.4,89.1,21.5,87.7,20.8,85.4z"/>
	<path class="st93" d="M26.5,88.6c1.5-2.5,2.4-2.6,3.9-0.4c-0.6,1-1.2,2-2.4,2.4C27,90.3,26.6,89.6,26.5,88.6z"/>
	<path class="st94" d="M20.8,85.4c1.8,1.7,3,4,5,5.6c-0.1,1,1.2,1.4,0.9,2.5c-1.8-1.9-3.7-3.8-5.5-5.7c-0.6-0.5-1.5-0.8-1.2-1.9
		C20.4,85.8,20.7,85.7,20.8,85.4z"/>
	<path class="st90" d="M17,77.7c0.1-0.2,0.3-0.6,0.4-0.5c0.5,1.2,1.9,1.9,1.9,3.4C18.4,79.8,17.6,78.8,17,77.7z"/>
	<path class="st95" d="M16.9,78.9c-0.1,0.1-0.2,0.2-0.3,0.4c-1.1-1.1-1.8-2.5-2.5-3.9C15.6,76.1,16,77.7,16.9,78.9z"/>
	<path class="st96" d="M8.5,40.9c0.2,0,0.5-0.1,0.5-0.1c1,2.7,3,1.5,4.6,0.9c4.3-1.7,8.8-2.2,13.4-2.4c0.7,0,1.4-0.1,2.1-0.2
		c2.2-0.3,4.3-0.4,6,1.4c1,1.5,0.5,3.1,0.4,4.6c-0.1,0.7-0.2,1.4-0.3,2.1c-0.1,0.3-0.3,0.6-0.6,0.8c-1.8,1-3.9,1.3-5.9,1.5
		c-6.4,0.7-12.8,1.6-19,3.5c-1,0.3-1.9,0.1-2.7-0.5c-0.6-0.5-1.2-1.1-1.5-1.9c-0.1-1.2,0.1-2.5-0.5-3.7C4.6,46,5.3,45.5,5.8,45
		C7.1,43.9,8.2,42.7,8.5,40.9z"/>
	<path class="st97" d="M6.9,52.4c1,0.2,1.9,0,2.8-0.2c6-1.7,12.1-2.7,18.4-3.3c2.1-0.2,4.1-0.8,6.1-1.2c0,0.7-0.5,1.2-0.9,1.6
		c-1.9,1.8-3.1,4.2-5.2,5.8c-1.8,2.4-3.8,4.7-5.6,7.1c-0.9,1.2-1.9,2.1-3.5,1.9c-0.3,0-0.5,0.3-0.8,0.5c-0.2,0.1-0.5,0.2-0.8,0.2
		c-0.2,0-0.3-0.1-0.5-0.2c-0.5-0.4-1.1-0.8-1.6-1.3c0-0.2,0-0.3,0.1-0.5C12.6,59.2,9.8,55.8,6.9,52.4z"/>
	<path class="st98" d="M4.6,57.7c-0.3-1.2-0.1-2.2,0.8-3.1c3.1,2.8,6.1,5.7,9.2,8.5c0.3,1.1,0.3,2.2,0.1,3.3
		c-0.1,0.4-0.3,0.7-0.7,0.9c-0.4,0.2-0.7,0.3-1.1,0.1c-1.3-1.2-0.5-3-1.2-4.4c0.3,0.6,0.3,1.1-0.6,0.9c-0.4-0.1-0.9-0.4-1-0.8
		C9.2,60.4,6.4,59.6,4.6,57.7z"/>
	<path class="st99" d="M8.5,40.9C9.9,43.1,7.7,44,6.6,45c-1,0.9-1.8,1.3-0.6,2.7c0.7,0.8,0.3,1.9-0.5,2.8c-1.7-0.6-2.2-2.4-3.3-3.6
		c0.6,0.4,1.2,0.8,1.8,1.2c0.6-0.8-0.1-1.8,0.3-2.6c1.1-0.8,1.5-2.1,2.7-2.9c0.8-0.6-0.1-0.9-0.7-0.9c-0.1-0.4-0.2-0.7-0.4-1.1
		C6.8,40.4,7.7,40.2,8.5,40.9z"/>
	<path class="st100" d="M14.3,66.1c0.4-1-0.3-2,0.3-3c0.2-0.2,0.5-0.3,0.7-0.5c0,0.2,0,0.3,0,0.5c0.2,0.8,0.7,1.1,1.5,1.1
		c0.1,0,0.3,0.1,0.4,0.1c0.3,0.4,0.1,0.8-0.2,1.1C16.3,66.1,15.5,67.1,14.3,66.1z"/>
	<path class="st101" d="M4.2,45.5c0.1,0.9,1,1.9-0.3,2.6c0.1-1.4-0.1-2.6-1.7-3C3,44.7,3.7,44.9,4.2,45.5z"/>
	<path class="st102" d="M74.7,89.7c1.1,1.7,0.4,3.3-0.7,4.6c-1.1,1.2-2.5,0.8-3.9,0.4c-0.1-0.6,0.2-1.4-0.6-1.7
		c-0.6-0.2-0.7,0.6-1.1,0.8c-0.9,0.5-1.8,1-3,0.9c-1.3-0.1-2.6-0.4-4-0.1c-0.9,0.2-1.8-0.3-1.7-1.5c-0.3-1.1-1.5-1.2-2-2
		c1-1.5,2.5-2,4.1-2.1c2.2,0.4,4.3-0.1,6.5,0.3c0.2,0.1,0.4,0.2,0.5,0.4C70.7,89.7,72.7,89.7,74.7,89.7z"/>
	<path class="st103" d="M86.2,86.9c-0.3,0.7-0.7,1.2-1.5,1.2c-0.8,0.8-1.7,1-2.8,0.8c-1.8-0.2-3.5,0.4-5.3-0.1c-1.3,0-2.6,0-3.9,0
		c-0.4,0.2-0.8-0.1-1.1-0.3c-0.3-0.4-0.5-0.9-0.1-1.4c0.5-0.4,1.1-0.4,1.6-0.4c1.6-0.4,3.3,0.2,4.9-0.4c1.6,0.2,3-0.7,4.6-0.6
		c0.9,0.1,1.9-0.1,2.8,0.1C85.9,86.1,86.3,86.3,86.2,86.9z"/>
	<path class="st17" d="M82.7,94.7c-0.4,0.1-0.8,0.3-1.1,0.4c0-1.5-1.4-2.5-1.4-4c0-0.7,0.1-1.1,0.7-1.4c0.9,0.7,1.6,1.6,2.9,1.7
		c0.2,0,0.4,0.3,0.2,0.6C83.5,92.9,83.1,93.8,82.7,94.7z"/>
	<path class="st104" d="M83.9,92c-0.2-0.1-0.3-0.3-0.4-0.3c-1.9,0.7-2.3-0.7-2.6-2c0.2-0.1,0.5-0.2,0.7-0.3c0.9-0.8,2-0.9,3.1-0.4
		C84.5,90,84.5,91,83.9,92z"/>
	<path class="st17" d="M81.6,95.1c0.6,0.8,0.7,1.7,0.4,2.7c-1.2,1.1-2.8,1.4-4.4,1.6C78.9,97.9,80.4,96.6,81.6,95.1z"/>
	<path class="st105" d="M84.7,88.9c-1.1,0-2.1,0-3.1,0.4c-1.6-0.3-3.3,0.3-4.9-0.4c2.7,0,5.4-0.5,8.1-0.8c0.3,0.1,0.5,0.3,0.8,0.4
		C85.2,88.7,84.9,88.8,84.7,88.9z"/>
	<path class="st106" d="M72.1,88.5c0.2,0.1,0.5,0.3,0.7,0.4c-1.2,0.9-2.8-0.2-4,0.7c0,0-0.2,0-0.2,0c-0.4-0.2-0.3-0.4-0.3-0.7
		c0.1-0.2,0.3-0.3,0.4-0.4C69.9,88.2,71,88.2,72.1,88.5z"/>
	<path class="st107" d="M8.5,88.9c-0.4-0.4-0.8-0.8-1.2-1.2c-0.2-1.2-1.3-1.6-1.8-2.5c-0.3-0.5-1.3-1.2,0.2-1.5
		c1.5,0.1,3,0.4,4.4,0.8c0.8,0.2,1.6,0.4,1.8,1.4c0.9,1.9,2.8,3.1,3.9,4.8c0.2,0.3,0.7,0.4,0.4,0.9c-1.1,0.1-1.4-1.2-2.3-1.5
		c-0.2-0.1-0.6-0.3-0.7-0.2c-0.5,0.3,0,0.5,0.2,0.7c0.3,0.5,0.2,0.7-0.3,0.7c-1.5-1.3-2.1-3.4-4.1-4.6c0.9,2.4,2.1,4.3,3.6,6.1
		C11.2,91.4,9.9,90.2,8.5,88.9z"/>
	<path class="st43" d="M12,85.9c-2-1.3-4.5-1-6.5-2c-0.6-0.2-1.1,0.3-1.8,0.3c-0.4,0.1-0.6-0.2-1-0.2c-0.4-0.4-0.8-0.8-1.2-1.2
		c0.8-0.3,1.6,0.8,2.3,0c0.8-0.1,1.5,0.5,2.3,0.6c0-0.7-0.7-0.9-0.8-1.4c0.3-0.4,0.5-0.1,0.8,0c1.4,0.1,1.9,2,3.5,1.9
		c0.1-0.2,0.3-0.3,0.4-0.5c1.2,0.4,2.2,1.3,3.4,1.7c0.1,0.1,0.3,0.2,0.4,0.4c0,0.7-0.4,0.5-0.8,0.4C12.7,85.9,12.3,85.9,12,85.9z"/>
	<path class="st108" d="M13.9,90.1c1.1,0,1.5,1.2,2.3,1.5c1,1.4,2.6,2.4,2.9,4.7C17.2,94.1,15.6,92.1,13.9,90.1z"/>
	<path class="st50" d="M16.2,88.9c1.9,1.4,3.1,3.4,4.2,5.4C18.6,92.8,17.1,91.1,16.2,88.9z"/>
	<path class="st109" d="M13.1,85.9c0.3-0.1,0.5-0.3,0.8-0.4c1,1,1.9,2,2.4,3.4C14.8,88.3,14.5,86.4,13.1,85.9z"/>
	<path class="st110" d="M0.4,60.5c1.5-0.4,1.1,1.3,2.1,1.8c0.2-0.8,0.6-1.4,1.4-1.4c0.6-0.1,0.8,0.3,1.1,0.7
		c0.3,0.5,0.5,1.1,0.7,1.6c0.4,0.9,0.8,1.3,1.6,0.3c0.4-0.5,0.9-0.7,1.5-0.2c0.8,0.6,1.2,3.3,0.6,4.3c-1.2-0.1-2.2-0.9-3.5-0.3
		c-0.2,0.1-1.7-0.9-2.3-1.8c-0.3-0.4-0.5-0.9-1-1.2C1.8,63.1,0.9,61.9,0.4,60.5z"/>
	<path class="st111" d="M20,85.8c0.4,0.6,0.8,1.3,1.2,1.9c-1.1,0-1.9-1.1-3.1-0.8c-0.1,0-0.2,0-0.3,0c-1.1-2.2-3.1-3.9-4.4-6
		c-0.2-0.4,0-0.7,0.3-0.9c0.6-0.2,0.8,0.4,1.1,0.6c-0.1-0.4-1.1-0.9,0.1-1.3C16.7,81.5,18.4,83.6,20,85.8z"/>
	<path class="st112" d="M2.7,64.3c0,0,0.1-0.1,0.1-0.1c0.9,1.1,2.4,1.5,3.1,2.8c0.6-0.9,2.2-0.8,3.3,0.4c0.3,0.2,0.6,0.5,0.5,0.9
		c-0.1,0.4-0.5,0.5-0.8,0.5c-1.6,0-1.6,1.8-2.7,2.3C4.6,69.1,4.2,66.4,2.7,64.3z"/>
	<path class="st113" d="M6.2,71.1c-0.1-1.3,1-1.9,1.6-2.8c0.4-0.6,0.9-0.5,1.1,0.3c0.2,0.2,0.2,0.4,0,0.7c0,0.2,0,0.5,0,0.7
		c0,0.3,0,0.7,0,1c-0.1,1,0,1.9,0.7,2.7c0.2,0.3,0.3,0.7,0.3,1.1c-0.1,0.4-0.1,0.8-0.7,0.6C8.1,74.1,7,72.7,6.2,71.1z"/>
	<path class="st114" d="M12.3,82.8c-1.3-2-2.6-4-3.9-6c-0.4-0.7-1.1-1.3-1-2.2c2.4,2.2,3.9,5.1,6,7.6c0.6,0.7,1.1,1.4,1.7,2.1
		C13.8,84.9,12.9,84.4,12.3,82.8z"/>
	<path class="st115" d="M9.2,75.4c0.3-0.2,0.4-0.4,0.3-0.8c2.4,0.8,4.4,3.3,4.3,5.4c-0.1,0.3-0.3,0.6-0.4,0.9
		C11.8,79.3,10.5,77.3,9.2,75.4z"/>
	<path class="st116" d="M12.3,82.8c0.7,0.9,1.5,1.6,2.8,1.4c0.5,0.2,0.7,0.7,0.7,1.2c-0.8-0.2-1.5-0.5-2.3-0.7
		c-1.1,0.3-1.6-0.1-1.6-1.2C12,83.3,12.2,83.1,12.3,82.8z"/>
	<path class="st117" d="M7.4,74.7C6.4,74,5.5,73.4,5.7,72C6.3,72.9,7.2,73.5,7.4,74.7z"/>
	<path class="st49" d="M2.7,83.9c0.3-0.4,0.5-0.1,0.8,0c1.8,0.5,2.8,1.7,3.1,3.5C6,87.8,5.8,87,5.4,87c-0.8-1-1.6-1.9-2.7-2.7
		C2.7,84.2,2.7,84,2.7,83.9z"/>
	<path class="st118" d="M12.3,94c-0.1-0.1-0.3-0.3-0.4-0.4c0.3-0.3,0.6-0.4,1-0.1c1,0.9,2,1.7,2.8,2.8C14.1,96,13.6,94.5,12.3,94z"
		/>
	<path class="st36" d="M9.7,68.1c-0.1-0.3-0.3-0.5-0.4-0.8C9.9,66,8.5,65,8.6,63.7c0-0.3-0.4-0.5-0.8,0c-1.6,1.8-1.7,1.8-2.7-0.4
		c-0.2-0.5-0.5-1-0.5-1.6c-0.4-1-0.5-2.1,0-3.1c0-0.3,0-0.5,0-0.8c1.4-0.7,1.6,1.1,2.6,1.3c2.4,0.6,2.7,3.2,4.3,4.7
		c0.4-0.8-0.4-1.3-0.3-2.3c1.7,1.8,1.5,3.9,2,5.8C12.2,68.6,11,68.6,9.7,68.1z"/>
	<path class="st98" d="M4.6,58.5c0.8,1-0.2,2.1,0,3.1c-0.3-0.3-0.5-0.5-0.8-0.8c0.2-1.1-0.9-1.7-1.1-2.7C3.3,58.5,4,58.5,4.6,58.5z"
		/>
	<path class="st119" d="M11.9,83.5c0.3,0.7,0.8,1.1,1.6,1.2c0,0.1,0,0.3-0.1,0.4c-1.7,0.5-2.6-0.5-3.4-1.7c-1.3-3.3-3.7-5.9-5.3-9
		c-0.3-0.6-0.6-1.3-1.2-1.6c-0.1-0.2-0.3-0.5-0.4-0.7c0.7-0.5,1.3-0.2,1.8,0.4C6,74.2,7.1,76.1,8.1,78C9.3,79.9,10.7,81.7,11.9,83.5
		z"/>
	<path class="st120" d="M9.6,83.9c-1.8,0.6-2.6-0.8-3.5-1.9c0-1.5-1.2-2.3-2-3.4c0.2-0.4,0.3-0.8,0-1.7c1.8,1.6,3,2.9,3.6,4.7
		C8.1,82.5,8.7,83.4,9.6,83.9z"/>
	<path class="st35" d="M6.6,87.4c-1-1.2-1.7-2.6-3.1-3.5c0.6-0.6,1.3-0.5,1.9,0c-0.1,1.3,1.2,1.6,1.8,2.4c0.4,0.6,0.8,0.9,0.1,1.5
		C7.1,87.6,6.8,87.5,6.6,87.4z"/>
	<path class="st121" d="M18.1,88.1c2.4,2,4.4,4.3,6.5,6.6c-1.2,1.9-1.5-0.6-2.3-0.5c0,0,0,0,0,0c-1.5-1.9-3.2-3.6-4.2-5.8
		C18.1,88.4,18.1,88.3,18.1,88.1z"/>
	<path class="st37" d="M18.1,88.5c1.5,1.9,3.1,3.6,4.2,5.8c-1.9-1.3-3-3.4-4.4-5.1C17.7,88.9,17.9,88.7,18.1,88.5z"/>
	<path class="st122" d="M6.9,94.3c0.7,0.9,1.3,1.8,2,2.6c-0.7,0.5-1.1-0.3-1.6-0.3c-1.1-1.2-2.3-2.3-3.4-3.5
		c0.1-0.6,0.4-0.8,0.9-0.4C5.5,93.2,6.2,93.8,6.9,94.3z"/>
	<path class="st123" d="M87.7,81.7c0.2,0.6,0.5,1,1.2,1.1c-0.5,0.3-0.8,0.9-1.5,0.8c-0.1,0.1-0.2,0.3-0.4,0.4
		c-0.5,0.4-1,0.5-1.6,0.5c-0.8-0.1-1.6,0.2-2.4,0.4c-0.8,0.1-1.5,0.3-2.2,0.6c-0.6,0.3-1.2,0.5-1.7-0.1c-0.3-0.6-0.3-1.1-0.1-1.7
		c0.2-0.5,0.7-0.7,1.1-0.9c1-0.2,1.6-1.1,2.7-1.1c0.5,0.1,1,0.1,1.5,0.1c0.5,0,1-0.2,1.5-0.2C86.4,81.6,87.1,81.4,87.7,81.7z"/>
	<path class="st124" d="M79.2,85.4c1.3-0.1,2.2-1.3,3.6-1.1c0.2,0.1,0.4,0.2,0.5,0.4c0.5,0.6,0.6-0.2,0.9-0.2c0.3-0.1,0.7-0.1,1,0
		c0.8,0.1,1.5,0,1.7-0.9c0.2,0,0.3,0,0.5,0c0.3,0.8-0.2,1.3-0.4,1.9c-0.3,0.7-1,0.5-1.5,0.7c-1.3,0.1-2.7,0.2-4,0.2
		c-1.1,0-2.2,1.4-3.3,0.2c-0.1-0.1-0.2-0.2-0.2-0.4c0-0.3,0.2-0.5,0.4-0.6C78.6,85.4,78.9,85.2,79.2,85.4z"/>
	<path class="st125" d="M85.4,86.2c0.4-0.6,0.9-0.7,1.5-0.7c0.4,0.5,0,0.9,0,1.4c-0.2,0-0.5,0-0.7,0C85.9,86.7,85.7,86.4,85.4,86.2z
		"/>
	<path class="st126" d="M63.9,26.6c0.5,0.2,1,0.5,1.5,0.7c0,0.2,0.2,0.4,0.1,0.5c-0.3,0.8-3.9,3.2-4.7,3.2c-0.6,0-1.2,0-1.5,0.6
		c-0.4,0.8-1,0.7-1.6,0.7c-0.6-1.5,0.5-2,1.5-2.6c0.6-0.4,1.5-0.4,2.2-0.9c-1.7-0.6-3,0.3-4.3,1.2c-1.3,0.8-1.8,0.7-2.4-0.5
		c1.3-0.4,2-1.5,3-2.2C59.7,25.8,61.8,26.6,63.9,26.6z"/>
	<path class="st127" d="M54.7,29.5c0.8,0.5,1.1,0.7,2-0.3c1.3-1.2,3.5-1.9,5.6-0.8c-0.4,0.9-1,1.5-2.1,1.5c-1.3,0-2.1,1-2.4,2.3
		c-0.6-0.2-1.3,0.6-1.9,0c-0.6-0.4-1.2-0.7-1.9-0.5c-0.4-0.1-0.9-0.2-1.2-0.5c-0.1-0.1-0.2-0.3-0.2-0.5c-0.1-0.9-0.3-1.8-1-2.5
		c-0.2-0.2-0.3-0.4-0.3-0.7c0.3-0.4,0.4-0.8,0.1-1.2c0.1-1,0.6-1,1.2-0.4c0.3,0.3,0.3,0.8,0.5,1.2c0,1-0.2,2.2,1.6,1.7
		C54.6,29.2,54.7,29.4,54.7,29.5z"/>
	<path class="st128" d="M53,27.3c-0.7,0.1-0.5-2-1.7-0.8c-1.8-2-2.7-4.7-4.9-6.4c0.6-0.4,1.1-0.8,1.7-1.2c0.9-0.3,1.2,0.6,1.8,0.9
		c0.2,0.2,0.3,0.4,0.4,0.7c0.2,0.5,0.1,1-0.1,1.7c1.5-1.2,2.3-0.1,3.2,0.6C54,24.3,54.1,25.9,53,27.3z"/>
	<path class="st129" d="M50,20.5c-0.1-0.1-0.2-0.3-0.4-0.4c-0.5-0.9,0-1.3,0.8-1.6c1.1,0.3,1.8,1.3,2.6,2c0,0.4,0.7,0.7,0.2,1.2
		C52,21.6,50.5,22.6,50,20.5z"/>
	<path class="st130" d="M50,20.5c0.6,1.7,2.2,0.5,3.2,1.1c0.1,0.4,0.2,0.8,0.3,1.1c-1,0.1-2.3-1.8-3,0.4c-0.1,0.2-0.5,0.1-0.7-0.1
		c-0.3-0.3-0.6-0.6-0.3-1C49.8,21.5,50.1,21.1,50,20.5z"/>
	<path class="st131" d="M50.4,18.4c-0.2,0.6-0.8,0.9-0.8,1.6c-0.8,0-0.9-0.9-1.5-1.2c-1.4-1.9-3-3.5-5.4-4.2c1.2,0.3,2-0.7,3.1-0.8
		C47,15.8,48.6,17.3,50.4,18.4z"/>
	<path class="st132" d="M35.8,33.5c-0.2-0.3-0.5-0.6-0.7-0.8c0.8,0.2,1.4,0.3,1.9-0.6c0.3-0.6,0.8-1.5,2.1-0.8
		c0.6,0.3,0.7-0.8,0.9-1.3c0.2-0.7,0.2-1.7,1.3-0.8c0,0.6,0,1.2,0.8,1.2c2.2-0.1,4.4-0.1,6.5-0.2c0.9-0.1,0.9-1.5,2-1.6
		c0.4,0.6,0,1.1-0.2,1.6c-0.5,1.1-0.8,2.2-0.6,3.5c-0.1,0.5-0.3,0.9-0.9,1.1c-1,0.8-2,1.5-3,2.3c-0.4-0.1-0.7,0.2-1,0.5
		c-1.1,1.2-2.4,1.9-4,1.9c-1.7,0.1-3.3,0.4-4.7,1.7c-0.2,0-0.4-0.1-0.5-0.2C35.3,38.4,35.7,36,35.8,33.5z"/>
	<path class="st133" d="M35.6,28.2c0.9-1.1,2.5-1,2.6-2.5c0.3,1.1-0.3,2,0.3,3.1C37.4,29,36.7,28.5,35.6,28.2z"/>
	<path class="st134" d="M32.3,21.7c1.1,0.3,0.9-1.5,2-1.2c0.5,0.9,0.4,1.8,0.1,2.9C33.7,22.7,33.2,22,32.3,21.7z"/>
	<path class="st135" d="M39.8,23.5c0.6,0,0.7,0.6,1.1,0.8c-1,1.9-1.7-0.1-3.1,0C38.8,23.9,39.3,23.7,39.8,23.5z"/>
	<path class="st136" d="M49.3,33.5c-0.8-1.1-0.2-2.1,0.3-3.1c0.3-0.6,0.6-1.2,0.9-1.8c0.2-0.3,0.4-0.5,0.6-0.8
		c0.2,0.2,0.3,0.3,0.5,0.5c0.2,0.2,0.4,0.5,0.3,0.7c-0.6,1,0.1,1.5,0.9,1.9c0,0.1,0,0.3,0,0.4c0.1,1-0.8,1.1-1.3,1.6
		C50.8,33.2,50.3,34.1,49.3,33.5z"/>
	<path class="st137" d="M59.3,50.2c-0.5,1.6-1.1,3.2-1.6,4.9c-0.5,1.7-0.4,3.5,0.3,5.2c0.3,0.6,0,1.1,0,1.6
		c-0.7,1.7-2.3,2.3-3.9,2.2c-4.7-0.1-9.4,0.6-14.2,0.5c-3.6-0.1-4.2-0.7-4.3-4.3c0-0.4,0-0.9-0.1-1.3c-0.2-0.4-0.1-0.9,0-1.3
		c3.3-4.3,6.9-8.3,11.8-10.8c0.5,0.7,0.5,0.7,0,1.3c-0.8,0.8-1.9,1.3-2.8,2c-0.5,0.3-1.2,0.6-1,1.3c0.2,0.8,1,0.6,1.6,0.6
		c3.2,0.1,6.4-0.1,9.6-0.3c1.4-0.1,2.8-0.3,3.7-1.6C58.6,49.7,59.1,49.1,59.3,50.2z"/>
	<path class="st138" d="M35.9,58.5c0.5,0.9,0.2,1.9,0.2,2.8c0.1,1.7,0.7,2.5,2.6,2.6c5.3,0.2,10.6-0.7,15.9-0.4
		c1.5,0.1,2.2-1.3,3.4-1.6c0.4,0.5,0.6,0.9,0.4,1.5c-0.4,1,0.1,1.9,0.3,2.8c0.4,1.5-0.2,2.5-1.7,2.9c-0.3,0.1-0.6,0.2-0.9,0.2
		c-3.5,0.1-6.9,0.2-10.3,1.3c-0.7-0.1-0.6-0.6-0.5-1.2c0.2-1.1-0.6-1.7-1.4-1.9c-1-0.3-1.3,0.5-1.5,1.3c-0.2,0.8-1.7,1.4-0.4,2.4
		c0.3,0.3,0.4,0.6,0.5,1c0,1.4-0.7,2.8,0.2,4.2c0.1,0.3,0.1,0.6,0,0.9c-0.3,0.8-0.9,1.1-1.7,1c-0.3-0.1-0.5-0.2-0.7-0.5
		c-0.5-0.8-1.3-1.5-1.5-2.5c-0.2,0-0.4,0-0.4,0.1c0,0.2,0.3,0.3,0.4,0.5c0.3,0.5,0.5,1,0,1.5c-0.1,0.1-0.3,0.2-0.5,0.3
		c-1.5,0.2-3.1,0.5-4.2-1c-0.2-0.2-0.2-0.5-0.3-0.8c0.3-1.3,0.6-2.7,0.5-4c-0.1-0.3-0.1-0.6,0-0.9c-0.1-1.7,0.3-3.4,0.4-5.1
		c0-0.2,0-0.4,0-0.6c0-1.2,0-2.4,0.1-3.6c0.4-0.9,0.2-1.9,0.5-2.8C35.6,58.7,35.7,58.6,35.9,58.5z"/>
	<path class="st139" d="M59.3,50.2c-0.1-0.1-0.2-0.1-0.3-0.2c-1.3,2.6-3.8,2.2-6.1,2.5c-2.9,0.3-5.7,0.2-8.6,0.3
		c-0.7,0-1.6,0.2-1.9-0.8c-0.3-1,0.4-1.5,1.1-2c1.2-0.8,2.3-1.5,3.5-2.3c0.3-0.2,0.6-0.4,0.2-0.7c1.5-1.2,3.2-2.1,4.9-2.7
		c1.9-0.7,3.8-1.5,5.5-2.7c0.8-0.5,1.6-0.8,2.4,0c0.7,2.2-0.3,4.4-0.2,6.6C60.1,48.9,59.7,49.6,59.3,50.2z"/>
	<path class="st140" d="M35.1,71.4c0,0.1,0,0.3,0,0.4c-1.2,1.7-2,3.4-1.5,5.6c0,0.2,0,0.4,0,0.6c-0.1,0.5-0.3,0.9-0.8,1.1
		c-1.2-0.1-1.5-1.1-2-1.8c-0.5-0.7-0.9-1.4-1.7-1.7c-1-0.7-2.2-0.9-3.4-1.1c-1.3-1.1-2.6-2.3-1.8-4.3c-0.2-0.4,0-0.6,0.4-0.7
		c2.1-3.9,6.2-6,8.9-9.3c1,0.1,1,0.9,1,1.5c0,1.8,0.3,3.5,0.4,5.2C35.3,68.3,34.3,69.9,35.1,71.4z"/>
	<path class="st141" d="M45.4,70.4c3.1-1.5,6.4-1.6,9.8-1.6c2.9,0.1,3.4-0.7,2.9-3.5c-0.1-0.6-0.2-1.3,0.3-1.8
		c1,2.9,0.6,5.9,1.2,8.8c0.4,1.5,0.2,2.9-0.9,4.1c-1.4,0.3-2.7-0.3-4-0.4c-0.8-0.3-1.6-0.5-2.4-0.2c-2.4,0.1-4.7,0.6-6.9,1.6
		c-0.4,0.1-0.7-0.1-1-0.4c-0.1-0.8-0.8-1.1-1.3-1.7c-0.4-0.5-0.6-1.2-0.7-1.9c0.1-1,0.7-1.7,1.2-2.5C44.2,70.5,44.6,69.9,45.4,70.4z
		"/>
	<path class="st142" d="M18,64.3c-0.3-0.6,0-1.1,0.5-0.9c2.7,0.9,3.7-1.5,4.5-2.8c1.4-2.2,3.2-3.8,4.7-5.9c0.9,0.1,1.7,0.3,2.5-0.4
		c0.5-0.4,1.2-0.6,1.7,0c0.4,1.2,0,1.9-0.9,2.8c-1,0.9-1.7,2.1-2.4,3.2c-0.6,1-1.4,1.7-2.5,2c-0.5,0.1-1.4,0.3-0.9,1.1
		c0.9,1.7-0.4,2.1-1.3,2.8c-1,0.5-1.8,0.1-2.6-0.4c-0.8-0.6-1.5-1.1-2.5-1.1c-0.2,0-0.3,0-0.5-0.1C18.2,64.4,18.1,64.3,18,64.3z"/>
	<path class="st143" d="M32,54.3c-0.7,0-1.4,0.1-1.7,0.6c-1,1.7-1.7,0.7-2.4-0.2c2.4-2.1,3.9-5.1,6.5-7c0.2-0.1,0.3-0.2,0.5-0.2
		c0.3-0.4,0.5-0.9,0.9-1.3c0.7-0.7,1.3-1.4,2-2c0.5-0.4,0.9-1,1.6-0.6c0.1,0.1,0.3,0.3,0.4,0.4c1.4,0.9,1.9,1.6,0.2,2.9
		c-1.9,1.4-3.5,3.1-5.2,4.7C33.8,52.4,33.3,53.8,32,54.3z"/>
	<path class="st144" d="M39.3,43.5c-1.4,0.7-2,2.4-3.5,3c-1.2-0.7-0.3-1.6-0.3-2.5c0.3-1.1-0.3-2.3,0.7-3.2c0.4-1.3,1.3-1.9,2.6-1.9
		c2.3-0.1,4.6-0.1,6.3-2.1c0.2-0.2,0.5-0.1,0.7,0.1c-0.9,0.9-1.8,1.9-2.6,2.8c-0.7,1.4-1.6,2.7-3.1,3.4
		C39.8,43.3,39.5,43.4,39.3,43.5z"/>
	<path class="st145" d="M62,67.8c-0.6-0.9-1.9,0-2.4-1.4c1.3,0.5,2.4,0.7,3.6,0.4c-0.2-0.7-0.7-0.6-1.1-0.6c-1.2,0-2.1-0.5-2.2-1.7
		c0-0.8,0.9-1.4,1.8-1.4c1.1,0,2.3,0.1,2.5,1.5c0.3,2-0.1,4,0.7,6c0.2,0.5-0.5,1-1,1.2c-0.5,0.2-1.3,0.5-1.7-0.2
		c-0.2-0.3-0.3-0.6-0.6-0.7c-1-0.4-1.9-1.2-1.7-2.3C60,67.6,61.4,68.5,62,67.8z"/>
	<path class="st146" d="M24.3,69.4c-0.1,0.2-0.3,0.5-0.4,0.7c-4.9-1.1-10,0.2-15-0.8c0-0.2,0-0.4,0-0.7c0.3-0.2,0.5-0.3,0.8-0.5
		c1.1-0.7,2.4-0.1,3.4-0.8c0.3-0.1,0.5-0.2,0.8-0.4c1.5,0,3.1,0.5,4.6-0.1c0.2,0,0.4,0,0.6,0c1.4,0.3,3.1-0.2,4,1.4
		C23.5,68.6,23.9,69,24.3,69.4z"/>
	<path class="st147" d="M58.8,76.2c0.3-1.3,0.6-2.6,1-3.9c0.7,1.1,1.5,1.5,2.7,0.7c0.6-0.4,1.2-0.5,1.7,0.1c0.6,0.6,0.8-0.2,1.2-0.4
		c0,1.2,0.9,2.2,0.6,3.4c-0.1,0.3-0.1,0.6-0.5,0.5c-1.3,0.1-2.5,0.5-3.8,0.4c-0.1-0.1-0.2-0.3-0.3-0.5c0.2-1.1,1.3-1,1.7-1.4
		c-0.8,0.3-1.7,0.9-2.5,1.7c-0.5,0.3-1,0.7-1.6,0.6C58.5,77.2,58.5,76.7,58.8,76.2z"/>
	<path class="st148" d="M34,67.1c-0.6-2.3,0.2-4.8-0.8-7c0.2-0.4,0.5-0.8,0.7-1.1c1.2-0.5,1.1,0.5,1.3,1c0.1-0.3-0.3-1,0.5-1.1
		c0.1,0.9,0.3,1.9-0.3,2.7c-0.7,1.2-0.4,2.5-0.1,3.8c0,0.2,0,0.3,0,0.5C34.9,66.2,35.1,67.4,34,67.1z"/>
	<path class="st149" d="M40,43.1c0.9-1.3,1.8-2.5,3.1-3.4c2.1,0.8,0.2,1.5-0.1,2.2c0.7,1.1,2.4-0.3,2.8,1.3
		C43.9,43.1,41.9,43.4,40,43.1z"/>
	<path class="st150" d="M18.9,67.4c-0.1,0-0.3,0-0.4,0c-0.4-0.3-0.8,0-1.3-0.1c-1.3-0.1-1.6-0.6-0.6-1.6c1,0,2.1,0.7,3-0.3
		c-0.2-0.5-1-0.6-1.1-1.2c1-0.9,1.7,0.1,2.3,0.5c1,0.6,2,1,3.1,1.4c0.3,0.6-0.2,0.4-0.4,0.5C22,67.3,20.3,66.6,18.9,67.4z"/>
	<path class="st142" d="M18.9,67.4c1.4-1,2.9-1.6,4.6-0.8c-0.1,0.5-0.3,1-0.4,1.6C21.8,67.3,20.3,67.7,18.9,67.4z"/>
	<path class="st151" d="M60,48.1c-0.8-2.2,0.2-4.4,0.2-6.6C61.5,43.8,60.6,45.9,60,48.1z"/>
	<path class="st152" d="M72.8,33.5c0,0.3,0,0.6,0,0.9c-0.1,0-0.2-0.1-0.4-0.1c-0.5-0.5-1.1-0.9-1.5-1.4c-0.6-0.6-0.5-1.2,0.5-1.2
		C72.5,31.7,72.7,32.6,72.8,33.5z"/>
	<path class="st153" d="M35.8,58.8c-0.2,0.6-0.3,1.2-0.5,1.8c-0.6-0.5-0.1-1.8-1.4-1.7c0.5-0.4,1.1-0.8,1.6-1.2
		c0.5,0.1,0.5,0.4,0.5,0.8C35.9,58.6,35.8,58.7,35.8,58.8z"/>
	<path class="st154" d="M84.5,82.5c-0.6-0.1-1.3,0.2-1.8-0.4c-0.3-0.4-0.8-0.4-1.1-0.8c-0.4-0.5-0.6-1.1-0.7-1.8
		c0.8-1.4-0.6-0.5-0.8-0.8c-0.4-0.3-0.5-0.3-0.9,0.8c-0.3,0.3-0.7,0.6-1.2,0.6c-1.1-0.1-1.6-1-2.4-1.5c-0.5-0.6-0.5-1.2-0.1-1.8
		c0.4-0.6,1-0.7,1.5-1.2c0.6-0.7,1-0.2,1.4,0.3c1.7,0.5,2.1,0.1,2.4-1.9c0.4-0.7,1.1-1.1,2-1c0.7,0.1,1.4,0.2,1.9,0.8
		c0.6,1.1,2.4,0.1,2.8,1.6c-0.4,0.2-0.8,0-1.2,0.2c-0.3-0.1-0.1,0.2-0.1,0.1c0.5-0.3,0.8,0,0.8,0.5c-0.9,0.1-1,0.9-1.1,1.4
		c0,0.6,0.8,0.3,1.2,0.4c0.5,0.1,1,0,1,0.7c-0.3,0.1-0.5,0.3-0.8,0.4c-0.1,0.7-0.9,0.4-1.1,0.9c0.3,0.5,0.9,0.6,1.1,1.1
		c0.1,0.2,0.2,0.3,0.3,0.5c-0.5,1.2-1.2,0.4-1.8,0.3C85.4,82,84.6,81.4,84.5,82.5z"/>
	<path class="st155" d="M80.8,74.3c0.1,0.4,1.2,0.3,0.7,0.8c-0.6,0.7-1,1.9-2.2,1.8c-0.4,0-1.8,1.1-1.2-0.8
		c-0.1-0.4-0.2-1.1-0.9-0.7c-0.5,0.3-1.1,0.5-1.6,0.9c-0.4,0.3-0.9,0.5-1.4,0.6c-0.1,0.2-0.3,0.4-0.4,0.6c-0.8-1.1-2.1-0.1-3.1-0.9
		c1-1.2,1.5-2.8,3.6-2.4c-0.3-0.6-1.9-1.1-0.1-1.4c1.8-0.3,3.5-1.2,5.3-1c0.7,0.1,1-0.5,1.6-0.7c2-0.6,2.4-0.4,3.1,1.7
		c0.1,0.4,0.4,0.6,0.3,1.1c-0.6-0.1-1.3,0.2-1.8-0.4c-0.7-0.8-1.6,0-2.3-0.4c-0.1-0.2-0.1,0.1-0.1,0.1
		C80.8,73.5,81.1,73.8,80.8,74.3z"/>
	<path class="st156" d="M65.5,77.8c0.3,0.2,0.5,0.5,0.8,0.7c0.5,0.4,0.8,0.8,0.8,1.5c0,0.3-0.1,0.6-0.2,0.9
		c-0.5,0.7-0.9,1.4-1.7,1.9c-1,0.4-2,0.7-3,0.9c-1.2,0-2.3,1.3-3.5,0.2c0.8-2.4,2.2-4.4,3.9-6.1C63.4,77,64.5,76.5,65.5,77.8z"/>
	<path class="st157" d="M65.5,77.8c-1.7-0.6-2.8,0.1-3.6,1.5c-0.9,1.6-1.8,3.2-3,4.6c-0.2,1-0.9,1.6-1.6,2.2
		c-0.5,0.4-0.8,0.9-1.3,1.2c-0.2,0.2-0.5,0.3-0.8,0.3c-0.7-0.1-1.2-0.4-1.1-1.3c0.2-0.4,0.6-0.6,0.9-0.8c0.4-0.3,0.6-0.7,0.9-1.1
		c0.3-0.4,0.5-0.8,0.8-1.2c0.4-0.4,0.8-0.8,1.1-1.4c0.1-0.2,0.3-0.4,0.5-0.6c0.5-0.7,1.1-1.3,1.4-2.1c0.5-0.8,0.9-1.7,2-2
		c1.2-0.8,2.4-1.7,3.8-0.5C65.3,77,66.6,77.3,65.5,77.8z"/>
	<path class="st158" d="M75.8,78.5c1.2-0.2,1.3,1.3,2.3,1.4c1.2,1.4,1.2,2.7-0.1,3.5c-0.2,0-0.4-0.1-0.5-0.2
		c-0.9-1.1-2.1-1.9-3.3-2.7c-0.7-0.5-2-0.7-0.8-2c0.4,0.1,0.8,0.5,1.2,0.1C75,78.1,75.4,78.2,75.8,78.5z"/>
	<path class="st159" d="M73.5,78.6c-0.6,1.3,1,0.9,1.2,1.5c0.1,0.2,0,0.5-0.1,0.5c-0.7-0.1-1.2,0.3-1.8,0.6
		c-0.6-0.1-1.2-0.3-1.8-0.7c-0.5-0.4-1.2-0.7-0.9-1.5C70.5,77.6,71.8,77.4,73.5,78.6z"/>
	<path class="st160" d="M70.1,79c0.1,0.7,0.8,0.7,1.2,1.1c-0.1,0.4-0.4,0.6-0.7,0.8c-1.5,0.5-2.6-0.9-4-0.8c0.1-0.6,0-1.1-0.3-1.5
		C67.6,78.5,68.7,80,70.1,79z"/>
	<path class="st161" d="M75.8,78.5c-0.4,0-0.8,0.1-1.2,0.1c0-0.6-0.7-1-0.4-1.7c-0.3-1.1,0.5-0.8,1-0.9c0.5,0.1,0.5,0.4,0.4,0.8
		C75.7,77.5,75.4,78,75.8,78.5z"/>
	<path class="st15" d="M86.9,76.4c-0.7-0.5-1.7,0.3-2.4-0.9c1.1,0.2,1.9-0.7,2.8,0C87.2,75.8,87.1,76.1,86.9,76.4z"/>
	<path class="st162" d="M49.3,33.5c0.8-0.1,1.2-0.9,1.9-1.1c1,0.1,1.6-1.1,2.6-0.8c0.6,0,1-0.5,1.6-0.7c-0.1,0.6-0.2,1.2,0.3,1.5
		c-1.7,1.1-3.8,1.4-5.3,2.8c-0.6,0.5-1.1-0.4-1.7-0.6C49,34.2,49.5,34,49.3,33.5z"/>
	<path class="st163" d="M72.8,33.5c-0.4-0.7-0.6-1.5-1.4-1.9c-0.3-0.5-0.9-1.1,0.3-1.1c0.4,0.4,0.8,0.7,1.1,1.1
		C72.1,32.2,73.6,32.8,72.8,33.5z"/>
	<path class="st164" d="M35.8,44.3c-0.3,0.7-0.3,1.5,0,2.2c-0.2,0.4-0.5,0.9-1,0.9c-0.1-2.3,0.6-4.7,0.3-7c0-0.8,0-1.5,0-2.3
		c0.4-1.3-0.1-2.6,0.3-3.9c0.1-0.3,0.1-0.6,0.4-0.8c0.9,2.4,0.1,4.8,0.1,7.3C36,42,36,43.1,35.8,44.3z"/>
	<path class="st96" d="M35.3,34.3c-0.1,1.3,0.4,2.6-0.3,3.9C35.2,36.9,34.7,35.5,35.3,34.3z"/>
	<path class="st165" d="M57.7,91.2c1.4-0.1,2,0.6,2,1.9c-2.7-1.6-4.5-1-5.4,1.9c-0.1,0.4-0.3,0.8-0.7,0.7c-0.8-0.3-1.7,0.2-2.3-0.8
		c-1.1-1.9-4.1-2-5.8-0.3c-0.2,0-0.4,0-0.5,0c-0.6-1.8-2.7-1.8-3.8-2.9c-1-1.2-2.9-1.1-3.7-2.5c-0.1-0.3,0-0.6,0.1-0.8
		c1.2-0.6,2.4,0.1,3.6,0.2c2.5,0.1,4.9,0.4,7.3-0.2c1-0.3,2-0.1,2.9,0.4c1,0.3,2.1,0.2,3.2,0.4C55.7,89.7,56.8,90.2,57.7,91.2z"/>
	<path class="st166" d="M85.4,80.2c-0.2-0.1-0.5-0.2-0.6-0.4c-0.2-0.4,0.2-0.5,0.5-0.5c0.7-0.1,1.3,0.5,2,0c0.4,0.3,0.7,0.6,0.4,1.2
		C86.9,80.8,86.2,80.4,85.4,80.2z"/>
	<path class="st167" d="M85.4,80.2c0.8-0.4,1.6-0.2,2.3,0.2c-0.1,0.3-0.3,0.5-0.4,0.8C86.5,81.3,85.9,80.8,85.4,80.2z"/>
	<path class="st168" d="M37.7,89.3c0.8,0.8,1.9,1,2.8,1.6c0.3,0.2,1,0.1,0.6,0.8c-2.1-1-4.2-1.9-6.3-3c-1.2-0.6-2.2-1.3-3.6-0.6
		c-0.7-1,1.3-1,0.7-1.7c-1.4-1.6-2.2-3.7-3.8-5.1c-0.4-0.4-0.8-0.8-1.1-1.2c0-0.2,0.1-0.5,0.1-0.7c1-0.6,1.2,0.4,1.7,0.8
		c1,1.1,1.8,2.4,2.7,3.6c0.8,1.8,2.2,2.9,3.8,3.9C36.2,88.1,37.1,88.4,37.7,89.3z"/>
	<path class="st169" d="M29.2,74.9c1.9,0.7,2.2,2.8,3.5,4c1,0.4,1.7,1.1,2.3,2c0,0.8,0.5,1.4,0.9,2c0.6,1,1.4,1.9,1.6,3.2
		c0.1,0.7,0.3,1.5,0,2.2c-1.9,0.1-2.7-1.5-3.8-2.6c-0.4-1.1-1.5-1.6-2-2.6c-0.2-0.9-0.6-1.7-1.3-2.3c-0.1-0.1-0.1-0.2-0.1-0.3
		c0-0.1,0-0.2,0.1-0.2c-0.1-0.3-0.2-0.6-0.3-0.9c0-1.1-0.7-2-0.9-3C29.1,76,28.8,75.5,29.2,74.9z"/>
	<path class="st170" d="M13.9,80.1c-0.8-1.4-1.2-3.1-3-3.8c-0.7-0.2-0.6-1.3-1.3-1.6c-0.1-0.2-0.2-0.5-0.4-0.7c0-1.1-0.7-2-0.7-3.1
		c0-0.3,0.1-0.7,0.4-0.8c2,3.1,4.1,6.2,6.1,9.3c-0.7,0.8,0.6,1.1,0.2,2C14.8,80.9,14.3,80.5,13.9,80.1z"/>
	<path class="st171" d="M29.2,74.9c0,0.6,0.7,1,0.4,1.6c-0.3,0.5-0.7,0.8-1.2,0.9c-1.1-0.9-2-2-2.7-3.1C27,73.6,28.2,73.9,29.2,74.9
		z"/>
	<path class="st172" d="M25.8,77.4c-1.6-1.5-2.7-3.5-4.8-5.2c3.1,0.2,3.7,2.8,5.3,4.3C26.4,77,26.5,77.4,25.8,77.4z"/>
	<path class="st173" d="M25.8,77.4c0.4-0.2,0.4-0.5,0.5-0.9c1.6,1.1,2.3,3.2,4.2,4c0,0.1,0,0.2,0,0.3c0.1,0.1,0.1,0.2,0.1,0.3
		c0,0.1,0,0.2-0.1,0.2c-0.9,0.5-1.3-0.7-2-0.8c-0.6-0.2-0.6-1.1-1.4-1.1C26.9,78.5,26.1,78.1,25.8,77.4z"/>
	<path class="st174" d="M28.4,77.5c0.1-0.7,0.3-1.4,1.2-0.9c0.3,1,1.1,1.9,0.4,3C29.6,78.8,28.6,78.5,28.4,77.5z"/>
	<path class="st175" d="M17,64.2c-0.5,0.4-1.1,0.8-1.7,1.2c-0.3-0.9-0.2-1.6,0.2-2.4C16.3,63,16.9,63.3,17,64.2z"/>
	<path class="st176" d="M16.9,65.1c0.2-0.2,0.3-0.5,0.5-0.7c0.2,0,0.4,0,0.6-0.1c0,0,0.1,0,0.1,0c0.4,0.5,1.6,0.5,1.2,1.4
		c-0.3,0.8-1.2,0.5-1.8,0.4C17.1,65.8,16.8,65.6,16.9,65.1z"/>
	<path class="st177" d="M16.9,65.1c0.2,0.2,0.3,0.5,0.5,0.7c-0.2,0.2-0.4,0.2-0.6,0c-0.3,0.5-0.9,1.2,0.4,1.1c0.5,0,1-0.1,1.3,0.4
		c-1.6,0.4-3.2,0.9-4.6-0.4c0.4-0.2,0.4-0.5,0.4-0.9C15.5,66.5,16.1,65.5,16.9,65.1z"/>
	<path class="st178" d="M57.7,91.2c-1.4,0.2-2.1-0.9-3.1-1.5c-0.7-1.1-0.3-1.8,0.7-2.3c0.1-0.1,0.3-0.2,0.4-0.4
		c0.7-0.2,1.3-0.6,2-0.7c0.3,0,0.5,0,0.8,0c0.8,0.7,1.6,0.3,2.5,0.1c0.7-0.1,1.3-0.5,2-0.4c1.3,1.6-0.4,2.2-1,3.1
		c-0.2,0.1-0.4,0.1-0.5,0.1C60.2,89.9,59,90.5,57.7,91.2z"/>
	<path class="st179" d="M68.5,88.9c0,0.3,0.1,0.5,0.1,0.8c-1.7,0-3.5,0-5.2,0c-0.7,0-1.4,0.2-2-0.5c0,0,0,0,0,0
		C63.8,87.8,66.1,87.6,68.5,88.9z"/>
	<path class="st180" d="M68.5,88.9c-2.3,0.2-4.7-0.2-7,0.4c0.5-1.1,1.7-1.7,1.6-3c0.1-0.7,0.3-1.3,1.2-1.2c1,1.1,2.2,0.6,3.3,0.3
		c0.7-0.1,1.4,0.2,2.1,0.2c0.5,0,1,0.2,1.5,0.2c0.8,0,1.5,0.1,2.1-0.6c0.3-0.2,0.7-0.3,1-0.3c0.8,1.4,2.7,0.2,3.7,1.4
		c0,0.1,0,0.3,0.1,0.4c-1.3,1.7-3.2,0-4.7,0.7c-1.5-0.6-2.9-0.4-4.3,0.3C68.8,88,68.8,88.5,68.5,88.9L68.5,88.9z"/>
	<path class="st179" d="M68.5,88.9c-0.9-0.8-0.5-1.2,0.4-1.5c0.9-0.6,1.8-0.7,2.8,0c0.1,0.4,0.3,0.7,0.4,1.1
		C70.9,89.3,69.7,88.8,68.5,88.9z"/>
	<path class="st181" d="M71.6,87.4c-0.9,0-1.8,0-2.8,0c1-1.1,4.1-1.1,4.6-0.1C72.9,87.4,72.2,87.4,71.6,87.4z"/>
	<path class="st115" d="M8.5,70.8c0.4,0.7,0.8,1.4,1.2,2.1c0.5,0.7-0.2,0.8-0.5,1C8.3,73,8,72,8.5,70.8z"/>
	<path class="st182" d="M77.7,83.1c0.7,0,1.1-0.2,0.8-1c-0.4-0.7-0.1-1.5-0.4-2.3c0.2-0.2,0.5-0.4,0.7-0.6c0.4,0.3,1-0.1,1.3,0.4
		c0.2,0.6,1.5,0.4,1.3,1.5c-0.2,0.5-0.7,0.7-1,1.1c-0.4,0.4-0.8,0.8-1.1,1.2c0,0.6-0.1,1.3-0.1,1.9c-0.2,0.1-0.5,0.3-0.7,0.4
		C77.6,85.1,77.5,84.2,77.7,83.1z"/>
	<path class="st183" d="M80,81.9c0.2-0.4,0.4-0.8,1-0.7c0.3,0.5,0.7-0.3,1,0c0.3,0.3,0.6,0.5,0.7,0.9c-0.9,0-1.3,1.2-2.3,1
		C80.1,82.8,80.1,82.3,80,81.9z"/>
	<path class="st184" d="M86.9,83.5c0.2,1.6-0.8,1.5-1.9,1.5c-0.3-0.5,0-0.9,0.4-1.1C85.9,83.9,86.4,83.8,86.9,83.5z"/>
	<path class="st185" d="M85.4,83.9c-0.1,0.4-0.3,0.7-0.4,1.1c-0.2-0.1-0.5-0.2-0.7-0.3c-0.4,0.3-0.7,0.3-1.1,0
		c-0.1-0.1-0.3-0.3-0.4-0.4C83.6,83.9,84.5,83.7,85.4,83.9z"/>
	<path class="st186" d="M84.5,82.5c-0.4-0.3-0.9-0.6-1.3-1c0.9,0.3,1.9-0.5,2.6,0.4C85.4,82.1,85,82.3,84.5,82.5z"/>
	<path class="st187" d="M80,81.9c0.9,0.2,0.8,0.6,0.3,1.2c-0.3,0.1-0.7,0.2-1,0.4C79.1,82.8,79.7,82.4,80,81.9z"/>
	<path class="st188" d="M77.7,83.1c0.6,0.8,0.5,1.8,0.8,2.7c-0.2,0.1-0.3,0.2-0.5,0.4c-1.4,0-2.9,0.5-3.8-1.2
		c-0.5-0.2-0.6-0.8-0.8-1.2c-0.1-0.2-0.2-0.5-0.3-0.7c0.1-0.6-0.1-1.2,0.1-1.8c1-1.1,1.8-0.5,2.7,0.1C76.8,81.9,77.3,82.5,77.7,83.1
		L77.7,83.1z"/>
	<path class="st189" d="M83.2,84.7c0.4,0,0.7,0,1.1,0c-0.3,1.2-1.3,0.9-2.1,1C82,84.8,82.9,85.1,83.2,84.7z"/>
	<path class="st190" d="M52.8,30.8c-0.6-0.2-1.2-0.1-2,0.2c0.4-1.1,0.6-2,0.9-2.8C52.7,28.6,53.1,29.4,52.8,30.8z"/>
	<path class="st191" d="M53.9,31.6c-0.9,0.2-1.5,1.4-2.6,0.8c0.5-0.4,1-0.8,1.5-1.2C53.2,31.2,53.6,31.1,53.9,31.6z"/>
	<path class="st192" d="M35.8,44.3c-0.3-1.2-0.1-2.3,0.1-3.5c0.1,0,0.2,0,0.3,0C36,42,36.6,43.2,35.8,44.3z"/>
	<path class="st193" d="M34.7,81.2c-0.3-1.1-1.9-0.9-2-2.2c0.1-0.4,0.3-0.8,0.4-1.3c0.9,0.4,0.9,0.4,1,1.8c0.3-1.2-0.5-2.2,0.4-2.9
		c0.9,1.4,2.3,0.7,3.6,0.8c0.5,0.5,0.7,1.2,1.4,1.5c0.4,0.3,0.8,0.6,1.1,1.1c0.1,0.2,0.1,0.5,0.1,0.7c0.9,0.6,1.9,0.5,2.8,0
		c0.1-0.1,0.1-0.3,0.2-0.4c0.3-0.4,0.2-0.9,0.7-1.2c0.2-0.1,0.5-0.1,0.7,0c0.4,0.3,0.8,0.8,1.4,0.8c0.5,0,0.9,0.1,1.2,0.4
		c0.1,0.2,0.1,0.3,0.1,0.5c-0.1,0.1-0.3,0.2-0.5,0.3c0,0,0.1,0,0.2,0c0.7,0,1.4-0.3,1.8,0.5c-0.3,1-1.2,0.8-1.9,0.9
		c-0.9,0.2-1.8,0.2-2.7,0.6c-0.8,0.1-1.6,0.2-2.3-0.2c-0.4-0.7-0.1-0.8,0.3-0.8c-0.9,0.4-2.2,0.1-3.3,0.7C39.2,83,38.9,83,38.7,83
		c-0.7-0.5-1.6-0.4-2.4-0.6C35.7,82.1,35.1,81.7,34.7,81.2z"/>
	<path class="st194" d="M45.4,70.4c-0.7,0-1,0.5-1.5,0.8c-0.4,0-0.8,0-1.3-0.1c-0.4-0.1-0.8,0-1.1,0.4c-0.5,0-1.2-0.4-1-0.7
		c0.9-1.3,1-3,2.3-3.9c1.7-1.2,2.3,0.8,3.2,1.4C47.2,69.2,45.6,69.7,45.4,70.4z"/>
	<path class="st195" d="M33.2,77.4c-0.9-2.7-0.3-4.5,1.9-5.6c0,1.5,0.4,3.2-0.8,4.5C34.1,76.9,34.1,77.5,33.2,77.4z"/>
	<path class="st196" d="M40.4,80.1c-0.6,0-0.7-0.7-1.3-0.8c-0.2-1.5,0.9-1.1,1.7-1.1c0.5-0.3,1.1-0.5,1.6-0.8
		c0.7-0.5,1.5-0.9,2.4-0.4c0.2,0.1,0.4,0.2,0.6,0.3c0.1,0.1,0.1,0.1,0.2,0.2c0.1,0.3,0.2,0.5,0.1,0.8c-0.3,0.7-0.8,0.9-1.5,0.8
		c-0.7-0.2-1.3,0.1-1.9,0.5c-0.1,0.3-0.3,0.7-0.6,0.8C41.2,80.5,40.8,80.4,40.4,80.1z"/>
	<path class="st197" d="M42.7,70.8c0.6-0.3,1-0.1,1.2,0.4c-0.2,0.9-0.7,1.5-1.2,2.2c0,0.9,0.5,1.8,0.6,2.7c0.1,0.9-0.3,1.2-1,0.4
		c-1.4-1.3-0.5-2.8-0.4-4.2C42.3,71.9,41.9,71,42.7,70.8z"/>
	<path class="st198" d="M42.3,76.6c0.8,0.3,0.8-0.1,0.6-0.7c-0.2-0.8-1.1-1.5-0.2-2.4c0.5,0.6,0.7,1.3,0.8,2c0.6-0.1,0.3-1,0.9-0.8
		c0.4,0.1,0.5,0.6,0.4,1.1c-0.1,0.4-0.1,0.7-0.1,1.1c-0.8,0.1-1.5,0.8-2.3,0.4C42.4,77.1,42.4,76.8,42.3,76.6z"/>
	<path class="st199" d="M34,67.1c0.9,0.1,0.4-1.4,1.4-1.2c-0.1,1.8-0.2,3.7-0.3,5.5c-0.8-0.4-0.6-1.1-0.5-1.7
		C34.5,68.7,34.5,67.8,34,67.1z"/>
	<path class="st193" d="M38.4,77.4c0.5-0.3,0.2-0.7,0.1-1c-0.5-0.9,0.4-1.1,0.7-1.7c0.8,0.4-0.2,2.1,1.4,2.1c0.2,0-0.1,0.6-0.2,1
		C39.7,78.2,38.9,78.6,38.4,77.4z"/>
	<path class="st200" d="M33.2,77.4c0.6-0.1,0.7-0.7,1-1.1c0.1,0.1,0.3,0.2,0.4,0.3c0,1,0.3,2-0.1,3.3C34,79,34,78,33.1,77.7
		C33.1,77.6,33.1,77.5,33.2,77.4z"/>
	<path class="st201" d="M38.4,77.4c0.5,0.8,1.3,0.2,2,0.3c0.1,0.1,0.3,0.3,0.4,0.4c-0.3,0.7-1.5,0.1-1.7,1.1c-1-0.2-1.3-0.8-1-1.8
		C38.3,77.4,38.4,77.4,38.4,77.4z"/>
	<path class="st202" d="M39.2,74.7c0.2,0.8-0.5,1.1-0.7,1.7c-0.5-0.2-1.4-0.2-1-1.1C37.8,74.6,38.4,74.1,39.2,74.7z"/>
	<path class="st203" d="M35.4,65.4c-0.8-1.3-1.1-2.5,0.1-3.8C35.4,62.8,35.4,64.1,35.4,65.4z"/>
	<path class="st204" d="M42.7,70.8c-0.3,0.5-0.5,1-0.8,1.5c-0.1-0.3-0.3-0.5-0.4-0.8c-0.1-0.3-0.4-0.5,0-0.9
		C42.1,70.3,42.4,70.7,42.7,70.8z"/>
	<path class="st205" d="M58.8,76.2c0.1,0.4,0,1,0.5,1.2c0.3,0.3,0.3,0.7,0.2,1c-1,0-1.8,0.9-2.9,0.3c-0.6-1.3-0.8,0.1-1.2,0.1
		c-1.1,0.3-2.2,1.3-3.3,0c-0.5-0.9-0.1-1.6,0.5-2.3c0.1-0.1,0.2-0.3,0.3-0.4c0.4-0.7,1.2-0.6,1.8-0.7C56.1,75.5,57.4,75.8,58.8,76.2
		z"/>
	<path class="st205" d="M45.4,77.3c2.1-1.6,4.5-1.9,6.9-1.9c0.5,0.3,1,0.5,0.8,1.3L53,76.7c-0.6,0.3-1.2,0.5-1.2,1.4
		c0,0.7,0.1,1.4-0.9,1.5c-1,0.1-1.8-0.4-2.4-1.2c-0.8-1-2.2-0.2-3-1L45.4,77.3z"/>
	<path class="st206" d="M53.1,76.6c-0.3-0.4-0.8-0.7-0.8-1.3c0.8-0.3,1.6-0.5,2.4,0.1C54.2,75.8,53.6,76.2,53.1,76.6z"/>
	<path class="st207" d="M16.8,65.8c0.2,0,0.4,0,0.6,0c0.3,0,0.5,0,0.8,0c0.4,0,1,0.2,1.1-0.3c0.2-0.7-0.7-0.3-0.8-0.7
		c0-0.2-0.2-0.3-0.3-0.5c0.1,0,0.2,0,0.4,0c0.9,0.2,1.7,0.7,2.7,1.4C19.6,66,18.3,67.5,16.8,65.8z"/>
	<path class="st208" d="M59.3,78.3c0-0.3,0-0.6,0-0.9c0.2-0.5,0.5-0.8,1.1-0.8c0.4-0.2,0.8-0.3,1.2,0c0,0.2,0.1,0.4,0.1,0.6
		c-0.5,0.7-1,1.5-1.6,2.2c-0.4,0.2-0.8,0.7-1.2,0.2C58.3,79,59.1,78.7,59.3,78.3z"/>
	<path class="st209" d="M61.5,76.6c-0.4,0-0.8,0-1.2,0c1.4-1.1,2.8-2.4,4.9-1.3C63.8,75.3,62.5,75.5,61.5,76.6z"/>
	<path class="st210" d="M75.7,76.9c-0.1-0.3-0.3-0.5-0.4-0.8c0.1-2,1.7-0.4,2.5-1c0.4-0.3,0.7,0.5,0.4,1c-0.3-0.1-0.7-0.9-0.9-0.3
		C76.9,76.7,76.1,76.5,75.7,76.9z"/>
	<path class="st211" d="M80.8,74.3c-0.2-0.7-1.1-0.7-1.7-1.5c1.3,0.2,2.7-0.7,3.6,0.8C81.9,73.3,81.5,74.2,80.8,74.3z"/>
	<path class="st212" d="M80.1,78.5c1,0.2,1.6-1.6,2.9-0.5c-0.3,0.7-1.5,0.6-1.7,1.6c-0.6,0.5-0.9,0.1-1.3-0.3
		C79.8,79,79.8,78.8,80.1,78.5z"/>
	<path class="st213" d="M80.1,79.2c0.2,0.5,0.7,0.5,1.1,0.5c0.5,0.4,0.4,1.1,0.7,1.6c-0.2,0.2-0.4,0.4-0.6,0.6
		c-0.1-0.2-0.2-0.4-0.3-0.6c-0.4-0.9-0.4-0.9-1.6,0c0-0.6,0.4-1,0.7-1.5C79.9,79.5,79.9,79.3,80.1,79.2z"/>
	<path class="st214" d="M80.1,79.2c0,0.2-0.1,0.3-0.1,0.5c-0.4,0-1.2,0.8-1.2-0.4c0.8,0.4-0.3-2.2,1.2-0.8
		C80.1,78.7,80.1,79,80.1,79.2z"/>
	<path class="st215" d="M64.3,84.9c-0.4,0.4-0.8,0.9-1.1,1.3c-1.5,0.6-3,1.9-4.7,0.4c0.1-0.7,0.7-0.8,1.2-1.1c0.3-0.2,1.5,0.3,0.8-1
		c-0.3-0.6,1.3-0.5,1.5-1.4c1-0.3,2.1-0.5,3.1-0.8c0.1,0.1,0.2,0.3,0.3,0.5C65.2,83.6,65.3,84.5,64.3,84.9z"/>
	<path class="st216" d="M73.3,83c0.2,0.2,0.4,0.4,0.6,0.6c0.4,1-0.2,0.9-0.9,0.7c-0.6-0.4-1.2-0.7-1.9-0.6c-0.6,0-1.2,0.3-1.8,0
		c-0.5-0.3-0.3-1.2-0.9-1.4c-0.2-0.1-0.4-0.3-0.6-0.5c-0.3-0.5-1-0.5-1.3-1c0-0.2,0-0.5,0.1-0.7c1.1-0.3,2.2-0.8,3,0.5
		c0.1,0.1,0.6-0.1,0.9-0.1C71.6,81,73.1,81.3,73.3,83z"/>
	<path class="st217" d="M62,83.1c0.1,0.9-0.8,1-1.3,1.4c0.4,0.6,1.1-0.2,1.4,0.5c-1,0.9-2.5,0.9-3.6,1.6c-0.2,0-0.5,0-0.7,0
		c-1,0.3-1.1-0.2-0.9-1c0.5-0.8,1.2-1.3,2-1.8C60,84,60.9,83.4,62,83.1z"/>
	<path class="st218" d="M66.5,80.8c0.6,0.3,1.8-0.6,1.6,0.9c-0.5,0.7-1.2,1.2-2,1.4c-0.4,0.1-0.8,0-1-0.3c0-0.1,0-0.3,0-0.4
		C65.7,82,65.6,80.9,66.5,80.8z"/>
	<path class="st219" d="M55.4,87.4c-0.1,0.8-1,1.4-0.7,2.3c-1.1-0.1-2.4,0.4-3.4-0.4c-0.7-1-0.6-2.2-0.8-3.3c0-0.5,0.2-0.9,0.7-1.1
		c0.8-0.1,1.4,0.5,2.1,0.7c0.5,0.1,0.9,0.2,1.2,0.7C54.4,86.9,54.9,87.1,55.4,87.4z"/>
	<path class="st220" d="M59.3,78.3c-0.7,1.1,0.3,0.9,0.8,1c-0.4,0.9-0.8,1.8-1.6,2.5c-0.1-0.1-0.3-0.2-0.4-0.3
		c-0.6-0.9-1.7-1.6-2-2.7c0.1-0.3,0.3-0.4,0.7-0.3C57.6,78.9,58.4,77.6,59.3,78.3z"/>
	<path class="st221" d="M52.8,86.2c-0.6-0.2-1.2-0.6-1.6-1.1c-1-1.1,0.1-1,0.7-1.2c0.6,0.2,1.1-0.1,1.6-0.3c1.2-0.3,2.2-0.2,2.8,1.2
		c-0.2,0.4-0.5,0.8-0.7,1.2C54.6,85.9,53.6,85.4,52.8,86.2z"/>
	<path class="st222" d="M58.3,81.9c-0.3,0.6-0.7,1.3-1.3,1.7c-0.9,0.5-1.8,0.1-2.6,0c-0.3-1.2,0.5-2,1.2-2.9
		c1.4-1.1,1.5-1.1,1.8,0.5C57.4,81.9,58.2,81.5,58.3,81.9z"/>
	<path class="st223" d="M54.3,83.1c0.8,0.7,1.9,0.2,2.8,0.5c-0.3,0.4-0.5,0.8-0.8,1.1c-1-0.6-2-1.3-3.2-0.2c-0.4,0.4-1,0.1-1.4-0.3
		c0-0.3,0-0.6,0.1-1c0.2-0.4,0.5-0.7,0.9-0.8c0.4-0.1,0.9,0.1,1.2,0.3C54.1,82.8,54.2,83,54.3,83.1z"/>
	<path class="st224" d="M52.8,86.2c0.6-1.1,1.9-1.2,2.7-0.3c-0.3,0.5-0.8,0.2-1.2,0.4C53.8,86.2,53.3,86.2,52.8,86.2z"/>
	<path class="st225" d="M58.3,81.9c-0.8-0.1-1.4,0.4-2.2,0.6c0.1-0.7,0.6-0.7,0.9-1c0.2-0.7,0.8-0.5,1.3-0.5c0,0.3,0.1,0.5,0.1,0.8
		C58.4,81.9,58.4,81.9,58.3,81.9z"/>
	<path class="st215" d="M56.9,85.7c0.1,0.5,0.3,0.9,0.9,1c-0.6,0.6-1.2,0.8-2,0.4C56,86.4,56.4,86,56.9,85.7z"/>
	<path class="st226" d="M77.8,83.2c-0.7-0.6-1.5-1.1-2.2-1.7c-0.8-0.8-1.4-0.6-2,0.2c-0.9,0.4-1.2,0.1-0.9-0.8
		c0.6-0.2,1.3-0.5,1.9-0.7C75.8,81,77.3,81.6,77.8,83.2z"/>
	<path class="st227" d="M72.7,80.8c0,0.5,0.3,0.9,0.9,0.8c0.4,0.6,0.3,1-0.3,1.4c-0.7-1.2-2.3-1.3-2.9-2.5c0.2-0.3,0.5-0.4,0.9-0.4
		C71.8,80.3,72.2,80.5,72.7,80.8z"/>
	<path class="st228" d="M50.7,86.2c0.5,1,0.7,2,0.5,3.1c-1-0.6-2.1-0.6-3.1-0.3c-2.9,0.7-5.9,0-8.8,0.2c-0.7,0-0.8-1.1-1.6-0.6
		c-0.1,0.1-0.3,0.1-0.4,0c-0.1-0.8-0.6-1.6-0.4-2.4c0.5-0.3,1-0.4,1.5-0.2c0.6,0.8,1.4,1.2,2.4,1.2c1,0.1,1.9,0.1,2.9,0.3
		c2.2,0.5,4.1-0.5,5.9-1.5c0.2,0,0.4-0.1,0.6,0C50.4,85.9,50.6,86,50.7,86.2z"/>
	<path class="st229" d="M37.3,88.5c0.1,0,0.2,0,0.4,0c0,0.2,0,0.5,0,0.7c-2.9-0.9-5.4-2.2-6.5-5.3c1.3-0.3,2,0.6,2.7,1.5
		C35,86.5,36.2,87.5,37.3,88.5z"/>
	<path class="st230" d="M33.8,85.5c-0.9-0.5-1.8-1-2.7-1.5c-0.9-1.2-1.8-2.3-2.7-3.5c0.9-0.4,1.2,0.7,2,0.7c0.9,0.3,1.4,0.9,1.6,1.8
		C32.4,84,34,84,33.8,85.5z"/>
	<path class="st231" d="M38.5,86.2c-0.5,0-1-0.1-1.6-0.1c-0.1-1.2-1.2-1.9-1.5-2.9c0.8-0.7,1.7-0.5,2.6-0.2c0.5,0.3,0,1.4,1.1,1.5
		c0.6,0.1,1.2,0.9,0.9,1.8C39.5,86.7,39,86.6,38.5,86.2z"/>
	<path class="st232" d="M38.1,83.3c-0.9,0-1.8-0.1-2.7-0.1c-0.3-0.6-1.2-1-0.8-2c0.8-0.4,1.1,0.4,1.5,0.7c0.6,0.7,1.7-0.3,2.2,0.7
		c0.3,0,0.6,0,1,0c0,0.1,0.1,0.1,0.1,0.2c0,0.2-0.1,0.3-0.2,0.4c-0.1,0.1-0.3,0.1-0.4,0.2C38.6,83.5,38.3,83.4,38.1,83.3z"/>
	<path class="st233" d="M32,83.1c-0.5-0.6-1.1-1.2-1.6-1.8c0-0.1,0-0.3,0-0.4c0.1-0.1,0.3-0.2,0.4-0.3C31.4,81.3,32.3,81.9,32,83.1z
		"/>
	<path class="st234" d="M65,82.8c0.4,0,0.8-0.1,1.3-0.1c0.7-0.3,1.5-0.4,2.2-0.7c3.1-1.1-0.1,1.4,0.9,1.5c0,0.3-0.1,0.5-0.3,0.7
		c-0.7,0.5-1.5,0.5-2.3,0.8c-0.3-0.1,0,0.3,0,0.1c0.5,0,1-0.1,0.9,0.7c-2.4,0.9-3,0.7-3.4-0.9C64.5,84.2,64.8,83.5,65,82.8z"/>
	<path class="st235" d="M71.2,83.2c0.7,0.1,1.5-0.2,1.9,0.7c-0.6,0.5,0.6,0.6,0.2,1.1c-0.3,1.1-1.5,0.6-2.1,1.2
		c-0.6,0.1-1.1,0-1.6-0.3c-1.1-0.1-0.5-0.7-0.3-1.2C69.9,84.1,70.8,83.9,71.2,83.2z"/>
	<path class="st236" d="M69.7,84.7c-0.2,0.4-0.6,0.8,0,1.2c-0.7,0.6-1.3-0.2-2-0.1c-0.6-0.9-1.7,0.4-2.4-0.5
		c1.2-0.7,2.4-1.1,3.7-1.5C69.5,83.9,69.8,84,69.7,84.7z"/>
	<path class="st237" d="M71.3,86.2c-0.1-1.5,1.4-0.4,1.8-1c0.3-0.1,0.4,0.1,0.5,0.3C73.1,86.8,72,85.9,71.3,86.2z"/>
	<path class="st103" d="M73.5,85.4c-0.2-0.1-0.3-0.2-0.5-0.3c-0.1-0.2-0.1-0.5-0.2-0.7c-0.1-0.2-0.4-0.3-0.5-0.4
		c0.3-0.1,0.6-0.1,0.9-0.2c0.3,0.1,0.8,0.4,0.8-0.3c0.5,0.4,0.3,1,0.4,1.5C74,85.1,73.8,85.3,73.5,85.4z"/>
	<path class="st238" d="M48.9,78c0.3,1,1.2,0.9,1.9,1.1c0.1,0.2,0.2,0.4,0.1,0.6c-0.1,0.2-0.2,0.4-0.4,0.5c-0.9,0.8-1.8,1-2.8,0.3
		c-0.5-0.1-1-0.1-1.6-0.2c-0.3-0.2-0.7,0-0.8-0.4c-0.1-0.4,0.2-0.5,0.5-0.7c0.6-0.3,1.3,0,1.8-0.4c0.1-0.1,0.2-0.3,0.3-0.4
		C48.3,78.2,48.5,77.9,48.9,78z"/>
	<path class="st239" d="M48.5,78.8c0,0.1,0,0.3,0,0.4c-1.2,0.4-2.3,0.3-3.5,0.1c-0.2,0-0.4,0-0.6,0c-0.9,0.7-1.9,0.5-2.7-0.1
		c0.7-0.9,1.8-1.3,2.6-0.7c0.8,0.5,0.8-0.3,1.2-0.3C46.5,78.3,47.6,77.7,48.5,78.8z"/>
	<path class="st240" d="M47.8,80.5c0.9-0.1,2,0.3,2.7-0.8c1.1,2.1,0.9,2.9-1.4,4.8c-0.6,0.3-1.1,0.2-1.5-0.3c-0.2-0.4-0.2-0.8,0-1.2
		c0.2-0.3,0.4-0.4,0.7-0.5c0.5-0.1,1.3,0.2,1.4-0.7c-0.3-0.9-1.5-0.1-1.8-0.9C47.8,80.7,47.8,80.6,47.8,80.5z"/>
	<path class="st241" d="M47.8,80.8c0.7,0.4,1.8-0.5,2.2,0.8c-0.2,0.3-0.5,0.3-0.7,0.2c-1.4-0.1-2.7-0.1-4.1-0.2c0-0.2,0-0.3,0-0.5
		C46,80.9,46.9,80.8,47.8,80.8z"/>
	<path class="st242" d="M43.9,80.7c0.2,0.1,0.5,0.2,0.6,0.3c0.1,0.4-0.3,0.5-0.6,0.5c-1.2,0-2.5,0-3.7,0c-0.2,0-0.5,0-0.5-0.3
		c0.1-0.4,0.5-0.3,0.7-0.4C41.6,80.6,42.7,80.2,43.9,80.7z"/>
	<path class="st243" d="M43.9,80.7c-1.1,0.3-2.3,1-3.5,0.1c0-0.3,0-0.5,0-0.8c0.5,0,1,0,1.5-0.1c0.7-0.2,1.6-1.1,2,0.4
		C43.9,80.5,43.9,80.6,43.9,80.7z"/>
	<path class="st244" d="M39.3,82.7c-0.1-0.6,0.2-0.7,0.7-0.7c1.1,0,2.1,0,3.7,0c-0.8,0.4-1.2,0.6-1.5,0.7
		C41.3,83.6,40.3,83.5,39.3,82.7L39.3,82.7z"/>
	<path class="st245" d="M39.3,82.7c1,0,2,0,3,0c1,0.1,1.9,0.2,2.9,0c0.3-0.1,0.8-0.3,0.7,0.4c-2.2,1-4.4,1-6.5,0
		C39.3,83,39.3,82.8,39.3,82.7z"/>
	<path class="st246" d="M43.9,80.4c-0.5-0.9-1.4-0.1-2-0.4c-0.1-0.2-0.2-0.5-0.3-0.7c0.9,0,1.8,0.1,2.7,0.1
		C44.8,80,44.7,80.3,43.9,80.4z"/>
	<path class="st247" d="M49.2,81.7c0.2-0.1,0.5-0.1,0.7-0.2c0.1,1.2-0.4,1.5-1.5,1.2c-0.4-0.5-1.4,0.4-1.6-0.7
		C47.7,81.8,48.5,82.1,49.2,81.7z"/>
	<path class="st246" d="M45,79.3c1.2,0,2.3-0.1,3.5-0.1c-0.6,0.8-1.5,0.3-2.2,0.4c-1.1,0.2-0.2,0.5-0.1,0.7
		C45.4,80.5,45,80.2,45,79.3z"/>
	<path class="st248" d="M46.9,82c0.4,0.4,1.2,0.1,1.6,0.7c-0.2,0-0.5,0.1-0.7,0.1c-0.7,0.5-1.3,0.6-2,0c-0.2,0-0.4-0.1-0.6-0.1
		C45.3,81.4,46.5,82.8,46.9,82z"/>
	<path class="st249" d="M38.4,82.7c-0.5-0.3-1.1-0.3-1.7-0.2c-0.3,0.1-0.9,0.1-0.5-0.5c0.8,0,1.5-0.1,2.2,0.1
		C39.1,82.2,38.4,82.4,38.4,82.7z"/>
	<path class="st250" d="M48.5,78.8c-1-0.6-2.3,0.9-3.1-0.6c0-0.3,0-0.6,0.1-0.8c1.2,0,2.5-0.8,3.4,0.7
		C48.8,78.3,48.6,78.6,48.5,78.8z"/>
	<path class="st251" d="M50.8,79.7c0-0.2,0-0.3,0-0.5c1,0.2-0.1-1.1,0.8-1c0.3,0.1,0.5,0.2,0.7,0.4c0.4,0.5,0.8,0.9,1.4,0.4
		c0.6-0.5,1.2-0.3,1.8-0.3c0.3,0.1,0.5,0.2,0.5,0.5c0,0.6-0.3,1-0.8,1.3c-0.5,0.2-1.1,0.5-1.4,1c-0.5,0.4-0.6,1-1,1.3
		c-0.3,0.2-0.7,0.4-0.7,0.9c-0.9,0.3-1.4-0.1-1.4-1C50.6,81.7,50.4,80.7,50.8,79.7z"/>
	<path class="st252" d="M52.3,78.5c-0.2-0.1-0.5-0.3-0.7-0.4C51,76.6,52,76.6,53,76.7C52.7,77.3,51.9,77.7,52.3,78.5z"/>
	<path class="st253" d="M55.8,78.9c-0.1-0.1-0.3-0.2-0.4-0.3c0.2-0.4-0.5-1.1,0.2-1.2c0.4-0.1,1.3,0.1,1,1.1
		c-0.2,0.2-0.3,0.3-0.5,0.5C56,79.1,55.9,79.1,55.8,78.9z"/>
	<path class="st254" d="M69.7,84.7c-0.2-0.3-0.5-0.6-0.7-0.8c0.1-0.1,0.3-0.2,0.4-0.3c0.7,0.1,1.2-0.6,1.9-0.3
		C71.7,84.7,70.5,84.5,69.7,84.7z"/>
	<path class="st255" d="M68.5,82c-0.3,1.5-1.4,0.6-2.2,0.7c0.6-0.3,0.9-1.3,1.8-1C68.2,81.8,68.4,81.9,68.5,82z"/>
	<path class="st256" d="M50.8,79.7c0.2,1.4-1,3.2,1.3,3.9c-0.1,0.2-0.3,0.4-0.4,0.6c-0.6,0-0.8,0.3-0.5,0.8
		c-0.5,0.2-0.4,0.7-0.5,1.2c0,0-0.1,0-0.1,0l-0.1,0c-0.7-0.5-0.4-1.8-1.6-1.9c0-0.2,0-0.7,0.1-0.7c2.1-0.7,1.2-2.5,1.4-3.9
		C50.5,79.7,50.7,79.7,50.8,79.7z"/>
	<path class="st257" d="M55.8,78.9c0.1,0,0.2,0,0.3,0c1.1,0.3,1.6,1.3,2.2,2.1c-0.4,0.2-0.8,0.3-1.3,0.5c-0.1-0.4,0-1-0.2-1.1
		c-0.6-0.2-0.6,0.7-1.1,0.8c-0.8,0-1.2-0.3-0.8-1.2C55.5,79.8,55.6,79.3,55.8,78.9z"/>
	<path class="st258" d="M55.1,80.1c-0.1,0.6,0.3,0.9,0.8,1.2c-1,0.2,0.1,2.2-1.6,1.9c-0.1,0-0.2,0-0.4,0c-1.1-0.5-0.9-1.2-0.4-2
		C53.6,80.1,54.3,80,55.1,80.1z"/>
	<path class="st259" d="M53.5,81.1c0.5,0.6-0.5,1.5,0.4,2c-0.5,0.1-0.8-0.1-1.1-0.4C52.9,82.1,52.2,81.2,53.5,81.1z"/>
	<path class="st260" d="M38.5,86.2c0.5-0.1,1.1,0.1,1.6-0.3c1.5-0.8,3.2-0.7,4.8-0.6c0.8,0.1,1.6,0.1,2.5,0.1c1,0.2,2.1-0.1,2.8,0.9
		c-3,2.8-6.6,1.6-10,1.5C38.8,87.7,38.4,87.3,38.5,86.2z"/>
	<path class="st261" d="M50,86.3c-1-0.3-2.1,0.2-3.1-0.5c-0.7-0.5-1.7-0.9-1.3-2c0.7-0.8,1.4-0.7,2.1,0.1c0.2,0.5,0.6,0.7,1.1,0.4
		c2.6-1.1,1.2,1.2,1.6,1.9C50.3,86.2,50.2,86.3,50,86.3z"/>
	<path class="st262" d="M45.8,84c0,0.8,1.5,0.8,1.2,1.8c-1,1.1-2.3,0.2-3.4,0.2c-1.1,0.1-2.4,0.4-3.5-0.1c-0.7-0.7-1.2-2.2-2.5-0.7
		c-0.4-0.9,0.6-1.3,0.6-1.9c0.2,0,0.5,0,0.7,0c2,0.1,4.1,0.4,6.1,0.3C45.4,83.4,45.7,83.5,45.8,84z"/>
	<path class="st263" d="M45.8,84c-2.4,0.5-4.6-0.4-7-0.7c0.1,0,0.3-0.1,0.4-0.1c2.2-0.1,4.4,0.3,6.5-0.3c0.7,0,1.3,0,2,0
		c0,0.3,0,0.7,0,1C47.1,83.5,46.4,83.5,45.8,84z"/>
</g>
</svg>
