<?xml version="1.0" encoding="utf-8"?>
<!-- Generator: Adobe Illustrator 22.0.1, SVG Export Plug-In . SVG Version: 6.00 Build 0)  -->
<svg version="1.1" id="Layer_1" xmlns="http://www.w3.org/2000/svg" xmlns:xlink="http://www.w3.org/1999/xlink" x="0px" y="0px"
	 viewBox="0 0 280 50" style="enable-background:new 0 0 280 50;" xml:space="preserve">
<style type="text/css">
	.st0{fill:#478FCC;}
</style>
<g>
	<path class="st0" d="M37.4,25c2.1,2,3.1,4.5,3.1,7.4c0,1.4-0.3,2.7-0.8,4c-0.5,1.3-1.3,2.3-2.2,3.3c-0.9,1-2,1.7-3.3,2.3
		c-1.2,0.5-2.6,0.8-4,0.8H16.9v-5.9h13.3c0.6,0,1.1-0.1,1.7-0.3c0.6-0.2,1.1-0.5,1.5-1c0.4-0.4,0.7-0.9,0.9-1.4
		c0.2-0.5,0.4-1.1,0.4-1.7c0-0.6-0.1-1.1-0.4-1.7c-0.2-0.5-0.5-1-0.9-1.4c-0.4-0.4-0.8-0.8-1.4-1c-0.6-0.2-1.1-0.4-1.8-0.4H16.9H11
		v-5.9h3.5h2.3h13.3c0.6,0,1.1-0.1,1.7-0.4c0.6-0.2,1.1-0.5,1.5-1c0.4-0.4,0.7-0.9,0.9-1.4c0.2-0.5,0.4-1.1,0.4-1.7
		c0-0.6-0.1-1.1-0.4-1.7c-0.2-0.5-0.5-1-0.9-1.4c-0.4-0.4-0.9-0.8-1.5-1c-0.5-0.2-1.1-0.3-1.7-0.3H16.9L11,7.3h19.1
		c1.4,0,2.7,0.3,4,0.8c1.3,0.6,2.4,1.3,3.3,2.3c0.9,0.9,1.7,2,2.2,3.3c0.5,1.2,0.8,2.6,0.8,4C40.5,20.5,39.4,23,37.4,25z"/>
	<path class="st0" d="M59.4,7.3v1v20.5l-5.9,5.9V8.3v-1H59.4z M77,36.8v5.9H53.5l5.9-5.9H77z"/>
	<path class="st0" d="M112.6,12.5c3.5,3.4,5.3,7.6,5.3,12.5c0,4.9-1.8,9.1-5.3,12.5c-3.4,3.4-7.6,5.2-12.5,5.2s-9-1.8-12.5-5.2
		s-5.2-7.6-5.2-12.5c0-4.9,1.8-9,5.2-12.5c3.4-3.4,7.6-5.2,12.5-5.2S109.1,9.1,112.6,12.5z M91.7,16.7c-2.3,2.3-3.4,5.1-3.4,8.3
		s1.1,6.1,3.4,8.4s5.1,3.4,8.4,3.4s6-1.1,8.3-3.4c2.3-2.3,3.4-5.1,3.4-8.4s-1.1-6-3.4-8.3s-5.1-3.4-8.3-3.4S94.1,14.4,91.7,16.7z"/>
	<path class="st0" d="M153.8,32.8l5.9,1.9c-0.8,1.2-1.7,2.3-2.8,3.3c-1.1,1-2.2,1.8-3.5,2.5c-1.2,0.7-2.6,1.2-4,1.6
		c-1.4,0.4-2.9,0.6-4.4,0.6c-4.9,0-9-1.8-12.5-5.2s-5.2-7.6-5.2-12.5c0-4.9,1.7-9,5.2-12.5C135.9,9,140,7.3,145,7.3
		c2.4,0,4.7,0.4,6.9,1.4c2.1,0.9,4,2.2,5.7,3.8l-4.2,4.2c-2.3-2.3-5-3.4-8.3-3.4c-3.2,0-6,1.1-8.4,3.4c-2.3,2.3-3.4,5.1-3.4,8.3
		s1.1,6.1,3.4,8.4s5.1,3.4,8.4,3.4c1.8,0,3.4-0.4,4.9-1C151.4,35,152.7,34.1,153.8,32.8z M145,22.1h14.8l-5.9,5.9H145V22.1z"/>
	<path class="st0" d="M194.7,32.8l5.9,1.9c-0.8,1.2-1.7,2.3-2.8,3.3c-1.1,1-2.2,1.8-3.5,2.5c-1.2,0.7-2.6,1.2-4,1.6
		c-1.4,0.4-2.9,0.6-4.4,0.6c-4.9,0-9-1.8-12.5-5.2s-5.2-7.6-5.2-12.5c0-4.9,1.7-9,5.2-12.5c3.4-3.5,7.6-5.2,12.5-5.2
		c2.4,0,4.7,0.4,6.9,1.4c2.1,0.9,4,2.2,5.7,3.8l-4.2,4.2c-2.3-2.3-5-3.4-8.3-3.4c-3.2,0-6,1.1-8.4,3.4c-2.3,2.3-3.4,5.1-3.4,8.3
		s1.1,6.1,3.4,8.4s5.1,3.4,8.4,3.4c1.8,0,3.4-0.4,4.9-1C192.2,35,193.6,34.1,194.7,32.8z M185.8,22.1h14.8l-5.9,5.9h-8.9V22.1z"/>
	<path class="st0" d="M232.6,7.3v5.9h-17.7L209,7.3H232.6z M214.9,22.1h17.7V28h-17.7H209v-5.9H214.9z M214.9,36.8h17.7v5.9H209
		v-0.5L214.9,36.8z"/>
	<path class="st0" d="M261.7,30l7.2,12.7h-6.8L252,25l5.3,0c1.6,0,3-0.6,4.1-1.7c1.2-1.1,1.8-2.6,1.8-4.2c0-1.6-0.6-3-1.8-4.1
		c-1.1-1.1-2.5-1.7-4.1-1.7h-11.8l-0.7-0.7l-3-5.3h15.5c3.2,0,6,1.1,8.3,3.4c2.3,2.3,3.4,5.1,3.4,8.3c0,2.5-0.7,4.7-2.1,6.7
		C265.5,27.7,263.8,29.2,261.7,30z"/>
</g>
</svg>
