<?xml version="1.0" encoding="utf-8"?>
<!-- Generator: Adobe Illustrator 22.0.1, SVG Export Plug-In . SVG Version: 6.00 Build 0)  -->
<svg version="1.1" id="Layer_1" xmlns="http://www.w3.org/2000/svg" xmlns:xlink="http://www.w3.org/1999/xlink" x="0px" y="0px"
	 viewBox="0 0 100 100" style="enable-background:new 0 0 100 100;" xml:space="preserve">
<style type="text/css">
	.st0{fill:#03A9F4;}
	.st1{fill:#010101;}
</style>
<g>
	<path class="st0" d="M53.8,85.2c-0.1-0.3-0.4-0.2-0.6-0.3c-1.8-0.6-2.9-2.4-1.9-4.2c0.5-1,0.3-1.3-0.9-1.4
		c-1.3-0.1-2.6,0.3-3.9,0.5c-6,1-12,2-18,3c-2.6,0.4-5.2,0.9-7.8,1.3c-0.2,0-0.3,0.1-0.6,0c1.3-1,2.6-2.1,3.9-3.1
		c0.5-0.4,1.2-0.3,1.8-0.4c7.7-1.3,15.5-2.5,23.2-3.8c1.2-0.2,2.4,0,3.5,0.5c1.6,0.8,2,2.3,1.3,3.9c-0.5,1.1-0.3,1.4,0.9,1.4
		c1.8,0,3.6-0.5,5.4-0.8c5.5-0.9,11-1.9,16.4-2.9c0.9-0.2,1.5,0.3,1.7,1c0.1,0.8-0.4,1.4-1.3,1.5c-2.7,0.5-5.4,0.9-8,1.4
		c-4,0.7-8,1.4-12,2.1c-0.3,0-0.6-0.1-0.8,0.2C55.4,85.2,54.6,85.2,53.8,85.2z"/>
	<path class="st0" d="M18.4,82.1c0.4-1.8,1.3-3.2,2.6-4.5c3.4-3.6,6.8-7.1,10.2-10.7c0.3-0.3,0.5-0.6,0.6-1
		c1.6-6.1,4.8-11.1,9.5-15.3c11.8-10.5,23.6-21,35.4-31.5c1.6-1.4,3.2-2.8,4.9-4.4c-0.1,1.1-0.1,2-0.1,3c-0.3,4.1-0.8,8.3-1.6,12.3
		c-0.7,3.2-1.5,6.3-2.8,9.3c-0.2,0.4-0.4,0.6-0.8,0.7c-4.1,0.9-8.3,1.8-12.4,2.7c-0.1,0-0.2,0-0.4,0.1c3.4,2.6,7,3.7,11.1,2.7
		c-0.6,1.8-1.4,3.4-2.2,5c-2.1,4.2-4.6,8.2-7.8,11.7c-1.6,1.7-3.3,3.3-5.2,4.7c-0.3,0.2-0.5,0.2-0.8,0.1c-3.6-0.9-7.2-1.8-10.7-3.2
		c0,0-0.1,0-0.2,0c0.6,2.6,1.9,4.6,4,6.2c0.3,0.2,0.5,0.4,0.8,0.5c0.7,0.4,0.7,0.4,0,0.9C50,72.6,47.6,73,45.1,73
		c-3.8,0-7.3-1.1-10.7-2.6c-0.5-0.2-0.7-0.2-1.1,0.1C28.3,74.5,23.4,78.3,18.4,82.1C18.5,82.1,18.5,82.1,18.4,82.1z"/>
</g>
<path class="st1" d="M-1232.8,18c-0.6,0-1.3-0.1-1.9-0.1c0.4-0.3,0.7-0.5,1.1-0.8C-1233.3,17.4-1233,17.7-1232.8,18z"/>
</svg>
