<?xml version="1.0" encoding="utf-8"?>
<!-- Generator: Adobe Illustrator 22.0.1, SVG Export Plug-In . SVG Version: 6.00 Build 0)  -->
<svg version="1.1" id="Layer_1" xmlns="http://www.w3.org/2000/svg" xmlns:xlink="http://www.w3.org/1999/xlink" x="0px" y="0px"
	 viewBox="0 0 240 160" style="enable-background:new 0 0 240 160;" xml:space="preserve">
<style type="text/css">
	.st0{fill:#D5DDE0;}
	.st1{fill:#D2DBDE;}
	.st2{fill:#E8EEF6;}
	.st3{fill:#8A7457;}
	.st4{fill:#D9E1E4;}
	.st5{fill:#7C5935;}
	.st6{fill:#724F2F;}
	.st7{fill:#756041;}
	.st8{fill:#75502F;}
	.st9{fill:#785233;}
	.st10{fill:#877869;}
	.st11{fill:#DDE6EE;}
	.st12{fill:#837460;}
	.st13{fill:#724A29;}
	.st14{fill:#312820;}
	.st15{fill:#826B4D;}
	.st16{fill:#7D532A;}
	.st17{fill:#F2F4F6;}
	.st18{fill:#8D5D29;}
	.st19{fill:#5B483A;}
	.st20{fill:#724621;}
	.st21{fill:#6E5026;}
	.st22{fill:#958372;}
	.st23{fill:#9D876C;}
	.st24{fill:#72644D;}
	.st25{fill:#7C6441;}
	.st26{fill:#78665B;}
	.st27{fill:#191E22;}
	.st28{fill:#68452A;}
	.st29{fill:#4B5056;}
	.st30{fill:#53627B;}
	.st31{fill:#583E32;}
	.st32{fill:#504D4B;}
	.st33{fill:#5B6D87;}
	.st34{fill:#B5BFC1;}
	.st35{fill:#9A8F84;}
	.st36{fill:#786D67;}
	.st37{fill:#764E26;}
	.st38{fill:#8E6437;}
	.st39{fill:#343435;}
	.st40{fill:#867150;}
	.st41{fill:#5D708A;}
	.st42{fill:#63748C;}
	.st43{fill:#383430;}
	.st44{fill:#576478;}
	.st45{fill:#C4CFDA;}
	.st46{fill:#38475A;}
	.st47{fill:#694630;}
	.st48{fill:#808A8C;}
	.st49{fill:#6F7878;}
	.st50{fill:#8C949C;}
	.st51{fill:#2B3441;}
	.st52{fill:#38424E;}
	.st53{fill:#623719;}
	.st54{fill:#5B6B86;}
	.st55{fill:#5D708B;}
	.st56{fill:#5D6E89;}
	.st57{fill:#D0D9DE;}
	.st58{fill:#E0DCCE;}
	.st59{fill:#4F627E;}
	.st60{fill:#8796A9;}
	.st61{fill:#2D3849;}
	.st62{fill:#313F53;}
	.st63{fill:#2B374A;}
	.st64{fill:#C9D3DD;}
	.st65{fill:#B5BFC9;}
	.st66{fill:#CBD4DE;}
	.st67{fill:#734F36;}
	.st68{fill:#9C7755;}
	.st69{fill:#927D65;}
	.st70{fill:#826E4D;}
	.st71{fill:#8F6948;}
	.st72{fill:#7F6A56;}
	.st73{fill:#785F46;}
	.st74{fill:#7A6247;}
	.st75{fill:#60554E;}
	.st76{fill:#A38A6A;}
	.st77{fill:#E4E6E5;}
	.st78{fill:#333A43;}
	.st79{fill:#64726F;}
	.st80{fill:#3D3631;}
	.st81{fill:#9A632C;}
	.st82{fill:#825226;}
	.st83{fill:#7C8F8C;}
	.st84{fill:#636C6C;}
	.st85{fill:#3F3A3B;}
	.st86{fill:#4F5659;}
	.st87{fill:#726158;}
	.st88{fill:#9A7B59;}
	.st89{fill:#8D6E4B;}
	.st90{fill:#6E462D;}
	.st91{fill:#6A4C31;}
	.st92{fill:#7D5131;}
	.st93{fill:#8F5D27;}
	.st94{fill:#896644;}
	.st95{fill:#7F5A40;}
	.st96{fill:#815534;}
	.st97{fill:#855F3C;}
	.st98{fill:#8C6939;}
	.st99{fill:#9B8157;}
	.st100{fill:#876444;}
	.st101{fill:#937661;}
	.st102{fill:#9A8974;}
	.st103{fill:#283649;}
	.st104{fill:#906B4D;}
	.st105{fill:#9C7B5F;}
	.st106{fill:#9B7D54;}
	.st107{fill:#A5896C;}
	.st108{fill:#855932;}
	.st109{fill:#6D5038;}
	.st110{fill:#7C6040;}
	.st111{fill:#60738D;}
	.st112{fill:#546681;}
	.st113{fill:#60728D;}
	.st114{fill:#4D5F7B;}
	.st115{fill:#4B5C77;}
	.st116{fill:#445366;}
	.st117{fill:#916239;}
	.st118{fill:#946337;}
	.st119{fill:#AA773B;}
	.st120{fill:#90734F;}
	.st121{fill:#A48C77;}
	.st122{fill:#A9A27B;}
	.st123{fill:#9B8E6D;}
	.st124{fill:#977F70;}
	.st125{fill:#7E6D6A;}
	.st126{fill:#86736A;}
	.st127{fill:#24292F;}
	.st128{fill:#8B95A1;}
	.st129{fill:#9DAAB6;}
	.st130{fill:#B0BAC4;}
	.st131{fill:#606F85;}
	.st132{fill:#75859E;}
	.st133{fill:#A8B5C5;}
	.st134{fill:#9E6430;}
	.st135{fill:#AC7E41;}
	.st136{fill:#884C20;}
	.st137{fill:#A78768;}
	.st138{fill:#BDAB89;}
	.st139{fill:#909FB2;}
	.st140{fill:#A28A7C;}
	.st141{fill:#897875;}
	.st142{fill:#9F8980;}
	.st143{fill:#855E40;}
	.st144{fill:#A47544;}
	.st145{fill:#916F55;}
	.st146{fill:#986D48;}
	.st147{fill:#7B6051;}
	.st148{fill:#4F3D27;}
	.st149{fill:#6D5745;}
	.st150{fill:#7D6C67;}
	.st151{fill:#574C3A;}
	.st152{fill:#DEB070;}
	.st153{fill:#807C7D;}
	.st154{fill:#6B6362;}
	.st155{fill:#BD873C;}
	.st156{fill:#B9782F;}
	.st157{fill:#CA8D3C;}
	.st158{fill:#76675A;}
	.st159{fill:#D39C46;}
	.st160{fill:#564537;}
	.st161{fill:#3B3332;}
	.st162{fill:#443C39;}
	.st163{fill:#867068;}
	.st164{fill:#5E5555;}
	.st165{fill:#D2AD78;}
	.st166{fill:#A28463;}
	.st167{fill:#886140;}
	.st168{fill:#8D6646;}
	.st169{fill:#886E53;}
	.st170{fill:#8D7158;}
	.st171{fill:#8F6D4C;}
	.st172{fill:#A48C6E;}
	.st173{fill:#876B4B;}
	.st174{fill:#B69966;}
	.st175{fill:#C7BF8B;}
	.st176{fill:#916B4C;}
	.st177{fill:#826453;}
	.st178{fill:#9B714F;}
	.st179{fill:#8C7260;}
	.st180{fill:#A19066;}
	.st181{fill:#8C7256;}
	.st182{fill:#685845;}
	.st183{fill:#876547;}
	.st184{fill:#A28060;}
	.st185{fill:#7F6759;}
	.st186{fill:#AB835B;}
	.st187{fill:#937562;}
	.st188{fill:#886B5B;}
	.st189{fill:#9F754C;}
	.st190{fill:#AA783F;}
	.st191{fill:#B07B55;}
	.st192{fill:#AD7656;}
	.st193{fill:#B48047;}
	.st194{fill:#C0955B;}
	.st195{fill:#B99070;}
	.st196{fill:#D5B283;}
	.st197{fill:#A57D52;}
	.st198{fill:#B08656;}
	.st199{fill:#B98749;}
	.st200{fill:#3C2B17;}
	.st201{fill:#664C32;}
	.st202{fill:#92755D;}
	.st203{fill:#856C58;}
	.st204{fill:#93745D;}
	.st205{fill:#977E6A;}
	.st206{fill:#977C68;}
	.st207{fill:#D2A992;}
	.st208{fill:#DFC198;}
	.st209{fill:#E3CFB0;}
	.st210{fill:#C4925A;}
	.st211{fill:#DEDCD1;}
	.st212{fill:#C79750;}
	.st213{fill:#DBCCAE;}
	.st214{fill:#B07C3D;}
	.st215{fill:#8F6B4C;}
	.st216{fill:#997553;}
	.st217{fill:#997047;}
	.st218{fill:#907B65;}
	.st219{fill:#957F68;}
	.st220{fill:#A78E72;}
	.st221{fill:#9F886E;}
	.st222{fill:#8B7763;}
	.st223{fill:#C2BD97;}
	.st224{fill:#907255;}
	.st225{fill:#9A7153;}
	.st226{fill:#A18064;}
	.st227{fill:#916846;}
	.st228{fill:#785C41;}
	.st229{fill:#7F6D5C;}
	.st230{fill:#987452;}
	.st231{fill:#A66938;}
	.st232{fill:#C3935C;}
	.st233{fill:#D8B589;}
	.st234{fill:#AC7439;}
	.st235{fill:#BA9178;}
	.st236{fill:#CEAA8B;}
	.st237{fill:#E3E6E8;}
	.st238{fill:#B9835E;}
	.st239{fill:#A1623B;}
	.st240{fill:#7E614A;}
	.st241{fill:#705F54;}
	.st242{fill:#C7924D;}
	.st243{fill:#D2A768;}
	.st244{fill:#E1E4E7;}
	.st245{fill:#E0DED6;}
	.st246{fill:#D9BF8D;}
	.st247{fill:#DFE3E3;}
	.st248{fill:#CFAA6B;}
	.st249{fill:#C08C43;}
	.st250{fill:#CCA46E;}
	.st251{fill:#D6BB8A;}
	.st252{fill:#D5AF7E;}
	.st253{fill:#DCC196;}
	.st254{fill:#DFC495;}
	.st255{fill:#C39149;}
	.st256{fill:#E2E7EA;}
</style>
<g>
	<path class="st0" d="M200.5,159.5c-14,0-28,0-42,0c-1.4-1.9-0.6-3.3,1.1-4.5c1.3-0.7,4,1,3.6-2.5c-0.1-1.3,1.7-2.2,2.4-3.5
		c1.2-2,2.9-3.6,4.4-5.3c1.4-1.5,3-2.5,5.2-2.2c3.9,2.5,6.7,1,9.5-2c3.6-3.9,6.7-8.2,10.3-12.2c2.6-2.8,4.9-6,8-8.2
		c6.6-4.6,11.1-10.9,15.2-17.6c0.9-1.5,1.8-3.8,4.5-2.9c1.5,2.9-0.9,5.2-1.4,7.7c-1.8,5.5-5.6,10.4-6.1,16.4c-0.2,3.5-1.5,6.8-3,9.9
		c-3.9,8.3-6.9,17-10.6,25.3C201.5,158.6,200.9,159,200.5,159.5z"/>
	<path class="st1" d="M239.5,89.5c0,22.3,0,44.7,0.1,67c0,2.5-0.6,3.1-3.1,3.1c-8-0.2-16-0.1-24-0.1c-0.4-0.4-0.6-0.8-0.8-1.3
		c1.3-7.3,5.1-13.7,7.3-20.6c1.4-4.1,3.1-8.1,4.6-12.1c4.9-10.3,8.3-21.1,12.6-31.6c0.6-1.4,0-2.6,0-3.9
		C237.1,88.5,238.2,88.6,239.5,89.5z"/>
	<path class="st2" d="M239.5,21.5c0,1.7,0,3.3,0,5c-1.2,1.8-2.7,3.2-4.2,4.7c1.5-0.8,1.9-3.1,4.2-2.7c0,16.3,0,32.7,0,49
		c-4.8-0.1-5.4-5-8.2-7.3c-2.2-1.9-1.7-4.9-2.9-7.3c-3.8-9.8-8.7-18.6-19-23.1c-3.6-1.6-7.4-1.8-11.1-2.5c-1.9-0.8-0.4-2.8-1.3-3.9
		c-5.3-5.9-11.4-11.1-16.3-17.4c-1.1-1.4-2.7-2.5-2.7-4.6c0.9-2,2.2-0.9,3.2-0.2c1.7,1.1,2.9,2.7,4.4,4.1c2,1.9,3.8,3,6.4,0.5
		c1.3-1.3,4.3-1.1,2.7-4.2c-0.1-0.3,1-0.7,1.6-0.8c0.5,0,0.9,0.1,1.3,0.4c1.1,0.8,1.8,1.8,2.6,2.9c2.1,2.9,4.6,4.2,8.1,2.2
		c0.7,0.2,1.2,0.6,1.5,1.2c0.6,2.1-2.3,3-1.8,5.1c1.4,2.2,3.7,3.7,5.5,5.6c0.4,0.9,0.6,1.9,1.7,2.3c1.8,1.2,3.2,2.9,4.8,4.4
		c1.8,1.8,3.5,2.3,5.6,0.4c2.1-2,1.6-3.6-0.2-5.5c-1.4-1.4-3.1-2.6-3.3-4.8c0.2-0.7,0.6-1.2,1.3-1.6c3.2-0.1,4.3,2.9,6.6,4.2
		c0.8,0.5,1.5,1.4,2.7,1.2c3.5-1.8,4.4-4.4,2.3-7.9c0.1-0.7,0.4-1.3,1.1-1.7c1-0.3,1.8,0,2.5,0.7C238.8,20.3,239,21,239.5,21.5z"/>
	<path class="st3" d="M125.5,159.5c-16.3,0-32.7,0-49,0c-1.9-0.9-4.2-1.2-4.4-4c-0.1-1.1-1-1.8-2.1-1.8c-5.1,0-8.6-4-13.1-5.2
		c-4.4-1.2-9.3-3.7-13.5,0.9c-1,1.1-2.6,1.5-4.1,1.7c-0.9,0-1.7-0.2-2.1-1c-0.9-1.8-1.2-3.8-4.1-4.4c-2.2-0.4-1.5-2.9-0.5-4.6
		c2.6-1.2,5-2.5,8.2-1.1c1.7,0.8,3.9-1.8,6.1-0.4c0.5,0,0.9,0,1.3,0.1c4.2,3,8.8,0.2,13.1,0.6c0.5,0.1,0.9,0.2,1.3,0.4
		c1.6,1.3,3.5,2,5.1,3.4c3.1,2.6,3.3-1.4,4.4-3.2c0.5-0.1,0.9-0.2,1.4-0.1c0.9,0.2,1.8,0.6,2.6,1c1.2,0.6,2,1.6,3.2,2.2
		c2.5,1.3,5.2,3.3,6.4-1.5c0.2-0.9,1.3-1.4,2.3-1.7c2.6-0.3,4.2,0.7,4.5,3.4c0.1,1.6-1.1,2.5-1.3,2.7c6,1.8,13.1,1.6,18.7,6.5
		c0.7,0.6,1.6,0.7,2.5,1.2c-0.7-0.6-1.6-0.6-2.2-1.1c-1.2-1.1-1.6-2.5,0.1-3.1c2.9-1,4.1-3.5,5.8-5.6c1.6-2,5.9-0.1,5.9-4.3
		c0.2-0.5,0.4-0.9,0.8-1.2c4.7-2.1,9.3-1.8,13.8,0.5c0,0.2,0.1,0.5,0.1,0.5c-4.4,1.8-6.7,6.8-11.6,8c-5.1,0.6-5,0.5-2.2,4.7
		C124,155.2,125.8,156.9,125.5,159.5z"/>
	<path class="st4" d="M229.5,62.5c1.9,2,0,5.5,2.9,7.1c-0.8,3.6,0,6.4,3.5,8.3c1.8,1,2.5,3,3.6,4.6c0,2.3,0,4.7,0,7
		c-1.1,0-2.2-0.2-3,0.9c0.9,1.1,1.1,2.2-0.2,3.2c-1.8-0.8-3.6-1.8-5.7-0.9c-2.7,0.3-5.2,0.7-5.8,4.2c-0.1,0.9-0.9,1.8-2.1,1.7
		c-3.5,1.9-4.5,5.6-6.3,8.7c-3.3,5.6-8.3,9.4-13.1,13.6c-6.7,5.8-11.7,13.2-17.8,19.7c-0.1,0.1-0.2,0.3-0.3,0.4
		c-2.9,3.4-6.1,5.2-10.1,1.5c-0.7-0.9-0.7-1.8-0.2-2.7c0.8-1,1.9-0.8,3-0.9c2-0.1,1.2-1.3,0.9-2.3c-0.7-2.9,2.3-3.5,3.2-5.4
		c0.5-1.3,1.3-2.4,2.4-3.2c0.5-0.4,1.1-0.8,1.7-1.2c0.8-0.5,1.6-0.8,2.6-0.9c4.5-1.2,6.5-3.6,7-8.5c2-3.5,6-5.4,7.1-9.5
		c0.3-0.4,0.6-0.6,1-0.8c2.5-0.2,3-2.7,4.6-4c1-1,1.8-2.2,2.2-3.6c0.4-0.9,0.6-1.8,0.6-2.8c2.8-3.1,7.1-4.4,9.5-7.9
		c2.6-3.1,5-6.3,5.4-10.5c1.6-3.4,2-6.9,1.9-10.6C228,65.8,227.9,63.8,229.5,62.5z"/>
	<path class="st5" d="M-0.5,101.5c0-3.3,0-6.7,0-10c0.4-0.3,0.6-0.7,0.9-1.1C5,83.6,5,83.6-0.5,77.5c0-2,0-4,0-6c2.5-2,5.7-2,8-0.7
		c4.5,2.7,7.1-0.3,10.2-2.4c0.3-0.7,0.7-1.3,1.3-1.7c2.7-0.8,5.3-1.1,6.8,2c0,0.9-0.6,1.3-1.2,1.7c-0.9,0.5-2,1.1-1.8,2.1
		c0.1,0.6,1.5-0.1,2.2,0.2c2.5,0.7,5.5,0.2,7,3.2c0,3.1-3.6,2.5-4.7,4.5c-1.3,0.9-3,1.6-3.1,3.5c-0.2,0.4-0.5,0.7-0.8,1
		c-0.8,1-5,0.3-1.6,3.3c0.2,0.4,0.2,0.9,0,1.3c-2.2,1.8-3.1,4.1-3.7,6.8c-0.4,2-1.1,4.1-4.2,3.7c2.7,0.9,4.9,1.9,7.1,3
		c0.8,0.7,1.3,1.6,1,2.8c-0.9,1.8-2.5,1.8-4.2,2c-3-0.3-5.6-1.4-8.9-0.6C4.8,108.1,2.2,104.2-0.5,101.5z"/>
	<path class="st6" d="M-0.5,141.5c0-5.3,0-10.7,0-16c1.4-0.7,2.5,0.3,3.7,0.8c3.9,1.5,7.8,2.6,12.1,1.8c3.5-0.6,7.3-0.9,10.5,1.6
		c2.4,1.8,4.3,0.2,6.2-1.3c0.1-0.1,0.3-0.1,0.4-0.2c-3.6-6.5-3.5-6.6,4.4-6.5c3.4,0,6.5,0.8,9,3.4c-1.3,4.7,0.9,9.3,0.4,13.9
		c-7.7,1.1-15.4,0.8-23.1,1.3c-2.7,0.2-5.1,0.6-7.3,2.5c-1.7,1.6-3.8,2.7-4.9-0.8c-0.6-1.9-1.4-0.9-2.6-0.5
		C5.5,142.7,2.5,143.6-0.5,141.5z"/>
	<path class="st7" d="M-0.5,141.5c3-0.8,6.9,1.2,9.1-2.7c0.3-0.5,2.3-0.4,3.3,0c2.4,1-0.3,2.9,0.5,4.2c0.3,0.1,0.8,0.3,0.9,0.2
		c3.6-5.3,9.2-4.6,14.4-4.7c6.3-0.2,12.5,0,18.8,0c0.5,0.7,0.6,1.3,0,2c-2.1-0.2-4.5-1-4,3.4c-2.6-4.6-6-2.7-9-2.4
		c-2.7,1.9-5.7,2.4-8.9,2c-2.4-0.4-4.3,0.2-4.8,3c-0.2,1.2-0.2,2.4,0.8,3.2c1.5,1.1,1.9-0.6,2.7-1.2c1.4-1,2.6-3.4,4.5-2.4
		c2.9,1.4,7.2,2.2,8.1,4.8c1.2,3.6,2.4,0.2,3.4,0.8c3-0.8,5.3,0.5,7.3,2.6c0.2,3.4,2.3,2.5,4.2,1.8c1.1-0.1,2.2-0.2,3.4-0.1
		c2.7,1,1.4,2.3,0.3,3.6c-13,0-26,0-39,0c-2.6-0.7-2-2.2-1.1-4c0.9-1.7,1-3.8-1.1-4.8c-1.9-0.9-3.3-3.8-6.3-1.5
		c-2.8,2.1-5.3-0.1-7.5-1.8C-0.5,145.5-0.5,143.5-0.5,141.5z"/>
	<path class="st8" d="M-0.5,16.5c0-3.3,0-6.7,0-10C0.6,5.4,2,5,3.5,5c2,3.7,4.8,4.1,8.5,2.4c1.4-0.7,3.2-0.9,4.8-0.6
		c0.5,0.2,0.8,0.4,1.1,0.8c0.5,0.8-1,2.3,1.3,2.5c2.1,0.2,3.8-0.9,5.7-0.9c1.5-0.1,2.9,0.2,4.1,1c2.6,1.7,5.1,3.1,8.6,2.7
		c2.7-0.4,4.7,1.6,5.9,4.3c3,6.8,3.1,6.8,10.7,5.8c1.3-0.2,2.3-0.1,2.7,1.3c-0.6,3.9-3.7,4.7-6.9,4.8c-2.3,0.1-4.5,0.1-6.8,0.4
		c-1.6,0-3-0.4-4.2-1.5c-0.7-0.8-1.2-1.6-0.8-2.7c1.6-1.3,3-2.7,1.8-5c0.4-0.5-0.9-0.1-0.3-0.1c0.4,0,0.3,0.1,0.1,0.5
		c-1,2-2.7,1.4-4.3,1.4c-5.1,0-10.2,0.6-15.3,0.9c-2.7,0-4.8,1.2-6.7,3c-0.5,0-0.9-0.1-1.3-0.2c-0.7-0.4-1.1-1.2-1.8-1.6
		c-5.3-3.6-5.3-5.1-0.2-8.5C6.9,18.6,3.1,16.3-0.5,16.5z"/>
	<path class="st9" d="M18.5,67.5c0,0.7,0,1.3,0,2c-6.3,2.5-12.7,1.4-19,0c0-3.3,0-6.7,0-10c4.2-2.8,7.9-6.2,13-7.4
		c1.4-0.3,2.8-0.9,3.6-2.3c0.7-1,1.8-1.3,2.9-1.5c1.9-0.1,3-1.7,4.6-2.3c1.8-0.2,3.5-0.9,5.3-0.6c5.4,5.3,5.2,8.9-0.5,12.8
		c-0.4,0.2-0.8,0.4-1.3,0.6c-0.7,0.8-3.6,0.7-1.2,2.8c1.4,1,3.7,1.3,3,3.9c-1.8,1.6-3.7,0.4-5.5,0.1C21.2,65.2,19.4,65.1,18.5,67.5z
		"/>
	<path class="st10" d="M124.5,147.5c2.2-0.7,4.4-0.6,5-4c0.6-3.4,5.1-0.9,7.1-3c0.9-1.1,2.2-1.1,3.5-0.9c4.5-0.1,9,0.8,13.5,0
		c3.2-0.5,6.2-0.3,9,1.4c3.9,3.4-0.8,5.2-1.3,7.8c-2,4.3-6.4,6.6-8.7,10.7c-4.7,0-9.3,0-14,0c-3.1-3.7-2.6-6,1.7-7.2
		c1.1,2,2.3,3.9,5.6,4.2c-2.2-1.4-4.6-1.7-5.3-4c-5.6,1.3-10.8-0.5-16.1-1.9c-0.9-0.2-2.1-0.5-1.9-1.8
		C122.7,147.8,123.9,148.2,124.5,147.5z"/>
	<path class="st11" d="M196.5,11.5c-0.8,1.5-0.8,1.5,1.9,5.4c-3-0.9-5.5-2-7.5,1.7c-1.2,2.2-3.6-0.4-5.4-1.5
		c-2.6-1.6-3.4-5.5-7.2-5.5c-5.5-2.3-9.7-5.9-10.9-12.2c8.3,0,16.7,0,25,0c0.7,1.5-0.6,2.4-1.1,3.6c-0.3,3.9,3.6,4.7,5.3,7.2
		C196.9,10.7,196.8,11.1,196.5,11.5z"/>
	<path class="st12" d="M60.5-0.5c21.3,0,42.7,0,64,0c1.2,0.8,1.7,1.7,0.1,2.6c-1.4,0.7-2.9,0.3-4.3-0.4c2.4,3,5.8,2.2,8.7,2.7
		c1,0.2,2.3,0.4,2.4,1.5c0.2,1.5-1.3,1.7-2.3,2.1c-4,1.4-8.3-0.9-12.2,1c-1.9-0.3-3.7-1.1-5.6-1.7c-8.7-2.4-17.6-1.7-26.5-1.1
		C81.4,5.5,78,7.1,74.7,5.9c-3.6-1.1-7.2-2.3-10.9-3.1C62.1,2.5,59.5,2.7,60.5-0.5z"/>
	<path class="st13" d="M23.5,46.5c-0.9,1.6-2,2.9-4,3c-1.6-1.4-2.7-1.6-3,1c0.2,0.4,0.3,0.8,0.5,1.2C10.6,53,5.9,58.1-0.5,59.5
		c0-8,0-16,0-24c1.8-1,0.6-3.5,2.3-4.5c1.6-0.6,3-0.1,4.2,0.9c1.6,1.5,2.8,3.1,1.9,5.4c-2.2,3.2-0.2,4.4,2.6,4.8
		c2.3,0.3,4.6,0,6.9,0.2C20.3,42.5,22.7,43.4,23.5,46.5z"/>
	<path class="st14" d="M167.5-0.5c2.9,4.7,7.1,8.3,10.9,12.2c6.8,7.3,13.6,14.6,20.4,21.9c-1.8,2.8-4.6,2.3-7.3,1.9
		C181.6,25,171.4,14.8,161.7,4c-1.1-1.3-3-2.3-2.3-4.5C162.1-0.5,164.8-0.5,167.5-0.5z"/>
	<path class="st15" d="M54.5,159.5c-0.4-1,1.6-2.8-1-3c-2.2-1.1-4.8-2.1-2.6-5.3c0.2-0.2,0.6-0.3,0.2-0.6c-0.2-0.2-0.6-0.2-0.9-0.3
		c-1.8-0.6-3.5-0.2-5.3,0.4c-1.6,0.6-3.3,1.6-5.1,0.4c-0.1-0.2-0.2-0.4-0.3-0.6c1.5-1.5,4.7-1.3,4.7-4.5c0-0.2,1-0.7,1.2-0.6
		c4,2.3,8.5-0.7,12.9,1.9c3.3,2,6.3,6.3,11.5,4.7c0.9-0.3,4.3,0.1,3.4,3.5c-0.6,2.2,2.4,2.4,3.3,3.9
		C69.2,159.5,61.8,159.5,54.5,159.5z"/>
	<path class="st16" d="M-0.5,101.5c1.8-0.1,3.2,0.4,4.1,2.1c1.2,2.2,3.8,3,5.5,2.6c3-0.8,5.6,0.4,8.4,0.3c-0.1,2.5-2.3,2.8-3.7,3.7
		c8.3,0.6,8.7,0.4,7.7-4.6c-0.3-0.7-0.7-1.4-1-2c0.3-0.5,0.8-0.8,1.3-1c3-0.8,6-0.5,9-0.3c1.3,0.2,2.5,0.7,3.4,1.6
		c1.2,3.2-0.5,5.7-2.2,8.2c-0.9,2.2-2.3,3.4-4.9,3.4c-5.1,0-10.2,1.4-15.3-0.1c-1.3-0.4-2.8-0.4-3.6-1.6c-1-1.3-1.1-1.8-2.9-0.4
		c-2.7,2.1-4.2-1.3-5.9-2.9C-0.5,107.5-0.5,104.5-0.5,101.5z"/>
	<path class="st17" d="M196.5,11.5c0-0.3,0-0.7,0-1c-0.2-0.2-0.3-0.5-0.3-0.8c0-0.3,0.1-0.4,0.1-0.4c3.5-3.5,7.1-6.9,11.2-9.7
		c2.3,0,4.7,0,7,0c2,1.3,3,3.8,5.7,4.1c2.2-0.8,3.1-3.3,5.3-4.1c1.3,0,2.7,0,4,0c0.6,1-0.1,1.9-0.4,2.7c-0.9,2.7,1.2,3.8,2.7,5.2
		c1.6,1.5,2.9,0.4,4.3-0.7c1-0.8,1.9-1.9,3.4-1.2c0,1,0,2,0,3c-1,2.3-3.3,3.5-4.9,5.3c-0.5,0.7-0.9,1.5-1.4,2.2
		c-0.4,0.6-0.9,1-1.4,1.3c-2.3,1.2-4.5,2.5-6.3,4.4c-0.6,0.7-1.3,1.1-2,1.6c-0.3,0.4-0.6,0.7-0.9,1.1c-2.4,2.5-4.9,4.9-8.3,6
		c-0.7,0.3-1.4,1-2,0.1c-0.7-1.2,1-1.2,1.2-2c-0.3-0.2-0.4-0.5-0.4-0.7c0-0.3,0-0.4,0.1-0.4c0.8-1.1,2-1.8,2.9-2.8
		c5.2-5.1,5.1-5.8-1.2-9.3c-2,0.2-3,2.9-5.3,2.2c-0.3-0.3-0.7-0.6-1-0.9c-0.4-3.3,3-3.7,4.3-5.7c1.1-1.5,3.9-2.4,2.8-4.5
		c-1-1.9-2.4-4.5-5.6-3.5c-2.9,1.7-4.6,4.6-7.4,6.3c-1.6,1-2.7,2.9-5.1,2.3C197.2,11.5,196.8,11.5,196.5,11.5z"/>
	<path class="st18" d="M-0.5,110.5c1.2,0,2.1,0.7,3,1.5c1.6,1.5,2.9,1.9,3-1c0-0.8-0.1-1.9,1.1-1.7c0.7,0.1,2,0.8,2,1.1
		c-0.9,6.1,5.2,4.3,6.7,4.3c3.4,0,6.9-0.1,10.4-0.4c2.6-0.2,4.4-0.8,5.8-2.8c3.5,1,4.8,4.4,5.8,7.1c0.8,2.3-2.5,2.1-4.1,2.8
		c-9.8,0.2-19.5-0.2-29.2-1.9c-1.7-0.3-3.2-0.8-4.5-2C-0.5,115.2-0.5,112.8-0.5,110.5z"/>
	<path class="st19" d="M-0.5,117.5c11.3,1.8,22.6,2.6,34,2.9c5.6-1.1,11.1-0.7,16.7,0.3c0.5,0,0.9,0.1,1.3,0.2
		c2.1,1.5,4.2-0.7,6.3,0c1.8,1.1,3.9,1.2,6,1.4c1.3,0.2,2.4,0.7,3,1.9c0.1,0.5,0.1,1-0.2,1.4c-2.8,1.8-5.8,1.3-8.7,0.8
		c-4.1-0.7-8.2-0.7-12.4-1c-3.7-3-8.2-2.4-12.4-2.9c-0.8-0.1-1.7-0.2-2.1,0.7c-0.4,0.9,0.4,1.5,0.9,2.1c0.6,0.6,1.2,1.1,1.8,1.7
		c0.8,0.7,2.8,0.9,1.9,2.2c-1.2,1.8-2-0.8-3.2-0.8c-2-0.1-3.2-1.5-4.6-2.8c-1.4-1.3-3.1-2.1-5-1.7c-6.9,1.4-13.8-0.8-20.7,0.3
		c-1,0.2-2-0.1-2.8-0.9C-0.5,121.5-0.5,119.5-0.5,117.5z"/>
	<path class="st20" d="M-0.5,123.5c6.1-0.3,12.1-2.1,18.2,0.1c0.4,0.2,1,0.3,1.3,0.1c6.4-3.8,9.9,0.5,13.5,4.8
		c-1.3,3.9-3.9,5.2-7.1,2.4c-3.4-3.1-7.5-2.1-10.7-1.5c-6,1.2-10.5-1.1-15.2-3.9C-0.5,124.8-0.5,124.2-0.5,123.5z"/>
	<path class="st21" d="M-0.5,147.5c1.6-0.2,2.9,0.5,4.2,1.1c0.9,0.4,1.7,0.8,2.8,0.2c1.5-0.7-0.2-3.5,1.5-3c2.3,0.7,4.4,2.4,6.5,3.8
		c3.4,2.3,2.1,5.4,0.4,7.7c-1.2,1.6,0.8,1.4,0.6,2.1c-4.7,0-9.3-0.1-14,0.1c-1.7,0.1-2.2-0.3-2.1-2.1
		C-0.4,154.2-0.5,150.8-0.5,147.5z"/>
	<path class="st22" d="M128.5,6.5c0.6-0.1,1.2-0.1,1.9-0.2C125.1,6,120.1,5.4,116.3,1c2.1-1.1,4.1-0.3,6.2,0.3
		c1.4,0.4,2.9,0.5,2-1.8c2.7,0,5.3,0,8,0c0.9,0.9,2.2,0.2,3.2,1.1c5.2,4.4,5.7,4.5,11.3,1c0.7-0.5,1.5-0.8,2.3-0.7
		c0.8,0.2,1.6,0.5,2.4,0.7c1.1,0.3,2.4,0.6,2.2,2.2c-0.1,1.3-1,2.1-2.2,2.4c-1.4,0.4-2.9,0.7-4.1,1.8c-4.7-0.1-9,2.1-13.6,2.4
		c-2.2,0.2-2.2,1.9-3.3,2.8c-0.6,0.3-1.3,0.4-2,0.4C124.2,11.6,124.2,11.6,128.5,6.5z"/>
	<path class="st23" d="M124.5,147.5c0.1,0.7-2.2,1.8-0.2,1.8c4.7,0.1,8.9,4.4,13.9,1.6c0.4-0.2,1.6,1,2.4,1.6l0,0
		c-4.8,1.2-2.7,4.3-2,7c-4.3,0-8.7,0-13,0c-2.9-2.7-3.3-7.3-7.5-8.9C119.8,148.3,121.6,146.8,124.5,147.5z"/>
	<path class="st24" d="M60.5-0.5c2.8,3.6,7.4,2,10.9,3.9c1.3,0.7,3.3,0.2,4.1,2.1C70.4,7.7,65.1,5.8,60,6c-3.4-0.1-6.8,0.1-10.2-0.1
		c-3.2,0-6.2-0.9-9.4-1.1c-2.9-0.6-5.3-1.6-3.9-5.4C44.5-0.5,52.5-0.5,60.5-0.5z"/>
	<path class="st25" d="M3.5,5.5c-1,1.5-2.6,0.9-4,1c0-7,0-7,7-7s14,0,21,0c0.7,1.1,3-0.3,2.9,1.7c0,1.2-1.6,0.5-2.3,1
		c-0.6,0.1,0.4,1,0.1,0.4c-0.2-0.3-0.1-0.4,0.2-0.4c1.1,0,2.8-0.6,2.9,0.7c0.2,2.1-2.2,1.9-3.5,2.6c-0.5,0.2-1,0.3-1.5,0.3
		c-2.5,0.3-5,0.1-7.4,0.6c-4-0.2-7.6-2-11.6-2.2C5.7,4.1,4.3,3.8,3.5,5.5z"/>
	<path class="st26" d="M159.5-0.5c9.1,10.2,18.4,20.3,28.2,29.9c1.4,1.3,4.1,2.2,2.8,5.1c-0.4,0.3-0.8,0.5-1.2,0.5
		c-2.9-0.5-3.8-3.3-5.4-5.1c-1.2-1.3-2.1-2.9-3.7-3.7c-3.4-2-5.5-5.4-8.3-8.1c-5-2.8-7.9-8.1-12.6-11.2c-0.8-3.3-4.8-4.2-5.7-7.4
		C155.5-0.5,157.5-0.5,159.5-0.5z"/>
	<path class="st27" d="M209.5,159.5c-1,0-2,0-3,0c-1-1.1-1-2.4-0.5-3.7c3.5-9.6,6.5-19.4,10.7-28.7c0.6-1.3,1.1-2.8,2.8-3.2
		c1.6-0.2,2.5,0.6,3,2.1c-0.9,7.4-4.7,13.8-6.9,20.7c-0.1,0.5-0.2,1-0.4,1.4C212.9,151.7,212.6,156.3,209.5,159.5z"/>
	<path class="st28" d="M-0.5,16.5c0.9-0.4,1.8-0.7,2.6-1.2c0.6-0.3,1-0.8,1.5-1.3c3.4,5.4,6.8-2.5,10.7,0.3c-1.6,1-3,2.1-4.5,2.8
		c-1.2,0.6-2.5,1-2.3,2.7c0.2,1.5,1.1,2.4,2.6,2.5c2,0.2,2.4,1.4,2.3,3.1c-4.3,4.2-8.7,1.9-13,0C-0.5,22.5-0.5,19.5-0.5,16.5z"/>
	<path class="st29" d="M219.5,124.5c-5.3,11.3-9.5,23-13,35c-1,0-2,0-3,0c-1.5-1.7-0.6-3.4,0.1-5.1c3.5-9.4,7-18.8,10.8-28.1
		c1.5-1.3,0.4-4.2,2.8-5C218.8,121.6,219.9,122.5,219.5,124.5z"/>
	<path class="st30" d="M207.5-0.5C205,4,200.7,6.6,196.8,9.6c-3.5-1.2-6.5-2.9-6.3-7.2c0.7-1,1.4-1.9,2-2.9
		C197.5-0.5,202.5-0.5,207.5-0.5z"/>
	<path class="st31" d="M-0.5,25.5c4.3-0.6,8.7,2.2,13,0c0.3,0,0.7,0,1,0c1.7,1,3.3,2.2,5.2,2.9c1.4,0.5,2.3,1.2,1.8,2.9
		c-0.4,1.5-1,3.1-2.9,2.8c-4.1-0.5-8.3,0.1-12.2-1.6c-1.2-0.7-2.5-1.2-4-1c-0.7,0.6-1.4,0.6-2,0C-0.5,29.5-0.5,27.5-0.5,25.5z"/>
	<path class="st32" d="M152.5,159.5c-0.5-4.8,4.2-5.9,6.4-8.8c0.5-0.7,1.6-1,1.5-2.1c3.4-4.5,7.1-8.9,11.3-12.7
		c0.2-0.4,0.5-0.8,0.8-1.1c1-0.8,2-1.2,3.2-0.2c0.4,1.2,0.1,2.3-0.1,3.5c-0.5,3.1-3.9,4-5,6.6c-0.9,2-3.5,2.5-4.2,4.8
		c-2.1,1.6-3.2,4.2-5.7,5.4c-1.4-1.4-1.9,0.1-2.4,0.9c-1.2,1.8-3,2.8-4.8,3.8C153.1,159.5,152.8,159.5,152.5,159.5z"/>
	<path class="st33" d="M239.5,5.5c-0.4,0.3-0.8,0.6-1.2,0.9c-5,4.4-6.7,4.3-11.1-1c-2.8-3.4,2.3-3.7,2.3-6c1.3,0,2.7,0.2,4,0
		C238.6-1.6,240.6,0.4,239.5,5.5z"/>
	<path class="st34" d="M215.4,126.4c-4.7,10.7-8.6,21.8-11.9,33.1c-1,0-2,0-3,0c1.1-5.8,4.1-10.9,6-16.5c2.3-6.9,6.5-13.2,8-20.5
		C217.2,123.2,215.9,124.9,215.4,126.4z"/>
	<path class="st35" d="M149.4,1.5c-2.4,2.3-5,3.8-8.4,4c-3,0.2-5-1.3-6.2-4.4c-0.3-0.7-1.5-1.1-2.3-1.6c5.7,0,11.3,0,17,0
		C150.1,0.2,150,0.9,149.4,1.5z"/>
	<path class="st36" d="M149.4,1.5c0-0.7,0-1.3,0.1-2c1.3,0,2.7,0,4,0c3.6,0.2,4.4,4,7.1,5.4c0.6,0.3-0.5,1.3-1.2,1.6
		c-0.5,1.4-1.7,1.8-3.1,1.9c-2.9-0.2-6.1,1.5-8.8-1c0.1-1.5,0.4-2.7,2.4-2.2c1.4,0.3,3.1,0.2,3.1-1.4c0-2.2-1.9,0-2.6-0.7
		C149.9,2.7,149.7,2,149.4,1.5z"/>
	<path class="st37" d="M-0.5,77.5c2.8,0.7,6.2,2.6,6.2,4.7c0.1,4-1.9,7.7-6.2,9.3C-0.5,86.8-0.5,82.2-0.5,77.5z"/>
	<path class="st38" d="M-0.5,69.5c6.3,0,12.7,0,19,0c0.9,1.9-0.7,1.9-1.7,2c-1.7,0.1-3.4,0.2-4.4,1.8c-1.6,2.4-2.4,2.3-4.1-0.3
		c-2.1-3-5.8-0.9-8.8-1.5C-0.5,70.8-0.5,70.2-0.5,69.5z"/>
	<path class="st39" d="M239.5,82.5c-3.2-1.2-4.9-4.4-8-6c-2-1-1-4.7,1-6.8c2.2,2.8,3.9,5.9,7,7.9C239.5,79.2,239.5,80.8,239.5,82.5z
		"/>
	<path class="st40" d="M27.5,4.4c1-0.5,2-0.9,3.4-1.6c-1.4-0.3-2.4-0.4-3.6-0.7c2.5-0.9,1.6-1.8,0.2-2.7c3,0,6,0,9,0
		c0.3,2.5,1.3,4.2,4.1,4.1C37.7,6.5,32.2,6.9,27.5,4.4z"/>
	<path class="st41" d="M233.4,13.5c1.8-1.9,3.4-4.1,6.1-5c0,4.3,0,8.7,0,13c-0.7,0.5-0.9,0-1.1-0.5
		C237.6,17.9,233.1,17.3,233.4,13.5z"/>
	<path class="st42" d="M225.5-0.5c-1.4,2.2-2.4,4.7-5,5.9c-1.9-1.7-4.7-2.8-5-5.9C218.8-0.5,222.1-0.5,225.5-0.5z"/>
	<path class="st43" d="M153.5,159.5c1.8-2.2,3.5-4.4,5.3-6.5c0.5-0.6,1.1-1.7,1.9-0.8c0.4,0.4-0.1,1.5-0.2,2.3
		c0.4,0.3,0.4,0.5,0.3,0.6c-0.1,0.1-0.3,0.2-0.5,0.2c-1.7,0.9-2.5,2.2-1.8,4.2C156.8,159.5,155.1,159.5,153.5,159.5z"/>
	<path class="st44" d="M209.5,159.5c1.2-4.2,2.3-8.4,5-12.1c1.8,2.4-0.8,4.3-1,6.4c-0.2,1.5-2,2.7-1.2,4.6c0.1,0.4,0.1,0.7,0.2,1.1
		C211.5,159.5,210.5,159.5,209.5,159.5z"/>
	<path class="st45" d="M239.5,28.5c-2.3,2-4.6,3.9-6.8,5.9c-0.3-0.3-0.5-0.5-0.8-0.8c2.5-2.4,5.1-4.7,7.6-7.1
		C239.5,27.2,239.5,27.8,239.5,28.5z"/>
	<path class="st46" d="M215.5-0.5c1.7,2,3.3,3.9,5,5.9c-3.3-0.7-4.8-3.1-6-5.9C214.8-0.5,215.1-0.5,215.5-0.5z"/>
	<path class="st47" d="M-0.5,31.5c0.7,0,1.3,0,2,0c0.2,1.7,1.9,4.3-2,4C-0.5,34.2-0.5,32.8-0.5,31.5z"/>
	<path class="st48" d="M215.4,126.4c0-1.4,0.7-2.9-0.9-3.8c-0.7-0.5-1.3-1.4-0.9-2.1c3.1-4.3,3.7-9.8,6.7-14.1
		c0.2,0.1,0.5,0.1,0.7,0.2c2.6,2.3,1.2,4.8,0.4,7.3c-0.2,0.4-0.4,0.8-0.7,1.2c-1.4,1.5-2.4,3.1-2.7,5.2c-0.1,0.4-0.3,0.8-0.7,1.1
		C215.3,122.5,217.8,125.4,215.4,126.4z"/>
	<path class="st48" d="M222.7,98.6c0.3-0.6,1-1.1,1-1.7c-0.1-4.9,3.4-5.1,6.9-5.3c0.1,2-1.1,3.1-2.4,4.3c-2.3,1.5-2.1,4.1-3,6.3
		c-1.2,1.8-0.7,5.5-4.7,4.3c0,0-0.2-0.1-0.2-0.2C221.1,103.7,221.9,101.2,222.7,98.6z"/>
	<path class="st49" d="M170.6,144.6c-0.4-3.3,4.2-3.7,4-6.9c1-1.9,2.5-3.4,3.8-5c1.2-1.5,2.8-2.9,5-1.4c0.2,1.1,0.1,1.9-1.3,2.1
		c-1.8,0.2-2.5,1.3-2.5,3c-0.4,2.1-2.6,1.8-3.7,3c-0.2,1-0.4,1.9-0.5,2.9C173,141.7,172,143.6,170.6,144.6z"/>
	<path class="st50" d="M160.3,155.3c0-0.3,0.1-0.5,0.2-0.8c2.3-1.4,3-4.5,5.9-5.1c-0.3,2.2-4,3.3-1.5,6.7
		C165.4,156.8,162,155.3,160.3,155.3z"/>
	<path class="st51" d="M235.4,93.5c0.4-1,0.7-2.1,1.1-3.1c1.7-0.1,2.6,0.3,1.8,2.2c-4.2,10.7-8.4,21.4-12.7,32.1
		c-0.1,0.3-0.8,0.5-1.2,0.7c-0.2-0.2-0.3-0.4-0.5-0.6c-0.3-5.1,2.7-9.3,4.1-13.9c1.3-3.5,3-6.9,4.1-10.6c0.7-2.3,1.1-4.6,2.6-6.5
		C235,93.8,235.2,93.6,235.4,93.5z"/>
	<path class="st52" d="M212.3,158.4c-1.4-4.1,2.6-7.1,2.2-11c0,0,0,0.1,0,0.1c2.5-6.9,6-13.5,7.6-20.8c0-0.5,0.1-1,0.4-1.5
		c0.8-0.4,1.5-0.4,2.1,0.2c0,0-0.1,0-0.1,0c-0.1,4.8-2.7,8.8-4.3,13.1C217.7,145.2,214.9,151.8,212.3,158.4z"/>
	<path class="st53" d="M229.5,62.5c0.5,5.8,0.1,11.5-2.1,16.9c-1.6,0.3-1.7-0.9-2.1-1.9c-0.3-1.6-0.2-3.2,0-4.8
		c1.8-5.5,0.1-10.5-2.4-15.4c-1.9-4.1-3.8-8.2-8.4-10c-4.9-6-12-6.3-18.8-7.4c-1.6-0.3-3.3,0-4.9-0.2c-1.5-0.4-2.9-0.9-2.6-2.9
		c3-2.5,6.5-1.2,9.8-0.9C215.2,36.8,224,47.7,229.5,62.5z"/>
	<path class="st54" d="M197.5,11.5c4-3.3,8-6.6,12-9.8c6.6,1.1,8,4.5,4,9.8c-1.7,1.7-3.4,3.4-5,5.1
		C203.4,20.5,199.5,18.7,197.5,11.5z"/>
	<path class="st55" d="M214.3,30.5c2.6-2.3,4.3-5.7,8.3-6c1.2,1.4,2.4,2.7,3.6,4.1c4.3,4.5,4.2,4.5-0.8,8.5c-2,1.6-3.5,1.8-5-0.2
		C218.6,34.5,215.2,33.7,214.3,30.5z"/>
	<path class="st56" d="M216.5,25.5c-0.6,1-1.3,1.8-2.5,2.1c-3.9,0.4-4.5-4.2-7.6-5c-1.2-3.1,2.7-3,3.1-5c1.7-1.3,3.3-2.6,5-3.8
		C221.6,19,221.6,19,216.5,25.5z"/>
	<path class="st57" d="M230.4,42.5c6,5.7,5.5,7.8-2.8,11.4c0.5-3.6-2.8-4.9-4.2-7.4C225.3,44.5,227.5,42.9,230.4,42.5z"/>
	<path class="st58" d="M198,36c-3,1.2-6.5-0.3-9.5,1.3c-3.8,3-8.4,4.3-12.6,6.5c-0.5-0.2-0.8-0.5-0.9-1c-0.1-1.7,0.9-2.7,2-3.7
		c1-0.7,2-1.2,3.1-1.7c1.9-0.8,3.6-1.9,5.6-2.6c1.4-0.6,2.8,0.4,4.1,0c0.3,0.1,0.5,0,0.7-0.2c2.8-0.4,5.8,1.1,8.4-0.9
		C200.2,35,198.8,35.4,198,36z"/>
	<path class="st59" d="M235.4,20.5c3.8,4.4,3.8,4.4-2.8,9.6c-1.8-1.7-0.4-3,0.6-4.3c0.9-0.8,1.4-1.7,0.6-2.9
		c-0.7-1.1-1.3-2.2-0.5-3.5C234.4,19,235,19.6,235.4,20.5z"/>
	<path class="st60" d="M234.3,26.4c-1.3,0.9-2.4,2-1.7,3.8c-2,1.4-2.6,0.4-2.8-1.5c-0.9-0.5-0.9-1.3-0.7-2.2c0.8-1.3,2-2.2,3.4-2.3
		C234.1,23.9,235.6,24.2,234.3,26.4z"/>
	<path class="st61" d="M229,26.5c0.3,0.7,0.5,1.4,0.8,2.1c-3-0.6-3.9-3.9-6.3-5.2c0-0.8-0.2-1.7,0.9-1.9
		C227.5,21.8,228.4,24,229,26.5z"/>
	<path class="st62" d="M206.4,22.6c3.7-0.1,4.2,4.6,7.6,5c-0.2,0.3-0.3,0.6-0.5,0.9C209.9,28,208.6,24.7,206.4,22.6z"/>
	<path class="st63" d="M233.4,13.5c1.4,2.7,4.8,4,5,7.5c-0.6-0.5-1.3-1-1.9-1.5c-2-0.7-3.4-2-3.9-4.2
		C232.5,14.6,232.3,13.7,233.4,13.5z"/>
	<path class="st64" d="M229.6,36.1c-1.2,2.1-2.8,3.9-5.8,5.8C226.2,39.5,227.9,37.8,229.6,36.1z"/>
	<path class="st65" d="M230.4,42.5c-2.3,1.3-4.6,2.7-7,4C224.9,43.6,226.8,41.7,230.4,42.5z"/>
	<path class="st66" d="M232.5,15.4c1.3,1.4,2.6,2.8,3.9,4.2c-0.3,0.3-0.7,0.7-1,1c-0.6-0.5-1.3-0.9-1.9-1.4c-1.6-0.3-2.7-0.8-2-2.7
		C231.9,16.1,232.2,15.7,232.5,15.4z"/>
	<path class="st67" d="M45.5,125.5c1.6-2.9,4.2-0.9,6.2-0.9c4.9,0,9.7,1.4,14.6,0.9c2.6-1.9,5.8,0.2,8.5-1.3c2.3-1.8,4.7-3,7.7-2.1
		c4.9-0.1,9.7,0.9,14.7,0.2c2.1-0.3,3.1,3.2,5.5,3.5c0.6,3.8-2.7,8.3-5.9,7.4c-3.5-0.9-6.5-0.6-9.5,1.3c-1.3,0.8-2.9,1.1-4.3,0
		c-6-4.7-12.5-3-19.8-2c3.4,1.6,5.9,2.8,8.7,3.2c3.5,0.4,5.6,1.6,4.7,5.6c-1,1.2-2,0.9-3.2,0.3l0,0c-3.7-1.7-7.4-1.3-11,0.1
		c-0.3,0-0.6-0.1-0.9-0.1c-1.3-1.8-3.1-1.7-4.8-1.2c-3.1,0.8-6.1-0.9-9.2,0.2c-0.3,0-0.7,0-1,0c0-0.7,0-1.3,0-2
		c-0.5-1.3-0.8-2.8-1.5-4c-1.3-2.5-2.7-4.7,0.7-6.8C46.4,127.2,45.7,126.2,45.5,125.5z"/>
	<path class="st68" d="M140.5,140.5c-1.3,0-2.6,0-4,0c-4.7-0.1-9.3-1.8-14-0.1c-2.4,0-4.8-0.5-7.3-0.3c-1.4,0.1-2.7-0.5-2.8-2
		c-0.1-1.3,1.2-1.9,2.2-2.3c1.5-0.6,3.2-0.2,4.8-0.8c1.5-0.2,2.9,0.1,4.3,0.6c1.6,0.7,0.3-0.5,0.5-0.8c0.1-0.4,0.3-0.8,0.7-1
		c2.8-0.5,5.4-1.8,8.4,0.1c1.7,1.1,2.5-1.7,3.1-2.9c0.4-0.8,0.7-1.2,1.4-1.6c3.8-0.8,7.6-0.2,11.4-0.4c2.7-0.2,5.3,0.4,7.9,1.1
		c1.7,0.8,4.3,1.2,3.7,3.8c-0.5,2.1-3,2.1-4.6,1.9c-5.1-0.6-8.4,3.9-13.1,4.4C142.1,140.4,141.3,140.5,140.5,140.5z"/>
	<path class="st69" d="M109.5,154.4c-3.5-1.3-6.2-5.6-10.9-3c-0.4,0.2-1.6-0.1-1.8-0.4c-2.3-4.6-5.4-2.7-9.8-0.3
		c1.9-2.9,4.5-3.7,4.4-6.2c3.3-1.1,5.7,1.7,9.2,2.1c-1.5-3.9-0.2-6,3.9-6c5.1-2,10.1-1.1,15.1,0.4c-0.2,1.8-1.6,2.4-3,2.5
		c-3.8,0.3,0.4,1.4-0.3,2c-0.6,2.9-1.8,5.4-5.2,5.9c-1.5,0.2-1.2,1.1-0.8,2.1C110.3,153.9,110,154.3,109.5,154.4z"/>
	<path class="st70" d="M39.5,152.5c-2.1,1.1-4.3,1.5-6.5,0.4c0.5-2.2,2.2,0.2,2.8-1.1c-0.7-1.4-1.6-2.4-3.4-1.7
		c-0.8,0.3-2.1,0.6-2.2-0.1c-0.3-1.9-1.2-3.7-2.8-3.1c-1.6,0.6-3.7,1.9-4.1,4c-0.4,2.2-1.5,1.7-2.8,1c-3-1.6-2.3-4.2-2-6.9
		c0.4-2.8,2.9-3.4,4.3-3c3.8,1.1,7.2-0.3,10.8-0.4c-0.9,3.5-0.9,3.6,2.2,2.8c1.8-0.5,1.2,0.4,1.4,1.3c0.4,1.8-0.1,4.2,2.5,4.9
		c0,0,0,0,0,0C40.1,151.1,40.1,151.8,39.5,152.5z"/>
	<path class="st71" d="M119.4,141.4c-5-1.3-10-1.1-15,0.1c-2.1-1.1-5,0.4-6.8-1.9c-1-1.7-1.2-3.3,1.1-3.8c3.8-0.8,7.4-1.1,11-3.2
		c2.3-1.4,5.7,0.3,8.5,1.2c0.7,0.4,1.1,0.9,1.2,1.7c-0.8,4-5.5-1.7-5.9,3.1c1.9,1.1,4.6,0.2,7.1,0.3c1.4,0,1.7,0.6,1.9,1.6
		c0,0.3,0,0.6,0,0.9C121.5,142.3,120.5,142.3,119.4,141.4z"/>
	<path class="st72" d="M98.5,139.5c1.7,1.5,4.6-0.5,6,2c-0.2,0.4-0.4,0.8-0.6,1.3c-3.8-2.2-2.8,0.2-2.1,2.3c0.3,1,0.6,2.1,1,3.5
		c-4.4-0.2-7.7-2.6-11.3-4c0.3-2.3-1.7-2.3-3-3c-0.8-0.3-1.3-0.8-1.1-1.8C91,137.6,94.8,137.8,98.5,139.5z"/>
	<path class="st73" d="M62.4,141.6c3.6-4.6,7.3-3.4,11-0.1c-0.9,2.1-1.1,5-4.2,4.8c-0.9,0-4.6,2.2-2.9-2.3
		C66.6,143.3,63,143.6,62.4,141.6z"/>
	<path class="st69" d="M87.5,140.5c0.3,0.3,0.7,0.7,1,1c-0.9,1.5-3.4,2-2.1,4.8c0.8,1.8-1.4,1.3-2.2,1.2c-3.5-0.5-6.5-2-8.7-4.9
		c1-1,2.5-1.3,3.6-0.8c2.9,1.2,0.5-1.4,1.3-1.7C82.9,138.2,85.2,138.8,87.5,140.5z"/>
	<path class="st74" d="M47.5,140.5c0.7-1.5,2.1-2.4,3.6-1.8c2.5,0.9,4.7,0.6,7.2,0c2.2-0.6,3.5,0.5,3.3,2.9
		C56.8,141.4,51.9,144.6,47.5,140.5z"/>
	<path class="st75" d="M119.4,141.4c1,0,2,0,3.1,0c1.6,1.9,3.2,3.7-1.3,3.3c-1.5-0.1-3.1,0.5-4.7,0.8c-1.8-0.5-3.7-0.7-5.5-2.5
		C113.9,141.7,117,143.3,119.4,141.4z"/>
	<path class="st73" d="M80.4,140.5c0.7,0.6,1.5,1.1,2.2,1.7c-2.3,1.1-4.7,0.6-7,0.4c-0.8-0.1-1.6-0.2-2-1c1.1,0,2.2,0.2,2.9-1
		C77.7,139.4,79,139.3,80.4,140.5z"/>
	<path class="st23" d="M118.5,152.7c1.3,2.7,1.2,4.3-1.4,5.9C117,156.3,116.5,154.5,118.5,152.7z"/>
	<path class="st76" d="M109.5,154.4c0.3-0.3,0.6-0.6,1-0.9c1.5,0.9,5.1,0.7,4.6,1.5C113.6,157.5,111.4,154.8,109.5,154.4z"/>
	<path class="st77" d="M175.4,42.1c0,0.4,0.1,0.8,0.1,1.3c-0.1,1.8-1.5,2.8-2.4,4.1c-3,4.2-5.8,8.5-6.8,13.7
		c-0.7,5.4-1.1,10.7,1,15.9c1.6,4.9,4.6,8.9,7.9,12.8c2.2,2.4,4.7,4.4,7.7,5.7c6.3,2.3,12.6,4.8,19.6,2.9c3,0,5.8-2.6,9-1
		c1.2,0.6,0.2,1.4,0.1,2.1c-0.7,1.8-2.5,1.9-3.9,2.8c-0.3,0.2-0.7,0.4-1.1,0.6c-0.8,0.2-1.7,0.1-2.5,0.1c-1.1,0.2-2.2,0.6-3.3,0.7
		c-2,0.2-3.9,0.2-5.9,0c-1.7-0.4-3.4-0.8-5.1-1c-7.6-1.7-13.7-5.8-18.8-11.5c-4.9-5-7.8-11-9.2-17.8c-0.8-3.5-0.8-7,0-10.5
		c0.7-2.3,1.1-4.7,2-7c0.7-1.5,1.4-3,2.1-4.5c1.3-2.2,2.6-4.4,4.2-6.5C171.5,43.4,172.7,41.3,175.4,42.1z"/>
	<path class="st78" d="M227.6,95.6c1-1.3,1-3.3,3-3.9c1.8,0.3,5.3-4.1,4.8,1.9c0,0,0.1-0.1,0.1-0.1c-1.9,2-2.2,4.6-2.7,7.1
		c-1.4,2.7-1.6,6.1-4.1,8.2c-3.5-2.7-2.6-6.5-2.7-10.1C226.2,97.4,226.4,96.3,227.6,95.6z"/>
	<path class="st79" d="M203.5,107.6c0.6,5.4-4.5,6.7-7.1,9.9c-0.8,2.5-1.4,5.1-4.7,5.4c-0.7-0.2-1.2-0.6-1.6-1.3
		c-0.2-2.1,1.4-3.2,2.6-4.6c1.4-1.3,2.6-2.9,3.6-4.5c0.3-0.4,0.5-0.7,0.8-1c1.3-1.2,2.4-2.5,3.4-3.8c0.3-0.3,0.7-0.6,1.1-0.7
		C202.5,106.8,203.1,107,203.5,107.6z"/>
	<path class="st80" d="M183.3,131.4c-4.5,0-5.1,5.2-8.8,6.4c0.3-1.1,0.6-2.2,0.9-3.3c-0.3-4.9,4.4-6.2,6.6-9.4
		c0.4-0.2,0.9-0.3,1.4-0.2c1.3,0.2,2,1,2.4,2.2c0.1,0.5,0,0.9-0.3,1.3C184.1,128.9,183.3,129.9,183.3,131.4z"/>
	<path class="st81" d="M211.4,97.5c-2.9,0.6-5.6,2.3-8.8,2.2c-1.1,0.4-2,0.5-2.4-0.9c0.8-1.6,2.5-1.5,3.8-2
		c5.6-1.4,10.4-4.4,14.7-8.3c0.4-0.2,0.9-0.3,1.3-0.3c0.8,0.1,1.2,0.6,1.4,1.4C219,93.3,214.8,94.9,211.4,97.5z"/>
	<path class="st0" d="M191.5,122.5c1.7-1.7,3.3-3.4,5-5.1c1.2,5.5-3.4,10.4-8.2,9C188.2,124.1,189.5,123,191.5,122.5z"/>
	<path class="st82" d="M221.5,89.5c-0.3-0.4-0.7-0.7-1-1.1c0.8-4.3,2.2-8.3,5.9-11.1c0.2,0.8,0.3,1.6,1.1,2.1
		C226.5,83.4,224.4,86.7,221.5,89.5z"/>
	<path class="st0" d="M175.8,139.5c0.6-1.8,2.5-2,3.7-3c2,0.3,2.6,1.8,1.6,3.1C179.5,141.7,177.6,139.6,175.8,139.5z"/>
	<path class="st83" d="M206.5,102.2c-0.2-0.2-0.2-0.5,0-0.7c1.7-0.5,2.5,0.5,3,1.9c-0.5,1.3-2.1,1.5-2.2,3.4c-0.2,3.1-1.9,0.6-3,0.5
		C203.1,104.8,204.8,103.5,206.5,102.2z"/>
	<path class="st84" d="M191.5,122.5c-0.4,1.9-2.4,2.4-3.2,3.9c-0.6,0.4-1.2,0.8-1.8,1.2c-0.4-0.4-0.6-0.8-0.7-1.3
		c0.2-2.9,1.4-4.8,4.6-4.9C190.7,121.8,191.1,122.1,191.5,122.5z"/>
	<path class="st85" d="M206.5,102.2c-0.7,1.7-1.4,3.4-2.1,5.1c-0.3,0.1-0.6,0.2-0.8,0.3c-0.7,0-1.4,0-2.1-0.1
		c-0.9-3,1.4-4.2,3.1-5.8C205.2,101.9,205.8,102,206.5,102.2z"/>
	<path class="st86" d="M209.5,103.4c-1-0.6-2-1.3-3-1.9c1.1-2.1,3.6-0.7,5-2C211.7,101.3,210.2,102.1,209.5,103.4z"/>
	<path class="st87" d="M186.3,126.3c0.1,0.4,0.1,0.9,0.2,1.3c-0.1,0.6-0.4,0.9-1,0.7c0-0.2,0-0.5,0-0.7c-0.3-0.3-0.3-0.7-0.2-1.1
		C185.5,126.2,185.9,126.1,186.3,126.3z"/>
	<path class="st88" d="M23.5,83.5c-1.4-3.3,1.2-2.7,2.9-3c2-1.7,4.2-1.2,6.4-0.7c2.1,0.5,4.1,0.9,6.2,0.1c1.8-0.1,3.7-0.1,5.5,0.1
		c1.8,1.3,4.3,1.8,5.2,4.3c-0.3,0.8-2.2,1.9,0.2,2.2c1.6,0.2,3.5,0.4,4.9-1c0.3-0.8,0.8-1.5,1.7-1.8c0.7-0.2,1.3-0.2,2,0
		c2.6,0.4,4.6,2.9,7.6,2.1c0.5-0.1,0.9-0.1,1.4-0.1c2.2,0.6,4.2,1.4,4.6,4.1c-1.3,3.9-4.9,2.5-7.8,3.3c-0.7,1.4,2.4,2.1,0.9,3.6
		c-1,1.1-2.4,1-3.7,1c-2.2,0-4.2-0.7-6.3-1.3c-0.2,0-0.3-0.1-0.5-0.2c0,0.1,0,0.2,0.1,0.3c2.3,1,4.4,2.2,6.4,3.5
		c1.3,0.9,2.4,1.8,1.4,3.6c-2.5,1.3-5.1,1.2-7.8,0.9c-0.9-0.2-1.8-0.6-2.5-1.3c-0.7-0.6-1.1-1.4-1.4-2.2c-0.3-1.1-1.1-1.6-2.2-1.9
		c-0.8-0.3-2-0.3-2.3-0.9c-1.9-4.6-5.5-6-10.2-5.8c-1.3,0-2.5-1.5-2.1-3c1-3.7-1.3-4-3.9-4.7C28.1,84.2,25.7,84.4,23.5,83.5z"/>
	<path class="st89" d="M23.5,83.5c4.1-2.6,7.7,1.4,11.8,0.9c1.4-0.2,1,2.3,0.4,3.8c-1,2.5-1.2,3.6,2.5,3.1c3.3-0.5,7.2,0.4,7.7,5.2
		c0.2,1.9,2.8,0.6,3.5,2.1c-1.4,1.7-3.6,2.3-5.4,1.8c-3.9-1-7.8-0.4-11.7-0.7c-2.1-0.6-4.1-1.1-4.3-4c-0.1-2.9-2.9-3.3-4.8-4.5
		c-0.9-0.2-1.6-0.6-1.8-1.6c0-0.3,0-0.6,0-1c0.1-1.6,1.1-2.8,2-4.1C23.5,84.1,23.5,83.8,23.5,83.5z"/>
	<path class="st90" d="M23.5,69.5c0.7,0,1.3,0,2,0c1.7-1,3.6-0.2,5.3-0.7c3.8-1,7.7-0.7,11.6-0.3c3.6,1.5,7.7-0.4,11.2,1.7
		c1.9,2,4.5,2.7,7.1,3.3c1.1,0.3,2.3,0.9,2,2.4c-0.3,1.4-1.6,1.5-2.8,1.5c-2-0.1-3.9-0.7-5.8-1.3c-4.2-1.2-8.4-2.6-10.8-2.7
		c2.6-0.3,5.9,2.8,9.6,4.8c2.3,1.3,2.2,2.8-0.6,3.5c-1.6,0.2-3.1-0.1-4.5-0.9c-7.6-3.5-15.7-5.7-23.7-7.8
		C22.5,72,22.6,70.8,23.5,69.5z"/>
	<path class="st91" d="M21.5,89.5c0.7,0.4,1.3,0.7,2,1.1c0.4,1.1,1.4,2.2,1.1,3.2c-0.5,1.7-1.3,2.5,1.4,3.1c2.1,0.4,2.3,2.7,0,3.9
		c-1.6,0.8-3.5,1-4.5,2.8c-0.3,0-0.7,0-1,0c-3.8,0.4-6.2-2.8-10-3.6c5.8,0.8,6.7-2.8,7-6.9C17.6,90.4,19.5,89.8,21.5,89.5z"/>
	<path class="st92" d="M24.5,72.5c8.3,1.3,16.4,3.3,24,7c-1.1,1.4-2.3,2-4,1c-1.7,0-3.3,0-5,0c-3.4,0.2-5.6-2.2-8-4.1
		c-1.6-2.7-5-1.1-7-3c-0.3-0.2-0.5-0.4-0.3-0.7C24.3,72.6,24.4,72.5,24.5,72.5z"/>
	<path class="st93" d="M21.5,105.5c1.9,1.1,3.2,2.8,2.6,4.8c-0.6,2-2.9,0.9-4.4,1.1c-2.8,0.3-5.9,1.5-8.3-1.6
		c2.4-0.6,4.2-2.2,6.1-3.4C18.9,106.4,20.4,106.9,21.5,105.5z"/>
	<path class="st38" d="M30.5,70.5c-1.8,0.2-3.5-0.1-5-1c-1.7-3-4.6-1.6-7-2c-0.9-1.2-3-2.2,0.3-3.3c3.6-1.2,6.4,1,9.6,1.2
		c1.7,0.3,2.5,1.4,2.8,3C31.2,69.2,31,69.9,30.5,70.5z"/>
	<path class="st94" d="M31.5,76.5c3.4-0.2,5.4,2.7,8,4.1c-1.4,1.4-2.9,2-4.9,1.1c-2.6-1.2-5.4-1.3-8.2-1.3
		C26.4,76.9,30.1,78.2,31.5,76.5z"/>
	<path class="st91" d="M23.5,84.5c0,1.7,0.2,3.5-2,4.1c-1.3-0.3-3.7,0.8-3.5-1.4C18.3,83.8,21.3,84.6,23.5,84.5z"/>
	<path class="st9" d="M24.5,72.5c0,0.3,0,0.7,0,1c-1.1-0.4-2.3,1.8-2.7,0.6c-0.5-1.5-1.3-4,1.7-4.6C23.5,70.6,23.4,71.8,24.5,72.5z"
		/>
	<path class="st3" d="M39.5,152.5c0-0.7,0-1.3,0-2c1.5,0.9,2.9,0.2,4.1-0.6c3.5-2.1,6.8-2,9.8,1c-5.5,1.9-0.3,3.7,0.1,5.6
		c-0.7,1-1.3,1-2,0c-1.7-0.5-3.1-2-5-2C44,154.4,42.3,151.5,39.5,152.5z"/>
	<path class="st15" d="M46.5,154.5c1.9-2.1,1.9-2.1,5,2c-1.8,1.6-3.9,2-6.2,1.5C45.7,156.8,46.1,155.6,46.5,154.5z"/>
	<path class="st95" d="M43.5,28.5c2.4-0.4,4.7-0.6,7.1-0.5c2.3,0.1,4.8-1,5.9-3.6c1.6-6.2,3.5-7.4,9.8-5.8c2.7,0.7,5.5,1.2,8.1,2.3
		c2,2.8,4.1,5.2,8.1,4.2c3.4,3.1,1.9,10.4-2.6,12.3c-1.3,0.6-2.9,0.4-4.8,2.2c5.6,1.2,10.4-1.3,15.2-0.4c4.6,0.5,9.2,0.8,12.3,5
		c0.4,1.7-0.7,2.8-1.6,3.9c-1.7,1.9-2.8,2.8-6.1,1.5c-5.7-2.2-12-1.9-18,0.2c-1.2,0.4-2.3,0.6-2.6,2.7c-0.5,3.4-8.8,8.6-11.9,8.2
		c-0.9-2.8-4.2-5-1.7-8.7c-3.8,0.6-7.1-0.3-10.5,1.6c-2.7,1.5-4.1-0.7-4-3.5c2.1-2.7,5.3-3.2,8.2-4.3c3-1.1,2.7-2.3,0.6-4
		c-0.5-0.4-1-0.8-1.5-1.3c-3.5-3-3.5-3.3,0.7-5.7c-2.7-1.9-5-4.4-8.8-3.8C44,31.3,42.4,30.8,43.5,28.5z"/>
	<path class="st96" d="M43.5,28.5c0.3,0.5,0.9,1.5,1,1.5c4.3-1.7,7.1,1.2,10.1,3.2c1.1,0.7,2.9,0.8,2.5,2.5
		c-0.6,2.2-2.3,1.1-3.7,0.9c-0.4-0.1-0.9,0.2-1.7,0.5c2.4,2.1,4.7,3.8,6.7,5.8c1.4,1.4,1.7,2.7-0.9,3.5c-3.7,1.1-7.3,2.6-11,4
		c-1.2,0.4-1.9-0.2-2.4-1.1c-0.1-4.3,4.2-3.9,6.3-6C43.3,47,36,46.9,28.5,45.5c-1.3,2.2-3.2,1.4-5,1c-4-4.5-9.4-2.7-14.3-3
		c-1.6-0.1-4.9-5-4-6.2c0.3-0.3,1.5,0.1,2.3,0.1c2.4-3.6,6.2-2.6,9.5-2.7c4.6-0.1,9.3,0.8,13.4-2.3c0.5-0.4,1.7-0.6,1.7-0.9
		c-0.6-6.9,4.3-3.6,7.3-4C40.7,28.2,42,28.6,43.5,28.5z"/>
	<path class="st97" d="M74.5,21.5c-4.1,0.7-7.5-2-11.5-2c-4.3,0-4.3-0.1-3.4,4.3c0.2,1.2,0.1,1.3-3.1,0.7c-2.7-1.4-4.7,1.6-7.7,0.9
		c-4.6-1.1-5.4-4.6-6.5-7.7c-1.1-2.9-3.5-4.6-5.4-3.5c-4.2,2.3-5.8-1.3-8.4-2.7C29.4,10.4,27,8.9,29,8c2.2-0.5,4.1,0.7,6,1.5
		c3.4,1.2,6.8,1.5,10.2,0.6c4.8-1.4,9.5,0.6,14.3-0.1c5.6-0.8,10.7-3.7,16.4-3.8c2.4,0,5.1-1.1,6.2,2.3c0.3,1.5-0.4,3.1-1.8,3.1
		c-4.2,0.2-6.1,4.2-9.9,5.5c1.4,1.5,3.1,0.5,4.2,1.3C76,19.5,76.2,20.5,74.5,21.5z"/>
	<path class="st47" d="M39.5,27.5c-0.7,1.3-1.5,2.2-3.1,1.7c-1-0.3-1.6-2.3-2.8-0.9c-1.5,1.6,1.6,2.2,1.4,2.9
		c-7.1,6.4-15,4.9-22.9,4.7c-1.5,0-3,1-4.5,1.5c0.3-2-1.1-3.4-2-4.9c3.7-1,7.5-0.3,11.1,0.3c1.9,0.3,1.7-0.2,2.4-1.6
		c1.5-3.1-1.1-1.6-1.8-1.7c-2.2-0.6-3.5-1.8-3.7-4c0.9-4.4,3.9-3.8,7-3c5.4-0.9,5.4-0.9,6.9,2.1c-1.7,0.8-3.5,0.2-5.1,0.4
		c1.4,0.1,2.8,0,4.3,0c4.1-3,8.1-2.5,11.9,0.5C38.8,26.2,39.2,26.8,39.5,27.5z"/>
	<path class="st98" d="M3.5,5.5C3.1,3.7,2.8,2.1,5.6,2.5c4.4,0.7,8.8,1.2,12.9,3c0.5,1.1-0.1,1.7-1.1,2.1c-4.7,0.6-9.2,3.1-14.3,2.4
		C1.7,8.4,5.8,7.1,3.5,5.5z"/>
	<path class="st96" d="M26.5,24.5c-1-3.8-4.1-1.2-6-2c0.2-0.4,0.5-1.2,0.6-1.2c5.9,1.3,11.7-2.1,17.3,0.1c1.1-1.6-0.5-1.9-0.7-2.8
		c-0.2-1,0.5-2.1,1-1.6c1.7,1.6,3.2,3.3,3.3,6.1c0.2,3.5-2.2,2-3.6,2.4c-4-0.7-8-2.1-12,0c-0.3-0.2-0.5-0.4-0.4-0.6
		C26.3,24.6,26.4,24.5,26.5,24.5z"/>
	<path class="st99" d="M17.4,7.5c0.4-0.7,0.7-1.4,1.1-2.1C21,4,23.8,4.6,26.5,4.6c0.6,0.5,1.2,1,1.5,1.7c0.4,0.7,0.5,1.5,0.5,2.3
		c0.3,1,1.5,1.9,0,2.8c-1.1-1.4-2.6-0.8-4-0.9C22.4,9.1,19.7,8.8,17.4,7.5L17.4,7.5z"/>
	<path class="st98" d="M17.4,7.6c3.4-1.6,5.3,0.6,7.1,2.9c-3.1,1.9-6.4,0.2-9.6,0.6C15.1,9.1,17.8,9.5,17.4,7.6z"/>
	<path class="st100" d="M44.5,49.5c0.7,0.3,1.3,0.7,2,1c1.5,1.5,2.5,4.9,5.2,1c1.4-2,3.3-0.6,5-0.2c1.6,0.4,2.9-0.5,4.3-1
		c1.4-0.5,2.9,0.6,2,1.4c-3.1,2.7-1.1,4.6,0.3,6.9c0.2,0.3-0.4,1.2-0.6,1.8c-3.1,0.2-5.4,3.6-8.9,2.5c-1.8-1.8-3.5-1.2-5.1,0.3
		c-1.9,1.8-3.8,3.5-6,4.8c-0.4,0.2-0.9,0.3-1.4,0.3c-3.6,0.2-7.1-0.3-10.6-0.1c-0.7-1-1.4-1.9-2.1-2.9c-0.1-2.5-2.7-1.8-3.9-2.9
		c-0.5-2.1,1.3-3.3,2-5c0.3,0,0.7,0,1,0c3.4,0.2,6.7-0.9,9.9-1.8c0.2-0.1,1.3-0.6,0.7-0.8c-3.7-1.4-1.1-3-0.1-4.1
		C39.8,49,41.8,47.4,44.5,49.5z"/>
	<path class="st95" d="M44.5,49.5C41,49,39,51.1,37.1,53.7c1.6,1.2,2.1-1.2,3.3-0.8c0.6,0.2,1.1,0.6,1.4,1.1
		c0.1,0.2-0.3,1.2-0.4,1.2c-2.3,0-3.1,2.9-4.9,3c-2.6,0.1-5-0.8-7.1,1.7c-0.6,0.7-1.4-1.4-2-2.3c4.4-3.1,4.6-5.3,1-12
		c4.3-2.5,9,0.9,13.5-0.8c2.1-0.8,4.6-0.6,6.4-2.2c1.8-1.5,2.9,0.2,4.7,0.2C50.8,46.3,45.8,45.5,44.5,49.5z"/>
	<path class="st38" d="M26.5,57.5c0.3,2.1-0.4,3.7-2,5C20.3,58.9,25,58.8,26.5,57.5z"/>
	<path class="st96" d="M16.5,50.5c-0.8-1.6-0.7-2.3,0.6-2.6c1.2-0.3,3.4-1.5,2.4,1.6C18.4,49.5,17.2,49.3,16.5,50.5z"/>
	<path class="st101" d="M140.5,140.5c1.8-0.9,3.2-2.8,5.5-2c0.3,0.1,0.6,0.2,0.9,0.3c0.8-7.9,7.4-1.8,10.5-4.2
		c0.6-0.5,2.3,0.2,2.4-1c0.2-1.3-1.4-1.5-2.3-2.1c-0.2-3.6,2.6-3.8,5-4.4c2.4-1.5,5.4,0.2,7.7-1.7c2.6-2.3,2.5-5.2,1.5-8.2
		c-0.6-1.2-0.9-2.5-0.2-3.8c0.5-1.2,0.9-2.5,2.4-3c1.1-0.4,2.2-0.7,3.4-1c2.2-0.4,4.4-0.4,6.7-0.3c1.7,0.3,4.1-0.3,4.5,2.1
		c0.3,1.9-1.2,3.3-2.8,4.4c-1.8,1.2-3.9,1.9-5.5,3.3c-1.3,1.2-3,2.3-2.6,4.5c1.6,4.2-1,7-3.4,9.8c-0.7,0.7-1.3,1.4-1.6,2.3l0,0
		c-1.8,1.7-4,2.8-5.6,4.8c-1,1.4-2.7,1.9-4.4,1.1c-4.2-1.5-8.4-0.4-12.7-0.3C146.7,141.3,143.6,140.8,140.5,140.5z"/>
	<path class="st87" d="M162.5,141.5c2.1-0.8,4-1.8,5.4-3.8c1-1.6,2.6-2.4,4.6-2.1c1.1,3-2.1,2.8-3.2,4.1c-2.6,3.3-5.2,6.6-8.9,8.9
		c-1.6-0.9-1.8-2,0.1-2.5C163.6,145.4,163.1,143.5,162.5,141.5z"/>
	<path class="st102" d="M140.4,148.6c5.2-1.1,10.3-2,15.8,0.4C150.5,152.9,145.4,148.5,140.4,148.6z"/>
	<path class="st23" d="M140.5,152.5c2.4,1.8,6.2,1.5,7.8,4.9C141.6,157.9,140.7,157.3,140.5,152.5L140.5,152.5z"/>
	<path class="st103" d="M190.4,2.4c0.8,3.6,3.6,5.4,6.3,7.2c-0.1,0.3-0.2,0.6-0.3,0.9c-3.6-0.5-5-3.8-7.1-6
		C188.4,3.5,189.5,2.8,190.4,2.4z"/>
	<path class="st104" d="M74.5,21.5c1.3-3.1-0.6-2.3-2.4-2.1c-1.3,0.2-3.4,0.9-4-0.8c-0.6-1.7,1.4-2.3,2.6-3.2
		c1.7-1.3,5.3-0.9,4.3-4.9c-0.1-0.6,1.4,0,2.1,0.2c2.4,0.9,3.8,0.2,4.5-2.3c-1-2.6,0.3-2.8,2-1.5c2.2,1.6,4.8,1.9,7.3,2.3
		c0.5,0,0.9,0.2,1.4,0.4c1,0.5,2.1,1.2,3,0c0.4-0.6,0.5-1.3-0.1-1.7c-1.2-0.9-2.1-0.1-3,0.6c-0.5,0.4-1.1,0.7-1.7,1
		c-1.5-0.5-2.5-2.1-4.6-1.5c-1.4,0.4-2.4-0.9-1.3-2.5c7.1-2.3,14.3-1.2,21.4-0.6c1.8,0.2,4.5-1.6,5.6,1.5c-1.5,1.7-3.6,1.6-5.6,1.5
		c-3-0.2-5.1,0.9-6.3,3.9c2.6-0.3,5.2,0.8,7.8,0c2.7-0.8,3.5,1,4,3.1c0.7,2.6-1,3.2-2.9,3.6c-1.9,0.4-4,0-5.8,0.9
		c-2.8,1.3-5.8,0.4-8.4,0.8c1.3,0.6,3.2-0.2,5,0.2c1.7,0.4,4.1-0.5,5,1.2c1.1,2.1-1.2,3.4-2.3,5c-1.7,2.5-4,3.3-6.9,2.2
		c-4.1-1.6-9-0.2-12.6-3.4c-1.3,0.2-1.3,3.5-2.4,2.1C78.4,25.4,73.3,26.2,74.5,21.5z"/>
	<path class="st105" d="M102.5,18.5c1.3-1.5,3.1-0.8,4.7-1c1.3-0.1,3.5,0.1,3.3-1.1c-0.2-1.1-0.8-2.2-1-3.5
		c-0.2-0.9-1.9,0.7-2.9,0.8c-2.7,0.4-5.4-1.1-8.2,0.1c-0.3,0.1-1.6-0.8-1.1-1.2c2.3-1.9,2-6.7,6.3-6c2.7,0.4,5.3-0.5,7.9-0.1
		c1.9,0,4-0.3,5.1,1.9c1.5,3.7,4.5,5.5,8.2,5.1c2.3-0.3,3,1.5,4.6,2.1c-0.2-1.1-1.7-1.8-0.9-3.1c0.7,0,1.3,0,2,0
		c4.2,0.1,6.6,2.7,8.6,6c0.5,1.6-0.4,2.9-1.1,4.5c2.2-0.7,3.2-4,6-2.6c2.6,1.3,4,3.5,4.1,6.3c0.1,1.7,0.6,2.8,2,3.7
		c0.9,0.6,2,1.5,1.4,2.8c-0.6,1.3-2,0.9-3.1,0.8c-1.3-0.1-2.6-0.3-3.8-0.9c-2.9-2.4-6.1-4.3-9.1-6.5c0.5,0.4,1.3,0.6,1.5,1.4
		c0.1,0.8,0,1.5-0.6,2.1c-1.7,1-3.5,0.9-5.3,0.5c-0.6-0.2-1.2-0.5-1.8-0.7c-5.2-1.7-5.2-1.7-1.3-5.8c-1.8-1.8-3.6-0.6-5.4-0.2
		c-4.4,0.9-8.9,3.1-12.2-2.5C108.7,18.8,104.6,20.7,102.5,18.5z"/>
	<path class="st106" d="M84.5,5.5c0.2,1.3,1.1,2.6,2.2,1.7c3.8-3.1,2.6,1.5,3.8,2.3l0,0c-2.6,0.2-5.1,0.3-7.2-1.7
		c-1.1-1-1.7-0.8-1.8,0.7c-1-0.7-2-2.7-3.2-1.9c-3.7,2.6-8.5,0-12.5,3.7c-2.4,2.3-8.2,2.1-12.2,1.3c-3.3-0.7-6.1-0.3-9.2,0
		c-3.3,0.4-6.8,0.5-10-1.2c1.6-1.7,3.9-1.6,5.9-1.6c1.8,0,1.9-1,2.4-2c1.9-1.4,4-1.5,6.2-1.3c3.9,0.7,7.9,1.3,11.5-1.1
		c5,0.3,10,0.6,15,0.9C78.5,5.8,81.5,3.5,84.5,5.5z"/>
	<path class="st107" d="M128.5,12.5c1,1.2,2,2.4,3.1,3.7c-1.3-1.3-4.7,3.8-4.7-1.4c0-0.2-0.7-0.5-0.7-0.5c-3.1,3.2-5.1-1.1-6.9-1
		c-5.7,0.3-1.9-3.3-2.7-4.8c2-2.6,4.7-2.3,7.2-1.6c1.8,0.5,3.2,0.5,4.7-0.4c1.1,1.8-0.6,2.1-1.4,3C124.9,11.7,126.6,12.2,128.5,12.5
		z"/>
	<path class="st108" d="M52.5,102.5c0.7,0.4,1.3,0.7,2,1.1c1.2,1.2,3.5-0.7,4.3,1.6c-5.1,1-5.1,8-10.4,8.8c-1.5-0.2-2.2-1.5-3.1-2.2
		c0.6,2.9,5.5,1.6,5.7,5.3c-1.5,1.3,0.1,2.9-0.4,4.4c-0.9,0.3-2.2,1.3-2.7,0.9c-4.5-2.8-9.8-0.1-14.4-1.9c0.7-1.2,2.2-0.6,3.2-1.4
		c-2.5-2-3.5-5-5.2-7.5c1.1-2.3,1.3-5,3-7c2.5-1.5,5.2,0,7.8-0.3c1.7-0.2,3.1-0.5,4.5-1.5C48.6,102,50.5,101.8,52.5,102.5z"/>
	<path class="st109" d="M46.5,103.5c-0.3,1.8-0.8,3-3.2,2.4c-2.9-0.7-5.9-1-8.8-1.4c-1-0.3-2-0.7-3-1c-0.7-1.7-0.7-3.3,0-5
		c6-1.5,12,1.2,18,0c2.9,0.2,2.9,0.2,2,2.1C49.8,101.4,47.7,101.6,46.5,103.5z"/>
	<path class="st110" d="M31.5,98.5c1.1,1.7,1.1,3.3,0,5c-3.3,0-6.6,0-10,0c0-1.6-1.9-4.4,2.2-3.4c1.3,0.3,3,0,2.8-1.5
		c-0.1-1.4-1.5-2-3-0.8c-0.7,0.6-1.5,0.6-2-0.4c-0.7-1.2-0.2-1.6,1-2.1c3-1-1.2-3.5,0.9-4.8c5.3,0.8,6,1.2,5.8,5.5
		C29.2,98.3,31.5,97.1,31.5,98.5z"/>
	<path class="st111" d="M231.5,16.5c0.7,0.9,1.3,1.8,2,2.7c-0.2,1.6,0.8,2.6,1.8,3.7c1.6,1.7,0.9,2.8-1,3.6
		c-0.1-1.1-0.5-2.1-1.8-1.3c-1.1,0.7-2.1,1.6-3.6,1.4c-2.1-1.2-3.2-3.3-4.6-5C226.6,19.5,228.1,16.6,231.5,16.5z"/>
	<path class="st112" d="M219.4,9.4c4.7-4.6,7.8-4,11,1.6c0.8,1.4,0.2,2.1-0.7,2.9c-1.8,1.5-3.5,2.9-5.3,4.4
		c-0.3-0.3-0.5-0.7-0.6-1.2C225.5,12.7,221.6,11.5,219.4,9.4z"/>
	<path class="st113" d="M219.4,9.4c5.1,0,7.2,3.5,5.1,8.1c-2.9,0.2-3.5-2.9-5.7-3.8C215.9,11.8,217.5,10.6,219.4,9.4z"/>
	<path class="st114" d="M216.5,25.5c-0.1-0.1-0.2-0.2-0.4-0.3c5.9-4.7,1.7-8-1.6-11.5c3.9,0.5,6.1,3.7,7.1,6.5
		C222.3,22.1,218.5,23.9,216.5,25.5z"/>
	<path class="st115" d="M213.5,11.5c-0.1-0.1-0.4-0.3-0.4-0.3c2.9-5.7,2.6-6.4-3.6-9.5c4.9-2.9,5.1,2.8,7.5,4.4
		c2.3,1.4-0.3,2.6-1.3,3.7C215.2,10.4,214.3,10.9,213.5,11.5z"/>
	<path class="st116" d="M218.8,13.6c2.9-0.2,3.5,3,5.7,3.8c0,0.3,0,0.6,0,0.8C221.4,18.2,220.5,15.5,218.8,13.6z"/>
	<path class="st117" d="M48.5,113.5c0.4-2.1,6.8-1.8,2.5-6.1c-0.5-0.5,0.9-1.2,1.7-1.3c1.9-0.3,3.8-0.4,5.8-0.6
		c0.1-0.1,0.3-0.3,0.4-0.2c6.2,2.7,13.3,0.8,19.5,3.3c6.6,1.5,12.7,4.6,19.7,4.7c2.5,0,5.7,1.7,6.9,4.8c0,0.5-0.1,0.9-0.3,1.4
		c-3.5,2-6.9,1.9-10.8,0.7c-5-1.6-10.5-0.7-15.9-0.9c1.1,1.2,2.3,0.4,3.4,0.6c3.2,0.5,2.5,1.9,1,3.6c-2.9-1.2-5.1-0.1-7,2
		c-3-0.6-6.2,0.4-9.2-0.9c-0.9-0.4-1.8-0.7-2.8-1.1c-0.6-0.6-0.6-1.3-0.3-2c5.7,0.5,3-5.3,5.6-7.5c-4.4,3.1-5.9-0.8-8.2-2.9
		c-3.3-2.9-3.8,1.4-5.6,2.3C52.8,115.3,50.7,115.9,48.5,113.5z"/>
	<path class="st118" d="M63.5,121.5c0,0.6,0,1.3,0,1.9c-2.2-0.1-4.7,0.8-6-1.9c0.1-1.2-1.2-1.1-1.7-1.6c-0.8-0.8-1-1.7-0.5-2.8
		c1.3-2,3.2-2.8,5.4-3.3c2.6-0.5,4.2,1,5.3,2.9C67.2,119.2,65,120.3,63.5,121.5z"/>
	<path class="st119" d="M55.5,117.5c0.1,0.8,0.3,1.6,1.1,2c-0.8,3-3.4,1.4-5.1,2.1c-0.3,0-0.6-0.1-0.9-0.2c-0.6-0.7-1.2-1.5-1.8-2.2
		c-0.5-0.6-1.3-1.2-0.8-2c0.8-1.1,1.7,0.1,2.5,0.2C52.2,116.2,53.9,116,55.5,117.5z"/>
	<path class="st108" d="M51.5,121.6c0.6-3.3,3.8-0.4,5.1-2.1c1.1,0.3,3-0.7,3.2,1.1c0.1,1.1-1.5,0.8-2.4,0.9
		C55.5,120.7,53.6,126,51.5,121.6z"/>
	<path class="st120" d="M66.3,124.5c3.1,0,6.2-0.6,9.2,0.9c-3,1.5-6.1,0.5-9.2,0.1C66.3,125.2,66.3,124.9,66.3,124.5z"/>
	<path class="st121" d="M138.5,18.4c-2.8-1.8-4.7-4.8-8-5.9c0.7-1-1.4-3.4,2.1-3.2c5,0.3,9.6-4,15-1.9c3,0,6,0,8.9,0
		c2.8,2.7,3.1,5.8,0.6,7.3c-1.7,1-3.9,2.1-4.7-1c-0.6-2.2-3-1.3-3.3-2.2c1.2,0.9,1.4,2.6,0.1,4.4c-0.9,1.2-2.3,1.7-3.7,2.1
		c-0.7,0.1-1.4,0.1-2.1-0.1c-1-0.8-2-2.1-3.3-0.3C139.7,18.2,139.2,18.4,138.5,18.4z"/>
	<path class="st122" d="M49.5,6.5c-2.3,0.3-4.7,0.6-7,0.9c-5,0.1-10.1,1.6-15-0.9c-0.8-0.4-1-1.1-1-1.9c0.3,0,0.6-0.1,0.9-0.2
		c4.4-0.3,8.9,1,13.2-0.8c2.9,0.3,5.9,0.6,8.8,1C50,4.9,50.7,5.3,50.6,6C50.5,6.6,50,6.7,49.5,6.5z"/>
	<path class="st123" d="M49.5,6.5c1-0.6,0.2-1.3,0-1.9c3.7,0,7.3,0,11-0.1c-0.1,1.5,1.6,4.6-2.6,2.6c-0.8-0.4-3.3-1-5,0.7
		C51.6,9.3,50.3,7.9,49.5,6.5z"/>
	<path class="st124" d="M148.5,15.5c1.9-3.4-0.2-3.4-3-3c3.1-4.5,6.2,0,9-0.8c0.5,1.6-1.9,1.6-1.2,3.1c4.9-1.1,5.5-2.6,3.1-7.2
		c1-0.3,1.9-0.6,2.9-0.9c2.9,1,5.7,1.6,7,5.2c0.9,2.6,5,2.8,6.2,5.7c-0.3,3.6,3,6.5,2,10.3c-3.6,2-7.4,0.1-11.1,0.7
		c-6.5,0.2-8.7-1.3-11.2-7.7c-0.5-1.4-2-1.7-2.8-2.7C148.7,17.4,149,16.3,148.5,15.5z"/>
	<path class="st125" d="M174.5,27.5c-1-3.3-4.7-6-2-10c2.7,2.7,5.3,5.3,8,8c-0.6,1.1-1.7,1.6-2.7,2.3
		C176.7,28.3,175.5,28.5,174.5,27.5z"/>
	<path class="st126" d="M177.5,26.5c0.7-1.2,1.9-1,3-1.1c3.2,0.5,3.8,3.7,5.6,5.6c1.2,1.3,2.1,2.8,3.7,3.7c-1.5,0.4-2.9,0.7-4.4,1.1
		c-3.4-0.5-3.3-0.5-4.6-5.1C180.3,28.9,179.1,27.5,177.5,26.5z"/>
	<path class="st127" d="M226.7,98.5c0.6,3.3,1.2,6.7,1.8,10c0.2,0.3,0.3,0.6,0.3,0.9c0,0.3-0.1,0.5-0.1,0.5
		c-1.8,5.4-3.2,11-6.3,15.9l0.1,0.2c-0.1,0.5-0.4,0.7-1,0.6c-0.1-1.3-0.7-2-2.1-2.1c-0.7-1-1.4-2.1-2.1-3.1c0.1-0.3,0.2-0.5,0.2-0.8
		c0.3-2.4,1.3-4.4,3.1-6l-0.1,0c1.8-4.3,2.6-8.9,4.4-13.1C225,100.2,225.2,98.9,226.7,98.5z"/>
	<path class="st44" d="M221.5,126.6c0.3-0.2,0.6-0.4,1-0.5c-1,7.8-4.6,14.6-8,21.5C215.7,140.1,219.6,133.7,221.5,126.6z"/>
	<path class="st87" d="M172.5,135.5c-0.1-1-3.1-1.8-0.6-2.8c4.6-1.8,4.8-5.3,4.6-9.2c-0.3-0.8,0.2-1.4,0.8-1c1.7,1.3,4,1.3,5.3,3
		c-1.5,3.7-5.4,5.4-7.2,8.9C174.4,134.8,173.5,135.1,172.5,135.5z"/>
	<path class="st128" d="M225.3,101.4c-0.9,4.6-1.8,9.3-4.8,13.2c-0.4-2.7,2.1-5.4-0.1-8.1c3.1-0.2,2.2-3.6,3.9-5
		C224.7,101,225,101,225.3,101.4z"/>
	<path class="st129" d="M220.6,114.5c-0.3,2.4-1.7,4.2-3.1,6C216.6,117.5,217.6,115.5,220.6,114.5z"/>
	<path class="st130" d="M225.3,101.4c-0.3,0-0.6,0-0.9,0.1c1.1-2-0.7-5.4,3.2-5.9c-0.3,1-0.6,2-0.9,3
		C226.2,99.5,225.8,100.5,225.3,101.4z"/>
	<path class="st131" d="M222.4,125.8c2-5.5,4-10.9,6-16.4c0.9,0.4,0.4,1.4,0.8,1.9c-1.4,4.8-4.1,9.1-4.8,14.1
		C223.8,125.6,223.1,125.7,222.4,125.8z"/>
	<path class="st132" d="M229.2,111.3c-0.3-0.6-0.6-1.3-0.8-1.9c0.1-0.3,0.1-0.6,0.1-0.9c1.3-2.7,2.6-5.4,4-8.1
		c0.2-0.4,0.5-0.5,0.8-0.1C231.9,104,230.6,107.7,229.2,111.3z"/>
	<path class="st133" d="M233.3,100.4c-0.3,0-0.5,0-0.8,0.1c-0.1-2.8,0-5.6,3.1-7C235.6,96,233.9,98,233.3,100.4z"/>
	<path class="st134" d="M191.5,38.5c5.9-0.3,11.5,0.9,17,2.8c3.2,1.1,5.6,2.8,7,5.9c0.3,0.4,0.5,0.8,0.6,1.2
		c-0.1,1.8-0.8,3.5-2.8,3.5c-1.7,0-2.4-1.2-2.2-3.1c0.2-1.4-1.4-1.6-2-1c-3.2,3.4-5.1,0.5-7-1.7c-2.3,5.7-2.7,5.8-6.7,1.6
		c-0.6-0.6-1.3-1-1.9-1.5c-0.9-0.6-1.5-2.8-3-0.7c-1.8-1-4.2,0.1-5.7-1.8c-0.7-0.8-1-1.7-0.8-2.8C185.6,37.4,189.1,39.7,191.5,38.5z
		"/>
	<path class="st135" d="M215.5,48.5c0-0.5,0-0.9,0.1-1.4c5,0.9,6.2,5.2,8,9c1.8,4.9,3.8,9.8,2.5,15.3c-0.1,0.5-0.3,1-0.6,1.4
		c-1.4,0.6-2.4,0.1-3.2-1c-0.4-0.9-0.2-1.9-0.2-2.8c0.3-2.3-0.1-4.4-1.2-6.4C221.5,56.9,217,53.3,215.5,48.5z"/>
	<path class="st136" d="M191.5,38.5c-2,1.7-5.3,0.4-7,2.8c-2.5,2.5-6,3.4-8.5,5.8c-0.8,0.6-1.7,1-2.8,0.8c-0.7-0.3-1.4-0.7-0.7-1.6
		c1-1,1.9-2,2.9-3.1c4.1-2.6,8-5.5,13-6.1C189.1,38.7,190.4,38.4,191.5,38.5z"/>
	<path class="st137" d="M225.5,72.4c0.4-5.6-1-10.9-1.9-16.3c3.3,5.1,5,10.4,2.8,16.4C226,72.8,225.7,72.8,225.5,72.4z"/>
	<path class="st138" d="M225.5,72.4c0.3,0,0.6,0.1,0.8,0.1c0,1.6,0,3.2,0,4.8c-1.7,3.8-3.3,7.7-5.9,11.1c-0.3,0.1-0.6,0.2-0.9,0.2
		c-0.2-0.2-0.3-0.4-0.5-0.5C220.4,82.5,222.5,77.3,225.5,72.4L225.5,72.4z"/>
	<path class="st139" d="M204.6,16.4c-0.8-0.1-1.6-0.6-1.9-1.7c-0.2-0.7,0.2-1.4,0.9-1.5c1.3-0.2,1.6,1,2,1.8
		C205.9,15.7,205.9,16.4,204.6,16.4z"/>
	<path class="st140" d="M177.5,26.5c4.4,0.5,6.3,3.9,4.2,7.5c0.2,2.8,4.9-4,3.8,1.8c-1.7,0.8-3.4,1.6-5,2.4
		c-4.5-3.7-10.9-3.5-15-7.9c-0.9-0.7-1.7-1.6-1.8-2.8c3.7-1,7.3,0.3,11,0C175.6,27.5,176.8,27.7,177.5,26.5z"/>
	<path class="st141" d="M165.5,29.4c2,0.7,4,0.9,5.3,3.1c0.2,0.4,1.8,3.5,4.8,0.7c1.9-1.8,3.3,2.9,4.8,4.9c-0.9,0.5-1.8,1-2.8,1.5
		c-3.4,0.1-6.9,1.4-10.3,0.1c-0.6-2.8-1.9-5.2-4.9-6.1C162.2,31.3,163.6,30.2,165.5,29.4z"/>
	<path class="st142" d="M167.4,39.4c3.4-0.2,6.8-2.1,10.2,0.2c-0.7,0.8-1.5,1.6-2.2,2.4c-1.5,1.2-3,2.3-4.5,3.5
		c-3.5,1.7-5.7,0.5-7-3c-0.4-1-1.2-2.2-0.1-3.2C165,38.3,166.3,38.6,167.4,39.4z"/>
	<path class="st143" d="M80.4,140.5c-1.3,0-2.6,0-3.9,0.1c-0.7-2.7-2.3-3.3-5.1-3.5c-3.4-0.2-6.3-3-10.4-3.1
		c3.7-4.5,8.6-4.2,13.2-3.8c1.5,0.1,2.7,1.4,4.4,0c1.2-1,2.8-0.3,3.3,1c1.6,3.8,4,3.4,6.6,1.3c2.4-1.9,4.8-1.8,7.4-0.8
		c1.3,0.5,3,1.6,4,0c0.9-1.4-1.4-2-1.6-3.4c1-1.5,4.4,2.4,4.2-1.8c-1.3-2-0.7-3.3,1.3-4.3c5-0.2,8.4,3.7,13,4.8c1,1.3,2.5,1.1,4,1.4
		c1.3,0.2,3.1,0.2,2.9,2.4c-0.8,1-1.9,1.9-2.9,1.6c-2.6-0.9-1.4,1.6-2.2,2.2c-2.2,0.1-4.3-0.6-6.3-0.7c-1.5-0.1-5-2.5-4.6,2.3
		c0.1,0.8-1.8,1.2-3.4,0.7c-3.2-1-6,0.6-5.7,2.7c-3.6,0.6-7.4-0.4-11,1C85.1,141,82.7,139.5,80.4,140.5z"/>
	<path class="st144" d="M104.5,122.5c-1.9,0.7-2.1,2.2-2,3.9c-2.6,0.1-4.6-0.7-5.4-5.8c-0.8,6.4-2.1,6.3-4.3,2.9
		c-0.7-1.1-3.4-3.5-3.1,1.1c0.1,1.2-1.7,0.5-2.3-0.1c-1.4-1.6-3-1.8-4.8-1.2c-0.7-0.7,2.1-2.9-1.2-2.4c-2,0.3-4.1,0-6.3,0
		c2.5-4.3,19.8-4.2,24.6,0.3c0.2-4.6,2.6-3,4.8-1.8C105.3,120.5,105.3,121.5,104.5,122.5z"/>
	<path class="st145" d="M172.5,113.5c-0.6,1-0.6,2,0,2.9c-0.8,3.2-3.3,4.9-5.7,6.7c-2.5,0.9-3.1,3-3.4,5.3c-2.6-0.2-4.8,0.4-6,3
		c-2.7,0-5.2-1.5-8-1c-2.8-1.5-5.8-0.7-8.7-0.7c-1.9,0-3.6,0.1-4.7-1.8c-1.3-4.9,2.2-3.6,5.4-3.3c-2.5-2.1-8.1,0.4-6.2-5.4
		c1.4-0.6,3-1.2,3.1-3.1c0.6-0.5,1.2-0.7,1.9-0.9c2.4-0.3,4.5,0,6.5,1.6c1.1,0.9,1.8,2.8,3.5,2.4c3.3-0.7,6.4-1.8,9.8-1.9
		c0.1,0,0.2-1.2,0.6-1.8C164.3,113,167.9,110.7,172.5,113.5z"/>
	<path class="st146" d="M118.5,134.5c-1.2-4.8,3.5-2.6,5-4.1c4.4-3.1,8.7-1.6,13,0.1c1.9,2.6-0.7,4.7-1.7,6.1
		c-1.1,1.6-2.3-1.7-2.8-1.9c-2.3-0.7-5-0.3-7.5-0.2c-0.2-0.3-0.2-1.1-0.3-1c-1,0.6,0.3,0.6,0.3,1c0.6,1.4,3,0.6,3.2,2.8
		c-3,0.3-5.6-0.8-8.2-1.7C119.1,135.2,118.8,134.8,118.5,134.5z"/>
	<path class="st147" d="M136.5,130.5c-4.3,0.5-8.7-1.1-13-0.1c-1.7-1.5-3.7-0.8-5.6-0.9c-1.6,0-2-0.6-1.4-2c0.3-0.3,0.7-0.5,1.2-0.6
		c0.9-0.1,1.8,0.1,2.6,0.2c1.5,0.2,3-0.2,4.5-0.5c3.9,0.4,8-1.9,11.7,0.9c2.4,3.1,5.8,0.9,8.7,1.4c1.7,0.3,3.1,0.3,4.3,1.6
		C145.1,130.5,140.8,130.5,136.5,130.5z"/>
	<path class="st148" d="M162.6,62.8c-0.4,3.5-0.4,7,0.1,10.6c-0.2,0.1-0.4,0.3-0.5,0.4c-1.2-0.4-1.8,0.2-2.3,1.2
		c-2,4.7-2.4,9.6-1.1,14.5c0.5,1.8,1.7,2.9,3.3,3.4c4.7,1.3,9.2,3.6,14.3,3.4c1.2,1.2,4,1.4,3.2,3.8c-0.7,2.5-3.2,2.8-5.4,2.5
		c-6-1-12.3-0.3-17.8-3.6c-1.4-1.1-2.5-2.6-4-3.6c-4.6-3.1-5.9-6.5-3.5-11.3c2.1-4.2,3.3-9.1,7.4-12.3c0.7-3.9,3.9-6.7,4.5-10.7
		c0.3-0.4,0.7-0.7,1.2-0.7C163.2,60.9,163,61.8,162.6,62.8z"/>
	<path class="st149" d="M166.5,51.6c-0.6,1.3-1.3,2.7-1.9,4c-1.6,1.2-1.4,3.7-3.1,4.9l0,0c-2,1.9-2.1,4.7-3.5,6.9
		c-0.3,0.5-0.4,1.2-0.8,1.8c-1.3,1.6-1.4,3-0.5,4.1c-1.8,1.1-3.9,1.2-6,1.3c-2.9-1.2-6.4,0.2-9.2-1.7c-2.5-6-2.5-6.1,3.2-8.7
		c2.3-1,0-2.2,0.4-3.2c0.2-0.5,0.5-0.8,0.9-1c0.4-0.2,0.9-0.3,1.4-0.3c5.1-1.4,8.8-4.6,11.8-8.9C163.6,49.3,164.4,49.4,166.5,51.6z"
		/>
	<path class="st150" d="M166.5,51.6c-2.3-0.1-4.7-1.4-7-0.1c-2.3-0.1-1.6-1.6-0.8-2.4c3.1-3.1-1.4-1-1.3-1.9c-1.5-0.8-3-1.1-4.7-0.2
		c-1.2,0.7-2.5,0.8-3.9,0.5c-2.4-0.6-4.7-1.9-4.4-4.5c0.3-2.8,2.9-2.6,5.1-2.5c1.3,0.1,2.6,0.6,4.2,0.6c-0.8-0.9-1.8-1.4-1.8-2.5
		c0-0.5,0.2-0.9,0.5-1.3c1.1-0.8,2.6-0.2,3.8-0.9c0.2-0.3,0.2-0.6-0.1-0.9c-0.8-1-3-1-2.5-2.7c0.5-1.7,2.4-1.5,3.9-1.4
		c1.9,0.1,3.6,0.6,4.9,2.1c4.3-0.2,6.6,1.2,4.9,6c-1,0.3-3.2,0.2-2.9,0.6c1.1,1.6,0.4,4.2,2.5,5c1.2,0.4,2.6,0.3,3.8,0.5
		C169.5,47.6,168,49.6,166.5,51.6z"/>
	<path class="st151" d="M156.5,97.5c3.6,3,8.2,1.9,12.3,2.9c1.6,0.4,3.3,0.2,4.9,0.7c1.9,0.5,4.2,0.6,4.9-1c0.9-2.1-1.9-2.5-3.1-3.5
		c-3.1,0.2-4.3-2-5.3-4.4c0-0.8,0.5-1.2,1.3-1.4c5.2,5,11.1,8.9,18.1,10.8c-0.1,2.5-2.4,2-3.8,2.8c-0.7,0.2-1.4,0.4-2.2,0.5
		c-1.9,0.2-3.7,0.8-5.7,1c-8.5,1.1-16.5-1.5-24.6-3.3c-0.8-0.2-1.2-1.1-1.3-2C152.6,98.1,154.3,97.5,156.5,97.5z"/>
	<path class="st152" d="M174,90.5c-2.6-4-6.4-7.3-7.6-12.2c-1.1-5.2-1.6-10.4-0.9-15.7c0-0.8,0.3-1.5,0.8-2.2c1.7-0.4,2.2,0.8,2.8,2
		c0.6,3.6,0.4,7.2,1.2,10.8c0.6,4,2.4,7.4,5,10.4c3.8,3.8,7.8,7.2,12.5,9.9c0.5,1.4,0,2.5-1.2,3.3c-2.2,0.8-3.8-0.6-5.5-1.6
		C178.5,94.1,176.7,91.6,174,90.5z"/>
	<path class="st153" d="M194.5,102.4c2.3,0,4.7,0,7,0c1.7,3-0.4,4.9-2.5,5.8c-2.6,1.1-4.8,2.8-7.5,3.6c-0.7-0.1-1.6-0.8-1.3-1.1
		c2.5-2.2-0.8-3.6-0.6-5.4C189.9,102.1,192.6,102.9,194.5,102.4z"/>
	<path class="st154" d="M191.5,111.5c1.2-2.4,3.3-3.5,5.8-3.9c2.9-0.5,4.2-2.3,4.1-5.1c1-0.2,2.1-0.5,3.1-0.7
		c-1,1.9-2.1,3.9-3.1,5.8c0,0,0.1,0,0.1,0c-0.9,2-3.5,2.7-4,5.1l0,0c-1.4,0.9-2.9,1.7-4.7,1.4C191.8,113.4,191.5,112.5,191.5,111.5z
		"/>
	<path class="st148" d="M171.4,90.7c-0.3,0.3-0.7,0.5-1,0.8c-6.2-1.7-10.6-11.4-8.1-17.9c0.1-0.1,0.3-0.2,0.4-0.3
		C164.4,79.7,167.2,85.6,171.4,90.7z"/>
	<path class="st155" d="M181.5,94.3c1.5,1.1,2.9,2.5,4.9,2.4c4.8,0.1,9.6-0.6,14.1,1.8c0.4,0.9,1.3,0.9,2.1,1.2
		c-7.6,2.1-14.4-0.1-21.1-3.5C180.9,95.6,180.9,94.9,181.5,94.3z"/>
	<path class="st156" d="M166.5,60.6c0,0.6,0,1.2-0.1,1.8c-1.8,0-1.6-0.9-1-2c0.6-5.6,3.6-9.9,7.1-14c0.4,0.4,0.7,0.8,1.1,1.2
		c0.2,0.4,0.3,0.8,0.1,1.3c-1.3,2.8-3.2,5.3-4.5,8.1C168.6,58.3,168.1,59.9,166.5,60.6z"/>
	<path class="st157" d="M165.5,60.4c0.3,0.7,0.7,1.4,1,2c-1.2,5.3,0.2,10.6-0.1,15.9C163.8,72.5,163.5,66.5,165.5,60.4z"/>
	<path class="st158" d="M194.5,102.4c-0.7,1.8-4,0.3-4.1,3.1c-2.4,1.3-4.3,1.2-4.9-2c1.3-0.6,2.6-1.3,4-1.9
		C191.1,101.8,192.8,102.1,194.5,102.4z"/>
	<path class="st159" d="M181.5,94.3c0,0.6,0,1.3,0,1.9c-3-1.3-5.4-3.3-7.6-5.7C177.1,90.5,178.6,93.8,181.5,94.3z"/>
	<path class="st160" d="M161.5,60.5c0.6-1.9,0.6-4.2,3.1-4.9c-0.7,2.4-1.3,4.8-2,7.1C162.4,61.9,162.3,61,161.5,60.5z"/>
	<path class="st161" d="M186.3,126.3c-0.2,0-0.5,0.1-0.7,0.1c-1.7-2.1-2.1-4.1,0.6-5.8c1-0.7,1.5-1.7,2.2-2.6c1.5-1.4,3-2.7,5.3-1.7
		c0.4,0.4,0.4,0.9,0,1.3c-1.1,1.3-2.1,2.6-3.2,3.9C188.9,123,186.7,123.9,186.3,126.3z"/>
	<path class="st162" d="M193.5,117.5c0-0.4-0.1-0.8-0.1-1.2c-1.2-0.6-2-1.4-0.8-2.7c1.5-1,3.1-1.4,4.9-1.1
		C196.8,114.7,195.1,116,193.5,117.5z"/>
	<path class="st85" d="M197.5,112.5c-2-4.4,3-3.1,4-5.1C201.4,110.1,199.2,111.1,197.5,112.5z"/>
	<path class="st163" d="M192.6,113.6c0.3,0.9,0.5,1.8,0.8,2.7c-1.6,0.7-3.2,1.5-4.9,2.2c-1.7,2.3-5.3,3.2-5.1,6.9
		c-0.3,0.1-0.6,0.1-0.9,0.1c-2.2-0.1-4.2-1.1-6.1-2.1c-1.7-5.1,3.5-5.3,5.6-7.6c0.9-1,2.8-1.1,3.9-2c0.8-0.6,1.8-2.1,1.6-2.8
		c-0.4-1.2-2-0.5-3.1-0.7c1.1-2.5-1.7-4.4-0.9-6.9c0.7,0,1.3,0,2-0.1c1.3,1.6,3,2,4.9,2c2.4,1.6-0.5,4.2,1.1,6
		C191.9,112.2,192.2,112.9,192.6,113.6z"/>
	<path class="st164" d="M183.5,125.5c-2.1-5.1,2.5-5.2,5.1-6.9c0.4,0.9,0.9,2.3-0.3,2.4c-3.7,0.6-3,3-2.7,5.4c0,0.4-0.1,0.8-0.1,1.2
		C184.8,126.9,184.1,126.2,183.5,125.5z"/>
	<path class="st165" d="M200.5,98.5c-4.7-0.3-9.7,1-14.1-1.8c0.4-1.1,0.7-2.1,1.1-3.2c-1.9-1.6-5.5-1.3-5.1-5.2
		c0.6-0.5,1.3-0.7,2-0.7c3.4,0,5.5,4.3,9.3,3c2.1-3,4-2.6,5.7,0.4c1.4,2,2.1,4.4,4.4,5.6c0.4,0.3,0.6,0.6,0.8,1.1
		C203.5,99,201.9,98.2,200.5,98.5z"/>
	<path class="st165" d="M219.5,88.6c-3.6,5.2-9,7.5-14.9,9.1c-0.1-0.1-0.3-0.3-0.4-0.4c-0.1-0.5,0-0.9,0.3-1.3
		c2.7-2.4,6.8-2.6,9.2-5.6c1-1.4,1.8-2.9,3.8-2.9C218.3,87.6,218.9,88,219.5,88.6L219.5,88.6z"/>
	<path class="st166" d="M53.5,96.5c-0.7-0.4-1.4-0.8-2.9-1.7c5.3-0.5,9.4,2.8,13.9,1.4c-0.1-1.3-1.3-1.3-2.1-1.7
		c-1-0.4-1.9-0.7-1.5-2c0.3-1,1.3-0.9,2-1c2.9-0.6,6.4,1.5,8.6-2c1.9-2.7,4.5-1.3,6.7-0.7c4.2,1.1,8.6,1.3,12.9,2.1
		c5.1,2.6,10.9,1.9,16.3,3.1c1.6,0.4,3.3,0,4.8,0.9c0.4,0.3,0.7,0.7,0.8,1.2c0,0.5,0,1-0.2,1.4c-0.4,0.3-0.8,0.4-1.3,0.4
		c0,0-0.3,0-0.1,0.1c0.9,0.2,2.2-0.3,2,1.2c-0.1,1.1-1.4,1.2-2.3,1.5c-3.1,0.9-6.5,0.7-9.1,3c-0.4,0.1-0.9,0.2-1.3,0
		c-0.6-0.8-0.9-1.7-2.5-1.6c-2.9,0.1-2.9-1.9-2.2-4.1c-2.8-2.1-6.3-0.8-9.2-2c-0.1,0,0.3,1.1-0.1,1.6c-0.9,0.9-2,1.2-3.1,1.2
		c-4.5-0.4-9,0.8-13.5,0.3C64.4,98.7,58.6,99.8,53.5,96.5z"/>
	<path class="st167" d="M58.5,84.5c-0.7,0-1.3,0-2,0c-1.2-0.7-2.9,1.2-3.9-0.6c-0.7-1.3-0.1-2.1,1-2.8c2.8-2.9,6.2-3.4,10-2.9
		c4.6,0.6,9.4,0.6,13.7,2.4c4.5,1.8,8.7,1.7,13-0.2c0.8-0.3,1.6-0.4,2.4-0.1c1.8,1.5,4.6,2.9,3.8,5.3c-1,2.7-4.4,2.1-6.6,1.7
		c-2.6-0.5-4.4,1.2-6.7,1.4c-5.7-0.2-11.3-1.2-16.9-2.2l0,0C63.3,87.8,61.7,82.8,58.5,84.5z"/>
	<path class="st168" d="M78.4,109.5c-6.5-2.2-14.1,1.1-19.9-4c-0.9-1.6-3.1-0.4-4-1.9c2.7,0,5.3-0.1,8-0.1c3.6-2.3,7.4-0.1,11.1-0.4
		c5.5-0.7,11-0.6,16.5,0.7c3.1,3.9-1.4,4.3-2.8,6.2C84.2,111.8,81.5,108.4,78.4,109.5z"/>
	<path class="st169" d="M73.5,104.5c-3.7-0.3-7.4-0.7-11.1-1c-0.4-3.5-3.9-3.2-5.9-4.7c-1-0.7-2.4-0.9-3-2.2c4,1.1,8.1,1.4,12.3,1.1
		c1.6-0.1,3.3-0.6,4.7,0.9c0.9,1.3,2.4,0,3.4,0.8C75.7,101.2,74.9,102.8,73.5,104.5z"/>
	<path class="st170" d="M66.5,86.5c4.2,0.1,8.4,0.2,12.6,0.4c1.5,0.1,2.9,0.4,4.4,0.6c2.4,0.7,4.8-0.4,7.2,0.2
		c1.4,0.3,2.9,0.6,2.8,2.2c0,1.8-1.8,1.5-3.1,1.7c-4,1.3-7.6-0.9-11.3-1.3c-2.5-0.3-5-1.4-7.6-0.7C70,88.2,68.6,86.7,66.5,86.5z"/>
	<path class="st171" d="M53.5,81.5c-2,4,2.8,1.2,3,3c-0.8,0.4-1,1.1-1,1.9c-2.2,0-4.7,0.9-5.9-2c-1.6-1.3-4.2-1.5-5.1-3.9
		c1.3-0.3,2.7-0.7,4-1c1.1,1.4,2.6,0.8,4,1C52.8,80.9,53.4,80.9,53.5,81.5z"/>
	<path class="st172" d="M49.5,84.4c2,0.7,4,1.3,5.9,2c-4.5,2.4-7.4,2.3-8-0.5C47,83.7,48.7,84.8,49.5,84.4z"/>
	<path class="st171" d="M58.5,84.5c0.5-2.7,1.9-2.1,3.5-1c1.5,1,3,2,4.5,2.9C63,89.1,61.1,85.3,58.5,84.5z"/>
	<path class="st173" d="M46.5,103.5c1-4.1,1.3-4.3,5-3c0.3,0.7,0.7,1.3,1,2C50.7,103.7,48.6,103.5,46.5,103.5z"/>
	<path class="st92" d="M53.5,81.5c-0.3-0.3-0.7-0.7-1-1c0.5-0.2,1.7-0.7,0.9-0.9c-4.1-0.9-6.7-5.1-11.3-4.9c-1.7,0.1-4,0-5.3-2.9
		c8.9-0.7,16.8,3.3,25.1,4c-2.5-2.2-6.5-1-8.4-4.3c1.9-1.9,4.3-1.3,6.5-1.4c11.4-0.4,22.6,3.4,34.1,2.3c1.4,0.4,2.9,0.7,4.1,1.5
		c1,0.7,1.6,1.7,1.4,2.9c-0.2,1.1-1.2,1.5-2.2,1.7c-1.8,0.3-3.5,0.8-4.9,2c-4.5,2.7-8.9,4-14.3,1.6c-5.4-2.4-11.5-2.2-17.4-3
		C57.9,78.8,56.1,81.1,53.5,81.5z"/>
	<path class="st174" d="M60.7,71.3c-2.4,0.1-4.8,0.1-7.2,0.2c-3.4-2.3-7.6-0.2-11.2-1.9c0.8-1.2-1.7-0.8-0.9-2
		c0.4-0.1,0.7-0.2,1.1-0.3c3.2-1.6,6.6-1.5,10-1.6c0.5,0.1,1,0.2,1.4,0.5c1.4,1,2.9,1.7,4.7,1.9c2.1,0.4,4.7-0.6,6.1,2
		C63.8,71.9,61.8,70.3,60.7,71.3z"/>
	<path class="st175" d="M41.4,67.7c0.8,0.5,1.5,0.9,2.3,1.4c-0.4,0.2-0.9,0.4-1.3,0.6c-3.9,0.6-8-1.4-11.8,0.8c0-0.7,0-1.4-0.1-2.1
		C33.9,64.8,37.8,68.3,41.4,67.7z"/>
	<path class="st176" d="M53.5,67.5c-0.1-0.3-0.1-0.6-0.2-0.9c-0.2-1-1.4-1.5-1.7-2.4c-0.6-1.8-0.2-2.6,1.8-1.7
		c1.7,0.2,3.1-0.5,4.2-1.7c1.5-1.7,3.1-1.2,4.7-0.3c5.7,0.5,6.4-6.2,11-7.6c1.6-0.5-1-2.3-1.3-3.7c1.3-1.2,2.1,1.4,3.4,0.5
		c6.3-4.7,13.5-2.1,20.2-1.6c1.9,0.2,3.2,0.9,4.7-0.6c1.9,0.5,3.9,1,5.7,1.8c2.2,0.9,3.5,2.7,2.9,5.2c-0.5,2.3-2.7,2.3-4.5,2.2
		c-2.7-0.2-5.3,0.1-8-0.5c-1.3-0.3-2.6-0.6-3.6,0.8c-0.3,0.4-0.7,0.8-1.2,0.9c-1.9,0.3-3.1-0.9-4.3-2.1c-1.9-1.9-1.4,1.2-2.6,1.4
		c-2,0.3-3-1.2-4.8-2c-0.3,3-0.4,5.9-4.6,3.6c-1.6-0.8-2.8,1.2-4,2.8c3.2-2.2,7-1.2,10.3-2.2c0.9-0.3,2,0.5,2.9-0.2
		c1.3-1,2.6-1.9,3.9-0.2c1.1,1.4,0.2,2.8-0.8,4c-0.5,0.4-1.1,0.7-1.8,0.8c-6.4,0.8-12.5,2.3-17.1,7.4c-1.4-0.3-3,0.9-4.2-0.7
		c-2.2-1.6-4.7-0.5-7.1-0.9c-1.1,0.1,2.1-2.6-1-1.4C55.8,68.3,54.4,68.3,53.5,67.5z"/>
	<path class="st177" d="M82.5,25.6c4.6,1.1,9.5,0.4,13.8,2.4c2.9,1.3,3.7-1,5.1-2.4c3,2.2,6.4-0.5,9.5,0.7c1,0.9,1.9,2,3.3,2
		c6.6-0.2,8.2,5.5,11.2,9.5c0.5,0.6-0.3,1.2-0.8,1.5c-2,0.8-4.2,0.7-6.3,1.5c-1.1,0.4-2.3,0.6-3.2-0.5c-3.9-5-8.3-3.9-13-1.3
		c-3.4,1.8-7.1,0.7-10.7,0.5c-1.2-0.1-1.9-0.4-1,1.1c-3.3,0.1-6.5,0.1-9.8,0.8c-2.9,0.6-6.4,1.4-7.2-3.6c1.8-0.4,3.8-1,5.9-1.2
		c1.3-0.2,2.6-0.8,2.4-2c-0.3-2,0-2.8,1.8-4C85.9,28.9,83.3,27.2,82.5,25.6z"/>
	<path class="st178" d="M87.5,62.5c-0.3-1.2,1.7-2.8,0.1-3.6c-2.1-1.1-1,1.4-1.7,2c-1.1,0.9-2.1,0-3.2,0c-4.2-0.1-8.9-1.1-11.6,4
		c-2.6-4.2,0.6-5.8,3-7.8c2.6-2.2,3.2-0.1,3.7,1.9c1.7-1,0.8-2,0.6-2.9c-1-4,2.9-3,3.4-2.4c4,5.4,3.7,0.2,4.8-1.8
		c0.2-0.4,0.8-0.5,1.1-0.7c2,1-1.2,3.8,1.7,4.4c0.9,0.2,2.8,3.8,2.5-0.7c-0.1-1.7,1.3-1,2.1-0.7c3.3,1.3,6.8,0.6,10.2,1.1
		c1.4,0.2,3.8,1,3.9-1.6c0.1-2.2-1.5-4.2-3.7-3.9c-2.5,0.4-3.3-0.7-4-2.5c0.7-1,1.4-2,2-3c4.5-4,8.2-0.7,12.1,1.2
		c-2.7,2.8-4.8,5.7-1.3,9.4c0.5,4.5-2.9,3.6-5.2,4.1c1.5,0.7,4.7,0.3,4.2,3.3c-0.4,2.4-2.9,1.3-4.6,1.1c-1.1-0.3-2.3-0.3-3.4,0
		c-5.3,1.5-10.7,2.8-16.2,1.1C87,64.2,86.7,63.5,87.5,62.5z"/>
	<path class="st179" d="M114.5,46.5c-4-0.8-7.6-4-12-2c-3.8-1.9-7.5-4.2-12-4c-0.6-0.5-1.3-1-2.6-2c3.5,0,6.4,0.2,9.2-0.1
		c1.9-0.2,4.1,1.1,5.5-2.3c1-2.5,4.9,0.7,7.7-0.6c2.3-1.1,4.8,0.6,5.4,3.4c0.4,1.7,1.2,1.3,2,0.6c2-1.7,4.4-0.9,6.7-1.1
		c1.2,0.5,2.3,1,2.6,2.4c0.3,1.6-0.2,3-1.1,4.3C122.3,47,118.6,48.2,114.5,46.5z"/>
	<path class="st95" d="M51.2,33.9c-2.4,1-3.9,0.3-5.5-0.1c-1.3-0.3-2.8-0.3-4.2-0.8C44.6,32,47.5,32.2,51.2,33.9z"/>
	<path class="st180" d="M27.5,6.5c5,0.8,10.1-1.1,15,0.9c0.4,0.7,0.8,1.4,1.5,2.5c-3.3,0.2-6.4,0.4-9.5,0.6c-2-0.6-3.9-1.3-5.9-1.9
		C27.8,8.1,27.5,7.4,27.5,6.5z"/>
	<path class="st8" d="M26.5,24.5c0,0.3,0,0.6,0,1c-2.4-0.4-5.3,2.7-6.9,0.1c-1.2-2.1,1.5-2.1,3-1.8C24,23.9,25.2,24.2,26.5,24.5z"/>
	<path class="st181" d="M53.5,62.5c-1.3,0.1-1.9,0.6-0.6,1.6c1,0.8,2,1.3,0.5,2.5c-3.6,1.2-7.2,1.1-10.9,0.7
		c3.1-2.6,5.1-6.6,9.7-7.3C55.7,59.5,53.8,61.3,53.5,62.5z"/>
	<path class="st182" d="M152.5,100.5c4.9,1.3,9.7,2.9,14.8,3.7c3.4,0.5,6.8,0.8,10.2,0.3c1.7,2.3,1.4,4.4-1,6
		c-0.8,1.1-1.9,0.9-3,0.9c-7.9,0.3-15.7-0.5-23.3-2.7c-1.2-0.3-2.2-0.8-3.1-1.7c-1.2-1.9-5-3.3-1.1-6.1c1.4-0.8,2.8-1.5,4.4-1.9
		C151.4,99,152.1,99.6,152.5,100.5z"/>
	<path class="st183" d="M150.5,107.5c4.3,0.4,8.6,0.9,12.2,3.5c0.4,0.3,1.4,0.4,1.8,0.2c3.2-1.9,3.2-1.9,9,0.3
		c-0.3,0.7-0.7,1.4-1,2.1c-4.4-0.7-8.1,1.4-12,3c-3.5,0.6-6.8-0.7-10.1-1.1c-2.5-0.3-4.2-2-2.9-4.9
		C148.4,109.4,149.9,108.9,150.5,107.5z"/>
	<path class="st158" d="M176.5,110.5c1.1-1.9,1-4,1-6c2-0.3,4-0.6,6-1c0.1,0.5,0.2,1.2,0.4,1.3c3.5,1.6,3.9,3.4,0.5,5.5
		C181.8,110.5,179.1,110.5,176.5,110.5z"/>
	<path class="st184" d="M163.5,128.5c-3.5-4.3,0.2-4.9,3-6c4.3-0.9,4.7-0.6,4,3c-0.6,0.7,1.9,3.8-1.6,2.2
		C166.8,126.7,165.3,128,163.5,128.5z"/>
	<path class="st185" d="M170.5,125.5c0.9-4-3.2-1.3-4-3c2-2,4-4,6-6c2.8,2.8,0.3,5.9,0.4,8.8C173,126.4,171.4,125.9,170.5,125.5z"/>
	<path class="st186" d="M110.5,26.6c-3.1,0.4-6.6,4-9.1-1.1c0.8-1,1.6-2.1,2.6-3.5c-3.7-0.2-7.2-0.4-10.6-0.6
		c-1.4-0.1-3.2-0.2-3-1.7c0.2-2.3,2.3-1,3.5-0.9c2.9,0.3,5.8,0.4,8.6-0.3c3,0.3,6.7-1.3,8.8,1.8c3.6,5.3,7.7,3.6,12.1,1.5
		c0.3-0.1,0.6-0.2,1-0.2c1.9,0.2,4.2-1.2,5.1,2.1c1,3.5-2.9,1.8-3.2,4.2c0.9,1,3.9-1.3,4.3,1.5c-1,1.3-2.6,1.7-4,1.3
		C121.1,29.4,115.6,28.8,110.5,26.6z"/>
	<path class="st105" d="M90.5,9.5c1.1-1,0.2-3.6,2.6-3.6c1.5,0,3.3-0.5,4,1.7c0.6,1.7,0,2.9-1.2,3.9c-1.6,1.3-3,1.1-4.2-0.5
		C91.4,10.4,90.9,10,90.5,9.5C90.5,9.5,90.5,9.5,90.5,9.5z"/>
	<path class="st187" d="M162.5,33.5c-2.6,0.2-5.1-1.7-8-0.7c1.2,1.6,5.3,0.4,4.3,3.7c-1.2,3.8-4.1,1.1-6.3,1c-1.8,1.7-4,1.3-6.1,0.8
		c-1.9-0.5-3.8-1-5.8-1.4c-5.9-1-6.3-1.8-4.2-7.5c0-0.7,0-1.3,0-2c2.3-0.5,3,1.7,4.2,2.9c1.1,1.1,2.3,1.8,3.8,2.1
		c1.2,0,2.3,0.1,3.5,0.1c0.9,0,1.7,1.1,3.3,0.1c-3.5-1.5-4.7-3.8-4.9-7.6c-0.2-3.9-3.1-4.4-5.8-1.7c-1.7,1.7-3.5,1.3-6,0.5
		c1.9-1.6,4-2.8,3.9-5.4c0.3-0.3,0.7-0.6,1-0.9c1.4-0.5,2.7-1,4.1,0c0.6,0,1.3,0,1.9,0c1.3,0.5,2.7,0.9,4,0c2.4,0.9,5.4,0.5,4.3,5.4
		c-0.5,2.4,4.4,3.6,7.3,4.6c0.7,0.3,1.6,0,2.5,0c0.7,0.7,1.3,1.3,2,2C164.5,30.8,163.5,32.1,162.5,33.5z"/>
	<path class="st188" d="M136.5,29.5c-0.3,4.2,0.6,6.6,5.9,6.4c3.2-0.1,6.6,2,10.1,1.6c0,0.3,0,0.7,0,1c-0.9,2.2-2.9,1.8-4.6,2
		c-5.1,0.6-10.3,0.2-15.3,1.3c-2.2,0.5-4.3,0.2-6-1.3c-0.7-0.7-1.3-1.3-2-2c-1.4-1.9-4.7-2.4-3.5-6.2c0.5-1.6-2-1.4-3.3-2
		c-2.5-1-6.3,0.3-7.2-3.8c4.4-0.4,8.6,0.7,12.7,2c2.4,0.7,4.8,1,7.3,0.8C132.5,29.4,134.5,29.5,136.5,29.5z"/>
	<path class="st188" d="M144.5,32.5c-1.3,0.3-2.5,2.8-3.7-0.5c-0.6-1.7-2.1-3.6-4.3-4.5c-1,0-1.9,0-3.4,0
		C136.5,25.3,142,27.9,144.5,32.5z"/>
	<path class="st67" d="M55.5,117.5c-1.7,0-3.3,0-5-0.1c-2-2.9-5.3-4.3-8.1-6.5c3-1.4,4,1.9,6.1,2.6c2.2,0.9,4.2,0.8,6-1
		c1.9-0.8,3.6-2.5,6-1.9c3.5,2.1,6.9,4.8,11.6,1.6c-2,3.4-6.4,5-2.2,9.2c1,0.9-0.9,2.2-2.4,1.9c-1.4-0.3-2.3-1.9-4-1.7
		c-0.4-1.8,3.6-2.9,0.7-5.4c-2.5-2.1-4.4-0.6-6.6,0.3C56.9,116.7,56.2,117.1,55.5,117.5z"/>
	<path class="st189" d="M117.5,127.4c-0.3,0-0.7,0.1-1,0.1c-1.5-1-3-0.8-4.7-0.6c-2.4,0.3-3.9-0.4-2-2.9c-1.8-1.2-4.5,2.6-5.3-1.4
		c0-1,0-2,0-3c0-0.3,0-0.7,0-1c-0.2-2.3-0.1-4.7,3-3.9c2.9,0.8,2.5-1.7,3.5-2.8c1.7-0.8,3.4-0.8,5.1-0.2c1.4,0.6,2.1,2,3.2,2.9
		c5.1,2.9,10.5,2.6,16,1.3c0.7-0.2,1.4-0.3,2.1-0.2c0.5,0.1,0.9,0.4,1.2,0.8c1.1,3.2-0.9,3.1-3,3c-2.1,2.7-4.8,3.3-7.9,2.3
		c-2.6-0.8-4.8-0.4-6.5,1.9C119.9,125,118.1,125.5,117.5,127.4z"/>
	<path class="st190" d="M110.5,112.5c0.8,1.1,2.4,1.9,1,3.7c-1.2,1.6-1.9,0.4-2.8-0.3c-3.3-2.4-2.8,1.9-4.4,2.5
		c-1.2-2.6-4.7-1.9-6.3-4.3c-0.8-1.2-0.9,4.3-3.2,1.6c-1.6-1.9-4-1.4-5.5-2.4c-3.4-2.3-8-0.6-11-3.8c1.4-0.7,2.5-4.2,4.4-0.2
		c0.3,0.6,3,0.1,4.6,0.1c4.4-1.1,8.7,0.9,13.2,0.4c3.3-0.4,6.4-0.9,9.5-2c0.5,0,1,0.2,1.4,0.5C112.4,110,111.6,111.2,110.5,112.5z"
		/>
	<path class="st108" d="M60.5,110.5c-1.5,2.2-3.7,2.1-6,1.9c1.3-1.5,1.8-4,4.6-4C60.7,108.5,61.1,109,60.5,110.5z"/>
	<path class="st105" d="M149.5,17.5c0.3,0.9,0.8,1.9-0.9,2c-1.5,0-3,0-3.1-2c1-0.7,2-1.3,3-2C149.3,15.9,149.5,16.7,149.5,17.5z"/>
	<path class="st105" d="M143.5,17.5c-1.4,0.1-2.7,1-4.1,0c0.9-1.1,1.9-2.3,3.2-3.8C143,15.3,143.3,16.4,143.5,17.5z"/>
	<path class="st191" d="M215.5,48.5c3.4,3.9,7.7,7.5,6,13.6c1.5,2.2,0.3,5.1,1.9,7.3c-0.3,0.6-0.6,1.2-0.9,1.8
		c0.6,0.9,0.6,1.8-0.3,2.5c-2.1,0.7-2.3-1.3-3.2-2.3c-0.7,0.7-0.7,1.9-1.6,2.5c-0.7,0.3-1.3,0.4-2.1,0.2c-2.2-1.4-0.9-3.5-1.2-5.4
		c0-0.9,0.2-1.9,0.3-2.8c0.5-3.1-0.5-5.6-2.9-7.6c-0.3-0.3-0.7-0.6-1-0.9c-1.6-2.4-4.4-2.8-6.7-4c-1.6-0.6-3.2-0.9-4.8-0.5
		c-1.3,0.7-0.9,3.6-3.3,2.8c-1.9-0.6-2.4-2.3-2.5-3.9c-0.1-1.9-1.2-3.9-0.3-5.8c0.2-0.2,0.3-0.3,0.5-0.5c0.8,0.2,1.7,0.3,2.3,0.7
		c1.3,0.9,3.1,0.3,4-1.1c2-3.2,2.8,0.1,3.9,0.9c1.4,1,2.1,4.2,4.3,0.6c0.8-1.3,2.7-1.1,4-0.1c0.8,0.6,2.7,1.7,0,2.7
		c-0.6,0.3,0,1.3,0.5,1.6C214.9,51.9,214.6,49.4,215.5,48.5z"/>
	<path class="st192" d="M185.5,43.4c0.9,0.2,1.6,1.3,2.6,0.5c2.4-1.9,2,0.4,2.4,1.6c-0.1,0.2-0.2,0.4-0.2,0.6
		c-2,0.9-2.8,2.9-4.1,4.6c3.1-4.1,5.4-1.8,7.6,0.7c-0.1,1.7-0.4,3.4-2.1,4.2c-2.7-0.6-5.5-3.3-8.1,0.6c-0.7,1-2-0.2-3-0.8
		c-1.4-1.2-3.2-2.1-2.7-4.4c0.9-2-2.8-2.8-1.2-5C179.8,46.2,181.8,42,185.5,43.4z"/>
	<path class="st193" d="M185.5,43.4c-3.2,0.6-5.4,3.9-9,3.2c-0.4,0.2-0.7,0.2-1-0.2c2.5-2.5,5.3-4.8,9-5.1
		C184.8,42,185.1,42.7,185.5,43.4z"/>
	<path class="st192" d="M190.5,45.5c1-0.6,2-2.8,3,0c0,0,0,0,0,0c-1.3,1.2,0.4,3.2-1.3,4.3C189.7,49.1,189.2,47.7,190.5,45.5
		L190.5,45.5z"/>
	<path class="st194" d="M221.4,73.5c0.9-0.5,1-1.3,1.1-2.2c1,0.4,1.9,0.8,2.9,1.2c-1.1,4.5-1.8,9.2-5,12.9c-0.8,1-1,2-1,3.1
		c-0.7-0.1-1.4-0.1-2.1-0.2C219,83.4,217.2,77.6,221.4,73.5z"/>
	<path class="st195" d="M223.4,69.4c-3.2-1.7-1.5-4.8-1.9-7.3C224.2,64.1,223.3,66.9,223.4,69.4z"/>
	<path class="st196" d="M175.4,46.5c0.3,0.1,0.7,0.1,1,0.2c0.4,1.5,3.2,1.7,2,3.9c-1.5,0.7-2.8,0.2-4.2-0.3
		c-0.6-0.4-1.2-0.9-0.8-1.8c0.1-0.3,0.2-0.6,0.2-0.9C174.2,47.2,174.8,46.8,175.4,46.5z"/>
	<path class="st197" d="M148.5,110.5c-1.6,3.5,1,3.8,3.3,4c3.1,0.2,6.1,0.4,8.8,2.1c0.4,1.2,1.5,2.2,1.2,3.6c-2,1-2.6-2.3-4.8-1.4
		c-4.3,1.9-8.7,3.8-12.2-1.7c-0.5-0.8-2.8-0.4-4.2-0.6c-0.2-2.2,1.1-2.6,3.8-2.2c-4.1-1.3-7.6,1.7-10.9-0.6c0.9-4.5,4-6.5,8.4-6.9
		c0.5-0.2,1-0.3,1.5-0.3C146.1,106.4,148.9,106.4,148.5,110.5z"/>
	<path class="st198" d="M133.5,113.5c3.6,0.4,7.3-2.7,10.9,0.6c-1.2,0.7-3.3,0.5-3.9,2.3c-0.7,0-1.3,0-2,0.1c-0.3,0-0.7,0-1,0
		c-1.6-1.5-3.4-0.3-3.9-0.4c-1.8-0.2-1.5-1.1-1.3-0.6c0.6,1.4,2.4-0.3,3.1,1.1c-2,3.3-5.4,1.2-7.9,1.5c-2.7,0.3-6.6,0.3-9-2.6
		c0.6-0.7,1.3-0.8,2.2-0.3c-1.3-1-3.1-1.4-4.2-2.7c-2,0-3.9,0-5.9,0c-0.2-1.5,0.3-2.7,1-3.9C119,109.2,127.2,107.4,133.5,113.5z"/>
	<path class="st198" d="M120.5,123.5c0.5-3.6,3.8-4.2,5.8-3.3c3.5,1.6,6.2,0.4,9.2-0.7c-0.1,3.4,2.1,3.2,4.4,2.7
		c1.2-0.3,2.3-0.8,3,0.5c0.8,1.4-0.1,2.7-0.7,3.7c-1.1,1.7-2.5,0.3-3.3-0.5c-3.3-3.2-1.3,1.6-2.5,1.6c-4,0.1-8,0.7-12,0
		c-0.5-1.5-1.4-2.7-3.3-2.5C120.6,124.7,120.2,124.3,120.5,123.5z"/>
	<path class="st143" d="M124.5,134.5c-1.4-0.1-3,0.4-4.6-0.8c1.8-1.7,3.7-1.3,5.6-0.8C125.1,133.4,124.8,133.9,124.5,134.5
		C124.5,134.5,124.5,134.5,124.5,134.5z"/>
	<path class="st189" d="M121.5,124.5c1.2-0.6,2.4-1.2,3.6-0.1c1.6,1.3-1.3,2-0.6,3.2c-1.5,1.5-3.3,0.8-5,0.9
		C119.1,126.6,120.4,125.6,121.5,124.5z"/>
	<path class="st199" d="M121.5,124.5c0.4,1.8-0.9,2.9-2,3.9c-0.6-0.4-1.3-0.7-1.9-1.1c-3.2-4.5,2.2-2.4,2.9-3.9
		C120.8,123.8,121.1,124.2,121.5,124.5z"/>
	<path class="st200" d="M162.3,73.6c0,7.2,2.5,13.2,8.1,17.9c1.3,2,3,3.7,5.1,5c-3.7,1.9-17.1-2.3-17.9-5.8
		c-1.6-6.9-1-13.5,3.1-19.8C161.3,72,161.8,72.8,162.3,73.6z"/>
	<path class="st201" d="M152.5,100.5c-0.7-0.3-1.3-0.7-2-1c-8.6-7-9.5-18.2-1.9-25.6c0.6-0.4,1.2-0.8,1.9-0.4c2-0.3,4.2,0.8,6-1
		c0.3-0.4,0.7-0.4,1,0c0.1,0.3,0.3,0.8,0.3,0.8c-5.1,3-6.4,8.6-8.4,13.5c-1.2,2.8,0.4,5.9,3.1,6.8c2.3,0.8,2.8,2.5,4.1,3.9
		C155.1,98.5,153.8,99.5,152.5,100.5z"/>
	<path class="st160" d="M157.5,72.5c-0.3,0-0.7,0-1,0c-1.7-0.4-3.5-0.8-5.3-1.2c0.2-0.6,0.3-1.1,0.5-1.2c4.7-1.4,4.9-1.4,6.7-7.3
		c0.6-1.9,1.4-2.4,3.1-2.4c0.4,2.7-0.4,5.1-2.1,7.2C158.3,69.1,157.2,70.5,157.5,72.5z"/>
	<path class="st202" d="M150.5,73.5c-0.3,0.3-0.7,0.6-1,0.9c-2.2,0.9-4.5,1.6-6.9,1.7c-2.7-0.8-6.5,1.6-8.1-2.6
		c0.2-0.3,0.5-0.3,0.8-0.2c0.1,0,0.1-0.4-0.3-0.2c-4.7,1.5-9.4,1-14.1,0.3c-6.1-0.9-12.2-0.1-18.2-0.4c-2.1-0.1-4.3,0.3-6.3-0.6
		c-2-2.4,0.3-2.8,1.7-2.9c2.6-0.1,4.4-1.1,5.7-3.2c1.7-1,3.4-0.1,5.2,0.4c-0.2-1.3-1.4-1.8-1.6-2.8c-0.1-0.5,0-0.9,0.3-1.3
		c1.4-0.4,2.8,1,4.3,0c-0.6-2.4-3.5-1.4-4.5-3c0.8-2.5,5.2-0.4,5.2-4c-0.1-3.2,1.2-4.7,4.5-3.8c2.5,0.7,5.4,0.2,7.5,2.4
		c0.7,2.9-1.7,2.1-2.9,2.6c0.8,0.1,1.8-0.3,2.6,0.5c0.7,0.6,0.7,1.9,2,1.7c-0.4-0.8-1.6-0.8-1.9-1.6c2.1-3.8,13-5.8,16-3
		c0.9,0.9,1.2,1.9,0.9,3.1c-0.2,0.9-0.9,1.8-1.7,1.5c-3.7-1.4-1.2,1.9-2.1,2.6c-4.7,1.3-9.8,1-14.4,3.9c1.3,1.5,3.3,1.2,4.8,1.8
		c2,0.9,2.2,2.1,0.8,3.4c4-0.3,8.5-1.6,12.8,0.9C144.1,73.8,147.8,71.2,150.5,73.5z"/>
	<path class="st203" d="M141.5,71.5c-5.3,0-10.5,0-16.3,0c1.2-1.5,3.5-0.6,3.7-3c-3.2-0.6-7.2,0-8.9-4.5c6-0.5,11.2-5,17.5-2.5
		c0.1,0.2,0.3,0.4,0.4,0.5c0.2,0.6-0.3,1.5,0.1,1.8c0.6,0.5,1-0.4,1.4-0.8c0.8-0.8,1-2,1.7-2.9c1.6-1.4,3.1-1.4,4.4,0.4
		c0.5,1.5,2.2,1.9,3.7,3.3C145.9,65.8,139.1,64.5,141.5,71.5z"/>
	<path class="st204" d="M147.5,60.5c-0.3,0-0.7,0-1,0c-0.5-0.5-1-0.8-1.7-1c-1.2-0.4-2.7-0.4-2.9-2.1c-0.2-2,1.2-2.7,2.7-3.3
		c-3.8-0.3-7.7,0.2-10.8-2.6c-0.4-0.3-0.8-0.5-1.2-0.8c-4.2-2-4.2-2-1-4.9c0.1-0.1-0.4-0.8-0.3-1.3c1.8-2,4.4-2.1,6.8-2.6
		c1.1-0.2,2.9,0,2.4,1.5c-1.4,4.2,1.5,3.3,3.6,3.6c1.8,0.2,3.6,0.4,5.4,0.9c4.3,3.7,4.5,5.4,0.7,9.3
		C149.1,58.2,149.2,60.1,147.5,60.5z"/>
	<path class="st203" d="M147.5,60.5c1.7-1.2-1.1-5.5,3.6-5.2c0.7,0,0.7-4.8-1.5-6.8c2.6-0.8,4.7-3.9,8-2c1.4-0.1,2.9-0.1,4.3-0.2
		c1.9,2.9-4.2,2.3-2.3,5.3c-1,5.5-7.1,5.6-9.8,9.4C149.6,61.2,148.3,60.7,147.5,60.5z"/>
	<path class="st205" d="M134.5,50.5c3.5,3.5,8.5,1.3,12.5,3c-0.2,1.3-1.5,0.9-2.2,1.4c-0.8,0.6-1.9,0.8-2,1.9
		c-0.1,1.7,1.4,1.5,2.4,1.8c1,0.3,1.2,1,1.3,1.8c-0.3,0-0.6,0.1-0.9,0.1c-1.4-0.1-2.7-1-4.1-0.1c-1.1,1.3-1.9,3.8-4,1c0,0,0,0,0,0
		c-0.8-1.4-1.5-2.9-2.3-4.3c0.3-0.2,0.5-0.5,0.7-0.5c1.6-0.6,2.5,2.6,4.2,0.8c0.3-0.3,0.3-1,0.2-1.4c-0.7-2.3-2.8-1.8-4.1-1.5
		c-3.9,0.7-8.7-1.5-11.7,3l0,0c-1.3-0.3-2.8,0.5-4.1-0.5c0.9-1.7,3.1-1.1,4-2.5c-0.5-2.4,1.4-2.5,2.9-2.8
		C129.7,51.1,132.1,50.7,134.5,50.5z"/>
	<path class="st206" d="M157.5,46.5c-2.9-0.4-4.9,2.8-8,2c-2.8,0.8-5.6-0.3-8.6,0c-3,0.3-3.2-3.2-0.7-6c-3.4,0.8-6.1,1.4-8.8,2
		c-2,0.8-4,1.8-6,0c0.3-1.3,0.6-2.7,1-4c8.6-1,17.4-0.3,26-2c0.8,2.2,2.7,1,5,1.1c-2.4,2.4-4.3,3.3-7,2.3c-1.7-0.6-3.6-1.1-5.1,0.4
		c-0.8,0.8,0.1,1.5,0.6,2.1c1.5,1.9,3.6,2.6,5.8,1.6C153.9,45.2,155.7,43.2,157.5,46.5z"/>
	<path class="st207" d="M169.4,73.6c-1.4-3.6-1.5-7.4-1.1-11.2c0-1.3,0.1-2.5,0.5-3.7c1-1.8,0.2-5.2,3.9-4.8
		c2.6,1.4,2.2,3.8,1.9,6.1c-1,1.5,0.3,2.9,0.4,4.3c-0.1,0.9-0.4,1.7-0.6,2.5c-1,2.2,0.9,5.4-2.3,7C171.2,73.2,170.2,74.1,169.4,73.6
		z"/>
	<path class="st208" d="M169.4,73.6c0.7-0.2,1.5-1.1,2.2,0.1c0.6,0.5,0.9,1.1,1,1.8c0.5,0.4-0.7,2,0.6,1.4c1.8-0.8,2.3,0.8,3.4,1.1
		c1.2,0.8,1.7-0.8,2.7-0.8c0.7,0.1,1.2,0.4,1.7,0.9c0.8,1.1,1.6,2.2,2.3,3.3c0.7,1.2,1.1,2.4,1.4,3.8c0.2,1.1,0.6,2.2,0.2,3.3
		c-0.8,0-1.6,0-2.4-0.1c-3.9-0.4-5.8-2.9-7.2-5.6c0.3-1.3-0.8-0.6-0.1-0.5c0.1,0,0.1,0.2,0.1,0.5c0,0.7-0.2,1.3-0.7,1.7
		C171.9,81.3,169.2,78.1,169.4,73.6z"/>
	<path class="st209" d="M174.5,84.5c0-1,0-1.9,0-2.9c2.1,3.1,5.1,4.9,8,6.8c0.8,2.6,3.9,2.8,5,5C181.5,92.9,178.5,87.9,174.5,84.5z"
		/>
	<path class="st157" d="M169.6,59.6c-0.4,1-0.8,1.9-1.3,2.9c-0.6-0.6-1.2-1.2-1.8-1.8c0.7-1.3,0.6-3.1,2-4.1
		C170.9,56.8,169.8,58.3,169.6,59.6z"/>
	<path class="st210" d="M169.6,59.6c-0.1-1.1,0.1-2.3-1-3.1c1-3.1,2.5-5.8,4.9-8c0.4,0.3,0.7,0.6,1.1,1c0.7,2.2-0.7,3.5-2,4.9
		C169.1,54.7,171.5,58.3,169.6,59.6z"/>
	<path class="st211" d="M183.5,85.1c-0.3-1.2-0.7-2.3-1-3.5c-0.7-0.9-0.6-1.7,0.4-2.4c3.9,0.8,8.2-0.3,11.6,2.4
		c1.1,0.8,2.2,1.5,3.4,2c0.8,0.4,1.6,0.9,2,1.8c0.3,0.6,0.4,1.3,0.4,2c-0.6,1.4,1,3.7-1.8,4.1c-1.3-3.6-2.7-0.5-4,0
		C189.7,91.2,185.9,89.4,183.5,85.1z"/>
	<path class="st212" d="M183.5,85.1c2.8,3.6,7.3,4.3,11,6.4c-4.4,2.8-6.5-1.8-9.6-3C184.1,87.5,183.4,86.5,183.5,85.1z"/>
	<path class="st213" d="M198.5,91.5c2-1-0.9-3,0.8-4.1c1,0,2.1-0.6,2.7,0.8c-0.4,3.1,1.6,5.6,2.4,8.3c0,0.2,0,0.5-0.1,0.7
		C200,97.7,200.1,93.7,198.5,91.5z"/>
	<path class="st214" d="M221.4,73.5c-2.1,4.8-0.9,10.4-4,14.8c-2.2-0.1-1.6,2.4-2.9,3.2c-3.3,0.5-7.2,1.8-5-4.2
		c2.6-3.5,3.8-7.4,4.4-11.7c0.2-0.9,0.9-1.5,1.6-2.1c0.6,0,1.2,0,1.8,0.1c0.9,1,0.9,1.9,0.4,2.6c0.7-2.2,0.3-4.9,0.6-7.6
		C221.9,68.6,219.4,72.5,221.4,73.5z"/>
	<path class="st194" d="M210.5,87.5c-0.7,1.2-1.4,2.8-0.1,3.5c2,1.1,0.5-1.6,1.4-1.8c1.8-0.4,0.3,3.1,2.6,2.2
		c-2.8,2.9-6.5,3.8-10.1,5.1c-3.3-2.3-4.4-5.3-2.9-9.1c0-0.2,0.1-0.5,0.1-0.7c1.4-1.9,2.3-4.2,5-4.8
		C209.2,82.9,210.2,84.9,210.5,87.5z"/>
	<path class="st215" d="M134.5,73.6c2.7,2.3,6.4-0.4,9,1.9c2.4,3.6,2,6.3-2.6,7.2c0.1,0.6,0.5,0.8,0.6,1.1c1.5,4.8,1.7,10,4.5,14.4
		c0.5,0.8-0.5,2.2-1.6,2.8c-2.9,1.1-4.1-1.7-6.1-2.8c-2.3-2.8-2.4-2.7-7.7-4.2c-3.3-0.9-6.5-2.7-10.1-2.3c-1.7,0.2-3.2,0-5-0.4
		c1.9,0.6,4.3,1.5,3.1,3.5c-1.2,2.1-3.9,2-6.1,0.6c-5.6,1.1-10.9-1.9-16.5-1.1c-2.2,0.3-3.6-2-5.5-2.9c0.8-0.6,2.3-1.2,2.2-1.6
		C92.4,88.2,91,89.2,90,89c-2.2-0.3-4.6-0.1-6.5-1.5c3.8-2.9,8.3-0.6,12.4-2.1c-0.5-2-3.3-2.6-3.4-5c0.1-1.2-1.2-3,1.6-3.1
		c1.5-0.1,4.2,1.3,4.5-1.1c0.3-2.3-3-1.2-4.1-2.7c1.1-1.5,2.7-1.1,4.1-1.1C110.5,72.5,122.5,73.4,134.5,73.6z"/>
	<path class="st216" d="M112.5,95.5c1.9-0.3,3.8-0.6,5.8-1c-1.1-2.8-4.3-1.8-6-4c6.5,0.4,12.9-1.4,18.7,2.4c0.6,0.4,1.7,0.5,2.4,0.3
		c3-1.1,2.9-1.1,3.9,2.1c0.2,0.8,0.9,1.4,1.3,2.1c-0.4,2.5-2.5,1.2-3.8,1.7c-4.5-1.1-8.7,0.6-12.9,1.7c-1.4-0.5-1.1-3-3.2-2.8
		c-2.1-0.4-4.4,0.2-6.1-1.6C112.5,96.2,112.5,95.8,112.5,95.5z"/>
	<path class="st217" d="M110.5,108.5c-7.5,4.9-15.3,3-23,1c-0.1-0.6-0.7-1.6,0-1.6c2.6,0.2,2.7-1.6,3-3.2c3.1-3.2,6.7-1.2,10.1-1.1
		c0.3,0,0.6,0,0.9-0.1c3.2-1.3,6.1-0.7,8.6,1.7C110.9,106.2,111.5,107.2,110.5,108.5z"/>
	<path class="st218" d="M109.5,105.5c-2.4-1.9-5.5-0.8-8.1-2.1c2.3-4.9,7.4-2.4,10.9-4.4c-0.4-1.3-2,0-2.7-1c0.8-1,2-0.3,3-0.6
		c2.4-1.3,4.7,0.8,7,0.1c3.4-0.9,1.4,1.9,2,2.9c1.9,1,4,2,2.9,4.8C119.5,108.7,114.5,105.9,109.5,105.5z"/>
	<path class="st219" d="M100.6,103.5c-3.1,2.5-6.8-0.4-10.1,1.1c-5.7-0.1-11.3-1.2-17-0.1c-0.4-1.6,1.2-3.3-0.1-4.9
		c2.6-1.8,5.5-0.9,7.8,0c3.7,1.5,6.7,1,9.6-1.2c2.3-1.8,4.4-1.8,6.6,0.1c1,1.6-1.7,0.7-1.3,1.8c0.4,1.1,1.5,1.4,2.4,1
		C101.9,99.8,100.4,102.3,100.6,103.5z"/>
	<path class="st220" d="M97.5,98.5c-3.1-0.5-5.4-0.2-7.7,2.7c-0.9,1.1-5.6,2-8,0.2c-2.7-2-5.5-1.6-8.3-1.8c-1.1,0-2.3,0.2-3.2-0.2
		c-1.7-0.7-0.2-0.7,0.3-1c3.3-1.4,7,0.8,10.3-1.7c1.1-0.8,1.7,1.2,2.7,1.7c1.3,0.4,2.5,0.7,3.1-1c-0.2-1.2-2.6-0.4-2.1-2.1
		c0.4-1,1.6-0.8,2.6-0.6c2.5,0.4,5.1,0.9,7.7,1.1C96.5,96,97.5,96.6,97.5,98.5z"/>
	<path class="st221" d="M119.5,97.5c-0.7,1.1-1.5,2.5-2.9,1c-1.2-1.2-2.7-0.9-4.1-1.1c0-0.3,0-0.6,0-0.9
		C114.8,96.8,117.4,95.6,119.5,97.5z"/>
	<path class="st222" d="M86.5,97.5c1.3,1.1,0.7,2-0.4,2.6c-1.6,0.8-2.4,0-2.6-1.6C84.2,97.4,85.4,97.5,86.5,97.5z"/>
	<path class="st223" d="M134.5,73.6c-6.9,1.8-14,0.6-20.9,0.6c-6.4,0.1-12.7-0.4-19.1-0.6C83,75.3,72,71.3,60.7,71.3
		c1.1-1.3,2.7-0.6,4-1c1.6,0,3.3,0,4.9,0c4.9-2.3,10.1-1,15.2-0.9c2.1,0,4.3,0.4,6.4,0.3c1.6,0,3.3,0.2,4.4,1.6
		c14.6-0.4,29.1,1.2,43.7,1.9C137.7,73.3,136.1,73.5,134.5,73.6z"/>
	<path class="st181" d="M53.5,67.5c2.8,0.7,4.8-1.5,7.4-2.6c0.3,3-2.4,3.1-3.4,4.6C56.3,68.7,54.5,68.8,53.5,67.5z"/>
	<path class="st224" d="M91.7,70.7c-7.4,1-14.8-0.8-22.2-0.4c2.4-4.6,5.5-7.5,11.4-6.7c1.8,0.3,4.2-1.4,6.6-1.1c0,0.8,0.2,1.5,1,2
		c1-0.7,2-0.2,2.7,0.4c1.3,1.2,4.2,0.1,4.3,2.4C95.6,69.4,92.7,69.3,91.7,70.7z"/>
	<path class="st225" d="M104.9,33.3c-4.8,1.2-9.1-1.5-13.8-0.9c-0.9,0.1-2.1-0.6-1.8-1.2c0.5-1.2,1.3-2.7,3.3-2.1
		C96.8,30.3,100.5,32.6,104.9,33.3z"/>
	<path class="st226" d="M125.5,44.5c2,0.7,4-1.6,6,0c1.9,1.5,1.9,1.5-2.5,3.4c2,0.9,4.3,0.8,5.5,2.6c-1.9,2.6-4.8,2-7.4,2.3
		c-1.4,0.1-2.1,0.7-2.7,1.7c-2.8-1.5-6-0.5-8.9-1.8c-1.9-0.8-2.1,1.7-3.1,2.8c-2.6-1.4-3.1-3.9-2.7-6.4c0.4-2.5,2.6-2.7,4.7-2.6
		C118.2,45.8,121.8,45.2,125.5,44.5z"/>
	<path class="st227" d="M91.7,70.7c-1.2-3.1,2.6-1.5,2.9-3.6c-1.8-0.8-4-1.7-6.1-2.6c0.3-0.9,0.1-3.8,1.7-1.9
		c3.1,3.5,5.8,1.7,8.9,0.9c2.7-0.7,5.4-2.2,8.4-1c0,0.3,0,0.7,0,1c-0.3,1.7-2.1,1.9-3,3c-0.3,3.6-2.4,4.5-5.7,4.1
		c-1.1-0.2-2.3-0.2-3.2,0.8C94.2,71.7,92.9,71.6,91.7,70.7z"/>
	<path class="st228" d="M144.4,100.4c2.7-3.7-2.1-5.2-2.5-8.1c-0.2-2-3-3.4,0-5.8c0.9-0.7-0.9-2.3-2.6-2.4c-2.1-0.1-1.7-1.8-0.5-1.9
		c4.3-0.5,5.6-2.7,4.8-6.7c1.7-1.8,3.7-1.9,5.9-1c-6.6,4.9-3.2,12.2-4.3,18.4c-0.2,1.4,1.5,1.5,2.4,2.3c1.3,1.2,2.9,2.3,3,4.4
		c-1,1.3-2.4,1.8-4,2C145.2,102.3,144.5,102.1,144.4,100.4z"/>
	<path class="st229" d="M144.4,100.4c0.5,0.8,1.3,1,2.1,1c-3.2,2.3,1.5,3.2,0.9,5c-1.5,1.2-3.5-0.2-5,1l0,0c-2.5,0.5-5-0.3-7.6-0.1
		c-1.8,0.2-3.5-0.8-3.9-3c0.3-2.9,2-4.7,4.5-6c0.6-1.6,2.3,0.2,3-1C141.4,96.5,141.5,101.4,144.4,100.4z"/>
	<path class="st230" d="M142.5,107.5c1.4-1.6,3.3-0.7,5-1c1,0.3,2,0.7,3,1c1.1,2.2,0,2.9-2,3C147.6,107.3,145,107.3,142.5,107.5z"/>
	<path class="st190" d="M116.5,112.5c1.2,0,2.4-0.1,3.2,0.8c0.4,0.4,1.1,1.2,1,1.5c-0.4,0.9-1.4,0.5-2.2,0.6
		C117.2,114.9,116.5,113.9,116.5,112.5z"/>
	<path class="st145" d="M135.4,116.6c-1.6,0-3.2,0-4.8,0c2.3-0.4,4.8-3.6,7-0.1C136.8,116.5,136.1,116.5,135.4,116.6z"/>
	<path class="st230" d="M131.5,103.5c0.5,2.5,2.7,3.4,4.3,2.7c2.7-1.1,4.6,0.2,6.7,1.2c-4.1,0.3-6.3,3.6-9,6c-0.7,0-1.5,0.2-1.9-0.1
		c-5.3-4.1-11.3-3.1-17.3-3c-1.4,0-1.8-1.3-2.7-1.8c-0.3,0-0.7,0-1,0c-0.3-1-0.7-2-1-3c1.9-1.1,3.9-1.2,6.1-0.5c3,0.9,6.1,1,9-0.5
		c0.7-0.8,1.6-1,2.5-0.8c1.6,2.7,2.5-1.1,3.8-0.5C131.1,103.3,131.3,103.4,131.5,103.5z"/>
	<path class="st231" d="M174.5,64.5c0.2-1.2-2.4-1.4-1.1-3.1c1-0.6,1.1-1.5,0.9-2.6c-0.6-3.9,1.4-3.2,3.7-2c2.9,3,6.1,5.6,10,7.5
		c2.2-2.4,2-5.9,3.2-8.8c0.7-1.3,1.4-2.6,2.1-4c-0.4-0.6-1.6-0.9-1-2.1c0.2-1.4-0.5-3,1-4c1,3.2,0.1,7.1,2.4,9.6
		c3.1-0.3-2-4.4,2.5-3.6c3.3,3.2,0.5,7.1,1.3,10.6c0.3,4-1.4,7.4-3,10.8c-1.4,2.4-0.3,4.9-0.5,7.4c-0.2,0.7-0.7,1.3-1.4,1.5
		c-2.1-0.7-3.4-2.4-5-3.8c-1.7-1.6-2.9-3.6-4.6-5.2c-1.5-1.5-2.7-3.7-5.7-2.5c-1.6,0.6-3.2-0.5-3.3-2.7
		C178.7,64.9,174.8,65.7,174.5,64.5z"/>
	<path class="st232" d="M198.6,62.6c-0.1-3.7-0.1-7.4-0.2-11.1c2,0.3,4.3-0.9,6.1,1c2.1,2,5.2,2.4,6.9,4.9l0.3,0.1
		c1.8,1.2,2.8,2.8,3.1,4.9c-0.3,2-0.4,4,0.6,5.9c0,1.7,0.1,3.4,0.1,5.1c0,0.8-0.2,1.6-0.9,2c-0.3,0.3-0.8,0.5-1.2,0.5
		c-2.7-1.4-1.6-4.1-1.9-6.1c-0.5-3.6-2.2-6.5-4.5-9c-1.2-1.4-0.7,0.7-1.3,0.9c-0.5,0.5-1.2,0.6-1.8,0.7
		C202,61.6,200.4,63.8,198.6,62.6z"/>
	<path class="st233" d="M211.4,57.5c-2.7-1.1-5.1-2.5-6.9-4.9C206.8,54.2,211.1,53,211.4,57.5z"/>
	<path class="st234" d="M214.5,62.5c-0.9-1.6-1.9-3.3-2.8-4.9c3.7,1.4,4.5,4.3,3.9,7.9C214.3,64.8,213.4,64,214.5,62.5z"/>
	<path class="st235" d="M218.3,68.6c1.4,2.7,0.1,5.3,0,8.1c-1.3-0.9-0.6-2.1-1-3.1C217.7,71.9,216.7,70,218.3,68.6z"/>
	<path class="st236" d="M214.5,62.5c0.4,1,0.7,2,1.1,3c0,1-0.1,1.9-0.1,2.9C213.1,65.4,212.8,63.8,214.5,62.5z"/>
	<path class="st237" d="M191.3,55.5c1.3,4-1.3,7.2-2.1,11.2c-3.9-3.3-9.4-4.2-11.8-9.3c-1.2-4.5,1.2-3.9,4-2.8
		c0.7,0.4,1.1,2.2,2.1,1C186.7,51.4,187.4,51.3,191.3,55.5z"/>
	<path class="st238" d="M181.4,54.7c-2.2-0.3-4,0-4,2.8c-0.9-0.2-2.8-2.2-2,1.1c0.3,1.2,1.6,4-2,2.8c-0.4-2.3,1.3-5-0.9-7.1
		c-0.4-2.1,1.2-3.3,2-4.9c1.5-0.2,2.8,0.3,4,1.1C177.7,53.1,180.5,53.2,181.4,54.7z"/>
	<path class="st239" d="M192.5,49.5c0.3,0.7,0.6,1.4,1,2.1c-2.2-0.2-4.2-3.3-6.7-0.2c-0.3,0.4-1.7,0.1-2-0.8c-0.7-1.9,1.5-0.8,1.4-1
		c-1.8-4.8,2.9-2.7,4.3-4C190.4,47.2,190.7,48.7,192.5,49.5z"/>
	<path class="st240" d="M156,116.9c-1.7,2.2-3.6,1.4-5.4,1C152.2,117.3,153.5,116,156,116.9z"/>
	<path class="st178" d="M104.5,66.5c0.1-1.9,1.7-2.3,3-3c1.5,1.2,3.1,2.5,5,4C109.2,69.7,107,66.4,104.5,66.5z"/>
	<path class="st241" d="M124.5,57.5c1.7,0.2,3.5-0.5,5.5,0.6c-2,1.9-4.2,3.2-6.6,1.9C121.8,59.1,124.3,58.5,124.5,57.5
		C124.5,57.5,124.5,57.5,124.5,57.5z"/>
	<path class="st202" d="M137.5,61.5c1.7,1.3,2.7-0.4,4-1c-0.1,4.2-2.7,5.4-6.4,5.8C135,64,137.9,63.6,137.5,61.5z"/>
	<path class="st242" d="M176.5,67.4c2.1,3.5,4.1,1.8,6.2-0.3c1.6,4.3,5.7,6.4,7.8,10.2c-1.2,1.5-2.5,1-3.8,0.3
		c-0.4-0.3-0.7-0.5-1-0.9c-1.5-1.6-3-3.1-5-3.9c-2.4-1.2-4,0.2-5.6,1.7c-1,0.7-1.8,2.4-3.4,1c0-0.6-0.1-1.2-0.1-1.7
		c2.8-1.9-0.6-5.3,1.8-7.3C174.8,65.5,175.8,66,176.5,67.4z"/>
	<path class="st238" d="M176.5,67.4c-1-0.3-2.1-0.7-3.1-1c0.1-0.8,0.3-1.6,1.2-1.9c1.3,0,2.9-0.9,3.7,1.1c0.3,0.8,1.7,1.4,0.6,2.3
		C178.3,68.2,177.3,67.6,176.5,67.4z"/>
	<path class="st243" d="M181.4,71.6c1.9,1.4,4.4,2.3,5,5c-1.7,1.5-3.9,1.6-6,1.9c-0.4-0.4-0.8-0.7-1.1-1.1c-1.3-0.7-1.9,0.9-2.9,1
		c-0.7,1.5-3.2-2.8-3.1,1.3c-1.6-1.3-1.8-2.7-1.5-4.3c1.5,0.2,1.7-1.4,2.7-1.9C176.6,72.3,179.3,73.1,181.4,71.6z"/>
	<path class="st244" d="M180.4,78.4c1.4-2.6,3.8-1.8,6-1.9c0,0-0.2,0.1-0.2,0.1c0.3,2.4-1.5,2.5-3.1,2.8c-0.2,0.7-0.5,1.5-0.7,2.2
		C181.1,81,180.5,79.9,180.4,78.4z"/>
	<path class="st245" d="M176.3,78.4c0.3-1.1,0.7-2.4,2.1-2.5c0.8-0.1,0.9,0.8,0.8,1.4c-1.2,0.8,0,3-1.5,3.3
		C176.7,80.9,176.6,79.3,176.3,78.4z"/>
	<path class="st246" d="M183.2,79.4c1-0.9,2.1-1.9,3.1-2.8c1.4,0.2,2.9,0.5,4.3,0.7c1.8,0.8,3,2.3,4.1,3.9c0.3,0.5,0.2,1-0.3,1.4
		c-2.1-1.2-4.4-2.1-6.8-1.8C185.7,81.1,184.3,81,183.2,79.4z"/>
	<path class="st247" d="M199.6,85.5c-0.7-0.4-1.5-0.7-2.2-1.1c-1-1.2-0.9-2.5-0.2-3.7c0.7-1.3-0.5-1.1-1-1.5
		c-1.1-3.3,0.6-5.4,3.5-5.8c2.6-0.3,2.9,2.1,2.9,4.2c-0.3,2.3-2,4.3-1.5,6.7C200.9,85.1,200.5,85.7,199.6,85.5z"/>
	<path class="st248" d="M197.3,79.1c0.4-0.5,0.8-1.4,1.2-1.3c1.2,0,1.1,1,0.6,1.7c-0.9,1.6-1.8,3.1-1.7,5c-1.3-0.1-2.3-0.8-3-1.8
		c0.1-0.5,0.2-0.9,0.3-1.4c0.3-0.3,0.5-0.5,0.8-0.8C195.9,79.8,197,80,197.3,79.1z"/>
	<path class="st249" d="M199.6,85.5c0.3-0.3,0.6-0.7,0.9-1c0.9-1.8,0.8-5.2,4.4-3.1c-0.1,2.6-2.3,4.1-3.5,6c0,0,0,0,0,0
		c-0.7-0.2-1.5,1.2-2.2,0C199.4,86.8,199.5,86.2,199.6,85.5z"/>
	<path class="st250" d="M204.6,81.6c-2.8-1-1.9,3-4,2.9c-1.9-2.3-0.4-4.2,0.9-6c1.3-1.1-0.4-3.3,1.5-4.2c1.9,0.1,2.2,2.5,4.1,2.7
		c-1.1-3.7-2.4-7.4,1.9-10c2.6-0.1,2.1,2,2.8,3.6c0.7,1.6-1,4.2,1.8,4.9c0.4,0,0.7,0,1.1,0c0.4,4.6-0.8,8.7-4.1,12
		c-1.3-1.7-2.7-3.3-4-5C206.1,81.7,205.2,81.9,204.6,81.6z"/>
	<path class="st213" d="M204.6,81.6c0.8-0.4,1.6-0.9,2.4-1.3c-0.2,0.7-0.3,1.5-0.5,2.2c-1.8,1.5-2.3,4.4-5,5
		C202.5,85.5,203.5,83.5,204.6,81.6z"/>
	<path class="st216" d="M132.3,89.7c-2.7,1.4-4.1-0.3-5.7-0.7C128.4,88.4,130.1,88.2,132.3,89.7z"/>
	<path class="st221" d="M127.5,104.5c-1,0-2,0-2.9,0c-1-1.4-2-2.7-3.1-4.1c4.4-2.8,8.9-4.2,14-1.9c-1.3,1.7-2.7,3.4-4,5.1
		c0,0,0,0,0,0C129.7,101.9,128.6,103.5,127.5,104.5z"/>
	<path class="st229" d="M127.5,104.5c0.7-3,1.8-4.1,4-1c-0.5,0.3-1.3,0.4-1.6,0.9c-0.5,0.7,0.8,2.2-0.8,2.3
		C128.6,106.7,128,105.3,127.5,104.5z"/>
	<path class="st251" d="M203.4,74.4c-1.5,0.9-0.3,3.2-2,4c-0.3-1.6,1-4.4-1.6-4.3c-1.8,0.1-4.1,2-2.5,4.9c-0.1,1.1-0.9,1.3-1.9,1.4
		c-0.8-2.7-1.6-5.3,0.2-7.9c1.6-0.7,3.1-1.6,4.7-2.2c2-0.6,3.1,0.3,3.7,2.1C204.1,73.3,204,73.9,203.4,74.4z"/>
	<path class="st252" d="M200.5,71.5c-1.6,0.6-2.9,2.2-4.8,1.1c1.1-3.3,3-6.4,2.9-10c1.7,0.1,2.9-2.6,4.9-1c0.4,1.4-0.3,2.5-0.5,3.8
		c-0.4,1.2-1.4,2-1.7,3.3C201.2,69.6,201.2,70.7,200.5,71.5z"/>
	<path class="st253" d="M202.4,65.3c-1.5-1.8-0.1-2.7,1.1-3.7c0.7,0,1.3,0,2,0c2.2,1.4,3.3,3.2,2.9,5.9c-3.4,4.6-0.2,8.2,1.5,12.3
		c-1.1-0.8-2.3-1.5-3.4-2.3c-2.3-0.9-1.5-3.4-2.7-4.9c-1.1-0.5-1.6-2.3-3.3-1.2c-0.2-1.1-0.5-2.2-0.7-3.3
		C200.7,67.3,202.7,67.4,202.4,65.3z"/>
	<path class="st252" d="M208.4,67.5c-1-2-1.9-3.9-2.9-5.9c0.4-1.5-1.6-2-1.5-3.4c5.9,1.8,9,7,9,15.1c0,0.8-0.3,1.6,0.5,2.2
		c-0.2,0.8-0.2,2-0.6,2.2c-1.6,0.5-1-1-1.4-1.7C210,73.3,212.1,69.3,208.4,67.5z"/>
	<path class="st254" d="M181.4,71.6c-1.2,4.7-4.8,0.8-7,1.9C176.4,71.8,178.3,69.5,181.4,71.6z"/>
	<path class="st255" d="M203.7,72.7c2.9,0.5,1.2,3.5,2.7,4.9c-2.3,0.2-2.8-1.3-3-3.1C203.5,73.9,203.6,73.3,203.7,72.7z"/>
	<path class="st256" d="M202.4,65.3c0.9,0.3,2,0.2,1.9,1.7c-0.1,1.4-1,0.8-1.7,0.8c-1,0.1-1.9,0.3-2.9,0.4
		C200.4,67,201.2,65.9,202.4,65.3z"/>
</g>
<g>
</g>
<g>
</g>
<g>
</g>
<g>
</g>
<g>
</g>
<g>
</g>
</svg>
