<?xml version="1.0" encoding="utf-8"?>
<!-- Generator: Adobe Illustrator 22.0.1, SVG Export Plug-In . SVG Version: 6.00 Build 0)  -->
<svg version="1.1" id="Layer_1" xmlns="http://www.w3.org/2000/svg" xmlns:xlink="http://www.w3.org/1999/xlink" x="0px" y="0px"
	 viewBox="0 0 24 24" style="enable-background:new 0 0 24 24;" xml:space="preserve">
<style type="text/css">
	.st0{fill:none;stroke:#000000;stroke-width:1.5;stroke-miterlimit:10;}
</style>
<path d="M6.1,6.1c0-0.5,0.4-0.9,0.9-0.9l0,0c0.5,0,0.9,0.4,0.9,0.9V12c0-0.1,0.1-0.2,0.1-0.3l9.4-6.5c0.1,0,0.1-0.1,0.2-0.1
	s0.1,0,0.2,0C17.9,5.2,18,5.3,18,5.4v13.1c0,0.1-0.1,0.2-0.2,0.3c-0.1,0.1-0.2,0-0.3,0l-9.4-6.5C8,12.2,8,12.1,8,12v5.9
	c0,0.5-0.4,0.9-0.9,0.9H7c-0.5,0-0.9-0.4-0.9-0.9V6.1z"/>
<circle class="st0" cx="12" cy="12" r="10.8"/>
</svg>
