<?xml version="1.0" encoding="utf-8"?>
<!-- Generator: Adobe Illustrator 22.0.1, SVG Export Plug-In . SVG Version: 6.00 Build 0)  -->
<svg version="1.1" id="Layer_1" xmlns="http://www.w3.org/2000/svg" xmlns:xlink="http://www.w3.org/1999/xlink" x="0px" y="0px"
	 viewBox="0 0 24 24" style="enable-background:new 0 0 24 24;" xml:space="preserve">
<style type="text/css">
	.st0{fill:none;stroke:#000000;stroke-width:1.5;stroke-miterlimit:10;}
</style>
<path d="M5.5,11.7L12,5.2l0.1-0.1h0.1c0.1,0.1,0.1,0.2,0.1,0.3v3.9l4.2-4.1l0.1-0.1h0.1C16.9,5.3,17,5.4,17,5.5v12.9
	c0,0.1,0,0.2-0.1,0.3c-0.1,0.1-0.2,0-0.2,0l-4.2-4.1v3.9c0,0.1,0,0.2-0.1,0.3c-0.1,0.1-0.2,0-0.2,0l-6.5-6.5
	c-0.1-0.1-0.1-0.2-0.1-0.3S5.5,11.8,5.5,11.7z"/>
<circle class="st0" cx="12" cy="12" r="10.8"/>
</svg>
