<?xml version="1.0" encoding="utf-8"?>
<!-- Generator: Adobe Illustrator 22.0.1, SVG Export Plug-In . SVG Version: 6.00 Build 0)  -->
<svg version="1.1" id="Layer_1" xmlns="http://www.w3.org/2000/svg" xmlns:xlink="http://www.w3.org/1999/xlink" x="0px" y="0px"
	 viewBox="0 0 100 100" style="enable-background:new 0 0 100 100;" xml:space="preserve">
<path d="M50,0.5C63.7,0.5,76,6,85,15s14.5,21.3,14.5,35S94,76,85,85S63.7,99.5,50,99.5S24,94,15,85S0.5,63.7,0.5,50S6,24,15,15
	S36.3,0.5,50,0.5L50,0.5z M82.3,17.7C74,9.4,62.6,4.3,50,4.3S26,9.4,17.7,17.7S4.3,37.4,4.3,50s5.1,24,13.4,32.3S37.4,95.7,50,95.7
	s24-5.1,32.3-13.4S95.7,62.6,95.7,50S90.6,26,82.3,17.7L82.3,17.7z"/>
<g id="Search">
	<path d="M30.3,69.7c1.3,1.3,3.5,1.3,4.9,0l9-9c0,0,0.1-0.1,0.1-0.2c2.7,1.8,5.9,2.8,9.3,2.8c9.4,0,17-7.6,17-17c0-9.4-7.6-17-17-17
		s-17,7.6-17,17c0,3.5,1,6.7,2.8,9.3c0,0-0.1,0.1-0.2,0.1l-9,9C29,66.1,29,68.3,30.3,69.7z M42.6,46.3c0-6.1,5-11.1,11.1-11.1
		c6.1,0,11.1,5,11.1,11.1c0,6.1-5,11.1-11.1,11.1C47.5,57.4,42.6,52.5,42.6,46.3z"/>
</g>
</svg>
