<?xml version="1.0" encoding="utf-8"?>
<!-- Generator: Adobe Illustrator 22.0.1, SVG Export Plug-In . SVG Version: 6.00 Build 0)  -->
<svg version="1.1" id="Layer_1" xmlns="http://www.w3.org/2000/svg" xmlns:xlink="http://www.w3.org/1999/xlink" x="0px" y="0px"
	 viewBox="0 0 100 100" style="enable-background:new 0 0 100 100;" xml:space="preserve">
<style type="text/css">
	.st0{fill:#333333;}
	.st1{fill-rule:evenodd;clip-rule:evenodd;fill:#333333;}
</style>
<g>
	<path class="st0" d="M50,0.5C63.7,0.5,76,6,85,15c9,9,14.5,21.3,14.5,35c0,13.7-5.5,26-14.5,35c-9,9-21.3,14.5-35,14.5
		C36.3,99.5,24,94,15,85C6,76,0.5,63.7,0.5,50C0.5,36.3,6,24,15,15C24,6,36.3,0.5,50,0.5L50,0.5z M82.3,17.7C74,9.5,62.6,4.3,50,4.3
		c-12.6,0-24,5.1-32.3,13.4C9.5,26,4.3,37.4,4.3,50c0,12.6,5.1,24,13.4,32.3C26,90.6,37.4,95.7,50,95.7c12.6,0,24-5.1,32.3-13.4
		C90.6,74,95.7,62.6,95.7,50C95.7,37.4,90.6,26,82.3,17.7L82.3,17.7z"/>
	<path class="st1" d="M53.8,39.9v-4.1c0-1.9,1.3-2.4,2.2-2.4c0.9,0,5.7,0,5.7,0v-8.7h-7.8c-8.7,0-10.6,6.4-10.6,10.6v4.6h-5V46v4
		h5.1c0,11.5,0,25.3,0,25.3h10.1c0,0,0-14,0-25.3h7.5l0.3-4l0.6-6.1H53.8z"/>
</g>
</svg>
