<?xml version="1.0" encoding="utf-8"?>
<!-- Generator: Adobe Illustrator 22.0.1, SVG Export Plug-In . SVG Version: 6.00 Build 0)  -->
<svg version="1.1" id="Layer_1" xmlns="http://www.w3.org/2000/svg" xmlns:xlink="http://www.w3.org/1999/xlink" x="0px" y="0px"
	 viewBox="0 0 100 100" style="enable-background:new 0 0 100 100;" xml:space="preserve">
<style type="text/css">
	.st0{fill:#333333;}
	.st1{fill-rule:evenodd;clip-rule:evenodd;fill:#333333;}
</style>
<path class="st0" d="M50,0.5C63.7,0.5,76,6,85,15c9,9,14.5,21.3,14.5,35c0,13.7-5.5,26-14.5,35c-9,9-21.3,14.5-35,14.5
	C36.3,99.5,24,94,15,85C6,76,0.5,63.7,0.5,50C0.5,36.3,6,24,15,15C24,6,36.3,0.5,50,0.5L50,0.5z M82.3,17.7C74,9.4,62.6,4.3,50,4.3
	c-12.6,0-24,5.1-32.3,13.4C9.4,26,4.3,37.4,4.3,50c0,12.6,5.1,24,13.4,32.3C26,90.6,37.4,95.7,50,95.7c12.6,0,24-5.1,32.3-13.4
	C90.6,74,95.7,62.6,95.7,50C95.7,37.4,90.6,26,82.3,17.7L82.3,17.7z"/>
<path class="st1" d="M27.7,50.5v21.9h10.4V48.7v-6.1H27.7V50.5z M72.1,51.7c-0.7-5.6-3.3-9.2-10.9-9.2c-4.5,0-7.5,1.6-8.7,4h-0.1v-4
	H44v5.7v24.1h8.7V57.6c0-3.9,0.8-7.6,5.5-7.6c4.8,0,5.2,4.4,5.2,7.9v14.5h8.9V56C72.3,54.4,72.3,53,72.1,51.7L72.1,51.7z M32.9,27.7
	c-2.9,0-5.2,2.3-5.2,5.2s2.3,5.2,5.2,5.2c2.9,0,5.2-2.3,5.2-5.2S35.7,27.7,32.9,27.7L32.9,27.7z"/>
</svg>
