<?xml version="1.0" encoding="utf-8"?>
<!-- Generator: Adobe Illustrator 22.0.1, SVG Export Plug-In . SVG Version: 6.00 Build 0)  -->
<svg version="1.1" id="Layer_1" xmlns="http://www.w3.org/2000/svg" xmlns:xlink="http://www.w3.org/1999/xlink" x="0px" y="0px"
	 viewBox="0 0 200 200" style="enable-background:new 0 0 200 200;" xml:space="preserve">
<style type="text/css">
	.st0{fill:#FFFFFF;}
	.st1{opacity:0.75;fill:#FFFFFF;enable-background:new    ;}
</style>
<rect class="st0" width="200" height="200"/>
<g>
	<g>
		<path d="M133.7,111.7H66.3c-2,0-3.7-1.3-4.3-3.2L46.7,57.4c-0.9-2.8,1.3-5.7,4.3-5.7h98c3,0,5.1,2.9,4.3,5.7L138,108.5
			C137.4,110.4,135.6,111.7,133.7,111.7z"/>
		<path class="st0" d="M76.9,66h4.4l2,18.1l0.2,4.2h0.4l0.4-4.8l3.2-17.6h3.6l3.1,17.6l0.4,4.8h0.5l0.2-4.2L97.1,66h4.4l-4.2,30
			h-4.6l-2.5-14.4l-0.7-6.3h-0.4l-0.8,6.3L85.7,96h-4.6L76.9,66z"/>
		<path class="st1" d="M110.4,66h11.1v3.6h-6.6v9h5.1v3.6h-5.1v10.3h6.8v3.6h-11.3V66z"/>
	</g>
	<g>
		<path d="M31.9,128.1h2.9l1.3,12.1l0.2,2.8h0.3l0.3-3.2l2.2-11.7h2.4l2.1,11.7l0.2,3.2H44l0.1-2.8l1.2-12.1h2.9l-2.8,20h-3.1
			l-1.7-9.6l-0.5-4.2H40l-0.5,4.2l-1.7,9.6h-3L31.9,128.1z"/>
		<path d="M50.5,128.1h3v8.4h3.6v-8.4h3v20h-3v-9.2h-3.6v9.2h-3V128.1z"/>
		<path d="M63.6,128.1h3v20h-3V128.1z"/>
		<path d="M71.9,130.5h-3.2v-2.4h9.5v2.4H75v17.6h-3v-17.6H71.9z"/>
		<path d="M80.2,128.1h7.4v2.4h-4.4v6h3.4v2.4h-3.4v6.9h4.5v2.4h-7.5V128.1z"/>
		<path d="M100.2,128.1h7.4v2.4h-4.4v6h3.4v2.4h-3.4v6.9h4.5v2.4h-7.5V128.1z"/>
		<path d="M109.9,128.1h2.5l4.9,13.4h0.1c-0.1-1.2-0.3-3-0.3-6.1v-7.3h2.7v20h-2.5l-4.8-13h-0.1c0.1,1.4,0.3,3.1,0.3,7.2v5.9H110
			L109.9,128.1L109.9,128.1z"/>
		<path d="M123.1,128.1h3v20h-3V128.1z"/>
		<path d="M129.1,141.6v-7.1c0-6,3.2-6.6,5.1-6.6c3.2,0,4.4,1.9,4.4,4.2c0,0.9-0.1,1.5-0.3,2.4H136v-0.9c0-2.2-0.6-3.3-1.8-3.3
			c-1.3,0-1.9,0.8-1.9,3.4v9.1c0,2.5,0.6,3.2,1.9,3.2c1.3,0,1.9-1.5,1.9-3.4V140h-1.6v-2h4.5v10.1h-2l-0.3-1.9
			c-0.8,1.5-1.7,2.1-3.1,2.1C132.2,148.3,129.1,147.7,129.1,141.6z"/>
		<path d="M141.8,128.1h4l1.9,7.7c0.4,1.7,0.6,3.3,0.8,4.7h0.1c0.2-1.4,0.4-2.9,0.8-4.7l2-7.7h3.9v20h-2.8v-6.6c0-4.1,0.2-7.6,0.3-9
			h-0.2l-3,13.1h-1.9l-3-13.1h-0.2c0.1,1.4,0.3,5,0.3,9v6.6H142v-20H141.8z"/>
		<path d="M160.9,128.1h3.5l3.7,20H165l-0.6-3.6h-3.7l-0.5,3.6h-3.1L160.9,128.1z M164.2,142.3l-1.4-10h-0.1l-1.4,10H164.2z"/>
	</g>
</g>
</svg>
