<?xml version="1.0" encoding="utf-8"?>
<!-- Generator: Adobe Illustrator 22.0.1, SVG Export Plug-In . SVG Version: 6.00 Build 0)  -->
<svg version="1.1" id="Layer_1" xmlns="http://www.w3.org/2000/svg" xmlns:xlink="http://www.w3.org/1999/xlink" x="0px" y="0px"
	 viewBox="0 0 107 60" style="enable-background:new 0 0 107 60;" xml:space="preserve">
<style type="text/css">
	.st0{fill:#FFFFFF;}
	.st1{opacity:0.75;fill:#FFFFFF;enable-background:new    ;}
</style>
<path d="M87.2,60H19.8c-2,0-3.7-1.3-4.3-3.2L0.2,5.7C-0.7,2.9,1.5,0,4.5,0h98c3,0,5.1,2.9,4.3,5.7L91.5,56.8
	C90.9,58.7,89.1,60,87.2,60z"/>
<path class="st0" d="M30.4,14.3h4.4l2,18.1l0.2,4.2h0.4l0.4-4.8L41,14.2h3.6l3.1,17.6l0.4,4.8h0.5l0.2-4.2l1.8-18.1H55l-4.2,30h-4.6
	l-2.5-14.4L43,23.6h-0.4l-0.8,6.3l-2.6,14.4h-4.6L30.4,14.3z"/>
<path class="st1" d="M63.9,14.3H75v3.6h-6.6v9h5.1v3.6h-5.1v10.3h6.8v3.6H63.9V14.3z"/>
</svg>
