<?xml version="1.0" encoding="utf-8"?>
<!-- Generator: Adobe Illustrator 22.0.1, SVG Export Plug-In . SVG Version: 6.00 Build 0)  -->
<svg version="1.1" id="Layer_1" xmlns="http://www.w3.org/2000/svg" xmlns:xlink="http://www.w3.org/1999/xlink" x="0px" y="0px"
	 viewBox="0 0 272.9 60" style="enable-background:new 0 0 272.9 60;" xml:space="preserve">
<style type="text/css">
	.st0{fill:#FFFFFF;}
	.st1{opacity:0.75;fill:#FFFFFF;}
</style>
<path d="M253.2,60H19.8c-2,0-3.7-1.3-4.3-3.2L0.2,5.7C-0.7,2.9,1.5,0,4.5,0h264c3,0,5.1,2.9,4.3,5.7l-15.3,51.1
	C256.9,58.7,255.1,60,253.2,60z"/>
<path class="st0" d="M30.4,14.3h4.4l2,18.1l0.2,4.2h0.4l0.4-4.8l3.2-17.6h3.6l3.1,17.6l0.4,4.8h0.5l0.2-4.2l1.8-18.1h4.4l-4.2,30
	h-4.6l-2.5-14.4L43,23.6h-0.4l-0.8,6.3l-2.6,14.4h-4.6L30.4,14.3z"/>
<path class="st0" d="M58.3,14.3h4.6v12.6h5.4V14.3h4.6v30h-4.6V30.5h-5.4v13.9h-4.6V14.3z"/>
<path class="st0" d="M78,14.3h4.6v30H78V14.3z"/>
<path class="st0" d="M90.5,17.9h-4.8v-3.6h14.2v3.6H95v26.4h-4.6V17.9z"/>
<path class="st0" d="M102.9,14.3H114v3.6h-6.6v9h5.1v3.6h-5.1v10.3h6.8v3.6h-11.3V14.3z"/>
<path class="st1" d="M140.6,14.3h11.1v3.6h-6.6v9h5.1v3.6h-5.1v10.3h6.8v3.6h-11.3V14.3z"/>
<path class="st1" d="M155.2,14.3h3.7l7.3,20.1h0.1c-0.2-1.9-0.5-4.5-0.5-9.1v-11h4.1v30h-3.7l-7.2-19.6h-0.1
	c0.2,2.1,0.5,4.7,0.5,10.7v8.8h-4V14.3z"/>
<path class="st1" d="M175,14.3h4.6v30H175V14.3z"/>
<path class="st1" d="M184,34.6V23.9c0-9.1,4.8-9.9,7.7-9.9c4.9,0,6.6,2.9,6.6,6.4c0,1.3-0.2,2.3-0.4,3.6h-3.6v-1.4
	c0-3.3-0.9-4.9-2.7-4.9c-1.9,0-2.8,1.2-2.8,5v13.6c0,3.7,0.9,4.9,2.8,4.9c2,0,2.9-2.2,2.9-5.1v-3.9h-2.3v-3h6.8v15.2h-3l-0.5-2.8
	c-1.1,2.2-2.6,3.1-4.6,3.1C188.6,44.6,184,43.6,184,34.6z"/>
<path class="st1" d="M203.1,14.3h5.9l2.9,11.6c0.6,2.6,0.9,4.9,1.2,7h0.1c0.3-2,0.6-4.4,1.2-7l3-11.6h5.8v30H219v-9.9
	c0-6.1,0.3-11.4,0.5-13.5h-0.3l-4.5,19.6h-2.9l-4.6-19.6h-0.3c0.2,2.1,0.5,7.4,0.5,13.5v9.9h-4.3V14.3z"/>
<path class="st1" d="M231.7,14.3h5.2l5.6,30h-4.6l-0.8-5.4h-5.5l-0.8,5.4h-4.6L231.7,14.3z M236.6,35.5l-2.1-15h-0.2l-2.1,15H236.6z
	"/>
</svg>
