<?xml version="1.0" encoding="utf-8"?>
<!-- Generator: Adobe Illustrator 22.0.1, SVG Export Plug-In . SVG Version: 6.00 Build 0)  -->
<svg version="1.1" id="Layer_1" xmlns="http://www.w3.org/2000/svg" xmlns:xlink="http://www.w3.org/1999/xlink" x="0px" y="0px"
	 viewBox="0 0 418 106" style="enable-background:new 0 0 418 106;" xml:space="preserve">
<style type="text/css">
	.st0{fill:#EDEDED;}
	.st1{fill:#FF9100;}
	.st2{fill:#FFFFFF;}
</style>
<circle class="st0" cx="53" cy="53" r="47.3"/>
<path class="st1" d="M57.9,35.1c0,0-2.9-0.7-6,1.1c0,0,0.2,0.5,1.7,0.9c1.5,0.3,2.7,0.4,2.7,0.4l0.6,0.6l-0.4-0.9
	c0,0,0.9-0.8,0.6-1.7C57.1,35.5,57.2,35.2,57.9,35.1z"/>
<g>
	<g>
		<path class="st1" d="M53,102.2C25.9,102.2,3.8,80.1,3.8,53S25.9,3.8,53,3.8s49.2,22.1,49.2,49.2S80.1,102.2,53,102.2z M53,4.3
			C26.2,4.3,4.3,26.2,4.3,53s21.8,48.7,48.7,48.7c26.8,0,48.7-21.8,48.7-48.7C101.7,26.2,79.8,4.3,53,4.3z"/>
	</g>
</g>
<path class="st1" d="M82,85.1c1.8-0.4,3.6,0.1,5.1,0.7c8.2-8.5,13.2-20,13.2-32.8c0-26.1-21.2-47.3-47.3-47.3S5.7,26.9,5.7,53
	s21.2,47.3,47.3,47.3c7,0,13.7-1.5,19.6-4.3c0.7-4.6,1.4-9.2,2.1-13.8c0.3-1.9,0.7-3.9,1.1-5.8c0.2-1,0.4-1.9,0.6-2.9
	s0.5-1.9,0.8-2.9c1-3.8,1.9-7.6,2.7-11.5c0.8-3.8,1.4-7.7,1.7-11.6l0.1-1.5l0.1-0.7v-0.7l0.1-1.5v-1.5c0-2-0.3-3.9-0.8-5.8
	c-1-3.8-3-7.3-5.4-10.3c-1.2-1.5-2.6-3-4.1-4.2c-1.5-1.3-3.1-2.4-4.9-3.3c1.8,0.8,3.4,2,4.9,3.3s2.9,2.7,4.1,4.2
	c2.5,3,4.5,6.5,5.6,10.3c0.5,1.9,0.9,3.9,0.9,5.9v1.5v1.5v0.7v0.7l-0.1,1.5c-0.3,3.9-0.9,7.8-1.6,11.7s-1.6,7.7-2.6,11.5
	c-0.2,1-0.5,1.9-0.7,2.9c-0.2,0.9-0.4,1.9-0.6,2.9c-0.4,1.9-0.7,3.9-1,5.8c-0.7,4.4-1.3,8.7-1.9,13.1c1.6-0.8,3.1-1.6,4.6-2.5
	c-1.8-0.2-3-0.5-3.5-0.7c0.1-0.1,0.1-0.1,0.2-0.2c0.1-0.2,0.3-0.3,0.5-0.5c0.3-0.3,0.6-0.6,1-0.9s0.7-0.6,1.1-0.8
	c0.4-0.3,0.8-0.5,1.2-0.7c0.4-0.2,0.8-0.4,1.2-0.6c0.4-0.2,0.9-0.4,1.3-0.5c0.9-0.3,1.8-0.6,2.7-0.8c-0.9,0.1-1.8,0.3-2.8,0.5
	c-0.5,0.1-0.9,0.3-1.4,0.4c-0.4,0.2-0.9,0.3-1.3,0.5s-0.9,0.4-1.3,0.6s-0.8,0.5-1.2,0.8c-0.4,0.3-0.8,0.6-1.1,0.9l0,0
	C76.1,88.3,78.4,85.8,82,85.1z M53.4,9.3c-0.1,0.1-0.1,0.1-0.2,0.2c-3,2.6-5.9,5.3-8.6,8.1c-2.8,2.8-5.4,5.8-7.9,8.8
	c-2.5,3.1-4.7,6.3-6.7,9.7c2.2-3.3,4.5-6.4,7.1-9.3s5.4-5.7,8.2-8.4c2.9-2.6,5.9-5.2,8.9-7.6c0.2-0.2,0.5-0.4,0.7-0.6
	c0.2,3.5,1.8,17-6.8,27.3c-9.7,11.6-21,11.2-23.9,24.1c0,0-5.7-23.6,3.8-38.9C35.8,10.2,48.9,9.2,53.4,9.3z M9.1,53
	c0-18.9,12-35,28.7-41.2c-3.9,2.1-7.7,5.3-10.8,10.3c-9.6,15.5-4.2,38.8-3.9,39.8l0.7,2.9c0,0.2-0.1,0.5-0.1,0.7
	C23,75.3,28.2,86.2,37.2,94C20.8,87.6,9.1,71.7,9.1,53z M72.4,94.6L72.4,94.6c-0.2-0.5-0.4-1-0.7-1.4c-0.2-0.5-0.5-0.9-0.8-1.3
	s-0.6-0.8-0.9-1.2c-0.3-0.4-0.7-0.8-1-1.1c-0.4-0.4-0.7-0.7-1.1-1.1c-0.7-0.7-1.5-1.3-2.4-1.9c0.8,0.6,1.5,1.3,2.2,2.1
	c0.3,0.4,0.7,0.7,1,1.1s0.6,0.8,0.9,1.2c0.3,0.4,0.5,0.8,0.8,1.3c0.2,0.4,0.5,0.9,0.6,1.3c0.2,0.4,0.4,0.9,0.5,1.4
	c0.1,0.2,0.1,0.5,0.2,0.7c0,0.1,0,0.2,0.1,0.3c-0.7-0.2-2.3-0.5-4.6-1.5c-3.4-1.5-4.8-4.2-5.5-6.5c-0.8-2.9-2.5-3.9-2.5-3.9
	s5.7-1.3,9.2,1.6C71.6,88.2,72.6,91.6,72.4,94.6z M75.2,78.2L75.2,78.2c-0.2-0.5-0.4-0.9-0.6-1.3s-0.4-0.8-0.7-1.2
	c-0.3-0.4-0.5-0.7-0.8-1.1c-0.3-0.3-0.6-0.7-0.9-1s-0.6-0.6-1-0.9c-0.7-0.6-1.3-1.1-2.1-1.7c0.7,0.6,1.3,1.2,1.9,1.8
	c0.3,0.3,0.6,0.7,0.9,1s0.5,0.7,0.8,1.1c0.2,0.4,0.5,0.7,0.7,1.1s0.4,0.8,0.6,1.2c0.2,0.4,0.3,0.8,0.4,1.2c0.1,0.2,0.1,0.4,0.2,0.6
	c0,0.1,0,0.2,0,0.2c-0.6-0.1-2-0.3-4-1.2c-3-1.3-4.3-3.7-4.8-5.7c-0.7-2.6-2.2-3.5-2.2-3.5s5-1.2,8.1,1.4
	C74.5,72.5,75.4,75.5,75.2,78.2z M78.3,63.2L78.3,63.2c-0.1-0.4-0.2-0.8-0.3-1.2c-0.1-0.4-0.2-0.8-0.4-1.2c-0.1-0.4-0.3-0.8-0.5-1.1
	c-0.2-0.4-0.4-0.7-0.6-1.1c-0.2-0.3-0.4-0.7-0.7-1c-0.5-0.7-1-1.3-1.5-1.9c0.5,0.6,0.9,1.3,1.3,2c0.2,0.3,0.4,0.7,0.6,1.1
	c0.2,0.4,0.3,0.7,0.5,1.1c0.1,0.4,0.3,0.7,0.4,1.1c0.1,0.4,0.2,0.8,0.3,1.1c0.1,0.4,0.1,0.8,0.1,1.2c0,0.2,0,0.4,0,0.6
	c0,0.1,0,0.1,0,0.2c-0.5-0.2-1.7-0.7-3.3-1.9c-2.4-1.8-3-4.2-3.1-6c-0.1-2.4-1.2-3.5-1.2-3.5s4.7,0,6.9,2.9
	C78.8,58,78.9,60.9,78.3,63.2z M81.4,45.1C81.3,45.1,81.3,45.1,81.4,45.1c-0.3-0.3-0.5-0.5-0.8-0.7s-0.5-0.4-0.8-0.6
	c-0.3-0.2-0.6-0.3-0.8-0.5c-0.3-0.2-0.6-0.3-0.9-0.4c-0.3-0.1-0.6-0.2-0.9-0.3c-0.6-0.2-1.2-0.4-1.9-0.5c0.6,0.2,1.2,0.4,1.8,0.7
	c0.3,0.1,0.6,0.3,0.9,0.4c0.3,0.2,0.6,0.3,0.8,0.5c0.3,0.2,0.5,0.4,0.8,0.5c0.3,0.2,0.5,0.4,0.7,0.6c0.2,0.2,0.4,0.4,0.6,0.7
	c0.1,0.1,0.2,0.2,0.3,0.4l0.1,0.1c-0.4,0.1-1.4,0.4-3,0.4c-2.4,0-3.9-1.2-4.9-2.4c-1.2-1.5-2.5-1.7-2.5-1.7s3-2.3,5.8-1.5
	C79.2,41.5,80.7,43.3,81.4,45.1z M73.2,26.6c1.8-0.2,3.2,0.7,4.1,1.7l0,0c-0.2-0.1-0.4-0.2-0.7-0.2c-0.2-0.1-0.4-0.1-0.7-0.2
	c-0.2,0-0.5-0.1-0.7-0.1s-0.5,0-0.7-0.1c-0.2,0-0.5,0-0.7,0c-0.5,0-0.9,0.1-1.4,0.1c0.5,0,0.9,0,1.4,0c0.2,0,0.4,0,0.7,0.1
	c0.2,0,0.4,0.1,0.7,0.1c0.2,0,0.4,0.1,0.6,0.2s0.4,0.1,0.6,0.2s0.4,0.2,0.6,0.3c0.1,0.1,0.2,0.1,0.3,0.2c0,0,0.1,0,0.1,0.1
	c-0.3,0.2-0.8,0.6-1.9,1c-1.6,0.6-2.9,0.2-3.8-0.3c-1.2-0.7-2-0.5-2-0.5S71.1,26.8,73.2,26.6z M69,50.5c-1.6,2.4-4.8,2.7-5.4,3.4
	s-0.3,2.1,0.3,3c0.5,0.9,0.9,2,0.2,3.1c-0.5,0.8-1.3,0.9-1.8,1.1c-0.9,0-2.9,0.1-3.8,0c0.8,0.2,2.8,0.6,3.6,0.8
	c0.5,0.4,1.5,1.2,1.1,2.4c-0.5,1.5-1.6,2.2-2,3c-0.3,0.7,1.2,3.6,0.7,6.1c-0.4,2.6-3.2,5.4-6.8,4.8c-2.6-0.5-4.6-1.1-6.6-1.5
	c-3.5-0.9-7.1-2.1-10.4-3.7c-1.7-0.8-3.4-1.8-4.8-3.1c-0.7-0.7-1.3-1.4-1.7-2.3c-0.4-0.9-0.5-1.9-0.4-2.8c-0.2,0.9-0.2,2,0.2,2.9
	c0.4,0.9,1,1.7,1.6,2.4c1.4,1.4,3,2.5,4.7,3.4c2,1.1,4,2,6.1,2.8c-4.3,1.2-7.3,8.4-3.9,18.4C23,81.8,18.5,58.6,35,49.5
	c8.1-4.5,13.6-9.7,17-15.9c1.4-0.1,2.7-0.9,4.1-1.1c1.7-0.3,2.6,0.9,2.6,0.9l0.9-1.1c0,0-2.5-1.4-4.6-0.2c-0.9,0.5-2,0.9-2.9,1.1
	c3.3-6.2,4.5-13.4,4.1-21.8c0,0,3.7,10.9,4,14.6c0.2,3.5,0.6,4.5-0.1,6.7c0.2,0,0.3,0,0.4-0.1c0.3-0.1,0.7-0.3,0.9-0.5
	c0.3-0.2,0.4-0.6,0.6-1c-0.1,0.4-0.2,0.8-0.5,1.1c-0.2,0.3-0.6,0.5-0.9,0.7c-0.2,0.1-0.4,0.1-0.5,0.2c0.2,0.1,0.4,0.1,0.6,0.1
	c0.4,0,0.8,0,1.2-0.2s0.7-0.5,1-0.8c-0.3,0.3-0.5,0.7-0.9,0.9s-0.8,0.4-1.2,0.4c-0.3,0-0.5,0-0.8-0.1c-0.8,2.5,3,6.4,4.7,9
	C66.6,45.2,70.6,48.1,69,50.5z M82.3,36.5c0-0.1,0-0.1,0-0.2c0-0.1,0.1-0.3,0.1-0.4c0.1-0.3,0.2-0.6,0.3-0.8
	c0.1-0.3,0.2-0.6,0.3-0.8c0.1-0.3,0.3-0.5,0.4-0.8c0.2-0.3,0.3-0.5,0.5-0.8c0.2-0.2,0.4-0.5,0.6-0.7c0.4-0.5,0.8-0.9,1.2-1.3
	c-0.5,0.4-0.9,0.8-1.4,1.2c-0.2,0.2-0.4,0.4-0.6,0.7c-0.2,0.2-0.4,0.5-0.6,0.7c-0.2,0.3-0.3,0.5-0.5,0.8s-0.3,0.5-0.4,0.8
	s-0.3,0.6-0.3,0.9l0,0c-0.2-1.8,0.3-4,2.1-5.6c2-1.9,5.6-1.3,5.6-1.3s-1,0.7-1.4,2.5c-0.3,1.4-1.1,3.1-3.1,4.1
	C83.6,36.2,82.7,36.5,82.3,36.5z M84.8,47.1c2.8-2.5,7.5-1.7,7.5-1.7s-1.3,0.9-1.8,3.3c-0.4,1.9-1.5,4.2-4.2,5.6
	c-1.9,0.9-3.1,1.2-3.7,1.3c0-0.1,0-0.1,0-0.2c0-0.2,0.1-0.4,0.1-0.6c0.1-0.4,0.2-0.8,0.3-1.1c0.1-0.4,0.3-0.7,0.5-1.1
	c0.2-0.4,0.4-0.7,0.6-1.1c0.2-0.4,0.4-0.7,0.7-1c0.2-0.3,0.5-0.7,0.7-1c0.5-0.6,1.1-1.2,1.7-1.8c-0.6,0.5-1.3,1.1-1.8,1.7
	c-0.3,0.3-0.6,0.6-0.8,0.9c-0.3,0.3-0.5,0.6-0.8,1c-0.2,0.3-0.5,0.7-0.7,1.1c-0.2,0.4-0.4,0.7-0.6,1.1c-0.2,0.4-0.3,0.8-0.5,1.2l0,0
	C81.8,52.3,82.4,49.4,84.8,47.1z M83.3,71.8c-0.4,0.1-0.8,0.2-1.2,0.4c-0.4,0.1-0.8,0.3-1.2,0.5c-0.4,0.2-0.8,0.4-1.1,0.6
	c-0.4,0.2-0.7,0.4-1.1,0.7c-0.3,0.2-0.7,0.5-1,0.8l0,0c1-2.2,3-4.4,6.2-5.1c3.7-0.8,7.3,2.3,7.3,2.3s-1.6,0.1-3.3,1.9
	c-1.3,1.4-3.4,2.8-6.4,2.7c-2.1-0.1-3.3-0.5-3.9-0.7c0-0.1,0.1-0.1,0.1-0.2c0.1-0.1,0.3-0.3,0.4-0.4c0.3-0.3,0.6-0.6,0.9-0.8
	c0.3-0.3,0.6-0.5,1-0.7c0.3-0.2,0.7-0.4,1-0.6c0.4-0.2,0.7-0.4,1.1-0.5c0.4-0.2,0.8-0.3,1.1-0.5c0.8-0.3,1.6-0.5,2.4-0.7
	C84.9,71.4,84.1,71.6,83.3,71.8z"/>
<g>
	<path class="st2" d="M127,46.4c-0.9-0.9-1.7-1.8-2.1-2.9s-0.8-2-0.8-3.2c0-2.9,1.4-5.3,3.9-7.5c2.6-2.1,5.7-3.2,9.2-3.2
		c1.8,0,4.1,0.5,7.1,1.5v9.3h-2.1c-0.2-2.6-0.9-4.7-2.3-6.3s-3.2-2.4-5.3-2.4c-1.7,0-3,0.5-4.2,1.5s-1.7,2.4-1.7,3.9
		c0,1.5,0.6,3,1.7,4.2c1.1,1.4,3.6,3.3,7.8,6.2c3.2,2.1,5.3,3.8,6.3,5.1s1.7,2.9,1.7,4.8c0,3.2-1.5,5.9-4.2,8.3
		c-2.9,2.4-6.2,3.6-9.8,3.6c-2.6,0-5.6-0.6-8.7-1.8V56.9h2.1c0,3,0.9,5.6,2.6,7.5c1.8,2,3.8,3,6.2,3c2.3,0,3.9-0.6,5.3-2
		c1.2-1.4,2-2.9,2-5c0-1.7-0.5-3.2-1.5-4.5s-3.5-3.2-7.2-5.6C130.6,49.1,128.8,47.7,127,46.4z"/>
	<path class="st2" d="M157.7,68.1V75c0,1.8,0.3,3,1.1,3.6c0.8,0.8,2,1.1,3.5,1.1V81h-13.6v-1.4c1.7,0,2.9-0.5,3.5-1.1
		c0.6-0.6,1.2-2,1.2-3.6V46.7c0-1.5-0.6-2.3-1.8-2.3c-0.5,0-1.4,0.3-2.7,0.8v-1.5l7.5-3h1.4v9.6c2.9-3.9,5.1-6.5,6.9-7.8
		c1.8-1.4,3.6-2,5.4-2c2.4,0,4.4,1.1,6.2,3c1.7,2,2.6,4.7,2.6,8c0,4.7-1.5,8.7-4.7,12.5c-3.2,3.6-6.6,5.4-10.4,5.4
		c-0.9,0-1.8-0.2-2.9-0.3C159.8,68.8,158.8,68.5,157.7,68.1z M157.7,64.2c1.4,1.1,2.7,2,3.9,2.6c1.2,0.6,2.4,0.9,3.5,0.9
		c2.6,0,4.7-1.2,6.5-3.8c1.8-2.6,2.7-5.7,2.7-9.6c0-3-0.6-5.4-1.8-7.4s-2.7-2.9-4.7-2.9c-2.6,0-5,1.7-7.1,5s-3.3,7.2-3.3,11.4
		C157.4,61.5,157.6,62.7,157.7,64.2z"/>
	<path class="st2" d="M184.6,45c4.5-3,8.9-4.5,12.8-4.5c1.8,0,3.3,0.5,4.1,1.2c0.9,0.9,1.2,2.3,1.2,4.2v18.5c0,0.9,0.5,1.4,1.2,1.4
		c0.8,0,2.1-0.9,4.2-2.7v1.8c-3,3-5.4,4.4-7.4,4.4c-1.7,0-2.6-0.9-2.6-2.9v-4.4c-2.4,2.6-4.5,4.4-6.3,5.6c-1.7,1.2-3.3,1.7-4.8,1.7
		c-1.5,0-2.7-0.6-3.8-1.8c-1.1-1.2-1.5-2.6-1.5-4.2c0-4.2,5.4-8.9,16.6-13.9v-3.6c0-1.1-0.3-2-0.9-2.7c-0.6-0.8-1.5-1.1-2.7-1.1
		c-2,0-3.8,0.9-5.3,2.9c-1.5,2-2.4,4.2-2.7,7.1h-2V45H184.6z M198.6,52c-3.6,0.8-6.6,2.1-8.9,3.9c-2.3,1.8-3.5,3.8-3.5,5.6
		c0,1.2,0.5,2.3,1.2,3c0.8,0.8,1.8,1.1,3,1.1c2.3,0,4.2-1.2,5.7-3.6C197.7,59.5,198.6,56.2,198.6,52z"/>
	<path class="st2" d="M214.1,30.6h10.4v1.4c-0.8,0-1.1,0.3-1.1,0.9c0,0.2,0,0.3,0.2,0.6l9.3,28l5-12.5c1.5-3.6,2.1-7.1,2.1-10.4
		c0-4.2-1.7-6.3-5-6.6v-1.4h10.5v1.4c-0.9,0-1.2,0.3-1.2,0.9c0,0.2,0,0.5,0.2,0.6l9.3,28l6-15.4c1.8-4.7,2.9-8.1,2.9-10.1
		c0-1.5-0.3-2.6-1.1-3.2c-0.8-0.6-2-0.9-3.8-0.9v-1.4h13.4v1.4c-1.2,0-2.3,0.8-3.3,2.1c-1.1,1.4-2.1,3.5-3.2,6.2l-12.1,29.7H251
		l-8.4-25c-2,3.5-3.5,6.6-4.7,9.6l-6,15.4h-1.7l-9.9-29.5c-0.2-0.5-0.6-1.7-1.5-3.6c-0.9-2-1.7-3.3-2.3-3.9
		c-0.8-0.6-1.4-0.9-2.1-0.9v-1.4H214.1z"/>
	<path class="st2" d="M283.5,40.7c3.8,0,6.8,1.2,9,3.5c2.3,2.4,3.3,5.4,3.3,9.3c0,4.7-1.5,8.4-4.7,11.4c-3.2,3-6.6,4.5-10.4,4.5
		c-3.8,0-6.8-1.2-8.9-3.6c-2.1-2.4-3.3-5.4-3.3-9.3c0-4.5,1.5-8.3,4.7-11.4C276.4,42.2,279.8,40.7,283.5,40.7z M281,42.9
		c-2.7,0-4.8,0.9-6.2,2.9c-1.4,2-2.1,4.4-2.1,7.2c0,3.6,1.1,6.8,3.3,9.5c2.3,2.9,4.8,4.2,7.8,4.2c2.3,0,4.1-0.9,5.6-2.7
		c1.5-1.8,2.3-4.2,2.3-7.2c0-2.7-0.6-5.3-1.8-7.4s-2.6-3.8-4.2-4.8C284.1,43.4,282.6,42.9,281,42.9z"/>
	<path class="st2" d="M298.7,43.7l7.7-3.2h1.2v9.8c2.9-3.8,5.1-6.3,7.1-7.7c1.8-1.4,3.6-2.1,5.3-2.1c3.3,0,5,2.1,5,6.5v15.5
		c0,1.8,0.3,3,1.1,3.6c0.8,0.6,1.8,1.1,3.5,1.1v1.4h-10.4v-1.4c0.9,0,1.2-0.5,1.2-1.5V47.3c0-1.1-0.3-1.8-0.8-2.4
		c-0.5-0.6-1.2-0.9-2.1-0.9c-2.6,0-4.8,1.8-6.9,5.3c-2.1,3.5-3.2,7.5-3.2,12.2c0,2.3,0.3,3.8,1.1,4.5c0.8,0.8,2,1.2,3.8,1.2v1.4
		h-13.4v-1.4c1.7,0,2.7-0.5,3.5-1.1c0.8-0.6,1.1-1.8,1.1-3.6V47.3c0-2-0.6-2.9-2-2.9c-0.5,0-1.4,0.3-2.6,0.8L298.7,43.7L298.7,43.7z
		"/>
	<path class="st2" d="M348.4,30.6l10.2-3.9v1.2c-0.9,0.3-1.2,1.1-1.2,2v33.3c0,1.7,0.8,2.4,2.1,2.4c0.6,0,1.4-0.2,2.4-0.6v1.5
		l-7.7,3H353v-9.6c-3.5,4.4-5.9,7.1-7.5,8.1s-3.2,1.5-4.7,1.5c-2.6,0-4.7-1.2-6.3-3.5c-1.7-2.4-2.4-5-2.4-8c0-4.2,1.5-8.1,4.7-11.7
		c3.2-3.6,6.5-5.6,10.2-5.6c0.9,0,1.8,0.2,2.7,0.5c1.1,0.3,2.1,0.6,3.3,1.2v-8.1c0-1.7-0.6-2.6-2-2.6c-0.6,0-1.5,0.2-2.6,0.6V30.6z
		 M352.8,46.1c-1.4-1.2-2.7-2-4.1-2.6c-1.4-0.6-2.6-0.9-3.9-0.9c-2.6,0-4.5,1.4-6,3.9c-1.5,2.6-2.3,5.6-2.3,8.9c0,2.9,0.6,5.1,2,7.1
		c1.4,2,2.9,2.9,4.8,2.9c2.7,0,5-1.8,6.9-5.3c2-3.5,2.9-7.1,2.9-10.5C353.3,48.4,353.1,47.1,352.8,46.1z"/>
	<path class="st2" d="M387.8,61.2c-4.4,5.6-8.7,8.3-13,8.3c-3,0-5.6-1.2-7.8-3.9c-2.3-2.6-3.3-5.6-3.3-9.2c0-4.1,1.4-7.7,4.1-11
		c2.7-3.3,5.9-4.8,9.5-4.8c2.9,0,5.3,1.1,6.9,3.2c1.7,2.1,2.6,4.7,2.7,7.5h-19.1c0,0.8,0,1.4,0,1.7c0,3.5,0.9,6.5,2.9,8.7
		c1.8,2.4,4.2,3.5,6.9,3.5c3.5,0,6.9-2.1,10.4-6.2v2.3H387.8z M382,49.9c-0.3-2.3-0.9-4.2-2.3-5.4c-1.4-1.2-2.7-2-4.4-2
		c-1.8,0-3.3,0.8-4.8,2.1c-1.4,1.4-2.3,3.2-2.6,5.3H382z"/>
	<path class="st2" d="M390.5,43.7l7.8-3.2h1.4v9.6c2.1-3.5,3.9-5.9,5.4-7.4c1.7-1.5,3.3-2.1,5-2.1c0.6,0,1.5,0.2,2.4,0.5v9.2h-2.1
		c0-3.6-1.1-5.4-3.2-5.4s-3.9,1.7-5.4,5c-1.5,3.3-2.4,7.1-2.4,11.3c0,2.6,0.5,4.1,1.4,4.8c0.9,0.8,2.7,1.1,5.3,1.1v1.4h-15.4V67
		c1.7,0,2.9-0.5,3.5-1.1c0.8-0.6,1.1-1.8,1.1-3.6V47.1c0-1.8-0.6-2.6-2-2.6c-0.6,0-1.4,0.2-2.7,0.6L390.5,43.7L390.5,43.7z"/>
</g>
</svg>
