<?xml version="1.0" encoding="utf-8"?>
<!-- Generator: Adobe Illustrator 22.0.1, SVG Export Plug-In . SVG Version: 6.00 Build 0)  -->
<svg version="1.1" id="Layer_1" xmlns="http://www.w3.org/2000/svg" xmlns:xlink="http://www.w3.org/1999/xlink" x="0px" y="0px"
	 viewBox="0 0 185 185" style="enable-background:new 0 0 185 185;" xml:space="preserve">
<style type="text/css">
	.st0{fill:#F0E68C;}
	.st1{fill:#FF9100;}
</style>
<rect class="st0" width="185" height="185"/>
<g>
	<path class="st1" d="M97.4,50.6c0,0-2.9-0.7-6,1.1c0,0,0.2,0.5,1.7,0.9c1.5,0.3,2.7,0.4,2.7,0.4l0.6,0.6L96,52.7
		c0,0,0.9-0.8,0.6-1.7C96.6,51,96.7,50.7,97.4,50.6z"/>
	<g>
		<g>
			<path class="st1" d="M92.5,117.7c-27.1,0-49.2-22.1-49.2-49.2s22.1-49.2,49.2-49.2s49.2,22.1,49.2,49.2S119.6,117.7,92.5,117.7z
				 M92.5,19.8c-26.8,0-48.7,21.9-48.7,48.7s21.8,48.7,48.7,48.7c26.8,0,48.7-21.8,48.7-48.7C141.2,41.7,119.3,19.8,92.5,19.8z"/>
		</g>
	</g>
	<path class="st1" d="M121.5,100.6c1.8-0.4,3.6,0.1,5.1,0.7c8.2-8.5,13.2-20,13.2-32.8c0-26.1-21.2-47.3-47.3-47.3
		S45.2,42.4,45.2,68.5s21.2,47.3,47.3,47.3c7,0,13.7-1.5,19.6-4.3c0.7-4.6,1.4-9.2,2.1-13.8c0.3-1.9,0.7-3.9,1.1-5.8
		c0.2-1,0.4-1.9,0.6-2.9s0.5-1.9,0.8-2.9c1-3.8,1.9-7.6,2.7-11.5c0.8-3.8,1.4-7.7,1.7-11.6l0.1-1.5l0.1-0.7v-0.7l0.1-1.5v-1.5
		c0-2-0.3-3.9-0.8-5.8c-1-3.8-3-7.3-5.4-10.3c-1.2-1.5-2.6-3-4.1-4.2c-1.5-1.3-3.1-2.4-4.9-3.3c1.8,0.8,3.4,2,4.9,3.3
		s2.9,2.7,4.1,4.2c2.5,3,4.5,6.5,5.6,10.3c0.5,1.9,0.9,3.9,0.9,5.9v1.5v1.5v0.7v0.7l-0.1,1.5c-0.3,3.9-0.9,7.8-1.6,11.7
		s-1.6,7.7-2.6,11.5c-0.2,1-0.5,1.9-0.7,2.9c-0.2,0.9-0.4,1.9-0.6,2.9c-0.4,1.9-0.7,3.9-1,5.8c-0.7,4.4-1.3,8.7-1.9,13.1
		c1.6-0.8,3.1-1.6,4.6-2.5c-1.8-0.2-3-0.5-3.5-0.7c0.1-0.1,0.1-0.1,0.2-0.2c0.1-0.2,0.3-0.3,0.5-0.5c0.3-0.3,0.6-0.6,1-0.9
		s0.7-0.6,1.1-0.8c0.4-0.3,0.8-0.5,1.2-0.7c0.4-0.2,0.8-0.4,1.2-0.6c0.4-0.2,0.9-0.4,1.3-0.5c0.9-0.3,1.8-0.6,2.7-0.8
		c-0.9,0.1-1.8,0.3-2.8,0.5c-0.5,0.1-0.9,0.3-1.4,0.4c-0.4,0.2-0.9,0.3-1.3,0.5s-0.9,0.4-1.3,0.6s-0.8,0.5-1.2,0.8
		c-0.4,0.3-0.8,0.6-1.1,0.9l0,0C115.6,103.8,117.9,101.3,121.5,100.6z M92.9,24.8c-0.1,0.1-0.1,0.1-0.2,0.2c-3,2.6-5.9,5.3-8.6,8.1
		c-2.8,2.8-5.4,5.8-7.9,8.8c-2.5,3.1-4.7,6.3-6.7,9.7c2.2-3.3,4.5-6.4,7.1-9.3c2.6-2.9,5.4-5.7,8.2-8.4c2.9-2.6,5.9-5.2,8.9-7.6
		c0.2-0.2,0.5-0.4,0.7-0.6c0.2,3.5,1.8,17-6.8,27.3c-9.7,11.6-21,11.2-23.9,24.1c0,0-5.7-23.6,3.8-38.9
		C75.3,25.7,88.4,24.7,92.9,24.8z M48.6,68.5c0-18.9,12-35,28.7-41.2c-3.9,2.1-7.7,5.3-10.8,10.3c-9.6,15.5-4.2,38.8-3.9,39.8
		l0.7,2.9c0,0.2-0.1,0.5-0.1,0.7c-0.7,9.8,4.5,20.7,13.5,28.5C60.3,103.1,48.6,87.2,48.6,68.5z M111.9,110.1L111.9,110.1
		c-0.2-0.5-0.4-1-0.7-1.4c-0.2-0.5-0.5-0.9-0.8-1.3s-0.6-0.8-0.9-1.2c-0.3-0.4-0.7-0.8-1-1.1c-0.4-0.4-0.7-0.7-1.1-1.1
		c-0.7-0.7-1.5-1.3-2.4-1.9c0.8,0.6,1.5,1.3,2.2,2.1c0.3,0.4,0.7,0.7,1,1.1s0.6,0.8,0.9,1.2c0.3,0.4,0.5,0.8,0.8,1.3
		c0.2,0.4,0.5,0.9,0.6,1.3c0.2,0.4,0.4,0.9,0.5,1.4c0.1,0.2,0.1,0.5,0.2,0.7c0,0.1,0,0.2,0.1,0.3c-0.7-0.2-2.3-0.5-4.6-1.5
		c-3.4-1.5-4.8-4.2-5.5-6.5c-0.8-2.9-2.5-3.9-2.5-3.9s5.7-1.3,9.2,1.6C111.1,103.7,112.1,107.1,111.9,110.1z M114.7,93.7L114.7,93.7
		c-0.2-0.5-0.4-0.9-0.6-1.3s-0.4-0.8-0.7-1.2c-0.3-0.4-0.5-0.7-0.8-1.1c-0.3-0.3-0.6-0.7-0.9-1s-0.6-0.6-1-0.9
		c-0.7-0.6-1.3-1.1-2.1-1.7c0.7,0.6,1.3,1.2,1.9,1.8c0.3,0.3,0.6,0.7,0.9,1s0.5,0.7,0.8,1.1c0.2,0.4,0.5,0.7,0.7,1.1
		s0.4,0.8,0.6,1.2c0.2,0.4,0.3,0.8,0.4,1.2c0.1,0.2,0.1,0.4,0.2,0.6c0,0.1,0,0.2,0,0.2c-0.6-0.1-2-0.3-4-1.2c-3-1.3-4.3-3.7-4.8-5.7
		c-0.7-2.6-2.2-3.5-2.2-3.5s5-1.2,8.1,1.4C114,88,114.9,91,114.7,93.7z M117.8,78.7L117.8,78.7c-0.1-0.4-0.2-0.8-0.3-1.2
		c-0.1-0.4-0.2-0.8-0.4-1.2c-0.1-0.4-0.3-0.8-0.5-1.1c-0.2-0.4-0.4-0.7-0.6-1.1c-0.2-0.3-0.4-0.7-0.7-1c-0.5-0.7-1-1.3-1.5-1.9
		c0.5,0.6,0.9,1.3,1.3,2c0.2,0.3,0.4,0.7,0.6,1.1c0.2,0.4,0.3,0.7,0.5,1.1c0.1,0.4,0.3,0.7,0.4,1.1c0.1,0.4,0.2,0.8,0.3,1.1
		c0.1,0.4,0.1,0.8,0.1,1.2c0,0.2,0,0.4,0,0.6c0,0.1,0,0.1,0,0.2c-0.5-0.2-1.7-0.7-3.3-1.9c-2.4-1.8-3-4.2-3.1-6
		c-0.1-2.4-1.2-3.5-1.2-3.5s4.7,0,6.9,2.9C118.3,73.5,118.4,76.4,117.8,78.7z M120.9,60.6C120.8,60.6,120.8,60.6,120.9,60.6
		c-0.3-0.3-0.5-0.5-0.8-0.7s-0.5-0.4-0.8-0.6c-0.3-0.2-0.6-0.3-0.8-0.5c-0.3-0.2-0.6-0.3-0.9-0.4c-0.3-0.1-0.6-0.2-0.9-0.3
		c-0.6-0.2-1.2-0.4-1.9-0.5c0.6,0.2,1.2,0.4,1.8,0.7c0.3,0.1,0.6,0.3,0.9,0.4c0.3,0.2,0.6,0.3,0.8,0.5c0.3,0.2,0.5,0.4,0.8,0.5
		c0.3,0.2,0.5,0.4,0.7,0.6c0.2,0.2,0.4,0.4,0.6,0.7c0.1,0.1,0.2,0.2,0.3,0.4l0.1,0.1c-0.4,0.1-1.4,0.4-3,0.4c-2.4,0-3.9-1.2-4.9-2.4
		c-1.2-1.5-2.5-1.7-2.5-1.7s3-2.3,5.8-1.5C118.7,57,120.2,58.8,120.9,60.6z M112.7,42.1c1.8-0.2,3.2,0.7,4.1,1.7l0,0
		c-0.2-0.1-0.4-0.2-0.7-0.2c-0.2-0.1-0.4-0.1-0.7-0.2c-0.2,0-0.5-0.1-0.7-0.1s-0.5,0-0.7-0.1c-0.2,0-0.5,0-0.7,0
		c-0.5,0-0.9,0.1-1.4,0.1c0.5,0,0.9,0,1.4,0c0.2,0,0.4,0,0.7,0.1c0.2,0,0.4,0.1,0.7,0.1c0.2,0,0.4,0.1,0.6,0.2
		c0.2,0.1,0.4,0.1,0.6,0.2c0.2,0.1,0.4,0.2,0.6,0.3c0.1,0.1,0.2,0.1,0.3,0.2c0,0,0.1,0,0.1,0.1c-0.3,0.2-0.8,0.6-1.9,1
		c-1.6,0.6-2.9,0.2-3.8-0.3c-1.2-0.7-2-0.5-2-0.5S110.6,42.3,112.7,42.1z M108.5,66c-1.6,2.4-4.8,2.7-5.4,3.4
		c-0.6,0.7-0.3,2.1,0.3,3c0.5,0.9,0.9,2,0.2,3.1c-0.5,0.8-1.3,0.9-1.8,1.1c-0.9,0-2.9,0.1-3.8,0c0.8,0.2,2.8,0.6,3.6,0.8
		c0.5,0.4,1.5,1.2,1.1,2.4c-0.5,1.5-1.6,2.2-2,3c-0.3,0.7,1.2,3.6,0.7,6.1c-0.4,2.6-3.2,5.4-6.8,4.8C92,93.2,90,92.6,88,92.2
		c-3.5-0.9-7.1-2.1-10.4-3.7c-1.7-0.8-3.4-1.8-4.8-3.1c-0.7-0.7-1.3-1.4-1.7-2.3s-0.5-1.9-0.4-2.8c-0.2,0.9-0.2,2,0.2,2.9
		s1,1.7,1.6,2.4c1.4,1.4,3,2.5,4.7,3.4c2,1.1,4,2,6.1,2.8c-4.3,1.2-7.3,8.4-3.9,18.4C62.5,97.3,58,74.1,74.5,65
		c8.1-4.5,13.6-9.7,17-15.9c1.4-0.1,2.7-0.9,4.1-1.1c1.7-0.3,2.6,0.9,2.6,0.9l0.9-1.1c0,0-2.5-1.4-4.6-0.2c-0.9,0.5-2,0.9-2.9,1.1
		c3.3-6.2,4.5-13.4,4.1-21.8c0,0,3.7,10.9,4,14.6c0.2,3.5,0.6,4.5-0.1,6.7c0.2,0,0.3,0,0.4-0.1c0.3-0.1,0.7-0.3,0.9-0.5
		c0.3-0.2,0.4-0.6,0.6-1c-0.1,0.4-0.2,0.8-0.5,1.1c-0.2,0.3-0.6,0.5-0.9,0.7c-0.2,0.1-0.4,0.1-0.5,0.2c0.2,0.1,0.4,0.1,0.6,0.1
		c0.4,0,0.8,0,1.2-0.2s0.7-0.5,1-0.8c-0.3,0.3-0.5,0.7-0.9,0.9s-0.8,0.4-1.2,0.4c-0.3,0-0.5,0-0.8-0.1c-0.8,2.5,3,6.4,4.7,9
		C106.1,60.7,110.1,63.6,108.5,66z M121.8,52c0-0.1,0-0.1,0-0.2c0-0.1,0.1-0.3,0.1-0.4c0.1-0.3,0.2-0.6,0.3-0.8
		c0.1-0.3,0.2-0.6,0.3-0.8c0.1-0.3,0.3-0.5,0.4-0.8c0.2-0.3,0.3-0.5,0.5-0.8c0.2-0.2,0.4-0.5,0.6-0.7c0.4-0.5,0.8-0.9,1.2-1.3
		c-0.5,0.4-0.9,0.8-1.4,1.2c-0.2,0.2-0.4,0.4-0.6,0.7c-0.2,0.2-0.4,0.5-0.6,0.7c-0.2,0.3-0.3,0.5-0.5,0.8s-0.3,0.5-0.4,0.8
		s-0.3,0.6-0.3,0.9l0,0c-0.2-1.8,0.3-4,2.1-5.6c2-1.9,5.6-1.3,5.6-1.3s-1,0.7-1.4,2.5c-0.3,1.4-1.1,3.1-3.1,4.1
		C123.1,51.7,122.2,52,121.8,52z M124.3,62.6c2.8-2.5,7.5-1.7,7.5-1.7s-1.3,0.9-1.8,3.3c-0.4,1.9-1.5,4.2-4.2,5.6
		c-1.9,0.9-3.1,1.2-3.7,1.3c0-0.1,0-0.1,0-0.2c0-0.2,0.1-0.4,0.1-0.6c0.1-0.4,0.2-0.8,0.3-1.1c0.1-0.4,0.3-0.7,0.5-1.1
		c0.2-0.4,0.4-0.7,0.6-1.1c0.2-0.4,0.4-0.7,0.7-1c0.2-0.3,0.5-0.7,0.7-1c0.5-0.6,1.1-1.2,1.7-1.8c-0.6,0.5-1.3,1.1-1.8,1.7
		c-0.3,0.3-0.6,0.6-0.8,0.9c-0.3,0.3-0.5,0.6-0.8,1c-0.2,0.3-0.5,0.7-0.7,1.1s-0.4,0.7-0.6,1.1s-0.3,0.8-0.5,1.2l0,0
		C121.3,67.8,121.9,64.9,124.3,62.6z M122.8,87.3c-0.4,0.1-0.8,0.2-1.2,0.4c-0.4,0.1-0.8,0.3-1.2,0.5c-0.4,0.2-0.8,0.4-1.1,0.6
		c-0.4,0.2-0.7,0.4-1.1,0.7c-0.3,0.2-0.7,0.5-1,0.8l0,0c1-2.2,3-4.4,6.2-5.1c3.7-0.8,7.3,2.3,7.3,2.3s-1.6,0.1-3.3,1.9
		c-1.3,1.4-3.4,2.8-6.4,2.7c-2.1-0.1-3.3-0.5-3.9-0.7c0-0.1,0.1-0.1,0.1-0.2c0.1-0.1,0.3-0.3,0.4-0.4c0.3-0.3,0.6-0.6,0.9-0.8
		c0.3-0.3,0.6-0.5,1-0.7c0.3-0.2,0.7-0.4,1-0.6c0.4-0.2,0.7-0.4,1.1-0.5c0.4-0.2,0.8-0.3,1.1-0.5c0.8-0.3,1.6-0.5,2.4-0.7
		C124.4,86.9,123.6,87.1,122.8,87.3z"/>
</g>
<g>
	<path d="M31.3,151.6c-0.4-0.4-0.7-0.8-0.9-1.2c-0.2-0.4-0.3-0.8-0.3-1.3c0-1.2,0.6-2.2,1.7-3.2c1.1-0.9,2.4-1.3,3.9-1.3
		c0.8,0,1.7,0.2,3,0.6v4h-0.9c-0.1-1.1-0.4-2-1-2.7s-1.3-1-2.2-1c-0.7,0-1.3,0.2-1.8,0.6c-0.5,0.4-0.7,1-0.7,1.7s0.3,1.3,0.7,1.8
		c0.4,0.6,1.5,1.4,3.3,2.6c1.3,0.9,2.2,1.6,2.7,2.2c0.4,0.6,0.7,1.2,0.7,2.1c0,1.3-0.6,2.5-1.8,3.5c-1.2,1-2.6,1.5-4.2,1.5
		c-1.1,0-2.4-0.3-3.7-0.8v-4.6h0.9c0,1.3,0.4,2.4,1.1,3.2c0.8,0.8,1.6,1.3,2.6,1.3c1,0,1.7-0.3,2.2-0.8c0.5-0.6,0.8-1.2,0.8-2.1
		c0-0.7-0.2-1.3-0.6-1.9c-0.4-0.6-1.5-1.3-3.1-2.4C32.8,152.7,32,152.1,31.3,151.6z"/>
	<path d="M44.4,160.8v3c0,0.8,0.1,1.3,0.4,1.5c0.3,0.3,0.8,0.4,1.5,0.4v0.6h-5.8v-0.6c0.7,0,1.2-0.2,1.5-0.4
		c0.3-0.3,0.5-0.8,0.5-1.5v-12.1c0-0.6-0.3-1-0.8-1c-0.2,0-0.6,0.1-1.2,0.3v-0.6l3.2-1.3h0.6v4.1c1.2-1.7,2.2-2.8,3-3.3
		c0.8-0.6,1.5-0.8,2.3-0.8c1,0,1.9,0.4,2.6,1.3c0.7,0.8,1.1,2,1.1,3.4c0,2-0.6,3.7-2,5.3c-1.3,1.5-2.8,2.3-4.4,2.3
		c-0.4,0-0.8-0.1-1.2-0.1C45.3,161.1,44.8,161,44.4,160.8z M44.4,159.1c0.6,0.4,1.2,0.8,1.7,1.1c0.5,0.3,1,0.4,1.5,0.4
		c1.1,0,2-0.5,2.8-1.6c0.8-1.1,1.2-2.4,1.2-4.1c0-1.3-0.3-2.3-0.8-3.1c-0.5-0.8-1.2-1.2-2-1.2c-1.1,0-2.1,0.7-3,2.1
		c-0.9,1.4-1.4,3.1-1.4,4.9C44.3,158,44.3,158.5,44.4,159.1z"/>
	<path d="M55.8,151c1.9-1.3,3.8-1.9,5.5-1.9c0.8,0,1.4,0.2,1.7,0.5c0.4,0.4,0.5,1,0.5,1.8v7.9c0,0.4,0.2,0.6,0.5,0.6
		c0.3,0,0.9-0.4,1.8-1.2v0.8c-1.3,1.3-2.3,1.9-3.1,1.9c-0.7,0-1.1-0.4-1.1-1.2v-1.9c-1,1.1-1.9,1.9-2.7,2.4
		c-0.7,0.5-1.4,0.7-2.1,0.7c-0.6,0-1.2-0.3-1.6-0.8c-0.4-0.5-0.6-1.1-0.6-1.8c0-1.8,2.3-3.8,7.1-5.9v-1.5c0-0.4-0.1-0.8-0.4-1.2
		c-0.3-0.3-0.6-0.4-1.2-0.4c-0.8,0-1.6,0.4-2.2,1.2c-0.6,0.8-1,1.8-1.2,3h-0.8L55.8,151L55.8,151z M61.8,153.9
		c-1.5,0.3-2.8,0.9-3.8,1.7c-1,0.8-1.5,1.6-1.5,2.4c0,0.5,0.2,1,0.5,1.3s0.8,0.4,1.3,0.4c1,0,1.8-0.5,2.4-1.5
		C61.4,157.2,61.8,155.7,61.8,153.9z"/>
	<path d="M68.4,144.8h4.4v0.6c-0.3,0-0.4,0.1-0.4,0.4c0,0.1,0,0.1,0.1,0.3l4,11.9l2.1-5.3c0.6-1.5,0.9-3,0.9-4.4
		c0-1.8-0.7-2.7-2.1-2.8v-0.6h4.5v0.6c-0.4,0-0.5,0.1-0.5,0.4c0,0.1,0,0.2,0.1,0.3l4,11.9l2.6-6.6c0.8-2,1.2-3.5,1.2-4.3
		c0-0.6-0.1-1.1-0.4-1.3c-0.3-0.3-0.8-0.4-1.6-0.4v-0.6h5.7v0.6c-0.5,0-1,0.3-1.4,0.9c-0.4,0.6-0.9,1.5-1.3,2.6l-5.1,12.7h-0.8
		l-3.6-10.7c-0.8,1.5-1.5,2.8-2,4.1l-2.6,6.6h-0.7L71,149c-0.1-0.2-0.3-0.7-0.6-1.5s-0.7-1.4-1-1.7c-0.3-0.3-0.6-0.4-0.9-0.4v-0.6
		H68.4z"/>
	<path d="M98,149.1c1.6,0,2.9,0.5,3.9,1.5c1,1,1.4,2.3,1.4,4c0,2-0.6,3.6-2,4.9c-1.3,1.3-2.8,1.9-4.4,1.9c-1.6,0-2.9-0.5-3.8-1.5
		c-0.9-1-1.4-2.3-1.4-4c0-1.9,0.6-3.5,2-4.9C95,149.8,96.4,149.1,98,149.1z M96.9,150.1c-1.2,0-2.1,0.4-2.6,1.2s-0.9,1.9-0.9,3.1
		c0,1.5,0.4,2.9,1.4,4c1,1.2,2.1,1.8,3.3,1.8c1,0,1.7-0.4,2.4-1.2c0.6-0.8,1-1.8,1-3.1c0-1.2-0.3-2.2-0.8-3.1
		c-0.5-0.9-1.1-1.6-1.8-2.1C98.3,150.3,97.6,150.1,96.9,150.1z"/>
	<path d="M104.5,150.4l3.3-1.3h0.5v4.2c1.2-1.6,2.2-2.7,3-3.3c0.8-0.6,1.5-0.9,2.2-0.9c1.4,0,2.1,0.9,2.1,2.8v6.6
		c0,0.8,0.1,1.3,0.4,1.5c0.3,0.3,0.8,0.4,1.5,0.4v0.6h-4.4v-0.6c0.4,0,0.5-0.2,0.5-0.6V152c0-0.4-0.1-0.8-0.3-1
		c-0.2-0.3-0.5-0.4-0.9-0.4c-1.1,0-2.1,0.8-3,2.2c-0.9,1.5-1.3,3.2-1.3,5.2c0,1,0.1,1.6,0.4,1.9s0.8,0.5,1.6,0.5v0.6h-5.7v-0.6
		c0.7,0,1.2-0.2,1.5-0.4c0.3-0.3,0.4-0.8,0.4-1.5V152c0-0.8-0.3-1.2-0.8-1.2c-0.2,0-0.6,0.1-1.1,0.3L104.5,150.4L104.5,150.4z"/>
	<path d="M125.7,144.8l4.4-1.7v0.5c-0.4,0.1-0.5,0.4-0.5,0.8v14.2c0,0.7,0.3,1,0.9,1c0.3,0,0.6-0.1,1-0.3v0.6l-3.3,1.3h-0.6v-4.1
		c-1.5,1.9-2.5,3-3.2,3.5s-1.3,0.6-2,0.6c-1.1,0-2-0.5-2.7-1.5c-0.7-1-1-2.1-1-3.4c0-1.8,0.6-3.5,2-5c1.3-1.5,2.8-2.4,4.4-2.4
		c0.4,0,0.8,0.1,1.2,0.2c0.4,0.1,0.9,0.3,1.4,0.5v-3.5c0-0.7-0.3-1.1-0.8-1.1c-0.3,0-0.6,0.1-1.1,0.3V144.8z M127.6,151.4
		c-0.6-0.5-1.2-0.8-1.7-1.1c-0.6-0.3-1.1-0.4-1.7-0.4c-1.1,0-1.9,0.6-2.6,1.7s-1,2.4-1,3.8c0,1.2,0.3,2.2,0.8,3
		c0.6,0.8,1.2,1.2,2.1,1.2c1.2,0,2.1-0.8,3-2.2c0.8-1.5,1.2-3,1.2-4.5C127.8,152.4,127.7,151.9,127.6,151.4z"/>
	<path d="M142.5,157.9c-1.9,2.4-3.7,3.5-5.5,3.5c-1.3,0-2.4-0.5-3.3-1.7c-1-1.1-1.4-2.4-1.4-3.9c0-1.7,0.6-3.3,1.7-4.7
		c1.2-1.4,2.5-2.1,4-2.1c1.2,0,2.2,0.4,3,1.3c0.7,0.9,1.1,2,1.2,3.2h-8.2c0,0.3,0,0.6,0,0.7c0,1.5,0.4,2.8,1.2,3.7
		c0.8,1,1.8,1.5,3,1.5c1.5,0,3-0.9,4.4-2.6L142.5,157.9L142.5,157.9z M140,153c-0.1-1-0.4-1.8-1-2.3c-0.6-0.5-1.2-0.8-1.9-0.8
		c-0.8,0-1.4,0.3-2.1,0.9c-0.6,0.6-1,1.3-1.1,2.2H140z"/>
	<path d="M143.6,150.4l3.3-1.3h0.6v4.1c0.9-1.5,1.7-2.5,2.3-3.1c0.7-0.6,1.4-0.9,2.1-0.9c0.3,0,0.6,0.1,1,0.2v3.9h-0.9
		c0-1.5-0.4-2.3-1.3-2.3s-1.7,0.7-2.3,2.1c-0.6,1.4-1,3-1,4.8c0,1.1,0.2,1.7,0.6,2.1c0.4,0.3,1.2,0.4,2.2,0.4v0.6h-6.6v-0.6
		c0.7,0,1.2-0.2,1.5-0.4c0.3-0.3,0.4-0.8,0.4-1.5v-6.5c0-0.8-0.3-1.1-0.8-1.1c-0.3,0-0.6,0.1-1.2,0.3V150.4L143.6,150.4z"/>
</g>
</svg>
