<?xml version="1.0" encoding="utf-8"?>
<!-- Generator: Adobe Illustrator 22.0.1, SVG Export Plug-In . SVG Version: 6.00 Build 0)  -->
<svg version="1.1" id="Layer_1" xmlns="http://www.w3.org/2000/svg" xmlns:xlink="http://www.w3.org/1999/xlink" x="0px" y="0px"
	 viewBox="0 0 53.7 70" style="enable-background:new 0 0 53.7 70;" xml:space="preserve">
<style type="text/css">
	.st0{opacity:0.5;}
</style>
<path class="st0" d="M35.2,59.1c0,0,2.8-2.9-1.3-10.7c-4-7.8,1.1-9.3,2.6-9c1.5,0.3,2.7,2,1.5,3.3c0,0,2.1-0.4,1.5-2.6
	c-0.5-2.1-3.2-3.3-6.1-2.2c-4.9,1.8-5.3,7.8-1.1,12.6C36.6,55.1,35.2,59.1,35.2,59.1z"/>
<path class="st0" d="M45.2,56.7c-1.1,5.2-5.8,6.5-5.8,6.5c4.9-0.4,7-4.9,7.6-6.3c0.6-1.5,2.9-2.2,3.9-0.5c0.5,0.8,0.4,1.8,0.1,2.4
	c-0.7,1.2-2.4,1.6-2.4,1.6c2.9,0.3,4.9-1.7,3.8-4.7C51.6,53,46.3,51.5,45.2,56.7z"/>
<path class="st0" d="M49.2,61.5c-2.2-0.1-3.5,0.4-6.2,1.9s-7,1.1-7,1.1c2.1,0.6,4.5,0.5,6.7-0.1c2.2-0.5,3.5-1.3,6.7-1.3
	c3.1,0,4.4,1.8,4.4,1.8C53.2,62.6,51.3,61.6,49.2,61.5z"/>
<path class="st0" d="M10.1,52.5c0.1,2.8,0.9,6.9,4.1,9.6c3.4,2.8,7.6,2.3,10.3,1.5c0.4,0.9,1.3,1.6,2.3,1.6c1.1,0,1.9-0.6,2.3-1.6
	c2.7,0.8,6.9,1.3,10.3-1.5c3.2-2.6,4-6.8,4.1-9.6c1.9-0.6,3.2-2.4,3.2-4.4c0-2.6-2.1-4.7-4.7-4.7c-1.3,0-2.4,0.5-3.2,1.3l0,0
	c-0.1,0.1-0.1,0.2-0.2,0.3c-0.8,0.8-1.2,1.9-1.2,3.1v0.1c-0.2,3,1.8,6.1-0.1,10.4c-1.8,4.2-5.4,4.7-8,4.5c0-0.1,0-0.3,0-0.4
	c0-0.1,0-0.2,0-0.3c3.1,0,5.4-1.3,5.5-3.4c0.1-1.7-1.3-3.1-2.8-3.4c-2.9-0.5-3.5-1.3-3.5-1.3c0.5,2.5,4.1,1.8,4.1,4.9
	c0,1.9-1.9,2.6-3.4,2.9c-0.3-1-1.3-1.8-2.4-1.8s-2.1,0.8-2.4,1.8c-1.5-0.3-3.4-1-3.4-2.9c0-3.1,3.6-2.4,4.1-4.9c0,0-0.7,0.8-3.5,1.3
	c-1.5,0.3-2.8,1.7-2.8,3.4c0.1,2.1,2.4,3.5,5.5,3.4c0,0.1,0,0.2,0,0.3s0,0.3,0,0.4c-2.6,0.2-6.2-0.3-8-4.5
	c-1.9-4.3,0.1-7.4-0.1-10.4c0,0,0,0,0-0.1c0-1.2-0.5-2.3-1.2-3.1c0-0.2-0.1-0.3-0.1-0.4l0,0c-0.8-0.8-2-1.3-3.2-1.3
	C9.1,43.3,7,45.4,7,48C6.9,50.1,8.3,51.8,10.1,52.5z M39.8,52.7c-0.6-6.5,2-6.6,2.7-6.8c1.2-0.3,2.9,0.9,2.6,3.1
	c0,0-0.8-1.3-2.2-0.9c-2.2,0.6-1.7,3.7-1.7,5.9s-0.8,6.9-4.7,8.1C36.6,62.1,40.4,59.2,39.8,52.7z M11.2,45.9
	c0.7,0.2,3.3,0.3,2.7,6.8s3.2,9.4,3.2,9.4c-3.8-1.3-4.7-6-4.7-8.1c0-2.2,0.5-5.3-1.7-5.9C9.3,47.7,8.5,49,8.5,49
	C8.3,46.8,10.1,45.6,11.2,45.9z"/>
<path class="st0" d="M15.6,42.7c-1.2-1.3,0-2.9,1.5-3.3c1.5-0.3,6.7,1.2,2.6,9s-1.3,10.7-1.3,10.7s-1.4-4,2.8-8.7s3.8-10.7-1.1-12.6
	c-2.9-1.1-5.6,0.2-6.1,2.3C13.5,42.3,15.6,42.7,15.6,42.7z"/>
<path class="st0" d="M5.1,60.4c0,0-1.7-0.4-2.4-1.6c-0.3-0.6-0.4-1.6,0.1-2.4c1-1.7,3.3-1,3.9,0.5s2.8,5.9,7.6,6.3
	c0,0-4.7-1.3-5.8-6.5s-6.3-3.8-7.2-1.1C0.2,58.6,2.1,60.7,5.1,60.4z"/>
<path class="st0" d="M4.4,63.1c3.2,0,4.5,0.8,6.7,1.3s4.6,0.7,6.7,0.1c0,0-4.2,0.4-7-1.1s-4.1-2-6.2-1.9c-2.2,0.1-4,1.1-4.5,3.4
	C0,64.9,1.3,63.1,4.4,63.1z"/>
<polygon class="st0" points="53.2,65.6 49.5,65.6 45.7,65.6 45.7,65.6 41.9,65.6 41.9,65.6 38.2,65.6 38.1,65.6 34.4,65.6 
	34.4,65.6 30.7,65.6 30.6,65.6 26.8,65.6 26.8,65.6 23.1,65.6 23,65.6 19.3,65.6 19.3,65.6 15.6,65.6 15.5,65.6 11.8,65.6 
	11.8,65.6 8,65.6 8,65.6 4.2,65.6 4.2,65.6 0.5,65.6 0.4,65.6 0,65.6 0,66.1 0.4,66.1 0.5,66.1 4.2,66.1 4.2,66.1 8,66.1 8,66.1 
	11.8,66.1 11.8,66.1 15.5,66.1 15.6,66.1 19.3,66.1 19.3,66.1 23,66.1 23.1,66.1 26.8,66.1 26.8,66.1 30.6,66.1 30.7,66.1 
	34.4,66.1 34.4,66.1 38.1,66.1 38.2,66.1 41.9,66.1 41.9,66.1 45.7,66.1 45.7,66.1 49.5,66.1 53.2,66.1 53.3,66.1 53.7,66.1 
	53.7,65.6 53.3,65.6 "/>
<rect y="67.3" class="st0" width="53.7" height="2.7"/>
<path class="st0" d="M32.3,19.5c-4.2,4.8-3.8,10.8,1.1,12.6c2.9,1.1,5.6-0.1,6.1-2.2c0.6-2.2-1.5-2.6-1.5-2.6c1.2,1.3,0,3-1.5,3.3
	c-1.5,0.3-6.6-1.2-2.6-9c4.1-7.8,1.3-10.7,1.3-10.7S36.6,14.9,32.3,19.5z"/>
<path class="st0" d="M52.4,14.3c1.1-3-0.9-5-3.8-4.7c0,0,1.7,0.4,2.4,1.6c0.3,0.6,0.4,1.6-0.1,2.4c-1,1.7-3.3,1-3.9-0.5
	c-0.6-1.4-2.7-5.9-7.6-6.3c0,0,4.7,1.3,5.8,6.5S51.6,17,52.4,14.3z"/>
<path class="st0" d="M53.8,5.1c0,0-1.3,1.8-4.4,1.8c-3.2,0-4.5-0.8-6.7-1.3C40.5,5,38.1,4.9,36,5.5c0,0,4.3-0.4,7,1.1s4,2,6.2,1.9
	C51.3,8.4,53.2,7.4,53.8,5.1z"/>
<path class="st0" d="M7,22c0,2.6,2.1,4.7,4.7,4.7c1.2,0,2.4-0.5,3.2-1.3l0,0c0-0.1,0.1-0.2,0.1-0.4c0.7-0.8,1.2-1.9,1.2-3.1
	c0-0.1,0-0.1,0-0.1c0.2-3-1.8-6.1,0.1-10.4c1.8-4.2,5.4-4.7,8-4.5c0,0.1,0,0.3,0,0.4c0,0.1,0,0.2,0,0.3c-3.1-0.1-5.4,1.3-5.5,3.4
	c0,1.7,1.3,3.1,2.8,3.4c2.8,0.5,3.5,1.3,3.5,1.3c-0.5-2.5-4.1-1.8-4.1-4.9c0-1.9,1.9-2.6,3.4-2.9c0.3,1,1.3,1.8,2.4,1.8
	s2.1-0.8,2.4-1.8c1.5,0.3,3.4,1,3.4,2.9c0,3.1-3.6,2.4-4.1,4.9c0,0,0.6-0.8,3.5-1.3c1.5-0.3,2.9-1.7,2.8-3.4
	c-0.1-2.1-2.4-3.4-5.5-3.4c0-0.1,0-0.2,0-0.3s0-0.3,0-0.4c2.6-0.2,6.2,0.3,8,4.5c1.9,4.3-0.1,7.4,0.1,10.4v0.1
	c0,1.2,0.4,2.3,1.2,3.1c0.1,0.1,0.1,0.2,0.2,0.3l0,0c0.8,0.8,1.9,1.3,3.2,1.3c2.6,0,4.7-2.1,4.7-4.7c0-2-1.3-3.8-3.2-4.4
	c-0.1-2.8-0.9-7-4.1-9.6C36,5.1,31.8,5.6,29.1,6.4c-0.4-1-1.2-1.6-2.3-1.6c-1,0-1.9,0.7-2.3,1.6c-2.7-0.8-6.9-1.3-10.3,1.5
	c-3.2,2.7-4,6.8-4.1,9.6C8.3,18.2,6.9,19.9,7,22z M36.5,7.9c3.9,1.2,4.7,5.9,4.7,8.1s-0.5,5.3,1.7,5.9c1.4,0.4,2.2-0.9,2.2-0.9
	c0.3,2.2-1.4,3.4-2.6,3.1c-0.7-0.2-3.3-0.3-2.7-6.8C40.4,10.8,36.6,7.9,36.5,7.9z M8.5,21c0,0,0.8,1.3,2.2,0.9
	c2.2-0.6,1.7-3.7,1.7-5.9c0-2.1,0.9-6.8,4.7-8.1c0,0-3.8,2.9-3.2,9.4s-2,6.6-2.7,6.8C10.1,24.4,8.3,23.2,8.5,21z"/>
<path class="st0" d="M14,29.9c0.5,2.1,3.2,3.4,6.1,2.3c4.9-1.9,5.3-7.9,1.1-12.6s-2.8-8.7-2.8-8.7s-2.8,2.9,1.3,10.7s-1.1,9.3-2.6,9
	c-1.5-0.4-2.7-2-1.5-3.3C15.6,27.3,13.5,27.7,14,29.9z"/>
<path class="st0" d="M1.3,14.4c0.9,2.7,6.1,4.1,7.2-1.1s5.8-6.5,5.8-6.5c-4.8,0.4-7,4.8-7.6,6.3s-2.9,2.2-3.9,0.5
	c-0.5-0.8-0.4-1.8-0.1-2.4C3.4,10,5.1,9.6,5.1,9.6C2.1,9.3,0.2,11.4,1.3,14.4z"/>
<path class="st0" d="M0.1,5.1c0.5,2.3,2.3,3.3,4.5,3.4C6.7,8.6,8,8.1,10.8,6.6s7-1.1,7-1.1c-2.1-0.6-4.5-0.4-6.7,0.1
	S7.6,6.9,4.4,6.9C1.3,6.9,0,5.1,0.1,5.1z"/>
<polygon class="st0" points="53.3,4.4 53.7,4.4 53.7,3.9 53.3,3.9 53.2,3.9 49.5,3.9 45.7,3.9 45.7,3.9 41.9,3.9 41.9,3.9 38.2,3.9 
	38.1,3.9 34.4,3.9 34.4,3.9 30.7,3.9 30.6,3.9 26.8,3.9 26.8,3.9 23.1,3.9 23,3.9 19.3,3.9 19.3,3.9 15.6,3.9 15.5,3.9 11.8,3.9 
	11.8,3.9 8,3.9 8,3.9 4.2,3.9 4.2,3.9 0.5,3.9 0.4,3.9 0,3.9 0,4.4 0.4,4.4 0.5,4.4 4.2,4.4 4.2,4.4 8,4.4 8,4.4 11.8,4.4 11.8,4.4 
	15.5,4.4 15.6,4.4 19.3,4.4 19.3,4.4 23,4.4 23.1,4.4 26.8,4.4 26.8,4.4 30.6,4.4 30.7,4.4 34.4,4.4 34.4,4.4 38.1,4.4 38.2,4.4 
	41.9,4.4 41.9,4.4 45.7,4.4 45.7,4.4 49.5,4.4 53.2,4.4 "/>
<rect class="st0" width="53.7" height="2.7"/>
<circle class="st0" cx="26.9" cy="35" r="2.5"/>
<path class="st0" d="M53.7,44.5c-5.2,0-9.5-4.3-9.5-9.5s4.3-9.5,9.5-9.5V44.5z"/>
<path class="st0" d="M0,44.5c5.2,0,9.5-4.3,9.5-9.5S5.2,25.5,0,25.5L0,44.5z"/>
</svg>
