<?xml version="1.0" encoding="utf-8"?>
<!-- Generator: Adobe Illustrator 22.0.1, SVG Export Plug-In . SVG Version: 6.00 Build 0)  -->
<svg version="1.1" id="Layer_1" xmlns="http://www.w3.org/2000/svg" xmlns:xlink="http://www.w3.org/1999/xlink" x="0px" y="0px"
	 viewBox="0 0 40 38" style="enable-background:new 0 0 40 38;" xml:space="preserve">
<style type="text/css">
	.st0{opacity:0.5;fill:none;stroke:#000000;stroke-width:2;stroke-miterlimit:10;enable-background:new    ;}
	.st1{opacity:0.5;}
	.st2{fill:none;stroke:#000000;stroke-width:2;stroke-miterlimit:10;}
</style>
<line class="st0" x1="0" y1="3.4" x2="40" y2="3.4"/>
<line class="st0" x1="0" y1="34.6" x2="40" y2="34.6"/>
<g class="st1">
	<g>
		<path d="M19.8,11.3l7.8,7.8l-7.8,7.8L12,19.1L19.8,11.3 M19.8,8.4l-1.4,1.4l-7.8,7.8L9.2,19l1.4,1.4l7.8,7.8l1.4,1.4l1.4-1.4
			l7.8-7.8l1.4-1.4L29,17.6l-7.8-7.8L19.8,8.4L19.8,8.4z"/>
	</g>
	<g>
		<polyline class="st2" points="23.9,30.7 33.3,21.3 40,21.3 		"/>
		<polyline class="st2" points="23.9,7.3 33.3,16.7 40,16.7 		"/>
	</g>
	<g>
		<polyline class="st2" points="16.1,30.7 6.7,21.3 0,21.3 		"/>
		<polyline class="st2" points="16.1,7.3 6.7,16.7 0,16.7 		"/>
	</g>
</g>
</svg>
