<?xml version="1.0" encoding="utf-8"?>
<!-- Generator: Adobe Illustrator 22.0.1, SVG Export Plug-In . SVG Version: 6.00 Build 0)  -->
<svg version="1.1" id="Layer_1" xmlns="http://www.w3.org/2000/svg" xmlns:xlink="http://www.w3.org/1999/xlink" x="0px" y="0px"
	 viewBox="0 0 66.8 24.2" style="enable-background:new 0 0 66.8 24.2;" xml:space="preserve">
<style type="text/css">
	.st0{opacity:0.5;}
</style>
<path class="st0" d="M46.4,16.9c-1.2-0.2-2.5,0.1-3.7,0.8c-1.6,1-3.1,1.9-5.1,1.9c-0.5,0-1-0.1-1.5-0.2c0.4,0,0.9-0.1,1.4-0.3
	c0.7-0.3,1.3-0.8,1.8-1.5c1.9-1.1,3.5-2.3,5.2-3.7c2-1.5,5.3-3.1,7.8-1.7c1.1,0.6,2,2.1,0.9,3.2c-0.5,0.5-1.4,0.8-2.1,0.6
	c-0.5-0.1-1.1-0.6-1-1.2c0.3,0.1,1.2,0.2,1.4-0.7c0.3-0.8-0.7-1.4-1.7-1.2c-1.4,0.2-1.7,2-1.3,3.1c1.1,2.9,5.9,2.2,6.9-0.5
	c0.5-1.3,0.1-3-1.4-4.1c-1.7-1.3-4.7-1.6-7.6-0.2c-2,0.9-3.7,2.5-5.5,4c1-2.3,1.8-5.7,4.7-5.8c1.2,0,2.3,1,3.3-0.3
	c1-1.2,0.5-2.8-0.9-3.8c-1.5-1.1-3.4-0.7-4.9,0.5c-2,1.5-2.9,4-3.4,6.3c-0.2,0.7-0.4,1.4-0.6,2.1c0-0.8-0.1-1.6-0.4-2.4
	C38,10.2,36.8,9.3,35.8,8s-1.5-2.6-1.5-4.3c-0.4,0.8-0.8,1.7-1,2.6c-0.2-0.9-0.6-1.7-1-2.6c0,1.7-0.5,3-1.5,4.3s-2.2,2.1-2.7,3.7
	c-0.2,0.8-0.4,1.6-0.4,2.4c-0.3-0.7-0.5-1.4-0.6-2.1c-0.6-2.4-1.5-4.8-3.4-6.3c-1.5-1.2-3.5-1.6-4.9-0.5c-1.5,1.1-2,2.7-1,3.8
	c1.1,1.3,2.2,0.3,3.3,0.3c2.9,0,3.7,3.4,4.7,5.8c-1.8-1.4-3.5-3-5.5-4c-3-1.4-5.9-1.1-7.6,0.2c-1.5,1.2-1.9,2.8-1.4,4.1
	c1,2.6,5.8,3.4,6.9,0.5c0.4-1.1,0.1-2.9-1.3-3.1c-1-0.1-2,0.5-1.8,1.4c0.2,0.8,1,0.8,1.4,0.7c0.1,0.5-0.5,1.1-1,1.2
	c-0.7,0.1-1.6-0.2-2.1-0.6c-1.1-1.2-0.2-2.6,0.9-3.2c2.5-1.4,5.8,0.2,7.8,1.7c1.7,1.3,3.3,2.6,5.2,3.7c0.5,0.7,1.1,1.2,1.8,1.5
	c0.5,0.2,1,0.3,1.4,0.3c-0.5,0.1-1,0.2-1.5,0.2c-1.9,0-3.5-0.9-5.1-1.9c-1.2-0.8-2.5-1.1-3.7-0.8c-1.2,0.2-2.1,0.8-3,1.7
	c-0.2,0.2-0.4,0.5-0.6,0.7c1.1-0.6,2.3-0.7,3.5-0.4c1.3,0.2,2.1,0.8,4.1,1.7c2.4,1.1,5.4,1.3,7.5-0.7c0.2-0.2,0.4-0.4,0.6-0.6
	c0.3,0.2,0.6,0.3,1,0.3c0.3,0,0.6-0.1,0.9-0.3c0.2,0.2,0.4,0.4,0.6,0.6c2.1,2,5.1,1.8,7.5,0.7c2-0.9,2.8-1.5,4.1-1.7
	c1.2-0.2,2.4-0.2,3.5,0.4c-0.2-0.2-0.4-0.5-0.6-0.7C48.6,17.7,47.6,17.1,46.4,16.9z M35.5,15.3c-0.1,0.4-0.4,1.3-0.8,1.9
	c-0.3-0.5-0.8-0.8-1.3-0.8c-0.6,0-1.1,0.4-1.4,0.9c-0.5-0.6-0.8-1.5-0.9-2c-0.2-1.3,0.3-2.6,0.9-3.8c0.5-1,1.1-2.1,1.3-3.3
	c0.2,1.2,0.8,2.3,1.3,3.3C35.2,12.7,35.7,13.9,35.5,15.3z"/>
<path class="st0" d="M51.8,9.7c0.4-0.2,0.8-0.5,1.1-0.8c1-0.9,1.5-1,2.8-0.8c1.7,0.3,5.1,0.2,4.1-2.3c-1.5,2-4.2,0-5.8-0.1
	c-1.6-0.2-2.5,0.5-2.8,1.4c-0.4,0.8-0.4,2.4-1.9,2.9C49.3,10,50.7,10.3,51.8,9.7z"/>
<path class="st0" d="M57.8,9.6c-1.3-0.1-3.3,0.2-4.4,0.8c0,0,1.4-0.5,3.1-0.2c1.5,0.2,2.7,0.7,4.1,2.1c1.5,1.5,2,3.2,1.7,4.6
	c-0.2,1.3-1.4,2-2.1,1c-0.3-0.5-0.3-1-0.8-1.4s-1.2-0.4-1.7-0.1c-1.4,0.6-1.8,2-1.1,3.2c0.8,1.4,2.6,1.7,4,1.5
	c4.3-0.7,4.5-5.4,2.3-8.6C61.7,10.9,59.7,9.7,57.8,9.6z"/>
<path class="st0" d="M56.9,16.1c0-1.6,2.4-1.2,2.3-2.9c-0.1-1.6-2.2-2.2-3.4-2.3c-1-0.1-2.1,0-2.1,0c1.1,0,3.4,0.8,3.5,2.1
	C57.3,14.2,55.3,14.9,56.9,16.1z"/>
<path class="st0" d="M53.1,19.2c-0.9-0.4-2.4-1.7-3.6-1.1c0,0,0.6,0,1.3,0.5c0.8,0.6,1.6,1.8,2.9,2.1c1.4,0.3,2.4-0.8,1.7-2
	C55.2,19.8,54,19.6,53.1,19.2z"/>
<path class="st0" d="M37.6,6.2c0.6-0.1,0.9-1,0.5-1.4c-0.4-0.4-1-0.1-1.1,0.4c-0.4-0.7,0.7-1.5,1.4-0.9S39.1,6,39,6.7
	c-0.1,0.8-1,3.2,0.1,5.5c-0.2-3.2,2-6.5,0.3-8.4c-1.2-1.4-2.9-0.9-3.4,0.3C35.6,5.1,36.3,6.5,37.6,6.2z"/>
<path class="st0" d="M63.4,6.8c0.9,1,0.7,2.5-0.7,2.9C61,10.1,59,9,59,9c1.6,1.9,6,2.4,6.2-0.8c0.1-1.2-0.6-2.5-1.7-3
	C62.2,4.7,61,5.8,61.8,7C62.2,7.6,63.4,7.7,63.4,6.8z"/>
<path class="st0" d="M62.2,11.4c1.5-0.5,1.6,1.5,2.1,2.1s1.4,0.9,2,0.2c0.5-0.6-0.1-1.6-0.1-1.6C65.2,13.5,64.1,8.8,62.2,11.4z"/>
<path class="st0" d="M10.9,8.1c1.3-0.2,1.8-0.2,2.8,0.8c0.4,0.3,0.7,0.6,1.1,0.8c1.1,0.6,2.5,0.3,2.5,0.3c-1.5-0.5-1.5-2.1-1.9-2.9
	c-0.4-1-1.3-1.6-2.8-1.4c-1.6,0.1-4.2,2-5.8,0.1C5.8,8.3,9.2,8.4,10.9,8.1z"/>
<path class="st0" d="M9,16.3c-0.6-0.2-1.3-0.2-1.7,0.1c-0.5,0.4-0.4,1-0.8,1.4c-0.8,1-1.9,0.3-2.1-1c-0.2-1.5,0.2-3.1,1.7-4.6
	c1.3-1.3,2.6-1.9,4.1-2.1c1.7-0.3,3.1,0.2,3.1,0.2c-1.2-0.6-3.2-0.8-4.5-0.7c-1.9,0.1-3.9,1.3-5,2.9c-2.2,3.1-2,7.9,2.3,8.6
	c1.5,0.2,3.2-0.1,4-1.5C10.8,18.3,10.4,16.9,9,16.3z"/>
<path class="st0" d="M12.9,10.9c0,0-1.1-0.1-2.1,0c-1.2,0.1-3.3,0.7-3.4,2.3c-0.1,1.7,2.3,1.3,2.3,2.9c1.6-1.2-0.3-2-0.3-3.1
	C9.5,11.8,11.8,10.9,12.9,10.9z"/>
<path class="st0" d="M13.5,19.2c-0.9,0.4-2.1,0.7-2.3-0.4c-0.7,1.3,0.3,2.3,1.7,2c1.2-0.3,2-1.5,2.9-2.1c0.7-0.6,1.3-0.5,1.3-0.5
	C16,17.5,14.4,18.7,13.5,19.2z"/>
<path class="st0" d="M27.6,12.2c1.1-2.3,0.1-4.7,0.1-5.5c-0.1-0.7-0.1-1.8,0.6-2.4c0.7-0.5,1.8,0.2,1.4,0.9
	c-0.1-0.5-0.6-0.8-1.1-0.4s-0.1,1.3,0.5,1.4c1.3,0.3,2-1.1,1.6-2.1c-0.5-1.2-2.2-1.7-3.4-0.3C25.6,5.7,27.8,9,27.6,12.2z"/>
<path class="st0" d="M7.6,9c0,0-2.1,1.1-3.7,0.7c-1.3-0.4-1.6-2-0.7-2.9c0,0.9,1.2,0.8,1.6,0.2c0.8-1.2-0.5-2.3-1.7-1.8
	C2,5.6,1.4,7,1.4,8.1C1.6,11.3,6.1,10.9,7.6,9z"/>
<path class="st0" d="M4.4,11.4c-2-2.7-3,2.1-4,0.7c0,0-0.5,1-0.1,1.6c0.6,0.7,1.5,0.5,2-0.2C2.8,12.9,3,10.9,4.4,11.4z"/>
<rect y="22.7" class="st0" width="66.8" height="1.4"/>
<rect class="st0" width="66.8" height="1.4"/>
</svg>
