<?xml version="1.0" encoding="utf-8"?>
<!-- Generator: Adobe Illustrator 22.0.1, SVG Export Plug-In . SVG Version: 6.00 Build 0)  -->
<svg version="1.1" id="Layer_1" xmlns="http://www.w3.org/2000/svg" xmlns:xlink="http://www.w3.org/1999/xlink" x="0px" y="0px"
	 viewBox="0 0 120.1 89.6" style="enable-background:new 0 0 120.1 89.6;" xml:space="preserve">
<style type="text/css">
	.st0{opacity:0.5;}
</style>
<path class="st0" d="M76.1,11.6c2,0,3.6-1.5,3.8-3.5h-7.7C72.5,10.1,74.1,11.6,76.1,11.6z"/>
<path class="st0" d="M71.9,8.1h-7.7c0.2,2,1.8,3.5,3.8,3.5C70.1,11.6,71.7,10.1,71.9,8.1z"/>
<path class="st0" d="M84.2,11.6c2,0,3.6-1.5,3.8-3.5h-7.7C80.5,10.1,82.1,11.6,84.2,11.6z"/>
<path class="st0" d="M104.1,8.1h-7.7c0.2,2,1.8,3.5,3.8,3.5C102.2,11.6,103.9,10.1,104.1,8.1z"/>
<path class="st0" d="M96,8.1h-7.7c0.2,2,1.8,3.5,3.8,3.5C94.2,11.6,95.8,10.1,96,8.1z"/>
<path class="st0" d="M108.2,11.6c2,0,3.6-1.5,3.8-3.5h-7.7C104.6,10.1,106.2,11.6,108.2,11.6z"/>
<path class="st0" d="M63.9,8.1h-7.7c0.2,2,1.8,3.5,3.8,3.5C62.1,11.6,63.7,10.1,63.9,8.1z"/>
<path class="st0" d="M116.3,11.6c2,0,3.6-1.5,3.8-3.5h-7.7C112.6,10.1,114.3,11.6,116.3,11.6z"/>
<path class="st0" d="M52,11.6c2,0,3.6-1.5,3.8-3.5h-7.7C48.4,10.1,50,11.6,52,11.6z"/>
<path class="st0" d="M11.9,11.6c2,0,3.6-1.5,3.8-3.5H8C8.2,10.1,9.9,11.6,11.9,11.6z"/>
<path class="st0" d="M7.7,8.1H0c0.2,2,1.8,3.5,3.8,3.5C5.9,11.6,7.5,10.1,7.7,8.1z"/>
<path class="st0" d="M23.8,8.1h-7.7c0.2,2,1.8,3.5,3.8,3.5S23.5,10.1,23.8,8.1z"/>
<path class="st0" d="M47.8,8.1h-7.7c0.2,2,1.8,3.5,3.8,3.5C46,11.6,47.6,10.1,47.8,8.1z"/>
<path class="st0" d="M39.8,8.1h-7.7c0.2,2,1.8,3.5,3.8,3.5C38,11.6,39.6,10.1,39.8,8.1z"/>
<path class="st0" d="M27.9,11.6c2,0,3.6-1.5,3.8-3.5H24C24.3,10.1,25.9,11.6,27.9,11.6z"/>
<polygon class="st0" points="96.2,5.2 78.1,5.2 60.1,5.2 42,5.2 24,5.2 5.9,5.2 0,5.2 0,7.3 5.9,7.3 24,7.3 42,7.3 60.1,7.3 
	78.1,7.3 96.2,7.3 114.2,7.3 120.1,7.3 120.1,5.2 114.2,5.2 "/>
<polygon class="st0" points="114.2,0 96.2,0 78.1,0 60.1,0 42,0 24,0 5.9,0 0,0 0,2.4 5.9,2.4 24,2.4 42,2.4 60.1,2.4 78.1,2.4 
	96.2,2.4 114.2,2.4 120.1,2.4 120.1,0 "/>
<path class="st0" d="M72.2,81.5h7.7c-0.2-2-1.8-3.5-3.8-3.5S72.5,79.5,72.2,81.5z"/>
<path class="st0" d="M68,78c-2,0-3.6,1.5-3.8,3.5h7.7C71.7,79.5,70.1,78,68,78z"/>
<path class="st0" d="M80.3,81.5H88c-0.2-2-1.8-3.5-3.8-3.5C82.1,78,80.5,79.5,80.3,81.5z"/>
<path class="st0" d="M100.2,78c-2,0-3.6,1.5-3.8,3.5h7.7C103.9,79.5,102.2,78,100.2,78z"/>
<path class="st0" d="M92.1,78c-2,0-3.6,1.5-3.8,3.5H96C95.8,79.5,94.2,78,92.1,78z"/>
<path class="st0" d="M104.3,81.5h7.7c-0.2-2-1.8-3.5-3.8-3.5S104.6,79.5,104.3,81.5z"/>
<path class="st0" d="M60,78c-2,0-3.6,1.5-3.8,3.5h7.7C63.7,79.5,62.1,78,60,78z"/>
<path class="st0" d="M112.4,81.5h7.7c-0.2-2-1.8-3.5-3.8-3.5S112.6,79.5,112.4,81.5z"/>
<path class="st0" d="M48.1,81.5h7.7C55.6,79.5,54,78,52,78S48.4,79.5,48.1,81.5z"/>
<path class="st0" d="M8,81.5h7.7c-0.2-2-1.8-3.5-3.8-3.5S8.2,79.5,8,81.5z"/>
<path class="st0" d="M3.8,78c-2,0-3.6,1.5-3.8,3.5h7.7C7.5,79.5,5.9,78,3.8,78z"/>
<path class="st0" d="M19.9,78c-2,0-3.6,1.5-3.8,3.5h7.7C23.5,79.5,21.9,78,19.9,78z"/>
<path class="st0" d="M43.9,78c-2,0-3.6,1.5-3.8,3.5h7.7C47.6,79.5,46,78,43.9,78z"/>
<path class="st0" d="M35.9,78c-2,0-3.6,1.5-3.8,3.5h7.7C39.6,79.5,38,78,35.9,78z"/>
<path class="st0" d="M24,81.5h7.7c-0.2-2-1.8-3.5-3.8-3.5S24.3,79.5,24,81.5z"/>
<polygon class="st0" points="114.2,84.4 120.1,84.4 120.1,82.3 114.2,82.3 96.2,82.3 78.1,82.3 60.1,82.3 42,82.3 24,82.3 5.9,82.3 
	0,82.3 0,84.4 5.9,84.4 24,84.4 42,84.4 60.1,84.4 78.1,84.4 96.2,84.4 "/>
<polygon class="st0" points="120.1,89.6 120.1,87.2 114.2,87.2 96.2,87.2 78.1,87.2 60.1,87.2 42,87.2 24,87.2 5.9,87.2 0,87.2 
	0,89.6 5.9,89.6 24,89.6 42,89.6 60.1,89.6 78.1,89.6 96.2,89.6 114.2,89.6 "/>
<path class="st0" d="M72.7,22.6c0,0,3.8-3.2,10.2-2.5c4.8,0.5,8.3-0.8,8.2-5.1c-3.1,2.2-6.4,1.3-9.4,1.3
	C79.4,16.4,74.2,16,72.7,22.6z"/>
<path class="st0" d="M103.6,63c3.1-4.5,3.8-11.5,1.2-16.4C101,39.6,93.7,35,85,35.2c-9,0.2-15.6,4.5-20,10.3
	c-3.8,5.1-4.7,10.2-4.9,13c-0.2-2.8-1.1-7.9-4.9-13c-4.4-5.8-10.9-10.2-20-10.3c-8.7-0.2-16.1,4.4-19.8,11.4
	c-2.7,4.9-2,11.9,1.2,16.4c5.3,7.6,18,10.7,25.7,4.8c5.3-4,7.8-13.1,1.7-17.5c1.9,2.6,0.2,6.8-1.6,8.9c-3.6,4.4-11.9,5.9-17.1,0.7
	c-5.8-5.7-1.9-17.2,9.2-17.9c11-0.7,15.5,4.5,18.4,7.2c3.3,3,5.7,7.1,7.2,11.3v0.1l0,0l0,0c0,0,0,0,0-0.1c1.6-4.2,3.9-8.3,7.2-11.3
	c2.9-2.7,7.4-7.9,18.4-7.2c11.1,0.7,15,12.1,9.2,17.9c-5.2,5.2-13.6,3.7-17.1-0.7c-1.8-2.2-3.5-6.4-1.6-8.9
	c-6.1,4.4-3.6,13.5,1.7,17.5C85.6,73.6,98.3,70.6,103.6,63z"/>
<path class="st0" d="M66.3,63.2c-6.3-1.1-7.6,6.7-4.6,10.7c0.4-3.9,2.3-5.8,6.3-6.3c3.7-0.5,6.1,1,8.8,2.9
	C73.8,67.3,70.6,64,66.3,63.2z"/>
<path class="st0" d="M111.9,28.5c-0.3-5,1.8-8.8,4.6-12.6c-2.2,0.7-5.2,3.1-7,4.8c-7,6.5-4.1,14.8-2.2,19.7c2.4,6.3,4.7,11,3.5,18.9
	c-1.2,8.4-9.9,14.9-16.3,13.8l2.9,0.6c5,0,9.7-0.9,14-3.6c8-5,9.3-16.6,6.1-25C115.5,39.5,112.3,34.5,111.9,28.5z"/>
<path class="st0" d="M117.5,36.3L117.5,36.3c-0.1,0,0,0.1,0,0.2V36.3z"/>
<path class="st0" d="M116.9,23.4c-1.5,0.9-2.9,4.2-2.7,6.9c0.3,2.7,2,5.1,3.2,5.9c-1.4-2.8-1.4-5.9-1-9
	C116.5,26,116.9,24.5,116.9,23.4z"/>
<path class="st0" d="M16.4,23.1c1.5,4,5,6.1,8.9,7.7c4,1.6,16.2,2.2,23.1,4.7c8,2.9,10.9,9.8,11.7,12.5c0,0,0-0.1,0-0.3
	c0,0.2,0,0.3,0,0.3c0.8-2.7,3.7-9.6,11.7-12.5c6.9-2.5,19-3,23.1-4.7c3.8-1.5,7.3-3.7,8.9-7.7c1.1-2.9,1-5.9,0.4-8.7
	c-1,2.3-2.1,4.9-4.5,6.2c-3.2,1.9-7.2,3.2-10.9,3.3c-6.6,0.1-14.6,0.1-20.1,4c-3.5,2.4-6.3,5.6-7.6,9.7c-0.5,1.5-0.7,3.2-0.9,4.8
	c-0.1-1.6-0.4-3.3-0.9-4.8c-1.3-4.1-4.1-7.3-7.6-9.7c-5.6-3.9-13.6-3.9-20.1-4c-3.7-0.1-7.7-1.4-10.9-3.3c-2.4-1.4-3.5-3.9-4.5-6.2
	C15.4,17.4,15.3,20.3,16.4,23.1z"/>
<path class="st0" d="M51.8,15.4c-2.6,1.9-2.1,5.1-0.7,7.4c1,1.7,2.4,2.8,4.2,4.1c4.2,3,4.6,4.9,4.6,4.9c0-0.1,0-0.3,0-0.4
	c0,0.1,0,0.3,0,0.4c0,0,0.5-2,4.7-4.9c1.8-1.3,3.2-2.4,4.2-4.1c1.4-2.3,1.9-5.5-0.7-7.4c-1.7-1.2-5-1.1-8.2,1.3
	c3.7,0.1,5.5,1.3,5.2,4c-0.4,2.9-4.7,5-5.2,9c-0.6-4.1-4.9-6.2-5.2-9c-0.3-2.6,1.5-3.9,5.2-4C56.8,14.3,53.6,14.1,51.8,15.4z"/>
<path class="st0" d="M37.2,20.1c6.4-0.7,10.2,2.5,10.2,2.5c-1.5-6.7-6.7-6.3-9.1-6.3c-3,0.1-6.3,1-9.4-1.3
	C28.9,19.5,32.4,20.8,37.2,20.1z"/>
<path class="st0" d="M53.9,63.2c-4.3,0.7-7.6,4.2-10.6,7.3c2.7-1.9,5.1-3.4,8.8-2.9c4,0.5,5.9,2.4,6.3,6.3
	C61.4,69.9,60.2,62.2,53.9,63.2z"/>
<path class="st0" d="M9.2,59.3c-1.1-7.9,1.1-12.7,3.5-18.9c1.9-5,4.8-13.3-2.2-19.7c-1.8-1.7-4.8-4.1-7-4.8
	c2.8,3.8,4.9,7.6,4.6,12.6c-0.3,6.1-3.6,11.1-5.7,16.7c-3.2,8.3-1.9,20,6.1,25c4.3,2.7,9,3.6,14,3.6l2.9-0.6
	C19.1,74.3,10.4,67.7,9.2,59.3z"/>
<path class="st0" d="M2.6,36.5c0-0.1,0.1-0.2,0.1-0.3l-0.1,0.1V36.5z"/>
<path class="st0" d="M5.9,30.3c0.3-2.7-1.2-6-2.7-6.9c-0.1,1.2,0.4,2.6,0.5,3.9c0.4,3,0.4,6.1-1,9C4,35.3,5.7,33,5.9,30.3z"/>
</svg>
