<?xml version="1.0" encoding="utf-8"?>
<!-- Generator: Adobe Illustrator 22.0.1, SVG Export Plug-In . SVG Version: 6.00 Build 0)  -->
<svg version="1.1" id="Layer_1" xmlns="http://www.w3.org/2000/svg" xmlns:xlink="http://www.w3.org/1999/xlink" x="0px" y="0px"
	 viewBox="0 0 40.4 40" style="enable-background:new 0 0 40.4 40;" xml:space="preserve">
<style type="text/css">
	.st0{opacity:0.5;fill:none;stroke:#000000;stroke-width:2.5;stroke-miterlimit:10;}
</style>
<polyline class="st0" points="40.4,27.4 35.3,27.4 31.5,23.6 31.5,16.4 35.3,12.6 40.4,12.6 "/>
<polyline class="st0" points="0,7.4 7.5,7.4 12.2,12.1 28.2,12.1 33,7.4 40.4,7.4 "/>
<polyline class="st0" points="0,12.6 5.1,12.6 9,16.4 9,23.6 5.1,27.4 0,27.4 "/>
<polyline class="st0" points="40.4,32.6 33,32.6 28.2,27.9 12.2,27.9 7.5,32.6 0,32.6 "/>
<rect x="13.9" y="17.6" class="st0" width="13.1" height="5.1"/>
<line class="st0" x1="0" y1="3.4" x2="40.4" y2="3.4"/>
<line class="st0" x1="0" y1="36.4" x2="40.4" y2="36.4"/>
</svg>
