<?xml version="1.0" encoding="utf-8"?>
<!-- Generator: Adobe Illustrator 22.0.1, SVG Export Plug-In . SVG Version: 6.00 Build 0)  -->
<svg version="1.1" id="Layer_1" xmlns="http://www.w3.org/2000/svg" xmlns:xlink="http://www.w3.org/1999/xlink" x="0px" y="0px"
	 viewBox="0 0 29 44.9" style="enable-background:new 0 0 29 44.9;" xml:space="preserve">
<style type="text/css">
	.st0{opacity:0.5;}
</style>
<g class="st0">
	<path d="M29.3,32.8c0,1,0,2.1,0,3.1c-7.8,0-15.6,0-23.5,0c0-7,0-13.9,0-20.8c5,0,9.8,0,14.8,0c0,2.9,0,5.8,0,8.8c-2,0-3.9,0-5.9,0
		c0,1,0,2,0,2.9c3,0,5.9,0,8.8,0c0-4.9,0-9.8,0-14.7c-6.9,0-13.7,0-20.8,0c0,7.9,0,15.8,0,23.7c-1,0-1.9,0-2.7,0c0-9,0-17.9,0-26.9
		c8.8,0,17.6,0,26.5,0c0,7.1,0,13.9,0,20.8c-4.9,0-9.8,0-14.7,0c0-3,0-5.9,0-8.9c2,0,3.9,0,5.8,0c0-1,0-1.9,0-2.8c-3,0-5.9,0-8.9,0
		c0,5,0,9.8,0,14.6c0.2,0.1,0.3,0.1,0.4,0.1C15.9,32.8,22.6,32.8,29.3,32.8z"/>
	<rect y="38.8" width="29" height="2.9"/>
	<rect y="3.2" width="29" height="2.9"/>
</g>
</svg>
