<?xml version="1.0" encoding="utf-8"?>
<!-- Generator: Adobe Illustrator 21.0.0, SVG Export Plug-In . SVG Version: 6.00 Build 0)  -->
<svg version="1.1" id="Layer_1" xmlns="http://www.w3.org/2000/svg" xmlns:xlink="http://www.w3.org/1999/xlink" x="0px" y="0px"
	 viewBox="0 0 50 28" style="enable-background:new 0 0 50 28;" xml:space="preserve">
<style type="text/css">
	.st0{fill:#FFDF22;}
</style>
<path class="st0" d="M36.6,25.7c-7.8,0-15.6,0-23.4,0c0-1.6,0-3.3,0-4.9c0-4.3,0-4.3-4.3-4.3c-3.1,0-3.2,0-2.9,3.2
	C6,20.2,5.7,21,6.7,21c0.9,0,0.8-0.7,0.8-1.3c-0.3-2.6,1.7-1.5,2.9-1.7c1.6-0.3,1.6,0.8,1.5,1.9c0,1.9,0,3.9,0,5.8
	c-3.3,0-6.6,0-9.9,0c-1,0-1.5,0-1.4-1.3c0.1-6.9,0.1-13.9,0-20.8C0.6,2.3,1,2.3,2,2.3c3.3,0,6.6,0,9.9,0c0,2,0,4.1,0,6.1
	c0,0.6,0.2,1.3-0.8,1.5c-2.1,0.4-3.1-0.2-3.5-2.3C7.4,7.1,7.3,6.8,6.7,6.8C6.1,6.8,6.1,7.2,6,7.7c-0.5,3.1-0.1,3.6,3,3.6
	c0.9,0,1.8-0.1,2.7,0c1.2,0.1,1.7-0.3,1.7-1.6c-0.1-2.5-0.1-5-0.1-7.4c7.8,0,15.6,0,23.4,0c0,1.2,0.1,2.4,0.1,3.6
	c0,5.5,0,5.5,5.5,5.4c3,0,3,0,2.7-3c-0.1-0.6,0-1.2-0.9-1.3c-1,0-1.1,0.5-1,1.3c0.2,1.3-0.5,1.6-1.7,1.6c-3.5-0.1-3,0.5-3-2.9
	c0-1.6-0.2-3.1,0.2-4.7c3.6,0,7.2,0,10.8,0c0.2,7.8,0.2,15.6,0,23.4c-3.6,0-7.2,0-10.8,0c-0.4-1.9-0.1-3.7-0.2-5.6
	c0-0.9-0.6-2.4,1.2-2.2c1.3,0.2,3.7-1.4,3.4,1.8c-0.1,0.8,0.3,1,1.1,1c0.7,0,0.8-0.4,0.9-1c0.4-3,0.1-3.3-2.9-3.3
	c-1.1,0-2.3,0.1-3.4,0c-1.4-0.1-2,0.4-1.9,1.9C36.8,20.8,36.7,23.2,36.6,25.7z M25.1,3.7c-2.9,0-5.9,0.1-8.8,0
	c-1.2,0-1.6,0.4-1.5,1.5c0.1,2,0,4.1,0,6.1c0,1-0.1,1.6-1.3,1.6c-2.7-0.1-5.4,0-8.1,0c-0.6,0-1.1-0.1-1.1-0.8c0-2,0-4.1,0-6.1
	c0-0.2,0.3-0.6,0.5-0.6c1.2-0.1,2.4-0.2,3.6,0c1.1,0.2,0.5,1.4,0.6,2.1c0.1,0.4,0,0.8,0.6,0.7c0.2,0,0.4-0.2,0.5-0.4
	c1-2-0.2-4.1-2.4-4.1c-1.2,0-2.4,0.1-3.6,0C2.8,3.5,2.4,4,2.5,5.3c0.1,4.7,0,9.3,0,14c0,4.8,0,4.8,4.8,4.8c3.2,0,3.2,0,3-3.2
	c0-0.5,0.2-1.2-0.5-1.3c-0.8,0-0.6,0.7-0.6,1.2c0.2,1.6-0.5,1.9-1.9,1.8c-2.9,0-2.9,0-2.9-2.9c0-1.1,0.1-2.3,0-3.4
	c-0.1-1.1,0.3-1.5,1.4-1.4c2.5,0.1,5.1,0.1,7.7,0c1.2,0,1.6,0.4,1.5,1.6c-0.1,1.9,0.1,3.9-0.1,5.9c-0.1,1.4,0.4,1.8,1.8,1.8
	c5.2-0.1,10.4,0,15.5,0c3.1,0,3.1,0,3.1-3c0-1.9-0.7-4.5,0.3-5.6c1.1-1.3,3.8-0.4,5.8-0.4c5.1-0.1,5.1,0,5.1,5.1
	c0,0.9,0.5,2.5-1.3,2.1c-1.3-0.3-3.8,1.7-3.7-1.7c0-0.6-0.2-1-0.9-1c-0.4,0-0.6,0.1-0.8,0.5C38.9,22.4,40,24,42.5,24
	c1.1,0,2.3-0.1,3.4,0c1.6,0.2,2.1-0.3,2-1.9c-0.1-4,0-8.1,0-12.2c0-2,0.7-4.7-0.4-5.9c-1.2-1.3-4-0.2-6-0.5
	c-1.4-0.1-1.9,0.3-1.7,1.7c0.1,0.6,0,1.2,0,1.8c0,0.6-0.1,1.3,0.9,1.2c0.9,0,1-0.6,0.9-1.3c-0.2-1.5,0.6-1.7,1.8-1.7
	c3.6,0.1,3.1-0.5,3.1,3.1c0,0.9,0,1.8,0,2.7c0.1,1.2-0.3,1.6-1.5,1.6c-2.8-0.1-5.6-0.1-8.3,0c-1.1,0-1.5-0.3-1.4-1.4
	c0.1-1.9-0.1-3.8,0.1-5.6c0.1-1.6-0.3-2.3-2.1-2.2C30.6,3.8,27.8,3.7,25.1,3.7z"/>
<path class="st0" d="M30.8,18.8c-0.9-0.9-1.8-1.8-2.7-2.6c-0.2-0.4-0.4-0.5-0.7-0.1c0,0-0.1,0.1-0.1,0.1c-0.5,0.5-0.2,0.7,0.2,1
	c0.6,0.7,1.2,1.3,1.8,2c0.5,0.5,1.2,0.9,0.5,1.9c-0.9,1.3-2.1,1.7-3.5,1.5c-1-0.1-1.1-0.9-1-1.7c0-0.6,0.1-1.2,0-1.8
	c-0.1-0.6,0.4-1.7-0.5-1.7c-1.1,0-0.5,1.2-0.6,1.8c-0.1,0.6-0.1,1.2,0,1.8c0.1,0.9-0.2,1.6-1.1,1.6c-1.3,0.1-2.5-0.3-3.4-1.4
	c-0.6-0.8-0.3-1.3,0.4-1.9c0.7-0.7,1.4-1.4,2.1-2.1c0.3-0.3,0.5-0.5,0.2-0.9c-0.4-0.5-0.8-0.2-1.1,0.2c-0.7,0.7-1.4,1.4-2.1,2.1
	c-0.5,0.5-1,1-1.7,0.4c-1.1-0.9-1.4-2.1-1.3-3.4c0.1-0.9,0.6-1.1,1.4-1.1c1,0,2.1,0,3.2,0c0.4,0,0.7-0.2,0.8-0.6
	c0-0.5-0.4-0.6-0.8-0.6c-0.9,0-1.8,0-2.7,0c-0.7,0-1.6,0.3-1.8-0.8c-0.2-1.4,0.1-2.7,1.4-3.6c0.9-0.7,1.5,0.1,2.1,0.7
	c0.6,0.6,1.2,1.2,1.8,1.7c0.3,0.3,0.6,0.7,1.1,0.2c0.5-0.5,0-0.8-0.3-1.1c-0.6-0.6-1.2-1.2-1.7-1.8c-0.5-0.6-1.5-1-0.7-2
	c0.9-1.1,2-1.5,3.4-1.4c1.1,0.1,1.1,1,1.1,1.8c0,0.7,0,1.5,0,2.3c0,0.5-0.2,1.2,0.6,1.2c0.7-0.1,0.5-0.8,0.5-1.3c0-0.5,0-1.1,0-1.6
	c0.1-0.9-0.4-2.1,1-2.4c1.4-0.2,2.7,0.3,3.5,1.5c0.7,1-0.4,1.3-0.7,1.8c-0.6,1.1-2.8,1.7-1.9,2.9c0.7,0.8,1.7-1.3,2.7-2
	c0.7-0.5,1.2-1.3,2.1-0.6c1.1,0.9,1.4,2.1,1.3,3.4c-0.1,1.2-1,0.9-1.7,0.9c-0.7,0-1.5,0-2.2,0c-0.4,0-1.2-0.3-1.2,0.5
	c0,0.9,0.8,0.7,1.3,0.8c0.4,0,0.8,0,1.1,0c0.9,0.1,2.1-0.5,2.6,0.6c0.5,1.1,0.1,2.2-0.5,3.2c-0.2,0.3-0.5,0.5-0.8,0.8
	C31.7,18.9,31.3,18.9,30.8,18.8z"/>
</svg>
