<?xml version="1.0" encoding="utf-8"?>
<!-- Generator: Adobe Illustrator 22.0.1, SVG Export Plug-In . SVG Version: 6.00 Build 0)  -->
<svg version="1.1" id="Layer_1" xmlns="http://www.w3.org/2000/svg" xmlns:xlink="http://www.w3.org/1999/xlink" x="0px" y="0px"
	 viewBox="0 0 280 40" style="enable-background:new 0 0 280 40;" xml:space="preserve">
<style type="text/css">
	.st0{fill:#FFFFFF;}
</style>
<g>
	<path class="st0" d="M96,3.1v5.7H84.7V37H79V8.8V3.1H96z"/>
	<path class="st0" d="M12.5,31.2l-2.9,5.7H3.4L20.3,3.1l11.3,22.6h-6.3l-4.9-9.9l-5,9.9L12.5,31.2z M37.2,36.9h-6.3l-2.8-5.6h6.3
		L37.2,36.9z"/>
	<path class="st0" d="M54,24.8l7,12.1h-6.5l-9.8-17h5c1.5,0,2.8-0.5,3.9-1.6c1.1-1.1,1.7-2.5,1.7-4s-0.5-2.8-1.7-3.9
		c-1.1-1.1-2.4-1.6-3.9-1.6H38.4l-0.6-0.6l-2.9-5h14.8c3.1,0,5.8,1.1,8,3.3s3.3,4.9,3.3,8c0,2.4-0.6,4.5-2,6.4
		C57.7,22.6,56,24,54,24.8z"/>
	<path class="st0" d="M116.5,31.2l-5.6,5.7V3.1l5.6,5.6V31.2z"/>
	<path class="st0" d="M135.6,31.9c-1.5-1.6-2.7-3.3-3.6-5.4c-0.9-2.1-1.4-4.2-1.4-6.5s0.5-4.5,1.4-6.6c0.9-2,2.1-3.8,3.6-5.3
		c1.6-1.6,3.3-2.7,5.4-3.6c2-0.9,4.2-1.4,6.6-1.4c2.3,0,4.5,0.4,6.6,1.3s3.8,2.1,5.4,3.7l-4,3.9c-2.2-2.2-4.9-3.3-8-3.3
		c-1.6,0-3,0.3-4.4,0.8c-1.4,0.6-2.6,1.4-3.6,2.5c-1,1-1.8,2.2-2.4,3.6c-0.6,1.4-0.9,2.8-0.9,4.4s0.3,3,0.9,4.4
		c0.6,1.4,1.4,2.5,2.5,3.6c1,1.1,2.2,1.9,3.6,2.5c1.4,0.5,2.8,0.8,4.4,0.8l6.6,4.4c-2,0.9-4.2,1.3-6.6,1.3c-2.3,0-4.5-0.5-6.6-1.4
		C138.9,34.7,137.1,33.5,135.6,31.9z"/>
	<path class="st0" d="M180.2,3.1V4v19.6l-5.6,5.7V4V3.1H180.2z M197.2,31.2v5.7h-22.5l5.6-5.7H197.2z"/>
	<path class="st0" d="M220.4,31.2l-2.9,5.7h-6.3l16.9-33.8l11.3,22.6h-6.3l-4.9-9.9l-5,9.9L220.4,31.2z M245.1,36.9h-6.3l-2.8-5.6
		h6.3L245.1,36.9z"/>
	<path class="st0" d="M269.7,24.8l6.9,12.1h-6.5l-9.8-17h5c1.5,0,2.8-0.5,3.9-1.6s1.7-2.5,1.7-4s-0.6-2.8-1.7-3.9s-2.4-1.6-3.9-1.6
		H254l-0.6-0.6l-2.9-5h14.8c3.1,0,5.8,1.1,8,3.3s3.3,4.9,3.3,8c0,2.4-0.6,4.5-2,6.4C273.3,22.6,271.7,24,269.7,24.8z"/>
</g>
</svg>
