<?xml version="1.0" encoding="utf-8"?>
<!-- Generator: Adobe Illustrator 22.0.1, SVG Export Plug-In . SVG Version: 6.00 Build 0)  -->
<svg version="1.1" id="Layer_1" xmlns="http://www.w3.org/2000/svg" xmlns:xlink="http://www.w3.org/1999/xlink" x="0px" y="0px"
	 viewBox="0 0 100 100" style="enable-background:new 0 0 100 100;" xml:space="preserve">
<style type="text/css">
	.st0{fill:#398BCB;}
</style>
<g>
	<path class="st0" d="M76.2,50c4.7,4.5,7,10.1,7,16.7c0,3.2-0.6,6.2-1.8,9c-1.2,2.9-2.9,5.3-5,7.4c-2.1,2.2-4.6,3.8-7.5,5.1
		c-2.8,1.2-5.8,1.8-9,1.8H30V76.5H60c1.3,0,2.6-0.2,3.8-0.7c1.3-0.5,2.4-1.2,3.3-2.2c0.9-0.9,1.6-2,2.1-3.2c0.5-1.2,0.8-2.5,0.8-3.8
		c0-1.3-0.3-2.6-0.8-3.8s-1.2-2.3-2.1-3.2c-0.9-0.9-1.9-1.7-3.1-2.2c-1.3-0.5-2.6-0.8-4-0.8H30H16.8V43.4h8H30H60
		c1.3,0,2.6-0.2,3.8-0.8c1.3-0.5,2.4-1.2,3.3-2.2c0.9-0.9,1.6-2,2.1-3.2s0.8-2.5,0.8-3.9c0-1.3-0.3-2.6-0.8-3.8
		c-0.5-1.2-1.2-2.3-2.1-3.2c-0.9-1-2-1.7-3.3-2.2c-1.2-0.5-2.5-0.7-3.8-0.7H30L16.8,10.1H60c3.1,0,6.1,0.6,9,1.8
		c2.9,1.3,5.4,2.9,7.5,5.1c2.1,2.1,3.8,4.5,5,7.4c1.2,2.8,1.8,5.8,1.8,9C83.2,39.8,80.9,45.4,76.2,50z"/>
</g>
</svg>
