<?xml version="1.0" encoding="utf-8"?>
<!-- Generator: Adobe Illustrator 21.0.0, SVG Export Plug-In . SVG Version: 6.00 Build 0)  -->
<svg version="1.1" id="Layer_1" xmlns="http://www.w3.org/2000/svg" xmlns:xlink="http://www.w3.org/1999/xlink" x="0px" y="0px"
	 viewBox="0 0 124.6 42.5" style="enable-background:new 0 0 124.6 42.5;" xml:space="preserve">
<path d="M81.9,24.1c4.3,2.4,9.5,1.2,11.3-3.2c0.5-1.3,1.5-2.3,2.2-3.5c0.3-0.2,0.7-0.3,1-0.5c0.8-0.2,1.5-0.4,2.3-0.6
	c1.2-0.3,1.8-1,1.9-2.1c0.2-1.5,0.2-2.9,0.4-4.4c0.6-3.8,3.8-6.9,7.7-6.9c1.8,0,3.7,0.4,5.5,0.8c1.3,0.2,2.6,0.7,3.9,0.9
	c2.2,0.4,3.9-0.4,5.1-2.3c0.4-0.6,0.7-1.3,1.2-2c-0.5,4.7-3.3,6.5-8.1,5.6c-2-0.4-3.9-0.9-5.9-1.2c-2.1-0.4-4,0.1-5.9,1.2
	c-2.1,1.2-3.3,3.4-3.4,6.2c0.4-0.6,0.7-1,1.1-1.4c1.4-1.7,3.3-1.9,5-0.4c0.6,0.5,1.1,1,1.7,1.5c0.8,0.6,1.6,0.8,2.4,0.2
	c0.9-0.6,0.9-1.5,0.6-2.5c-0.1-0.2-0.1-0.4-0.2-0.7c1.4,1,1.9,2.6,1.3,3.8c-0.7,1.3-1.8,1.6-4.2,0.9c0.6,1.4,0,2.5-0.9,3.4l0,0
	c-0.6,0-1.3,0-2.1,0c2.5-1.6,2.7-3.1,0.7-5c0.1,2.4-0.5,3.2-2.1,2.7c0.4-0.6,1.1-1.3,1.1-2.1c0-0.5-0.8-1.4-1.2-1.4
	c-0.7,0-1.7,0.4-2.1,0.9c-0.6,0.9-0.8,2.1-1.2,3.2c-0.3,0.3-0.6,0.7-0.9,1c-0.3,0.2-0.6,0.4-0.9,0.6c0.4,0.6,1,1.1,1.3,1.7
	c1.1,2-0.3,4.4-2.7,4.3c-1.5,0-2.6-1.6-2-3c0.2-0.4,0.8-0.9,1.2-0.9c0.4,0,0.7,0.7,1,1.1c0.3,0.4,0.4,1.1,0.7,1.1
	c0.7,0,1-0.5,0.9-1.2c0-0.1,0.1-0.3,0.1-0.4c0-0.2-0.1-0.5-0.1-0.7c-1-1.9-3.2-2.1-4.5-0.4c-0.5,0.6-0.8,1.5-0.9,2.3
	c-0.6,4-3,6.2-7,6.4c-2.9,0.1-5.4-0.8-7.8-2.3c-1.7-1.1-3.4-2.1-5.5-2c-1.9,0.1-3.7,0.6-4.8,2.4c-0.3,0.5-0.9,0.9-1.4,1.3
	c1.2-0.5,2.3-1.1,3.4-1.3c2.1-0.4,3.5,0.9,4.9,2.3c0.8,0.8,1.7,1.7,2.8,2.2c0.5,0.3,1.6,0.2,2.1-0.1c0.7-0.5,0.5-1.4,0-2.1
	c1.5-0.1,2.5,0.7,2.6,2.1c0.1,1.3-0.8,2.4-2.2,2.3c-1,0-2.1-0.3-3-0.9c-1.2-0.7-2.1-1.8-3.2-2.7c-3-2.8-7-1.9-8.6,1.9
	c-0.2,0.4-0.3,0.7-0.5,1.2c-0.5-4.4,1.8-8.3,5.5-9.2c2.6-0.6,5,0.2,7.4,1C80,23.4,81,23.7,81.9,24.1L81.9,24.1z"/>
<path d="M23.6,15.7c-0.5-1.2-0.9-2.5-1.4-3.7c-0.4-0.8-1.3-1.4-2.2-1c-0.5,0.2-1.1,0.8-1.3,1.4c-0.3,1.1,0.5,1.6,1.5,2
	c-1.9,0.7-2.7-0.2-2.4-2.7c-2.1,2-1.9,3.6,0.5,4.9c-0.8,0.5-1.6,0.2-2.2-0.2c-1.1-0.8-1.1-1.9-0.7-3c-2.4,0.6-3.4,0.4-4.1-0.8
	c-0.7-1.2-0.2-2.6,1.3-4.1c-0.2,0.5-0.4,0.9-0.4,1.3c0.1,0.7,0.1,1.6,0.6,2c0.5,0.4,1.4,0.4,2.1,0.1c0.7-0.3,1.3-0.9,1.9-1.4
	c2-1.9,3.9-1.7,5.5,0.6c0.2,0.3,0.4,0.5,0.6,0.8c0.4-1.7-0.7-4.2-2.4-5.5c-2.5-1.9-5.2-2.1-8.2-1.5c-1.9,0.4-3.7,0.9-5.6,1.1
	C2.7,6.4,0.5,4.5,0,0.3c0.2,0.3,0.3,0.6,0.5,0.8c1.6,3.1,3.6,4.1,7.1,3.2c1.8-0.4,3.6-1,5.4-1.4c4.5-1,9.3,1.7,10.3,5.9
	c0.4,1.6,0.4,3.3,0.5,5c0.2,1.7,0.7,2.3,2.4,2.7c0.9,0.2,1.8,0.5,2.7,0.8c0,0,0,0,0,0c0.8,1.2,1.9,2.3,2.4,3.6
	c1.6,3.8,5.8,5.3,9.3,4.1c0.7-0.2,1.4-0.6,2-0.9l0,0c0.9-0.3,1.8-0.7,2.8-1c1.5-0.4,3.1-0.9,4.6-1.2c3.9-0.6,7.4,2.1,8.1,6.1
	c0.2,1,0.2,2.1,0.3,2.8c-0.8-1.1-1.6-2.4-2.7-3.3c-2.1-1.7-4.3-1.5-6.2,0.3c-1,0.9-1.9,1.9-2.9,2.6c-0.9,0.6-2,1.1-3.1,1.2
	c-1.5,0.2-2.5-0.8-2.5-2.1c0-1.4,0.9-2.3,2.6-2.4c-0.5,0.8-0.8,1.7,0,2.3c0.8,0.7,1.7,0.4,2.4-0.2c0.9-0.7,1.8-1.5,2.7-2.4
	c1.3-1.3,2.8-2.3,4.7-1.9c1.2,0.2,2.2,0.9,3.4,1.4c-0.5-0.5-1-1-1.6-1.5c-0.1-0.1-0.1-0.2-0.2-0.3c-1.1-1.7-3.8-2.6-6.1-1.9
	c-1.5,0.5-2.9,1.2-4.2,2c-2.8,1.7-5.7,2.5-9,1.9c-3.1-0.6-5.2-2.8-5.5-6c-0.2-1.9-1.1-3.3-2.6-3.6c-0.9-0.2-1.9-0.1-2.3,0.8
	c-0.4,0.8-0.4,1.7-0.4,2.6c0,0.2,0.6,0.5,0.9,0.5c0.2,0,0.6-0.5,0.5-0.8c0-0.9,0.3-1.5,1.3-1.5c0.8,0.1,1.3,1.1,1.1,2
	c-0.3,1.5-1.5,2.2-3,1.8c-1.6-0.5-2.6-2.1-2-3.6c0.3-0.8,1-1.5,1.5-2.3c-0.2-0.1-0.5-0.3-0.9-0.5C24,16.1,23.8,15.9,23.6,15.7z"/>
<path d="M39.6,17.3c-0.8,1.4-0.5,2.9,1,3.8c1.5,0.9,3.1,0.8,4.7,0.3c1.8-0.5,3.6-0.9,5.4-1.3c-0.4-0.3-0.9-0.6-1.5-1
	c-1.6-1.2-2.9-2.7-2.5-4.8c0.2-1,0.8-1.9,1.2-2.8c0,0,0,0,0,0c1.5-1.5,1.7-3.4,0.5-4.9c-0.1-0.1-0.3-0.2-0.4-0.4
	c-1-1.3-3.1-0.5-3.6,0.9c-0.5,1.3,0.8,1.3,1.6,1.7c-0.6,0.8-1.4,1-2.3,0.6c-0.9-0.4-1.4-1.1-1.2-2.2c0.3-1.4,1.6-2.6,3.2-2.7
	c0.5,0,1,0,1.5,0c-0.2-2.3,1.1-3.3,2.8-2.5c-0.5,0.4-1.2,0.8-1.5,1.4c-0.3,0.5-0.1,1.2-0.1,1.6c0.7-0.5,1.3-1.3,2.1-1.5
	c0.5-0.2,1.3,0.3,1.9,0.5c0,0.1,0,0.2-0.1,0.3c-0.6,0.1-1.3,0.1-1.7,0.3c-1,0.6-1.2,1.7-1.1,2.7c0.3,1.8-0.2,3.3-1.2,4.7
	c-1.6,2.3-1.2,4.6,1.1,6.3c1.1,0.8,2.4,1.4,3.6,2.1c0.9,0.5,2,0.9,2.8,1.5c3.1,2,4.2,5.7,2.8,9.1c-0.1-1.2,0-2.4-0.3-3.7
	c-1.1-5-5.7-6.6-9.2-6.3c-1.7,0.2-3.4,0.8-5.1,1.1c-0.9,0.2-1.7,0.2-2.6,0.2c-2-0.2-3.1-1.5-3.4-3.4c0-0.4-0.1-0.9-0.1-1.3
	c0-1.3-0.7-1.9-2.3-2c0.7-0.5,1.2-1.1,1.6-1c0.6,0.1,1.2,0.6,1.9,1c0.5-0.9,1.2-2,0.4-3.3c-0.6-1.1-1.7-1-2.9-0.5
	c0.9-1.3,1.9-1.8,3.3-1.5l0,0c1.7,1.3,1.9,1.8,1.4,3.9c0.8,0.5,1.7,0.9,2.4,1.5c0.9,0.7,1,2.1,0.4,3.1c-0.6,1.1-1.5,1.2-2.6,1
	c-1-0.2-1.6-0.8-1.5-2.1c0.3,0.3,0.6,0.6,0.9,0.6c0.5,0,1.3,0.1,1.6-0.2c0.3-0.3,0.2-1.2-0.1-1.6c-0.4-0.4-1.2-0.7-1.7-0.6
	C40.4,16.2,40,16.8,39.6,17.3L39.6,17.3z"/>
<path d="M67.9,10.1c0.5,0.2,1,0.4,1.5,0.6c0.1-0.6,0.2-1.2,0.3-1.8c0.8,0.2,1.3,0.9,1.1,1.8c-0.2,1-1.2,1.7-2.3,1.6
	c-2-0.3-3.2-2.2-2.4-4.1c0.2-0.5,0.5-1,0.8-1.6c-1.3-0.7-2.3-1.8-2-3.4c0.3-1.5,1.3-2.5,2.8-3.2c-0.6,0.9-1.2,1.4-1.5,2.1
	c-0.9,1.9-0.1,3.1,2,3.2c0.7,0,1.5,0,2.1,0.2c3.5,1,5.1,4.6,4,8.5c-0.5,1.7-1.5,2.9-3,3.7c-1.5,0.8-2.9,1.6-4.3,2.5
	c-3.7,2.4-4.7,5.8-2.9,9.8c0.1,0.2,0.2,0.5,0.3,0.6c2.3,3.4,0.9,6.8-1.6,9.4c1-2.4,1.4-4.8,0.8-7.3c-0.3-1.4-0.7-2.7-1-4.1
	c-0.8-3.9,0.4-7.1,3.7-9.4c1.3-0.9,2.8-1.8,4-2.8c2.4-1.9,3.6-4.9,2.8-7.3c-0.5-1.8-2.3-3.1-4.1-3.1c-1.1,0-1.7,0.6-2,1.6
	C66.9,8.8,67,9.6,67.9,10.1L67.9,10.1z"/>
<path d="M61.9,40.3c-2.8-2.2-3.6-5.9-2.1-8.8c1-1.8,1.7-3.7,1.5-5.8c-0.2-2-1.1-3.6-2.8-4.7c-1.5-1.1-3.2-2-4.8-2.9
	c-3.1-1.8-4.3-4.4-3.6-8c0.5-2.8,2.5-4.6,5.4-4.8c0.2,0,0.4,0,0.6,0c0.9,0,2.1,0.1,2.3-1c0.2-0.9-0.2-2-0.5-2.9
	c-0.2-0.5-0.8-0.9-1.2-1.3c1.4,0.3,2.7,1.5,2.9,3c0.3,1.6-0.5,2.8-1.9,3.5c0.3,0.6,0.7,1.2,0.9,1.8c0.6,1.9-0.7,3.8-2.7,3.9
	c-1,0-1.8-0.4-2.1-1.4C53.5,10,53.9,9.4,55,8.8c0,0.1,0.1,0.1,0.1,0.2c0,0.6,0.1,1.1,0.1,1.7c0.6-0.2,1.4-0.3,1.7-0.7
	c0.4-0.6,0.5-1.5,0.4-2.2c-0.2-0.9-0.9-1.4-1.8-1.4c-2.3-0.1-4.5,2.1-4.4,4.6c0.2,2.5,1.2,4.5,3.2,5.9c1.1,0.8,2.2,1.5,3.3,2.2
	c4.2,2.8,5.4,6,4.1,11c-0.3,1-0.6,2.1-0.8,3.1C60.3,35.6,60.7,37.9,61.9,40.3z"/>
<path d="M36.3,23.5c-2.2-1.5-3.9-3.5-4.4-6.2c-0.2-0.9-0.1-1.8-0.2-2.7c-0.1-1.7-0.8-3.2-2.3-4.1c-1.2-0.7-2.6-0.1-2.8,1.2
	c0,0.5,0.3,1.4,0.7,1.6c0.4,0.2,1.1-0.1,1.7-0.2c0.2-0.1,0.4-0.4,0.6-0.6c0.4,1.5,0.1,2.4-1,2.8c-1.2,0.4-2.4-0.2-2.9-1.5
	c-0.5-1.3-0.2-2.5,0.7-3.6c0.7-0.8,1.6-1.2,2.6-0.7c1.1,0.6,2.1,1.5,3.2,2.3c0.7-1.9,1.5-4.1,1.3-6.5c-0.2-2.2-1.9-3.8-4-3.7
	c-1.1,0-1.8,0.6-2.2,1.5c-0.5,1-0.6,2,0.1,2.9c0.3,0.3,0.9,0.4,1.3,0.6c0.2-0.5,0.3-1,0.5-1.5c0.7,0.5,0.7,1.3,0.3,2.1
	c-0.5,0.9-1.6,1.2-2.7,0.8c-1.3-0.5-1.7-1.8-1.3-3.9c-1.8-0.9-2.1-1.6-1.4-3.4c0.1,0.1,0.3,0.2,0.3,0.3c0.9,1.3,1.5,1.4,2.8,0.5
	c1.6-1.2,3.2-1.5,5-0.7C34.6,2,35.6,4.2,34.8,7c-0.3,1.1-0.8,2.3-1.3,3.4c-2.7,6.1-0.4,11.4,5.9,13.6c0.3,0.1,0.6,0.2,0.8,0.6
	c-1.2-0.3-2.4-0.6-3.6-0.9C36.5,23.6,36.4,23.6,36.3,23.5z"/>
<path d="M86.8,24.1c-0.8,0.1-1.6,0.2-2.4,0.3c0-0.1,0-0.1,0-0.2c0.8-0.3,1.7-0.6,2.5-1c4.7-2.3,6.6-7.1,4.7-12
	c-0.6-1.4-1.2-2.8-1.6-4.2c-0.7-2.4-0.1-4.4,1.7-5.6c2-1.4,3.7-1.3,5.9,0.1c1.4,0.9,1.8,0.9,3.1-0.7c0.8,1.6,0.5,2.6-1.1,3.3
	c-0.1,1,0.1,2-0.3,2.7c-0.3,0.7-1.2,1.3-2,1.4c-0.6,0.1-1.5-0.4-1.9-0.9c-0.3-0.4-0.1-1.2,0-1.9c0-0.1,0.2-0.1,0.1-0.1
	c0.3,0.4,0.6,0.9,1,1.3c0.4-0.4,1.1-0.8,1.3-1.3c0.5-1.1,0-2.2-0.8-3.1c-0.8-0.9-1.8-0.9-2.9-0.5c-2,0.7-3.1,2.7-2.8,5.4
	c0.1,0.8,0.3,1.6,0.5,2.3c0.2,0.9,0.6,1.7,0.9,2.7c0.5-0.7,1-1.3,1.5-1.8c1.3-1.1,2.7-1.3,3.7-0.5c1.2,0.9,1.7,2.8,1,4.2
	c-0.5,1.1-1.8,1.6-2.9,1.2c-1.1-0.4-1.4-1.3-0.9-2.6c0.6,0.3,1.1,0.7,1.7,0.8c0.3,0.1,0.7-0.2,0.9-0.4c0.7-0.7,0.6-1.5-0.2-2.4
	c0,0,0,0,0,0c-0.8-0.9-1.6-0.7-2.4-0.1c-1.2,0.8-2,1.9-2,3.4c-0.1,2.4-0.4,4.7-1.6,6.8c0,0,0,0,0,0c-1,0.8-1.9,1.7-2.9,2.5
	c-0.3,0.3-0.6,0.5-0.9,0.8C87.2,24.1,87,24.1,86.8,24.1z"/>
<path d="M76.5,6.3c-1.2,1.1-1.4,2.5-0.7,4c0.3,0.6,0.8,1.2,1.2,1.8c1.4,2,1.3,4-0.4,5.8c-0.8,0.9-1.9,1.6-2.6,2.2
	c1.9,0.4,3.9,0.9,6,1.4c1.7,0.4,1.9,0.4,4.7-0.3c-0.2,0.3-0.5,0.9-0.7,1c-1.2,0.1-2.5,0.2-3.7,0.1c-1.4-0.2-2.8-0.8-4.2-1
	c-6.4-0.8-10.4,3-10.1,9.4c0,0.2,0,0.3,0,0.5c-1.5-3.7-0.2-7.3,2.5-9c1.3-0.8,2.7-1.4,4-2.1c1.2-0.7,2.4-1.4,3.3-2.3
	c1.6-1.5,1.8-3.5,0.6-5.3c-1.1-1.6-1.6-3.2-1.4-5.2c0.2-2-0.7-2.8-2.8-2.9c1.2-1.6,2.7-1.3,3.7,0.8c0.8-1.5,0.4-2.4-1.4-3.3
	c0.6,0,1.5-0.3,1.9,0.1c0.6,0.6,1,1.5,1.4,2.2c-0.1,0.1-0.2,0.2-0.3,0.3c0.5,0,0.9,0,1.4,0c1.4,0.1,2.4,0.8,3,2
	c0.5,1.1,0.3,2-0.6,2.6c-0.9,0.7-1.8,0.5-2.6-0.1c0.6-0.5,1.2-0.9,1.5-1.5c0.1-0.3-0.6-0.9-0.9-1.4C78.3,5.5,77.4,5.7,76.5,6.3z"/>
<path d="M42.8,24c-6.1,0.5-11.1-5.8-9.4-11.7c0.3-0.9,0.6-1.7,0.9-2.6C34.9,8,35.4,6.3,36,4.7c0.6,1.1,0.6,2.5,0.3,3.9
	c-0.3,1.4-0.8,2.8-1.1,4.2c-0.9,4.9,1.2,8.8,5.9,10.7C41.6,23.6,42.2,23.9,42.8,24C42.7,24.1,42.8,24,42.8,24z"/>
<path d="M1.4,5.2c2.7,2.2,5.7,1.5,8.7,0.8c2-0.4,4.1-0.8,6.1-0.9c2,0,3.7,0.9,5,2.5c0.4,0.5,0.7,1.2,0.8,2c-0.2-0.2-0.5-0.3-0.7-0.5
	c-1.5-1-2.7-0.9-4.1,0.3c-0.8,0.7-1.6,1.5-2.5,1.9c-1.2,0.6-1.9-0.1-1.7-1.6c0.9,1,1.8,0.6,2.6-0.2c0.1-0.1,0.3-0.3,0.4-0.4
	c1.8-1.9,2.1-2,4.9-1.5c-2.1-1.7-4.3-2.2-6.6-1.8c-1.4,0.2-2.7,0.8-4,1.2C8.6,7.8,7,8.5,5.2,8.1C3.5,7.8,2.2,6.9,1.4,5.2z"/>
<path d="M102.4,9.5c0.3-0.6,0.5-1.3,0.9-1.8c2.2-2.5,5-2.9,8.1-2.4c1.5,0.2,2.9,0.7,4.4,1.1c2.6,0.6,5,0.6,7.4-1.4
	c-1.1,2.7-3.9,3.8-6.9,2.9c-1.9-0.6-3.8-1.4-5.8-1.9c-2.3-0.5-4.5,0-6.4,1.7c2-0.7,3.5,0.1,4.7,1.6c1.1,1.4,1.8,1.4,2.8,0.6
	c0.3,1.2-0.4,2-1.5,1.6c-0.7-0.3-1.4-0.8-2-1.3C105.8,8.1,105.4,8,102.4,9.5z"/>
<path d="M81.9,24.1c0.3-0.1,0.6-0.3,0.9-0.4c2.9-0.4,4.5-2.5,5.9-4.6c1.4-2.2,1.3-4.7,0.6-7.2c-0.4-1.7-0.8-3.3-1-5
	c-0.1-0.8,0.2-1.6,0.3-2.2c0.8,2.3,1.7,4.7,2.5,7.1c2.4,7.1-3.5,11.9-8.2,12.3C82.5,24.2,82.2,24.1,81.9,24.1
	C81.9,24.1,81.9,24.1,81.9,24.1z"/>
<path d="M84.5,10.3c1.4-0.3,2.4,0.2,3.3,1.5c-1.2-0.4-2.3-0.5-2.9,0.6c-0.7,1.2-0.1,2.4,0.6,3.5c1.3-1.7,2.1-1.7,3-0.2
	c-1.4,0.2-2,1-2,2.3c0,0.8-0.2,1.6-0.4,2.6c-0.4-0.1-0.7-0.2-1-0.3c0.1,0,0.2-0.1,0.3-0.1c-0.2-0.9-0.3-1.9-0.5-2.8c0,0,0,0,0,0
	c-0.4-0.4-0.8-1.2-1.3-1.2c-0.6-0.1-1.4,0.3-1.8,0.8c-0.6,0.5-0.9,1.3-1.4,2c-1.2-1.9-0.4-3.2,2.7-4.6C82.5,12.6,83,11.3,84.5,10.3
	L84.5,10.3z"/>
<path d="M67.9,10.1c-0.4-1-0.7-2,0.4-2.8c0.9-0.7,2-0.6,3.2,0.3c2,1.5,2.3,4.8,0.3,7c-1,1.2-2.3,2.2-3.7,3C66,19,64,20.4,62.7,22.5
	c0.5-2.8,1.8-5,4.4-6.2c0.8-0.4,1.6-0.7,2.4-1c1.8-0.9,2.8-2.6,2.5-4.5C72,10,71.5,9.1,70.9,8.6c-1.2-1.1-2.3-0.6-2.8,0.9
	C68.1,9.7,68,9.9,67.9,10.1C67.9,10.1,67.9,10.1,67.9,10.1z"/>
<path d="M57,9.6c-0.7-0.6-1.2-1.4-1.9-1.5c-1.2-0.2-2,0.7-2.4,1.8c-0.7,1.7,0.1,4,1.9,5.1c0.8,0.5,1.7,0.8,2.6,1.2
	c2.4,1,3.8,2.9,4.6,5.4c0,0.2,0.1,0.3,0.1,0.5c0,0.1-0.1,0.1-0.2,0.3c-1.4-2.7-4.1-3.8-6.3-5.4c-1.8-1.3-3.4-2.8-3.8-5.1
	c-0.4-2.3,0.8-4.4,3-4.7c0.7-0.1,1.7,0.3,2.2,0.8C57.1,8.2,56.9,9.1,57,9.6z"/>
<path d="M75.2,11.9c1.6,1.9,1.6,4,0,5.6c-0.9,0.9-2.1,1.5-3.2,2.1c-0.9,0.5-1.8,0.8-2.7,1.2c-3.5,1.7-5.1,4.7-4.4,8.5
	c0,0.2,0,0.4,0.1,0.7c-1.6-1.9-1.2-5.8,0.9-7.8c0.9-0.9,2.1-1.6,3.2-2.3c0.7-0.5,1.5-0.8,2.2-1.2C73.8,17.2,75.4,15.2,75.2,11.9z"/>
<path d="M59.8,30c0-1.2,0.2-2.5,0-3.7c-0.5-2.7-2.2-4.4-4.6-5.6c-1.7-0.8-3.5-1.5-5.1-2.6c-2.1-1.5-2.5-3.8-1.1-5.9
	c0.1-0.1,0.2-0.1,0.4-0.3c-0.2,3.9,2.2,5.8,5.2,7.4c1.2,0.6,2.5,1.3,3.6,2.2C60.7,23.6,61.4,27.1,59.8,30z"/>
<path d="M61.3,40.9c-1.8-1.2-3.1-2.9-3.8-4.9c-0.4-1.1-0.7-2.1-1-3.2c-1.4-4-3.2-5-7.2-4c1.7-2.5,5.1-2.4,7.2,0
	c1.2,1.4,1.6,3.1,1.6,4.8c0.1,2.7,1.2,4.8,2.8,6.8C61.1,40.6,61.2,40.8,61.3,40.9z"/>
<path d="M63.4,40.9c1.9-2.1,3-4.6,3.1-7.5c0-0.7,0.1-1.4,0.3-2.1c0.6-2.1,2-3.6,4.2-4.2c1.7-0.4,3.3,0.2,4.4,1.8
	c-0.4-0.1-0.7-0.2-0.9-0.3c-2.2-0.7-4.3,0-5.4,2.1c-0.7,1.5-1.2,3.1-1.7,4.7C66.6,37.6,65.3,39.5,63.4,40.9z"/>
<path d="M123.7,0.4c-1.1,3-3.1,4.1-6.3,3.5c-1.6-0.3-3.1-0.8-4.6-1.3c-2.8-0.8-5.5-0.8-8.2,1c1.7-2.8,4.4-3.9,7.2-3.1
	c1.1,0.3,2.1,0.9,3.1,1.3c0.7,0.3,1.4,0.7,2.2,1C120.1,3.8,121.7,3.3,123.7,0.4z"/>
<path d="M19.8,3.4c-3.2-2.1-6.4-1.3-9.7-0.4C8.5,3.6,6.7,3.9,5,3.9C3.1,4,1.7,2.8,1.2,1C3.7,3.6,5.6,3.9,9,2.2c1-0.5,2-1.1,3.1-1.5
	C15.1-0.4,17.6,0.4,19.8,3.4z"/>
<path d="M52.2,34c0,0.6,0.3,1.4,0,1.9c-0.3,0.5-1.2,1-1.7,0.9c-0.6-0.1-1.4-0.7-1.6-1.3c-0.7-1.4,0.4-3.9,1.8-4.6
	c1.4-0.8,3.7-0.2,4.7,1.2c0.3,0.5,0.7,1,0.8,1.6c0.8,3.1,2.3,5.7,4.9,8c-1.8-0.8-3.9-3.1-4.6-5c-0.5-1.1-0.8-2.3-1.4-3.4
	c-1.1-2.2-3.6-2.3-4.9-0.4c-0.2,0.3-0.5,0.8-0.4,1.1c0.1,0.5,0.5,0.9,0.8,1.4c0.3-0.3,0.7-0.7,1-1c0.1-0.1,0.1-0.3,0.1-0.4
	C51.9,34,52.1,34,52.2,34z"/>
<path d="M63.7,41.7c2.4-2.3,3.9-4.9,4.7-8.1c0.2-0.7,0.7-1.5,1.2-2c1.1-1,3-1.3,4.1-0.7c1.2,0.6,2.4,2.7,2.1,4
	c-0.2,0.7-0.8,1.5-1.4,1.9c-0.7,0.5-1.6,0.1-2.1-0.7c-0.5-0.8-0.4-1.5,0.4-2.2c0.1,0.3,0.1,0.5,0.3,0.6c0.3,0.3,0.7,0.6,1,0.9
	c0.3-0.4,0.8-0.8,0.8-1.3c0-1.6-1.9-3-3.4-2.4c-0.8,0.3-1.5,0.9-2,1.6c-0.5,0.6-0.8,1.5-1,2.3C67.8,38.4,65.9,40.2,63.7,41.7z"/>
<path d="M66.7,12.4c-1.2,0-2.4-0.4-3-1.7c-0.6-1.3-0.3-2.5,0.6-3.5c-2.7-3.1-2.2-6.1,0.9-6.8c-0.3,1-1.1,2.2-1,3.3
	c0.1,1.1,0.9,2.1,1.5,3.4c-0.2,0.6-0.7,1.7-0.6,2.6C65.4,10.7,66.2,11.5,66.7,12.4z"/>
<path d="M60.2,7.2c1,1.1,1.3,2.3,0.7,3.5c-0.6,1.3-1.9,1.6-3.1,1.8c0.5-0.9,1.4-1.7,1.5-2.6c0.2-0.9-0.3-1.9-0.6-3.1
	c2.3-2.5,2.4-3.5,0.2-6.4c1.5,0.4,2.5,1.1,2.9,2.5C62.5,4.6,61.6,6,60.2,7.2z"/>
<path d="M49.5,1c-2,0.3-2.5,0.8-2.8,2.7c-1.2,0.4-2.5,0.6-3.3,1.3c-0.8,0.7-1.1,1.9-1.5,2.8c-1.4-2.1-0.3-4.8,2.6-5.2
	c0.7-0.1,1.1-0.2,1.4-0.9C46.5,0.3,48,0.1,49.5,1z"/>
<path d="M75.2,1c1.6-1.2,2.8-0.7,3.9,1.5c3.8,0.4,5.2,2.7,3.6,5.3C82.3,6.9,82,5.7,81.2,5c-0.8-0.7-2.1-0.8-3.2-1.2
	C77.6,1.8,77.2,1.4,75.2,1z"/>
<path d="M36.3,23.5c0.1,0,0.1,0.1,0.2,0.1c0.3,0.2,0.6,0.4,0.9,0.6c-1.9,0.2-4.6-1.3-5.4-3.3c-0.6-1.7-0.8-3.5-1.2-5.3
	c-0.2-0.9-0.2-1.9-0.6-2.8c-0.6-1.7-1.9-1.9-3.4-0.8c0.2-0.4,0.3-1,0.6-1.2c0.4-0.2,1.1-0.3,1.5-0.1c1.4,0.6,2,1.9,2.2,3.3
	c0.2,1.3,0.2,2.7,0.5,4c0.4,2.1,1.7,3.7,3.3,5C35.5,23.2,35.9,23.3,36.3,23.5z"/>
<path d="M86.8,24.1c0.2,0,0.5-0.1,0.7-0.1c1.7-0.7,3.1-1.6,3.9-3.3c0,0,0,0,0,0c0.4-0.6,1-1.2,1.2-2c0.4-1.5,0.6-3.1,0.7-4.7
	c0.3-2.5,2-4,4.1-3.5c0,0,0,0,0,0c0.1,0.4,0.2,0.9,0.4,1.5c-1.8-1.3-3-0.9-3.5,1.2c-0.4,1.5-0.5,3.1-0.7,4.6
	c-0.5,3.6-2.1,5.5-5.6,6.4C87.5,24.4,87.1,24.2,86.8,24.1z"/>
<path d="M50.3,34.5c0.3-2,2-2.8,3.4-1.7c0.5,0.3,0.9,0.9,1.1,1.4c1.1,3.2,2.6,6.2,5.5,8.3c-2.5-1.5-5-2.9-5.5-6.2
	c-0.1-0.6-0.5-1.3-0.9-1.8C52.7,33.1,51.6,33.1,50.3,34.5z"/>
<path d="M74.5,34.7C73,33,71.6,33.1,70.4,35c-0.2,0.3-0.3,0.6-0.4,1c-1.2,3.7-2,4.6-5.2,6.4c0.3-0.3,0.8-1,1.3-1.6
	c1.3-1.4,2.3-2.9,2.9-4.7c0.2-0.8,0.6-1.5,0.9-2.2c0.5-1,1.4-1.7,2.6-1.5C73.8,32.5,74.3,33.4,74.5,34.7z"/>
<path d="M96.5,16.9c-0.3,0.2-0.7,0.3-1,0.5c-0.1-0.2-0.2-0.5-0.1-0.5c0.6-0.4,1.1-1,1.8-1.1c1.8-0.5,2.4-1.7,2.4-3.4
	c0.1-1.2,0.2-2.4,0.5-3.6c0.3-1.6,1.2-2.9,2.7-3.8c-1.9,2.2-2,4.9-2.1,7.6c-0.1,2.6-0.6,3-3.1,3.7C97.2,16.4,96.8,16.7,96.5,16.9z"
	/>
<path d="M29,17.3c-0.7-0.3-1.4-0.8-2.2-1c-2-0.5-2.5-1-2.7-3c-0.1-1-0.1-1.9-0.2-2.9c-0.1-1.9-0.7-3.7-2-5.3c1.8,1,2.6,2.7,2.9,4.7
	c0.1,0.9,0.2,1.8,0.3,2.7c0.1,1.6,0.7,2.8,2.4,3.2c0.6,0.2,1.2,0.7,1.7,1C29.1,16.9,29,17.1,29,17.3C28.9,17.2,29,17.3,29,17.3z"/>
<path d="M76.5,6.3c0.9-0.6,1.8-0.8,2.8-0.1c-0.3,0.1-0.6,0.3-0.9,0.4c-1.2,0.5-1.6,1.5-1.1,2.7c0.3,0.7,0.8,1.4,1.1,2.1
	c0.8,1.7,0.8,3.5-0.2,4.9c0.8-2.2-0.3-3.7-1.5-5.3C75.5,9.5,75.6,7.8,76.5,6.3z"/>
<path d="M48,6.2c0.1,0.1,0.3,0.2,0.4,0.4c0.3,1.2,0.8,2.3,0.1,3.5c-0.2,0.4-0.4,0.9-0.6,1.4c0,0,0,0,0,0c-1.4,1.1-1.8,2.2-1.5,4.6
	c-0.7-0.8-0.9-2.2-0.5-3.5c0.2-0.8,0.6-1.5,1-2.2c1.3-2.3,1.1-3-1.2-4.5C46.4,6,47.2,6.1,48,6.2z"/>
<path d="M99.9,18.7c0,0.2,0.1,0.5,0.1,0.7c-0.2,0-0.5,0.1-0.5,0c-0.5-0.9-1.2-1.6-2.3-1.3c-1.2,0.3-1.6,1.2-1.7,2.3
	c-0.1,0.5,0,1-0.1,1.4c-0.2,3-1.7,4.6-4.6,5c-0.4,0.1-0.8,0.1-1.2,0.1c0.3-0.1,0.6-0.3,0.8-0.4c2.9-1.1,4.3-3.2,4.6-6.2
	c0.1-1.9,1.4-3.2,2.9-2.9C98.6,17.8,99.2,18.4,99.9,18.7z"/>
<path d="M10.1,13.4c-0.1-0.3-0.2-0.7-0.3-1c-0.5-1.4-1.4-1.9-2.8-2c-0.9,0-1.8,0.1-2.8,0c-1.7-0.1-2.6-1.1-2.5-2.9
	c1.2,1.7,2.7,2.3,4.5,1.8c0.1,0,0.2,0,0.2,0C9,9,10.7,10.7,10.1,13.4z"/>
<path d="M114.5,13.6c-0.7-2,0.6-4.2,2.6-4.4c0.4,0,0.7,0,1.1,0c2.9,0.3,2.9,0.3,4.8-1.5c0.2,1.4-0.7,2.5-2.4,2.6
	c-0.7,0.1-1.4,0-2.2,0C115.9,10.4,115,11.1,114.5,13.6z"/>
<path d="M40.1,10.3c-0.4-0.2-0.7-0.4-1-0.5c2-1,4.3,0.4,4.2,2.7c0,0.7,0.1,1,0.7,1.4c1.3,0.7,1.6,1.8,1.1,3.6
	c-0.4-1.9-1.4-3-3.1-3.4C42.3,11.6,41.7,10.5,40.1,10.3C40,10.3,40.1,10.3,40.1,10.3z"/>
<path d="M54.9,24.8c0.1,0.1,0.1,0.2,0.2,0.3c-0.5-0.1-1-0.3-1.5-0.4c-2-0.4-3.6,0.1-5,1.6c-0.7,0.8-1.3,1.5-2.1,2.2
	c-1,0.8-1.6,0.9-2.9,0.5c1.6,0,2.6-0.7,3.2-2C48.4,23.6,51.5,22.7,54.9,24.8z"/>
<path d="M84.5,10.3c-1.7,0.3-2.3,1.4-1.9,3.8c-1.6,0.5-2.8,1.5-3,3.4c-0.8-1.8-0.3-2.9,1.7-4c-0.4-3.3,2.4-4.8,4.3-3.7
	C85.2,10,84.9,10.1,84.5,10.3C84.5,10.3,84.5,10.3,84.5,10.3z"/>
<path d="M69.8,30.8c1.5-2,3.6-2.4,5.4-1.3c1.3,0.8,2.3,2.9,1.1,5c-0.1-1.7-0.6-3-1.9-3.9C73,29.7,71.5,30.1,69.8,30.8z"/>
<path d="M69.9,25c1.7-1.8,5-1.6,6.6,0.2c0.5,0.6,0.9,1.3,1.3,2c0.8,1.2,1.4,1.7,2.9,1.8c0,0.1,0,0.2,0,0.3c-0.6-0.1-1.4-0.1-1.9-0.4
	c-0.7-0.4-1.5-1-2-1.7C75.1,24.9,72.9,23.9,69.9,25z"/>
<path d="M34.8,27c-2.9,0.2-5-1.4-5.4-3.9c-0.1-0.9-0.2-1.8-0.3-2.7c-0.2-1.1-0.7-1.9-1.8-2.1c-1-0.2-1.6,0.4-2.1,1.2
	c-0.1,0.1-0.1,0.2-0.2,0.3c0-1.7,1.7-2.7,3.2-1.8c0.7,0.4,1.4,1.3,1.5,2C29.8,23.3,31.2,25.8,34.8,27z"/>
<path d="M54.5,30.6c-4.5-0.7-5.9,0.2-6.2,3.9c-1-1.5-0.5-3.8,1-4.9C51,28.4,53.3,28.8,54.5,30.6z"/>
<path d="M72.8,23.3c1.6-0.6,3.1-0.2,4.6,0.5c2.3,1.2,4.6,2.4,6.6,3.4c-2.1-0.2-4.6-0.5-6.7-2.2C76,23.9,74.6,23.1,72.8,23.3z"/>
<path d="M40.5,27.2c1.9-1,4.2-2.1,6.4-3.3c1.5-0.8,3.1-1.3,4.8-0.6c-1.8-0.2-3.2,0.6-4.5,1.7C45.1,26.7,42.6,27,40.5,27.2z"/>
<path d="M39.6,17.3c0.9,3.3,1.3,3.5,4.7,2.9c1.5-0.3,3-0.3,4.5-0.4c0,0.1,0,0.3,0.1,0.4c-1.9,0.4-3.8,1-5.7,1.2
	C40.3,21.5,39.2,20,39.6,17.3C39.6,17.3,39.6,17.3,39.6,17.3z"/>
<path d="M85,17.3c0.5,2.5-0.4,3.9-3,4c-0.9,0.1-1.8-0.1-2.7-0.3c-1.2-0.3-2.3-0.7-3.5-1.1c1.6-0.1,3.3-0.4,4.9,0.4
	c1.6,0.8,3.7-0.4,4.1-2.1C84.8,17.9,84.9,17.6,85,17.3C85,17.3,85,17.3,85,17.3z"/>
<path d="M100.4,16.2c0.3-0.3,0.6-0.7,0.9-1c0.2-0.5,0.4-1,0.7-1.5c0.3-0.6,0.7-1.3,1.1-1.8c0.5-0.6,1.3-0.7,1.9-0.1
	c0.5,0.5,0.5,1.1-0.2,1.9c-0.1-0.2-0.1-0.4-0.2-0.5c-0.2-0.3-0.4-0.7-0.6-0.8c-0.3,0-0.7,0.3-0.9,0.5c-0.3,0.3-0.4,0.8-0.5,1.2
	c-0.2,1-0.7,1.8-1.7,2.3l0,0C100.8,16.4,100.6,16.3,100.4,16.2z"/>
<path d="M23.6,15.7c0.2,0.2,0.3,0.3,0.5,0.5c-0.2,0-0.4,0.1-0.6,0.1l0,0c-0.5-0.7-1.1-1.4-1.6-2.1c-0.1-0.2-0.1-0.5-0.2-0.7
	c-0.4-0.4-0.8-0.8-1.2-1.2c-0.3,0.4-0.6,0.8-0.9,1.2c-0.7-0.4-0.8-1.2-0.2-1.7c0.3-0.3,1.3-0.5,1.6-0.2c0.6,0.6,1.1,1.4,1.5,2.2
	C23,14.5,23.3,15.1,23.6,15.7z"/>
<path d="M97.3,4.6c-1.8-2.1-2.7-2-5.6,0.4c0.5-1.9,1.8-3.1,3.3-3C96.3,2.2,97.1,3,97.3,4.6z"/>
<path d="M108.2,16.8c1.6-0.3,1.6-1.4,1.4-2.8c1.3,0.5,2.5,0.4,3.5-0.6c0,1.8-0.7,2.4-2.4,2.1C110.1,16.5,109.5,17.3,108.2,16.8
	C108.2,16.8,108.2,16.8,108.2,16.8z"/>
<path d="M33,5.2c-2.9-2.5-3.8-2.6-5.7-0.6c0.1-1.4,0.8-2.3,2.1-2.5C30.9,1.9,32.2,2.9,33,5.2z"/>
<path d="M15.8,17.2c-0.7-0.5-1.3-1-2.1-1.6c-1.4,0.2-2-0.3-2.2-2.2c1,1.1,2.2,1.2,3.2,0.8C15,15.1,15.4,16,15.8,17.2z"/>
<path d="M101.3,21.7c0.6-2.5,0.6-2.9-0.8-4.5c1.2,0.2,1.9,0.9,2.1,1.9C102.8,20.2,102.4,21.1,101.3,21.7z"/>
<path d="M24,17.2c-1.2,1.3-1.4,2.8-0.4,4.6c-1.2-0.7-1.7-1.4-1.6-2.4C22.1,18.2,22.8,17.5,24,17.2z"/>
<path d="M23.6,16.4c-0.1,0.2-0.1,0.5-0.2,0.5c-1.4,0.5-2.1,1.4-2,3c-0.1,0-0.3,0-0.4,0c0-0.8-0.2-1.6,0.1-2.2
	c0.3-0.5,1.1-0.8,1.8-1.1C23,16.4,23.3,16.4,23.6,16.4C23.6,16.4,23.6,16.4,23.6,16.4z"/>
<path d="M9.6,13.7c-0.6-0.6-1.2-1.3-2-1.7c-0.7-0.4-1.6-0.3-2.5-0.6C7.9,10.6,9.3,11.4,9.6,13.7z"/>
<path d="M115.1,13.4c0.1-2,1-2.5,4.4-1.9c-0.8,0.2-1.7,0.2-2.5,0.5C116.2,12.3,115.6,13,115.1,13.4z"/>
<path d="M24.6,7.4c-0.3-0.6-0.5-1.3-0.8-1.9c-0.1-0.3-0.3-0.5-0.4-0.8C23.2,4.1,23,3.6,23,3c0.5,0.5,1.1,1,1.7,1.6
	c0.1,0.8,0.1,1.7,0.2,2.6C24.8,7.3,24.7,7.3,24.6,7.4z"/>
<path d="M17.2,12.9c0.6,2,0.8,2.2,3,2.3c-0.8,0.8-1.7,1.1-2.7,0.4C16.6,14.9,16.9,14,17.2,12.9z"/>
<path d="M101.9,3c-0.2,0.5-0.5,1.1-0.7,1.6c-0.1,0.2-0.3,0.4-0.4,0.6c-0.3,0.7-0.5,1.4-0.8,2.1c-0.1,0-0.2-0.1-0.3-0.1
	c0.1-0.9,0.2-1.8,0.3-2.7c0.5-0.4,1.1-1,1.7-1.5C101.7,3,101.8,3,101.9,3z"/>
<path d="M104.4,15.2c2,0,2.3-0.3,2.9-2.1c0.5,0.9,0.7,1.7-0.2,2.5C106.3,16.2,105.5,16.1,104.4,15.2z"/>
<path d="M100.9,16.5c0.2,0,0.4,0,0.6,0c2.1,0,2.8,1.3,1.8,3.3C103.6,17.9,101.9,17.4,100.9,16.5C101,16.4,100.9,16.5,100.9,16.5z"/>
<path d="M36.7,12.6c0.8-0.6,1.6-0.9,2.4-0.2c0.7,0.6,0.6,1.4,0,2.3C38.8,13.4,38.2,12.5,36.7,12.6z"/>
<path d="M55.8,4.9c1.1-1.1,1.5-2.2,0.9-3.5c0.2,0,0.3-0.1,0.5-0.1c0.2,0.8,0.7,1.5,0.7,2.3C57.8,4.5,57,4.9,55.8,4.9z"/>
<path d="M67.5,1.6C67.8,2.7,68,3.8,68.3,5c-0.5-0.3-1.2-0.6-1.5-1.1C66.4,2.9,67,2.1,67.5,1.6z"/>
<path d="M88,12.6c-1.8,0.4-1.9,0.4-2.6,2.2c-0.5-0.8-0.6-1.6,0.1-2.3C86.3,11.7,87.1,12.1,88,12.6z"/>
<path d="M84.4,18c0.1,1-0.9,2.1-2.1,1.9c-0.2,0-0.5-0.4-0.5-0.5c0.1-0.3,0.3-0.6,0.6-0.7C83,18.4,83.7,18.2,84.4,18z"/>
<path d="M28.2,8.9c-1.5,0-2.3,0.9-2.8,2.4C25.1,8.8,26.1,8,28.2,8.9z"/>
<path d="M99.2,11.1c-0.5-1.3-1.3-2.1-2.7-2.3c0.7,0,1.5-0.2,2.1,0C99.5,9.2,99.3,10.2,99.2,11.1z"/>
<path d="M24.5,0.4c1.2,0.1,2.2,0.1,3.5,0.2c-0.9,0.3-1.6,0.8-2.4,0.8C25.3,1.5,24.9,0.8,24.5,0.4z"/>
<path d="M96.8,0.6c1,0,2-0.1,3.2-0.2c-0.2,0.3-0.6,1-0.8,1c-0.8-0.1-1.6-0.4-2.5-0.7C96.7,0.7,96.8,0.7,96.8,0.6z"/>
<path d="M50.3,6c0.4-1.3,1.1-1.6,2.4-1C51.8,5.3,51,5.7,50.3,6z"/>
<path d="M74.5,6.1c-0.9-0.4-1.7-0.8-2.4-1.1C72.9,4.3,73.8,4.7,74.5,6.1z"/>
<g>
</g>
<g>
</g>
<g>
</g>
<g>
</g>
<g>
</g>
<g>
</g>
</svg>
