<?xml version="1.0" encoding="utf-8"?>
<!-- Generator: Adobe Illustrator 22.0.1, SVG Export Plug-In . SVG Version: 6.00 Build 0)  -->
<svg version="1.1" id="Capa_1" xmlns="http://www.w3.org/2000/svg" xmlns:xlink="http://www.w3.org/1999/xlink" x="0px" y="0px"
	 viewBox="0 0 430 430" style="enable-background:new 0 0 430 430;" xml:space="preserve">
<style type="text/css">
	.st0{fill:#03A9F4;}
</style>
<g>
	<path class="st0" d="M360.1,100.1c-0.6-1.4-1.9-2.4-3.4-2.6c-1.5-0.2-3,0.5-3.9,1.7c-5.3,7.4-12.3,9.9-20.3,12.8
		c-6.5,2.3-13.2,4.7-20.5,9.9c-10.3,7.4-15,17.4-12.6,27l-0.3,0.3c-4.3-6.2-9-12-13.9-17.1c-23.1-24.1-55.3-38.5-88.4-39.7
		c-1.5-0.1-2.9-0.1-4.4-0.1c-37,0-72.4,16.5-97.1,45.4c-24.6,28.7-35.5,66-29.9,102.4c0.5,3,1.1,6.1,1.7,9.1
		c9.1,40,32.3,70.5,63.7,83.6c7.7,3.2,15.6,4.9,23.2,4.9c19,0,35.6-10.2,45.6-27.9c3.8-6.8,6.2-13.7,7.3-20.8
		c0.6-4.1,0.2-8.3-0.2-12.3c-0.4-4.1-0.8-8-0.2-12c1.4-9,7.7-14.4,16.8-14.4c2.6,0,5.2,0.4,7.9,1.3c-3.1,5.7-5.9,11.1-8.4,16.1
		c-5.2,10.6-8.8,19.5-10.7,26.2c-1.2,4.2-4.2,15.2,3.3,20.4c2.4,1.7,5.4,2.2,8.6,1.7c2.8-0.5,11.5-2.1,36-30
		c6.6-7.5,13.7-16.2,21.1-25.8c19-6.4,33.8-22.3,37.7-40.7c1-4.6,1.4-9.5,1.2-14.6c7.1-11,13.4-21.3,19.7-32.3
		c0.1-0.2,0.2-0.4,0.4-0.7c9.1-2.5,17-9.6,21.6-19.5C368.2,138,367.7,119.4,360.1,100.1z M257.3,168.7c-3.3,5.2-9,8.4-15.2,8.4
		c-3.4,0-6.7-1-9.5-2.8c-4-2.5-6.9-6.5-7.9-11.2s-0.2-9.5,2.3-13.5c3.3-5.2,9-8.4,15.2-8.4c3.4,0,6.7,1,9.5,2.8
		c4,2.5,6.9,6.5,7.9,11.2C260.6,159.8,259.8,164.6,257.3,168.7z M280.5,201.1c9.1-13.3,18.6-26.6,27.7-38.4c1.5,1.3,3.1,2.6,4.9,3.9
		c3,2.1,6.1,3.6,9.2,4.7c-7.7,13.1-15.9,26.1-25.9,40.9c-16.4,24.2-33.5,46.7-48.1,63.3c-8.1,9.3-15.3,16.4-20.8,20.9
		c2.1-6.8,6.2-16.1,11.8-27.1C249.5,249.5,264.1,225.3,280.5,201.1z M121.6,201c-3.4,0-6.7-1-9.5-2.8c-4-2.5-6.9-6.5-7.9-11.2
		c-1.1-4.7-0.2-9.5,2.3-13.5c3.3-5.2,9-8.4,15.2-8.4c3.4,0,6.7,1,9.5,2.8c8.4,5.3,10.9,16.3,5.6,24.7
		C133.4,197.9,127.8,201,121.6,201z M102.8,240.5c3.3-5.2,9-8.4,15.2-8.4c3.4,0,6.7,1,9.5,2.8c4,2.5,6.9,6.5,7.9,11.2
		c1.1,4.7,0.2,9.5-2.3,13.5c-3.3,5.2-9,8.4-15.2,8.4c-3.4,0-6.7-1-9.5-2.8c-4-2.5-6.9-6.5-7.9-11.2
		C99.4,249.3,100.2,244.5,102.8,240.5z M160.1,134.1c3.3-5.2,9-8.4,15.2-8.4c3.4,0,6.7,1,9.5,2.8c8.4,5.3,10.9,16.3,5.6,24.7
		c-3.3,5.2-9,8.4-15.2,8.4c-3.4,0-6.7-1-9.5-2.8c-4-2.5-6.9-6.5-7.9-11.2C156.8,142.9,157.6,138.1,160.1,134.1z"/>
</g>
</svg>
