<?xml version="1.0" encoding="utf-8"?>
<!-- Generator: Adobe Illustrator 22.0.1, SVG Export Plug-In . SVG Version: 6.00 Build 0)  -->
<svg version="1.1" id="Capa_1" xmlns="http://www.w3.org/2000/svg" xmlns:xlink="http://www.w3.org/1999/xlink" x="0px" y="0px"
	 viewBox="0 0 360 360" style="enable-background:new 0 0 360 360;" xml:space="preserve">
<style type="text/css">
	.st0{fill:#03A9F4;}
</style>
<path class="st0" d="M297,180c0-64.5-52.5-117-117-117S63,115.5,63,180c0,34.1,14.7,64.8,38,86.2l-0.1,0.1l3.8,3.2
	c0.2,0.2,0.5,0.4,0.8,0.6c2,1.7,4.1,3.3,6.2,4.8c0.7,0.5,1.4,1,2.1,1.5c2.3,1.6,4.6,3.1,7,4.5c0.5,0.3,1,0.6,1.6,0.9
	c2.6,1.5,5.3,2.9,8,4.2c0.2,0.1,0.4,0.2,0.6,0.3c8.9,4.1,18.4,7.2,28.3,9c0.3,0,0.5,0.1,0.8,0.1c3.1,0.5,6.2,1,9.3,1.2
	c0.4,0,0.8,0.1,1.2,0.1c3.1,0.3,6.3,0.4,9.5,0.4c3.2,0,6.3-0.2,9.5-0.4c0.4,0,0.8-0.1,1.2-0.1c3.1-0.3,6.2-0.7,9.3-1.2
	c0.3,0,0.5-0.1,0.8-0.1c9.8-1.8,19.1-4.7,27.9-8.7c0.3-0.1,0.7-0.3,1-0.4c2.6-1.2,5.2-2.6,7.7-4c0.6-0.4,1.2-0.7,1.9-1.1
	c2.3-1.3,4.5-2.8,6.7-4.3c0.8-0.5,1.6-1.1,2.3-1.7c1.9-1.3,3.7-2.7,5.5-4.2c0.4-0.3,0.8-0.6,1.2-0.9l3.9-3.3l-0.1-0.1
	C282.2,245.1,297,214.2,297,180z M71.5,180c0-59.8,48.7-108.5,108.5-108.5S288.5,120.2,288.5,180c0,32.2-14.1,61.2-36.5,81.1
	c-1.3-0.9-2.5-1.6-3.8-2.3l-36-18c-3.2-1.6-5.2-4.9-5.2-8.5v-12.6c0.8-1,1.7-2.2,2.6-3.5c4.7-6.6,8.4-13.9,11.1-21.8
	c5.4-2.6,8.9-7.9,8.9-14v-15.1c0-3.7-1.4-7.3-3.8-10.1v-19.9c0.2-2.2,1-14.7-8-24.9c-7.8-9-20.5-13.5-37.7-13.5s-29.9,4.5-37.7,13.5
	c-9,10.3-8.2,22.7-8,24.9v19.9c-2.4,2.8-3.8,6.4-3.8,10.1v15.1c0,4.7,2.1,9.1,5.7,12c3.4,13.5,10.5,23.7,13.2,27.2V232
	c0,3.5-1.9,6.7-4.9,8.3l-33.6,18.3c-1.1,0.6-2.1,1.3-3.2,2C85.4,240.8,71.5,212,71.5,180z"/>
</svg>
