<?xml version="1.0" encoding="utf-8"?>
<!-- Generator: Adobe Illustrator 16.0.0, SVG Export Plug-In . SVG Version: 6.00 Build 0)  -->
<!DOCTYPE svg PUBLIC "-//W3C//DTD SVG 1.1//EN" "http://www.w3.org/Graphics/SVG/1.1/DTD/svg11.dtd">
<svg version="1.1" id="Capa_1" xmlns="http://www.w3.org/2000/svg" xmlns:xlink="http://www.w3.org/1999/xlink" x="0px" y="0px"
	 width="500px" height="500px" viewBox="0 0 500 500" enable-background="new 0 0 500 500" xml:space="preserve">
<g>
	<path fill="#AAAAAA" d="M363.961,208.959L250.66,154.834c-1.315-0.637-2.908-0.086-3.529,1.225l-24.658,51.61h13.436l18.096-37.922
		l98.23,46.922l-30.718,64.29l-17.294-8.254v33.987l10.636,5.077c1.326,0.643,2.896,0.064,3.528-1.252l46.824-98.046
		C365.85,211.166,365.289,209.584,363.961,208.959z"/>
	<path fill="#AAAAAA" d="M293.703,213.901H168.132c-1.452,0-2.655,1.182-2.655,2.633v108.665c0,1.457,1.203,2.65,2.655,2.65h125.565
		c1.463,0,2.655-1.193,2.655-2.65V216.535C296.357,215.083,295.166,213.901,293.703,213.901z M286.451,297.181h-7.959
		c-4.635-11.888-10.339-28.527-18.998-26.306c-10.149,2.59-15.217,26.306-15.217,26.306s-5.196-26.759-19.517-41.085
		c-14.326-14.325-28.204,41.085-28.204,41.085h-18.96v-71.263h108.854V297.181L286.451,297.181z"/>
	<circle fill="#AAAAAA" cx="195.166" cy="241.209" r="8.881"/>
	<path fill="#AAAAAA" d="M254.75,247.479c1.992,0,3.858-0.21,5.521-0.539c1.937,0.82,4.301,1.322,6.842,1.322
		c6.558,0,11.854-3.2,11.854-7.15c0-3.939-5.299-7.139-11.854-7.139c-2.454,0-4.731,0.448-6.62,1.23
		c-0.783-0.761-1.824-1.23-2.984-1.23h-1.717c-2.201,0-3.934,1.667-4.182,3.788c-5.299,0.556-9.243,2.477-9.243,4.764
		C242.368,245.263,247.909,247.479,254.75,247.479z"/>
</g>
</svg>
