<?xml version="1.0" encoding="utf-8"?>
<!-- Generator: Adobe Illustrator 22.0.1, SVG Export Plug-In . SVG Version: 6.00 Build 0)  -->
<svg version="1.1" id="Layer_1" xmlns="http://www.w3.org/2000/svg" xmlns:xlink="http://www.w3.org/1999/xlink" x="0px" y="0px"
	 viewBox="0 0 169.2 28.9" style="enable-background:new 0 0 169.2 28.9;" xml:space="preserve">
<style type="text/css">
	.st0{fill:#808899;}
	.st1{fill:#FBD214;}
</style>
<g>
	<path class="st0" d="M0,0h5.5c3.6,0,6,0.2,7.3,0.5s2.2,0.9,2.9,1.6s1.1,1.6,1.2,2.5s0.2,2.7,0.2,5.4v10c0,2.6-0.1,4.3-0.4,5.1
		s-0.7,1.5-1.3,2s-1.3,0.8-2.2,1s-2.2,0.3-4,0.3H0V0z M7.4,4.9v18.7c1.1,0,1.7-0.2,2-0.6s0.4-1.6,0.4-3.5V8.4c0-1.3,0-2.1-0.1-2.5
		S9.3,5.3,9.1,5.1S8.2,4.9,7.4,4.9z"/>
	<path class="st0" d="M26,14.2h-6.7v-1.6c0-1.8,0.2-3.2,0.6-4.2s1.3-1.8,2.5-2.6s2.9-1.1,4.9-1.1c2.4,0,4.2,0.4,5.4,1.3
		s2,1.9,2.2,3.1s0.4,3.8,0.4,7.6v11.7h-6.9v-2.1c-0.4,0.8-1,1.5-1.7,1.9c-0.7,0.4-1.5,0.6-2.5,0.6c-1.2,0-2.4-0.3-3.4-1
		s-1.6-2.2-1.6-4.6v-1.9c0-1.7,0.3-2.9,0.8-3.6s1.9-1.4,4.1-2.2c2.3-0.9,3.6-1.5,3.7-1.8s0.2-1,0.2-1.9c0-1.2-0.1-2-0.3-2.4
		s-0.5-0.6-0.9-0.6c-0.5,0-0.8,0.2-0.9,0.5S26,10.4,26,11.7V14.2z M28.3,17.4c-1.1,0.8-1.8,1.5-2,2.1S26,20.8,26,21.9
		c0,1.2,0.1,2,0.2,2.3s0.5,0.5,0.9,0.5c0.4,0,0.7-0.1,0.9-0.4s0.2-1,0.2-2.2V17.4z"/>
	<path class="st0" d="M44.9,5.1l-0.3,3.1c1-2.2,2.5-3.4,4.5-3.5v8.2c-1.3,0-2.3,0.2-2.9,0.5s-1,0.8-1.1,1.5s-0.2,2.1-0.2,4.3v9.2
		h-7.1V5.1H44.9z"/>
	<path class="st0" d="M66,5.1l-2.9,9.3l3.7,14H60l-2.2-10.2l0,10.2h-7.1V0h7.1l0,11.9L60,5.1H66z"/>
	<path class="st1" d="M90.2,0l-5.4,18.2v10.3H78V18.2L72.8,0h6.8c1.1,5.6,1.7,9.3,1.8,11.2c0.4-3,1.1-6.8,2.1-11.2H90.2z"/>
	<path class="st1" d="M105.8,17.2h-9.2v5c0,1.1,0.1,1.7,0.2,2s0.4,0.5,0.9,0.5c0.5,0,0.9-0.2,1.1-0.6S99,23,99,21.8v-3.1h6.7v1.7
		c0,1.4-0.1,2.5-0.3,3.3s-0.6,1.6-1.3,2.5s-1.5,1.5-2.5,2s-2.3,0.7-3.9,0.7c-1.5,0-2.8-0.2-4-0.7s-2-1-2.7-1.8s-1.1-1.6-1.3-2.5
		s-0.4-2.2-0.4-4v-6.8c0-2,0.3-3.6,0.8-4.8s1.5-2.1,2.7-2.7s2.7-0.9,4.3-0.9c2,0,3.6,0.4,4.9,1.1s2.2,1.8,2.7,3s0.8,3,0.8,5.3V17.2z
		 M98.6,13.4v-1.7c0-1.2-0.1-2-0.2-2.3s-0.4-0.5-0.8-0.5c-0.5,0-0.8,0.1-0.9,0.4s-0.2,1.1-0.2,2.4v1.7H98.6z"/>
	<path class="st1" d="M115.4,0v28.5h-7.3V0H115.4z"/>
	<path class="st1" d="M125.3,0v28.5h-7.3V0H125.3z"/>
	<path class="st1" d="M143.9,13.3V19c0,2.1-0.1,3.6-0.3,4.6s-0.7,1.9-1.4,2.7s-1.6,1.5-2.7,1.9s-2.3,0.6-3.7,0.6
		c-1.6,0-2.9-0.2-4-0.5s-1.9-0.9-2.5-1.6s-1-1.5-1.3-2.5s-0.4-2.5-0.4-4.5v-6c0-2.2,0.2-3.9,0.7-5.1s1.3-2.2,2.5-2.9
		s2.8-1.1,4.7-1.1c1.6,0,3,0.2,4.1,0.7s2,1.1,2.6,1.9s1,1.5,1.3,2.4S143.9,11.7,143.9,13.3z M136.8,11.6c0-1.2-0.1-1.9-0.2-2.3
		s-0.4-0.5-0.8-0.5s-0.7,0.2-0.8,0.5s-0.2,1.1-0.2,2.3v10.5c0,1.1,0.1,1.8,0.2,2.2s0.4,0.5,0.8,0.5c0.4,0,0.7-0.2,0.8-0.5
		s0.2-1,0.2-2V11.6z"/>
	<path class="st1" d="M169.2,5.1l-2.8,23.3h-7.7c-0.4-2.8-0.9-6.6-1.5-11.3c-0.2,2.1-0.5,4.1-0.8,6.2l-0.8,5.1h-7.7l-3-23.3h6.1
		c0,0.6,0.6,5.1,1.6,13.4c0.1-0.9,0.6-5.3,1.6-13.4h5.9l1.4,13.4c0.2-3.9,0.8-8.4,1.6-13.4H169.2z"/>
</g>
</svg>
