<?xml version="1.0" encoding="utf-8"?>
<!-- Generator: Adobe Illustrator 22.0.1, SVG Export Plug-In . SVG Version: 6.00 Build 0)  -->
<svg version="1.1" id="Layer_1" xmlns="http://www.w3.org/2000/svg" xmlns:xlink="http://www.w3.org/1999/xlink" x="0px" y="0px"
	 viewBox="0 0 35.7 28.5" style="enable-background:new 0 0 35.7 28.5;" xml:space="preserve">
<style type="text/css">
	.st0{fill:#808899;}
	.st1{fill:#FBD214;}
</style>
<g>
	<path class="st0" d="M0,0h5.5c3.6,0,6,0.2,7.3,0.5s2.2,0.9,2.9,1.6s1.1,1.6,1.2,2.5s0.2,2.7,0.2,5.4v10c0,2.6-0.1,4.3-0.4,5.1
		s-0.7,1.5-1.3,2s-1.3,0.8-2.2,1s-2.2,0.3-4,0.3H0V0z M7.4,4.9v18.7c1.1,0,1.7-0.2,2-0.6s0.4-1.6,0.4-3.5V8.4c0-1.3,0-2.1-0.1-2.5
		S9.3,5.3,9.1,5.1S8.2,4.9,7.4,4.9z"/>
	<path class="st1" d="M35.7,0l-5.4,18.2v10.3h-6.9V18.2L18.2,0H25c1.1,5.6,1.7,9.3,1.8,11.2c0.4-3,1.1-6.8,2.1-11.2H35.7z"/>
</g>
</svg>
