<?xml version="1.0" encoding="utf-8"?>
<!-- Generator: Adobe Illustrator 22.0.1, SVG Export Plug-In . SVG Version: 6.00 Build 0)  -->
<svg version="1.1" id="Layer_1" xmlns="http://www.w3.org/2000/svg" xmlns:xlink="http://www.w3.org/1999/xlink" x="0px" y="0px"
	 viewBox="0 0 24 24" style="enable-background:new 0 0 24 24;" xml:space="preserve">
<style type="text/css">
	.st0{fill:#FBD214;}
</style>
<path class="st0" d="M20,2H4C2.9,2,2,2.9,2,4v16c0,1.1,0.9,2,2,2h16c1.1,0,2-0.9,2-2V4C22,2.9,21.1,2,20,2z M8.8,11.6V18H6v-5.9V10
	h2.8V11.6z M7.4,8.8C6.6,8.8,6,8.2,6,7.4C6,6.6,6.6,6,7.4,6c0.8,0,1.4,0.6,1.4,1.4C8.8,8.2,8.2,8.8,7.4,8.8z M18,18h-2.4v-3.9
	c0-0.9-0.1-2.1-1.4-2.1c-1.3,0-1.5,1-1.5,2.1v4h-2.3v-6.5V10h2.2v1.1h0C13,10.4,13.8,10,15,10c2,0,2.7,0.9,2.9,2.5
	c0,0.4,0.1,0.7,0.1,1.1V18z"/>
</svg>
