<?xml version="1.0" encoding="utf-8"?>
<!-- Generator: Adobe Illustrator 22.0.1, SVG Export Plug-In . SVG Version: 6.00 Build 0)  -->
<svg version="1.1" id="Layer_1" xmlns="http://www.w3.org/2000/svg" xmlns:xlink="http://www.w3.org/1999/xlink" x="0px" y="0px"
	 viewBox="0 0 186 186" style="enable-background:new 0 0 186 186;" xml:space="preserve">
<style type="text/css">
	.st0{fill:#808899;}
	.st1{fill:#FBD214;}
</style>
<g>
	<g>
		<path class="st0" d="M8.4,126.6h5.5c3.6,0,6,0.2,7.3,0.5c1.3,0.3,2.2,0.9,2.9,1.6s1.1,1.6,1.2,2.5c0.1,0.9,0.2,2.7,0.2,5.4v10
			c0,2.6-0.1,4.3-0.4,5.1s-0.7,1.5-1.3,2c-0.6,0.5-1.3,0.8-2.2,1s-2.2,0.3-4,0.3H8.4V126.6z M15.8,131.5v18.7c1.1,0,1.7-0.2,2-0.6
			c0.3-0.4,0.4-1.6,0.4-3.5V135c0-1.3,0-2.1-0.1-2.5c-0.1-0.4-0.4-0.6-0.6-0.8S16.6,131.5,15.8,131.5z"/>
		<path class="st0" d="M34.4,140.8h-6.7v-1.6c0-1.8,0.2-3.2,0.6-4.2s1.3-1.8,2.5-2.6c1.2-0.8,2.9-1.1,4.9-1.1c2.4,0,4.2,0.4,5.4,1.3
			c1.2,0.9,2,1.9,2.2,3.1s0.4,3.8,0.4,7.6V155h-6.9v-2.1c-0.4,0.8-1,1.5-1.7,1.9c-0.7,0.4-1.5,0.6-2.5,0.6c-1.2,0-2.4-0.3-3.4-1
			s-1.6-2.2-1.6-4.6v-1.9c0-1.7,0.3-2.9,0.8-3.6c0.5-0.7,1.9-1.4,4.1-2.2c2.3-0.9,3.6-1.5,3.7-1.8c0.1-0.3,0.2-1,0.2-1.9
			c0-1.2-0.1-2-0.3-2.4c-0.2-0.4-0.5-0.6-0.9-0.6c-0.5,0-0.8,0.2-0.9,0.5s0.1,1.1,0.1,2.4V140.8z M36.7,144c-1.1,0.8-1.8,1.5-2,2.1
			c-0.2,0.6-0.3,1.3-0.3,2.4c0,1.2,0.1,2,0.2,2.3c0.1,0.3,0.5,0.5,0.9,0.5c0.4,0,0.7-0.1,0.9-0.4s0.2-1,0.2-2.2L36.7,144L36.7,144z"
			/>
		<path class="st0" d="M53.3,131.7l-0.3,3.1c1-2.2,2.5-3.4,4.5-3.5v8.2c-1.3,0-2.3,0.2-2.9,0.5c-0.6,0.3-1,0.8-1.1,1.5
			c-0.1,0.7-0.2,2.1-0.2,4.3v9.2h-7.1v-23.3H53.3z"/>
		<path class="st0" d="M74.4,131.7l-2.9,9.3l3.7,14h-6.8l-2.2-10.2V155h-7.1v-28.4h7.1v11.9l2.2-6.8H74.4z"/>
		<path class="st1" d="M98.6,126.6l-5.4,18.2v10.3h-6.8v-10.3l-5.2-18.2H88c1.1,5.6,1.7,9.3,1.8,11.2c0.4-3,1.1-6.8,2.1-11.2H98.6z"
			/>
		<path class="st1" d="M114.2,143.8H105v5c0,1.1,0.1,1.7,0.2,2c0.1,0.3,0.4,0.5,0.9,0.5s0.9-0.2,1.1-0.6s0.2-1.1,0.2-2.3v-3.1h6.7
			v1.7c0,1.4-0.1,2.5-0.3,3.3c-0.2,0.8-0.6,1.6-1.3,2.5c-0.7,0.9-1.5,1.5-2.5,2s-2.3,0.7-3.9,0.7c-1.5,0-2.8-0.2-4-0.7s-2-1-2.7-1.8
			c-0.7-0.8-1.1-1.6-1.3-2.5c-0.2-0.9-0.4-2.2-0.4-4v-6.8c0-2,0.3-3.6,0.8-4.8s1.5-2.1,2.7-2.7c1.2-0.6,2.7-0.9,4.3-0.9
			c2,0,3.6,0.4,4.9,1.1s2.2,1.8,2.7,3s0.8,3,0.8,5.3v3.1H114.2z M107,140v-1.7c0-1.2-0.1-2-0.2-2.3c-0.1-0.3-0.4-0.5-0.8-0.5
			c-0.5,0-0.8,0.1-0.9,0.4s-0.2,1.1-0.2,2.4v1.7C104.9,140,107,140,107,140z"/>
		<path class="st1" d="M123.8,126.6v28.5h-7.3v-28.5H123.8z"/>
		<path class="st1" d="M133.7,126.6v28.5h-7.3v-28.5H133.7z"/>
		<path class="st1" d="M152.3,139.9v5.7c0,2.1-0.1,3.6-0.3,4.6c-0.2,1-0.7,1.9-1.4,2.7c-0.7,0.8-1.6,1.5-2.7,1.9
			c-1.1,0.4-2.3,0.6-3.7,0.6c-1.6,0-2.9-0.2-4-0.5s-1.9-0.9-2.5-1.6c-0.6-0.7-1-1.5-1.3-2.5c-0.3-1-0.4-2.5-0.4-4.5v-6
			c0-2.2,0.2-3.9,0.7-5.1c0.5-1.2,1.3-2.2,2.5-2.9c1.2-0.7,2.8-1.1,4.7-1.1c1.6,0,3,0.2,4.1,0.7s2,1.1,2.6,1.9
			c0.6,0.8,1,1.5,1.3,2.4C152.2,137.1,152.3,138.3,152.3,139.9z M145.2,138.2c0-1.2-0.1-1.9-0.2-2.3c-0.1-0.4-0.4-0.5-0.8-0.5
			c-0.4,0-0.7,0.2-0.8,0.5s-0.2,1.1-0.2,2.3v10.5c0,1.1,0.1,1.8,0.2,2.2c0.1,0.4,0.4,0.5,0.8,0.5c0.4,0,0.7-0.2,0.8-0.5s0.2-1,0.2-2
			V138.2z"/>
		<path class="st1" d="M177.6,131.7l-2.8,23.3h-7.7c-0.4-2.8-0.9-6.6-1.5-11.3c-0.2,2.1-0.5,4.1-0.8,6.2L164,155h-7.7l-3-23.3h6.1
			c0,0.6,0.6,5.1,1.6,13.4c0.1-0.9,0.6-5.3,1.6-13.4h5.9l1.4,13.4c0.2-3.9,0.8-8.4,1.6-13.4C171.5,131.7,177.6,131.7,177.6,131.7z"
			/>
	</g>
	<g>
		<path class="st0" d="M43.3,30.5h15.4c10.1,0,16.8,0.6,20.4,1.4c3.6,0.8,6.2,2.5,8.1,4.5c2,2,3.1,4.5,3.4,7
			c0.3,2.5,0.6,7.6,0.6,15.1v28c0,7.3-0.3,12-1.1,14.3c-0.8,2.2-2,4.2-3.6,5.6c-1.7,1.4-3.6,2.2-6.2,2.8S74.1,110,69,110H43.3V30.5z
			 M64,44.2v52.3c3.1,0,4.8-0.6,5.6-1.7c0.8-1.1,1.1-4.5,1.1-9.8V54c0-3.6,0-5.9-0.3-7s-1.1-1.7-1.7-2.2
			C68.2,44.2,66.2,44.2,64,44.2z"/>
		<path class="st1" d="M143.2,30.5l-15.1,50.9v28.8h-19.3V81.4L94.2,30.5h19c3.1,15.7,4.8,26,5,31.3c1.1-8.4,3.1-19,5.9-31.3H143.2z
			"/>
	</g>
</g>
</svg>
