<?xml version="1.0" encoding="utf-8"?>
<!-- Generator: Adobe Illustrator 22.0.1, SVG Export Plug-In . SVG Version: 6.00 Build 0)  -->
<svg version="1.1" id="Layer_1" xmlns="http://www.w3.org/2000/svg" xmlns:xlink="http://www.w3.org/1999/xlink" x="0px" y="0px"
	 viewBox="0 0 24 24" style="enable-background:new 0 0 24 24;" xml:space="preserve">
<style type="text/css">
	.st0{fill:#aaaaaa;}
</style>
<path class="st0" d="M17.1,18.8H6.9c-0.6,0-1-0.4-1-1s0.4-1,1-1h10.3c0.6,0,1,0.4,1,1S17.7,18.8,17.1,18.8z M17.1,13H6.9
	c-0.6,0-1-0.4-1-1s0.4-1,1-1h10.3c0.6,0,1,0.4,1,1S17.7,13,17.1,13z M17.1,7.3H6.9c-0.6,0-1-0.4-1-1s0.4-1,1-1h10.3c0.6,0,1,0.4,1,1
	S17.7,7.3,17.1,7.3z"/>
</svg>
