<?xml version="1.0" encoding="utf-8"?>
<!-- Generator: Adobe Illustrator 22.0.1, SVG Export Plug-In . SVG Version: 6.00 Build 0)  -->
<svg version="1.1" id="Layer_1" xmlns="http://www.w3.org/2000/svg" xmlns:xlink="http://www.w3.org/1999/xlink" x="0px" y="0px"
	 viewBox="0 0 40 40" style="enable-background:new 0 0 40 40;" xml:space="preserve">
<style type="text/css">
	.st0{fill:#22167D;}
	.st1{fill:#3926D3;}
	.st2{fill:#CCCCCC;}
</style>
<rect class="st0" width="40" height="40"/>
<g>
	<path class="st1" d="M11.8,11.3c0,0,6.5,6,13.3,4.4c0,0-0.2,8.2-9.5,9.7c0,0,6.1-2.2,6.8-8.1C22.4,17.3,14.6,17.4,11.8,11.3z"/>
	<g>
		<path class="st1" d="M16.6,21.7c-0.4-0.3-0.7-0.5-1.1-0.9c-0.6-0.6-1.1-1.4-1.5-2.2c-0.6-0.4-1.2-0.8-1.6-1.3
			c0.3,1.6,1.1,3.1,2.3,4.3c0.4,0.4,0.8,0.7,1.2,1C16.2,22.4,16.4,22.1,16.6,21.7z"/>
		<path class="st1" d="M26.5,10c-1.6-1.6-3.7-2.4-5.9-2.4s-4.3,0.9-5.9,2.4c-0.4,0.4-0.8,0.9-1.2,1.5c0.3,0.2,0.6,0.4,1,0.7
			c0.3-0.5,0.6-0.9,1-1.3c1.3-1.3,3.1-2.1,5-2.1s3.7,0.7,5,2.1c1.3,1.3,2.1,3.1,2.1,5s-0.7,3.7-2.1,5c-0.7,0.7-1.4,1.2-2.3,1.5
			c-0.5,0.6-1.1,1.2-1.8,1.7l0,0c1.9-0.2,3.6-1,4.9-2.4c1.6-1.6,2.4-3.7,2.4-5.9C28.9,13.6,28.1,11.5,26.5,10z"/>
	</g>
	<path class="st1" d="M11.2,13.4c0,0,3.1,4.8,9.8,4.9c0,0-0.9,4-4.9,5.8c0,0,2-1.8,2.5-4.6C18.6,19.5,12.6,18.3,11.2,13.4z"/>
</g>
<g>
	<path class="st2" d="M5.2,27.4h1c0.3,0,0.6,0,0.7,0.1c0.2,0.1,0.3,0.2,0.4,0.3c0.1,0.2,0.2,0.4,0.2,0.7c0,0.2,0,0.4-0.1,0.5
		c-0.1,0.1-0.2,0.2-0.4,0.2c0.2,0.1,0.4,0.1,0.5,0.3c0.1,0.1,0.1,0.3,0.1,0.6v0.4c0,0.3,0,0.5-0.1,0.6c-0.1,0.1-0.2,0.2-0.3,0.3
		c-0.1,0-0.4,0.1-0.8,0.1H5.2V27.4z M6.2,28.1V29c0,0,0.1,0,0.1,0c0.1,0,0.2,0,0.2-0.1s0-0.2,0-0.4c0-0.1,0-0.2,0-0.3
		s-0.1-0.1-0.1-0.1C6.4,28.1,6.3,28.1,6.2,28.1z M6.2,29.6v1.1c0.1,0,0.2,0,0.3-0.1c0,0,0.1-0.1,0.1-0.3V30c0-0.2,0-0.3-0.1-0.3
		C6.4,29.6,6.3,29.6,6.2,29.6z"/>
	<path class="st2" d="M9.2,27.4v3.2h0.6v0.8H8.2v-4H9.2z"/>
	<path class="st2" d="M12.7,27.4v2.6c0,0.3,0,0.5,0,0.6s-0.1,0.2-0.2,0.4s-0.2,0.2-0.4,0.3c-0.2,0.1-0.3,0.1-0.6,0.1
		c-0.2,0-0.4,0-0.6-0.1s-0.3-0.2-0.4-0.3c-0.1-0.1-0.1-0.3-0.2-0.4c0-0.1,0-0.4,0-0.9v-2.3h1v3c0,0.2,0,0.3,0,0.3
		c0,0,0.1,0.1,0.1,0.1c0.1,0,0.1,0,0.1-0.1c0-0.1,0-0.2,0-0.4v-2.9H12.7z"/>
	<path class="st2" d="M13.3,27.4H15v0.8h-0.7V29H15v0.8h-0.6v0.9h0.8v0.8h-1.8V27.4z"/>
	<path class="st2" d="M19.1,28.9h-1v-0.4c0-0.2,0-0.4,0-0.4S18,28,17.9,28c-0.1,0-0.1,0-0.1,0.1s0,0.2,0,0.4v1.9c0,0.2,0,0.3,0,0.4
		c0,0.1,0.1,0.1,0.1,0.1c0.1,0,0.1,0,0.2-0.1c0-0.1,0-0.2,0-0.4v-0.5h-0.2v-0.6h1.2v2.1h-0.6l-0.1-0.3c-0.1,0.1-0.2,0.2-0.3,0.3
		c-0.1,0.1-0.2,0.1-0.4,0.1c-0.2,0-0.3,0-0.5-0.1c-0.2-0.1-0.3-0.2-0.3-0.3c-0.1-0.1-0.1-0.3-0.1-0.4s0-0.3,0-0.6v-1.2
		c0-0.4,0-0.7,0.1-0.8c0-0.2,0.2-0.3,0.4-0.5c0.2-0.1,0.4-0.2,0.7-0.2c0.3,0,0.6,0.1,0.7,0.2c0.2,0.1,0.3,0.3,0.4,0.4
		s0.1,0.4,0.1,0.7V28.9z"/>
	<path class="st2" d="M19.8,27.4h0.7c0.5,0,0.8,0,1,0.1c0.2,0,0.3,0.1,0.4,0.3c0.1,0.2,0.2,0.4,0.2,0.7c0,0.3,0,0.5-0.1,0.6
		c-0.1,0.1-0.2,0.2-0.5,0.2c0.2,0,0.3,0.1,0.4,0.2c0.1,0.1,0.1,0.2,0.1,0.2c0,0.1,0,0.3,0,0.6v1h-1v-1.3c0-0.2,0-0.3,0-0.4
		c0,0-0.1-0.1-0.3-0.1v1.8h-1V27.4z M20.8,28.1V29c0.1,0,0.2,0,0.2,0c0,0,0.1-0.1,0.1-0.3v-0.2c0-0.1,0-0.2-0.1-0.2
		C21,28.1,20.9,28.1,20.8,28.1z"/>
	<path class="st2" d="M24.5,27.4l0.6,4h-1L24,30.7h-0.4l-0.1,0.7h-1.1l0.5-4H24.5z M24,30c-0.1-0.4-0.1-1-0.2-1.7
		c-0.1,0.8-0.2,1.3-0.2,1.7H24z"/>
	<path class="st2" d="M27.8,27.4l-0.5,4h-1.6l-0.6-4h1.1c0.1,1.1,0.2,2,0.3,2.8c0.1-0.8,0.1-1.4,0.2-2l0.1-0.7H27.8z"/>
	<path class="st2" d="M29.3,27.4v4h-1v-4H29.3z"/>
	<path class="st2" d="M32,27.4v0.8h-0.6v3.2h-1v-3.2h-0.6v-0.8H32z"/>
	<path class="st2" d="M34.8,27.4l-0.8,2.5v1.4h-1v-1.4l-0.7-2.5h0.9c0.1,0.8,0.2,1.3,0.3,1.6c0.1-0.4,0.2-0.9,0.3-1.6H34.8z"/>
</g>
</svg>
