<?xml version="1.0" encoding="utf-8"?>
<!-- Generator: Adobe Illustrator 22.0.1, SVG Export Plug-In . SVG Version: 6.00 Build 0)  -->
<svg version="1.1" id="Layer_1" xmlns="http://www.w3.org/2000/svg" xmlns:xlink="http://www.w3.org/1999/xlink" x="0px" y="0px"
	 viewBox="0 0 280 80" style="enable-background:new 0 0 280 80;" xml:space="preserve">
<style type="text/css">
	.st0{fill:#3F51B5;}
</style>
<g>
	<path class="st0" d="M56.7,62.8c1.7,1.6,2.5,3.7,2.5,6c0,1.1-0.2,2.2-0.6,3.2s-1.1,1.9-1.8,2.7s-1.6,1.4-2.7,1.9
		c-1,0.4-2.1,0.6-3.2,0.6H40v-4.8h10.8c0.5,0,0.9-0.1,1.4-0.2c0.5-0.2,0.9-0.4,1.2-0.8c0.3-0.3,0.6-0.7,0.7-1.1
		c0.2-0.4,0.3-0.9,0.3-1.4s-0.1-0.9-0.3-1.4c-0.2-0.4-0.4-0.8-0.7-1.1c-0.3-0.3-0.6-0.6-1.1-0.8c-0.5-0.2-0.9-0.3-1.5-0.3H40h-4.8
		v-4.8h2.8h1.9h10.8c0.5,0,0.9-0.1,1.4-0.3c0.5-0.2,0.9-0.4,1.2-0.8c0.3-0.3,0.6-0.7,0.7-1.1c0.2-0.4,0.3-0.9,0.3-1.4
		c0-0.5-0.1-0.9-0.3-1.4c-0.2-0.4-0.4-0.8-0.7-1.1c-0.3-0.3-0.7-0.6-1.2-0.8c-0.4-0.2-0.9-0.2-1.4-0.2H40l-4.8-4.8h15.5
		c1.1,0,2.2,0.2,3.2,0.6c1.1,0.5,1.9,1.1,2.7,1.9c0.7,0.7,1.4,1.6,1.8,2.7c0.4,1,0.6,2.1,0.6,3.2C59.2,59.1,58.3,61.2,56.7,62.8z"/>
	<path class="st0" d="M74.5,48.4v0.8v16.6l-4.8,4.8V49.2v-0.8H74.5z M88.8,72.4v4.8H69.8l4.8-4.8H88.8z"/>
	<path class="st0" d="M117.7,52.6c2.8,2.8,4.3,6.2,4.3,10.2s-1.5,7.4-4.3,10.2c-2.8,2.8-6.2,4.2-10.2,4.2s-7.3-1.5-10.2-4.2
		c-2.8-2.8-4.2-6.2-4.2-10.2s1.5-7.3,4.2-10.2c2.8-2.8,6.2-4.2,10.2-4.2S114.9,49.9,117.7,52.6z M100.8,56.1
		c-1.9,1.9-2.8,4.1-2.8,6.7c0,2.6,0.9,5,2.8,6.8c1.9,1.9,4.1,2.8,6.8,2.8c2.7,0,4.9-0.9,6.7-2.8c1.9-1.9,2.8-4.1,2.8-6.8
		c0-2.7-0.9-4.9-2.8-6.7c-1.9-1.9-4.1-2.8-6.7-2.8S102.7,54.2,100.8,56.1z"/>
	<path class="st0" d="M151.2,69.1l4.8,1.5c-0.6,1-1.4,1.9-2.3,2.7s-1.8,1.5-2.8,2c-1,0.6-2.1,1-3.2,1.3c-1.1,0.3-2.4,0.5-3.6,0.5
		c-4,0-7.3-1.5-10.2-4.2s-4.2-6.2-4.2-10.2s1.4-7.3,4.2-10.2c2.8-2.8,6.1-4.2,10.2-4.2c1.9,0,3.8,0.3,5.6,1.1
		c1.7,0.7,3.2,1.8,4.6,3.1l-3.4,3.4c-1.9-1.9-4.1-2.8-6.7-2.8c-2.6,0-4.9,0.9-6.8,2.8c-1.9,1.9-2.8,4.1-2.8,6.7c0,2.6,0.9,5,2.8,6.8
		c1.9,1.9,4.1,2.8,6.8,2.8c1.5,0,2.8-0.3,4-0.8C149.3,70.9,150.3,70.2,151.2,69.1z M144.1,60.4h12l-4.8,4.8h-7.2V60.4z"/>
	<path class="st0" d="M184.4,69.1l4.8,1.5c-0.6,1-1.4,1.9-2.3,2.7c-0.9,0.8-1.8,1.5-2.8,2c-1,0.6-2.1,1-3.2,1.3
		c-1.1,0.3-2.4,0.5-3.6,0.5c-4,0-7.3-1.5-10.2-4.2c-2.8-2.8-4.2-6.2-4.2-10.2s1.4-7.3,4.2-10.2c2.8-2.8,6.2-4.2,10.2-4.2
		c1.9,0,3.8,0.3,5.6,1.1c1.7,0.7,3.2,1.8,4.6,3.1l-3.4,3.4c-1.9-1.9-4.1-2.8-6.7-2.8c-2.6,0-4.9,0.9-6.8,2.8
		c-1.9,1.9-2.8,4.1-2.8,6.7c0,2.6,0.9,5,2.8,6.8c1.9,1.9,4.1,2.8,6.8,2.8c1.5,0,2.8-0.3,4-0.8C182.4,70.9,183.5,70.2,184.4,69.1z
		 M177.2,60.4h12l-4.8,4.8h-7.2L177.2,60.4L177.2,60.4z"/>
	<path class="st0" d="M215.2,48.4v4.8h-14.4l-4.8-4.8H215.2z M200.8,60.4h14.4v4.8h-14.4H196v-4.8H200.8z M200.8,72.4h14.4v4.8H196
		v-0.4L200.8,72.4z"/>
	<path class="st0" d="M238.8,66.9l5.8,10.3h-5.5L231,62.8h4.3c1.3,0,2.4-0.5,3.3-1.4c1-0.9,1.5-2.1,1.5-3.4s-0.5-2.4-1.5-3.3
		c-0.9-0.9-2-1.4-3.3-1.4h-9.6l-0.6-0.6l-2.4-4.3h12.6c2.6,0,4.9,0.9,6.7,2.8c1.9,1.9,2.8,4.1,2.8,6.7c0,2-0.6,3.8-1.7,5.4
		C241.9,65,240.5,66.2,238.8,66.9z"/>
</g>
<g>
	<path class="st0" d="M96,2.7v5.7H84.7v28.2H79V8.4V2.7H96z"/>
	<path class="st0" d="M12.5,30.8l-2.9,5.7H3.4L20.3,2.7l11.3,22.6h-6.3l-4.9-9.9l-5,9.9L12.5,30.8z M37.2,36.5h-6.3l-2.8-5.6h6.3
		L37.2,36.5z"/>
	<path class="st0" d="M54,24.4l7,12.1h-6.5l-9.8-17h5c1.5,0,2.8-0.5,3.9-1.6c1.1-1.1,1.7-2.5,1.7-4s-0.5-2.8-1.7-3.9
		c-1.1-1.1-2.4-1.6-3.9-1.6H38.4l-0.6-0.6l-2.9-5h14.8c3.1,0,5.8,1.1,8,3.3s3.3,4.9,3.3,8c0,2.4-0.6,4.5-2,6.4
		C57.7,22.2,56,23.6,54,24.4z"/>
	<path class="st0" d="M116.5,30.8l-5.6,5.7V2.7l5.6,5.6V30.8z"/>
	<path class="st0" d="M135.6,31.5c-1.5-1.6-2.7-3.3-3.6-5.4c-0.9-2.1-1.4-4.2-1.4-6.5s0.5-4.5,1.4-6.6c0.9-2,2.1-3.8,3.6-5.3
		c1.6-1.6,3.3-2.7,5.4-3.6c2-0.9,4.2-1.4,6.6-1.4c2.3,0,4.5,0.4,6.6,1.3s3.8,2.1,5.4,3.7l-4,3.9c-2.2-2.2-4.9-3.3-8-3.3
		c-1.6,0-3,0.3-4.4,0.8c-1.4,0.6-2.6,1.4-3.6,2.5c-1,1-1.8,2.2-2.4,3.6c-0.6,1.4-0.9,2.8-0.9,4.4s0.3,3,0.9,4.4
		c0.6,1.4,1.4,2.5,2.5,3.6c1,1.1,2.2,1.9,3.6,2.5c1.4,0.5,2.8,0.8,4.4,0.8l6.6,4.4c-2,0.9-4.2,1.3-6.6,1.3c-2.3,0-4.5-0.5-6.6-1.4
		C138.9,34.3,137.1,33.1,135.6,31.5z"/>
	<path class="st0" d="M180.2,2.7v0.9v19.6l-5.6,5.7V3.6V2.7H180.2z M197.2,30.8v5.7h-22.5l5.6-5.7H197.2z"/>
	<path class="st0" d="M220.4,30.8l-2.9,5.7h-6.3l16.9-33.8l11.3,22.6h-6.3l-4.9-9.9l-5,9.9L220.4,30.8z M245.1,36.5h-6.3l-2.8-5.6
		h6.3L245.1,36.5z"/>
	<path class="st0" d="M269.7,24.4l6.9,12.1h-6.5l-9.8-17h5c1.5,0,2.8-0.5,3.9-1.6s1.7-2.5,1.7-4s-0.6-2.8-1.7-3.9s-2.4-1.6-3.9-1.6
		H254l-0.6-0.6l-2.9-5h14.8c3.1,0,5.8,1.1,8,3.3s3.3,4.9,3.3,8c0,2.4-0.6,4.5-2,6.4C273.3,22.2,271.7,23.6,269.7,24.4z"/>
</g>
</svg>
