<?xml version="1.0" encoding="utf-8"?>
<!-- Generator: Adobe Illustrator 22.0.1, SVG Export Plug-In . SVG Version: 6.00 Build 0)  -->
<svg version="1.1" id="Layer_1" xmlns="http://www.w3.org/2000/svg" xmlns:xlink="http://www.w3.org/1999/xlink" x="0px" y="0px"
	 viewBox="0 0 24 24" style="enable-background:new 0 0 24 24;" xml:space="preserve">
<style type="text/css">
	.st0{fill:none;stroke:#000000;stroke-width:1.5;stroke-miterlimit:10;}
</style>
<path d="M17.9,17.9c0,0.5-0.4,0.9-0.9,0.9l0,0c-0.5,0-0.9-0.4-0.9-0.9V12c0,0.1-0.1,0.2-0.1,0.3l-9.4,6.5c-0.1,0-0.1,0.1-0.2,0.1
	s-0.1,0-0.2,0C6.1,18.8,6,18.7,6,18.6V5.5c0-0.1,0.1-0.2,0.2-0.3c0.1-0.1,0.2,0,0.3,0l9.4,6.5C16,11.8,16,11.9,16,12V6.1
	c0-0.5,0.4-0.9,0.9-0.9H17c0.5,0,0.9,0.4,0.9,0.9V17.9z"/>
<circle class="st0" cx="12" cy="12" r="10.8"/>
</svg>
