<?xml version="1.0" encoding="utf-8"?>
<!-- Generator: Adobe Illustrator 22.0.1, SVG Export Plug-In . SVG Version: 6.00 Build 0)  -->
<svg version="1.1" id="Layer_1" xmlns="http://www.w3.org/2000/svg" xmlns:xlink="http://www.w3.org/1999/xlink" x="0px" y="0px"
	 viewBox="0 0 360 360" style="enable-background:new 0 0 360 360;" xml:space="preserve">
<style type="text/css">
	.st0{fill:#3F51B5;}
	.st1{fill:#FFFFFF;}
</style>
<rect width="360" height="360"/>
<g>
	<g>
		<path class="st0" d="M96.7,174.3c1.7,1.6,2.5,3.7,2.5,6c0,1.1-0.2,2.2-0.6,3.2c-0.4,1-1.1,1.9-1.8,2.7c-0.7,0.8-1.6,1.4-2.7,1.9
			c-1,0.4-2.1,0.6-3.2,0.6H80v-4.8h10.8c0.5,0,0.9-0.1,1.4-0.2c0.5-0.2,0.9-0.4,1.2-0.8c0.3-0.3,0.6-0.7,0.7-1.1
			c0.2-0.4,0.3-0.9,0.3-1.4s-0.1-0.9-0.3-1.4c-0.2-0.4-0.4-0.8-0.7-1.1s-0.6-0.6-1.1-0.8c-0.5-0.2-0.9-0.3-1.5-0.3H80h-4.8V172H78
			h1.9h10.8c0.5,0,0.9-0.1,1.4-0.3s0.9-0.4,1.2-0.8c0.3-0.3,0.6-0.7,0.7-1.1c0.2-0.4,0.3-0.9,0.3-1.4s-0.1-0.9-0.3-1.4
			c-0.2-0.4-0.4-0.8-0.7-1.1s-0.7-0.6-1.2-0.8c-0.4-0.2-0.9-0.2-1.4-0.2H80l-4.8-4.8h15.5c1.1,0,2.2,0.2,3.2,0.6
			c1.1,0.5,1.9,1.1,2.7,1.9c0.7,0.7,1.4,1.6,1.8,2.7c0.4,1,0.6,2.1,0.6,3.2C99.2,170.6,98.3,172.7,96.7,174.3z"/>
		<path class="st0" d="M114.5,159.9v0.8v16.6l-4.8,4.8v-21.4v-0.8H114.5z M128.8,183.9v4.8h-19l4.8-4.8H128.8z"/>
		<path class="st0" d="M157.7,164.1c2.8,2.8,4.3,6.2,4.3,10.2s-1.5,7.4-4.3,10.2s-6.2,4.2-10.2,4.2s-7.3-1.5-10.2-4.2
			c-2.8-2.8-4.2-6.2-4.2-10.2s1.5-7.3,4.2-10.2c2.8-2.8,6.2-4.2,10.2-4.2S154.9,161.4,157.7,164.1z M140.8,167.6
			c-1.9,1.9-2.8,4.1-2.8,6.7s0.9,5,2.8,6.8c1.9,1.9,4.1,2.8,6.8,2.8c2.7,0,4.9-0.9,6.7-2.8c1.9-1.9,2.8-4.1,2.8-6.8
			s-0.9-4.9-2.8-6.7c-1.9-1.9-4.1-2.8-6.7-2.8S142.7,165.7,140.8,167.6z"/>
		<path class="st0" d="M191.2,180.6l4.8,1.5c-0.6,1-1.4,1.9-2.3,2.7c-0.9,0.8-1.8,1.5-2.8,2c-1,0.6-2.1,1-3.2,1.3
			c-1.1,0.3-2.4,0.5-3.6,0.5c-4,0-7.3-1.5-10.2-4.2s-4.2-6.2-4.2-10.2c0-4,1.4-7.3,4.2-10.2c2.8-2.8,6.1-4.2,10.2-4.2
			c1.9,0,3.8,0.3,5.6,1.1c1.7,0.7,3.2,1.8,4.6,3.1l-3.4,3.4c-1.9-1.9-4.1-2.8-6.7-2.8c-2.6,0-4.9,0.9-6.8,2.8
			c-1.9,1.9-2.8,4.1-2.8,6.7c0,2.6,0.9,5,2.8,6.8c1.9,1.9,4.1,2.8,6.8,2.8c1.5,0,2.8-0.3,4-0.8C189.3,182.4,190.3,181.7,191.2,180.6
			z M184.1,171.9h12l-4.8,4.8h-7.2V171.9z"/>
		<path class="st0" d="M224.4,180.6l4.8,1.5c-0.6,1-1.4,1.9-2.3,2.7c-0.9,0.8-1.8,1.5-2.8,2c-1,0.6-2.1,1-3.2,1.3
			c-1.1,0.3-2.4,0.5-3.6,0.5c-4,0-7.3-1.5-10.2-4.2c-2.8-2.8-4.2-6.2-4.2-10.2c0-4,1.4-7.3,4.2-10.2c2.8-2.8,6.2-4.2,10.2-4.2
			c1.9,0,3.8,0.3,5.6,1.1c1.7,0.7,3.2,1.8,4.6,3.1l-3.4,3.4c-1.9-1.9-4.1-2.8-6.7-2.8c-2.6,0-4.9,0.9-6.8,2.8
			c-1.9,1.9-2.8,4.1-2.8,6.7c0,2.6,0.9,5,2.8,6.8c1.9,1.9,4.1,2.8,6.8,2.8c1.5,0,2.8-0.3,4-0.8C222.4,182.4,223.5,181.7,224.4,180.6
			z M217.2,171.9h12l-4.8,4.8h-7.2V171.9L217.2,171.9z"/>
		<path class="st0" d="M255.2,159.9v4.8h-14.4l-4.8-4.8H255.2z M240.8,171.9h14.4v4.8h-14.4H236v-4.8
			C236,171.9,240.8,171.9,240.8,171.9z M240.8,183.9h14.4v4.8H236v-0.4L240.8,183.9z"/>
		<path class="st0" d="M278.8,178.4l5.8,10.3h-5.5l-8.1-14.4h4.3c1.3,0,2.4-0.5,3.3-1.4c1-0.9,1.5-2.1,1.5-3.4s-0.5-2.4-1.5-3.3
			c-0.9-0.9-2-1.4-3.3-1.4h-9.6l-0.6-0.6l-2.4-4.3h12.6c2.6,0,4.9,0.9,6.7,2.8c1.9,1.9,2.8,4.1,2.8,6.7c0,2-0.6,3.8-1.7,5.4
			C281.9,176.5,280.5,177.7,278.8,178.4z"/>
	</g>
	<g>
		<path class="st0" d="M136,114.2v5.7h-11.3v28.2H119v-28.2v-5.7H136z"/>
		<path class="st0" d="M52.5,142.3l-2.9,5.7h-6.2l16.9-33.8l11.3,22.6h-6.3l-4.9-9.9l-5,9.9L52.5,142.3z M77.2,148h-6.3l-2.8-5.6
			h6.3L77.2,148z"/>
		<path class="st0" d="M94,135.9l7,12.1h-6.5l-9.8-17h5c1.5,0,2.8-0.5,3.9-1.6c1.1-1.1,1.7-2.5,1.7-4s-0.5-2.8-1.7-3.9
			c-1.1-1.1-2.4-1.6-3.9-1.6H78.4l-0.6-0.6l-2.9-5h14.8c3.1,0,5.8,1.1,8,3.3c2.2,2.2,3.3,4.9,3.3,8c0,2.4-0.6,4.5-2,6.4
			C97.7,133.7,96,135.1,94,135.9z"/>
		<path class="st0" d="M156.5,142.3l-5.6,5.7v-33.8l5.6,5.6V142.3z"/>
		<path class="st0" d="M175.6,143c-1.5-1.6-2.7-3.3-3.6-5.4c-0.9-2.1-1.4-4.2-1.4-6.5s0.5-4.5,1.4-6.6c0.9-2,2.1-3.8,3.6-5.3
			c1.6-1.6,3.3-2.7,5.4-3.6c2-0.9,4.2-1.4,6.6-1.4c2.3,0,4.5,0.4,6.6,1.3s3.8,2.1,5.4,3.7l-4,3.9c-2.2-2.2-4.9-3.3-8-3.3
			c-1.6,0-3,0.3-4.4,0.8c-1.4,0.6-2.6,1.4-3.6,2.5c-1,1-1.8,2.2-2.4,3.6c-0.6,1.4-0.9,2.8-0.9,4.4s0.3,3,0.9,4.4
			c0.6,1.4,1.4,2.5,2.5,3.6c1,1.1,2.2,1.9,3.6,2.5c1.4,0.5,2.8,0.8,4.4,0.8l6.6,4.4c-2,0.9-4.2,1.3-6.6,1.3c-2.3,0-4.5-0.5-6.6-1.4
			C178.9,145.8,177.1,144.6,175.6,143z"/>
		<path class="st0" d="M220.2,114.2v0.9v19.6l-5.6,5.7v-25.3v-0.9H220.2z M237.2,142.3v5.7h-22.5l5.6-5.7H237.2z"/>
		<path class="st0" d="M260.4,142.3l-2.9,5.7h-6.3l16.9-33.8l11.3,22.6h-6.3l-4.9-9.9l-5,9.9L260.4,142.3z M285.1,148h-6.3l-2.8-5.6
			h6.3L285.1,148z"/>
		<path class="st0" d="M309.7,135.9l6.9,12.1h-6.5l-9.8-17h5c1.5,0,2.8-0.5,3.9-1.6c1.1-1.1,1.7-2.5,1.7-4s-0.6-2.8-1.7-3.9
			s-2.4-1.6-3.9-1.6H294l-0.6-0.6l-2.9-5h14.8c3.1,0,5.8,1.1,8,3.3s3.3,4.9,3.3,8c0,2.4-0.6,4.5-2,6.4
			C313.3,133.7,311.7,135.1,309.7,135.9z"/>
	</g>
	<g>
		<path class="st1" d="M68.7,215.5h4.7c4.3,0,9.9,0.2,9.9,10.7v8.7c0,10.4-5.5,10.7-9.9,10.7h-4.7V215.5z M74.4,242.3
			c3.3,0,4.1-1.5,4.1-7.1v-9.3c0-5.6-0.8-7.1-4.1-7.1h-1.2v23.5H74.4z"/>
		<path class="st1" d="M86.5,235.7v-10.6c0-9.1,4.7-9.9,7.5-9.9c2.7,0,7.4,0.7,7.4,9.9v10.6c0,8.9-4.8,10-7.4,10
			C91.1,245.8,86.5,244.8,86.5,235.7z M96.7,237.5v-13.7c0-3.8-0.9-5-2.7-5c-1.8,0-2.7,1.2-2.7,5v13.7c0,3.7,0.9,4.8,2.7,4.8
			C95.8,242.4,96.7,241.2,96.7,237.5z"/>
		<path class="st1" d="M104.9,235.7v-10.6c0-9.1,4.6-9.9,7.3-9.9c4.8,0,6.3,2.9,6.3,6.4c0,1.3-0.1,2.3-0.4,3.6h-3.7v-1.5
			c0-3.3-0.8-4.9-2.1-4.9c-1.7,0-2.5,1.2-2.5,5v13.7c0,3.7,0.7,4.9,2.5,4.9c1.2,0,2.2-1.1,2.2-3.5v-2.9h4.2v2.8
			c0,4.8-2.3,7.1-6.4,7.1C109.3,245.8,104.9,244.8,104.9,235.7z"/>
		<path class="st1" d="M122.1,215.5h4.6v22c0,3.7,0.7,4.9,2.5,4.9s2.7-1.1,2.7-4.9v-22h4.5v20.8c0,8.8-4.6,9.5-7.2,9.5
			c-2.6,0-7.1-0.7-7.1-9.5V215.5z"/>
		<path class="st1" d="M141.4,215.5h5.9l2.9,11.6c0.6,2.6,0.9,4.9,1.2,7h0.1c0.3-2,0.6-4.4,1.2-7l3-11.6h5.8v30h-4.3v-9.9
			c0-6.1,0.3-11.4,0.5-13.5h-0.3l-4.5,19.6h-2.9l-4.6-19.6h-0.3c0.2,2.1,0.5,7.4,0.5,13.5v9.9h-4.3V215.5z"/>
		<path class="st1" d="M166.7,215.5h11.1v3.6h-6.6v9h5.1v3.6h-5.1v10.3h6.8v3.6h-11.3V215.5z"/>
		<path class="st1" d="M181.3,215.5h3.7l7.3,20.1h0.1c-0.2-1.9-0.5-4.5-0.5-9.1v-11h4.1v30h-3.7L185,226h-0.1
			c0.2,2.1,0.5,4.7,0.5,10.7v8.8h-4V215.5z"/>
		<path class="st1" d="M203.9,219.1h-4.8v-3.6h14.2v3.6h-4.8v26.4h-4.6V219.1z"/>
		<path class="st1" d="M219.7,215.5h5.2l5.6,30h-4.6l-0.8-5.4h-5.5l-0.8,5.4h-4.6L219.7,215.5z M224.5,236.7l-2.1-15h-0.2l-2.1,15
			H224.5z"/>
		<path class="st1" d="M236.1,219.1h-4.8v-3.6h14.2v3.6h-4.8v26.4h-4.6V219.1z"/>
		<path class="st1" d="M248.6,215.5h4.6v30h-4.6V215.5z"/>
		<path class="st1" d="M257.4,235.7v-10.6c0-9.1,4.7-9.9,7.5-9.9c2.7,0,7.4,0.7,7.4,9.9v10.6c0,8.9-4.8,10-7.4,10
			C262,245.8,257.4,244.8,257.4,235.7z M267.6,237.5v-13.7c0-3.8-0.9-5-2.7-5c-1.8,0-2.7,1.2-2.7,5v13.7c0,3.7,0.9,4.8,2.7,4.8
			C266.7,242.4,267.6,241.2,267.6,237.5z"/>
		<path class="st1" d="M276.6,215.5h3.7l7.3,20.1h0.1c-0.2-1.9-0.5-4.5-0.5-9.1v-11h4.1v30h-3.7l-7.2-19.6h-0.1
			c0.2,2.1,0.5,4.7,0.5,10.7v8.8h-4V215.5z"/>
	</g>
</g>
</svg>
