<?xml version="1.0" encoding="utf-8"?>
<!-- Generator: Adobe Illustrator 22.0.1, SVG Export Plug-In . SVG Version: 6.00 Build 0)  -->
<svg version="1.1" id="Layer_1" xmlns="http://www.w3.org/2000/svg" xmlns:xlink="http://www.w3.org/1999/xlink" x="0px" y="0px"
	 viewBox="0 0 24 24" style="enable-background:new 0 0 24 24;" xml:space="preserve">
<style type="text/css">
	.st0{fill:#FBD214;}
</style>
<path class="st0" d="M4,22h16c1.1,0,2-0.9,2-2V4c0-1.1-0.9-2-2-2H4C2.9,2,2,2.9,2,4v16C2,21.1,2.9,22,4,22z M5.5,11.7l6.5-6.5
	c0,0,0.1-0.1,0.1-0.1c0,0,0.1,0,0.1,0c0.1,0.1,0.1,0.2,0.1,0.3v3.9l4.2-4.1c0,0,0.1-0.1,0.1-0.1c0,0,0.1,0,0.1,0
	C16.9,5.3,17,5.4,17,5.5v12.9c0,0.1,0,0.2-0.1,0.3c-0.1,0.1-0.2,0-0.2,0l-4.2-4.1v3.9c0,0.1,0,0.2-0.1,0.3c-0.1,0.1-0.2,0-0.2,0
	l-6.5-6.5c-0.1-0.1-0.1-0.2-0.1-0.3S5.5,11.8,5.5,11.7z"/>
</svg>
