<?xml version="1.0" encoding="utf-8"?>
<!-- Generator: Adobe Illustrator 22.0.1, SVG Export Plug-In . SVG Version: 6.00 Build 0)  -->
<svg version="1.1" id="Layer_1" xmlns="http://www.w3.org/2000/svg" xmlns:xlink="http://www.w3.org/1999/xlink" x="0px" y="0px"
	 viewBox="0 0 24 24" style="enable-background:new 0 0 24 24;" xml:space="preserve">
<style type="text/css">
	.st0{fill:#FBD214;}
</style>
<path class="st0" d="M20,2H4C2.9,2,2,2.9,2,4v16c0,1.1,0.9,2,2,2h16c1.1,0,2-0.9,2-2V4C22,2.9,21.1,2,20,2z M16.9,12.3l-9.4,6.5
	c-0.1,0-0.1,0.1-0.2,0.1c-0.1,0-0.1,0-0.1,0C7.1,18.7,7,18.6,7,18.5V5.5c0-0.1,0.1-0.2,0.2-0.3c0.1-0.1,0.2,0,0.3,0l9.4,6.5
	c0.1,0.1,0.1,0.2,0.1,0.3S16.9,12.2,16.9,12.3z"/>
</svg>
