<?xml version="1.0" encoding="utf-8"?>
<!-- Generator: Adobe Illustrator 24.0.2, SVG Export Plug-In . SVG Version: 6.00 Build 0)  -->
<svg version="1.1" id="Layer_1" xmlns="http://www.w3.org/2000/svg" xmlns:xlink="http://www.w3.org/1999/xlink" x="0px" y="0px"
	 viewBox="0 0 160 30" style="enable-background:new 0 0 160 30;" xml:space="preserve">
<style type="text/css">
	.st0{fill:#EA202E;}
	.st1{fill:#FFFFFF;}
</style>
<path class="st0" d="M160,30H0L19.2,7c3.7-4.4,9.1-7,14.8-7h92c5.7,0,11.2,2.5,14.8,7L160,30z"/>
<g>
	<path class="st1" d="M60.3,5.8h3c2.1,0,5.6,0.3,5.6,5.2v0.5c0,2.8-0.8,4.5-2.4,5.3l2.9,7.3h-2.9L64,17.3h-1v6.9h-2.7V5.8z
		 M63.4,15.3c2,0,2.6-0.8,2.6-3.3v-1.5c0-1.9-0.6-2.7-2.6-2.7H63v7.4L63.4,15.3L63.4,15.3z"/>
	<path class="st1" d="M71.5,5.8h6.8V8h-4v5.5h3.1v2.2h-3.1V22h4.1v2.2h-6.9V5.8z"/>
	<path class="st1" d="M82.5,5.8h3.2l3.4,18.4h-2.8l-0.5-3.3h-3.4l-0.5,3.3h-2.8L82.5,5.8z M85.4,18.8l-1.3-9.1H84l-1.3,9.1H85.4z"/>
	<path class="st1" d="M90.8,5.8h2.9c2.6,0,6,0.1,6,6.5v5.3c0,6.4-3.4,6.5-6,6.5h-2.9V5.8z M94.3,22.2c2,0,2.5-0.9,2.5-4.3v-5.7
		c0-3.5-0.5-4.3-2.5-4.3h-0.7v14.4h0.7V22.2z"/>
</g>
</svg>
