<?xml version="1.0" encoding="utf-8"?>
<!-- Generator: Adobe Illustrator 24.0.2, SVG Export Plug-In . SVG Version: 6.00 Build 0)  -->
<svg version="1.1" id="Layer_1" xmlns="http://www.w3.org/2000/svg" xmlns:xlink="http://www.w3.org/1999/xlink" x="0px" y="0px"
	 viewBox="0 0 250 98" style="enable-background:new 0 0 250 98;" xml:space="preserve">
<style type="text/css">
	.st0{fill:#D50000;}
	.st1{stroke:#FFFFFF;stroke-width:1.5;stroke-miterlimit:10;}
	.st2{fill:#FFFFFF;}
</style>
<g>
	<path class="st0" d="M-0.2,0.2V57h5.1c27.3,0,53.7,8.6,76.3,23.8c5.3,3.5,11,6.4,17,8.6c-10.8-8.1-17.8-21-17.8-35.6
		c0-24.6,19.9-44.5,44.5-44.5s44.5,19.9,44.5,44.5c0,14.6-7,27.5-17.8,35.6c6.1-2.2,11.8-5.1,17-8.6c22.6-15.2,49-23.8,76.3-23.8
		h5.1V0.2H-0.2z"/>
	<circle class="st1" cx="124.9" cy="53.9" r="43.2"/>
	<g>
		<path class="st2" d="M122.8,76c0-2.2-0.1-4.3-0.1-6.4c0.4-0.1,0.9-0.2,1.3-0.3c1.7-0.4,2.8-1.4,3.4-3c0.7-1.8,0.4-3.5-1.1-5
			c-0.9-1.1-2.1-1.7-3.5-1.7c-3.4,0-6.8,0-10.3,0c-5.9,0.1-11.1-5.3-11.2-11c-0.1-5.3,2.4-9,7.1-11.2c1.2-0.6,2.4-0.7,3.7-0.9
			c0.6-0.1,0.8,0.2,0.8,0.7c0,1.8,0,3.6,0,5.4c0,0.5-0.1,0.6-0.6,0.7c-2.1,0.2-4,1.8-4.3,4.2c-0.2,2.4,0.8,4.2,3.1,5.3
			c0.6,0.3,1.4,0.3,2.1,0.3c3.1,0,6.2,0,9.3,0c5.2,0,8.8,2.5,10.9,7.2c1.8,4.3,1,9.4-3,12.9c-1.9,1.7-4.2,2.8-6.8,2.9
			C123.4,76,123.1,76,122.8,76z"/>
		<path class="st2" d="M128.7,44.2c-1,1.7-2,3.3-2.8,4.9c-0.3,0.5-0.5,0.6-1,0.6c-1.9,0-3.9,0-5.8,0c-0.7,0-0.7-0.2-0.4-0.8
			c3.2-5.7,6.4-11.3,9.6-17c0.1-0.2,0.2-0.6,0.5-0.6c0.3,0,0.4,0.4,0.5,0.6c2.5,4.5,5.1,8.9,7.6,13.3c0.7,1.3,1.4,2.5,2.1,3.8
			c0.3,0.5,0.2,0.7-0.4,0.7c-2.1,0-4.1,0-6.2,0c-0.5,0-0.7-0.3-1-0.7C130.5,47.4,129.6,45.9,128.7,44.2z"/>
		<path class="st2" d="M110.2,70.7c-1,0-2.1,0-3.1,0c-0.5,0-0.7-0.1-0.4-0.6c1.1-1.9,2.2-3.9,3.3-5.9c0.2-0.4,0.5-0.5,1-0.5
			c1.9,0,3.9,0,5.8,0c0.6,0,0.7,0.2,0.4,0.7c-1.1,2-2.2,4-3.3,6c-0.2,0.4-0.4,0.4-0.8,0.4C112.2,70.7,111.2,70.7,110.2,70.7z"/>
		<path class="st2" d="M137.9,64.1c2.4,0,4.6,0,6.8,0c0.3,0,0.5,0.1,0.7,0.4c1,2,2,4,3,6.1c-2.4,0-4.6,0-6.9,0
			c-0.4,0-0.5-0.3-0.6-0.6C139.8,68.1,138.9,66.2,137.9,64.1z"/>
		<path class="st2" d="M122.8,76c0.3,0,0.6,0,0.9,0C123.4,76.6,123.1,76.6,122.8,76z"/>
	</g>
</g>
</svg>
