<?xml version="1.0" encoding="utf-8"?>
<!-- Generator: Adobe Illustrator 24.0.2, SVG Export Plug-In . SVG Version: 6.00 Build 0)  -->
<svg version="1.1" id="Layer_1" xmlns="http://www.w3.org/2000/svg" xmlns:xlink="http://www.w3.org/1999/xlink" x="0px" y="0px"
	 viewBox="0 0 180 180" style="enable-background:new 0 0 180 180;" xml:space="preserve">
<style type="text/css">
	.st0{fill:#D50000;}
	.st1{stroke:#FFFFFF;stroke-width:1.5;stroke-miterlimit:10;}
	.st2{fill:#FFFFFF;}
</style>
<rect x="0" class="st0" width="180" height="180"/>
<circle class="st1" cx="89.9" cy="94.9" r="43.2"/>
<g>
	<path class="st2" d="M87.8,117c0-2.2-0.1-4.3-0.1-6.4c0.4-0.1,0.9-0.2,1.3-0.3c1.7-0.4,2.8-1.4,3.4-3c0.7-1.8,0.4-3.5-1.1-5
		c-0.9-1.1-2.1-1.7-3.5-1.7c-3.4,0-6.8,0-10.3,0c-5.9,0.1-11.1-5.3-11.2-11c-0.1-5.3,2.4-9,7.1-11.2c1.2-0.6,2.4-0.7,3.7-0.9
		c0.6-0.1,0.8,0.2,0.8,0.7c0,1.8,0,3.6,0,5.4c0,0.5-0.1,0.6-0.6,0.7c-2.1,0.2-4,1.8-4.3,4.2c-0.2,2.4,0.8,4.2,3.1,5.3
		c0.6,0.3,1.4,0.3,2.1,0.3c3.1,0,6.2,0,9.3,0c5.2,0,8.8,2.5,10.9,7.2c1.8,4.3,1,9.4-3,12.9c-1.9,1.7-4.2,2.8-6.8,2.9
		C88.4,117,88.1,117,87.8,117z"/>
	<path class="st2" d="M93.7,85.2c-1,1.7-2,3.3-2.8,4.9c-0.3,0.5-0.5,0.6-1,0.6c-1.9,0-3.9,0-5.8,0c-0.7,0-0.7-0.2-0.4-0.8
		c3.2-5.7,6.4-11.3,9.6-17c0.1-0.2,0.2-0.6,0.5-0.6s0.4,0.4,0.5,0.6c2.5,4.5,5.1,8.9,7.6,13.3c0.7,1.3,1.4,2.5,2.1,3.8
		c0.3,0.5,0.2,0.7-0.4,0.7c-2.1,0-4.1,0-6.2,0c-0.5,0-0.7-0.3-1-0.7C95.5,88.4,94.6,86.9,93.7,85.2z"/>
	<path class="st2" d="M75.2,111.7c-1,0-2.1,0-3.1,0c-0.5,0-0.7-0.1-0.4-0.6c1.1-1.9,2.2-3.9,3.3-5.9c0.2-0.4,0.5-0.5,1-0.5
		c1.9,0,3.9,0,5.8,0c0.6,0,0.7,0.2,0.4,0.7c-1.1,2-2.2,4-3.3,6c-0.2,0.4-0.4,0.4-0.8,0.4C77.2,111.7,76.2,111.7,75.2,111.7z"/>
	<path class="st2" d="M102.9,105.1c2.4,0,4.6,0,6.8,0c0.3,0,0.5,0.1,0.7,0.4c1,2,2,4,3,6.1c-2.4,0-4.6,0-6.9,0
		c-0.4,0-0.5-0.3-0.6-0.6C104.8,109.1,103.9,107.2,102.9,105.1z"/>
	<path class="st2" d="M87.8,117c0.3,0,0.6,0,0.9,0C88.4,117.6,88.1,117.6,87.8,117z"/>
</g>
</svg>
